<svg viewBox="0 0 151 24" fill="none" xmlns="http://www.w3.org/2000/svg">
<path d="M143.256 10.0534H146.541V11.5657C146.886 11.0117 147.321 10.5925 147.831 10.293C148.341 9.99354 148.926 9.84381 149.601 9.84381C149.691 9.84381 149.781 9.84381 149.886 9.84381C149.991 9.84381 150.111 9.85878 150.246 9.87376V13.0032C149.811 12.7935 149.346 12.6738 148.836 12.6738C148.071 12.6738 147.501 12.8984 147.126 13.3476C146.751 13.7968 146.556 14.4556 146.556 15.324V19.3069H143.271V10.0534H143.256Z" fill="white"/>
<path d="M42.9063 10.0535H46.2063V19.3369H42.9063V18.3037C42.2013 19.1872 41.2563 19.6214 40.0563 19.6214C39.3813 19.6214 38.7513 19.5016 38.1963 19.2471C37.6263 19.0075 37.1313 18.6481 36.7113 18.2139C36.2913 17.7647 35.9613 17.2406 35.7213 16.6417C35.4813 16.0428 35.3613 15.384 35.3613 14.6652C35.3613 14.0064 35.4813 13.3775 35.7063 12.7786C35.9313 12.1797 36.2613 11.6556 36.6663 11.2214C37.0713 10.7722 37.5663 10.4278 38.1363 10.1583C38.7063 9.90374 39.3363 9.76898 40.0263 9.76898C41.1813 9.76898 42.1413 10.1733 42.9063 10.9818V10.0535ZM38.7813 14.6652C38.7813 14.9647 38.8413 15.2492 38.9463 15.5037C39.0513 15.7583 39.2013 15.9829 39.3963 16.1775C39.5763 16.3722 39.8013 16.5219 40.0713 16.6267C40.3263 16.7315 40.6113 16.7914 40.9113 16.7914C41.1963 16.7914 41.4813 16.7315 41.7363 16.6267C41.9913 16.5219 42.2163 16.3722 42.4113 16.1775C42.5913 15.9829 42.7563 15.7583 42.8613 15.5037C42.9813 15.2492 43.0263 14.9797 43.0263 14.6952C43.0263 14.4107 42.9663 14.1262 42.8613 13.8717C42.7413 13.6171 42.5913 13.3925 42.4113 13.1979C42.2313 13.0032 42.0063 12.8535 41.7363 12.7487C41.4813 12.6438 41.1963 12.584 40.9113 12.584C40.6113 12.584 40.3263 12.6438 40.0713 12.7487C39.8163 12.8535 39.5913 13.0032 39.3963 13.1979C39.2163 13.3925 39.0663 13.6171 38.9463 13.8567C38.8263 14.1112 38.7813 14.3807 38.7813 14.6652Z" fill="white"/>
<path d="M47.7214 10.0534H51.0064V11.1914C51.9064 10.3379 52.8964 9.90371 54.0064 9.90371C55.3864 9.90371 56.4364 10.4877 57.1564 11.6406C57.8914 10.4727 58.9414 9.88873 60.3064 9.88873C60.7414 9.88873 61.1464 9.94863 61.5364 10.0834C61.9264 10.2032 62.2564 10.4128 62.5264 10.6823C62.8114 10.9518 63.0214 11.3112 63.1864 11.7454C63.3514 12.1796 63.4264 12.7037 63.4264 13.3176V19.3369H60.1414V14.755C60.1414 14.2909 60.1114 13.9016 60.0364 13.6021C59.9764 13.3026 59.8714 13.0631 59.7514 12.8984C59.6314 12.7337 59.4814 12.6139 59.3014 12.554C59.1364 12.4941 58.9564 12.4641 58.7614 12.4641C57.7114 12.4641 57.1864 13.2278 57.1864 14.755V19.3369H53.9314V14.755C53.9314 14.2909 53.9014 13.9016 53.8414 13.5871C53.7814 13.2727 53.6914 13.0331 53.5714 12.8534C53.4514 12.6738 53.3014 12.554 53.1214 12.4791C52.9414 12.4192 52.7314 12.3743 52.4914 12.3743C52.2814 12.3743 52.0864 12.4042 51.9064 12.4641C51.7264 12.524 51.5614 12.6438 51.4264 12.8235C51.2914 13.0032 51.1714 13.2427 51.0964 13.5422C51.0214 13.8566 50.9764 14.246 50.9764 14.7401V19.3219H47.6914V10.0534H47.7214Z" fill="white"/>
<path d="M68.2413 4.31873V10.9818C69.0213 10.1733 69.9813 9.76899 71.1363 9.76899C71.8263 9.76899 72.4563 9.90375 73.0263 10.1583C73.5963 10.4128 74.0913 10.7722 74.4963 11.2064C74.9013 11.6407 75.2163 12.1647 75.4413 12.7636C75.6663 13.3626 75.7863 13.9915 75.7863 14.6652C75.7863 15.354 75.6663 15.9979 75.4263 16.5968C75.1863 17.1957 74.8563 17.7198 74.4363 18.169C74.0163 18.6182 73.5213 18.9626 72.9363 19.2321C72.3663 19.4866 71.7363 19.6214 71.0763 19.6214C69.8613 19.6214 68.9163 19.1872 68.2113 18.3038V19.3369H64.9263V4.31873H68.2413ZM72.3813 14.7251C72.3813 14.4407 72.3213 14.1562 72.2163 13.9016C72.1113 13.6471 71.9613 13.4225 71.7663 13.2278C71.5713 13.0332 71.3463 12.8834 71.0913 12.7636C70.8363 12.6439 70.5663 12.5989 70.2513 12.5989C69.9663 12.5989 69.6963 12.6588 69.4413 12.7636C69.1863 12.8685 68.9613 13.0182 68.7813 13.2128C68.6013 13.4075 68.4363 13.6321 68.3313 13.8866C68.2113 14.1412 68.1663 14.4257 68.1663 14.7102C68.1663 14.9947 68.2263 15.2642 68.3313 15.5187C68.4363 15.7733 68.5863 15.9979 68.7813 16.1775C68.9763 16.3572 69.2013 16.5219 69.4563 16.6267C69.7113 16.7465 69.9963 16.7915 70.2813 16.7915C70.5663 16.7915 70.8363 16.7316 71.0913 16.6267C71.3463 16.5219 71.5713 16.3722 71.7513 16.1775C71.9313 15.9829 72.0963 15.7583 72.2013 15.5038C72.3213 15.2642 72.3813 14.9947 72.3813 14.7251Z" fill="white"/>
<path d="M84.4713 10.0535H87.7713V19.3369H84.4713V18.3037C83.7663 19.1872 82.8213 19.6214 81.6213 19.6214C80.9463 19.6214 80.3163 19.5016 79.7613 19.2471C79.1913 19.0075 78.6963 18.6481 78.2763 18.2139C77.8563 17.7647 77.5263 17.2406 77.2863 16.6417C77.0463 16.0428 76.9263 15.384 76.9263 14.6652C76.9263 14.0064 77.0463 13.3775 77.2713 12.7786C77.4963 12.1797 77.8263 11.6556 78.2313 11.2214C78.6363 10.7722 79.1313 10.4278 79.7013 10.1583C80.2713 9.90374 80.9013 9.76898 81.5913 9.76898C82.7463 9.76898 83.7063 10.1733 84.4713 10.9818V10.0535ZM80.3463 14.6652C80.3463 14.9647 80.4063 15.2492 80.5113 15.5037C80.6163 15.7583 80.7663 15.9829 80.9613 16.1775C81.1413 16.3722 81.3663 16.5219 81.6363 16.6267C81.8913 16.7315 82.1763 16.7914 82.4763 16.7914C82.7613 16.7914 83.0463 16.7315 83.3013 16.6267C83.5563 16.5219 83.7813 16.3722 83.9763 16.1775C84.1563 15.9829 84.3213 15.7583 84.4263 15.5037C84.5463 15.2492 84.5913 14.9797 84.5913 14.6952C84.5913 14.4107 84.5313 14.1262 84.4263 13.8717C84.3063 13.6171 84.1563 13.3925 83.9763 13.1979C83.7963 13.0032 83.5713 12.8535 83.3013 12.7487C83.0463 12.6438 82.7613 12.584 82.4763 12.584C82.1763 12.584 81.8913 12.6438 81.6363 12.7487C81.3813 12.8535 81.1563 13.0032 80.9613 13.1979C80.7813 13.3925 80.6313 13.6171 80.5113 13.8567C80.4063 14.1112 80.3463 14.3807 80.3463 14.6652Z" fill="white"/>
<path d="M95.7964 12.4342C95.1964 12.1198 94.5964 11.97 94.0264 11.97C93.7264 11.97 93.4864 12.0299 93.2914 12.1497C93.1114 12.2695 93.0064 12.4342 93.0064 12.6438C93.0064 12.7487 93.0214 12.8385 93.0514 12.9134C93.0814 12.9733 93.1414 13.0481 93.2464 13.108C93.3514 13.1679 93.5014 13.2278 93.6964 13.2727C93.8914 13.3176 94.1614 13.3775 94.4914 13.4524C95.3914 13.6321 96.0664 13.9615 96.5164 14.4257C96.9664 14.8898 97.1914 15.4888 97.1914 16.2075C97.1914 16.7465 97.0864 17.2406 96.8614 17.6749C96.6514 18.1091 96.3364 18.4684 95.9614 18.7679C95.5714 19.0674 95.1064 19.292 94.5664 19.4567C94.0264 19.6214 93.4264 19.6963 92.7664 19.6963C91.5064 19.6963 90.2764 19.3369 89.0464 18.6332L90.2464 16.3123C91.1614 16.9412 92.0314 17.2556 92.8564 17.2556C93.1564 17.2556 93.4114 17.1957 93.6064 17.061C93.8014 16.9262 93.8914 16.7615 93.8914 16.5519C93.8914 16.4321 93.8764 16.3273 93.8464 16.2524C93.8164 16.1775 93.7564 16.1027 93.6514 16.0428C93.5614 15.9829 93.4114 15.923 93.2314 15.8631C93.0514 15.8032 92.7964 15.7583 92.4964 15.6984C91.4764 15.4888 90.7714 15.1893 90.3664 14.785C89.9614 14.3807 89.7664 13.8267 89.7664 13.108C89.7664 12.584 89.8564 12.1198 90.0514 11.7005C90.2464 11.2813 90.5164 10.9369 90.8914 10.6374C91.2514 10.3529 91.6864 10.1283 92.2114 9.96363C92.7214 9.8139 93.2914 9.72406 93.9214 9.72406C94.9414 9.72406 95.9464 9.91871 96.9064 10.323L95.7964 12.4342Z" fill="white"/>
<path d="M104.662 12.4342C104.062 12.1198 103.462 11.97 102.892 11.97C102.592 11.97 102.352 12.0299 102.157 12.1497C101.977 12.2695 101.872 12.4342 101.872 12.6438C101.872 12.7487 101.887 12.8385 101.917 12.9134C101.947 12.9733 102.007 13.0481 102.112 13.108C102.217 13.1679 102.367 13.2278 102.562 13.2727C102.757 13.3176 103.027 13.3775 103.357 13.4524C104.257 13.6321 104.932 13.9615 105.382 14.4257C105.832 14.8898 106.057 15.4888 106.057 16.2075C106.057 16.7465 105.952 17.2406 105.727 17.6749C105.517 18.1091 105.202 18.4684 104.827 18.7679C104.437 19.0674 103.972 19.292 103.432 19.4567C102.892 19.6214 102.292 19.6963 101.632 19.6963C100.372 19.6963 99.1416 19.3369 97.9116 18.6332L99.1116 16.3123C100.027 16.9412 100.897 17.2556 101.722 17.2556C102.022 17.2556 102.277 17.1957 102.472 17.061C102.667 16.9262 102.757 16.7615 102.757 16.5519C102.757 16.4321 102.742 16.3273 102.712 16.2524C102.682 16.1775 102.622 16.1027 102.517 16.0428C102.427 15.9829 102.277 15.923 102.097 15.8631C101.917 15.8032 101.662 15.7583 101.362 15.6984C100.342 15.4888 99.6366 15.1893 99.2316 14.785C98.8266 14.3807 98.6316 13.8267 98.6316 13.108C98.6316 12.584 98.7216 12.1198 98.9166 11.7005C99.1116 11.2813 99.3816 10.9369 99.7566 10.6374C100.117 10.3529 100.552 10.1283 101.077 9.96363C101.587 9.8139 102.157 9.72406 102.787 9.72406C103.807 9.72406 104.812 9.91871 105.772 10.323L104.662 12.4342Z" fill="white"/>
<path d="M114.531 10.0535H117.831V19.3369H114.531V18.3037C113.826 19.1872 112.881 19.6214 111.681 19.6214C111.006 19.6214 110.376 19.5016 109.821 19.2471C109.251 19.0075 108.756 18.6481 108.336 18.2139C107.916 17.7647 107.586 17.2406 107.346 16.6417C107.106 16.0428 106.986 15.384 106.986 14.6652C106.986 14.0064 107.106 13.3775 107.331 12.7786C107.556 12.1797 107.886 11.6556 108.291 11.2214C108.696 10.7722 109.191 10.4278 109.761 10.1583C110.331 9.90374 110.961 9.76898 111.651 9.76898C112.806 9.76898 113.766 10.1733 114.531 10.9818V10.0535ZM110.391 14.6652C110.391 14.9647 110.451 15.2492 110.556 15.5037C110.661 15.7583 110.811 15.9829 111.006 16.1775C111.186 16.3722 111.411 16.5219 111.681 16.6267C111.936 16.7315 112.221 16.7914 112.521 16.7914C112.806 16.7914 113.091 16.7315 113.346 16.6267C113.601 16.5219 113.826 16.3722 114.021 16.1775C114.201 15.9829 114.366 15.7583 114.471 15.5037C114.591 15.2492 114.636 14.9797 114.636 14.6952C114.636 14.4107 114.576 14.1262 114.471 13.8717C114.351 13.6171 114.201 13.3925 114.021 13.1979C113.841 13.0032 113.616 12.8535 113.346 12.7487C113.091 12.6438 112.806 12.584 112.521 12.584C112.221 12.584 111.936 12.6438 111.681 12.7487C111.426 12.8535 111.201 13.0032 111.006 13.1979C110.826 13.3925 110.676 13.6171 110.556 13.8567C110.451 14.1112 110.391 14.3807 110.391 14.6652Z" fill="white"/>
<path d="M126.502 4.31873H129.802V19.3219H126.502V18.2888C125.797 19.1722 124.852 19.6064 123.652 19.6064C122.977 19.6064 122.347 19.4866 121.792 19.2321C121.222 18.9775 120.727 18.6332 120.307 18.184C119.887 17.7348 119.557 17.2107 119.317 16.6118C119.077 16.0128 118.957 15.354 118.957 14.6652C118.957 14.0064 119.062 13.3775 119.287 12.7786C119.512 12.1797 119.827 11.6556 120.232 11.2214C120.637 10.7722 121.132 10.4278 121.702 10.1583C122.272 9.90375 122.902 9.76899 123.592 9.76899C124.747 9.76899 125.707 10.1733 126.472 10.9818V4.31873H126.502ZM122.377 14.6652C122.377 14.9647 122.437 15.2492 122.542 15.5038C122.647 15.7583 122.797 15.9829 122.992 16.1775C123.172 16.3722 123.397 16.5219 123.667 16.6267C123.922 16.7316 124.207 16.7915 124.507 16.7915C124.792 16.7915 125.077 16.7316 125.332 16.6267C125.587 16.5219 125.812 16.3722 126.007 16.1775C126.187 15.9829 126.352 15.7583 126.457 15.5038C126.577 15.2492 126.622 14.9797 126.622 14.6952C126.622 14.4107 126.562 14.1262 126.457 13.8717C126.337 13.6171 126.187 13.3925 126.007 13.1979C125.827 13.0032 125.602 12.8535 125.332 12.7487C125.077 12.6439 124.792 12.584 124.507 12.584C124.222 12.584 123.937 12.6439 123.682 12.7487C123.427 12.8535 123.202 13.0032 123.007 13.1979C122.827 13.3925 122.662 13.6171 122.557 13.8567C122.437 14.1112 122.377 14.3808 122.377 14.6652Z" fill="white"/>
<path d="M130.941 14.6054C130.941 13.9166 131.076 13.2727 131.361 12.6738C131.646 12.0749 132.021 11.5658 132.516 11.1166C133.011 10.6824 133.596 10.323 134.286 10.0834C134.961 9.82889 135.711 9.70911 136.521 9.70911C137.316 9.70911 138.051 9.82889 138.741 10.0834C139.416 10.338 140.016 10.6674 140.511 11.1166C141.006 11.5508 141.396 12.0749 141.681 12.6888C141.966 13.3027 142.101 13.9765 142.101 14.7102C142.101 15.4439 141.966 16.1177 141.681 16.7316C141.396 17.3455 141.006 17.8695 140.511 18.3038C140.016 18.738 139.416 19.0824 138.726 19.3219C138.036 19.5615 137.286 19.6813 136.476 19.6813C135.681 19.6813 134.946 19.5615 134.271 19.3219C133.596 19.0824 133.011 18.738 132.516 18.2888C132.021 17.8396 131.646 17.3155 131.361 16.6866C131.076 16.0578 130.941 15.369 130.941 14.6054ZM134.406 14.6503C134.406 14.9647 134.466 15.2492 134.571 15.5038C134.691 15.7583 134.841 15.9829 135.021 16.1776C135.201 16.3722 135.426 16.5219 135.696 16.6268C135.951 16.7316 136.236 16.7915 136.521 16.7915C136.806 16.7915 137.091 16.7316 137.346 16.6268C137.601 16.5219 137.826 16.3722 138.021 16.1776C138.201 15.9829 138.366 15.7583 138.471 15.5038C138.591 15.2492 138.636 14.9647 138.636 14.6653C138.636 14.3808 138.576 14.0963 138.471 13.8417C138.351 13.5872 138.201 13.3626 138.021 13.1679C137.841 12.9733 137.616 12.8235 137.346 12.7187C137.091 12.6139 136.806 12.554 136.521 12.554C136.236 12.554 135.951 12.6139 135.696 12.7187C135.441 12.8235 135.216 12.9733 135.021 13.1679C134.841 13.3626 134.676 13.5872 134.571 13.8417C134.451 14.0813 134.406 14.3508 134.406 14.6503Z" fill="white"/>
<path d="M2.21135 23.2C1.70135 23.2 1.19135 23.0053 0.816351 22.616C0.231351 22.0321 0.0663513 21.1486 0.411351 20.385L8.85635 1.95293C9.17135 1.24919 9.86135 0.799988 10.6564 0.799988C11.4364 0.799988 12.1264 1.24919 12.4564 1.95293L17.9314 13.9166L23.7364 11.2663C24.5014 10.9219 25.3714 11.0716 25.9714 11.6706C26.5564 12.2545 26.7214 13.138 26.3764 13.9016L22.8064 21.6877C22.4764 22.4064 21.7864 22.8406 21.0064 22.8406C20.2264 22.8406 19.5213 22.3914 19.2063 21.6877L16.9113 16.6866L3.05135 23.0203C2.78135 23.1401 2.49635 23.2 2.21135 23.2ZM10.6564 3.031L2.43635 20.9989L16.0414 14.785L10.6564 3.031ZM18.8014 15.8182L20.9914 20.6096L24.3514 13.2727L18.8014 15.8182Z" fill="#795CEC"/>
</svg>
