<svg viewBox="0 0 344 273" fill="none" xmlns="http://www.w3.org/2000/svg">
  <g filter="url(#filter0_d)">
    <path d="M287.94 67.3816h-3.068c-7.157-19.0071-25.562-32.5837-47.035-32.5837-15.338 0-29.312 6.7883-38.515 17.9889-14.315-17.3101-35.788-28.1713-59.987-28.1713-34.765 0-64.4183 23.0801-73.9618 54.6456C30.6078 82.3158 3 111.505 3 147.144c0 37.675 30.6754 68.222 68.5083 68.222 7.8393 0 14.9969-1.358 21.8136-3.733 11.2481 26.474 37.4921 45.142 68.1671 45.142 25.222 0 47.718-12.559 61.01-31.905 9.203 7.127 20.451 11.2 32.721 11.2 29.653 0 53.511-23.759 53.511-53.288 0-2.715-.341-5.77-.682-8.485 20.792-8.146 35.448-28.171 35.448-51.93.34-30.2082-24.541-54.9854-55.557-54.9854z" fill="#E9F6FF"/>
    <path d="M283.611 67.8569l.328.8732H287.94c30.291 0 54.54 24.1893 54.208 53.6209v.016c0 23.183-14.297 42.723-34.59 50.674l-.977.383.13 1.041c.341 2.716.672 5.695.672 8.317 0 28.779-23.25 51.94-52.163 51.94-11.962 0-22.921-3.968-31.895-10.918l-1.129-.875-.808 1.177c-13.047 18.989-35.131 31.32-59.899 31.32-30.113 0-55.882-18.325-66.9259-44.321l-.4935-1.161-1.1915.415c-6.6851 2.33-13.6929 3.659-21.3698 3.659-37.0935 0-67.15978-29.949-67.15978-66.874 0-34.925 27.05918-63.5447 61.14278-66.5395l.9087-.0799.264-.8732c9.3747-31.0073 38.511-53.6874 72.671-53.6874 23.784 0 44.88 10.6712 58.948 27.6822l1.043 1.2607 1.038-1.264c8.946-10.8882 22.538-17.4965 37.473-17.4965 20.892 0 38.807 13.2102 45.774 31.7105z" stroke="url(#paint0_linear)" stroke-width="2.69703"/>
  </g>
  <path d="M231.747 126.594c.199-1.962.301-3.954.301-5.969 0-2.144-.116-4.261-.341-6.345h24.245c5.833 0 10.694-4.861 10.694-10.694V87.6548h11.99v15.9312c0 12.638-10.369 23.008-23.008 23.008h-23.881z" fill="url(#paint1_linear)" style="mix-blend-mode:multiply"/>
  <path d="M167.162 178.675c2.128.235 4.29.356 6.481.356 2.079 0 4.133-.109 6.157-.321v25.657c0 5.833 4.861 10.694 10.694 10.694h22.714v12.314h-23.039c-12.638 0-23.007-10.37-23.007-23.008v-25.692z" fill="url(#paint2_linear)" style="mix-blend-mode:multiply"/>
  <path d="M115.539 126.594h-24.53c-5.833 0-10.6938 4.861-10.6938 10.694v16.308h-11.99v-16.632c0-12.638 10.3697-23.008 23.0078-23.008h24.281c-.248 2.189-.376 4.414-.376 6.669 0 2.015.102 4.007.301 5.969z" fill="url(#paint3_linear)" style="mix-blend-mode:multiply"/>
  <path d="M111.366 60.1551c-5.214 0-9.457 4.2759-9.457 9.5294 0 5.2535 4.243 9.5294 9.457 9.5294s9.458-4.2759 9.458-9.5294c0-5.2535-4.24-9.5294-9.458-9.5294zm0 16.9336c-4.054 0-7.348-3.3238-7.348-7.4042 0-4.0804 3.294-7.4042 7.348-7.4042s7.349 3.3238 7.349 7.4042c0 4.0804-3.295 7.4042-7.349 7.4042z" fill="#1ABCFE"/>
  <path opacity=".1" d="M114.978 61.971c-5.214 0-9.458 4.2759-9.458 9.5294 0 5.2535 4.244 9.5294 9.458 9.5294s9.458-4.2759 9.458-9.5294c0-5.2535-4.24-9.5294-9.458-9.5294z" fill="#1ABCFE"/>
  <path d="M146.926 230l4.176-8.535 9.352-1.368-6.766-6.644 1.599-9.38-8.357 4.429-8.361-4.429 1.595 9.38-6.762 6.644 9.339 1.368 4.185 8.535zm-4.501-15.803l-1.059-6.239 5.56 2.945 5.555-2.941-1.063 6.24 4.501 4.42-6.222.91-2.775 5.674-2.785-5.674-6.213-.91 4.501-4.425z" fill="#003380"/>
  <path opacity=".1" d="M95.9441 34.5105l4.2629-13.1823h13.794l-11.152-8.1506L107.107.00004135 95.9441 8.14584 84.7865.00003939 89.0445 13.1776l-11.153 8.1458h13.7947l4.2579 13.1871z" fill="#F24E1E"/>
  <path d="M92.2 31.3276l3.805-11.8033h12.313l-9.955-7.2979L102.164.427329 92.2 7.721 82.2405.427328 86.0412 12.2264l-9.9553 7.2937h12.3134L92.2 31.3276zm-3.6784-18.2894l-2.2695-7.04712L92.2 10.3477l5.9521-4.35662-2.2695 7.04712 5.9524 4.3609h-7.3613L92.2 24.4463l-2.2695-7.0472h-7.361l5.9521-4.3609z" fill="#F24E1E"/>
  <path opacity=".2" d="M211.444 38.3336c0-4.1866-3.379-7.5912-7.534-7.5912-4.155 0-7.534 3.4046-7.534 7.5912s3.379 7.5912 7.534 7.5912c4.155 0 7.534-3.4046 7.534-7.5912z" fill="#0D5F80"/>
  <path d="M209.554 34.5656c0-4.1867-3.379-7.5912-7.534-7.5912-4.155 0-7.534 3.4045-7.534 7.5912 0 4.1866 3.379 7.5911 7.534 7.5911 4.155 0 7.534-3.4045 7.534-7.5911zm-7.534 5.4659c-2.991 0-5.425-2.4524-5.425-5.4659 0-3.0136 2.434-5.466 5.425-5.466 2.991 0 5.425 2.4524 5.425 5.466 0 3.0135-2.434 5.4659-5.425 5.4659z" fill="#0D5F80"/>
  <path d="M57.9523 107.961c.4576 1.126-.2283 2.048-1.3461 2.509l-3.3785.921c-.9142.23-2.032-.462-2.2617-1.382-.2279-1.152.4576-2.048 1.3475-2.509l3.3785-.921c1.1426-.231 2.0315.46 2.2603 1.382zM49.6193 117.356l-.8897-3.456c-.2284-.897.4315-2.047 1.3466-2.278 1.1195-.23 2.0337.461 2.2373 1.381l.9145 3.431c.4578.922-.2284 2.074-1.3728 2.304-.8893.205-2.0074-.23-2.2359-1.382zM48.5022 110.699c.4314.922-.2292 2.074-1.3718 2.304l-3.3542.896c-1.1425.257-2.032-.204-2.2598-1.356-.4581-.922.2283-2.073 1.3461-2.305l3.379-.921c.8889-.459 2.0315.231 2.2607 1.382zM49.8527 103.149l.8902 3.2c.228 1.151-.432 2.304-1.347 2.508-1.1191.23-2.0337-.436-2.4653-1.357l-.6861-3.224c-.4582-1.127.2284-2.279 1.3466-2.509.915-.232 2.0332.46 2.2616 1.382zM324.579 97.7979c.63 1.5488-.314 2.8151-1.851 3.4491l-4.646 1.267c-1.257.316-2.794-.635-3.11-1.901-.313-1.5827.63-2.8151 1.853-3.4491l4.646-1.2667c1.571-.317 2.794.6321 3.108 1.9007zM313.124 110.716l-1.224-4.752c-.314-1.233.594-2.815 1.852-3.133 1.54-.316 2.797.634 3.077 1.9l1.257 4.718c.63 1.267-.314 2.851-1.887 3.168-1.223.282-2.761-.316-3.075-1.901zM311.587 101.564c.593 1.268-.315 2.851-1.887 3.168l-4.612 1.233c-1.571.352-2.794-.282-3.108-1.865-.629-1.268.314-2.851 1.852-3.17l4.646-1.2664c1.222-.6321 2.794.3176 3.109 1.9004zM313.443 91.1821l1.224 4.3998c.313 1.583-.594 3.168-1.852 3.4494-1.539.3164-2.797-.5996-3.39-1.8664l-.944-4.4341c-.63-1.5487.314-3.1337 1.852-3.4495 1.258-.3189 2.796.6321 3.11 1.9008z" fill="#00C05B"/>
  <path opacity=".2" d="M297.383 154.557l-7.516 22.486-15.054-14.998 22.57-7.488z" fill="#F5A623"/>
  <path d="M296.046 150.56l-7.515 22.486-15.055-14.998 22.57-7.488z" fill="#F5A623"/>
  <path opacity=".3" d="M96.5293 177.146v.047c.3876.079.7607.257 1.0798.536l18.8399 16.485c.511.447.805 1.093.805 1.772s-.294 1.326-.805 1.773l-18.8399 16.485c-.3191.279-.6922.457-1.0798.536v.047H66.2522v-.047c-.3877-.079-.7608-.257-1.0798-.536l-18.8403-16.485c-.5111-.447-.8043-1.094-.8043-1.773 0-.679.2932-1.325.8043-1.772l18.8403-16.485c.319-.279.6921-.457 1.0798-.536v-.047h30.2771z" fill="#FA7360"/>
  <path d="M63.726 168.483c.8565.979.7573 2.467-.2215 3.324L46.6897 186.52l16.8148 14.713c.9788.856 1.078 2.344.2215 3.323-.8564.979-2.3443 1.078-3.3231.221l-18.8404-16.485c-.511-.447-.8042-1.093-.8042-1.772 0-.68.2932-1.326.8042-1.773l18.8404-16.485c.9788-.857 2.4667-.757 3.3231.221zM88.4419 168.483c.8565-.978 2.3443-1.078 3.3231-.221l18.84 16.485c.511.447.805 1.093.805 1.773 0 .679-.294 1.325-.805 1.772l-18.84 16.485c-.9788.857-2.4666.758-3.3231-.221s-.7573-2.467.2215-3.323l16.8146-14.713-16.8146-14.713c-.9788-.857-1.078-2.345-.2215-3.324z" fill="#F24E1E"/>
  <path d="M85.4047 163.645c.3738-1.246-.3332-2.559-1.579-2.933-1.2458-.373-2.5587.334-2.9324 1.579L66.763 209.392c-.3737 1.246.3332 2.559 1.579 2.933 1.2458.374 2.5587-.333 2.9325-1.579l14.1302-47.101z" fill="#73250E"/>
  <path opacity=".3" fill-rule="evenodd" clip-rule="evenodd" d="M242.35 206.305c-2.498 0-4.894.992-6.661 2.759-1.766 1.767-2.759 4.163-2.759 6.661v47.101c0 2.498.993 4.894 2.759 6.661 1.767 1.767 4.163 2.759 6.661 2.759h32.971c2.498 0 4.894-.992 6.661-2.759 1.767-1.767 2.759-4.163 2.759-6.661V234.16c0-1.873-.744-3.669-2.069-4.994l-20.792-20.792c-1.325-1.325-3.121-2.069-4.995-2.069H242.35z" fill="#F8C369"/>
  <path fill-rule="evenodd" clip-rule="evenodd" d="M232.93 193.116c-2.498 0-4.894.993-6.661 2.759-1.766 1.767-2.759 4.163-2.759 6.661v47.101c0 2.499.993 4.895 2.759 6.661 1.767 1.767 4.163 2.759 6.661 2.759h32.971c2.498 0 4.894-.992 6.661-2.759 1.767-1.766 2.759-4.162 2.759-6.661v-28.665c0-1.874-.744-3.67-2.069-4.995l-20.792-20.792c-1.325-1.324-3.121-2.069-4.995-2.069H232.93zm-3.33 6.09c.883-.883 2.081-1.38 3.33-1.38h14.535c.625 0 1.223.249 1.665.69l20.792 20.792c.441.441.689 1.04.689 1.664v28.665c0 1.249-.496 2.447-1.379 3.331-.884.883-2.082 1.379-3.331 1.379H232.93c-1.249 0-2.447-.496-3.33-1.379-.883-.884-1.38-2.082-1.38-3.331v-47.101c0-1.249.497-2.447 1.38-3.33z" fill="#F5A623"/>
  <path fill-rule="evenodd" clip-rule="evenodd" d="M249.416 194.294c1.3 0 2.355 1.055 2.355 2.355v17.663c0 .625.248 1.224.689 1.665.442.442 1.041.69 1.666.69h17.662c1.301 0 2.356 1.054 2.356 2.355s-1.055 2.355-2.356 2.355h-17.662c-1.874 0-3.671-.744-4.996-2.069-1.325-1.325-2.069-3.122-2.069-4.996v-17.663c0-1.3 1.054-2.355 2.355-2.355zM235.285 230.797c0-1.301 1.055-2.355 2.355-2.355h23.551c1.3 0 2.355 1.054 2.355 2.355s-1.055 2.355-2.355 2.355H237.64c-1.3 0-2.355-1.054-2.355-2.355zM235.285 242.573c0-1.301 1.055-2.355 2.355-2.355h23.551c1.3 0 2.355 1.054 2.355 2.355 0 1.3-1.055 2.355-2.355 2.355H237.64c-1.3 0-2.355-1.055-2.355-2.355z" fill="#F5A623"/>
  <mask id="a" maskUnits="userSpaceOnUse" x="126" y="73" width="95" height="95">
    <path d="M173.642 167.725c26.013 0 47.101-21.087 47.101-47.1 0-26.0135-21.088-47.1013-47.101-47.1013-26.013 0-47.1 21.0878-47.1 47.1013 0 26.013 21.087 47.1 47.1 47.1z" fill="#fff"/>
  </mask>
  <g mask="url(#a)">
    <path fill-rule="evenodd" clip-rule="evenodd" d="M173.642 167.725c-25.207 0-47.1-21.893-47.1-47.1 0-25.2077 21.893-47.1013 47.1-47.1013" fill="#F7F7FA"/>
    <path fill-rule="evenodd" clip-rule="evenodd" d="M173.642 73.5237c25.207 0 47.101 21.8936 47.101 47.1013 0 25.207-21.894 47.1-47.101 47.1" fill="#CFDDE0"/>
    <path d="M199.548 115.208c0 8.815-5.181 67.921-9.42 76.046 0 0-3.332 3.083-7.419 3.083-2.89 0-6.157-2.355-8.89-2.355-2.918 0-6.56 2.355-9.715 2.355-3.979 0-7.183-3.083-7.183-3.083-4.71-8.831-9.184-63.872-9.184-76.046 0-15.5435 12.783-23.3152 25.905-23.3152 13.123 0 25.906 7.7717 25.906 23.3152z" fill="#272733"/>
    <path d="M238.406 174.392c-20.241-16.159-26.578-45.604-32.791-45.604-6.214 0-8.948 3.401-12.328 6.177-3.38 2.775-9.448 9.78-6.37 19.797 3.077 10.018 13.408 11.639 13.408 11.639-2.621-3.141-3.666-10.298-3.666-10.298 2.569 9.999 13.381 12.857 13.381 12.857-3.816-4.474-6.15-13.574-6.15-13.574 7.387 16.66 18.858 16.559 18.858 16.559-5.717-5.353-10.92-17.412-10.92-17.412 8.286 15.212 26.578 19.859 26.578 19.859zM135.221 155.216s-5.203 12.058-10.92 17.413c0 0 11.471.101 18.859-16.56 0 0-2.334 9.101-6.15 13.575 0 0 10.812-2.859 13.381-12.858 0 0-1.045 7.158-3.666 10.298 0 0 10.331-1.62 13.407-11.638 3.077-10.017-2.99-17.022-6.37-19.797-3.38-2.775-6.114-6.177-12.327-6.177-6.214 0-12.552 29.446-32.792 45.604 0 0 18.291-4.647 26.578-19.86z" fill="#272733"/>
    <path d="M150.533 129.974c-.114-.219.142-.443.344-.302l22.361 15.601c.243.17.566.17.808 0l22.362-15.601c.202-.141.457.083.344.302L174.82 172.2l-.58.833c-.29.416-.906.416-1.196 0l-.579-.833-21.932-42.226z" fill="#fff"/>
    <path d="M161.867 127.296l11.775 8.022-11.775 7.284v-15.306z" fill="#F24E1E"/>
    <path d="M173.644 135.319l11.773-8.022v15.306l-11.773-7.284z" fill="#DB210F"/>
    <path d="M174.114 128.632l4.945-9.891s-2.59-2.356-4.945-2.356" fill="#754F10"/>
    <path d="M174.113 116.386c-2.355 0-5.181 2.355-5.181 2.355l5.181 9.891" fill="#F5A623"/>
    <path d="M187.333 116.438c-3.927 2.217-11.079-2.943-11.079-2.943 1.99-1.959 12.079-11.782 14.219-8.029 2.193 3.842.787 8.755-3.14 10.972zM160.578 116.242c-3.892-2.273-5.226-7.205-2.977-11.016 2.197-3.724 12.137 6.251 14.1 8.238 0 0-7.23 5.053-11.123 2.778z" fill="#fff"/>
    <circle cx="182.823" cy="111.521" r="2.67129" fill="#272733"/>
    <circle cx="165.448" cy="111.521" r="2.67129" fill="#272733"/>
    <path d="M185.182 94.1481c2.252-1.5777 3.672-3.7629 3.297-6.7988-3.637-.6706-8.058 3.2138-10.833 5.5228-.512-.0261-1.366-.0738-1.884-.076 3.765-4.1903 7.324-9.201 3.297-9.2444-3.034-.0325-5.49 4.0103-7.536 8.0314 1.77-4.6266 2.766-9.6459-2.355-8.7757-5.076.8615-2.44 6.534-.942 10.911l16.956.4297z" fill="#272733"/>
    <path d="M173.597 166.221c25.207 0 45.642-20.434 45.642-45.642 0-25.2078-20.435-45.6427-45.642-45.6427-25.208 0-45.643 20.4349-45.643 45.6427 0 25.208 20.435 45.642 45.643 45.642z" stroke="url(#paint4_linear)" stroke-width="4.85689" stroke-miterlimit="10"/>
  </g>
  <g opacity=".4" fill="#50FF8F">
    <path d="M320.088 17.4826v-.0131c-.122-.5378-.393-1.0306-.781-1.4229-.388-.3922-.877-.6683-1.414-.797-4.324-1.0548-11.125.0697-18.663 3.0876-7.597 3.0469-14.715 7.5448-19.527 12.3648-1.542 1.5339-2.974 3.1741-4.287 4.9084-3.24-.1451-6.094.3163-8.498 1.3653-8.378 3.6868-10.77 13.1222-11.407 16.9962-.092.5504-.056 1.1147.105 1.6489.162.5342.444 1.024.826 1.4311.382.4071.852.7207 1.375.9163s1.084.2679 1.639.2113h.019l9.332-1.0185c.012.119.025.2278.035.3279.12 1.1372.627 2.1986 1.436 3.0063l4.555 4.5574c.806.8105 1.867 1.3183 3.005 1.4378l.311.0334-1.015 9.3207v.0189c-.052.502.001 1.0093.157 1.4895.155.4801.409.9226.745 1.2991.336.3765.747.6787 1.206.8873.46.2087.958.3191 1.463.3243.201.0002.403-.0163.602-.0493 3.895-.6268 13.326-2.9904 17.003-11.413 1.04-2.3882 1.5-5.2306 1.371-8.4647 1.742-1.3098 3.389-2.7426 4.926-4.2875 4.851-4.8257 9.363-11.8859 12.378-19.3727 3.002-7.4519 4.132-14.3047 3.103-18.7938z"/>
    <path d="M274.307 66.2873c-.561-.0696-1.129.0681-1.596.3874-.927.6341-1.859 1.2609-2.799 1.8717-1.902 1.2362-4.177-.9344-3.047-2.9018l1.763-3.047c.252-.3686.392-.8022.404-1.2486.012-.4465-.105-.8869-.337-1.2684-.232-.3815-.57-.6879-.972-.8825s-.851-.2692-1.295-.2147c-1.956.2474-3.775 1.1386-5.169 2.5333-.531.5325-2.146 2.1488-3.015 8.308-.248 1.7691-.403 3.5498-.467 5.335-.008.3099.046.6182.159.9067.113.2886.283.5515.499.7735.217.2219.475.3982.761.5186.285.1203.592.1823.902.1822h.058c1.787-.0633 3.569-.2182 5.34-.4643 6.162-.8705 7.778-2.4869 8.309-3.0179 1.401-1.395 2.29-3.2222 2.523-5.1856.075-.6109-.096-1.2263-.475-1.7111-.379-.4849-.935-.7994-1.546-.8745z"/>
  </g>
  <path d="M310.155 26.8003c0 4.1272-3.345 7.473-7.473 7.473-4.127 0-7.473-3.3458-7.473-7.473s3.346-7.4729 7.473-7.4729c4.128 0 7.473 3.3457 7.473 7.4729z" fill="#fff"/>
  <path fill-rule="evenodd" clip-rule="evenodd" d="M313.527 6.07412c3.114-.55265 6.094-.67425 8.514-.08395.544.1306 1.04.41259 1.43.81343.385.39621.652.89233.77 1.43199.569 2.49151.451 5.49741-.104 8.63521-.561 3.1775-1.598 6.6471-3.002 10.1299-2.797 6.9403-7.139 14.1499-12.371 19.3549-1.538 1.5472-3.186 2.98-4.931 4.2873.114 2.8486-.211 5.7962-1.372 8.4605l-.001.0026c-1.881 4.3025-5.27 7.0041-8.534 8.6817-3.256 1.6734-6.529 2.4046-8.47 2.7164-.548.0883-1.109.0495-1.64-.1135-.532-.1631-1.019-.4463-1.424-.8277-.404-.3814-.716-.8507-.91-1.3717-.195-.5211-.267-1.0798-.211-1.6331.001-.0066.001-.0132.002-.0198l1.023-9.3176c-.104-.0104-.207-.0213-.311-.0328-1.139-.1175-2.203-.6263-3.01-1.4397-.001-.0019-.003-.0038-.005-.0057l-4.536-4.5353-.006-.006c-.813-.8062-1.321-1.869-1.439-3.0078-.012-.1088-.024-.2176-.034-.3265l-9.327 1.0238c-.005.0006-.011.0012-.016.0018-.554.0567-1.114-.0148-1.636-.2092-.522-.1944-.992-.5063-1.374-.9116-.382-.4053-.665-.8931-.828-1.4257-.163-.5325-.202-1.0954-.112-1.6451l.001-.0041c.318-1.9351 1.053-5.2015 2.728-8.4543 1.68-3.2613 4.38-6.6479 8.68-8.5383l.006-.0027c2.665-1.1628 5.629-1.4873 8.495-1.3621 1.308-1.7387 2.739-3.3809 4.285-4.9137 5.22-5.215 12.538-9.5546 19.524-12.35003 3.506-1.40307 6.987-2.44102 10.146-3.00155zm-8.421 7.31218c-6.57 2.629-13.306 6.6651-17.971 11.3267l-.006.0062c-1.666 1.6525-3.185 3.4467-4.54 5.3625-.479.6759-1.28 1.046-2.105.9714-2.826-.2557-5.44-.0158-7.548.9027-3.024 1.331-5.051 3.7603-6.417 6.4124-1.052 2.0432-1.667 4.1358-2.021 5.7562l10.386-1.1402c.653-.0716 1.305.1361 1.795.5717.491.4357.774 1.0585.78 1.7146.008.8085.056 1.616.146 2.4196 0 .008.001.0161.002.0242.007.0722.04.1396.091.1906.003.0032.007.0064.01.0096l4.554 4.5545.01.0095c.051.0516.118.0838.191.0911.008.0008.017.0018.026.0027.798.0891 1.601.1376 2.404.1454.656.0064 1.278.2899 1.714.7804.435.4905.643 1.1423.571 1.7943l-1.139 10.3791c1.62-.349 3.718-.9614 5.764-2.0133 2.654-1.3638 5.08-3.3893 6.402-6.4096.921-2.1137 1.16-4.7163.918-7.534-.071-.8227.3-1.6212.976-2.0969 1.921-1.3536 3.72-2.8727 5.376-4.5397.003-.0033.007-.0065.01-.0098 4.687-4.661 8.72-11.2951 11.344-17.8032 1.306-3.2424 2.241-6.3991 2.736-9.2019.402-2.272.497-4.2144.324-5.7439-1.44-.1625-3.316-.0702-5.551.3264-2.787.4947-5.96 1.4313-9.232 2.7407zm-2.422 10.2915c-.767 0-1.516.2272-2.153.653-.637.4257-1.133 1.0308-1.427 1.7387-.293.7079-.369 1.4869-.22 2.2384.15.7515.519 1.4418 1.061 1.9835l.001.0019c.36.36.786.6455 1.256.8403.47.1949.973.2952 1.482.2952.508 0 1.011-.1003 1.481-.2952.47-.1948.896-.4803 1.256-.8403l.002-.0019c.541-.5417.91-1.232 1.06-1.9835.15-.7515.073-1.5305-.22-2.2384-.294-.7079-.79-1.313-1.427-1.7387-.637-.4258-1.386-.653-2.152-.653zm-4.732-3.2074c1.4-.936 3.047-1.4355 4.732-1.4355 1.684 0 3.331.4995 4.731 1.4355 1.401.9359 2.493 2.2662 3.137 3.8226.645 1.5563.813 3.2689.485 4.9211-.329 1.6513-1.14 3.1681-2.33 4.3588-.79.7921-1.729 1.4206-2.763 1.8493-1.033.4288-2.141.6495-3.26.6495-1.12 0-2.228-.2207-3.261-.6495-1.034-.4287-1.973-1.0572-2.763-1.8493-1.19-1.1907-2.001-2.7075-2.33-4.3588-.328-1.6522-.16-3.3648.485-4.9211.644-1.5564 1.736-2.8867 3.137-3.8226z" fill="#00C05B"/>
  <path fill-rule="evenodd" clip-rule="evenodd" d="M273.182 51.7229c.156 1.2726-.749 2.4309-2.022 2.5871-.931.1144-1.798.5364-2.463 1.1991-.223.2249-.583.8418-.938 2.0053-.333 1.0903-.583 2.3869-.764 3.6734-.113.8024-.197 1.5782-.258 2.2657.688-.0616 1.464-.1453 2.267-.2586 1.287-.1816 2.583-.4311 3.673-.7644 1.166-.3566 1.78-.7173 2.001-.9386l.004-.004c.664-.6612 1.086-1.527 1.197-2.4575.153-1.273 1.309-2.1812 2.582-2.0285 1.273.1526 2.181 1.3084 2.028 2.5814-.235 1.9659-1.126 3.7951-2.529 5.1927-1.058 1.0572-2.59 1.686-3.925 2.0944-1.413.432-2.972.723-4.382.9219-1.42.2004-2.748.3155-3.716.3808-.486.0327-.886.0531-1.166.0654-.141.0062-.252.0103-.329.013l-.09.0029-.026.0007-.01.0003s-.001 0-.06-2.3207c-2.321-.0592-2.321-.0595-2.321-.0599v-.011l.001-.0254.003-.0903c.002-.0773.007-.1881.013-.3284.012-.2805.032-.6799.065-1.1655.065-.9681.18-2.2948.381-3.7147.198-1.4092.489-2.9688.92-4.3813.409-1.3366 1.037-2.8692 2.092-3.9282l.004-.0039c1.397-1.3954 3.221-2.2839 5.181-2.5245 1.272-.1562 2.431.7488 2.587 2.0213zm-8.926 14.2118l-2.321-.0599c-.016.636.229 1.2515.679 1.7014.45.4499 1.065.6954 1.701.6792l-.059-2.3207z" fill="#DB210F"/>
  <defs>
    <linearGradient id="paint0_linear" x1="2.99992" y1="140.709" x2="343.488" y2="142.723" gradientUnits="userSpaceOnUse">
      <stop stop-color="#599CFF"/>
      <stop offset=".102704" stop-color="#06F"/>
      <stop offset=".200372" stop-color="#C98BFF"/>
      <stop offset=".314609" stop-color="#AF5CF8"/>
      <stop offset=".323266" stop-color="#F8C369"/>
      <stop offset=".445853" stop-color="#F5A623"/>
      <stop offset=".539144" stop-color="#9EF0B7"/>
      <stop offset=".658913" stop-color="#50FF8F"/>
      <stop offset="1" stop-color="#00C05B"/>
    </linearGradient>
    <linearGradient id="paint1_linear" x1="68.3251" y1="157.523" x2="278.628" y2="158.8" gradientUnits="userSpaceOnUse">
      <stop stop-color="#06F"/>
      <stop offset=".109902" stop-color="#599CFF"/>
      <stop offset=".184202" stop-color="#C98BFF"/>
      <stop offset=".34115" stop-color="#F8C369"/>
      <stop offset=".498097" stop-color="#F5A623"/>
      <stop offset=".643358" stop-color="#9EF0B7"/>
      <stop offset=".698456" stop-color="#50FF8F"/>
      <stop offset="1" stop-color="#00C05B"/>
    </linearGradient>
    <linearGradient id="paint2_linear" x1="68.3251" y1="157.523" x2="278.628" y2="158.8" gradientUnits="userSpaceOnUse">
      <stop stop-color="#06F"/>
      <stop offset=".109902" stop-color="#599CFF"/>
      <stop offset=".184202" stop-color="#C98BFF"/>
      <stop offset=".34115" stop-color="#F8C369"/>
      <stop offset=".498097" stop-color="#F5A623"/>
      <stop offset=".643358" stop-color="#9EF0B7"/>
      <stop offset=".698456" stop-color="#50FF8F"/>
      <stop offset="1" stop-color="#00C05B"/>
    </linearGradient>
    <linearGradient id="paint3_linear" x1="68.3251" y1="157.523" x2="278.628" y2="158.8" gradientUnits="userSpaceOnUse">
      <stop stop-color="#06F"/>
      <stop offset=".109902" stop-color="#599CFF"/>
      <stop offset=".184202" stop-color="#C98BFF"/>
      <stop offset=".34115" stop-color="#F8C369"/>
      <stop offset=".498097" stop-color="#F5A623"/>
      <stop offset=".643358" stop-color="#9EF0B7"/>
      <stop offset=".698456" stop-color="#50FF8F"/>
      <stop offset="1" stop-color="#00C05B"/>
    </linearGradient>
    <linearGradient id="paint4_linear" x1="127.954" y1="120.584" x2="219.238" y2="120.952" gradientUnits="userSpaceOnUse">
      <stop stop-color="#599CFF"/>
      <stop offset=".102704" stop-color="#06F"/>
      <stop offset=".200372" stop-color="#C98BFF"/>
      <stop offset=".314609" stop-color="#AF5CF8"/>
      <stop offset=".323266" stop-color="#F8C369"/>
      <stop offset=".445853" stop-color="#F5A623"/>
      <stop offset=".539144" stop-color="#9EF0B7"/>
      <stop offset=".658913" stop-color="#50FF8F"/>
      <stop offset="1" stop-color="#00C05B"/>
    </linearGradient>
    <filter id="filter0_d" x=".793767" y="24.6155" width="342.706" height="236.572" filterUnits="userSpaceOnUse" color-interpolation-filters="sRGB">
      <feFlood flood-opacity="0" result="BackgroundImageFix"/>
      <feColorMatrix in="SourceAlpha" type="matrix" values="0 0 0 0 0 0 0 0 0 0 0 0 0 0 0 0 0 0 127 0"/>
      <feOffset dx="-2.20623" dy="4.41247"/>
      <feColorMatrix type="matrix" values="0 0 0 0 0.152941 0 0 0 0 0.152941 0 0 0 0 0.2 0 0 0 0.12 0"/>
      <feBlend mode="normal" in2="BackgroundImageFix" result="effect1_dropShadow"/>
      <feBlend mode="normal" in="SourceGraphic" in2="effect1_dropShadow" result="shape"/>
    </filter>
  </defs>
</svg>
