<svg width="197" height="250" viewBox="0 0 197 250" fill="none" xmlns="http://www.w3.org/2000/svg">
<path d="M84.5611 202.735C84.5826 202.735 84.6043 202.799 84.6043 202.928C84.6258 203.827 84.6474 204.704 84.669 205.604C84.7986 204.918 84.9281 204.233 85.0791 203.527C84.9712 202.221 83.9352 202.885 84.5611 202.735Z" fill="#FEFEFE"/>
<path d="M141.199 129.521C141.177 129.543 141.134 129.543 141.112 129.564C141.134 129.585 141.177 129.607 141.199 129.628C141.177 129.607 141.199 129.564 141.199 129.521Z" fill="#FEFEFE"/>
<path d="M105.52 39.6525V39.6736H105.584C105.563 39.6736 105.541 39.6525 105.52 39.6525Z" fill="#FEFEFE"/>
<path d="M135.845 220.139C136.126 217.035 135.975 213.888 136.363 210.806C137.227 204.02 136.407 197.083 138.198 190.383C139.083 186.915 136.256 182.847 139.882 179.808L138.975 176.853C138.593 176.084 138.403 175.235 138.422 174.378C138.441 173.521 138.668 172.681 139.083 171.93C138.87 165.979 139.232 160.022 140.162 154.14C140.486 145.962 140.831 137.785 141.155 129.586C141.134 129.564 141.09 129.543 141.069 129.521C123.434 137.549 106.814 126.31 103.987 112.823C102.131 103.961 103.123 95.5905 110.095 88.8256C111.261 87.691 112.254 86.3852 113.333 85.1435C116.182 68.2102 114.196 52.6683 99.6051 40.5516C101.785 39.31 103.749 40.0165 105.519 39.6954V39.6743C87.6258 35.2215 65.9118 47.3596 58.7242 65.8985C56.489 71.3769 55.4801 77.2713 55.7672 83.1744C73.5096 75.0181 89.4173 84.7585 93.7989 99.5939C98.3533 115.029 86.2228 131.363 70.0992 131.598C65.4824 131.62 60.8894 130.942 56.4795 129.586C56.8033 138.106 57.1342 146.626 57.4724 155.146C58.2629 160.705 58.6022 166.318 58.4868 171.93C58.53 173.257 58.5732 174.585 58.6164 175.912C58.5732 176.789 58.53 177.667 58.4868 178.566C59.6092 183.947 60.2806 189.41 60.4942 194.9C60.4551 194.76 60.4262 194.617 60.4079 194.472C60.4294 194.622 60.4726 194.75 60.4942 194.9C60.9259 204.212 61.1849 213.546 61.854 222.858C62.1346 226.712 60.7316 228.638 57.1486 229.623C52.918 230.801 48.7522 232.214 44.5648 233.541C50.0902 234.23 55.6629 234.473 61.228 234.269C67.2069 234.14 69.9266 231.507 70.5093 225.62C70.8763 221.874 71.2 218.127 71.5454 214.381C71.9339 207.595 72.3224 200.787 72.7109 194.001H73.5527V213.375C73.6606 216.308 73.7037 219.262 73.898 222.195C74.7614 235.874 75.1715 235.789 61.4222 238.55C61.1074 238.647 60.8036 238.776 60.5157 238.936C61.3359 239.471 62.156 240.006 62.9763 240.562C63.1008 240.582 63.2195 240.629 63.3239 240.699C63.4283 240.77 63.5159 240.862 63.5807 240.969C66.8614 240.991 70.1639 241.269 73.4016 240.969C79.2941 240.413 82.0785 237.287 82.5102 231.486C82.7692 227.761 83.1578 224.036 83.4815 220.311C83.1459 215.393 83.5386 210.452 84.647 205.647C84.6255 204.748 84.6039 203.87 84.5823 202.971C84.5823 202.843 84.5391 202.757 84.5391 202.778C83.9131 202.928 84.9492 202.265 85.0571 203.57C85.165 202.992 85.2946 202.414 85.4025 201.836V224.271C85.4672 226.905 85.5536 229.516 85.5967 232.149C85.7047 241.676 85.1003 242.532 75.9485 245.251C73.4231 246 70.7899 246.45 68.286 247.285C66.4729 247.905 64.1634 247.563 62.4582 249.682C69.9049 249.404 76.8766 250.239 83.8052 249.126C90.9713 247.97 93.8204 245.101 95.2882 238.165C96.3674 233.07 96.8207 227.825 98.7848 222.666C99.0074 223.018 99.1953 223.391 99.3461 223.779C100.339 228.596 101.332 233.434 102.282 238.25C103.62 244.994 106.383 247.862 113.29 249.061C120.434 250.282 127.665 249.447 135.068 249.618C134.011 247.82 132.349 248.119 131.01 247.734C126.413 246.407 121.729 245.272 117.218 243.731C113.937 242.596 111.584 240.52 111.628 236.517C111.736 225.556 111.671 214.595 111.671 203.635H113.009C113.484 210.506 114.045 217.357 114.412 224.229C115.254 240.113 117.153 241.847 133.234 240.969C134.14 239.471 136.363 240.648 137.205 239.043C133.341 239.021 129.974 237.18 126.434 236.003C125.48 235.677 124.661 235.046 124.107 234.209C123.552 233.373 123.293 232.377 123.369 231.379C123.542 220.118 123.11 208.815 124.643 197.598C125.571 207.017 126.305 216.458 127.039 225.877C127.384 230.287 129.391 233.734 134.054 234.033C140.356 234.461 146.681 234.14 153.005 234.14C149.716 232.626 146.309 231.381 142.817 230.415C135.09 227.953 135.133 227.932 135.845 220.14L135.845 220.139ZM87.2373 59.5187C87.2233 61.0247 86.6139 62.4651 85.5402 63.53C84.4665 64.5949 83.0142 65.1993 81.4958 65.2131C78.1071 65.2774 75.5601 63.3507 75.4954 58.9836C75.5099 58.2343 75.6778 57.4957 75.9887 56.8126C76.2997 56.1296 76.7472 55.5163 77.3042 55.0098C77.8612 54.5034 78.5162 54.1145 79.2292 53.8665C79.9423 53.6186 80.6988 53.5168 81.4527 53.5675C85.4889 53.5032 87.302 56.2006 87.2373 59.5187ZM113.182 153.155C113.203 161.825 106.512 169.382 98.8713 169.361C91.6621 169.339 84.3018 160.905 84.5608 152.941C84.1723 150.586 83.7622 148.21 83.2226 144.913C88.3812 148.403 92.7197 151.978 98.5259 152.106C104.462 152.213 109.124 149.195 113.98 145.663C115.016 148.488 112.405 150.693 113.182 153.155H113.182Z" fill="#FE733E"/>
<path d="M58.5082 171.908C58.0765 171.758 57.6664 171.566 57.2563 171.416C51.47 168.908 46.1393 165.472 41.4781 161.247C24.3401 146.562 13.0298 128.173 10.2886 105.866C7.18038 80.5195 12.9003 57.1211 29.952 37.0194C45.5144 18.6946 65.3505 8.01223 89.0286 5.55037C115.34 2.8316 138.975 10.1316 158.876 28.1567C175.123 42.4624 185.386 62.2786 187.648 83.7093C189.98 102.104 186.134 120.749 176.705 136.757C167.92 151.635 156.221 163.709 140.4 171.352C139.968 171.566 139.536 171.78 139.105 171.973C138.684 172.723 138.454 173.563 138.435 174.421C138.417 175.279 138.609 176.129 138.997 176.896C139.334 176.536 139.711 176.213 140.119 175.933C164.013 163.388 180.59 144.742 188.339 118.796C189.008 116.591 190.044 115.499 192.526 115.756C195.893 116.099 196.8 113.872 196.8 111.089C196.821 100.407 196.828 89.7318 196.821 79.0637C196.821 76.7731 196.26 74.247 193.864 73.9901C189.461 73.4764 188.921 70.2867 188.036 67.1826C183.165 49.4891 172.656 33.8322 158.077 22.5479C127.643 -1.15019 94.2301 -5.43169 59.177 10.5812C33.1246 22.4623 16.5262 43.0778 9.01478 70.6721C8.53989 72.3847 8.75576 74.4184 5.82028 73.819C1.63291 72.9627 0.0572355 75.4031 0.0356482 79.0852C-0.0290984 89.7676 0.0141384 100.429 0.0141384 111.111C0.0141384 114.665 1.82723 116.548 5.28076 115.713C8.45366 114.943 9.20913 116.506 9.85666 118.903C12.6627 129.052 17.355 138.592 23.6923 147.033C32.9736 159.513 44.2838 169.532 58.6591 175.911C58.6159 174.584 58.5727 173.236 58.508 171.908L58.5082 171.908Z" fill="#B5D2F3"/>
<path d="M58.5292 178.545C55.3347 187.429 46.8304 187.215 39.5996 189.441C45.0389 190.832 50.5645 192.438 56.0038 191.518C59.2415 190.961 59.8674 192.117 60.3423 194.022C60.3855 194.172 60.407 194.322 60.4502 194.472C60.4717 194.6 60.5149 194.75 60.5365 194.9C60.323 189.403 59.6516 183.932 58.5292 178.545Z" fill="#FE684B"/>
<path d="M138.198 190.404C145.105 193.508 151.623 190.383 158.293 189.483C151.774 186.743 143.335 188.156 139.903 179.829C136.255 182.869 139.083 186.936 138.198 190.404Z" fill="#FE6446"/>
<path d="M85.4238 201.793C85.3159 202.371 85.1864 202.949 85.0784 203.527C84.9489 204.212 84.7978 204.897 84.6684 205.604C83.5599 210.409 83.1673 215.35 83.5028 220.268C85.1217 221.103 83.9345 223.308 85.4239 224.207L85.4238 201.793Z" fill="#FED6C8"/>
<path d="M72.7538 193.958C72.3652 200.744 71.9767 207.552 71.5883 214.338C72.2574 213.996 72.9265 213.675 73.5956 213.332V193.958H72.7538Z" fill="#FEEBE3"/>
<path d="M52.4647 240.926H63.6023C63.408 240.798 63.1922 240.669 62.9979 240.519C62.1777 239.984 61.3575 239.449 60.5373 238.892C57.7101 238.831 54.9194 239.534 52.4647 240.926Z" fill="#FE9166"/>
<path d="M133.234 240.926H144.069C142.086 239.492 139.652 238.809 137.205 238.999C136.363 240.626 134.118 239.428 133.234 240.926Z" fill="#FE8F64"/>
<path d="M140.421 171.33C156.243 163.709 167.92 151.635 176.726 136.736C186.155 120.727 190.001 102.083 187.67 83.6879C185.427 62.2516 175.16 42.429 158.898 28.1354C138.997 10.1317 115.362 2.81028 89.0502 5.55042C65.3937 7.99089 45.536 18.6946 29.9736 37.0195C12.9003 57.1211 7.20202 80.5196 10.3102 105.866C13.0514 128.194 24.3617 146.562 41.4997 161.247C46.1626 165.47 51.4929 168.906 57.2779 171.416C57.688 171.587 58.0982 171.758 58.5298 171.908C58.6452 166.296 58.3059 160.683 57.5154 155.125C57.0837 154.825 56.652 154.525 56.2203 154.204C51.9511 150.929 47.9657 147.306 44.3057 143.372C43.1617 142.216 41.7371 141.231 41.7371 139.347C39.1902 141.167 37.3555 139.904 35.8662 137.892C27.5064 127.014 22.6404 113.893 21.9011 100.236C21.2967 87.8623 22.4191 75.8312 27.6641 64.2498C34.0715 49.9441 44.7953 37.962 58.3572 29.9549C60.6883 28.542 62.0265 29.8051 63.6454 30.854C64.4135 30.8241 65.1664 30.6331 65.8547 30.2937C66.543 29.9542 67.1509 29.4739 67.6385 28.8845L67.4442 28.435C66.0628 25.545 65.9981 22.2696 69.3221 21.499C72.6677 20.7069 74.5671 23.4042 74.5887 26.8936C99.5619 18.7588 122.787 22.0556 143.745 37.9185C159.416 49.7783 168.395 65.6841 171.136 85.0793C174.676 110.019 166.171 130.699 148.645 148.189C146.576 150.293 144.205 152.082 141.608 153.498C141.155 153.733 140.702 153.947 140.249 154.161C139.318 160.044 138.956 166.001 139.169 171.951C139.558 171.758 139.968 171.544 140.421 171.33Z" fill="#E2F5FC"/>
<path d="M148.602 148.21C166.107 130.72 174.611 110.041 171.093 85.1009C168.351 65.6843 159.372 49.7785 143.702 37.9401C122.743 22.0772 99.4969 18.8018 74.5453 26.9153C74.5021 26.9364 74.459 26.9795 74.4158 27.0008C72.4516 28.2425 70.9191 30.9184 68.0916 29.2486C67.9189 29.1415 67.7678 29.0559 67.5951 28.9275C67.1091 29.5186 66.5015 30.0001 65.8129 30.3398C65.1243 30.6794 64.3705 30.8694 63.602 30.897C63.5372 31.1538 63.4509 31.3893 63.3645 31.6462C61.573 36.6342 56.1985 37.9401 52.5939 40.9371C42.927 48.7165 35.565 58.9477 31.2901 70.5437C24.4262 89.5107 25.8292 108.092 35.0242 126.032C36.5508 128.942 38.3196 131.72 40.3124 134.338C41.3986 135.765 41.8929 137.549 41.6938 139.326V139.39C41.6938 141.253 43.1184 142.259 44.2623 143.415C47.9274 147.344 51.9124 150.967 56.1769 154.247C56.6086 154.547 57.0403 154.868 57.472 155.168C57.1482 146.647 56.8173 138.127 56.4791 129.607C56.4576 129.607 56.4576 129.586 56.436 129.586C48.9677 124.726 43.4853 118.518 42.5356 109.27C41.3484 97.8598 46.1833 89.4252 55.5942 83.2812C55.6373 83.2599 55.6805 83.217 55.7237 83.1956C55.4329 77.2923 56.442 71.3971 58.6807 65.9197C65.8684 47.4022 87.5823 35.2427 105.476 39.6955C105.487 39.6941 105.499 39.6953 105.511 39.6989C105.522 39.7025 105.532 39.7086 105.541 39.7166C117.412 41.6219 127.168 46.9952 134.162 56.864C139.804 64.461 142.591 73.7755 142.04 83.1953C148.774 88.2689 154.213 94.2202 155.098 103.019C156.286 114.857 151.192 123.506 141.155 129.543V129.65C140.831 137.827 140.486 146.005 140.162 154.204C140.637 153.99 141.09 153.776 141.522 153.54C144.144 152.136 146.533 150.338 148.602 148.21L148.602 148.21Z" fill="#CDECF6"/>
<path d="M119.527 82.232C126.931 78.6142 134.118 80.5622 141.263 82.8957C141.522 82.9813 141.803 83.0669 142.062 83.1526C142.619 73.732 139.831 64.4154 134.183 56.8213C127.19 46.9524 117.434 41.5791 105.562 39.6739H105.498C103.728 40.0164 101.763 39.2885 99.5834 40.5302C114.174 52.6468 116.182 68.1887 113.311 85.122C113.764 84.9079 114.196 84.7153 114.649 84.5012C116.311 83.752 117.93 83.0241 119.527 82.232Z" fill="#FE6B3C"/>
<path d="M155.141 102.997C154.256 94.1986 148.817 88.2473 142.083 83.1737C141.824 83.0881 141.543 83.0025 141.284 82.9169C134.118 80.5834 126.952 78.6354 119.549 82.2532C117.951 83.0453 116.311 83.7946 114.692 84.5438C114.239 84.7579 113.807 84.9505 113.354 85.1646C112.275 86.3849 111.282 87.7121 110.116 88.8467C103.123 95.6116 102.152 103.982 104.008 112.845C106.836 126.353 123.455 137.592 141.112 129.585C141.133 129.564 141.176 129.564 141.198 129.542C151.235 123.484 156.35 114.814 155.141 102.997ZM128.744 126.652C124.694 126.61 120.748 125.377 117.405 123.108C114.062 120.84 111.474 117.639 109.966 113.911C108.459 110.183 108.101 106.095 108.938 102.164C109.775 98.2343 111.768 94.6387 114.667 91.8331C117.565 89.0274 121.238 87.1379 125.22 86.4037C129.202 85.6696 133.314 86.1238 137.035 87.7089C140.756 89.294 143.92 91.9386 146.125 95.308C148.33 98.6774 149.477 102.62 149.422 106.636C149.439 109.311 148.912 111.963 147.872 114.431C146.833 116.9 145.302 119.135 143.372 121.003C141.442 122.872 139.151 124.335 136.638 125.306C134.125 126.276 131.44 126.734 128.744 126.652Z" fill="#FE6142"/>
<path d="M55.6157 83.2385C46.2048 89.3824 41.37 97.817 42.5571 109.227C43.5069 118.475 48.9893 124.683 56.4575 129.543C56.479 129.543 56.479 129.564 56.5007 129.564C60.9102 130.922 65.5035 131.6 70.1204 131.577C86.2224 131.341 98.3744 115.029 93.8201 99.5723C89.4385 84.7369 73.5092 74.9965 55.7883 83.1528C55.7267 83.1723 55.6684 83.2012 55.6157 83.2384L55.6157 83.2385ZM68.48 126.653C65.7705 126.688 63.0807 126.191 60.5653 125.192C58.0499 124.192 55.7586 122.709 53.8231 120.828C51.8876 118.947 50.3461 116.705 49.2872 114.231C48.2283 111.758 47.6729 109.1 47.653 106.413C47.6331 103.725 48.1491 101.061 49.1712 98.5715C50.1933 96.0825 51.7014 93.8184 53.6088 91.9094C55.5163 90.0004 57.7854 88.4842 60.2857 87.4481C62.7859 86.4119 65.4681 85.8761 68.1779 85.8716C70.8981 85.8196 73.6018 86.3035 76.132 87.2954C78.6623 88.2873 80.969 89.7674 82.9183 91.65C84.8676 93.5325 86.4208 95.78 87.488 98.2623C88.5551 100.745 89.1148 103.412 89.1348 106.111C89.1548 108.809 88.6346 111.485 87.6044 113.982C86.5742 116.48 85.0545 118.75 83.1333 120.66C81.2121 122.571 78.9276 124.085 76.4123 125.113C73.8969 126.142 71.2008 126.665 68.48 126.653Z" fill="#FE6143"/>
<path d="M87.28 154.825C86.4814 154.033 85.8986 152.963 84.5604 152.941C84.3014 160.905 91.6401 169.34 98.8709 169.361C106.533 169.382 113.203 161.826 113.181 153.156C110.289 154.633 108.454 157.673 105.13 158.572C98.5039 160.37 92.4171 159.92 87.28 154.825Z" fill="#070909"/>
<path d="M113.98 145.663C109.124 149.195 104.483 152.213 98.5257 152.106C92.6979 151.999 88.381 148.403 83.2223 144.913C83.7835 148.21 84.1721 150.565 84.5605 152.941C85.8988 152.984 86.4815 154.033 87.2802 154.825C92.3957 159.92 98.5041 160.37 105.13 158.571C108.454 157.672 110.289 154.654 113.181 153.155C112.404 150.693 115.016 148.488 113.98 145.663Z" fill="#FDFCFB"/>
<path d="M81.4529 53.5887C80.6974 53.5308 79.9379 53.6275 79.2217 53.8727C78.5054 54.118 77.8475 54.5065 77.289 55.0144C76.7304 55.5222 76.283 56.1385 75.9745 56.8249C75.666 57.5114 75.503 58.2533 75.4956 59.0048C75.5604 63.372 78.1073 65.2772 81.4961 65.2344C83.0145 65.2206 84.4668 64.6162 85.5405 63.5513C86.6142 62.4863 87.2236 61.046 87.2375 59.54C87.3022 56.2004 85.4892 53.5031 81.4529 53.5887Z" fill="#FEA777"/>
<path d="M41.6938 139.304C41.8929 137.528 41.3986 135.743 40.3124 134.316C38.3271 131.693 36.5587 128.916 35.0242 126.01C25.8292 108.071 24.4046 89.4891 31.2901 70.522C35.565 58.926 42.927 48.6949 52.5939 40.9154C56.1985 37.9184 61.573 36.6339 63.3645 31.6245C63.4565 31.379 63.5358 31.1289 63.602 30.8753C61.9832 29.8263 60.6449 28.5633 58.3138 29.9762C44.7519 37.9832 34.0281 49.9654 27.6207 64.271C22.3757 75.8525 21.2533 87.8835 21.8577 100.257C22.6107 113.912 27.4753 127.029 35.8228 137.913C37.3121 139.925 39.1684 141.188 41.6938 139.369L41.6938 139.304Z" fill="#FDFEFE"/>
<path d="M74.3942 27.0009C74.4374 26.9798 74.4805 26.9367 74.5237 26.9154C74.4805 23.426 72.6027 20.7286 69.2571 21.5207C65.9331 22.3128 65.9979 25.5881 67.3793 28.4567L67.5736 28.9062C67.7322 29.0233 67.898 29.1306 68.07 29.2274C70.8976 30.9186 72.4301 28.2212 74.3943 27.001L74.3942 27.0009Z" fill="#FBFDFE"/>
<path d="M149.422 106.658C149.497 103.983 149.03 101.321 148.049 98.8279C147.069 96.335 145.594 94.0624 143.712 92.1444C141.831 90.2265 139.581 88.7021 137.095 87.6615C134.61 86.6208 131.939 86.085 129.241 86.0857C126.546 86.0414 123.869 86.5254 121.364 87.51C118.858 88.4946 116.573 89.9603 114.641 91.823C112.708 93.6857 111.165 95.9087 110.101 98.3644C109.037 100.82 108.472 103.46 108.439 106.133C108.407 108.805 108.907 111.458 109.91 113.939C110.914 116.419 112.402 118.679 114.289 120.587C116.176 122.496 118.424 124.016 120.904 125.061C123.385 126.105 126.049 126.654 128.744 126.674C131.439 126.753 134.123 126.292 136.634 125.32C139.146 124.348 141.435 122.885 143.365 121.017C145.294 119.149 146.825 116.915 147.865 114.449C148.906 111.982 149.436 109.332 149.422 106.658ZM129.759 108.885C128.931 108.966 128.095 108.874 127.306 108.613C126.516 108.352 125.791 107.929 125.178 107.371C124.565 106.814 124.077 106.134 123.747 105.377C123.417 104.619 123.252 103.801 123.262 102.976C123.208 102.116 123.335 101.255 123.635 100.447C123.935 99.6383 124.402 98.9007 125.004 98.2806C125.607 97.6606 126.334 97.1716 127.137 96.8449C127.941 96.5182 128.804 96.3608 129.672 96.3827C133.471 96.661 135.608 98.866 136.061 102.805C135.543 106.316 133.73 108.82 129.759 108.885Z" fill="#FEFEFE"/>
<path d="M68.1779 85.8926C65.4681 85.8972 62.7859 86.4329 60.2856 87.4691C57.7854 88.5053 55.5163 90.0215 53.6088 91.9305C51.7014 93.8394 50.1933 96.1035 49.1712 98.5926C48.149 101.082 47.6331 103.747 47.653 106.434C47.6729 109.122 48.2283 111.779 49.2872 114.252C50.3461 116.726 51.8876 118.968 53.8231 120.849C55.7586 122.73 58.0499 124.213 60.5653 125.213C63.0807 126.212 65.7705 126.709 68.48 126.674C71.2008 126.686 73.8969 126.163 76.4123 125.134C78.9276 124.106 81.212 122.592 83.1333 120.681C85.0545 118.771 86.5742 116.501 87.6044 114.003C88.6346 111.506 89.1548 108.83 89.1348 106.132C89.1148 103.433 88.555 100.766 87.4879 98.2834C86.4208 95.8011 84.8676 93.5536 82.9183 91.6711C80.969 89.7885 78.6623 88.3084 76.132 87.3165C73.6017 86.3246 70.8981 85.8406 68.1779 85.8926ZM68.1994 108.884C67.3695 108.96 66.5328 108.86 65.7443 108.593C64.9558 108.325 64.2332 107.895 63.6238 107.331C63.0145 106.768 62.5322 106.082 62.2085 105.321C61.8848 104.559 61.7271 103.738 61.7456 102.912C61.6997 102.05 61.8358 101.189 62.1452 100.383C62.4546 99.5775 62.9304 98.8446 63.5422 98.2318C64.1539 97.6191 64.8881 97.1399 65.6975 96.8251C66.507 96.5102 67.3739 96.3667 68.2425 96.4037C69.937 96.4266 71.5528 97.1161 72.7348 98.3204C73.9167 99.5248 74.5679 101.145 74.5452 102.826C74.0703 106.444 72.0846 108.842 68.1994 108.884Z" fill="#FEFEFE"/>
<path d="M129.673 96.3825C128.803 96.357 127.938 96.512 127.133 96.8375C126.328 97.163 125.6 97.6518 124.997 98.2726C124.393 98.8935 123.927 99.6326 123.628 100.443C123.329 101.252 123.205 102.115 123.262 102.976C123.25 103.802 123.414 104.62 123.743 105.379C124.073 106.137 124.561 106.817 125.174 107.375C125.788 107.933 126.514 108.356 127.304 108.616C128.094 108.877 128.931 108.968 129.759 108.884C133.709 108.82 135.544 106.316 136.062 102.805C135.608 98.8658 133.471 96.6608 129.673 96.3825Z" fill="#090B0B"/>
<path d="M68.2427 96.404C67.374 96.3669 66.5071 96.5105 65.6977 96.8253C64.8882 97.1401 64.154 97.6193 63.5423 98.2321C62.9305 98.8449 62.4547 99.5777 62.1453 100.384C61.8359 101.19 61.6998 102.051 61.7458 102.912C61.7272 103.738 61.885 104.559 62.2087 105.321C62.5323 106.082 63.0146 106.768 63.624 107.332C64.2333 107.896 64.9559 108.325 65.7444 108.593C66.5329 108.861 67.3696 108.96 68.1995 108.885C72.0847 108.842 74.0704 106.444 74.5453 102.826C74.1784 98.8658 71.9769 96.7036 68.2427 96.404Z" fill="#090C0C"/>
</svg>
