<svg viewBox="0 0 18 18" fill="none" xmlns="http://www.w3.org/2000/svg">
    <path d="M11.2263 3.53629C11.3155 3.23873 11.1467 2.92515 10.8491 2.83588C10.5516 2.74661 10.238 2.91547 10.1487 3.21303L6.77372 14.463C6.68446 14.7606 6.85331 15.0742 7.15087 15.1634C7.44843 15.2527 7.76201 15.0838 7.85128 14.7863L11.2263 3.53629Z" />
    <path d="M6.04832 4.69193C6.2529 4.92573 6.2292 5.2811 5.99541 5.48567L1.97921 8.99984L5.99541 12.514C6.2292 12.7186 6.2529 13.074 6.04832 13.3077C5.84375 13.5415 5.48839 13.5652 5.25459 13.3607L0.754591 9.42317C0.63252 9.31635 0.5625 9.16205 0.5625 8.99984C0.5625 8.83764 0.63252 8.68333 0.754591 8.57652L5.25459 4.63902C5.48839 4.43445 5.84375 4.45814 6.04832 4.69193Z" />
    <path d="M11.9517 4.69193C12.1563 4.45814 12.5116 4.43445 12.7454 4.63902L17.2454 8.57652C17.3675 8.68333 17.4375 8.83764 17.4375 8.99984C17.4375 9.16205 17.3675 9.31635 17.2454 9.42317L12.7454 13.3607C12.5116 13.5652 12.1563 13.5415 11.9517 13.3077C11.7471 13.074 11.7708 12.7186 12.0046 12.514L16.0208 8.99984L12.0046 5.48567C11.7708 5.2811 11.7471 4.92573 11.9517 4.69193Z" />
</svg>
