<svg viewBox="0 0 250 169" fill="none" xmlns="http://www.w3.org/2000/svg">
  <path opacity=".3" d="M234.252 161.514c.906-.004 1.774-.368 2.413-1.011.639-.643.996-1.513.995-2.419-.008-.345-.062-.687-.16-1.017l-2.455-8.88c-.103-.328.013-.658.164-.919l.029-.054c.011-.017.062-.088.098-.14.036-.051.077-.107.114-.162l.025-.036c3.1-4.698 4.752-10.202 4.751-15.831.024-7.674-2.978-14.925-8.457-20.427-5.669-5.679-13.252-8.807-21.37-8.807-6.887-.004-13.57 2.339-18.948 6.642-5.257 4.231-8.911 10.128-10.289 16.615-.424 1.971-.638 3.981-.637 5.997 0 7.854 3.017 15.23 8.497 20.772 5.528 5.598 12.95 8.671 20.9 8.671 2.798 0 6.379-.715 8.098-1.2 2.069-.578 4.029-1.332 4.245-1.412.228-.088.471-.133.716-.134.265-.001.528.051.772.154l.114.044 8.992 3.249c.442.186.914.289 1.393.305z" fill="#50FF8F"/>
  <path fill-rule="evenodd" clip-rule="evenodd" d="M232.669 152.236c.098.331.152.672.16 1.017.002.906-.356 1.776-.995 2.42-.638.643-1.506 1.006-2.412 1.01-.479-.016-.951-.119-1.393-.305l-8.993-3.249-.113-.044c-.245-.103-.508-.155-.773-.153-.245 0-.487.046-.716.133-.016.006-.042.016-.077.029-.434.163-2.254.849-4.167 1.384-1.719.485-5.3 1.199-8.099 1.199-7.949 0-15.372-3.073-20.9-8.67-5.48-5.543-8.497-12.919-8.497-20.772-.001-2.016.213-4.026.637-5.997 1.378-6.488 5.032-12.385 10.29-16.616 5.377-4.3025 12.06-6.6452 18.947-6.6418 8.119 0 15.702 3.1278 21.371 8.8078 5.478 5.501 8.481 12.752 8.457 20.427 0 5.628-1.652 11.133-4.751 15.83l-.025.036c-.021.03-.043.061-.064.091-.018.025-.035.049-.051.072-.014.02-.03.042-.045.064-.024.034-.046.065-.052.076l-.03.053c-.15.261-.266.592-.164.92l2.455 8.879zm-4.719-8.224l2.453 8.874.007.022c.036.121.057.247.062.373-.006.274-.116.536-.31.73-.189.191-.443.302-.71.314-.175-.011-.347-.051-.509-.119l-.056-.024-9.024-3.26-.063-.025c-.527-.216-1.091-.325-1.661-.322-.525.002-1.045.098-1.535.284-.019.007-.043.016-.073.028-.446.167-2.172.816-3.976 1.321l-.005.001c-1.594.45-4.949 1.111-7.459 1.111-7.328 0-14.144-2.827-19.223-7.97h-.001c-5.04-5.098-7.816-11.877-7.816-19.115v-.001c0-1.849.195-3.693.585-5.5l.001-.006c1.263-5.945 4.617-11.37 9.459-15.268 4.959-3.966 11.121-6.1257 17.471-6.1226h.001c7.5 0 14.479 2.8836 19.701 8.1146 5.042 5.063 7.792 11.715 7.77 18.755v.008c0 5.155-1.509 10.197-4.343 14.503l-.014.02-.009.014c-.003.005-.01.015-.03.043-.015.021-.046.064-.076.107-.008.012-.017.025-.03.043l-.019.027c-.005.007-.011.016-.018.025-.005.009-.012.018-.018.026-.003.005-.007.011-.012.018-.004.006-.009.013-.014.021-.007.01-.03.044-.056.086l-.03.049-.048.087c-.266.469-.736 1.499-.372 2.728z" fill="#00401E"/>
  <path opacity=".2" d="M197.659 129.098c0-2.985-2.408-5.411-5.37-5.411s-5.37 2.426-5.37 5.411c0 2.984 2.408 5.411 5.37 5.411s5.37-2.427 5.37-5.411z" fill="#00401E"/>
  <path d="M196.311 126.412c0-2.984-2.408-5.411-5.37-5.411s-5.37 2.427-5.37 5.411c0 2.984 2.408 5.411 5.37 5.411s5.37-2.427 5.37-5.411zm-5.37 3.896c-2.132 0-3.867-1.748-3.867-3.896 0-2.148 1.735-3.896 3.867-3.896 2.132 0 3.867 1.748 3.867 3.896 0 2.148-1.735 3.896-3.867 3.896z" fill="#00401E"/>
  <path opacity=".2" d="M211.016 129.883c0-2.984-2.408-5.411-5.37-5.411s-5.37 2.427-5.37 5.411c0 2.985 2.408 5.411 5.37 5.411s5.37-2.426 5.37-5.411z" fill="#00401E"/>
  <path d="M209.668 127.198c0-2.985-2.408-5.411-5.37-5.411s-5.37 2.426-5.37 5.411c0 2.984 2.408 5.411 5.37 5.411s5.37-2.427 5.37-5.411zm-5.37 3.896c-2.132 0-3.867-1.748-3.867-3.896 0-2.148 1.735-3.897 3.867-3.897 2.132 0 3.867 1.749 3.867 3.897 0 2.148-1.735 3.896-3.867 3.896z" fill="#00401E"/>
  <path opacity=".2" d="M224.374 129.883c0-2.984-2.409-5.411-5.371-5.411-2.961 0-5.37 2.427-5.37 5.411 0 2.985 2.409 5.411 5.37 5.411 2.962 0 5.371-2.426 5.371-5.411z" fill="#00401E"/>
  <path d="M223.026 127.198c0-2.985-2.409-5.411-5.371-5.411-2.961 0-5.37 2.426-5.37 5.411 0 2.984 2.409 5.411 5.37 5.411 2.962 0 5.371-2.427 5.371-5.411zm-5.371 3.896c-2.131 0-3.866-1.748-3.866-3.896 0-2.148 1.735-3.897 3.866-3.897 2.132 0 3.867 1.749 3.867 3.897 0 2.148-1.735 3.896-3.867 3.896z" fill="#00401E"/>
  <path opacity=".3" d="M186.315 33.0002h-35.013c-3.205 0-5.803 2.6273-5.803 5.8684v35.4065c0 3.2411 2.598 5.8684 5.803 5.8684h35.013c3.205 0 5.803-2.6273 5.803-5.8684V38.8686c0-3.2411-2.598-5.8684-5.803-5.8684zm22.994 4.6284L196.003 46.91v19.3238l13.306 9.269c2.574 1.7925 6.119-.0368 6.119-3.1674V40.7961c0-3.1184-3.533-4.9599-6.119-3.1675z" fill="#FA7360"/>
  <path fill-rule="evenodd" clip-rule="evenodd" d="M182.387 29.8574h-35.014c-1.878 0-3.446 1.547-3.446 3.5112v35.4065c0 1.9642 1.568 3.5112 3.446 3.5112h35.014c1.878 0 3.446-1.547 3.446-3.5112V33.3686c0-1.9642-1.568-3.5112-3.446-3.5112zm12.045 12.7823v16.8634l12.296 8.5654c1.033.7198 2.414-.0343 2.414-1.2331V35.2961c0-1.1909-1.374-1.952-2.416-1.2317l-.003.0015-12.291 8.5738zm10.949-10.5111L192.075 41.41v19.3238l13.306 9.269c2.573 1.7925 6.118-.0368 6.118-3.1674V35.2961c0-3.1184-3.532-4.9599-6.118-3.1675zm-58.008-4.6284h35.014c3.205 0 5.803 2.6273 5.803 5.8684v35.4065c0 3.2411-2.598 5.8684-5.803 5.8684h-35.014c-3.205 0-5.803-2.6273-5.803-5.8684V33.3686c0-3.2411 2.598-5.8684 5.803-5.8684z" fill="#73250E"/>
  <path opacity=".2" d="M158.519 46.7939c-1.219 1.6535-3.565 1.9982-5.231.7701s-2.03-3.5719-.812-5.2242c1.218-1.6522 3.565-1.9982 5.231-.7701s2.031 3.5707.812 5.2242z" fill="#DB210F"/>
  <path fill-rule="evenodd" clip-rule="evenodd" d="M155.629 44.2335c-.697.9452-2.056 1.158-3.033.4376-.977-.72-1.176-2.0825-.48-3.0268.696-.9443 2.056-1.1577 3.033-.4376.978.7203 1.176 2.0816.48 3.0268zm-3.966 1.7026c1.666 1.2281 4.012.8834 5.231-.7702 1.219-1.6535.854-3.996-.812-5.2241-1.666-1.2282-4.013-.8822-5.231.7701-1.218 1.6522-.854 3.996.812 5.2242z" fill="#DB210F"/>
  <path opacity=".3" d="M113.833 44.2178H40.4454c-6.0796 0-11.0081 4.9337-11.0081 11.0198v66.1184c0 6.086 4.9285 11.02 11.0081 11.02h73.3876c6.08 0 11.008-4.934 11.008-11.02V55.2376c0-6.0861-4.928-11.0198-11.008-11.0198z" fill="#599CFF"/>
  <path opacity=".2" d="M83.3125 80.182c3.0483 0 5.5194-2.4711 5.5194-5.5194 0-3.0482-2.4711-5.5193-5.5194-5.5193-3.0482 0-5.5193 2.4711-5.5193 5.5193 0 3.0483 2.4711 5.5194 5.5193 5.5194zm18.3975 0c3.049 0 5.52-2.4711 5.52-5.5194 0-3.0482-2.471-5.5193-5.52-5.5193-3.0478 0-5.5188 2.4711-5.5188 5.5193 0 3.0483 2.471 5.5194 5.5188 5.5194zM83.3125 98.5762c3.0483 0 5.5194-2.471 5.5194-5.5193 0-3.0482-2.4711-5.5193-5.5194-5.5193-3.0482 0-5.5193 2.4711-5.5193 5.5193 0 3.0483 2.4711 5.5193 5.5193 5.5193zm18.3975 0c3.049 0 5.52-2.471 5.52-5.5193 0-3.0482-2.471-5.5193-5.52-5.5193-3.0478 0-5.5188 2.4711-5.5188 5.5193 0 3.0483 2.471 5.5193 5.5188 5.5193zm-55.1926 0c3.0482 0 5.5193-2.471 5.5193-5.5193 0-3.0482-2.4711-5.5193-5.5193-5.5193-3.0483 0-5.5194 2.4711-5.5194 5.5193 0 3.0483 2.4711 5.5193 5.5194 5.5193zm18.3977 0c3.0482 0 5.5193-2.471 5.5193-5.5193 0-3.0482-2.4711-5.5193-5.5193-5.5193-3.0483 0-5.5193 2.4711-5.5193 5.5193 0 3.0483 2.471 5.5193 5.5193 5.5193zM46.5174 116.978c3.0482 0 5.5193-2.471 5.5193-5.52 0-3.048-2.4711-5.519-5.5193-5.519-3.0483 0-5.5194 2.471-5.5194 5.519 0 3.049 2.4711 5.52 5.5194 5.52zm18.3977 0c3.0482 0 5.5193-2.471 5.5193-5.52 0-3.048-2.4711-5.519-5.5193-5.519-3.0483 0-5.5193 2.471-5.5193 5.519 0 3.049 2.471 5.52 5.5193 5.52zm18.3974 0c3.0483 0 5.5194-2.471 5.5194-5.52 0-3.048-2.4711-5.519-5.5194-5.519-3.0482 0-5.5193 2.471-5.5193 5.519 0 3.049 2.4711 5.52 5.5193 5.52z" fill="#06F"/>
  <path fill-rule="evenodd" clip-rule="evenodd" d="M83.1598 72.2058c0 1.7465-1.4158 3.1622-3.1622 3.1622s-3.1622-1.4157-3.1622-3.1622c0-1.7464 1.4158-3.1621 3.1622-3.1621s3.1622 1.4157 3.1622 3.1621zm-3.1622 5.5194c3.0482 0 5.5193-2.4711 5.5193-5.5194 0-3.0482-2.4711-5.5193-5.5193-5.5193-3.0482 0-5.5193 2.4711-5.5193 5.5193 0 3.0483 2.4711 5.5194 5.5193 5.5194zm21.5604-5.5194c0 1.7465-1.416 3.1622-3.1625 3.1622-1.7464 0-3.1621-1.4157-3.1621-3.1622 0-1.7464 1.4157-3.1621 3.1621-3.1621 1.7465 0 3.1625 1.4157 3.1625 3.1621zm-3.1625 5.5194c3.0485 0 5.5195-2.4711 5.5195-5.5194 0-3.0482-2.471-5.5193-5.5195-5.5193-3.0482 0-5.5193 2.4711-5.5193 5.5193 0 3.0483 2.4711 5.5194 5.5193 5.5194zm3.1625 12.8749c0 1.7464-1.416 3.1622-3.1625 3.1622-1.7464 0-3.1621-1.4158-3.1621-3.1622s1.4157-3.1621 3.1621-3.1621c1.7465 0 3.1625 1.4157 3.1625 3.1621zm-3.1625 5.5194c3.0485 0 5.5195-2.4711 5.5195-5.5194 0-3.0482-2.471-5.5193-5.5195-5.5193-3.0482 0-5.5193 2.4711-5.5193 5.5193 0 3.0483 2.4711 5.5194 5.5193 5.5194zm-52.0309-5.5194c0 1.7464-1.4158 3.1622-3.1622 3.1622s-3.1621-1.4158-3.1621-3.1622 1.4157-3.1621 3.1621-3.1621c1.7464 0 3.1622 1.4157 3.1622 3.1621zm-3.1622 5.5194c3.0483 0 5.5194-2.4711 5.5194-5.5194 0-3.0482-2.4711-5.5193-5.5194-5.5193-3.0482 0-5.5193 2.4711-5.5193 5.5193 0 3.0483 2.4711 5.5194 5.5193 5.5194zm21.5599-5.5194c0 1.7464-1.4157 3.1622-3.1622 3.1622-1.7464 0-3.1621-1.4158-3.1621-3.1622s1.4157-3.1621 3.1621-3.1621c1.7465 0 3.1622 1.4157 3.1622 3.1621zm-3.1622 5.5194c3.0483 0 5.5194-2.4711 5.5194-5.5194 0-3.0482-2.4711-5.5193-5.5194-5.5193-3.0482 0-5.5193 2.4711-5.5193 5.5193 0 3.0483 2.4711 5.5194 5.5193 5.5194zM46.3646 109.002c0 1.746-1.4158 3.162-3.1622 3.162s-3.1621-1.416-3.1621-3.162c0-1.747 1.4157-3.163 3.1621-3.163 1.7464 0 3.1622 1.416 3.1622 3.163zm-3.1622 5.519c3.0483 0 5.5194-2.471 5.5194-5.519 0-3.049-2.4711-5.52-5.5194-5.52-3.0482 0-5.5193 2.471-5.5193 5.52 0 3.048 2.4711 5.519 5.5193 5.519zm21.5599-5.519c0 1.746-1.4157 3.162-3.1622 3.162-1.7464 0-3.1621-1.416-3.1621-3.162 0-1.747 1.4157-3.163 3.1621-3.163 1.7465 0 3.1622 1.416 3.1622 3.163zm-3.1622 5.519c3.0483 0 5.5194-2.471 5.5194-5.519 0-3.049-2.4711-5.52-5.5194-5.52-3.0482 0-5.5193 2.471-5.5193 5.52 0 3.048 2.4711 5.519 5.5193 5.519zm21.5597-5.519c0 1.746-1.4158 3.162-3.1622 3.162s-3.1622-1.416-3.1622-3.162c0-1.747 1.4158-3.163 3.1622-3.163s3.1622 1.416 3.1622 3.163zm-3.1622 5.519c3.0482 0 5.5193-2.471 5.5193-5.519 0-3.049-2.4711-5.52-5.5193-5.52-3.0482 0-5.5193 2.471-5.5193 5.52 0 3.048 2.4711 5.519 5.5193 5.519z" fill="#06F"/>
  <path d="M79.9976 96.1195c3.0482 0 5.5193-2.4711 5.5193-5.5194 0-3.0482-2.4711-5.5193-5.5193-5.5193-3.0482 0-5.5193 2.4711-5.5193 5.5193 0 3.0483 2.4711 5.5194 5.5193 5.5194z" fill="#06F"/>
  <path fill-rule="evenodd" clip-rule="evenodd" d="M41.362 28.7122c.6509 0 1.1786.5276 1.1786 1.1785v6.181h56.5161v-6.181c0-.6509.5276-1.1785 1.1783-1.1785.651 0 1.179.5276 1.179 1.1785v6.181h6.181c6.747 0 12.217 5.4698 12.217 12.2172v66.2321c0 6.747-5.47 12.217-12.217 12.217H34.0036c-6.7474 0-12.2172-5.47-12.2172-12.217V48.2889c0-6.7474 5.4698-12.2172 12.2172-12.2172h6.1798v-6.181c0-.6509.5277-1.1785 1.1786-1.1785zm-7.3584 9.7166c-5.4456 0-9.8601 4.4145-9.8601 9.8601v66.2321c0 5.445 4.4145 9.86 9.8601 9.86h73.5914c5.445 0 9.86-4.415 9.86-9.86V48.2889c0-5.4456-4.415-9.8601-9.86-9.8601H34.0036z" fill="#06F"/>
  <path opacity=".2" d="M227.602 43.5927l5.357 16.0283 10.731-10.6908-16.088-5.3375z" fill="#F5A623"/>
  <path d="M228.555 40.7441l5.357 16.0283 10.731-10.6908-16.088-5.3375z" fill="#F5A623"/>
  <path d="M221.646 83.7122c-.448 1.1039.224 2.0068 1.32 2.4587l3.311.9029c.896.2255 1.992-.4524 2.217-1.3548.223-1.1284-.449-2.0068-1.321-2.4588l-3.311-.9029c-1.12-.2259-1.992.4506-2.216 1.3549zm8.165 9.2074l.872-3.3871c.224-.8789-.423-2.0064-1.319-2.2332-1.098-.2255-1.994.4519-2.193 1.3543l-.897 3.363c-.449.903.224 2.0323 1.346 2.2578.871.2014 1.967-.2251 2.191-1.3548zm1.096-6.5234c-.423.9033.225 2.0322 1.345 2.2577l3.287.8789c1.12.2513 1.992-.2006 2.216-1.3294.448-.9039-.224-2.0323-1.32-2.2591l-3.312-.9029c-.871-.4506-1.991.2264-2.216 1.3548zm-1.323-7.4004l-.872 3.1361c-.224 1.1284.423 2.2582 1.32 2.4587 1.097.2255 1.993-.4274 2.416-1.3303l.673-3.1606c.449-1.1039-.224-2.2337-1.32-2.4588-.897-.2273-1.993.4506-2.217 1.3549z" fill="#00C05B"/>
  <path d="M17.359 149.713c-.4485 1.104.2238 2.007 1.3194 2.458l3.3115.903c.8961.226 1.9917-.452 2.2168-1.354.2234-1.129-.4485-2.007-1.3207-2.459l-3.3115-.903c-1.1199-.226-1.9913.45-2.2155 1.355zm8.165 9.207l.8721-3.387c.2239-.879-.423-2.006-1.3199-2.233-1.0974-.225-1.9934.452-2.1929 1.354l-.8965 3.363c-.4487.903.2239 2.033 1.3456 2.258.8717.202 1.9677-.225 2.1916-1.355zm1.0959-6.523c-.4229.903.2247 2.032 1.3446 2.257l3.2876.879c1.1199.252 1.9917-.2 2.2151-1.329.4489-.904-.2238-2.032-1.3194-2.259l-3.312-.903c-.8713-.451-1.9912.226-2.2159 1.355zm-1.323-7.401l-.8726 3.137c-.2234 1.128.4235 2.258 1.3204 2.458 1.0969.226 1.9933-.427 2.4163-1.33l.6726-3.161c.4491-1.104-.2239-2.233-1.3199-2.458-.8969-.228-1.9929.45-2.2168 1.354z" fill="#F5A623"/>
  <path d="M18.9725 28.4902l-2.8838-5.5324 2.9202-5.4761-6.1474.9879-4.33503-4.4997-.91491 6.1423-5.59819 2.6934 5.57918 2.8119.87674 6.1622 4.36201-4.4029 6.1412 1.1134zM8.86659 24.7123L5.15626 22.841l3.72291-1.791.6099-4.0822 2.88363 2.9928 4.0899-.6568-1.9433 3.643 1.9176 3.6777-4.0838-.7392-2.90153 2.9298-.58498-4.1028z" fill="#1ABCFE"/>
  <path opacity=".2" d="M20.7989 30.0054l-2.8838-5.5324 2.9202-5.4762-6.1473.988-4.3351-4.4997-.91493 6.1422-5.59819 2.6934 5.57918 2.812.87674 6.1622 4.362-4.403 6.1412 1.1135z" fill="#1ABCFE"/>
  <path opacity=".1" d="M153.656 119.747l3.082-9.532h9.976l-8.065-5.894 3.079-9.5292-8.072 5.8902-8.069-5.8902 3.079 9.5292-8.065 5.89h9.976l3.079 9.536z" fill="#F24E1E"/>
  <path d="M150.948 117.446l2.752-8.535h8.904l-7.199-5.278 2.748-8.5319-7.205 5.2739-7.202-5.2739 2.749 8.5319-7.199 5.275h8.904l2.748 8.538zm-2.66-13.226l-1.641-5.0956 4.301 3.1506 4.304-3.1506-1.641 5.0956 4.304 3.154h-5.322l-1.645 5.096-1.641-5.096h-5.323l4.304-3.154z" fill="#F24E1E"/>
  <path opacity=".1" d="M128.565 159.659c3.174-4.306 2.225-10.407-2.115-13.606-4.339-3.198-10.45-2.297-13.622 2.006-3.172 4.303-2.225 10.408 2.114 13.606 4.339 3.199 10.448 2.301 13.623-2.006z" fill="#DB210F"/>
  <path d="M125.539 159.758c3.174-4.307 2.225-10.408-2.115-13.607-4.339-3.198-10.45-2.297-13.622 2.006-3.172 4.303-2.225 10.408 2.114 13.606 4.339 3.199 10.448 2.301 13.623-2.005zm-14.071-10.373c2.499-3.39 7.318-4.1 10.737-1.58 3.42 2.521 4.167 7.334 1.667 10.724-2.499 3.391-7.317 4.101-10.737 1.58-3.419-2.52-4.166-7.333-1.667-10.724z" fill="#DB210F"/>
  <path opacity=".1" d="M206.147 1.00351c-2.88 0-5.224 2.36183-5.224 5.26363 0 2.90181 2.344 5.26366 5.224 5.26366 2.88 0 5.224-2.36185 5.224-5.26366 0-2.9018-2.341-5.26363-5.224-5.26363z" fill="#1ABCFE"/>
  <path d="M204.152.00009155c-2.88-2.5e-7-5.224 2.36182845-5.224 5.26362845 0 2.90181 2.344 5.26358 5.224 5.26358 2.88 0 5.224-2.36177 5.224-5.26357 0-2.90181-2.342-5.26363819-5.224-5.26363845zm0 9.35337845c-2.239 0-4.059-1.83592-4.059-4.08975 0-2.25382 1.82-4.08976 4.059-4.08976s4.059 1.83594 4.059 4.08977c0 2.25382-1.82 4.08975-4.059 4.08974z" fill="#1ABCFE"/>
</svg>
