<svg viewBox="0 0 42 42" fill="none" xmlns="http://www.w3.org/2000/svg">
<path d="M21 -0.000267029C9.40312 -0.000267029 0 9.6466 0 21.5341C0 31.0497 6.01875 39.1122 14.3625 41.9622C14.4795 41.9876 14.599 42.0002 14.7187 41.9997C15.4969 41.9997 15.7969 41.4278 15.7969 40.931C15.7969 40.4153 15.7781 39.0653 15.7687 37.2653C15.0741 37.4282 14.3635 37.5131 13.65 37.5185C9.60937 37.5185 8.69062 34.3778 8.69062 34.3778C7.73437 31.8935 6.35625 31.2278 6.35625 31.2278C4.52812 29.9435 6.34687 29.906 6.4875 29.906H6.49687C8.60625 30.0935 9.7125 32.1372 9.7125 32.1372C10.7625 33.9747 12.1687 34.4903 13.425 34.4903C14.2557 34.4737 15.0735 34.2821 15.825 33.9278C16.0125 32.5403 16.5562 31.5935 17.1562 31.0497C12.4969 30.506 7.59375 28.6591 7.59375 20.4091C7.59375 18.056 8.40937 16.1341 9.75 14.6341C9.53437 14.0904 8.8125 11.8966 9.95625 8.9341C10.1097 8.89739 10.2673 8.88163 10.425 8.88723C11.1844 8.88723 12.9 9.17785 15.7312 11.1466C19.1714 10.1841 22.8098 10.1841 26.25 11.1466C29.0812 9.17785 30.7969 8.88723 31.5562 8.88723C31.7139 8.88163 31.8716 8.89739 32.025 8.9341C33.1687 11.8966 32.4469 14.0904 32.2312 14.6341C33.5719 16.1435 34.3875 18.0653 34.3875 20.4091C34.3875 28.6778 29.475 30.4966 24.7969 31.031C25.5469 31.6966 26.2219 33.0091 26.2219 35.0153C26.2219 37.8935 26.1937 40.2185 26.1937 40.9216C26.1937 41.4278 26.4844 41.9997 27.2625 41.9997C27.3885 42.0003 27.5141 41.9877 27.6375 41.9622C35.9906 39.1122 42 31.0403 42 21.5341C42 9.6466 32.5969 -0.000267029 21 -0.000267029Z" fill="#272733"/>
</svg>
