<svg fill="none" xmlns="http://www.w3.org/2000/svg" viewBox="0 0 152 154">
  <defs/>
  <path opacity=".12" fill-rule="evenodd" clip-rule="evenodd" d="M41.62 29.709c8.427-7.972 22.414-2.357 34.006-1.327 9.68.86 19.486 1.472 27.641 6.804 8.056 5.267 13.721 13.404 17.067 22.427 3.268 8.812 1.924 18.06 1.42 27.424-.639 11.892 4.702 27.333-4.75 34.51-9.571 7.266-22.983-4.514-35.03-4.308-11.07.191-22.003 10.478-31.907 5.457-9.884-5.01-12.266-18.169-14.552-29.007-1.971-9.35 1.638-18.302 2.573-27.792 1.151-11.688-4.971-26.142 3.533-34.188z" fill="#599CFF"/>
  <path d="M91.444 35.197c-1.796-.15-2.245 2.094-.282 2.79 14.394 5.903 24.532 20.056 24.532 36.576 0 3.1-.357 6.117-1.032 9.012-.315 1.35 1.93 2.215 2.488 1.178a42.297 42.297 0 001.238-10.19c0-17.928-11.177-33.247-26.944-39.366zM61.192 37.986c2.209-.906 1.064-2.94-.282-2.789-15.767 6.12-26.945 21.438-26.945 39.366 0 3.357.392 6.623 1.133 9.754.663 1.024 2.909.575 2.53-1.02a39.65 39.65 0 01-.968-8.734c0-16.52 10.138-30.673 24.532-36.577zM76.177 114.081a39.334 39.334 0 0021.52-6.369c1.255-.816 2.729.98 1.948 1.943a42.016 42.016 0 01-23.468 7.12 42.014 42.014 0 01-23.97-7.462c-.729-1.07.619-2.831 1.865-1.988a39.334 39.334 0 0022.105 6.756z" fill="#0D5F80"/>
  <circle opacity=".35" cx="77.075" cy="35.944" r="10.777" fill="#599CFF"/>
  <path fill-rule="evenodd" clip-rule="evenodd" d="M76.177 42.231a8.083 8.083 0 100-16.166 8.083 8.083 0 000 16.166zm0 2.694c5.952 0 10.777-4.825 10.777-10.777 0-5.952-4.825-10.777-10.777-10.777-5.953 0-10.778 4.825-10.778 10.777 0 5.952 4.826 10.777 10.778 10.777z" fill="#0D5F80"/>
  <circle opacity=".35" cx="110.305" cy="98.813" r="10.777" fill="#C98BFF"/>
  <path fill-rule="evenodd" clip-rule="evenodd" d="M109.407 105.099a8.083 8.083 0 100-16.166 8.083 8.083 0 000 16.166zm0 2.695c5.952 0 10.777-4.825 10.777-10.778 0-5.952-4.825-10.777-10.777-10.777-5.952 0-10.777 4.825-10.777 10.777 0 5.953 4.825 10.778 10.777 10.778z" fill="#0D5F80"/>
  <circle opacity=".35" cx="42.946" cy="98.813" r="10.777" fill="#E24D3F"/>
  <path fill-rule="evenodd" clip-rule="evenodd" d="M42.048 105.099a8.083 8.083 0 100-16.166 8.083 8.083 0 000 16.166zm0 2.695c5.953 0 10.778-4.825 10.778-10.778 0-5.952-4.825-10.777-10.778-10.777-5.952 0-10.777 4.825-10.777 10.777 0 5.953 4.825 10.778 10.777 10.778z" fill="#0D5F80"/>
  <path opacity=".2" fill-rule="evenodd" clip-rule="evenodd" d="M57.266 66.99c1.645-.549 4.203-1.037 8.114-1.037 3.91 0 6.469.488 8.114 1.037.824.274 1.42.565 1.84.817.211.126.376.242.504.341a3.363 3.363 0 01.248.214l.011.01.006.006.003.003-.005.006.007-.004a5.639 5.639 0 014.868.004l-.005-.006.003-.003.005-.005.012-.011a2.28 2.28 0 01.086-.08c.045-.04.099-.084.162-.134.127-.099.293-.215.503-.34.42-.253 1.017-.544 1.841-.819 1.645-.548 4.203-1.036 8.114-1.036 3.91 0 6.47.488 8.114 1.037.824.274 1.42.565 1.841.817l.043.026h1.282a1.88 1.88 0 010 3.76h-.02c-.099 4.684-.615 8.313-2.129 10.836-1.897 3.161-5.06 4.202-9.131 4.202-4.072 0-7.234-1.041-9.131-4.202-1.227-2.044-1.799-4.815-2.024-8.284a1.874 1.874 0 01-.124-.673 1.88 1.88 0 00-3.76 0c0 .237-.043.464-.123.673-.226 3.47-.798 6.24-2.024 8.284-1.897 3.161-5.06 4.202-9.131 4.202-4.072 0-7.234-1.041-9.131-4.202-1.514-2.523-2.03-6.152-2.13-10.837h-.018a1.88 1.88 0 110-3.76h1.281l.043-.025c.42-.252 1.017-.543 1.841-.817z" fill="#50FF8F"/>
  <path d="M72.06 68.918a3.817 3.817 0 117.635 0M98.78 65.101h1.909M52.977 65.101h-1.91" stroke="#00C05B" stroke-width="3.817" stroke-linecap="round" stroke-linejoin="round"/>
  <path d="M52.976 65.101c0 11.451 1.908 15.268 9.542 15.268s9.543-3.817 9.543-15.268c0 0-1.909-1.908-9.543-1.908-7.634 0-9.542 1.908-9.542 1.908zM98.78 65.101c0 11.451-1.909 15.268-9.543 15.268-7.634 0-9.542-3.817-9.542-15.268 0 0 1.908-1.908 9.542-1.908S98.78 65.1 98.78 65.1z" stroke="#00C05B" stroke-width="3.817" stroke-linecap="round" stroke-linejoin="round"/>
</svg>
