<svg fill="none" xmlns="http://www.w3.org/2000/svg" viewBox="0 0 153 151">
  <defs/>
  <path opacity=".12" fill-rule="evenodd" clip-rule="evenodd" d="M29.454 109.675c-7.855-8.377-2.235-22.199-1.165-33.67.894-9.578 1.543-19.284 6.857-27.334 5.25-7.952 13.33-13.525 22.277-16.798 8.738-3.196 17.888-1.825 27.155-1.285 11.77.685 27.08-4.535 34.143 4.854 7.152 9.507-4.57 22.732-4.418 34.659.14 10.96 10.276 21.828 5.262 31.612-5.003 9.762-18.04 12.062-28.78 14.278-9.264 1.911-18.11-1.702-27.502-2.669-11.565-1.191-25.901 4.807-33.829-3.647z" fill="#599CFF"/>
  <path d="M91.703 34.033c-1.778-.15-2.222 2.073-.28 2.761 14.25 5.844 24.287 19.855 24.287 36.21 0 3.07-.354 6.056-1.022 8.921-.312 1.338 1.911 2.193 2.463 1.167a41.87 41.87 0 001.226-10.088c0-17.749-11.065-32.913-26.674-38.971zM61.754 36.794c2.187-.897 1.053-2.91-.28-2.761C45.866 40.09 34.8 55.255 34.8 73.004c0 3.324.388 6.556 1.121 9.656.657 1.014 2.88.57 2.505-1.01a39.25 39.25 0 01-.959-8.646c0-16.355 10.037-30.366 24.287-36.21zM76.589 112.125a38.935 38.935 0 0021.304-6.304c1.243-.808 2.702.97 1.93 1.923a41.594 41.594 0 01-23.234 7.049 41.6 41.6 0 01-23.73-7.387c-.721-1.06.613-2.803 1.847-1.969a38.934 38.934 0 0021.883 6.688z" fill="#0D5F80"/>
  <circle opacity=".35" cx="77.478" cy="34.772" r="10.669" fill="#C98BFF"/>
  <path fill-rule="evenodd" clip-rule="evenodd" d="M76.589 40.996a8.002 8.002 0 100-16.004 8.002 8.002 0 000 16.004zm0 2.667c5.892 0 10.669-4.776 10.669-10.669 0-5.892-4.777-10.67-10.67-10.67-5.892 0-10.669 4.778-10.669 10.67 0 5.893 4.777 10.67 10.67 10.67z" fill="#0D5F80"/>
  <circle opacity=".35" cx="110.375" cy="97.01" r="10.669" fill="#50FF8F"/>
  <path fill-rule="evenodd" clip-rule="evenodd" d="M109.486 103.234a8.002 8.002 0 100-16.004 8.002 8.002 0 000 16.004zm0 2.668c5.892 0 10.669-4.777 10.669-10.67 0-5.892-4.777-10.67-10.669-10.67-5.893 0-10.67 4.778-10.67 10.67 0 5.893 4.777 10.67 10.67 10.67z" fill="#0D5F80"/>
  <circle opacity=".35" cx="43.691" cy="97.01" r="10.669" fill="#F8C369"/>
  <path fill-rule="evenodd" clip-rule="evenodd" d="M42.802 103.234a8.002 8.002 0 100-16.004 8.002 8.002 0 000 16.004zm0 2.668c5.893 0 10.67-4.777 10.67-10.67 0-5.892-4.777-10.67-10.67-10.67-5.892 0-10.67 4.778-10.67 10.67 0 5.893 4.778 10.67 10.67 10.67z" fill="#0D5F80"/>
  <path opacity=".15" fill-rule="evenodd" clip-rule="evenodd" d="M79.697 56.819c3.297 0 6.38 1.269 8.682 3.574a12.183 12.183 0 013.566 8.674c0 3.645-1.295 6.813-3.746 9.154l-.376.356-.002.002c-1.362 1.289-3.225 3.053-3.225 4.574l-.191 5.294c0-.026 0 .116 0 0 0 0-.13.854-.36 1.084-.217.217-.358.358-.674.358h-.038c.025 1.334.038 2.345.038 2.45a1.225 1.225 0 01-1.224 1.224h-4.9a1.225 1.225 0 01-1.225-1.225c0-.104.013-1.115.04-2.449-.219 0-.326-.104-.418-.242-.044-.068-.094-.144-.17-.22-.23-.229-.369-1.073-.369-1.398l-.308-4.876c0-1.559-1.885-3.325-3.264-4.614l-.334-.313c-2.383-2.252-3.75-5.59-3.75-9.159a12.218 12.218 0 0112.248-12.248z" fill="#E24D3F"/>
  <path fill-rule="evenodd" clip-rule="evenodd" d="M76.725 52.64c6.853 0 12.311 5.476 12.311 12.31 0 3.637-1.28 6.825-3.761 9.196-.826.79-1.746 1.624-2.487 2.542-.753.934-1.138 1.743-1.138 2.428v1.838a1.231 1.231 0 01-2.462 0v-1.838c0-1.547.829-2.913 1.684-3.974.737-.913 1.628-1.758 2.34-2.432 2.173-2.06 3.362-4.745 3.362-7.76a9.792 9.792 0 00-9.849-9.848c-5.319 0-9.848 4.471-9.848 9.848 0 2.935 1.132 5.677 3.279 7.676.727.677 1.656 1.541 2.423 2.492.86 1.065 1.684 2.438 1.684 3.998v1.838a1.231 1.231 0 01-2.462 0v-1.838c0-.705-.39-1.524-1.139-2.452-.737-.914-1.658-1.742-2.477-2.51-2.445-2.296-3.77-5.69-3.77-9.204 0-6.715 5.666-12.31 12.31-12.31zM73.032 88.34c0-.68.551-1.231 1.231-1.231h4.924a1.231 1.231 0 010 2.462h-4.924c-.68 0-1.231-.551-1.231-1.231zM71.8 84.649c0-.68.552-1.231 1.232-1.231h7.386a1.231 1.231 0 110 2.462h-7.386c-.68 0-1.231-.551-1.231-1.231z" fill="#DB210F"/>
  <path d="M72.814 69.14a1.231 1.231 0 011.722-.254c.267.191.546.364.835.52.544.292 1.044.468 1.354.468.31 0 .811-.176 1.355-.469.288-.155.57-.326.834-.519a1.232 1.232 0 011.47 1.976c-.36.266-.745.5-1.138.712-.338.181-.789.4-1.29.556v8.825a1.231 1.231 0 01-2.462 0V72.13a7.47 7.47 0 01-1.29-.556 9.352 9.352 0 01-1.136-.71 1.243 1.243 0 01-.254-1.725z" fill="#DB210F"/>
</svg>
