<svg viewBox="0 0 48 48" fill="none" xmlns="http://www.w3.org/2000/svg">
<path d="M11.8235 29.5418C11.8228 30.4142 11.5634 31.2668 11.0781 31.9919C10.5929 32.7169 9.90361 33.2818 9.09738 33.6151C8.29115 33.9485 7.40419 34.0353 6.54862 33.8647C5.69305 33.694 4.90728 33.2735 4.29064 32.6564C3.674 32.0392 3.25419 31.2531 3.08426 30.3974C2.91433 29.5416 3.00192 28.6548 3.33595 27.8488C3.66998 27.0429 4.23547 26.354 4.96091 25.8694C5.68636 25.3848 6.5392 25.1262 7.41163 25.1262H11.8235V29.5418Z" fill="#E01E5A"/>
<path d="M14.0474 29.54C14.0474 28.3699 14.5122 27.2477 15.3396 26.4203C16.167 25.5929 17.2891 25.1281 18.4592 25.1281C19.6293 25.1281 20.7515 25.5929 21.5789 26.4203C22.4063 27.2477 22.8711 28.3699 22.8711 29.54V40.5875C22.8711 41.7576 22.4063 42.8797 21.5789 43.7071C20.7515 44.5345 19.6293 44.9993 18.4592 44.9993C17.2891 44.9993 16.167 44.5345 15.3396 43.7071C14.5122 42.8797 14.0474 41.7576 14.0474 40.5875V29.54Z" fill="#E01E5A"/>
<path d="M18.4592 11.8228C17.5867 11.822 16.7341 11.5627 16.0091 11.0774C15.284 10.5922 14.7191 9.90289 14.3858 9.09666C14.0524 8.29043 13.9656 7.40347 14.1363 6.54789C14.3069 5.69232 14.7274 4.90655 15.3446 4.28992C15.9617 3.67328 16.7478 3.25346 17.6036 3.08353C18.4593 2.9136 19.3462 3.00119 20.1521 3.33523C20.9581 3.66926 21.6469 4.23474 22.1315 4.96019C22.6161 5.68564 22.8748 6.53848 22.8748 7.4109V11.8228H18.4592Z" fill="#36C5F0"/>
<path d="M18.4591 14.0451C19.6292 14.0451 20.7514 14.5099 21.5788 15.3373C22.4062 16.1647 22.871 17.2869 22.871 18.457C22.871 19.6271 22.4062 20.7493 21.5788 21.5767C20.7514 22.4041 19.6292 22.8689 18.4591 22.8689H7.41163C6.24153 22.8689 5.11935 22.4041 4.29196 21.5767C3.46458 20.7493 2.99976 19.6271 2.99976 18.457C2.99976 17.2869 3.46458 16.1647 4.29196 15.3373C5.11935 14.5099 6.24153 14.0451 7.41163 14.0451H18.4591Z" fill="#36C5F0"/>
<path d="M36.176 18.4591C36.1768 17.5866 36.4361 16.734 36.9214 16.009C37.4066 15.284 38.0959 14.7191 38.9021 14.3857C39.7084 14.0524 40.5953 13.9655 41.4509 14.1362C42.3065 14.3068 43.0923 14.7273 43.7089 15.3445C44.3255 15.9616 44.7453 16.7478 44.9153 17.6035C45.0852 18.4592 44.9976 19.3461 44.6636 20.152C44.3295 20.958 43.7641 21.6468 43.0386 22.1314C42.3132 22.616 41.4603 22.8747 40.5879 22.8747H36.176V18.4591Z" fill="#2EB67D"/>
<path d="M33.9522 18.4584C33.9522 19.6285 33.4873 20.7507 32.66 21.5781C31.8326 22.4055 30.7104 22.8703 29.5403 22.8703C28.3702 22.8703 27.248 22.4055 26.4206 21.5781C25.5932 20.7507 25.1284 19.6285 25.1284 18.4584V7.4109C25.1284 6.2408 25.5932 5.11863 26.4206 4.29124C27.248 3.46385 28.3702 2.99903 29.5403 2.99903C30.7104 2.99903 31.8326 3.46385 32.66 4.29124C33.4873 5.11863 33.9522 6.2408 33.9522 7.4109V18.4584Z" fill="#2EB67D"/>
<path d="M29.5404 36.1761C30.4128 36.1769 31.2654 36.4362 31.9905 36.9215C32.7155 37.4067 33.2804 38.096 33.6137 38.9022C33.9471 39.7085 34.0339 40.5954 33.8633 41.451C33.6926 42.3066 33.2721 43.0924 32.655 43.709C32.0378 44.3256 31.2517 44.7454 30.396 44.9154C29.5402 45.0853 28.6534 44.9977 27.8474 44.6637C27.0415 44.3296 26.3526 43.7642 25.868 43.0387C25.3834 42.3133 25.1248 41.4604 25.1248 40.588V36.1761H29.5404Z" fill="#ECB22E"/>
<path d="M29.5403 33.9518C28.3702 33.9518 27.248 33.487 26.4206 32.6596C25.5932 31.8322 25.1284 30.7101 25.1284 29.54C25.1284 28.3699 25.5932 27.2477 26.4206 26.4203C27.248 25.5929 28.3702 25.1281 29.5403 25.1281H40.5878C41.7579 25.1281 42.8801 25.5929 43.7075 26.4203C44.5348 27.2477 44.9997 28.3699 44.9997 29.54C44.9997 30.7101 44.5348 31.8322 43.7075 32.6596C42.8801 33.487 41.7579 33.9518 40.5878 33.9518H29.5403Z" fill="#ECB22E"/>
</svg>
