<svg viewBox="0 0 400 400" fill="none" xmlns="http://www.w3.org/2000/svg">
<g clip-path="url(#clip0_75_1265)">
<mask id="mask0_75_1265" style="mask-type:alpha" maskUnits="userSpaceOnUse" x="0" y="0" width="400" height="400">
<path d="M200 400C310.457 400 400 310.457 400 200C400 89.5431 310.457 0 200 0C89.5431 0 0 89.5431 0 200C0 310.457 89.5431 400 200 400Z" fill="#C4C4C4"/>
</mask>
<g mask="url(#mask0_75_1265)">
<path fill-rule="evenodd" clip-rule="evenodd" d="M200 400C92.9649 400 0 307.035 0 200C0 92.9649 92.9649 0 200 0" fill="#F7F7FA"/>
<path fill-rule="evenodd" clip-rule="evenodd" d="M200 0C307.035 0 400 92.9649 400 200C400 307.035 307.035 400 200 400" fill="#CFDDE0"/>
<path d="M106 412.003C106 488.218 153 531.503 137 531.503C125.5 531.503 83.4999 490.718 83.4999 414.503C83.4999 338.288 108 281.503 121 281.503C134 281.503 106 335.788 106 412.003Z" fill="#595F61"/>
<path d="M84.999 424.006C84.999 500.222 150.499 538.506 134.499 538.506C122.999 538.506 62.999 500.222 62.999 424.006C62.999 347.791 104.999 281.506 117.999 281.506C130.999 281.506 84.999 347.791 84.999 424.006Z" fill="#272733"/>
<path d="M302 412.003C302 488.218 255 531.503 271 531.503C282.5 531.503 324.5 490.718 324.5 414.503C324.5 338.288 300 281.503 287 281.503C274 281.503 302 335.788 302 412.003Z" fill="#595F61"/>
<path d="M322.999 424.003C322.999 500.218 257.499 538.503 273.499 538.503C284.999 538.503 344.999 500.218 344.999 424.003C344.999 347.788 302.999 281.503 289.999 281.503C276.999 281.503 322.999 347.788 322.999 424.003Z" fill="#272733"/>
<path d="M314.342 195.909C314.342 233.465 290.239 254.499 290.239 280.765C290.239 303.999 304 394.499 304 421.499C304 484.499 273.956 520.999 273.956 520.999C273.956 520.999 258.5 544.499 247.5 544.499C236.5 544.499 211 524.907 204.036 524.907C197.071 524.907 172.5 544.499 162 544.499C151.5 544.499 131.592 520.999 131.592 520.999C131.592 520.999 103.5 484.499 103.5 421.499C103.5 394.499 118 303.999 118 280.765C118 254.999 92.215 231.999 92.215 195.909C92.215 129.302 147.018 95.999 203.279 95.999C259.539 95.999 314.342 129.302 314.342 195.909Z" fill="#272733"/>
<path opacity="0.08" d="M290.238 280.765C290.238 303.999 304 394.499 304 421.499C304 484.499 273.955 520.999 273.955 520.999C273.955 520.999 258.5 544.499 247.5 544.499C236.5 544.499 211 524.907 204.035 524.907C197.071 524.907 172.5 544.499 162 544.499C151.5 544.499 131.591 520.999 131.591 520.999C131.591 520.999 103.5 484.499 103.5 421.499C103.5 394.499 118 303.999 118 280.765L204.035 334.499L290.238 280.765Z" fill="white"/>
<g opacity="0.2">
<path d="M284.499 409.496C286.532 398.996 294 399.139 296.5 411.996C303.5 447.996 284.499 488.996 284.499 488.996C284.499 488.996 260.5 537.996 245 537.996C229.5 537.996 251.301 513.992 262 486.996C282.251 435.897 282.467 419.996 284.499 409.496Z" fill="#595F61"/>
<path d="M124.161 409.496C122.129 398.996 114.661 399.139 112.161 411.996C105.161 447.996 124.161 488.996 124.161 488.996C124.161 488.996 148.161 537.996 163.661 537.996C179.161 537.996 157.36 513.992 146.661 486.996C126.41 435.897 126.194 419.996 124.161 409.496Z" fill="#595F61"/>
</g>
<path d="M118 280.999L203.114 333.453C203.657 333.787 204.342 333.787 204.885 333.453L290 280.999C290 280.999 298.379 275.999 255.189 354.999C212 433.999 204 433.999 204 433.999C204 433.999 196 433.999 149.689 354.999C110 275.999 118 280.999 118 280.999Z" fill="white"/>
<path d="M158 273.245L204 304.775L158 333.406V273.245Z" fill="#F24E1E" stroke="#272733" stroke-width="5.34989"/>
<path d="M203.999 304.775L249.999 273.245L249.999 333.406L203.999 304.775Z" fill="#DB210F" stroke="#272733" stroke-width="5.34989"/>
<path d="M203.999 252.692L224.999 210.579C224.999 210.579 213.999 200.552 203.999 200.552" fill="#754F10"/>
<path d="M203.999 200.555C193.999 200.555 181.999 210.582 181.999 210.582L203.999 252.695" fill="#F5A623"/>
<path d="M260.128 199.197C247.4 206.365 226.637 195.199 217.713 189.65C214.96 187.938 213.636 184.827 215.505 182.178C225.178 168.47 265.442 139.188 273.368 153.055C282.614 169.212 276.685 189.873 260.128 199.197Z" fill="white"/>
<circle cx="243.772" cy="175.53" r="12.3251" fill="#272733"/>
<path d="M147.228 199.052C130.751 189.388 125.107 168.419 134.626 152.219C142.986 137.985 185.208 167.184 193.06 182.634C194.446 185.361 192.858 188.265 190.246 189.858C181.374 195.268 160.035 206.572 147.228 199.052Z" fill="white"/>
<circle cx="165.606" cy="176.073" r="12.3251" fill="#272733"/>
<path d="M252.998 105.875C262.563 99.1577 268.593 89.8538 266.998 76.9282C251.555 74.0733 232.784 90.6114 220.998 100.442C218.824 100.331 215.201 100.128 212.998 100.119C228.986 82.2777 244.101 60.9444 226.998 60.7597C214.117 60.6211 203.688 77.8336 194.998 94.9538C202.518 75.2559 206.745 53.8857 184.998 57.5906C163.446 61.2586 174.641 85.4098 180.998 104.045L252.998 105.875Z" fill="#272733"/>
<path d="M296.077 120.128H112.321C96.3067 120.128 83.3243 133.11 83.3243 149.125V191.525C83.3243 208.842 98.3823 222.291 115.568 220.673C141.097 218.268 178 215.297 204.617 215.278C231.319 215.258 267.561 218.195 292.745 220.604C309.958 222.25 325.074 208.79 325.074 191.439V149.125C325.074 133.11 312.092 120.128 296.077 120.128Z" fill="url(#paint0_linear_75_1265)" stroke="#7C7C87" stroke-width="5.35"/>
<path d="M194.999 96.4987C194.999 96.4987 196.499 95.4987 205.999 95.4987C215.499 95.4987 216.999 96.4987 216.999 96.4987V117.999H194.999V96.4987Z" fill="#7C7C87"/>
<circle cx="112.7" cy="142.501" r="5.7" fill="#00C05B"/>
<path d="M98.5587 167.614V164.1H113.687V167.614H108.259V181.999H103.995V167.614H98.5587ZM117.939 181.999V164.1H130.419V167.614H122.265V171.284H129.781V174.806H122.265V178.485H130.419V181.999H117.939ZM135.268 181.999V164.1H139.594V178.485H147.04V181.999H135.268ZM151.42 181.999V164.1H163.899V167.614H155.746V171.284H163.261V174.806H155.746V178.485H163.899V181.999H151.42ZM168.749 181.999V164.1H176.142C177.482 164.1 178.639 164.363 179.612 164.887C180.59 165.406 181.345 166.131 181.875 167.063C182.405 167.989 182.67 169.067 182.67 170.297C182.67 171.532 182.399 172.613 181.858 173.539C181.322 174.46 180.555 175.173 179.559 175.68C178.563 176.187 177.38 176.44 176.011 176.44H171.449V173.032H175.207C175.859 173.032 176.404 172.918 176.841 172.691C177.284 172.464 177.619 172.147 177.846 171.739C178.073 171.325 178.187 170.844 178.187 170.297C178.187 169.743 178.073 169.265 177.846 168.863C177.619 168.456 177.284 168.141 176.841 167.92C176.398 167.698 175.854 167.587 175.207 167.587H173.075V181.999H168.749ZM186.943 181.999V164.1H194.336C195.676 164.1 196.833 164.342 197.806 164.826C198.785 165.304 199.539 165.991 200.069 166.888C200.599 167.78 200.865 168.837 200.865 170.061C200.865 171.302 200.594 172.356 200.052 173.224C199.51 174.087 198.741 174.745 197.745 175.199C196.748 175.648 195.568 175.872 194.205 175.872H189.53V172.464H193.401C194.054 172.464 194.598 172.38 195.035 172.211C195.478 172.036 195.813 171.774 196.04 171.424C196.268 171.069 196.381 170.614 196.381 170.061C196.381 169.507 196.268 169.05 196.04 168.689C195.813 168.322 195.478 168.048 195.035 167.867C194.593 167.681 194.048 167.587 193.401 167.587H191.269V181.999H186.943ZM197.019 173.819L201.476 181.999H196.757L192.387 173.819H197.019ZM205.377 181.999V164.1H217.857V167.614H209.703V171.284H217.219V174.806H209.703V178.485H217.857V181.999H205.377ZM232.381 169.466C232.322 168.826 232.063 168.327 231.603 167.972C231.148 167.611 230.499 167.43 229.654 167.43C229.095 167.43 228.629 167.503 228.256 167.649C227.883 167.794 227.603 167.995 227.417 168.252C227.23 168.502 227.134 168.791 227.128 169.117C227.117 169.385 227.169 169.621 227.286 169.825C227.408 170.029 227.583 170.209 227.81 170.367C228.043 170.518 228.323 170.652 228.649 170.769C228.975 170.885 229.342 170.987 229.75 171.074L231.288 171.424C232.174 171.616 232.955 171.873 233.63 172.193C234.312 172.514 234.883 172.895 235.343 173.338C235.809 173.781 236.162 174.291 236.401 174.867C236.64 175.444 236.762 176.091 236.768 176.807C236.762 177.938 236.477 178.908 235.911 179.718C235.346 180.528 234.533 181.148 233.473 181.579C232.419 182.01 231.146 182.226 229.654 182.226C228.157 182.226 226.852 182.002 225.739 181.553C224.626 181.104 223.761 180.423 223.143 179.508C222.526 178.593 222.208 177.437 222.191 176.038H226.333C226.368 176.615 226.522 177.096 226.796 177.48C227.07 177.865 227.446 178.156 227.924 178.354C228.407 178.552 228.967 178.651 229.602 178.651C230.184 178.651 230.679 178.573 231.087 178.416C231.501 178.258 231.818 178.04 232.04 177.76C232.261 177.48 232.375 177.16 232.381 176.799C232.375 176.461 232.27 176.172 232.066 175.934C231.862 175.689 231.548 175.479 231.122 175.304C230.703 175.124 230.167 174.958 229.514 174.806L227.644 174.369C226.094 174.014 224.874 173.44 223.982 172.648C223.091 171.849 222.648 170.772 222.654 169.414C222.648 168.307 222.945 167.337 223.545 166.504C224.145 165.671 224.976 165.021 226.036 164.555C227.096 164.089 228.305 163.856 229.663 163.856C231.049 163.856 232.253 164.092 233.272 164.564C234.298 165.03 235.093 165.685 235.658 166.53C236.223 167.375 236.512 168.354 236.523 169.466H232.381ZM241.093 181.999V164.1H253.572V167.614H245.419V171.284H252.934V174.806H245.419V178.485H253.572V181.999H241.093ZM273.654 164.1V181.999H269.984L262.861 171.669H262.748V181.999H258.422V164.1H262.145L269.189 174.413H269.337V164.1H273.654ZM294.761 170.585H290.391C290.333 170.136 290.214 169.732 290.033 169.37C289.852 169.009 289.613 168.7 289.316 168.444C289.019 168.188 288.667 167.992 288.259 167.858C287.857 167.719 287.411 167.649 286.922 167.649C286.054 167.649 285.305 167.861 284.676 168.287C284.052 168.712 283.572 169.327 283.234 170.131C282.902 170.935 282.736 171.908 282.736 173.05C282.736 174.238 282.905 175.234 283.242 176.038C283.586 176.837 284.067 177.44 284.684 177.847C285.308 178.249 286.045 178.45 286.895 178.45C287.373 178.45 287.807 178.389 288.198 178.267C288.594 178.145 288.941 177.967 289.238 177.734C289.541 177.495 289.788 177.207 289.98 176.869C290.179 176.525 290.315 176.137 290.391 175.706L294.761 175.733C294.685 176.525 294.455 177.306 294.07 178.075C293.692 178.844 293.17 179.546 292.506 180.181C291.842 180.81 291.032 181.311 290.077 181.684C289.127 182.057 288.037 182.243 286.808 182.243C285.188 182.243 283.738 181.888 282.456 181.177C281.18 180.461 280.172 179.418 279.432 178.048C278.692 176.679 278.322 175.013 278.322 173.05C278.322 171.08 278.698 169.411 279.45 168.042C280.201 166.673 281.218 165.633 282.5 164.922C283.781 164.211 285.218 163.856 286.808 163.856C287.892 163.856 288.894 164.007 289.814 164.31C290.735 164.607 291.545 165.044 292.244 165.621C292.943 166.192 293.511 166.894 293.948 167.727C294.385 168.56 294.656 169.513 294.761 170.585ZM299.376 181.999V164.1H311.856V167.614H303.702V171.284H311.218V174.806H303.702V178.485H311.856V181.999H299.376Z" fill="white"/>
<path d="M392.866 200C392.866 306.517 306.517 392.867 199.999 392.867C93.4821 392.867 7.13272 306.517 7.13272 200C7.13272 93.4827 93.4821 7.13333 199.999 7.13333C306.517 7.13333 392.866 93.4827 392.866 200Z" stroke="#7C7C87" stroke-width="14.2667" stroke-miterlimit="10"/>
</g>
</g>
<defs>
<linearGradient id="paint0_linear_75_1265" x1="85.9993" y1="179.503" x2="328.499" y2="172.003" gradientUnits="userSpaceOnUse">
<stop stop-color="#2F2F33"/>
<stop offset="0.473958" stop-color="#6D6D7F"/>
<stop offset="1" stop-color="#2F2F33"/>
</linearGradient>
<clipPath id="clip0_75_1265">
<rect width="400" height="400" fill="white"/>
</clipPath>
</defs>
</svg>
