<svg viewBox="0 0 24 24" fill="none" xmlns="http://www.w3.org/2000/svg">
    <path fill-rule="evenodd" clip-rule="evenodd" d="M14.7196 0.749525C14.9721 0.749876 15.2221 0.800184 15.455 0.897549C15.688 0.994915 15.8994 1.13742 16.077 1.31684L16.0788 1.31867L21.194 6.52059C21.545 6.87624 21.7445 7.35478 21.7497 7.85391C21.7499 7.86076 21.75 7.86763 21.75 7.87452C21.75 7.87994 21.75 7.88534 21.7498 7.89073V15.937C21.7498 17.471 20.5401 18.7495 18.9866 18.7495H16.4999V20.437C16.4999 21.971 15.2901 23.2495 13.7366 23.2495H5.01552C3.46021 23.2495 2.24989 21.9716 2.24989 20.437V8.05763C2.25425 7.31422 2.55151 6.6025 3.07719 6.07682C3.60287 5.55114 4.31459 5.25389 5.058 5.24954L5.06239 5.24951L7.49985 5.24952V3.55763C7.5042 2.81422 7.80146 2.1025 8.32714 1.57682C8.85282 1.05114 9.56454 0.753892 10.308 0.749537L10.3123 0.749512L14.7196 0.749525ZM13.875 2.24952H10.3148C9.96686 2.25207 9.63387 2.39141 9.3878 2.63748C9.14174 2.88355 9.0024 3.21654 8.99985 3.56446V5.24952H9.4754C9.72764 5.24991 9.97728 5.30049 10.2098 5.39833C10.4421 5.49609 10.6526 5.63907 10.8292 5.81896L15.9467 11.0233C16.3015 11.386 16.5 11.8733 16.4999 12.3806V17.2495H18.9866C19.6737 17.2495 20.2498 16.6811 20.2498 15.937V8.62452H15.9286C15.386 8.61805 14.8674 8.39957 14.4837 8.01585C14.1 7.63214 13.8815 7.11358 13.8751 6.57097L13.875 6.56202L13.875 2.24952ZM19.6842 7.12452H15.9429C15.7932 7.12182 15.6503 7.06114 15.5443 6.9552C15.4384 6.84925 15.3777 6.70635 15.375 6.55663V2.74229L19.6842 7.12452ZM8.62488 6.74952H5.06483C4.7169 6.75207 4.38391 6.89141 4.13785 7.13748C3.89178 7.38355 3.75244 7.71654 3.74989 8.06446V20.437C3.74989 21.1805 4.32551 21.7495 5.01552 21.7495H13.7366C14.4237 21.7495 14.9999 21.1811 14.9999 20.437V13.1245H10.6784C10.1358 13.118 9.61726 12.8996 9.23354 12.5159C8.84983 12.1321 8.6314 11.6136 8.62493 11.071L8.62483 11.062L8.62488 6.74952ZM14.4343 11.6245H10.6928C10.543 11.6218 10.4002 11.5611 10.2942 11.4552C10.1883 11.3492 10.1276 11.2064 10.1249 11.0566V7.24211L14.4343 11.6245Z" />
</svg>
