<svg width="200" height="200" viewBox="0 0 200 200" fill="none" xmlns="http://www.w3.org/2000/svg">
<rect width="200" height="200" fill="white"/>
<rect width="200" height="200" rx="20" fill="#F9634E"/>
<rect x="75.4269" y="156" width="49.1461" height="11" rx="5.5" stroke="white" stroke-width="4"/>
<rect x="75.4269" y="145" width="49.1461" height="11" rx="5.5" stroke="white" stroke-width="4"/>
<rect x="75.4269" y="134" width="49.1461" height="11" rx="5.5" stroke="white" stroke-width="4"/>
<path d="M85.4382 167H114.562V167C114.562 174.732 108.294 181 100.562 181H99.4382C91.7062 181 85.4382 174.732 85.4382 167V167Z" stroke="white" stroke-width="4"/>
<path fill-rule="evenodd" clip-rule="evenodd" d="M79.9775 134C79.9775 134 119.112 134 119.112 134C117.292 131.704 116.837 128.49 117.292 126.194C117.747 123.898 119.112 120.224 121.648 118.394C132.405 110.631 140.045 98.6746 140.045 84.408C140.045 62.0912 122.116 43.9999 100 43.9999C77.8838 43.9999 59.955 62.0912 59.955 84.408C59.955 98.6505 67.1544 111.375 78.29 118.368C82.7078 121.143 82.3791 124.867 82.7078 126.194C83.1629 128.03 82.2528 132.622 79.9775 134Z" stroke="white" stroke-width="4" stroke-linejoin="round"/>
<path fill-rule="evenodd" clip-rule="evenodd" d="M104.551 134L118.202 80.9035C118.202 80.9035 115.472 93.3696 107.281 93.3696C99.0899 93.3696 95.9349 86.198 95.4494 82.7503C94.9944 79.5184 97.8248 75.3551 101.82 77.6715C108.191 81.3652 100 90.5992 98.1798 91.9845C96.3595 93.3696 84.9831 97.9867 81.7977 80.9035C81.7977 80.9035 94.9944 134 94.9944 134H104.551Z" stroke="white" stroke-width="4" stroke-linejoin="round"/>
<path d="M134.584 119L147.455 132" stroke="white" stroke-width="4" stroke-linecap="round" stroke-linejoin="round"/>
<path d="M134.584 47.9999L147.455 34.9999" stroke="white" stroke-width="4" stroke-linecap="round" stroke-linejoin="round"/>
<path d="M52.6741 132L65.5451 119" stroke="white" stroke-width="4" stroke-linecap="round" stroke-linejoin="round"/>
<path d="M65.545 47.9999L52.6741 34.9999" stroke="white" stroke-width="4" stroke-linecap="round" stroke-linejoin="round"/>
<path d="M149.146 83.4645L167.348 83.5353" stroke="white" stroke-width="4" stroke-linecap="round" stroke-linejoin="round"/>
<path d="M100 36.9999L100.065 18.9999" stroke="white" stroke-width="4" stroke-linecap="round" stroke-linejoin="round"/>
<path d="M32.6516 83.4645L50.8538 83.5353" stroke="white" stroke-width="4" stroke-linecap="round" stroke-linejoin="round"/>
</svg>
