<svg width="200" height="200" viewBox="0 0 200 200" fill="none" xmlns="http://www.w3.org/2000/svg">
<rect width="200" height="200" fill="white"/>
<rect width="200" height="200" rx="20" fill="#F9634E"/>
<path fill-rule="evenodd" clip-rule="evenodd" d="M37.6573 159C41.9297 159 45.3932 155.642 45.3932 151.5C45.3932 147.358 41.9297 144 37.6573 144C33.3848 144 29.9213 147.358 29.9213 151.5C29.9213 155.642 33.3848 159 37.6573 159Z" stroke="white" stroke-width="4"/>
<path fill-rule="evenodd" clip-rule="evenodd" d="M18.0899 39.4088L68.1461 22V163.591L18.0899 181V39.4088Z" stroke="white" stroke-width="4" stroke-linejoin="round"/>
<path fill-rule="evenodd" clip-rule="evenodd" d="M120.022 39.4088L68.1461 22V163.591L120.022 181V39.4088Z" stroke="white" stroke-width="4" stroke-linejoin="round"/>
<path d="M162.249 25.3279L181.91 19V160.171L120.022 181" stroke="white" stroke-width="4" stroke-linejoin="round"/>
<path fill-rule="evenodd" clip-rule="evenodd" d="M148.755 82.5727C149.137 83.2222 150.066 83.2222 150.448 82.5727C154.203 76.1875 169.169 50.143 169.169 40.6514C169.169 29.7982 160.408 21 149.601 21C138.794 21 130.034 29.7982 130.034 40.6514C130.034 50.143 145 76.1875 148.755 82.5727Z" stroke="white" stroke-width="4"/>
<path fill-rule="evenodd" clip-rule="evenodd" d="M149.601 48C153.874 48 157.337 44.6421 157.337 40.5C157.337 36.3579 153.874 33 149.601 33C145.329 33 141.865 36.3579 141.865 40.5C141.865 44.6421 145.329 48 149.601 48Z" stroke="white" stroke-width="4"/>
<path d="M143.685 94L155.615 105" stroke="white" stroke-width="4" stroke-linecap="round" stroke-linejoin="round"/>
<path d="M155.615 94L143.685 105" stroke="white" stroke-width="4" stroke-linecap="round" stroke-linejoin="round"/>
<path d="M51.647 150.774V150.774C55.4815 150.774 58.5899 147.666 58.5899 143.831V73.1679C58.5899 59.268 69.8579 48 83.7577 48V48C97.6576 48 108.926 59.268 108.926 73.1679V135.461C108.926 146.804 118.121 156 129.465 156V156C140.808 156 150.004 146.804 150.004 135.461V109.548" stroke="white" stroke-width="4" stroke-linecap="round" stroke-linejoin="round" stroke-dasharray="10 20"/>
<path d="M120.022 40L130.489 36" stroke="white" stroke-width="4"/>
</svg>
