<svg width="200" height="200" viewBox="0 0 200 200" fill="none" xmlns="http://www.w3.org/2000/svg">
<rect width="200" height="200" fill="white"/>
<rect width="200" height="200" rx="20" fill="#F9634E"/>
<path fill-rule="evenodd" clip-rule="evenodd" d="M100 181C144.735 181 181 144.735 181 100C181 55.2649 144.735 19 100 19C55.2649 19 19 55.2649 19 100C19 144.735 55.2649 181 100 181Z" stroke="white" stroke-width="5"/>
<path d="M96.7452 123C98.4625 123 99.777 121.518 99.742 119.801C99.7356 119.487 99.7373 119.198 99.7511 118.961C100.717 102.254 124.576 96.681 124.576 77.9957C124.576 65.5508 115.216 56 99.52 56C87.7971 56 80.1152 63.0272 76.999 66.5525C76.0365 67.6415 76.205 69.2511 77.2663 70.244C78.525 71.4217 80.5373 71.2963 81.761 70.0822C85.025 66.8439 91.6294 61.4228 99.0881 61.6436C112.189 62.0315 118.096 69.4579 118.096 78.5745C118.096 94.5084 94.0217 100.74 93.8445 118.904C93.8404 119.318 93.8741 119.883 93.922 120.461C94.0424 121.916 95.2852 123 96.7452 123Z" fill="white" stroke="white" stroke-width="3" stroke-linejoin="round"/>
<path d="M97.2448 144C99.5985 144 101.795 142.357 101.795 139.5C101.795 136.571 99.5985 135 97.2448 135C94.891 135 92.6942 136.571 92.6942 139.5C92.6942 142.357 94.891 144 97.2448 144Z" fill="white" stroke="white" stroke-width="3"/>
</svg>
