<svg width="200" height="200" viewBox="0 0 200 200" fill="none" xmlns="http://www.w3.org/2000/svg">
<rect width="200" height="200" fill="white"/>
<rect width="200" height="200" rx="20" fill="#F9634E"/>
<path fill-rule="evenodd" clip-rule="evenodd" d="M100 181C144.735 181 181 144.735 181 100C181 55.2649 144.735 19 100 19C55.2649 19 19 55.2649 19 100C19 144.735 55.2649 181 100 181Z" stroke="white" stroke-width="5"/>
<path d="M100 64C102.648 64 104.551 62.2178 104.551 59.5446C104.551 56.8713 102.648 55 100 55C97.3524 55 95.4495 56.8713 95.4495 59.5446C95.4495 62.2178 97.3524 64 100 64Z" fill="white" stroke="white" stroke-width="2"/>
<path d="M113.472 145C114.576 145 115.472 144.105 115.472 143V140.524C115.472 139.419 114.576 138.524 113.472 138.524H105.438C104.334 138.524 103.438 137.628 103.438 136.524V79C103.438 77.8954 102.543 77 101.438 77H86.5281C85.4235 77 84.5281 77.8954 84.5281 79L84.5281 80.2716C84.5281 81.3762 85.4235 82.2716 86.5281 82.2716H94.1249C95.2295 82.2716 96.1249 83.167 96.1249 84.2716V136.524C96.1249 137.628 95.2295 138.524 94.1249 138.524H86.5281C85.4235 138.524 84.5281 139.419 84.5281 140.524L84.5281 143C84.5281 144.105 85.4235 145 86.5281 145H113.472Z" fill="white" stroke="white" stroke-width="2"/>
</svg>
