<svg viewBox="0 0 18 18" xmlns="http://www.w3.org/2000/svg">
    <path d="M2.93567 2.58625C3.12974 2.34366 3.48372 2.30433 3.7263 2.4984L6.5388 4.7484C6.67223 4.85515 6.74991 5.01676 6.74991 5.18764C6.74991 5.35852 6.67223 5.52013 6.5388 5.62688L3.7263 7.87688C3.48372 8.07094 3.12974 8.03161 2.93567 7.78903C2.7416 7.54644 2.78093 7.19247 3.02352 6.9984L5.28697 5.18764L3.02352 3.37688C2.78093 3.18281 2.7416 2.82883 2.93567 2.58625Z" />
    <path d="M6.74991 6.87404C6.43925 6.87404 6.18741 7.12588 6.18741 7.43654C6.18741 7.7472 6.43925 7.99904 6.74991 7.99904H8.99991C9.31057 7.99904 9.56241 7.7472 9.56241 7.43654C9.56241 7.12588 9.31057 6.87404 8.99991 6.87404H6.74991Z" />
    <path fill-rule="evenodd" clip-rule="evenodd" d="M0.5625 2.375C0.5625 1.13236 1.56986 0.125 2.8125 0.125H15.1875C16.4301 0.125 17.4375 1.13236 17.4375 2.375V13.625C17.4375 14.8676 16.4301 15.875 15.1875 15.875H2.8125C1.56986 15.875 0.5625 14.8676 0.5625 13.625V2.375ZM2.8125 1.25C2.19118 1.25 1.6875 1.75368 1.6875 2.375V13.625C1.6875 14.2463 2.19118 14.75 2.8125 14.75H15.1875C15.8088 14.75 16.3125 14.2463 16.3125 13.625V2.375C16.3125 1.75368 15.8088 1.25 15.1875 1.25H2.8125Z" />
</svg>
