<svg viewBox="0 0 24 24" fill="none" xmlns="http://www.w3.org/2000/svg">
    <path fill-rule="evenodd" clip-rule="evenodd" d="M12.75 1.4978C12.4659 1.4978 12.2062 1.6583 12.0792 1.91239C12.0108 2.04918 11.8234 2.34644 11.5244 2.79386C11.3055 3.12136 11.0444 3.50367 10.759 3.92164L10.478 4.33328C9.69546 5.48096 8.78873 6.8256 8.16299 7.90934C7.54904 8.97266 7.13818 9.72961 6.87941 10.2238C6.75002 10.4709 6.65859 10.6524 6.59877 10.7737C6.56886 10.8344 6.54684 10.88 6.53193 10.9113C6.46549 11.0091 6.37679 11.0913 6.27346 11.1494C6.16055 11.2129 6.03337 11.2468 5.90383 11.2478H4.5C3.50544 11.2478 2.55161 11.6429 1.84835 12.3461C1.14509 13.0494 0.75 14.0032 0.75 14.9978V17.2478C0.75 18.2424 1.14509 19.1962 1.84835 19.8994C2.55161 20.6027 3.50544 20.9978 4.5 20.9978H7.25882C8.32926 21.7538 9.6806 22.4978 12 22.4978C13.1548 22.4978 13.9416 22.4276 14.4521 22.3531C14.7076 22.3158 14.8948 22.2772 15.025 22.2456C15.0301 22.2443 15.0352 22.2431 15.0402 22.2418C15.2474 22.2994 15.4642 22.3352 15.6844 22.3545L15.6996 22.3559L18.7148 22.4972L18.752 22.498C19.3476 22.4963 19.9184 22.259 20.3396 21.8378C20.7608 21.4166 20.9982 20.8458 20.9999 20.2501V20.2459C20.9991 19.9599 20.9439 19.6797 20.8402 19.419C21.2149 19.3165 21.5602 19.118 21.8396 18.8386C22.2608 18.4174 22.4982 17.8466 22.4999 17.2509V17.2467C22.4988 16.8567 22.3966 16.4773 22.208 16.1436C22.3449 16.0563 22.4729 15.9538 22.5895 15.8372C23.0106 15.4161 23.248 14.8455 23.2499 14.2499V14.2452C23.248 13.6497 23.0106 13.0791 22.5895 12.658C22.3062 12.3747 21.9552 12.1745 21.5745 12.0733C21.6877 11.8038 21.7483 11.5122 21.7499 11.2143V11.2024C21.7499 10.0405 20.8247 8.89363 19.5581 8.85943L13.8342 8.40862C13.9242 7.81909 14.0884 7.27662 14.2899 6.72407C14.3928 6.44207 14.5031 6.16358 14.6187 5.87158L14.6615 5.76349C14.7912 5.43559 14.9258 5.09186 15.0516 4.73201C15.3241 3.9536 15.2771 3.1343 14.8326 2.48873C14.3837 1.83691 13.6234 1.4978 12.75 1.4978ZM13.928 9.92066L13.3908 9.87835C12.9116 9.86071 12.6257 9.51602 12.5072 9.3201C12.3728 9.098 12.2762 8.79289 12.3113 8.48236L12.3114 8.48113C12.4086 7.63333 12.6306 6.89569 12.8808 6.20997C12.9911 5.90748 13.1093 5.6092 13.224 5.31955L13.2666 5.21182C13.396 4.88475 13.5208 4.56549 13.6358 4.23658C13.7852 3.80983 13.7151 3.51076 13.5971 3.33942C13.5202 3.22778 13.3822 3.11093 13.1506 3.04695C13.0403 3.22219 12.9104 3.4195 12.7715 3.62733C12.5481 3.96169 12.2808 4.35298 11.9942 4.7727L11.7173 5.1783C10.9295 6.3337 10.055 7.63234 9.462 8.65938C8.85721 9.70685 8.45643 10.4457 8.20824 10.9196C8.08416 11.1566 7.99828 11.3272 7.94416 11.437C7.9171 11.4918 7.898 11.5315 7.88603 11.5566L7.87334 11.5834L7.87083 11.5888C7.8583 11.6161 7.8439 11.6431 7.8281 11.6688C7.62644 11.9967 7.34454 12.2679 7.00901 12.4567C6.67348 12.6455 6.29538 12.7457 5.91039 12.7478L5.90625 12.7478H4.5C3.90326 12.7478 3.33097 12.9849 2.90901 13.4068C2.48705 13.8288 2.25 14.4011 2.25 14.9978V17.2478C2.25 17.8445 2.48705 18.4168 2.90901 18.8388C3.33097 19.2607 3.90326 19.4978 4.5 19.4978H7.5C7.6585 19.4978 7.81294 19.548 7.94113 19.6412C8.90033 20.3388 9.96612 20.9978 12 20.9978C12.669 20.9978 13.1954 20.9729 13.6012 20.9394C13.5321 20.7208 13.4999 20.4879 13.4999 20.248C13.4999 19.6371 13.737 19.1246 14.11 18.7527C13.7138 18.3629 13.4999 17.8353 13.4999 17.2488C13.4999 16.658 13.7169 16.1311 14.1175 15.743C13.7418 15.3797 13.4999 14.8747 13.4999 14.2476C13.4999 13.6037 13.7532 13.0958 14.1407 12.7347L14.14 12.734C13.7104 12.338 13.4999 11.799 13.4999 11.2024C13.4999 10.6856 13.6631 10.2565 13.928 9.92066ZM19.5144 10.3589L15.7932 10.5449C15.2238 10.5833 14.9999 10.887 14.9999 11.2024C14.9999 11.4308 15.0706 11.5518 15.1566 11.6311C15.2559 11.7226 15.45 11.8242 15.7954 11.8595L19.5076 11.9524C19.7031 11.9503 19.8901 11.8721 20.0288 11.7341C20.169 11.5947 20.2484 11.4056 20.2499 11.208V11.2024C20.2499 10.7385 19.8643 10.3689 19.5144 10.3589ZM21.0041 14.9975C21.201 14.9952 21.3894 14.916 21.5288 14.7765C21.6692 14.6361 21.7486 14.4461 21.7499 14.2476C21.7486 14.0491 21.6692 13.859 21.5288 13.7186C21.3894 13.5792 21.201 13.4999 21.0041 13.4976L15.7819 13.5909C15.2215 13.6315 14.9999 13.9332 14.9999 14.2476C14.9999 14.5715 15.2327 14.8754 15.7751 14.9042L21.0041 14.9975ZM19.279 20.7771C19.1417 20.9144 18.9569 20.9933 18.7632 20.9978L15.8011 20.859C15.4059 20.8224 15.2158 20.722 15.1315 20.6464C15.0689 20.5903 14.9999 20.4926 14.9999 20.248C14.9999 19.8994 15.274 19.5918 15.7499 19.5918H15.7616L18.7584 19.4981C18.9538 19.5014 19.1405 19.5805 19.279 19.7189C19.4194 19.8593 19.4988 20.0495 19.4999 20.248C19.4988 20.4466 19.4194 20.6367 19.279 20.7771ZM20.9999 17.2488C20.9988 17.0503 20.9194 16.8601 20.779 16.7197C20.6398 16.5805 20.4518 16.5013 20.2551 16.4989L15.7819 16.592C15.4768 16.6131 15.2818 16.7096 15.1726 16.8096C15.0724 16.9014 14.9999 17.0348 14.9999 17.2488C14.9999 17.4645 15.0737 17.6023 15.1747 17.6956C15.2833 17.7958 15.4757 17.8907 15.7751 17.9054L20.2551 17.9987C20.4518 17.9963 20.6398 17.9171 20.779 17.7779C20.9194 17.6375 20.9988 17.4473 20.9999 17.2488Z" />
</svg>
