<svg width="805" height="83" viewBox="0 0 805 83" fill="none" xmlns="http://www.w3.org/2000/svg">
<g clip-path="url(#clip0)">
<path fill-rule="evenodd" clip-rule="evenodd" d="M44 21.2957V68.3691L102 21.2957V68.3691L44 21.2957Z" fill="#FF4329"/>
<path d="M112.398 65V22.1H127.842C130.086 22.1 132.198 22.276 134.178 22.628C136.158 22.936 137.874 23.486 139.326 24.278C140.778 25.07 141.922 26.17 142.758 27.578C143.638 28.942 144.078 30.68 144.078 32.792C144.078 33.716 143.946 34.662 143.682 35.63C143.418 36.554 143.044 37.456 142.56 38.336C142.12 39.172 141.57 39.92 140.91 40.58C140.25 41.24 139.502 41.724 138.666 42.032V42.296C140.734 42.912 142.472 44.034 143.88 45.662C145.332 47.246 146.058 49.468 146.058 52.328C146.058 54.528 145.596 56.442 144.672 58.07C143.792 59.654 142.582 60.974 141.042 62.03C139.546 63.042 137.764 63.79 135.696 64.274C133.628 64.758 131.45 65 129.162 65H112.398ZM123.75 38.864H127.578C129.426 38.864 130.79 38.468 131.67 37.676C132.55 36.884 132.99 35.828 132.99 34.508C132.99 33.188 132.55 32.242 131.67 31.67C130.79 31.098 129.426 30.812 127.578 30.812H123.75V38.864ZM123.75 56.288H128.37C132.77 56.288 134.97 54.704 134.97 51.536C134.97 49.952 134.42 48.83 133.32 48.17C132.264 47.51 130.614 47.18 128.37 47.18H123.75V56.288ZM163.898 44.144L163.172 47.114H171.092L170.366 44.144C169.838 42.076 169.31 39.832 168.782 37.412C168.254 34.992 167.726 32.704 167.198 30.548H166.934C166.45 32.748 165.944 35.058 165.416 37.478C164.932 39.854 164.426 42.076 163.898 44.144ZM147.398 65L160.466 22.1H174.194L187.262 65H175.25L173.138 55.892H161.126L159.014 65H147.398ZM204.949 65.792C202.221 65.792 199.405 65.308 196.501 64.34C193.641 63.328 191.045 61.766 188.713 59.654L195.181 51.866C196.721 53.098 198.371 54.11 200.131 54.902C201.935 55.65 203.629 56.024 205.213 56.024C206.929 56.024 208.161 55.76 208.909 55.232C209.701 54.704 210.097 53.956 210.097 52.988C210.097 52.46 209.965 52.02 209.701 51.668C209.437 51.316 209.041 50.986 208.513 50.678C208.029 50.37 207.435 50.084 206.731 49.82C206.027 49.512 205.213 49.182 204.289 48.83L198.943 46.586C197.799 46.146 196.699 45.574 195.643 44.87C194.587 44.122 193.663 43.264 192.871 42.296C192.079 41.284 191.441 40.14 190.957 38.864C190.517 37.588 190.297 36.18 190.297 34.64C190.297 32.792 190.693 31.076 191.485 29.492C192.277 27.864 193.377 26.456 194.785 25.268C196.193 24.036 197.865 23.068 199.801 22.364C201.781 21.66 203.937 21.308 206.269 21.308C208.733 21.308 211.219 21.77 213.727 22.694C216.279 23.618 218.545 25.07 220.525 27.05L214.849 34.178C213.397 33.166 211.989 32.396 210.625 31.868C209.305 31.34 207.853 31.076 206.269 31.076C204.861 31.076 203.761 31.318 202.969 31.802C202.177 32.286 201.781 33.012 201.781 33.98C201.781 34.992 202.331 35.784 203.431 36.356C204.575 36.884 206.137 37.522 208.117 38.27L213.331 40.316C216.015 41.372 218.083 42.846 219.535 44.738C220.987 46.63 221.713 49.072 221.713 52.064C221.713 53.868 221.339 55.606 220.591 57.278C219.843 58.95 218.743 60.424 217.291 61.7C215.883 62.932 214.145 63.922 212.077 64.67C210.009 65.418 207.633 65.792 204.949 65.792ZM240.913 65.792C238.185 65.792 235.369 65.308 232.465 64.34C229.605 63.328 227.009 61.766 224.677 59.654L231.145 51.866C232.685 53.098 234.335 54.11 236.095 54.902C237.899 55.65 239.593 56.024 241.177 56.024C242.893 56.024 244.125 55.76 244.873 55.232C245.665 54.704 246.061 53.956 246.061 52.988C246.061 52.46 245.929 52.02 245.665 51.668C245.401 51.316 245.005 50.986 244.477 50.678C243.993 50.37 243.399 50.084 242.695 49.82C241.991 49.512 241.177 49.182 240.253 48.83L234.907 46.586C233.763 46.146 232.663 45.574 231.607 44.87C230.551 44.122 229.627 43.264 228.835 42.296C228.043 41.284 227.405 40.14 226.921 38.864C226.481 37.588 226.261 36.18 226.261 34.64C226.261 32.792 226.657 31.076 227.449 29.492C228.241 27.864 229.341 26.456 230.749 25.268C232.157 24.036 233.829 23.068 235.765 22.364C237.745 21.66 239.901 21.308 242.233 21.308C244.697 21.308 247.183 21.77 249.691 22.694C252.243 23.618 254.509 25.07 256.489 27.05L250.813 34.178C249.361 33.166 247.953 32.396 246.589 31.868C245.269 31.34 243.817 31.076 242.233 31.076C240.825 31.076 239.725 31.318 238.933 31.802C238.141 32.286 237.745 33.012 237.745 33.98C237.745 34.992 238.295 35.784 239.395 36.356C240.539 36.884 242.101 37.522 244.081 38.27L249.295 40.316C251.979 41.372 254.047 42.846 255.499 44.738C256.951 46.63 257.677 49.072 257.677 52.064C257.677 53.868 257.303 55.606 256.555 57.278C255.807 58.95 254.707 60.424 253.255 61.7C251.847 62.932 250.109 63.922 248.041 64.67C245.973 65.418 243.597 65.792 240.913 65.792ZM275.659 44.144L274.933 47.114H282.853L282.127 44.144C281.599 42.076 281.071 39.832 280.543 37.412C280.015 34.992 279.487 32.704 278.959 30.548H278.695C278.211 32.748 277.705 35.058 277.177 37.478C276.693 39.854 276.187 42.076 275.659 44.144ZM259.159 65L272.227 22.1H285.955L299.023 65H287.011L284.899 55.892H272.887L270.775 65H259.159ZM303.114 65V22.1H315.786C319.042 22.1 322.012 22.496 324.696 23.288C327.424 24.08 329.756 25.334 331.692 27.05C333.628 28.766 335.124 30.966 336.18 33.65C337.28 36.334 337.83 39.568 337.83 43.352C337.83 47.136 337.302 50.392 336.246 53.12C335.19 55.848 333.694 58.092 331.758 59.852C329.866 61.612 327.6 62.91 324.96 63.746C322.364 64.582 319.526 65 316.446 65H303.114ZM314.466 55.892H315.126C316.666 55.892 318.118 55.716 319.482 55.364C320.846 54.968 322.012 54.308 322.98 53.384C323.992 52.46 324.784 51.184 325.356 49.556C325.928 47.928 326.214 45.86 326.214 43.352C326.214 40.844 325.928 38.798 325.356 37.214C324.784 35.63 323.992 34.398 322.98 33.518C322.012 32.638 320.846 32.044 319.482 31.736C318.118 31.384 316.666 31.208 315.126 31.208H314.466V55.892ZM363.544 65.792C360.552 65.792 357.824 65.286 355.36 64.274C352.94 63.262 350.85 61.81 349.09 59.918C347.374 57.982 346.032 55.628 345.064 52.856C344.096 50.04 343.612 46.872 343.612 43.352C343.612 39.832 344.096 36.708 345.064 33.98C346.032 31.208 347.374 28.898 349.09 27.05C350.85 25.158 352.94 23.728 355.36 22.76C357.824 21.792 360.552 21.308 363.544 21.308C366.492 21.308 369.198 21.792 371.662 22.76C374.126 23.728 376.216 25.158 377.932 27.05C379.692 28.942 381.056 31.252 382.024 33.98C382.992 36.708 383.476 39.832 383.476 43.352C383.476 46.872 382.992 50.04 382.024 52.856C381.056 55.628 379.692 57.982 377.932 59.918C376.216 61.81 374.126 63.262 371.662 64.274C369.198 65.286 366.492 65.792 363.544 65.792ZM363.544 56.024C366.14 56.024 368.164 54.902 369.616 52.658C371.112 50.37 371.86 47.268 371.86 43.352C371.86 39.436 371.112 36.422 369.616 34.31C368.164 32.154 366.14 31.076 363.544 31.076C360.948 31.076 358.902 32.154 357.406 34.31C355.954 36.422 355.228 39.436 355.228 43.352C355.228 47.268 355.954 50.37 357.406 52.658C358.902 54.902 360.948 56.024 363.544 56.024ZM391.157 65V22.1H407.393C409.681 22.1 411.859 22.32 413.927 22.76C416.039 23.2 417.865 23.948 419.405 25.004C420.989 26.06 422.243 27.49 423.167 29.294C424.091 31.054 424.553 33.276 424.553 35.96C424.553 39.04 423.915 41.592 422.639 43.616C421.407 45.64 419.735 47.224 417.623 48.368L426.929 65H414.257L406.865 50.612H402.509V65H391.157ZM402.509 41.636H406.601C411.177 41.636 413.465 39.744 413.465 35.96C413.465 34.112 412.871 32.836 411.683 32.132C410.539 31.428 408.845 31.076 406.601 31.076H402.509V41.636ZM445.942 65V22.1H473.662V31.604H457.294V38.336H471.286V47.84H457.294V55.496H474.322V65H445.942ZM482.616 65V22.1H495.288C498.544 22.1 501.514 22.496 504.198 23.288C506.926 24.08 509.258 25.334 511.194 27.05C513.13 28.766 514.626 30.966 515.682 33.65C516.782 36.334 517.332 39.568 517.332 43.352C517.332 47.136 516.804 50.392 515.748 53.12C514.692 55.848 513.196 58.092 511.26 59.852C509.368 61.612 507.102 62.91 504.462 63.746C501.866 64.582 499.028 65 495.948 65H482.616ZM493.968 55.892H494.628C496.168 55.892 497.62 55.716 498.984 55.364C500.348 54.968 501.514 54.308 502.482 53.384C503.494 52.46 504.286 51.184 504.858 49.556C505.43 47.928 505.716 45.86 505.716 43.352C505.716 40.844 505.43 38.798 504.858 37.214C504.286 35.63 503.494 34.398 502.482 33.518C501.514 32.638 500.348 32.044 498.984 31.736C497.62 31.384 496.168 31.208 494.628 31.208H493.968V55.892ZM544.762 65.792C541.77 65.792 538.954 65.352 536.314 64.472C533.674 63.548 531.364 62.184 529.384 60.38C527.448 58.532 525.908 56.244 524.764 53.516C523.664 50.744 523.114 47.532 523.114 43.88C523.114 40.272 523.686 37.082 524.83 34.31C525.974 31.494 527.514 29.14 529.45 27.248C531.43 25.312 533.718 23.838 536.314 22.826C538.91 21.814 541.638 21.308 544.498 21.308C547.666 21.308 550.394 21.88 552.682 23.024C555.014 24.124 556.95 25.444 558.49 26.984L552.55 34.244C551.494 33.32 550.372 32.572 549.184 32C548.04 31.384 546.61 31.076 544.894 31.076C543.442 31.076 542.1 31.362 540.868 31.934C539.636 32.506 538.558 33.32 537.634 34.376C536.71 35.432 535.984 36.73 535.456 38.27C534.972 39.81 534.73 41.548 534.73 43.484C534.73 47.532 535.632 50.634 537.436 52.79C539.24 54.946 542.078 56.024 545.95 56.024C546.566 56.024 547.16 55.958 547.732 55.826C548.348 55.694 548.854 55.496 549.25 55.232V49.292H542.914V40.052H559.282V60.512C557.742 61.964 555.696 63.218 553.144 64.274C550.592 65.286 547.798 65.792 544.762 65.792ZM567.63 65V22.1H595.35V31.604H578.982V38.336H592.974V47.84H578.982V55.496H596.01V65H567.63ZM631.113 65.792C628.385 65.792 625.569 65.308 622.665 64.34C619.805 63.328 617.209 61.766 614.877 59.654L621.345 51.866C622.885 53.098 624.535 54.11 626.295 54.902C628.099 55.65 629.793 56.024 631.377 56.024C633.093 56.024 634.325 55.76 635.073 55.232C635.865 54.704 636.261 53.956 636.261 52.988C636.261 52.46 636.129 52.02 635.865 51.668C635.601 51.316 635.205 50.986 634.677 50.678C634.193 50.37 633.599 50.084 632.895 49.82C632.191 49.512 631.377 49.182 630.453 48.83L625.107 46.586C623.963 46.146 622.863 45.574 621.807 44.87C620.751 44.122 619.827 43.264 619.035 42.296C618.243 41.284 617.605 40.14 617.121 38.864C616.681 37.588 616.461 36.18 616.461 34.64C616.461 32.792 616.857 31.076 617.649 29.492C618.441 27.864 619.541 26.456 620.949 25.268C622.357 24.036 624.029 23.068 625.965 22.364C627.945 21.66 630.101 21.308 632.433 21.308C634.897 21.308 637.383 21.77 639.891 22.694C642.443 23.618 644.709 25.07 646.689 27.05L641.013 34.178C639.561 33.166 638.153 32.396 636.789 31.868C635.469 31.34 634.017 31.076 632.433 31.076C631.025 31.076 629.925 31.318 629.133 31.802C628.341 32.286 627.945 33.012 627.945 33.98C627.945 34.992 628.495 35.784 629.595 36.356C630.739 36.884 632.301 37.522 634.281 38.27L639.495 40.316C642.179 41.372 644.247 42.846 645.699 44.738C647.151 46.63 647.877 49.072 647.877 52.064C647.877 53.868 647.503 55.606 646.755 57.278C646.007 58.95 644.907 60.424 643.455 61.7C642.047 62.932 640.309 63.922 638.241 64.67C636.173 65.418 633.797 65.792 631.113 65.792ZM661.665 65V31.604H650.313V22.1H684.369V31.604H673.017V65H661.665ZM699.181 44.144L698.455 47.114H706.375L705.649 44.144C705.121 42.076 704.593 39.832 704.065 37.412C703.537 34.992 703.009 32.704 702.481 30.548H702.217C701.733 32.748 701.227 35.058 700.699 37.478C700.215 39.854 699.709 42.076 699.181 44.144ZM682.681 65L695.749 22.1H709.477L722.545 65H710.533L708.421 55.892H696.409L694.297 65H682.681ZM744.603 65.792C741.875 65.792 739.257 65.352 736.749 64.472C734.285 63.548 732.107 62.184 730.215 60.38C728.367 58.532 726.893 56.244 725.793 53.516C724.693 50.744 724.143 47.532 724.143 43.88C724.143 40.272 724.715 37.082 725.859 34.31C727.003 31.494 728.521 29.14 730.413 27.248C732.349 25.312 734.549 23.838 737.013 22.826C739.521 21.814 742.139 21.308 744.867 21.308C747.727 21.308 750.279 21.88 752.523 23.024C754.767 24.124 756.659 25.444 758.199 26.984L752.259 34.244C751.203 33.32 750.103 32.572 748.959 32C747.859 31.384 746.583 31.076 745.131 31.076C743.855 31.076 742.645 31.362 741.501 31.934C740.401 32.506 739.411 33.32 738.531 34.376C737.695 35.432 737.013 36.73 736.485 38.27C736.001 39.81 735.759 41.548 735.759 43.484C735.759 47.532 736.595 50.634 738.267 52.79C739.983 54.946 742.227 56.024 744.999 56.024C746.671 56.024 748.145 55.672 749.421 54.968C750.741 54.22 751.863 53.34 752.787 52.328L758.727 59.456C756.879 61.568 754.745 63.152 752.325 64.208C749.949 65.264 747.375 65.792 744.603 65.792ZM764.663 65V22.1H776.015V38.072H776.279L787.103 22.1H799.511L786.707 39.524L802.019 65H789.611L780.107 48.5L776.015 54.308V65H764.663Z" fill="white"/>
<path d="M16.0685 44.144L15.3425 47.114H23.2625L22.5365 44.144C22.0085 42.076 21.4805 39.832 20.9525 37.412C20.4245 34.992 19.8965 32.704 19.3685 30.548H19.1045C18.6205 32.748 18.1145 35.058 17.5865 37.478C17.1025 39.854 16.5965 42.076 16.0685 44.144ZM-0.431484 65L12.6365 22.1H26.3645L39.4325 65H27.4205L25.3085 55.892H13.2965L11.1845 65H-0.431484Z" fill="white"/>
</g>
<defs>
<clipPath id="clip0">
<rect width="805" height="83" fill="white"/>
</clipPath>
</defs>
</svg>
