<svg width="161" height="162" viewBox="0 0 161 162" fill="none" xmlns="http://www.w3.org/2000/svg">
<path fill-rule="evenodd" clip-rule="evenodd" d="M32 107.667L53.3333 129C53.3333 129 101.801 112.129 129.032 79.4516C155.134 48.1295 160 1 160 1C160 1 110.452 7.88172 80.172 33.3441C53.3333 53.9892 32 107.667 32 107.667Z" fill="white" stroke="#5F3EFF"/>
<path fill-rule="evenodd" clip-rule="evenodd" d="M77 119L82.4468 152C82.4468 152 90.4038 146.856 94.0213 141.675C102.191 129.974 107.201 116.275 109 99C94.7021 110.013 77 119 77 119Z" fill="white" stroke="#2D9CDB"/>
<path fill-rule="evenodd" clip-rule="evenodd" d="M42.539 84L9.5 78.5532C9.5 78.5532 14.6437 70.5962 19.8247 66.9787C31.526 58.8085 44.7246 53.7988 62 52C50.987 66.2979 42.539 84 42.539 84Z" fill="white" stroke="#2D9CDB"/>
<path fill-rule="evenodd" clip-rule="evenodd" d="M24.1397 126L35 136.98C35 136.98 32.4356 149.521 26.8548 154.137C21.257 158.768 9.55476 160.313 4.0479 160.796C2.39985 160.94 1.02146 159.666 1.06629 158.013C1.20952 152.728 2.13704 141.715 7.1706 135.608C14.3505 126.897 24.1397 126 24.1397 126Z" fill="white" stroke="#FE4328"/>
<path fill-rule="evenodd" clip-rule="evenodd" d="M106.5 70C114.508 70 121 63.5081 121 55.5C121 47.4919 114.508 41 106.5 41C98.4919 41 92 47.4919 92 55.5C92 63.5081 98.4919 70 106.5 70Z" fill="white" stroke="#222222"/>
</svg>
