<svg width="953" height="614" viewBox="0 0 953 614" fill="none" xmlns="http://www.w3.org/2000/svg">
<g opacity="0.573451" filter="url(#filter0_f)">
<path fill-rule="evenodd" clip-rule="evenodd" d="M26.69 290.068C14.5181 297.458 14.4995 315.116 26.6558 322.53L494.616 607.971C500.687 611.674 508.317 611.677 514.391 607.979L1009 306.853L514.364 5.9997C508.304 2.31351 500.694 2.31029 494.631 5.99137L26.69 290.068Z" fill="url(#paint0_linear)"/>
</g>
<path fill-rule="evenodd" clip-rule="evenodd" d="M374 225.632V278.129C374 280.996 375.534 283.644 378.021 285.07L486.76 347.412C493.387 351.211 501.554 351.112 508.087 347.154L608.583 286.267C612.172 284.093 614.364 280.201 614.364 276.004V225.632L494.182 175.962L374 225.632Z" fill="url(#paint1_linear)"/>
<path fill-rule="evenodd" clip-rule="evenodd" d="M375.286 220.051C370.557 222.747 370.579 229.572 375.327 232.237L492.254 297.866C495.692 299.795 499.898 299.738 503.282 297.716L613 232.142C617.528 229.436 617.55 222.886 613.041 220.149L503.344 153.572C499.929 151.499 495.659 151.441 492.189 153.419L375.286 220.051Z" fill="#5630EB"/>
<g filter="url(#filter1_f)">
<path fill-rule="evenodd" clip-rule="evenodd" d="M427.923 219.828C423.193 222.523 423.216 229.349 427.963 232.013L490.476 267.1C493.913 269.03 498.119 268.972 501.503 266.95L560.118 231.919C564.646 229.213 564.668 222.662 560.159 219.926L501.565 184.364C498.15 182.291 493.881 182.233 490.411 184.211L427.923 219.828Z" fill="#6C52DA" style="mix-blend-mode:lighten"/>
</g>
<g filter="url(#filter2_f)">
<path fill-rule="evenodd" clip-rule="evenodd" d="M416.299 219.567C411.57 222.263 411.592 229.088 416.339 231.753L490.801 273.546C494.238 275.475 498.445 275.418 501.828 273.396L571.665 231.658C576.192 228.952 576.215 222.402 571.706 219.665L501.89 177.292C498.476 175.22 494.206 175.161 490.736 177.139L416.299 219.567Z" fill="#7D60F4" style="mix-blend-mode:lighten"/>
</g>
<path fill-rule="evenodd" clip-rule="evenodd" d="M527 312.584V365.081C527 367.948 528.534 370.596 531.021 372.021L639.76 434.363C646.387 438.162 654.554 438.064 661.087 434.106L761.583 373.219C765.172 371.044 767.364 367.153 767.364 362.956V312.584L647.182 262.914L527 312.584Z" fill="url(#paint2_linear)"/>
<path fill-rule="evenodd" clip-rule="evenodd" d="M528.286 307.003C523.557 309.699 523.579 316.525 528.327 319.189L645.254 384.818C648.692 386.747 652.898 386.69 656.282 384.668L766 319.094C770.528 316.389 770.55 309.838 766.041 307.102L656.344 240.524C652.929 238.451 648.659 238.393 645.189 240.371L528.286 307.003Z" fill="#5630EB"/>
<g filter="url(#filter3_f)">
<path fill-rule="evenodd" clip-rule="evenodd" d="M580.923 306.78C576.193 309.476 576.216 316.301 580.963 318.966L643.476 354.052C646.913 355.982 651.119 355.924 654.503 353.902L713.118 318.871C717.646 316.165 717.668 309.614 713.159 306.878L654.565 271.316C651.15 269.244 646.881 269.185 643.411 271.163L580.923 306.78Z" fill="#6C52DA" style="mix-blend-mode:lighten"/>
</g>
<g filter="url(#filter4_f)">
<path fill-rule="evenodd" clip-rule="evenodd" d="M569.299 306.519C564.57 309.214 564.592 316.04 569.339 318.704L643.801 360.498C647.238 362.427 651.445 362.37 654.828 360.348L724.665 318.61C729.192 315.904 729.215 309.353 724.706 306.617L654.89 264.244C651.476 262.172 647.206 262.113 643.736 264.091L569.299 306.519Z" fill="#7D60F4" style="mix-blend-mode:lighten"/>
</g>
<path fill-rule="evenodd" clip-rule="evenodd" d="M223 316.582V369.079C223 371.946 224.534 374.594 227.021 376.019L335.76 438.361C342.387 442.16 350.554 442.062 357.087 438.104L457.583 377.217C461.172 375.042 463.364 371.151 463.364 366.954V316.582L343.182 266.912L223 316.582Z" fill="url(#paint3_linear)"/>
<path fill-rule="evenodd" clip-rule="evenodd" d="M224.286 311.001C219.557 313.697 219.579 320.523 224.327 323.187L341.254 388.816C344.692 390.745 348.898 390.688 352.282 388.666L462 323.092C466.528 320.387 466.55 313.836 462.041 311.1L352.344 244.522C348.929 242.449 344.659 242.391 341.189 244.369L224.286 311.001Z" fill="#5630EB"/>
<g filter="url(#filter5_f)">
<path fill-rule="evenodd" clip-rule="evenodd" d="M276.923 310.778C272.193 313.474 272.216 320.299 276.963 322.964L339.476 358.051C342.913 359.98 347.119 359.922 350.503 357.9L409.118 322.869C413.646 320.163 413.668 313.613 409.159 310.876L350.565 275.314C347.15 273.242 342.881 273.183 339.41 275.161L276.923 310.778Z" fill="#6C52DA" style="mix-blend-mode:lighten"/>
</g>
<g filter="url(#filter6_f)">
<path fill-rule="evenodd" clip-rule="evenodd" d="M265.299 310.517C260.57 313.212 260.592 320.038 265.339 322.702L339.801 364.496C343.238 366.425 347.445 366.368 350.828 364.346L420.665 322.608C425.192 319.902 425.215 313.351 420.706 310.615L350.89 268.242C347.476 266.17 343.206 266.111 339.736 268.089L265.299 310.517Z" fill="#7D60F4" style="mix-blend-mode:lighten"/>
</g>
<path fill-rule="evenodd" clip-rule="evenodd" d="M375 402.535V455.032C375 457.899 376.534 460.547 379.021 461.973L487.76 524.314C494.387 528.114 502.554 528.015 509.087 524.057L609.583 463.17C613.172 460.996 615.364 457.104 615.364 452.907V402.535L495.182 352.865L375 402.535Z" fill="url(#paint4_linear)"/>
<path fill-rule="evenodd" clip-rule="evenodd" d="M376.286 396.954C371.557 399.65 371.579 406.475 376.327 409.14L493.254 474.769C496.692 476.698 500.898 476.64 504.282 474.618L614 409.045C618.528 406.339 618.55 399.789 614.041 397.052L504.344 330.475C500.929 328.402 496.659 328.344 493.189 330.321L376.286 396.954Z" fill="#5630EB"/>
<g filter="url(#filter7_f)">
<path fill-rule="evenodd" clip-rule="evenodd" d="M428.923 396.73C424.193 399.426 424.216 406.251 428.963 408.916L491.476 444.003C494.913 445.932 499.119 445.875 502.503 443.853L561.118 408.821C565.646 406.115 565.668 399.565 561.159 396.828L502.565 361.266C499.15 359.194 494.881 359.135 491.411 361.113L428.923 396.73Z" fill="#6C52DA" style="mix-blend-mode:lighten"/>
</g>
<g filter="url(#filter8_f)">
<path fill-rule="evenodd" clip-rule="evenodd" d="M417.299 396.47C412.57 399.165 412.592 405.991 417.339 408.655L491.801 450.449C495.238 452.378 499.445 452.321 502.828 450.299L572.665 408.561C577.192 405.855 577.215 399.304 572.706 396.568L502.89 354.195C499.476 352.123 495.206 352.064 491.736 354.042L417.299 396.47Z" fill="#7D60F4" style="mix-blend-mode:lighten"/>
</g>
<g filter="url(#filter9_d)">
<path fill-rule="evenodd" clip-rule="evenodd" d="M379 147.097C379 149.234 380.136 151.209 381.983 152.283L639.421 302.05C648.113 307.107 658.849 307.114 667.547 302.07L771.216 241.953C773.067 240.88 774.206 238.902 774.206 236.763V191.633L508.117 88.6941C503.535 86.9214 498.567 86.3857 493.712 87.1406L379 104.979V147.097Z" fill="url(#paint5_linear)"/>
<path fill-rule="evenodd" clip-rule="evenodd" d="M380.37 98.4423C375.681 101.118 375.659 107.87 380.329 110.578L638.553 260.267C647.297 265.336 658.095 265.299 666.804 260.169L772.87 197.704C777.487 194.985 777.462 188.298 772.824 185.614L516.083 37.0035C507.459 32.0117 496.832 31.9792 488.178 36.9181L380.37 98.4423Z" fill="url(#paint6_radial)"/>
<path d="M720.029 228.152L683.167 205.829C680.708 204.339 680.576 200.819 682.918 199.15L692.143 192.574C694.415 190.954 694.373 187.565 692.061 186.003L679.047 177.206" stroke="url(#paint7_radial)" stroke-linecap="round"/>
<path d="M575.162 222.857L614.013 196.833" stroke="url(#paint8_radial)" stroke-linecap="round" stroke-linejoin="round"/>
<path d="M475.141 165.204L510.079 144.126C513.507 142.058 517.787 142.016 521.255 144.015L532.294 150.378C535.662 152.32 539.805 152.34 543.191 150.43L578.144 130.715C581.671 128.726 586.006 128.835 589.428 131L611.928 145.232" stroke="url(#paint9_radial)" stroke-linecap="round"/>
<path d="M414.4 129.642L491.055 82.4214C493.623 80.8391 493.582 77.091 490.98 75.5651L456.791 55.5195" stroke="url(#paint10_radial)" stroke-linecap="round"/>
<path d="M598.118 84.3057L565.694 105.927C562.543 108.027 558.476 108.168 555.188 106.291L516.682 84.3057" stroke="url(#paint11_radial)" stroke-linecap="round"/>
<path d="M708.795 147.112L690.34 159.396C687.193 161.491 683.133 161.632 679.848 159.759L671.242 154.855L664.505 151.015C660.347 148.646 655.18 148.973 651.354 151.847L627.184 170.01" stroke="url(#paint12_radial)" stroke-linecap="round"/>
</g>
<path d="M256 292.443L220.8 271.035C216.152 268.209 210.339 268.12 205.607 270.803L174.954 288.183C170.303 290.82 164.599 290.782 159.984 288.083L123 266.457" stroke="#98B4F0"/>
<g filter="url(#filter10_d)">
<path fill-rule="evenodd" clip-rule="evenodd" d="M213 243.044C213 245.181 214.136 247.156 215.983 248.231L473.421 397.998C482.113 403.054 492.849 403.062 501.547 398.017L605.216 337.9C607.067 336.827 608.206 334.849 608.206 332.71V287.58L342.117 184.641C337.535 182.869 332.567 182.333 327.712 183.088L213 200.926V243.044Z" fill="url(#paint13_linear)"/>
<path fill-rule="evenodd" clip-rule="evenodd" d="M214.37 194.39C209.681 197.065 209.659 203.818 214.329 206.525L472.553 356.214C481.297 361.283 492.095 361.246 500.804 356.117L606.87 293.651C611.487 290.932 611.462 284.245 606.824 281.561L350.083 132.951C341.459 127.959 330.832 127.926 322.178 132.865L214.37 194.39Z" fill="url(#paint14_radial)"/>
<path fill-rule="evenodd" clip-rule="evenodd" d="M406.616 165.9L382.017 181.254L467.91 231.18V255.903H442.439H423.936L293.623 181.254L361.776 139.993L406.616 165.9Z" fill="url(#paint15_linear)"/>
<path fill-rule="evenodd" clip-rule="evenodd" d="M489.901 242.893V267.408H445.383L467.395 280.741H511.779V255.917L489.901 242.893Z" fill="url(#paint16_linear)"/>
<path d="M447.754 339.879L485.423 316.481C491.239 312.868 498.654 313.097 504.236 317.06L531.934 336.728" stroke="#FF8738" stroke-width="2" stroke-linecap="round"/>
<path d="M517.707 325.686L569.874 293.752" stroke="#FF8738" stroke-width="2" stroke-linecap="round"/>
<path d="M224.856 212.141L257.4 191.658C264.739 187.039 264.542 176.276 257.039 171.928V171.928" stroke="#FF8738" stroke-width="2" stroke-linecap="round"/>
<path d="M237.358 205.39L296.376 239.982" stroke="#FF8738" stroke-width="2" stroke-linecap="round"/>
<path d="M416.763 286.466L475.782 321.058" stroke="#FF8738" stroke-width="2" stroke-linecap="round"/>
</g>
<path d="M301 417.374L265.385 438.618C262.808 440.155 262.778 443.875 265.328 445.454L294.048 463.24C297.225 465.208 297.199 469.84 293.999 471.772L242.802 502.675C238.061 505.537 232.127 505.553 227.37 502.717L177.833 473.185C173.235 470.444 167.524 470.361 162.848 472.968L120 496.856" stroke="#98B4F0"/>
<path d="M738 391.388L795.229 424.935C799.9 427.673 805.684 427.681 810.363 424.956L868 391.388" stroke="#98B4F0" stroke-linecap="round"/>
<path d="M847 405.381L933 454.354" stroke="#98B4F0"/>
<path d="M759 304.34L796.649 282.781C801.324 280.103 807.077 280.139 811.719 282.875L889 328.423" stroke="#98B4F0" stroke-linecap="round"/>
<path d="M846 303.436L933 253.464" stroke="#98B4F0"/>
<defs>
<filter id="filter0_f" x="14.8315" y="0.514628" width="996.887" height="612.954" filterUnits="userSpaceOnUse" color-interpolation-filters="sRGB">
<feFlood flood-opacity="0" result="BackgroundImageFix"/>
<feBlend mode="normal" in="SourceGraphic" in2="BackgroundImageFix" result="shape"/>
<feGaussianBlur stdDeviation="1.35914" result="effect1_foregroundBlur"/>
</filter>
<filter id="filter1_f" x="413.516" y="171.894" width="160.884" height="107.487" filterUnits="userSpaceOnUse" color-interpolation-filters="sRGB">
<feFlood flood-opacity="0" result="BackgroundImageFix"/>
<feBlend mode="normal" in="SourceGraphic" in2="BackgroundImageFix" result="shape"/>
<feGaussianBlur stdDeviation="5.43656" result="effect1_foregroundBlur"/>
</filter>
<filter id="filter2_f" x="342.09" y="105.02" width="303.659" height="240.608" filterUnits="userSpaceOnUse" color-interpolation-filters="sRGB">
<feFlood flood-opacity="0" result="BackgroundImageFix"/>
<feBlend mode="normal" in="SourceGraphic" in2="BackgroundImageFix" result="shape"/>
<feGaussianBlur stdDeviation="35.3377" result="effect1_foregroundBlur"/>
</filter>
<filter id="filter3_f" x="566.516" y="258.847" width="160.884" height="107.487" filterUnits="userSpaceOnUse" color-interpolation-filters="sRGB">
<feFlood flood-opacity="0" result="BackgroundImageFix"/>
<feBlend mode="normal" in="SourceGraphic" in2="BackgroundImageFix" result="shape"/>
<feGaussianBlur stdDeviation="5.43656" result="effect1_foregroundBlur"/>
</filter>
<filter id="filter4_f" x="495.09" y="191.972" width="303.659" height="240.608" filterUnits="userSpaceOnUse" color-interpolation-filters="sRGB">
<feFlood flood-opacity="0" result="BackgroundImageFix"/>
<feBlend mode="normal" in="SourceGraphic" in2="BackgroundImageFix" result="shape"/>
<feGaussianBlur stdDeviation="35.3377" result="effect1_foregroundBlur"/>
</filter>
<filter id="filter5_f" x="262.516" y="262.845" width="160.884" height="107.487" filterUnits="userSpaceOnUse" color-interpolation-filters="sRGB">
<feFlood flood-opacity="0" result="BackgroundImageFix"/>
<feBlend mode="normal" in="SourceGraphic" in2="BackgroundImageFix" result="shape"/>
<feGaussianBlur stdDeviation="5.43656" result="effect1_foregroundBlur"/>
</filter>
<filter id="filter6_f" x="191.09" y="195.97" width="303.659" height="240.608" filterUnits="userSpaceOnUse" color-interpolation-filters="sRGB">
<feFlood flood-opacity="0" result="BackgroundImageFix"/>
<feBlend mode="normal" in="SourceGraphic" in2="BackgroundImageFix" result="shape"/>
<feGaussianBlur stdDeviation="35.3377" result="effect1_foregroundBlur"/>
</filter>
<filter id="filter7_f" x="414.516" y="348.797" width="160.884" height="107.487" filterUnits="userSpaceOnUse" color-interpolation-filters="sRGB">
<feFlood flood-opacity="0" result="BackgroundImageFix"/>
<feBlend mode="normal" in="SourceGraphic" in2="BackgroundImageFix" result="shape"/>
<feGaussianBlur stdDeviation="5.43656" result="effect1_foregroundBlur"/>
</filter>
<filter id="filter8_f" x="343.09" y="281.923" width="303.659" height="240.608" filterUnits="userSpaceOnUse" color-interpolation-filters="sRGB">
<feFlood flood-opacity="0" result="BackgroundImageFix"/>
<feBlend mode="normal" in="SourceGraphic" in2="BackgroundImageFix" result="shape"/>
<feGaussianBlur stdDeviation="35.3377" result="effect1_foregroundBlur"/>
</filter>
<filter id="filter9_d" x="365.84" y="32.2368" width="431.478" height="304.611" filterUnits="userSpaceOnUse" color-interpolation-filters="sRGB">
<feFlood flood-opacity="0" result="BackgroundImageFix"/>
<feColorMatrix in="SourceAlpha" type="matrix" values="0 0 0 0 0 0 0 0 0 0 0 0 0 0 0 0 0 0 127 0"/>
<feOffset dx="5" dy="15"/>
<feGaussianBlur stdDeviation="8"/>
<feColorMatrix type="matrix" values="0 0 0 0 0.12549 0 0 0 0 0.117647 0 0 0 0 0.117647 0 0 0 0.59 0"/>
<feBlend mode="normal" in2="BackgroundImageFix" result="effect1_dropShadow"/>
<feBlend mode="normal" in="SourceGraphic" in2="effect1_dropShadow" result="shape"/>
</filter>
<filter id="filter10_d" x="199.84" y="128.184" width="431.478" height="304.611" filterUnits="userSpaceOnUse" color-interpolation-filters="sRGB">
<feFlood flood-opacity="0" result="BackgroundImageFix"/>
<feColorMatrix in="SourceAlpha" type="matrix" values="0 0 0 0 0 0 0 0 0 0 0 0 0 0 0 0 0 0 127 0"/>
<feOffset dx="5" dy="15"/>
<feGaussianBlur stdDeviation="8"/>
<feColorMatrix type="matrix" values="0 0 0 0 0.124264 0 0 0 0 0.117125 0 0 0 0 0.117125 0 0 0 0.6 0"/>
<feBlend mode="normal" in2="BackgroundImageFix" result="effect1_dropShadow"/>
<feBlend mode="normal" in="SourceGraphic" in2="effect1_dropShadow" result="shape"/>
</filter>
<linearGradient id="paint0_linear" x1="377.587" y1="472.371" x2="640.22" y2="247.113" gradientUnits="userSpaceOnUse">
<stop stop-color="#332D53"/>
<stop offset="1" stop-color="#141220" stop-opacity="0.01"/>
</linearGradient>
<linearGradient id="paint1_linear" x1="547.142" y1="132.703" x2="380.034" y2="315.973" gradientUnits="userSpaceOnUse">
<stop stop-color="#180D39"/>
<stop stop-color="#231647"/>
<stop offset="1" stop-color="#433384"/>
</linearGradient>
<linearGradient id="paint2_linear" x1="700.142" y1="219.654" x2="533.034" y2="402.925" gradientUnits="userSpaceOnUse">
<stop stop-color="#180D39"/>
<stop stop-color="#231647"/>
<stop offset="1" stop-color="#433384"/>
</linearGradient>
<linearGradient id="paint3_linear" x1="396.142" y1="223.653" x2="229.034" y2="406.923" gradientUnits="userSpaceOnUse">
<stop stop-color="#180D39"/>
<stop stop-color="#231647"/>
<stop offset="1" stop-color="#433384"/>
</linearGradient>
<linearGradient id="paint4_linear" x1="548.142" y1="309.606" x2="381.034" y2="492.876" gradientUnits="userSpaceOnUse">
<stop stop-color="#180D39"/>
<stop stop-color="#231647"/>
<stop offset="1" stop-color="#433384"/>
</linearGradient>
<linearGradient id="paint5_linear" x1="686.39" y1="112.661" x2="582.633" y2="307.682" gradientUnits="userSpaceOnUse">
<stop stop-color="#0B3328"/>
<stop offset="1" stop-color="#327360"/>
</linearGradient>
<radialGradient id="paint6_radial" cx="0" cy="0" r="1" gradientUnits="userSpaceOnUse" gradientTransform="translate(587.551 144.196) rotate(90) scale(396.652 687.332)">
<stop stop-color="#09FFB6"/>
<stop offset="1" stop-color="#428772"/>
</radialGradient>
<radialGradient id="paint7_radial" cx="0" cy="0" r="1" gradientUnits="userSpaceOnUse" gradientTransform="translate(639.386 184.574) rotate(37.5451) scale(101.71 174.556)">
<stop stop-color="#34B694"/>
<stop offset="1" stop-color="#082D22"/>
</radialGradient>
<radialGradient id="paint8_radial" cx="0" cy="0" r="1" gradientUnits="userSpaceOnUse" gradientTransform="translate(625.517 144.572) rotate(147.543) scale(121.626 177.244)">
<stop stop-color="#34B694"/>
<stop offset="1" stop-color="#082D22"/>
</radialGradient>
<radialGradient id="paint9_radial" cx="0" cy="0" r="1" gradientUnits="userSpaceOnUse" gradientTransform="translate(652.435 58.8944) rotate(166.217) scale(372.054 277.04)">
<stop stop-color="#34B694"/>
<stop offset="1" stop-color="#082D22"/>
</radialGradient>
<radialGradient id="paint10_radial" cx="0" cy="0" r="1" gradientUnits="userSpaceOnUse" gradientTransform="translate(453.101 86.3904) rotate(31.2856) scale(173.649 273.732)">
<stop stop-color="#34B694"/>
<stop offset="1" stop-color="#082D22"/>
</radialGradient>
<radialGradient id="paint11_radial" cx="0" cy="0" r="1" gradientUnits="userSpaceOnUse" gradientTransform="translate(441.986 87.9284) rotate(11.0442) scale(159.078 106.239)">
<stop stop-color="#34B694"/>
<stop offset="1" stop-color="#082D22"/>
</radialGradient>
<radialGradient id="paint12_radial" cx="0" cy="0" r="1" gradientUnits="userSpaceOnUse" gradientTransform="translate(552.327 150.424) rotate(10.0952) scale(158.929 97.4186)">
<stop stop-color="#34B694"/>
<stop offset="1" stop-color="#082D22"/>
</radialGradient>
<linearGradient id="paint13_linear" x1="520.39" y1="208.608" x2="416.633" y2="403.629" gradientUnits="userSpaceOnUse">
<stop stop-color="#8B3027"/>
<stop offset="1" stop-color="#BA4D43"/>
</linearGradient>
<radialGradient id="paint14_radial" cx="0" cy="0" r="1" gradientUnits="userSpaceOnUse" gradientTransform="translate(410.603 244.566) rotate(91.8502) scale(413.599 716.199)">
<stop stop-color="#FF8738"/>
<stop offset="1" stop-color="#FD4F1A"/>
</radialGradient>
<linearGradient id="paint15_linear" x1="422.632" y1="123.809" x2="324.651" y2="260.484" gradientUnits="userSpaceOnUse">
<stop stop-color="#C06E1A" stop-opacity="0.0825503"/>
<stop offset="1" stop-color="#210D01" stop-opacity="0.0825503"/>
</linearGradient>
<linearGradient id="paint16_linear" x1="494.53" y1="237.608" x2="464.392" y2="286.654" gradientUnits="userSpaceOnUse">
<stop stop-color="#C06E1A" stop-opacity="0.0825503"/>
<stop offset="1" stop-color="#210D01" stop-opacity="0.0825503"/>
</linearGradient>
</defs>
</svg>
