<svg width="110" height="161" viewBox="0 0 110 161" fill="none" xmlns="http://www.w3.org/2000/svg">
<path d="M33.5442 146.389C32.8787 146.443 32.3859 147.031 32.4478 147.696L33.2961 156.818C33.357 157.473 33.9338 157.957 34.5894 157.903L38.1267 157.611C38.7922 157.557 39.285 156.969 39.2231 156.304L38.3748 147.182C38.3139 146.527 37.7371 146.043 37.0815 146.097L33.5442 146.389Z" fill="white" stroke="#14121E"/>
<path d="M61.1267 146.389C61.7922 146.443 62.285 147.031 62.2231 147.696L61.3748 156.818C61.3139 157.473 60.7371 157.957 60.0815 157.903L56.5442 157.611C55.8787 157.557 55.3859 156.969 55.4478 156.304L56.2961 147.182C56.357 146.527 56.9338 146.043 57.5894 146.097L61.1267 146.389Z" fill="white" stroke="#14121E"/>
<path d="M28.6085 158.302C28.458 157.375 29.0914 156.503 30.0192 156.36L35.7741 155.471C37.4627 155.21 39.0463 156.358 39.3239 158.044C39.3303 158.083 39.3042 158.12 39.2652 158.127L30.5775 159.694C29.6472 159.862 28.76 159.235 28.6085 158.302Z" fill="white" stroke="#14121E"/>
<path d="M66.0624 158.302C66.2129 157.375 65.5795 156.503 64.6517 156.36L58.8968 155.471C57.2082 155.21 55.6246 156.358 55.347 158.044C55.3406 158.083 55.3667 158.12 55.4057 158.127L64.0934 159.694C65.0237 159.862 65.9109 159.235 66.0624 158.302Z" fill="white" stroke="#14121E"/>
<path d="M5.86803 69.6972L16.3162 129.676C18.072 139.755 27.9261 147.511 38.2914 146.974L55.1729 146.098C65.5439 145.561 74.5188 136.83 75.2002 126.622L79.2543 65.8921C79.828 57.2987 77.342 49.3383 72.3438 43.1595C68.3417 44.0892 60.6886 43.1486 52.5239 40.691C44.5277 38.284 37.7463 34.9331 34.8579 32C30.645 32.4056 26.7441 33.4951 23.2505 35.1481C18.9049 37.2041 15.1895 40.1317 12.2874 43.6989C9.27884 47.397 7.14446 51.7824 6.0885 56.5965C5.18738 60.7047 5.07158 65.1252 5.86803 69.6972Z" fill="white" stroke="#14121E"/>
<path d="M82.6847 66L82.7647 65.56L85.9947 61.76H83.7847L83.9147 61.14H87.0847L87.0047 61.59L83.7747 65.38H86.3147L86.1947 66H82.6847Z" fill="#5F3EFF"/>
<path d="M88.6847 68L88.7647 67.56L91.9947 63.76H89.7847L89.9147 63.14H93.0847L93.0047 63.59L89.7747 67.38H92.3147L92.1947 68H88.6847Z" fill="#5F3EFF" fill-opacity="0.170673"/>
<path d="M81.6847 59L81.7647 58.56L84.9947 54.76H82.7847L82.9147 54.14H86.0847L86.0047 54.59L82.7747 58.38H85.3147L85.1947 59H81.6847Z" fill="#5F3EFF" fill-opacity="0.170673"/>
<path d="M92.2545 59L92.3505 58.472L96.2265 53.912H93.5745L93.7305 53.168H97.5345L97.4385 53.708L93.5625 58.256H96.6105L96.4665 59H92.2545Z" fill="#5F3EFF"/>
<path d="M97.2545 61L97.3505 60.472L101.227 55.912H98.5745L98.7305 55.168H102.535L102.439 55.708L98.5625 60.256H101.611L101.467 61H97.2545Z" fill="#5F3EFF" fill-opacity="0.170673"/>
<path d="M90.2545 52L90.3505 51.472L94.2265 46.912H91.5745L91.7305 46.168H95.5345L95.4385 46.708L91.5625 51.256H94.6105L94.4665 52H90.2545Z" fill="#5F3EFF" fill-opacity="0.170673"/>
<path d="M97.3244 47L97.4364 46.384L101.958 41.064H98.8644L99.0464 40.196H103.484L103.372 40.826L98.8504 46.132H102.406L102.238 47H97.3244Z" fill="#5F3EFF"/>
<path d="M102.394 32L102.522 31.296L107.69 25.216H104.154L104.362 24.224H109.434L109.306 24.944L104.138 31.008H108.202L108.01 32H102.394Z" fill="#5F3EFF"/>
<path d="M103.324 48L103.436 47.384L107.958 42.064H104.864L105.046 41.196H109.484L109.372 41.826L104.85 47.132H108.406L108.238 48H103.324Z" fill="#5F3EFF" fill-opacity="0.170673"/>
<path d="M96.3244 40L96.4364 39.384L100.958 34.064H97.8644L98.0464 33.196H102.484L102.372 33.826L97.8504 39.132H101.406L101.238 40H96.3244Z" fill="#5F3EFF" fill-opacity="0.170673"/>
<path d="M53.6442 36.2906C58.9315 37.9023 63.7689 38.3094 65.3354 37.7833C59.4248 33.6934 52.1512 31.6562 44.3354 32.0475C46.2112 33.4548 49.6573 35.0753 53.6442 36.2906Z" fill="black"/>
<path fill-rule="evenodd" clip-rule="evenodd" d="M14.0858 126C14.0858 126 0.568259 104.832 1.38161 96.2531C2.19496 87.6739 16.6329 85.6973 18.2552 90.727C19.2184 93.7136 24.3354 106.104 24.3354 106.104L14.0858 126Z" stroke="#2D9CDB"/>
<path fill-rule="evenodd" clip-rule="evenodd" d="M19.4762 107L24.3354 116.327L23.1947 117L18.3354 107.673L19.4762 107Z" fill="black"/>
<path fill-rule="evenodd" clip-rule="evenodd" d="M17.4762 109L22.3354 118.327L21.1947 119L16.3354 109.673L17.4762 109Z" fill="black"/>
<path fill-rule="evenodd" clip-rule="evenodd" d="M15.4762 111L20.3354 120.327L19.1947 121L14.3354 111.673L15.4762 111Z" fill="black"/>
<path fill-rule="evenodd" clip-rule="evenodd" d="M72.7918 126C72.7918 126 87.1051 104.128 86.2917 95.3979C85.4783 86.6682 71.0388 84.6569 69.4164 89.7749C68.453 92.8139 63.3354 105.422 63.3354 105.422L72.7918 126Z" fill="white" stroke="#2D9CDB"/>
<path fill-rule="evenodd" clip-rule="evenodd" d="M14.0701 113.367C11.4521 99.6602 24.2688 88.0425 37.653 91.99C41.5565 93.1413 45.7667 92.9694 49.5721 91.5266C62.5897 86.5909 76.5706 96.564 75.8872 110.469L74.5916 136.831C74.5901 136.863 74.5889 136.889 74.5866 136.921C74.5429 137.521 73.8709 144.349 65.7439 147.981C60.8578 150.165 51.114 149.565 42.7098 149.918C26.8163 150.586 21.6833 145.824 20.0282 142.808C19.2265 141.346 19.0861 139.628 18.7734 137.99L14.0701 113.367Z" fill="white"/>
<path fill-rule="evenodd" clip-rule="evenodd" d="M12.8526 118.968C11.7502 111.41 21.9795 107.997 25.6364 114.702L32.2206 126.776C32.749 127.745 33.4455 128.612 34.2777 129.337L37.0424 131.747C41.8615 135.946 49.0514 135.905 53.823 131.652L54.2173 131.301C55.3098 130.327 56.1812 129.13 56.7729 127.792L65.3862 108.301C68.1274 102.099 77.4168 104.237 77.1702 111.014L76.1957 134.956C76.0103 139.511 74.188 143.847 71.0633 147.168L70.1694 148.117C67.0967 151.383 62.7936 153.207 58.3104 153.145L57.0965 153.128C55.5163 153.106 53.9608 152.732 52.5438 152.032L52.0842 151.805C49.1215 150.342 45.6172 150.491 42.7898 152.201C41.819 152.789 40.7524 153.201 39.6388 153.418L38.3939 153.662C34.0137 154.519 29.4726 153.601 25.7687 151.111L24.695 150.389C20.2196 147.381 17.1519 142.689 16.1902 137.383L12.8526 118.968Z" fill="white" stroke="#2D9CDB"/>
<path fill-rule="evenodd" clip-rule="evenodd" d="M62.2883 124.181L61.9944 124.055C61.6924 123.924 61.4958 123.728 61.4046 123.467C61.3135 123.205 61.3124 122.911 61.4014 122.586C61.4391 122.443 61.4805 122.306 61.5255 122.174C61.6921 121.687 61.8923 121.295 62.1259 121L62.8536 121.314C62.7108 121.624 62.5488 122.044 62.3676 122.574C62.3141 122.731 62.2894 122.841 62.2937 122.904C62.2979 122.967 62.3482 123.019 62.4446 123.061L62.4976 123.083C62.5812 123.12 62.6473 123.126 62.696 123.102C62.7447 123.078 62.7922 122.998 62.8384 122.863L63.0099 122.361C63.1546 121.938 63.4204 121.715 63.8072 121.694C63.9946 121.685 64.1831 121.722 64.3727 121.803L64.5317 121.872C65.2513 122.182 65.4877 122.699 65.2409 123.421C65.0633 123.941 64.9399 124.277 64.8708 124.431C64.8016 124.585 64.6824 124.775 64.5133 125L63.7857 124.686C63.9548 124.31 64.1299 123.857 64.3111 123.326C64.35 123.213 64.3624 123.125 64.3483 123.064C64.3342 123.003 64.2919 122.957 64.2212 122.926L64.1441 122.893C64.0702 122.861 64.0097 122.858 63.9626 122.882C63.9154 122.907 63.873 122.974 63.8353 123.085L63.6712 123.565C63.6055 123.757 63.5197 123.911 63.4139 124.027C63.308 124.142 63.205 124.217 63.1047 124.252C63.0045 124.286 62.8941 124.302 62.7735 124.299C62.6075 124.288 62.4458 124.249 62.2883 124.181Z" stroke="#14121E" stroke-width="0.5"/>
<path fill-rule="evenodd" clip-rule="evenodd" d="M66.1987 122L62.3354 120.525L62.9887 118.832C63.1299 118.466 63.3339 118.217 63.6007 118.086C63.8675 117.954 64.2261 117.974 64.6765 118.146C65.1163 118.314 65.3903 118.488 65.4985 118.668C65.5506 118.763 65.5837 118.842 65.5978 118.905C65.6119 118.968 65.6199 119.049 65.6218 119.148L67.3354 119.054L66.8939 120.198L65.3392 120.163L65.1455 120.446L66.5863 120.996L66.1987 122Z" stroke="#14121E" stroke-width="0.5"/>
<path fill-rule="evenodd" clip-rule="evenodd" d="M64.0941 120L64.3017 119.469C64.347 119.354 64.3467 119.269 64.3009 119.216C64.2551 119.163 64.1638 119.11 64.0272 119.059C63.8905 119.007 63.7856 118.99 63.7127 119.006C63.6397 119.022 63.5832 119.081 63.5431 119.184L63.3354 119.714L64.0941 120Z" stroke="#14121E" stroke-width="0.5"/>
<path fill-rule="evenodd" clip-rule="evenodd" d="M65.8998 118L65.3354 117.679L65.7711 116L66.3354 116.321L65.8998 118Z" stroke="#14121E" stroke-width="0.5"/>
<path fill-rule="evenodd" clip-rule="evenodd" d="M65.1589 116.279L64.3354 115.887L65.1971 113.097L65.6505 113L68.3354 115.805L67.9664 117L65.6803 114.592L65.1589 116.279Z" stroke="#14121E" stroke-width="0.5"/>
<path fill-rule="evenodd" clip-rule="evenodd" d="M65.6967 111L69.3354 112.19L68.9704 113L66.2463 112.109L66.1237 112.634L65.5123 112.435L65.3354 111.802L65.6967 111Z" stroke="#14121E" stroke-width="0.5"/>
<path d="M40.9475 71.7824C41.5001 71.1808 42.4325 71.1319 43.0449 71.6725L48.8837 76.8265C49.6599 77.5117 49.525 78.7587 48.6201 79.262L43.5004 82.1096C43.1128 82.3252 42.6497 82.3582 42.2354 82.1997L36.2647 79.9162C35.2752 79.5377 34.9792 78.2807 35.6957 77.5005L40.9475 71.7824Z" fill="white" stroke="#F5A623"/>
<path d="M69.6453 34.3747C69.3803 35.3393 69.1422 36.3076 68.9384 37.2728C68.3307 39.0109 62.4104 38.5793 55.7147 36.3089C49.019 34.0385 44.084 30.7893 44.6917 29.0513L44.6922 29.0515C45.136 28.1657 45.5543 27.257 45.9484 26.3352C40.7186 25.6138 37.0133 26.0446 36.4183 27.7462C35.4216 30.5966 43.5308 35.9309 54.5308 39.6608C65.5313 43.3908 75.2559 44.1036 76.2526 41.2532C76.8467 39.5542 74.205 36.9728 69.6453 34.3747Z" fill="white" stroke="#14121E"/>
<path d="M80.3354 11.5781C79.3039 13.2986 72.5719 12.6747 64.9584 10.1083C57.3462 7.5424 51.6474 3.97708 51.9163 2C51.9163 2 50.7467 14.3209 46.3355 25.1966C46.3246 26.9446 51.0148 29.8996 57.2571 32.0038C63.5012 34.1085 69.056 34.6069 70.1452 33.2214C73.5034 22.0124 80.3114 11.6152 80.3354 11.5781Z" fill="white" stroke="#14121E"/>
<path d="M70.3354 31.6745C68.4118 33.5815 64.3649 34.2329 56.8698 31.6745C49.376 29.1166 45.3278 26.907 46.2897 25C45.3278 26.907 44.1281 28.6761 44.366 29.7675C44.3552 31.5101 49.2104 34.5939 55.3556 36.6915C61.5026 38.7898 67.3395 39.7302 68.4118 38.349C69.3736 37.3955 70.3354 31.6745 70.3354 31.6745Z" fill="white" stroke="#5F3EFF"/>
<path d="M80.2825 11.8469C80.2622 11.9065 80.2369 11.9634 80.205 12.018C79.2033 13.7621 72.5977 13.1314 65.1294 10.536C57.6673 7.94272 52.0807 4.33939 52.3444 2.34124C52.3526 2.27693 52.3677 2.21401 52.3885 2.15306C53.0547 0.200273 59.8394 0.787266 67.5421 3.46411C75.2447 6.14096 80.9489 9.89364 80.2825 11.8469Z" fill="white" stroke="#14121E"/>
<path fill-rule="evenodd" clip-rule="evenodd" d="M23.8803 86.7035C22.4273 85.911 20.6956 87.1256 20.9457 88.7616L23.979 108.602C24.2108 110.118 25.9922 110.82 27.1957 109.87L59.5076 84.3482C60.7692 83.3517 62.6314 84.1756 62.7425 85.7794L64.0831 105.125C64.1923 106.701 62.5171 107.776 61.1302 107.019L23.8803 86.7035Z" fill="white" stroke="#FF4329"/>
<path fill-rule="evenodd" clip-rule="evenodd" d="M44.9137 117.998C45.741 117.954 46.3766 117.249 46.3334 116.421C46.2901 115.594 45.5844 114.959 44.7571 115.002C43.9299 115.046 43.2943 115.751 43.3375 116.579C43.3808 117.406 44.0865 118.041 44.9137 117.998Z" fill="#2D9CDB"/>
<path fill-rule="evenodd" clip-rule="evenodd" d="M45.9137 122.998C46.741 122.954 47.3766 122.249 47.3334 121.421C47.2901 120.594 46.5844 119.959 45.7571 120.002C44.9299 120.046 44.2943 120.751 44.3375 121.579C44.3808 122.406 45.0865 123.041 45.9137 122.998Z" fill="#2D9CDB"/>
<path d="M16.3354 60C16.3354 60 23.0173 73.1429 37.3354 64.6939" stroke="#14121E" stroke-linecap="round"/>
<path d="M67.3354 60C67.3354 60 60.6536 73.1429 46.3354 64.6939" stroke="#14121E" stroke-linecap="round"/>
<path d="M67.3354 60C67.3354 60 68.9354 61.5 71.3354 60.75" stroke="#14121E" stroke-linecap="round"/>
<path d="M16.3354 60C16.3354 60 14.7354 61.5 12.3354 60.75" stroke="#14121E" stroke-linecap="round"/>
<path d="M66.3354 63C66.3354 63 67.5354 64.5 69.3354 63.75" stroke="#14121E" stroke-linecap="round"/>
<path d="M17.3354 63C17.3354 63 16.1354 64.5 14.3354 63.75" stroke="#14121E" stroke-linecap="round"/>
<path d="M64.3354 65C64.3354 65 65.5354 66.5 67.3354 65.75" stroke="#14121E" stroke-linecap="round"/>
<path d="M19.3354 65C19.3354 65 18.1354 66.5 16.3354 65.75" stroke="#14121E" stroke-linecap="round"/>
</svg>
