<svg width="190" height="162" viewBox="0 0 190 162" fill="none" xmlns="http://www.w3.org/2000/svg">
<path d="M129.733 40.58V20.42" stroke="#5F3EFF" stroke-linecap="square"/>
<path d="M57.7334 121V139" stroke="#5F3EFF" stroke-linecap="square"/>
<path d="M57.7334 40.58V20.42" stroke="#5F3EFF" stroke-linecap="square"/>
<path d="M129.733 121V139" stroke="#5F3EFF" stroke-linecap="square"/>
<path d="M94.7334 40.6V13.4" stroke="#FE4328" stroke-linecap="square"/>
<path d="M94.7334 121V149" stroke="#FE4328" stroke-linecap="square"/>
<path fill-rule="evenodd" clip-rule="evenodd" d="M129.733 22C133.323 22 136.233 19.0899 136.233 15.5C136.233 11.9101 133.323 9 129.733 9C126.144 9 123.233 11.9101 123.233 15.5C123.233 19.0899 126.144 22 129.733 22Z" fill="white" stroke="#5F3EFF"/>
<path fill-rule="evenodd" clip-rule="evenodd" d="M7.7334 41C4.14355 41 1.2334 43.9101 1.2334 47.5C1.2334 51.0899 4.14355 54 7.7334 54C11.3232 54 14.2334 51.0899 14.2334 47.5C14.2334 43.9101 11.3232 41 7.7334 41Z" fill="white" stroke="#5F3EFF"/>
<path fill-rule="evenodd" clip-rule="evenodd" d="M7.7334 121C4.14355 121 1.2334 118.09 1.2334 114.5C1.2334 110.91 4.14355 108 7.7334 108C11.3232 108 14.2334 110.91 14.2334 114.5C14.2334 118.09 11.3232 121 7.7334 121Z" fill="white" stroke="#5F3EFF"/>
<path d="M36.2334 98H8.2334V109" stroke="#5F3EFF"/>
<path d="M36.2334 64H8.2334V53" stroke="#5F3EFF"/>
<path fill-rule="evenodd" clip-rule="evenodd" d="M182.733 41C186.323 41 189.233 43.9101 189.233 47.5C189.233 51.0899 186.323 54 182.733 54C179.144 54 176.233 51.0899 176.233 47.5C176.233 43.9101 179.144 41 182.733 41Z" fill="white" stroke="#5F3EFF"/>
<path fill-rule="evenodd" clip-rule="evenodd" d="M182.733 121C186.323 121 189.233 118.09 189.233 114.5C189.233 110.91 186.323 108 182.733 108C179.144 108 176.233 110.91 176.233 114.5C176.233 118.09 179.144 121 182.733 121Z" fill="white" stroke="#5F3EFF"/>
<path d="M153.233 98H181.233V109" stroke="#5F3EFF"/>
<path d="M153.233 64H181.233V53" stroke="#5F3EFF"/>
<rect x="35.2334" y="41" width="119" height="33" rx="5" fill="white" stroke="#2D9CDB"/>
<rect x="35.2334" y="88" width="119" height="33" rx="5" fill="white" stroke="#2D9CDB"/>
<path fill-rule="evenodd" clip-rule="evenodd" d="M57.7334 22C61.3232 22 64.2334 19.0899 64.2334 15.5C64.2334 11.9101 61.3232 9 57.7334 9C54.1435 9 51.2334 11.9101 51.2334 15.5C51.2334 19.0899 54.1435 22 57.7334 22Z" fill="white" stroke="#5F3EFF"/>
<path fill-rule="evenodd" clip-rule="evenodd" d="M129.733 141C126.144 141 123.233 143.686 123.233 147C123.233 150.314 126.144 153 129.733 153C133.323 153 136.233 150.314 136.233 147C136.233 143.686 133.323 141 129.733 141Z" fill="white" stroke="#5F3EFF"/>
<path fill-rule="evenodd" clip-rule="evenodd" d="M57.7334 141C54.1435 141 51.2334 143.686 51.2334 147C51.2334 150.314 54.1435 153 57.7334 153C61.3232 153 64.2334 150.314 64.2334 147C64.2334 143.686 61.3232 141 57.7334 141Z" fill="white" stroke="#5F3EFF"/>
<path fill-rule="evenodd" clip-rule="evenodd" d="M94.7334 14C98.3232 14 101.233 11.0899 101.233 7.5C101.233 3.91015 98.3232 1 94.7334 1C91.1435 1 88.2334 3.91015 88.2334 7.5C88.2334 11.0899 91.1435 14 94.7334 14Z" fill="white" stroke="#FE4328"/>
<path fill-rule="evenodd" clip-rule="evenodd" d="M94.7334 148C91.1435 148 88.2334 150.91 88.2334 154.5C88.2334 158.09 91.1435 161 94.7334 161C98.3232 161 101.233 158.09 101.233 154.5C101.233 150.91 98.3232 148 94.7334 148Z" fill="white" stroke="#FE4328"/>
<path d="M62.6396 104.5H100.827" stroke="#FE4328" stroke-linecap="square"/>
<path d="M62.6396 57.5H100.827" stroke="#FE4328" stroke-linecap="square"/>
<rect x="42.2334" y="74" width="108" height="14" fill="white" stroke="#14121E"/>
<path fill-rule="evenodd" clip-rule="evenodd" d="M58.2334 111C62.0994 111 65.2334 107.866 65.2334 104C65.2334 100.134 62.0994 97 58.2334 97C54.3674 97 51.2334 100.134 51.2334 104C51.2334 107.866 54.3674 111 58.2334 111Z" fill="white" stroke="#FE4328"/>
<path fill-rule="evenodd" clip-rule="evenodd" d="M58.2334 65C62.0994 65 65.2334 61.866 65.2334 58C65.2334 54.134 62.0994 51 58.2334 51C54.3674 51 51.2334 54.134 51.2334 58C51.2334 61.866 54.3674 65 58.2334 65Z" fill="white" stroke="#FE4328"/>
<path fill-rule="evenodd" clip-rule="evenodd" d="M141.495 50C145.504 53.1781 147.108 57.1507 164.748 55.5616C162.342 61.1233 170.36 80.1918 163.144 91.3151C160.531 95.3426 155.928 96.8767 151.117 100.055C146.306 102.438 143.9 104.027 141.495 108C139.891 105.616 138.55 104.421 132.675 100.055C126.26 95.2877 120.092 93.6993 118.242 88.9315C115.035 77.0137 120.647 61.9178 119.044 55.5616C135.882 57.1507 138.287 53.1781 141.495 50Z" fill="white" stroke="#FE4328"/>
</svg>
