<svg width="485" height="404" viewBox="0 0 485 404" fill="none" xmlns="http://www.w3.org/2000/svg">
<g filter="url(#filter0_d)">
<path fill-rule="evenodd" clip-rule="evenodd" d="M212.5 374C313.292 374 395 372.967 395 356.433C395 352.723 395 312 395 312C395 312 49.6474 319.791 30 312C30 312 30 339.9 30 356.433C30 372.967 111.708 374 212.5 374Z" fill="#FF381B"/>
<path fill-rule="evenodd" clip-rule="evenodd" d="M212.5 327C313.292 327 395 324 395 311.5C395 299 313.292 296 212.5 296C111.708 296 30 299 30 311.5C30 324 111.708 327 212.5 327Z" fill="#FF6049"/>
<path fill-rule="evenodd" clip-rule="evenodd" d="M212.5 308C313.292 308 395 306.967 395 291.467C395 287.756 395 246 395 246C395 246 49.6474 253.791 30 246C30 246 30 275.967 30 291.467C30 306.967 111.708 308 212.5 308Z" fill="#FF452A"/>
<path fill-rule="evenodd" clip-rule="evenodd" d="M212.5 262C313.292 262 395 259 395 246C395 233 313.292 230 212.5 230C111.708 230 30 233 30 246C30 259 111.708 262 212.5 262Z" fill="#FF6B56"/>
<path fill-rule="evenodd" clip-rule="evenodd" d="M212.5 241C313.292 241 395 239.967 395 224.467C395 220.756 395 179 395 179C395 179 49.6474 186.791 30 179C30 179 30 208.967 30 224.467C30 239.967 111.708 241 212.5 241Z" fill="#FE4328"/>
<path fill-rule="evenodd" clip-rule="evenodd" d="M212.5 194C313.292 194 395 191 395 179C395 167 313.292 164 212.5 164C111.708 164 30 167 30 179C30 191 111.708 194 212.5 194Z" fill="#FF7460"/>
<path fill-rule="evenodd" clip-rule="evenodd" d="M212.5 175C313.292 175 395 173.967 395 158.467C395 154.756 395 113 395 113C395 113 49.6474 120.791 30 113C30 113 30 142.967 30 158.467C30 173.967 111.708 175 212.5 175Z" fill="#FF5239"/>
<path fill-rule="evenodd" clip-rule="evenodd" d="M212.5 129C313.292 129 395 126 395 113C395 100 313.292 97 212.5 97C111.708 97 30 100 30 113C30 126 111.708 129 212.5 129Z" fill="#FF8270"/>
<path fill-rule="evenodd" clip-rule="evenodd" d="M212.5 108C313.292 108 395 105 395 90C395 86.2897 395 46 395 46C395 46 49.6474 53.7914 30 46C30 46 30 75 30 90C30 105 111.708 108 212.5 108Z" fill="#FF5A43"/>
<path fill-rule="evenodd" clip-rule="evenodd" d="M212.5 61C313.292 61 395 58 395 45.5C395 33 313.292 30 212.5 30C111.708 30 30 33 30 45.5C30 58 111.708 61 212.5 61Z" fill="#FF8B7A"/>
</g>
<g filter="url(#filter1_d)">
<path d="M111.848 92V76.352H115.376V82.76H115.472L120.128 76.352H124.016L119.288 82.592L124.88 92H121.016L117.2 85.4L115.376 87.8V92H111.848ZM129.62 92.288C128.324 92.288 127.38 91.864 126.788 91.016C126.212 90.168 125.924 88.992 125.924 87.488V80.096H129.452V87.032C129.452 87.896 129.572 88.488 129.812 88.808C130.052 89.128 130.428 89.288 130.94 89.288C131.388 89.288 131.764 89.184 132.068 88.976C132.372 88.768 132.7 88.432 133.052 87.968V80.096H136.58V92H133.7L133.436 90.344H133.364C132.852 90.952 132.3 91.432 131.708 91.784C131.132 92.12 130.436 92.288 129.62 92.288ZM145.925 92.288C145.397 92.288 144.861 92.16 144.317 91.904C143.789 91.632 143.293 91.24 142.829 90.728H142.733L142.445 92H139.685V75.176H143.213V79.304L143.117 81.128C143.581 80.712 144.077 80.392 144.605 80.168C145.149 79.928 145.701 79.808 146.261 79.808C146.981 79.808 147.629 79.952 148.205 80.24C148.781 80.528 149.269 80.936 149.669 81.464C150.085 81.976 150.397 82.608 150.605 83.36C150.829 84.096 150.941 84.92 150.941 85.832C150.941 86.856 150.797 87.768 150.509 88.568C150.237 89.368 149.861 90.048 149.381 90.608C148.917 91.152 148.381 91.568 147.773 91.856C147.181 92.144 146.565 92.288 145.925 92.288ZM145.109 89.408C145.717 89.408 146.237 89.136 146.669 88.592C147.101 88.032 147.317 87.136 147.317 85.904C147.317 83.76 146.629 82.688 145.253 82.688C144.549 82.688 143.869 83.048 143.213 83.768V88.64C143.533 88.928 143.853 89.128 144.173 89.24C144.493 89.352 144.805 89.408 145.109 89.408ZM158.771 92.288C157.923 92.288 157.131 92.152 156.395 91.88C155.659 91.592 155.019 91.184 154.475 90.656C153.931 90.112 153.507 89.456 153.203 88.688C152.899 87.92 152.747 87.04 152.747 86.048C152.747 85.088 152.907 84.224 153.227 83.456C153.547 82.672 153.963 82.016 154.475 81.488C155.003 80.944 155.603 80.528 156.275 80.24C156.947 79.952 157.643 79.808 158.363 79.808C159.211 79.808 159.947 79.952 160.571 80.24C161.211 80.528 161.739 80.928 162.155 81.44C162.587 81.952 162.907 82.56 163.115 83.264C163.323 83.952 163.427 84.704 163.427 85.52C163.427 85.84 163.411 86.144 163.379 86.432C163.347 86.72 163.315 86.936 163.283 87.08H156.155C156.315 87.944 156.667 88.584 157.211 89C157.771 89.4 158.451 89.6 159.251 89.6C160.099 89.6 160.955 89.336 161.819 88.808L162.995 90.944C162.387 91.36 161.707 91.688 160.955 91.928C160.219 92.168 159.491 92.288 158.771 92.288ZM156.131 84.752H160.427C160.427 84.08 160.275 83.536 159.971 83.12C159.667 82.704 159.155 82.496 158.435 82.496C157.875 82.496 157.379 82.68 156.947 83.048C156.531 83.416 156.259 83.984 156.131 84.752ZM165.865 92V80.096H168.745L168.985 82.184H169.081C169.513 81.368 170.033 80.768 170.641 80.384C171.249 80 171.857 79.808 172.465 79.808C172.801 79.808 173.073 79.832 173.281 79.88C173.505 79.912 173.705 79.968 173.881 80.048L173.305 83.096C173.081 83.032 172.873 82.984 172.681 82.952C172.489 82.92 172.265 82.904 172.009 82.904C171.561 82.904 171.089 83.064 170.593 83.384C170.113 83.704 169.713 84.272 169.393 85.088V92H165.865ZM175.427 92V80.096H178.307L178.547 81.608H178.643C179.155 81.128 179.715 80.712 180.323 80.36C180.931 79.992 181.643 79.808 182.459 79.808C183.755 79.808 184.691 80.232 185.267 81.08C185.859 81.928 186.155 83.104 186.155 84.608V92H182.627V85.064C182.627 84.2 182.507 83.608 182.267 83.288C182.043 82.968 181.675 82.808 181.163 82.808C180.715 82.808 180.331 82.912 180.011 83.12C179.691 83.312 179.339 83.592 178.955 83.96V92H175.427ZM194.49 92.288C193.642 92.288 192.85 92.152 192.114 91.88C191.378 91.592 190.738 91.184 190.194 90.656C189.65 90.112 189.226 89.456 188.922 88.688C188.618 87.92 188.466 87.04 188.466 86.048C188.466 85.088 188.626 84.224 188.946 83.456C189.266 82.672 189.682 82.016 190.194 81.488C190.722 80.944 191.322 80.528 191.994 80.24C192.666 79.952 193.362 79.808 194.082 79.808C194.93 79.808 195.666 79.952 196.29 80.24C196.93 80.528 197.458 80.928 197.874 81.44C198.306 81.952 198.626 82.56 198.834 83.264C199.042 83.952 199.146 84.704 199.146 85.52C199.146 85.84 199.13 86.144 199.098 86.432C199.066 86.72 199.034 86.936 199.002 87.08H191.874C192.034 87.944 192.386 88.584 192.93 89C193.49 89.4 194.17 89.6 194.97 89.6C195.818 89.6 196.674 89.336 197.538 88.808L198.714 90.944C198.106 91.36 197.426 91.688 196.674 91.928C195.938 92.168 195.21 92.288 194.49 92.288ZM191.85 84.752H196.146C196.146 84.08 195.994 83.536 195.69 83.12C195.386 82.704 194.874 82.496 194.154 82.496C193.594 82.496 193.098 82.68 192.666 83.048C192.25 83.416 191.978 83.984 191.85 84.752ZM205.933 92.288C205.197 92.288 204.565 92.176 204.037 91.952C203.525 91.728 203.101 91.416 202.765 91.016C202.445 90.616 202.205 90.136 202.045 89.576C201.901 89 201.829 88.368 201.829 87.68V82.856H200.197V80.24L202.021 80.096L202.429 76.928H205.357V80.096H208.213V82.856H205.357V87.632C205.357 88.304 205.493 88.792 205.765 89.096C206.053 89.384 206.429 89.528 206.893 89.528C207.085 89.528 207.277 89.504 207.469 89.456C207.677 89.408 207.861 89.352 208.021 89.288L208.573 91.856C208.253 91.952 207.877 92.048 207.445 92.144C207.013 92.24 206.509 92.288 205.933 92.288ZM215.443 92.288C214.595 92.288 213.803 92.152 213.067 91.88C212.331 91.592 211.691 91.184 211.147 90.656C210.603 90.112 210.179 89.456 209.875 88.688C209.571 87.92 209.419 87.04 209.419 86.048C209.419 85.088 209.579 84.224 209.899 83.456C210.219 82.672 210.635 82.016 211.147 81.488C211.675 80.944 212.275 80.528 212.947 80.24C213.619 79.952 214.315 79.808 215.035 79.808C215.883 79.808 216.619 79.952 217.243 80.24C217.883 80.528 218.411 80.928 218.827 81.44C219.259 81.952 219.579 82.56 219.787 83.264C219.995 83.952 220.099 84.704 220.099 85.52C220.099 85.84 220.083 86.144 220.051 86.432C220.019 86.72 219.987 86.936 219.955 87.08H212.827C212.987 87.944 213.339 88.584 213.883 89C214.443 89.4 215.123 89.6 215.923 89.6C216.771 89.6 217.627 89.336 218.491 88.808L219.667 90.944C219.059 91.36 218.379 91.688 217.627 91.928C216.891 92.168 216.163 92.288 215.443 92.288ZM212.803 84.752H217.099C217.099 84.08 216.947 83.536 216.643 83.12C216.339 82.704 215.827 82.496 215.107 82.496C214.547 82.496 214.051 82.68 213.619 83.048C213.203 83.416 212.931 83.984 212.803 84.752ZM226.041 92.288C225.257 92.288 224.449 92.136 223.617 91.832C222.801 91.528 222.089 91.128 221.481 90.632L223.065 88.424C223.609 88.84 224.129 89.152 224.625 89.36C225.121 89.568 225.625 89.672 226.137 89.672C226.665 89.672 227.049 89.584 227.289 89.408C227.529 89.232 227.649 88.984 227.649 88.664C227.649 88.472 227.577 88.304 227.433 88.16C227.305 88 227.121 87.856 226.881 87.728C226.657 87.6 226.401 87.488 226.113 87.392C225.825 87.28 225.529 87.16 225.225 87.032C224.857 86.888 224.489 86.72 224.121 86.528C223.753 86.336 223.417 86.104 223.113 85.832C222.809 85.544 222.561 85.216 222.369 84.848C222.177 84.464 222.081 84.024 222.081 83.528C222.081 82.984 222.185 82.48 222.393 82.016C222.617 81.552 222.929 81.16 223.329 80.84C223.729 80.52 224.209 80.272 224.769 80.096C225.329 79.904 225.953 79.808 226.641 79.808C227.553 79.808 228.353 79.968 229.041 80.288C229.729 80.592 230.329 80.936 230.841 81.32L229.257 83.432C228.825 83.112 228.401 82.864 227.985 82.688C227.569 82.512 227.153 82.424 226.737 82.424C225.841 82.424 225.393 82.736 225.393 83.36C225.393 83.552 225.457 83.72 225.585 83.864C225.713 83.992 225.881 84.112 226.089 84.224C226.313 84.336 226.561 84.448 226.833 84.56C227.121 84.656 227.417 84.76 227.721 84.872C228.105 85.016 228.481 85.184 228.849 85.376C229.233 85.552 229.577 85.776 229.881 86.048C230.201 86.32 230.457 86.656 230.649 87.056C230.841 87.44 230.937 87.904 230.937 88.448C230.937 88.992 230.833 89.496 230.625 89.96C230.417 90.424 230.105 90.832 229.689 91.184C229.273 91.52 228.761 91.792 228.153 92C227.545 92.192 226.841 92.288 226.041 92.288ZM238.27 92V76.352H241.798V92H238.27ZM245.201 92V80.096H248.081L248.321 81.608H248.417C248.929 81.128 249.489 80.712 250.097 80.36C250.705 79.992 251.417 79.808 252.233 79.808C253.529 79.808 254.465 80.232 255.041 81.08C255.633 81.928 255.929 83.104 255.929 84.608V92H252.401V85.064C252.401 84.2 252.281 83.608 252.041 83.288C251.817 82.968 251.449 82.808 250.937 82.808C250.489 82.808 250.105 82.912 249.785 83.12C249.465 83.312 249.113 83.592 248.729 83.96V92H245.201ZM263.183 97.064C262.479 97.064 261.823 97 261.215 96.872C260.623 96.76 260.095 96.584 259.631 96.344C259.183 96.104 258.831 95.792 258.575 95.408C258.319 95.024 258.191 94.568 258.191 94.04C258.191 93.08 258.759 92.28 259.895 91.64V91.544C259.575 91.336 259.311 91.072 259.103 90.752C258.895 90.432 258.791 90.024 258.791 89.528C258.791 89.096 258.919 88.688 259.175 88.304C259.431 87.904 259.751 87.568 260.135 87.296V87.2C259.719 86.912 259.343 86.504 259.007 85.976C258.687 85.432 258.527 84.808 258.527 84.104C258.527 83.384 258.663 82.76 258.935 82.232C259.207 81.688 259.567 81.24 260.015 80.888C260.479 80.52 261.007 80.248 261.599 80.072C262.191 79.896 262.807 79.808 263.447 79.808C264.151 79.808 264.767 79.904 265.295 80.096H269.639V82.664H267.743C267.855 82.84 267.943 83.064 268.007 83.336C268.087 83.608 268.127 83.904 268.127 84.224C268.127 84.912 268.007 85.512 267.767 86.024C267.527 86.52 267.191 86.936 266.759 87.272C266.343 87.592 265.847 87.832 265.271 87.992C264.711 88.152 264.103 88.232 263.447 88.232C262.983 88.232 262.503 88.152 262.007 87.992C261.847 88.12 261.735 88.248 261.671 88.376C261.607 88.504 261.575 88.672 261.575 88.88C261.575 89.184 261.703 89.408 261.959 89.552C262.231 89.696 262.703 89.768 263.375 89.768H265.295C266.767 89.768 267.887 90.008 268.655 90.488C269.439 90.952 269.831 91.72 269.831 92.792C269.831 93.416 269.671 93.984 269.351 94.496C269.047 95.024 268.607 95.472 268.031 95.84C267.455 96.224 266.759 96.52 265.943 96.728C265.127 96.952 264.207 97.064 263.183 97.064ZM263.447 86.096C263.911 86.096 264.295 85.936 264.599 85.616C264.919 85.28 265.079 84.776 265.079 84.104C265.079 83.48 264.919 83.008 264.599 82.688C264.295 82.352 263.911 82.184 263.447 82.184C262.983 82.184 262.591 82.344 262.271 82.664C261.967 82.984 261.815 83.464 261.815 84.104C261.815 84.776 261.967 85.28 262.271 85.616C262.591 85.936 262.983 86.096 263.447 86.096ZM263.735 94.856C264.535 94.856 265.191 94.712 265.703 94.424C266.215 94.152 266.471 93.808 266.471 93.392C266.471 93.024 266.311 92.776 265.991 92.648C265.687 92.52 265.239 92.456 264.647 92.456H263.423C263.007 92.456 262.671 92.44 262.415 92.408C262.159 92.392 261.935 92.36 261.743 92.312C261.311 92.696 261.095 93.088 261.095 93.488C261.095 93.936 261.335 94.272 261.815 94.496C262.295 94.736 262.935 94.856 263.735 94.856ZM271.755 92V80.096H274.635L274.875 82.184H274.971C275.403 81.368 275.923 80.768 276.531 80.384C277.139 80 277.747 79.808 278.355 79.808C278.691 79.808 278.963 79.832 279.171 79.88C279.395 79.912 279.595 79.968 279.771 80.048L279.195 83.096C278.971 83.032 278.763 82.984 278.571 82.952C278.379 82.92 278.155 82.904 277.899 82.904C277.451 82.904 276.979 83.064 276.483 83.384C276.003 83.704 275.603 84.272 275.283 85.088V92H271.755ZM286.411 92.288C285.563 92.288 284.771 92.152 284.035 91.88C283.299 91.592 282.659 91.184 282.115 90.656C281.571 90.112 281.147 89.456 280.843 88.688C280.539 87.92 280.387 87.04 280.387 86.048C280.387 85.088 280.547 84.224 280.867 83.456C281.187 82.672 281.603 82.016 282.115 81.488C282.643 80.944 283.243 80.528 283.915 80.24C284.587 79.952 285.283 79.808 286.003 79.808C286.851 79.808 287.587 79.952 288.211 80.24C288.851 80.528 289.379 80.928 289.795 81.44C290.227 81.952 290.547 82.56 290.755 83.264C290.963 83.952 291.067 84.704 291.067 85.52C291.067 85.84 291.051 86.144 291.019 86.432C290.987 86.72 290.955 86.936 290.923 87.08H283.795C283.955 87.944 284.307 88.584 284.851 89C285.411 89.4 286.091 89.6 286.891 89.6C287.739 89.6 288.595 89.336 289.459 88.808L290.635 90.944C290.027 91.36 289.347 91.688 288.595 91.928C287.859 92.168 287.131 92.288 286.411 92.288ZM283.771 84.752H288.067C288.067 84.08 287.915 83.536 287.611 83.12C287.307 82.704 286.795 82.496 286.075 82.496C285.515 82.496 285.019 82.68 284.587 83.048C284.171 83.416 283.899 83.984 283.771 84.752ZM297.009 92.288C296.225 92.288 295.417 92.136 294.585 91.832C293.769 91.528 293.057 91.128 292.449 90.632L294.033 88.424C294.577 88.84 295.097 89.152 295.593 89.36C296.089 89.568 296.593 89.672 297.105 89.672C297.633 89.672 298.017 89.584 298.257 89.408C298.497 89.232 298.617 88.984 298.617 88.664C298.617 88.472 298.545 88.304 298.401 88.16C298.273 88 298.089 87.856 297.849 87.728C297.625 87.6 297.369 87.488 297.081 87.392C296.793 87.28 296.497 87.16 296.193 87.032C295.825 86.888 295.457 86.72 295.089 86.528C294.721 86.336 294.385 86.104 294.081 85.832C293.777 85.544 293.529 85.216 293.337 84.848C293.145 84.464 293.049 84.024 293.049 83.528C293.049 82.984 293.153 82.48 293.361 82.016C293.585 81.552 293.897 81.16 294.297 80.84C294.697 80.52 295.177 80.272 295.737 80.096C296.297 79.904 296.921 79.808 297.609 79.808C298.521 79.808 299.321 79.968 300.009 80.288C300.697 80.592 301.297 80.936 301.809 81.32L300.225 83.432C299.793 83.112 299.369 82.864 298.953 82.688C298.537 82.512 298.121 82.424 297.705 82.424C296.809 82.424 296.361 82.736 296.361 83.36C296.361 83.552 296.425 83.72 296.553 83.864C296.681 83.992 296.849 84.112 297.057 84.224C297.281 84.336 297.529 84.448 297.801 84.56C298.089 84.656 298.385 84.76 298.689 84.872C299.073 85.016 299.449 85.184 299.817 85.376C300.201 85.552 300.545 85.776 300.849 86.048C301.169 86.32 301.425 86.656 301.617 87.056C301.809 87.44 301.905 87.904 301.905 88.448C301.905 88.992 301.801 89.496 301.593 89.96C301.385 90.424 301.073 90.832 300.657 91.184C300.241 91.52 299.729 91.792 299.121 92C298.513 92.192 297.809 92.288 297.009 92.288ZM307.65 92.288C306.866 92.288 306.058 92.136 305.226 91.832C304.41 91.528 303.698 91.128 303.09 90.632L304.674 88.424C305.218 88.84 305.738 89.152 306.234 89.36C306.73 89.568 307.234 89.672 307.746 89.672C308.274 89.672 308.658 89.584 308.898 89.408C309.138 89.232 309.258 88.984 309.258 88.664C309.258 88.472 309.186 88.304 309.042 88.16C308.914 88 308.73 87.856 308.49 87.728C308.266 87.6 308.01 87.488 307.722 87.392C307.434 87.28 307.138 87.16 306.834 87.032C306.466 86.888 306.098 86.72 305.73 86.528C305.362 86.336 305.026 86.104 304.722 85.832C304.418 85.544 304.17 85.216 303.978 84.848C303.786 84.464 303.69 84.024 303.69 83.528C303.69 82.984 303.794 82.48 304.002 82.016C304.226 81.552 304.538 81.16 304.938 80.84C305.338 80.52 305.818 80.272 306.378 80.096C306.938 79.904 307.562 79.808 308.25 79.808C309.162 79.808 309.962 79.968 310.65 80.288C311.338 80.592 311.938 80.936 312.45 81.32L310.866 83.432C310.434 83.112 310.01 82.864 309.594 82.688C309.178 82.512 308.762 82.424 308.346 82.424C307.45 82.424 307.002 82.736 307.002 83.36C307.002 83.552 307.066 83.72 307.194 83.864C307.322 83.992 307.49 84.112 307.698 84.224C307.922 84.336 308.17 84.448 308.442 84.56C308.73 84.656 309.026 84.76 309.33 84.872C309.714 85.016 310.09 85.184 310.458 85.376C310.842 85.552 311.186 85.776 311.49 86.048C311.81 86.32 312.066 86.656 312.258 87.056C312.45 87.44 312.546 87.904 312.546 88.448C312.546 88.992 312.442 89.496 312.234 89.96C312.026 90.424 311.714 90.832 311.298 91.184C310.882 91.52 310.37 91.792 309.762 92C309.154 92.192 308.45 92.288 307.65 92.288Z" fill="white"/>
</g>
<g filter="url(#filter2_d)">
<path d="M125.879 159V143.352H130.295C131.495 143.352 132.575 143.504 133.535 143.808C134.495 144.112 135.319 144.584 136.007 145.224C136.695 145.848 137.223 146.648 137.591 147.624C137.959 148.6 138.143 149.76 138.143 151.104C138.143 152.448 137.959 153.616 137.591 154.608C137.223 155.6 136.703 156.424 136.031 157.08C135.359 157.72 134.551 158.2 133.607 158.52C132.679 158.84 131.639 159 130.487 159H125.879ZM129.407 156.144H130.079C130.751 156.144 131.359 156.056 131.903 155.88C132.447 155.704 132.911 155.424 133.295 155.04C133.679 154.64 133.975 154.12 134.183 153.48C134.407 152.84 134.519 152.048 134.519 151.104C134.519 150.176 134.407 149.4 134.183 148.776C133.975 148.136 133.679 147.632 133.295 147.264C132.911 146.88 132.447 146.608 131.903 146.448C131.359 146.288 130.751 146.208 130.079 146.208H129.407V156.144ZM146.154 159.288C145.306 159.288 144.514 159.152 143.778 158.88C143.042 158.592 142.402 158.184 141.858 157.656C141.314 157.112 140.89 156.456 140.586 155.688C140.282 154.92 140.13 154.04 140.13 153.048C140.13 152.088 140.29 151.224 140.61 150.456C140.93 149.672 141.346 149.016 141.858 148.488C142.386 147.944 142.986 147.528 143.658 147.24C144.33 146.952 145.026 146.808 145.746 146.808C146.594 146.808 147.33 146.952 147.954 147.24C148.594 147.528 149.122 147.928 149.538 148.44C149.97 148.952 150.29 149.56 150.498 150.264C150.706 150.952 150.81 151.704 150.81 152.52C150.81 152.84 150.794 153.144 150.762 153.432C150.73 153.72 150.698 153.936 150.666 154.08H143.538C143.698 154.944 144.05 155.584 144.594 156C145.154 156.4 145.834 156.6 146.634 156.6C147.482 156.6 148.338 156.336 149.202 155.808L150.378 157.944C149.77 158.36 149.09 158.688 148.338 158.928C147.602 159.168 146.874 159.288 146.154 159.288ZM143.514 151.752H147.81C147.81 151.08 147.658 150.536 147.354 150.12C147.05 149.704 146.538 149.496 145.818 149.496C145.258 149.496 144.762 149.68 144.33 150.048C143.914 150.416 143.642 150.984 143.514 151.752ZM155.843 159L151.835 147.096H155.387L156.923 152.712C157.083 153.304 157.235 153.912 157.379 154.536C157.539 155.144 157.699 155.76 157.859 156.384H157.955C158.099 155.76 158.243 155.144 158.387 154.536C158.547 153.912 158.707 153.304 158.867 152.712L160.427 147.096H163.811L159.923 159H155.843ZM170.81 159.288C169.962 159.288 169.17 159.152 168.434 158.88C167.698 158.592 167.058 158.184 166.514 157.656C165.97 157.112 165.546 156.456 165.242 155.688C164.938 154.92 164.786 154.04 164.786 153.048C164.786 152.088 164.946 151.224 165.266 150.456C165.586 149.672 166.002 149.016 166.514 148.488C167.042 147.944 167.642 147.528 168.314 147.24C168.986 146.952 169.682 146.808 170.402 146.808C171.25 146.808 171.986 146.952 172.61 147.24C173.25 147.528 173.778 147.928 174.194 148.44C174.626 148.952 174.946 149.56 175.154 150.264C175.362 150.952 175.466 151.704 175.466 152.52C175.466 152.84 175.45 153.144 175.418 153.432C175.386 153.72 175.354 153.936 175.322 154.08H168.194C168.354 154.944 168.706 155.584 169.25 156C169.81 156.4 170.49 156.6 171.29 156.6C172.138 156.6 172.994 156.336 173.858 155.808L175.034 157.944C174.426 158.36 173.746 158.688 172.994 158.928C172.258 159.168 171.53 159.288 170.81 159.288ZM168.17 151.752H172.466C172.466 151.08 172.314 150.536 172.01 150.12C171.706 149.704 171.194 149.496 170.474 149.496C169.914 149.496 169.418 149.68 168.986 150.048C168.57 150.416 168.298 150.984 168.17 151.752ZM181.144 159.288C180.536 159.288 180.024 159.192 179.608 159C179.192 158.808 178.856 158.544 178.6 158.208C178.36 157.856 178.184 157.44 178.072 156.96C177.96 156.464 177.904 155.912 177.904 155.304V142.176H181.432V155.448C181.432 155.816 181.496 156.072 181.624 156.216C181.768 156.36 181.912 156.432 182.056 156.432C182.136 156.432 182.2 156.432 182.248 156.432C182.312 156.432 182.392 156.416 182.488 156.384L182.92 159C182.728 159.08 182.48 159.144 182.176 159.192C181.888 159.256 181.544 159.288 181.144 159.288ZM189.883 159.288C189.131 159.288 188.403 159.152 187.699 158.88C186.995 158.592 186.371 158.184 185.827 157.656C185.299 157.128 184.875 156.48 184.555 155.712C184.235 154.928 184.075 154.04 184.075 153.048C184.075 152.056 184.235 151.176 184.555 150.408C184.875 149.624 185.299 148.968 185.827 148.44C186.371 147.912 186.995 147.512 187.699 147.24C188.403 146.952 189.131 146.808 189.883 146.808C190.635 146.808 191.355 146.952 192.043 147.24C192.747 147.512 193.363 147.912 193.891 148.44C194.435 148.968 194.867 149.624 195.187 150.408C195.507 151.176 195.667 152.056 195.667 153.048C195.667 154.04 195.507 154.928 195.187 155.712C194.867 156.48 194.435 157.128 193.891 157.656C193.363 158.184 192.747 158.592 192.043 158.88C191.355 159.152 190.635 159.288 189.883 159.288ZM189.883 156.432C190.603 156.432 191.147 156.128 191.515 155.52C191.883 154.912 192.067 154.088 192.067 153.048C192.067 152.008 191.883 151.184 191.515 150.576C191.147 149.968 190.603 149.664 189.883 149.664C189.147 149.664 188.595 149.968 188.227 150.576C187.875 151.184 187.699 152.008 187.699 153.048C187.699 154.088 187.875 154.912 188.227 155.52C188.595 156.128 189.147 156.432 189.883 156.432ZM198.083 163.416V147.096H200.963L201.203 148.272H201.299C201.763 147.856 202.283 147.512 202.859 147.24C203.451 146.952 204.059 146.808 204.683 146.808C205.403 146.808 206.051 146.952 206.627 147.24C207.203 147.528 207.691 147.936 208.091 148.464C208.491 148.992 208.795 149.632 209.003 150.384C209.227 151.12 209.339 151.944 209.339 152.856C209.339 153.88 209.195 154.792 208.907 155.592C208.635 156.376 208.259 157.048 207.779 157.608C207.315 158.152 206.779 158.568 206.171 158.856C205.579 159.144 204.963 159.288 204.323 159.288C203.811 159.288 203.315 159.184 202.835 158.976C202.355 158.752 201.907 158.44 201.491 158.04L201.611 159.936V163.416H198.083ZM203.507 156.408C204.115 156.408 204.635 156.136 205.067 155.592C205.499 155.032 205.715 154.136 205.715 152.904C205.715 150.76 205.027 149.688 203.651 149.688C202.963 149.688 202.283 150.048 201.611 150.768V155.64C201.931 155.928 202.251 156.128 202.571 156.24C202.891 156.352 203.203 156.408 203.507 156.408ZM217.169 159.288C216.321 159.288 215.529 159.152 214.793 158.88C214.057 158.592 213.417 158.184 212.873 157.656C212.329 157.112 211.905 156.456 211.601 155.688C211.297 154.92 211.145 154.04 211.145 153.048C211.145 152.088 211.305 151.224 211.625 150.456C211.945 149.672 212.361 149.016 212.873 148.488C213.401 147.944 214.001 147.528 214.673 147.24C215.345 146.952 216.041 146.808 216.761 146.808C217.609 146.808 218.345 146.952 218.969 147.24C219.609 147.528 220.137 147.928 220.553 148.44C220.985 148.952 221.305 149.56 221.513 150.264C221.721 150.952 221.825 151.704 221.825 152.52C221.825 152.84 221.809 153.144 221.777 153.432C221.745 153.72 221.713 153.936 221.681 154.08H214.553C214.713 154.944 215.065 155.584 215.609 156C216.169 156.4 216.849 156.6 217.649 156.6C218.497 156.6 219.353 156.336 220.217 155.808L221.393 157.944C220.785 158.36 220.105 158.688 219.353 158.928C218.617 159.168 217.889 159.288 217.169 159.288ZM214.529 151.752H218.825C218.825 151.08 218.673 150.536 218.369 150.12C218.065 149.704 217.553 149.496 216.833 149.496C216.273 149.496 215.777 149.68 215.345 150.048C214.929 150.416 214.657 150.984 214.529 151.752ZM224.263 159V147.096H227.143L227.383 149.184H227.479C227.911 148.368 228.431 147.768 229.039 147.384C229.647 147 230.255 146.808 230.863 146.808C231.199 146.808 231.471 146.832 231.679 146.88C231.903 146.912 232.103 146.968 232.279 147.048L231.703 150.096C231.479 150.032 231.271 149.984 231.079 149.952C230.887 149.92 230.663 149.904 230.407 149.904C229.959 149.904 229.487 150.064 228.991 150.384C228.511 150.704 228.111 151.272 227.791 152.088V159H224.263ZM238.918 159V143.352H244.294C245.158 143.352 245.966 143.44 246.718 143.616C247.47 143.776 248.126 144.056 248.686 144.456C249.246 144.84 249.686 145.36 250.006 146.016C250.342 146.656 250.51 147.448 250.51 148.392C250.51 149.304 250.342 150.096 250.006 150.768C249.686 151.44 249.246 151.992 248.686 152.424C248.126 152.856 247.478 153.176 246.742 153.384C246.006 153.592 245.222 153.696 244.39 153.696H242.446V159H238.918ZM242.446 150.888H244.174C246.094 150.888 247.054 150.056 247.054 148.392C247.054 147.576 246.798 147 246.286 146.664C245.774 146.328 245.038 146.16 244.078 146.16H242.446V150.888ZM257.524 159.288C256.772 159.288 256.044 159.152 255.34 158.88C254.636 158.592 254.012 158.184 253.468 157.656C252.94 157.128 252.516 156.48 252.196 155.712C251.876 154.928 251.716 154.04 251.716 153.048C251.716 152.056 251.876 151.176 252.196 150.408C252.516 149.624 252.94 148.968 253.468 148.44C254.012 147.912 254.636 147.512 255.34 147.24C256.044 146.952 256.772 146.808 257.524 146.808C258.276 146.808 258.996 146.952 259.684 147.24C260.388 147.512 261.004 147.912 261.532 148.44C262.076 148.968 262.508 149.624 262.828 150.408C263.148 151.176 263.308 152.056 263.308 153.048C263.308 154.04 263.148 154.928 262.828 155.712C262.508 156.48 262.076 157.128 261.532 157.656C261.004 158.184 260.388 158.592 259.684 158.88C258.996 159.152 258.276 159.288 257.524 159.288ZM257.524 156.432C258.244 156.432 258.788 156.128 259.156 155.52C259.524 154.912 259.708 154.088 259.708 153.048C259.708 152.008 259.524 151.184 259.156 150.576C258.788 149.968 258.244 149.664 257.524 149.664C256.788 149.664 256.236 149.968 255.868 150.576C255.516 151.184 255.34 152.008 255.34 153.048C255.34 154.088 255.516 154.912 255.868 155.52C256.236 156.128 256.788 156.432 257.524 156.432ZM265.724 159V147.096H268.604L268.844 149.184H268.94C269.372 148.368 269.892 147.768 270.5 147.384C271.108 147 271.716 146.808 272.324 146.808C272.66 146.808 272.932 146.832 273.14 146.88C273.364 146.912 273.564 146.968 273.74 147.048L273.164 150.096C272.94 150.032 272.732 149.984 272.54 149.952C272.348 149.92 272.124 149.904 271.868 149.904C271.42 149.904 270.948 150.064 270.452 150.384C269.972 150.704 269.572 151.272 269.252 152.088V159H265.724ZM279.871 159.288C279.135 159.288 278.503 159.176 277.975 158.952C277.463 158.728 277.039 158.416 276.703 158.016C276.383 157.616 276.143 157.136 275.983 156.576C275.839 156 275.767 155.368 275.767 154.68V149.856H274.135V147.24L275.959 147.096L276.367 143.928H279.295V147.096H282.151V149.856H279.295V154.632C279.295 155.304 279.431 155.792 279.703 156.096C279.991 156.384 280.367 156.528 280.831 156.528C281.023 156.528 281.215 156.504 281.407 156.456C281.615 156.408 281.799 156.352 281.959 156.288L282.511 158.856C282.191 158.952 281.815 159.048 281.383 159.144C280.951 159.24 280.447 159.288 279.871 159.288ZM287.005 159.288C286.461 159.288 285.965 159.192 285.517 159C285.085 158.824 284.717 158.576 284.413 158.256C284.109 157.92 283.869 157.536 283.693 157.104C283.533 156.672 283.453 156.2 283.453 155.688C283.453 154.44 283.981 153.464 285.037 152.76C286.093 152.056 287.797 151.584 290.149 151.344C290.117 150.816 289.957 150.4 289.669 150.096C289.397 149.776 288.933 149.616 288.277 149.616C287.765 149.616 287.253 149.712 286.741 149.904C286.245 150.096 285.709 150.36 285.133 150.696L283.861 148.368C284.629 147.904 285.429 147.528 286.261 147.24C287.109 146.952 288.005 146.808 288.949 146.808C290.485 146.808 291.653 147.248 292.453 148.128C293.269 148.992 293.677 150.344 293.677 152.184V159H290.797L290.557 157.776H290.461C289.949 158.224 289.413 158.592 288.853 158.88C288.293 159.152 287.677 159.288 287.005 159.288ZM288.205 156.552C288.605 156.552 288.949 156.464 289.237 156.288C289.525 156.112 289.829 155.864 290.149 155.544V153.456C288.901 153.632 288.037 153.888 287.557 154.224C287.077 154.56 286.837 154.96 286.837 155.424C286.837 155.808 286.957 156.096 287.197 156.288C287.453 156.464 287.789 156.552 288.205 156.552ZM299.902 159.288C299.294 159.288 298.782 159.192 298.366 159C297.95 158.808 297.614 158.544 297.358 158.208C297.118 157.856 296.942 157.44 296.83 156.96C296.718 156.464 296.662 155.912 296.662 155.304V142.176H300.19V155.448C300.19 155.816 300.254 156.072 300.382 156.216C300.526 156.36 300.67 156.432 300.814 156.432C300.894 156.432 300.958 156.432 301.006 156.432C301.07 156.432 301.15 156.416 301.246 156.384L301.678 159C301.486 159.08 301.238 159.144 300.934 159.192C300.646 159.256 300.302 159.288 299.902 159.288Z" fill="white"/>
</g>
<g filter="url(#filter3_d)">
<path d="M102.848 225V209.352H106.376V225H102.848ZM114.027 225.288C113.291 225.288 112.619 225.144 112.011 224.856C111.419 224.568 110.907 224.16 110.475 223.632C110.059 223.088 109.731 222.432 109.491 221.664C109.267 220.896 109.155 220.024 109.155 219.048C109.155 218.072 109.291 217.2 109.563 216.432C109.851 215.664 110.219 215.016 110.667 214.488C111.131 213.944 111.659 213.528 112.251 213.24C112.859 212.952 113.475 212.808 114.099 212.808C114.771 212.808 115.323 212.92 115.755 213.144C116.187 213.368 116.611 213.672 117.027 214.056L116.883 212.232V208.176H120.411V225H117.531L117.291 223.824H117.195C116.779 224.24 116.291 224.592 115.731 224.88C115.171 225.152 114.603 225.288 114.027 225.288ZM114.939 222.408C115.323 222.408 115.667 222.328 115.971 222.168C116.291 222.008 116.595 221.728 116.883 221.328V216.456C116.563 216.168 116.235 215.968 115.899 215.856C115.563 215.744 115.235 215.688 114.915 215.688C114.355 215.688 113.859 215.96 113.427 216.504C112.995 217.032 112.779 217.864 112.779 219C112.779 220.184 112.963 221.048 113.331 221.592C113.715 222.136 114.251 222.408 114.939 222.408ZM128.865 225.288C128.017 225.288 127.225 225.152 126.489 224.88C125.753 224.592 125.113 224.184 124.569 223.656C124.025 223.112 123.601 222.456 123.297 221.688C122.993 220.92 122.841 220.04 122.841 219.048C122.841 218.088 123.001 217.224 123.321 216.456C123.641 215.672 124.057 215.016 124.569 214.488C125.097 213.944 125.697 213.528 126.369 213.24C127.041 212.952 127.737 212.808 128.457 212.808C129.305 212.808 130.041 212.952 130.665 213.24C131.305 213.528 131.833 213.928 132.249 214.44C132.681 214.952 133.001 215.56 133.209 216.264C133.417 216.952 133.521 217.704 133.521 218.52C133.521 218.84 133.505 219.144 133.473 219.432C133.441 219.72 133.409 219.936 133.377 220.08H126.249C126.409 220.944 126.761 221.584 127.305 222C127.865 222.4 128.545 222.6 129.345 222.6C130.193 222.6 131.049 222.336 131.913 221.808L133.089 223.944C132.481 224.36 131.801 224.688 131.049 224.928C130.313 225.168 129.585 225.288 128.865 225.288ZM126.225 217.752H130.521C130.521 217.08 130.369 216.536 130.065 216.12C129.761 215.704 129.249 215.496 128.529 215.496C127.969 215.496 127.473 215.68 127.041 216.048C126.625 216.416 126.353 216.984 126.225 217.752ZM135.958 225V213.096H138.838L139.078 214.608H139.174C139.686 214.128 140.246 213.712 140.854 213.36C141.462 212.992 142.174 212.808 142.99 212.808C144.286 212.808 145.222 213.232 145.798 214.08C146.39 214.928 146.686 216.104 146.686 217.608V225H143.158V218.064C143.158 217.2 143.038 216.608 142.798 216.288C142.574 215.968 142.206 215.808 141.694 215.808C141.246 215.808 140.862 215.912 140.542 216.12C140.222 216.312 139.87 216.592 139.486 216.96V225H135.958ZM154.277 225.288C153.541 225.288 152.909 225.176 152.381 224.952C151.869 224.728 151.445 224.416 151.109 224.016C150.789 223.616 150.549 223.136 150.389 222.576C150.245 222 150.173 221.368 150.173 220.68V215.856H148.541V213.24L150.365 213.096L150.773 209.928H153.701V213.096H156.557V215.856H153.701V220.632C153.701 221.304 153.837 221.792 154.109 222.096C154.397 222.384 154.773 222.528 155.237 222.528C155.429 222.528 155.621 222.504 155.813 222.456C156.021 222.408 156.205 222.352 156.365 222.288L156.917 224.856C156.597 224.952 156.221 225.048 155.789 225.144C155.357 225.24 154.853 225.288 154.277 225.288ZM158.88 225V213.096H162.408V225H158.88ZM160.632 211.344C160.04 211.344 159.552 211.176 159.168 210.84C158.784 210.488 158.592 210.04 158.592 209.496C158.592 208.952 158.784 208.512 159.168 208.176C159.552 207.84 160.04 207.672 160.632 207.672C161.24 207.672 161.728 207.84 162.096 208.176C162.48 208.512 162.672 208.952 162.672 209.496C162.672 210.04 162.48 210.488 162.096 210.84C161.728 211.176 161.24 211.344 160.632 211.344ZM170.097 225.288C169.361 225.288 168.729 225.176 168.201 224.952C167.689 224.728 167.265 224.416 166.929 224.016C166.609 223.616 166.369 223.136 166.209 222.576C166.065 222 165.993 221.368 165.993 220.68V215.856H164.361V213.24L166.185 213.096L166.593 209.928H169.521V213.096H172.377V215.856H169.521V220.632C169.521 221.304 169.657 221.792 169.929 222.096C170.217 222.384 170.593 222.528 171.057 222.528C171.249 222.528 171.441 222.504 171.633 222.456C171.841 222.408 172.025 222.352 172.185 222.288L172.737 224.856C172.417 224.952 172.041 225.048 171.609 225.144C171.177 225.24 170.673 225.288 170.097 225.288ZM176.021 229.656C175.653 229.656 175.341 229.632 175.085 229.584C174.829 229.552 174.581 229.496 174.341 229.416L174.965 226.728C175.077 226.76 175.205 226.792 175.349 226.824C175.493 226.856 175.629 226.872 175.757 226.872C176.349 226.872 176.805 226.728 177.125 226.44C177.445 226.152 177.685 225.776 177.845 225.312L178.013 224.688L173.429 213.096H176.981L178.685 218.208C178.861 218.752 179.021 219.304 179.165 219.864C179.309 220.424 179.461 221 179.621 221.592H179.717C179.845 221.032 179.973 220.472 180.101 219.912C180.245 219.336 180.389 218.768 180.533 218.208L181.973 213.096H185.357L181.229 225.12C180.941 225.872 180.637 226.528 180.317 227.088C180.013 227.664 179.653 228.136 179.237 228.504C178.837 228.888 178.373 229.176 177.845 229.368C177.333 229.56 176.725 229.656 176.021 229.656ZM195.981 217.08L195.597 218.52H198.933L198.573 217.08C198.349 216.296 198.133 215.464 197.925 214.584C197.717 213.704 197.509 212.856 197.301 212.04H197.205C197.013 212.872 196.813 213.728 196.605 214.608C196.413 215.472 196.205 216.296 195.981 217.08ZM190.317 225L195.213 209.352H199.461L204.357 225H200.613L199.653 221.28H194.877L193.917 225H190.317ZM207.583 225L204.607 213.096H208.111L209.263 218.616C209.359 219.208 209.447 219.792 209.527 220.368C209.607 220.944 209.695 221.536 209.791 222.144H209.887C209.999 221.536 210.103 220.936 210.199 220.344C210.311 219.752 210.439 219.176 210.583 218.616L211.903 213.096H214.951L216.295 218.616C216.439 219.208 216.567 219.792 216.679 220.368C216.791 220.944 216.911 221.536 217.039 222.144H217.135C217.247 221.536 217.335 220.944 217.399 220.368C217.479 219.792 217.575 219.208 217.687 218.616L218.815 213.096H222.079L219.223 225H215.095L214.015 220.248C213.887 219.688 213.775 219.128 213.679 218.568C213.583 218.008 213.479 217.408 213.367 216.768H213.271C213.159 217.408 213.055 218.008 212.959 218.568C212.879 219.128 212.783 219.688 212.671 220.248L211.615 225H207.583ZM226.99 225.288C226.446 225.288 225.95 225.192 225.502 225C225.07 224.824 224.702 224.576 224.398 224.256C224.094 223.92 223.854 223.536 223.678 223.104C223.518 222.672 223.438 222.2 223.438 221.688C223.438 220.44 223.966 219.464 225.022 218.76C226.078 218.056 227.782 217.584 230.134 217.344C230.102 216.816 229.942 216.4 229.654 216.096C229.382 215.776 228.918 215.616 228.262 215.616C227.75 215.616 227.238 215.712 226.726 215.904C226.23 216.096 225.694 216.36 225.118 216.696L223.846 214.368C224.614 213.904 225.414 213.528 226.246 213.24C227.094 212.952 227.99 212.808 228.934 212.808C230.47 212.808 231.638 213.248 232.438 214.128C233.254 214.992 233.662 216.344 233.662 218.184V225H230.782L230.542 223.776H230.446C229.934 224.224 229.398 224.592 228.838 224.88C228.278 225.152 227.662 225.288 226.99 225.288ZM228.19 222.552C228.59 222.552 228.934 222.464 229.222 222.288C229.51 222.112 229.814 221.864 230.134 221.544V219.456C228.886 219.632 228.022 219.888 227.542 220.224C227.062 220.56 226.822 220.96 226.822 221.424C226.822 221.808 226.942 222.096 227.182 222.288C227.438 222.464 227.774 222.552 228.19 222.552ZM236.646 225V213.096H239.526L239.766 215.184H239.862C240.294 214.368 240.814 213.768 241.422 213.384C242.03 213 242.638 212.808 243.246 212.808C243.582 212.808 243.854 212.832 244.062 212.88C244.286 212.912 244.486 212.968 244.662 213.048L244.086 216.096C243.862 216.032 243.654 215.984 243.462 215.952C243.27 215.92 243.046 215.904 242.79 215.904C242.342 215.904 241.87 216.064 241.374 216.384C240.894 216.704 240.494 217.272 240.174 218.088V225H236.646ZM251.302 225.288C250.454 225.288 249.662 225.152 248.926 224.88C248.19 224.592 247.55 224.184 247.006 223.656C246.462 223.112 246.038 222.456 245.734 221.688C245.43 220.92 245.278 220.04 245.278 219.048C245.278 218.088 245.438 217.224 245.758 216.456C246.078 215.672 246.494 215.016 247.006 214.488C247.534 213.944 248.134 213.528 248.806 213.24C249.478 212.952 250.174 212.808 250.894 212.808C251.742 212.808 252.478 212.952 253.102 213.24C253.742 213.528 254.27 213.928 254.686 214.44C255.118 214.952 255.438 215.56 255.646 216.264C255.854 216.952 255.958 217.704 255.958 218.52C255.958 218.84 255.942 219.144 255.91 219.432C255.878 219.72 255.846 219.936 255.814 220.08H248.686C248.846 220.944 249.198 221.584 249.742 222C250.302 222.4 250.982 222.6 251.782 222.6C252.63 222.6 253.486 222.336 254.35 221.808L255.526 223.944C254.918 224.36 254.238 224.688 253.486 224.928C252.75 225.168 252.022 225.288 251.302 225.288ZM248.662 217.752H252.958C252.958 217.08 252.806 216.536 252.502 216.12C252.198 215.704 251.686 215.496 250.966 215.496C250.406 215.496 249.91 215.68 249.478 216.048C249.062 216.416 248.79 216.984 248.662 217.752ZM263.489 225V209.352H268.865C269.729 209.352 270.537 209.44 271.289 209.616C272.041 209.776 272.697 210.056 273.257 210.456C273.817 210.84 274.257 211.36 274.577 212.016C274.913 212.656 275.081 213.448 275.081 214.392C275.081 215.304 274.913 216.096 274.577 216.768C274.257 217.44 273.817 217.992 273.257 218.424C272.697 218.856 272.049 219.176 271.313 219.384C270.577 219.592 269.793 219.696 268.961 219.696H267.017V225H263.489ZM267.017 216.888H268.745C270.665 216.888 271.625 216.056 271.625 214.392C271.625 213.576 271.369 213 270.857 212.664C270.345 212.328 269.609 212.16 268.649 212.16H267.017V216.888ZM277.498 225V213.096H280.378L280.618 215.184H280.714C281.146 214.368 281.666 213.768 282.273 213.384C282.882 213 283.49 212.808 284.098 212.808C284.434 212.808 284.706 212.832 284.914 212.88C285.138 212.912 285.338 212.968 285.514 213.048L284.938 216.096C284.714 216.032 284.506 215.984 284.314 215.952C284.122 215.92 283.898 215.904 283.642 215.904C283.194 215.904 282.722 216.064 282.226 216.384C281.746 216.704 281.346 217.272 281.026 218.088V225H277.498ZM291.938 225.288C291.186 225.288 290.458 225.152 289.754 224.88C289.05 224.592 288.426 224.184 287.882 223.656C287.354 223.128 286.93 222.48 286.61 221.712C286.29 220.928 286.13 220.04 286.13 219.048C286.13 218.056 286.29 217.176 286.61 216.408C286.93 215.624 287.354 214.968 287.882 214.44C288.426 213.912 289.05 213.512 289.754 213.24C290.458 212.952 291.186 212.808 291.938 212.808C292.69 212.808 293.41 212.952 294.098 213.24C294.802 213.512 295.418 213.912 295.946 214.44C296.49 214.968 296.922 215.624 297.242 216.408C297.562 217.176 297.722 218.056 297.722 219.048C297.722 220.04 297.562 220.928 297.242 221.712C296.922 222.48 296.49 223.128 295.946 223.656C295.418 224.184 294.802 224.592 294.098 224.88C293.41 225.152 292.69 225.288 291.938 225.288ZM291.938 222.432C292.658 222.432 293.202 222.128 293.57 221.52C293.938 220.912 294.122 220.088 294.122 219.048C294.122 218.008 293.938 217.184 293.57 216.576C293.202 215.968 292.658 215.664 291.938 215.664C291.202 215.664 290.65 215.968 290.282 216.576C289.93 217.184 289.754 218.008 289.754 219.048C289.754 220.088 289.93 220.912 290.282 221.52C290.65 222.128 291.202 222.432 291.938 222.432ZM298.281 225L301.929 218.808L298.497 213.096H302.289L303.345 215.016C303.505 215.352 303.665 215.696 303.825 216.048C304.001 216.384 304.177 216.72 304.353 217.056H304.449C304.577 216.72 304.713 216.384 304.857 216.048C305.001 215.696 305.137 215.352 305.265 215.016L306.081 213.096H309.729L306.273 219.216L309.945 225H306.153L305.001 223.032C304.809 222.696 304.617 222.352 304.425 222C304.249 221.648 304.065 221.304 303.873 220.968H303.777C303.633 221.304 303.481 221.648 303.321 222C303.161 222.336 303.009 222.68 302.865 223.032L301.929 225H298.281ZM312.802 229.656C312.434 229.656 312.122 229.632 311.866 229.584C311.61 229.552 311.362 229.496 311.122 229.416L311.746 226.728C311.858 226.76 311.986 226.792 312.13 226.824C312.274 226.856 312.41 226.872 312.538 226.872C313.13 226.872 313.586 226.728 313.906 226.44C314.226 226.152 314.466 225.776 314.626 225.312L314.794 224.688L310.21 213.096H313.762L315.466 218.208C315.642 218.752 315.802 219.304 315.946 219.864C316.09 220.424 316.242 221 316.402 221.592H316.498C316.626 221.032 316.754 220.472 316.882 219.912C317.026 219.336 317.17 218.768 317.314 218.208L318.754 213.096H322.138L318.01 225.12C317.722 225.872 317.418 226.528 317.098 227.088C316.794 227.664 316.434 228.136 316.018 228.504C315.618 228.888 315.154 229.176 314.626 229.368C314.114 229.56 313.506 229.656 312.802 229.656Z" fill="white"/>
</g>
<g filter="url(#filter4_d)">
<path d="M151.52 285.08L151.136 286.52H154.472L154.112 285.08C153.888 284.296 153.672 283.464 153.464 282.584C153.256 281.704 153.048 280.856 152.84 280.04H152.744C152.552 280.872 152.352 281.728 152.144 282.608C151.952 283.472 151.744 284.296 151.52 285.08ZM145.856 293L150.752 277.352H155L159.896 293H156.152L155.192 289.28H150.416L149.456 293H145.856ZM161.606 293V277.352H166.982C167.846 277.352 168.654 277.44 169.406 277.616C170.158 277.776 170.814 278.056 171.374 278.456C171.934 278.84 172.374 279.36 172.694 280.016C173.03 280.656 173.198 281.448 173.198 282.392C173.198 283.304 173.03 284.096 172.694 284.768C172.374 285.44 171.934 285.992 171.374 286.424C170.814 286.856 170.166 287.176 169.43 287.384C168.694 287.592 167.91 287.696 167.078 287.696H165.134V293H161.606ZM165.134 284.888H166.862C168.782 284.888 169.742 284.056 169.742 282.392C169.742 281.576 169.486 281 168.974 280.664C168.462 280.328 167.726 280.16 166.766 280.16H165.134V284.888ZM175.903 293V277.352H179.431V293H175.903ZM194.838 293.288C193.766 293.288 192.758 293.12 191.814 292.784C190.886 292.432 190.078 291.92 189.39 291.248C188.702 290.576 188.158 289.744 187.758 288.752C187.374 287.744 187.182 286.584 187.182 285.272C187.182 283.976 187.382 282.824 187.782 281.816C188.182 280.792 188.726 279.928 189.414 279.224C190.118 278.52 190.934 277.984 191.862 277.616C192.79 277.248 193.774 277.064 194.814 277.064C195.95 277.064 196.926 277.272 197.742 277.688C198.558 278.104 199.222 278.576 199.734 279.104L197.886 281.36C197.486 281.008 197.062 280.712 196.614 280.472C196.166 280.232 195.606 280.112 194.934 280.112C194.326 280.112 193.766 280.232 193.254 280.472C192.758 280.696 192.326 281.024 191.958 281.456C191.59 281.888 191.302 282.416 191.094 283.04C190.902 283.664 190.806 284.368 190.806 285.152C190.806 286.768 191.166 288.024 191.886 288.92C192.622 289.8 193.726 290.24 195.198 290.24C195.518 290.24 195.83 290.2 196.134 290.12C196.438 290.04 196.686 289.92 196.878 289.76V287.072H194.286V284.192H199.998V291.392C199.454 291.92 198.734 292.368 197.838 292.736C196.942 293.104 195.942 293.288 194.838 293.288ZM205.943 293.288C205.399 293.288 204.903 293.192 204.455 293C204.023 292.824 203.655 292.576 203.351 292.256C203.047 291.92 202.807 291.536 202.631 291.104C202.471 290.672 202.391 290.2 202.391 289.688C202.391 288.44 202.919 287.464 203.975 286.76C205.031 286.056 206.735 285.584 209.087 285.344C209.055 284.816 208.895 284.4 208.607 284.096C208.335 283.776 207.871 283.616 207.215 283.616C206.703 283.616 206.191 283.712 205.679 283.904C205.183 284.096 204.647 284.36 204.071 284.696L202.799 282.368C203.567 281.904 204.367 281.528 205.199 281.24C206.047 280.952 206.943 280.808 207.887 280.808C209.423 280.808 210.591 281.248 211.391 282.128C212.207 282.992 212.615 284.344 212.615 286.184V293H209.735L209.495 291.776H209.399C208.887 292.224 208.351 292.592 207.791 292.88C207.231 293.152 206.615 293.288 205.943 293.288ZM207.143 290.552C207.543 290.552 207.887 290.464 208.175 290.288C208.463 290.112 208.767 289.864 209.087 289.544V287.456C207.839 287.632 206.975 287.888 206.495 288.224C206.015 288.56 205.775 288.96 205.775 289.424C205.775 289.808 205.895 290.096 206.135 290.288C206.391 290.464 206.727 290.552 207.143 290.552ZM219.761 293.288C219.025 293.288 218.393 293.176 217.865 292.952C217.353 292.728 216.929 292.416 216.593 292.016C216.273 291.616 216.033 291.136 215.873 290.576C215.729 290 215.657 289.368 215.657 288.68V283.856H214.025V281.24L215.849 281.096L216.257 277.928H219.185V281.096H222.041V283.856H219.185V288.632C219.185 289.304 219.321 289.792 219.593 290.096C219.881 290.384 220.257 290.528 220.721 290.528C220.913 290.528 221.105 290.504 221.297 290.456C221.505 290.408 221.689 290.352 221.849 290.288L222.401 292.856C222.081 292.952 221.705 293.048 221.273 293.144C220.841 293.24 220.337 293.288 219.761 293.288ZM229.271 293.288C228.423 293.288 227.631 293.152 226.895 292.88C226.159 292.592 225.519 292.184 224.975 291.656C224.431 291.112 224.007 290.456 223.703 289.688C223.399 288.92 223.247 288.04 223.247 287.048C223.247 286.088 223.407 285.224 223.727 284.456C224.047 283.672 224.463 283.016 224.975 282.488C225.503 281.944 226.103 281.528 226.775 281.24C227.447 280.952 228.143 280.808 228.863 280.808C229.711 280.808 230.447 280.952 231.071 281.24C231.711 281.528 232.239 281.928 232.655 282.44C233.087 282.952 233.407 283.56 233.615 284.264C233.823 284.952 233.927 285.704 233.927 286.52C233.927 286.84 233.911 287.144 233.879 287.432C233.847 287.72 233.815 287.936 233.783 288.08H226.655C226.815 288.944 227.167 289.584 227.711 290C228.271 290.4 228.951 290.6 229.751 290.6C230.599 290.6 231.455 290.336 232.319 289.808L233.495 291.944C232.887 292.36 232.207 292.688 231.455 292.928C230.719 293.168 229.991 293.288 229.271 293.288ZM226.631 285.752H230.927C230.927 285.08 230.775 284.536 230.471 284.12C230.167 283.704 229.655 283.496 228.935 283.496C228.375 283.496 227.879 283.68 227.447 284.048C227.031 284.416 226.759 284.984 226.631 285.752ZM238.216 293L235.24 281.096H238.744L239.896 286.616C239.992 287.208 240.08 287.792 240.16 288.368C240.24 288.944 240.328 289.536 240.424 290.144H240.52C240.632 289.536 240.736 288.936 240.832 288.344C240.944 287.752 241.072 287.176 241.216 286.616L242.536 281.096H245.584L246.928 286.616C247.072 287.208 247.2 287.792 247.312 288.368C247.424 288.944 247.544 289.536 247.672 290.144H247.768C247.88 289.536 247.968 288.944 248.032 288.368C248.112 287.792 248.208 287.208 248.32 286.616L249.448 281.096H252.712L249.856 293H245.728L244.648 288.248C244.52 287.688 244.408 287.128 244.312 286.568C244.216 286.008 244.112 285.408 244 284.768H243.904C243.792 285.408 243.688 286.008 243.592 286.568C243.512 287.128 243.416 287.688 243.304 288.248L242.248 293H238.216ZM257.623 293.288C257.079 293.288 256.583 293.192 256.135 293C255.703 292.824 255.335 292.576 255.031 292.256C254.727 291.92 254.487 291.536 254.311 291.104C254.151 290.672 254.071 290.2 254.071 289.688C254.071 288.44 254.599 287.464 255.655 286.76C256.711 286.056 258.415 285.584 260.767 285.344C260.735 284.816 260.575 284.4 260.287 284.096C260.015 283.776 259.551 283.616 258.895 283.616C258.383 283.616 257.871 283.712 257.359 283.904C256.863 284.096 256.327 284.36 255.751 284.696L254.479 282.368C255.247 281.904 256.047 281.528 256.879 281.24C257.727 280.952 258.623 280.808 259.567 280.808C261.103 280.808 262.271 281.248 263.071 282.128C263.887 282.992 264.295 284.344 264.295 286.184V293H261.415L261.175 291.776H261.079C260.567 292.224 260.031 292.592 259.471 292.88C258.911 293.152 258.295 293.288 257.623 293.288ZM258.823 290.552C259.223 290.552 259.567 290.464 259.855 290.288C260.143 290.112 260.447 289.864 260.767 289.544V287.456C259.519 287.632 258.655 287.888 258.175 288.224C257.695 288.56 257.455 288.96 257.455 289.424C257.455 289.808 257.575 290.096 257.815 290.288C258.071 290.464 258.407 290.552 258.823 290.552ZM268.599 297.656C268.231 297.656 267.919 297.632 267.663 297.584C267.407 297.552 267.159 297.496 266.919 297.416L267.543 294.728C267.655 294.76 267.783 294.792 267.927 294.824C268.071 294.856 268.207 294.872 268.335 294.872C268.927 294.872 269.383 294.728 269.703 294.44C270.023 294.152 270.263 293.776 270.423 293.312L270.591 292.688L266.007 281.096H269.559L271.263 286.208C271.439 286.752 271.599 287.304 271.743 287.864C271.887 288.424 272.039 289 272.199 289.592H272.295C272.423 289.032 272.551 288.472 272.679 287.912C272.823 287.336 272.967 286.768 273.111 286.208L274.551 281.096H277.935L273.807 293.12C273.519 293.872 273.215 294.528 272.895 295.088C272.591 295.664 272.231 296.136 271.815 296.504C271.415 296.888 270.951 297.176 270.423 297.368C269.911 297.56 269.303 297.656 268.599 297.656Z" fill="white"/>
</g>
<path d="M461 72.704H467.096L476.744 67.976V70.112L472.304 72.152C471.728 72.408 471.16 72.656 470.6 72.896C470.04 73.136 469.464 73.392 468.872 73.664V73.76C469.464 74.032 470.04 74.304 470.6 74.576C471.16 74.848 471.728 75.104 472.304 75.344L476.744 77.36V79.448L467.096 74.72H461V72.704ZM460.712 84.9337C460.712 84.2137 460.848 83.5257 461.12 82.8697C461.392 82.2297 461.784 81.6617 462.296 81.1657C462.824 80.6697 463.464 80.2697 464.216 79.9657C464.984 79.6777 465.848 79.5337 466.808 79.5337C467.784 79.5337 468.648 79.6777 469.4 79.9657C470.168 80.2697 470.816 80.6697 471.344 81.1657C471.872 81.6617 472.272 82.2297 472.544 82.8697C472.816 83.5257 472.952 84.2137 472.952 84.9337C472.952 85.6537 472.816 86.3337 472.544 86.9737C472.272 87.6297 471.872 88.2057 471.344 88.7017C470.816 89.1977 470.168 89.5897 469.4 89.8777C468.648 90.1817 467.784 90.3337 466.808 90.3337C465.848 90.3337 464.984 90.1817 464.216 89.8777C463.464 89.5897 462.824 89.1977 462.296 88.7017C461.784 88.2057 461.392 87.6297 461.12 86.9737C460.848 86.3337 460.712 85.6537 460.712 84.9337ZM462.344 84.9337C462.344 85.4297 462.448 85.8857 462.656 86.3017C462.88 86.7177 463.184 87.0697 463.568 87.3577C463.968 87.6617 464.44 87.8937 464.984 88.0537C465.528 88.2137 466.136 88.2937 466.808 88.2937C467.48 88.2937 468.088 88.2137 468.632 88.0537C469.192 87.8937 469.672 87.6617 470.072 87.3577C470.472 87.0697 470.776 86.7177 470.984 86.3017C471.208 85.8857 471.32 85.4297 471.32 84.9337C471.32 84.4377 471.208 83.9817 470.984 83.5657C470.776 83.1497 470.472 82.7897 470.072 82.4857C469.672 82.1977 469.192 81.9737 468.632 81.8137C468.088 81.6537 467.48 81.5737 466.808 81.5737C466.136 81.5737 465.528 81.6537 464.984 81.8137C464.44 81.9737 463.968 82.1977 463.568 82.4857C463.184 82.7897 462.88 83.1497 462.656 83.5657C462.448 83.9817 462.344 84.4377 462.344 84.9337ZM460.712 96.8135C460.712 95.5655 461.096 94.6535 461.864 94.0775C462.632 93.5175 463.768 93.2375 465.272 93.2375H472.664V95.2295H465.536C464.432 95.2295 463.632 95.3975 463.136 95.7335C462.656 96.0855 462.416 96.6455 462.416 97.4135C462.416 98.0215 462.568 98.5575 462.872 99.0215C463.192 99.4855 463.696 99.9975 464.384 100.558H472.664V102.526H461V100.894L462.824 100.726V100.654C462.184 100.11 461.672 99.5335 461.288 98.9255C460.904 98.3335 460.712 97.6295 460.712 96.8135ZM461 106.46H472.664V108.092L470.552 108.26V108.332C471.288 108.732 471.872 109.212 472.304 109.772C472.736 110.348 472.952 110.972 472.952 111.644C472.952 112.108 472.872 112.524 472.712 112.892L470.984 112.508C471.048 112.316 471.096 112.14 471.128 111.98C471.16 111.82 471.176 111.62 471.176 111.38C471.176 110.884 470.976 110.364 470.576 109.82C470.176 109.292 469.48 108.828 468.488 108.428H461V106.46ZM469.808 122.489L467.408 121.745V126.473L469.808 125.729C470.688 125.441 471.56 125.169 472.424 124.913C473.304 124.657 474.2 124.401 475.112 124.145V124.049C474.2 123.809 473.304 123.561 472.424 123.305C471.56 123.049 470.688 122.777 469.808 122.489ZM461 117.689L476.744 123.017V125.273L461 130.601V128.465L465.8 126.977V121.241L461 119.729V117.689ZM460.712 134.728C460.712 133.976 460.936 133.44 461.384 133.12C461.832 132.8 462.488 132.64 463.352 132.64H478.088V134.608H463.208C462.888 134.608 462.664 134.664 462.536 134.776C462.408 134.888 462.344 135.016 462.344 135.16C462.344 135.224 462.344 135.28 462.344 135.328C462.344 135.392 462.36 135.48 462.392 135.592L460.904 135.856C460.84 135.728 460.792 135.576 460.76 135.4C460.728 135.224 460.712 135 460.712 134.728ZM460.712 140.845C460.712 140.093 460.936 139.557 461.384 139.237C461.832 138.917 462.488 138.757 463.352 138.757H478.088V140.725H463.208C462.888 140.725 462.664 140.781 462.536 140.893C462.408 141.005 462.344 141.133 462.344 141.277C462.344 141.341 462.344 141.397 462.344 141.445C462.344 141.509 462.36 141.597 462.392 141.709L460.904 141.973C460.84 141.845 460.792 141.693 460.76 141.517C460.728 141.341 460.712 141.117 460.712 140.845ZM466.256 143.89H467.768V149.41H466.256V143.89ZM461 152.519H476.744V154.511H461V152.519ZM461 158.632H472.664V160.264L470.984 160.432V160.504C471.544 161.064 472.008 161.648 472.376 162.256C472.76 162.88 472.952 163.6 472.952 164.416C472.952 165.648 472.568 166.544 471.8 167.104C471.032 167.68 469.896 167.968 468.392 167.968H461V166H468.128C469.232 166 470.024 165.824 470.504 165.472C471 165.12 471.248 164.56 471.248 163.792C471.248 163.184 471.096 162.648 470.792 162.184C470.488 161.72 470.04 161.192 469.448 160.6H461V158.632ZM466.256 170.773H467.768V176.293H466.256V170.773ZM460.712 185.21C460.712 184.218 460.904 183.306 461.288 182.474C461.672 181.658 462.216 180.954 462.92 180.362C463.64 179.77 464.504 179.306 465.512 178.97C466.536 178.65 467.68 178.49 468.944 178.49C470.208 178.49 471.336 178.65 472.328 178.97C473.336 179.306 474.184 179.77 474.872 180.362C475.576 180.954 476.112 181.658 476.48 182.474C476.848 183.306 477.032 184.218 477.032 185.21C477.032 186.202 476.84 187.106 476.456 187.922C476.088 188.754 475.552 189.466 474.848 190.058C474.16 190.666 473.312 191.13 472.304 191.45C471.312 191.786 470.192 191.954 468.944 191.954C467.68 191.954 466.536 191.786 465.512 191.45C464.504 191.13 463.64 190.666 462.92 190.058C462.216 189.466 461.672 188.754 461.288 187.922C460.904 187.106 460.712 186.202 460.712 185.21ZM462.464 185.21C462.464 185.914 462.616 186.546 462.92 187.106C463.224 187.682 463.656 188.17 464.216 188.57C464.792 188.986 465.472 189.306 466.256 189.53C467.056 189.754 467.952 189.866 468.944 189.866C469.92 189.866 470.8 189.754 471.584 189.53C472.368 189.306 473.032 188.986 473.576 188.57C474.12 188.17 474.536 187.682 474.824 187.106C475.128 186.546 475.28 185.914 475.28 185.21C475.28 184.506 475.128 183.866 474.824 183.29C474.536 182.73 474.12 182.242 473.576 181.826C473.032 181.426 472.368 181.114 471.584 180.89C470.8 180.666 469.92 180.554 468.944 180.554C467.952 180.554 467.056 180.666 466.256 180.89C465.472 181.114 464.792 181.426 464.216 181.826C463.656 182.242 463.224 182.73 462.92 183.29C462.616 183.866 462.464 184.506 462.464 185.21ZM461 195.148H472.664V196.78L470.984 196.948V197.02C471.544 197.58 472.008 198.164 472.376 198.772C472.76 199.396 472.952 200.116 472.952 200.932C472.952 202.164 472.568 203.06 471.8 203.62C471.032 204.196 469.896 204.484 468.392 204.484H461V202.516H468.128C469.232 202.516 470.024 202.34 470.504 201.988C471 201.636 471.248 201.076 471.248 200.308C471.248 199.7 471.096 199.164 470.792 198.7C470.488 198.236 470.04 197.708 469.448 197.116H461V195.148ZM460.712 213.001C460.712 212.217 460.848 211.481 461.12 210.793C461.408 210.121 461.808 209.529 462.32 209.017C462.848 208.521 463.488 208.129 464.24 207.841C464.992 207.553 465.848 207.409 466.808 207.409C467.768 207.409 468.624 207.553 469.376 207.841C470.144 208.145 470.792 208.537 471.32 209.017C471.848 209.513 472.248 210.073 472.52 210.697C472.808 211.321 472.952 211.969 472.952 212.641C472.952 213.377 472.824 214.033 472.568 214.609C472.312 215.201 471.944 215.689 471.464 216.073C470.984 216.473 470.408 216.777 469.736 216.985C469.064 217.193 468.312 217.297 467.48 217.297C467.272 217.297 467.064 217.289 466.856 217.273C466.664 217.273 466.496 217.257 466.352 217.225V209.353C465.104 209.433 464.112 209.817 463.376 210.505C462.656 211.209 462.296 212.121 462.296 213.241C462.296 213.801 462.376 214.313 462.536 214.777C462.712 215.257 462.936 215.713 463.208 216.145L461.912 216.841C461.592 216.329 461.312 215.761 461.072 215.137C460.832 214.513 460.712 213.801 460.712 213.001ZM467.768 209.329V215.569C468.952 215.569 469.848 215.313 470.456 214.801C471.08 214.305 471.392 213.601 471.392 212.689C471.392 212.273 471.312 211.873 471.152 211.489C470.992 211.121 470.752 210.785 470.432 210.481C470.128 210.177 469.752 209.921 469.304 209.713C468.856 209.521 468.344 209.393 467.768 209.329ZM461 225.176H476.744L476.744 234.248H475.064L475.064 227.168H470.12L470.12 233.144H468.416L468.416 227.168H462.704L462.704 234.488H461L461 225.176ZM460.712 241.39C460.712 239.918 461.24 238.742 462.296 237.862C463.352 236.998 464.856 236.566 466.808 236.566C467.752 236.566 468.6 236.702 469.352 236.974C470.12 237.262 470.768 237.638 471.296 238.102C471.824 238.566 472.232 239.102 472.52 239.71C472.808 240.318 472.952 240.958 472.952 241.63C472.952 242.302 472.832 242.886 472.592 243.382C472.352 243.878 472.024 244.382 471.608 244.894L473.6 244.798H478.088V246.79H461V245.158L462.368 244.99V244.918C461.92 244.454 461.528 243.918 461.192 243.31C460.872 242.718 460.712 242.078 460.712 241.39ZM462.368 241.822C462.368 242.366 462.496 242.878 462.752 243.358C463.024 243.838 463.432 244.318 463.976 244.798H470.072C470.52 244.302 470.832 243.822 471.008 243.358C471.2 242.91 471.296 242.446 471.296 241.966C471.296 241.502 471.184 241.062 470.96 240.646C470.752 240.246 470.448 239.894 470.048 239.59C469.664 239.286 469.2 239.046 468.656 238.87C468.112 238.694 467.504 238.605 466.832 238.605C465.424 238.605 464.328 238.886 463.544 239.446C462.76 240.006 462.368 240.798 462.368 241.822ZM455.624 254.654C455.624 253.934 455.696 253.278 455.84 252.686C455.968 252.094 456.168 251.582 456.44 251.15C456.712 250.734 457.04 250.406 457.424 250.166C457.808 249.942 458.256 249.83 458.768 249.83C459.264 249.83 459.736 249.982 460.184 250.286C460.632 250.59 461.04 251.006 461.408 251.534H461.504C461.68 251.246 461.92 250.998 462.224 250.79C462.544 250.598 462.936 250.502 463.4 250.502C463.896 250.502 464.328 250.638 464.696 250.91C465.064 251.182 465.352 251.47 465.56 251.774H465.656C465.976 251.39 466.4 251.038 466.928 250.718C467.472 250.414 468.096 250.262 468.8 250.262C469.44 250.262 470.016 250.374 470.528 250.598C471.04 250.838 471.472 251.158 471.824 251.558C472.192 251.958 472.472 252.422 472.664 252.95C472.856 253.494 472.952 254.062 472.952 254.654C472.952 254.974 472.92 255.27 472.856 255.542C472.808 255.83 472.744 256.086 472.664 256.31V260.366H471.152V257.966C470.88 258.238 470.536 258.462 470.12 258.638C469.704 258.83 469.248 258.926 468.752 258.926C468.128 258.926 467.56 258.814 467.048 258.59C466.552 258.366 466.128 258.062 465.776 257.678C465.44 257.294 465.176 256.838 464.984 256.31C464.792 255.798 464.696 255.246 464.696 254.654C464.696 254.366 464.728 254.07 464.792 253.766C464.872 253.462 464.976 253.174 465.104 252.902C464.928 252.694 464.728 252.518 464.504 252.374C464.296 252.23 464.032 252.158 463.712 252.158C463.344 252.158 463.04 252.302 462.8 252.59C462.56 252.878 462.44 253.422 462.44 254.222V256.478C462.44 257.838 462.216 258.854 461.768 259.526C461.336 260.214 460.632 260.558 459.656 260.558C459.112 260.558 458.6 260.422 458.12 260.15C457.624 259.878 457.192 259.486 456.824 258.974C456.456 258.462 456.168 257.838 455.96 257.102C455.736 256.382 455.624 255.566 455.624 254.654ZM466.016 254.654C466.016 254.99 466.08 255.302 466.208 255.59C466.336 255.894 466.52 256.158 466.76 256.382C467 256.622 467.288 256.806 467.624 256.934C467.976 257.062 468.368 257.126 468.8 257.126C469.664 257.126 470.328 256.886 470.792 256.406C471.272 255.926 471.512 255.342 471.512 254.654C471.512 253.966 471.272 253.382 470.792 252.902C470.328 252.422 469.664 252.182 468.8 252.182C468.368 252.182 467.976 252.246 467.624 252.374C467.288 252.502 467 252.678 466.76 252.902C466.52 253.142 466.336 253.406 466.208 253.694C466.08 253.998 466.016 254.318 466.016 254.654ZM456.992 254.942C456.992 255.502 457.064 256.006 457.208 256.454C457.336 256.918 457.512 257.31 457.736 257.63C457.944 257.95 458.192 258.198 458.48 258.374C458.768 258.55 459.064 258.638 459.368 258.638C459.912 258.638 460.288 258.438 460.496 258.038C460.704 257.638 460.808 257.054 460.808 256.286V254.27C460.808 254.046 460.824 253.798 460.856 253.526C460.872 253.27 460.92 253.014 461 252.758C460.696 252.342 460.376 252.038 460.04 251.846C459.704 251.654 459.368 251.558 459.032 251.558C458.408 251.558 457.912 251.854 457.544 252.446C457.176 253.054 456.992 253.886 456.992 254.942ZM460.712 267.212C460.712 266.428 460.848 265.692 461.12 265.004C461.408 264.332 461.808 263.74 462.32 263.228C462.848 262.732 463.488 262.34 464.24 262.052C464.992 261.764 465.848 261.62 466.808 261.62C467.768 261.62 468.624 261.764 469.376 262.052C470.144 262.356 470.792 262.748 471.32 263.228C471.848 263.724 472.248 264.284 472.52 264.908C472.808 265.532 472.952 266.18 472.952 266.852C472.952 267.588 472.824 268.244 472.568 268.82C472.312 269.412 471.944 269.9 471.464 270.284C470.984 270.684 470.408 270.988 469.736 271.196C469.064 271.404 468.312 271.508 467.48 271.508C467.272 271.508 467.064 271.5 466.856 271.484C466.664 271.484 466.496 271.468 466.352 271.436V263.564C465.104 263.644 464.112 264.028 463.376 264.716C462.656 265.42 462.296 266.332 462.296 267.452C462.296 268.012 462.376 268.524 462.536 268.988C462.712 269.468 462.936 269.924 463.208 270.356L461.912 271.052C461.592 270.54 461.312 269.972 461.072 269.348C460.832 268.724 460.712 268.012 460.712 267.212ZM467.768 263.54V269.78C468.952 269.78 469.848 269.524 470.456 269.012C471.08 268.516 471.392 267.812 471.392 266.9C471.392 266.484 471.312 266.084 471.152 265.7C470.992 265.332 470.752 264.996 470.432 264.692C470.128 264.388 469.752 264.132 469.304 263.924C468.856 263.732 468.344 263.604 467.768 263.54ZM460.712 283.755C460.712 282.651 460.92 281.627 461.336 280.683C461.752 279.739 462.32 278.923 463.04 278.235L464.432 279.435C463.84 279.995 463.36 280.651 462.992 281.403C462.64 282.171 462.464 282.963 462.464 283.779C462.464 284.819 462.696 285.627 463.16 286.203C463.64 286.779 464.264 287.067 465.032 287.067C465.432 287.067 465.768 286.995 466.04 286.851C466.328 286.723 466.568 286.539 466.76 286.299C466.968 286.075 467.152 285.803 467.312 285.483C467.472 285.163 467.64 284.819 467.816 284.451L468.8 282.195C468.96 281.827 469.152 281.451 469.376 281.067C469.6 280.683 469.872 280.339 470.192 280.035C470.512 279.731 470.888 279.483 471.32 279.291C471.768 279.099 472.28 279.003 472.856 279.003C473.448 279.003 474 279.123 474.512 279.363C475.024 279.619 475.464 279.963 475.832 280.395C476.216 280.843 476.512 281.363 476.72 281.955C476.928 282.563 477.032 283.227 477.032 283.947C477.032 284.891 476.848 285.763 476.48 286.563C476.128 287.363 475.664 288.043 475.088 288.603L473.792 287.523C474.256 287.043 474.616 286.507 474.872 285.915C475.144 285.339 475.28 284.683 475.28 283.947C475.28 283.067 475.072 282.355 474.656 281.811C474.256 281.283 473.696 281.019 472.976 281.019C472.592 281.019 472.264 281.091 471.992 281.235C471.736 281.395 471.504 281.603 471.296 281.859C471.104 282.115 470.928 282.395 470.768 282.699C470.624 283.003 470.488 283.315 470.36 283.635L469.4 285.867C469.208 286.315 468.984 286.739 468.728 287.139C468.488 287.539 468.2 287.883 467.864 288.171C467.544 288.459 467.16 288.683 466.712 288.843C466.28 289.019 465.776 289.107 465.2 289.107C464.576 289.107 463.992 288.979 463.448 288.723C462.904 288.483 462.424 288.131 462.008 287.667C461.608 287.203 461.288 286.643 461.048 285.987C460.824 285.331 460.712 284.587 460.712 283.755ZM460.712 295.101C460.712 294.477 460.808 293.949 461 293.517C461.192 293.101 461.456 292.757 461.792 292.485C462.128 292.229 462.536 292.045 463.016 291.933C463.496 291.821 464.024 291.765 464.6 291.765H471.056V290.037H472.544L472.664 291.861L475.928 292.101V293.757H472.664V296.901H471.056V293.757H464.576C463.856 293.757 463.296 293.885 462.896 294.141C462.512 294.413 462.32 294.885 462.32 295.557C462.32 295.765 462.352 295.989 462.416 296.229C462.48 296.469 462.552 296.685 462.632 296.877L461.144 297.261C461.032 296.941 460.936 296.589 460.856 296.205C460.76 295.837 460.712 295.469 460.712 295.101ZM460.712 301.711C460.712 300.735 461 299.919 461.576 299.263C462.152 298.623 462.968 298.303 464.024 298.303C465.304 298.303 466.28 298.871 466.952 300.007C467.64 301.143 468.12 302.959 468.392 305.455C468.76 305.455 469.12 305.415 469.472 305.335C469.824 305.271 470.136 305.151 470.408 304.975C470.68 304.799 470.896 304.551 471.056 304.231C471.232 303.927 471.32 303.535 471.32 303.055C471.32 302.383 471.192 301.751 470.936 301.159C470.68 300.567 470.392 300.039 470.072 299.575L471.44 298.807C471.792 299.351 472.128 300.015 472.448 300.799C472.784 301.583 472.952 302.447 472.952 303.391C472.952 304.815 472.512 305.847 471.632 306.487C470.768 307.127 469.608 307.447 468.152 307.447H461V305.815L462.392 305.647V305.575C461.928 305.015 461.528 304.415 461.192 303.775C460.872 303.135 460.712 302.447 460.712 301.711ZM462.296 302.287C462.296 302.847 462.424 303.375 462.68 303.871C462.952 304.367 463.344 304.895 463.856 305.455H467.096C466.968 304.479 466.816 303.655 466.64 302.983C466.464 302.327 466.256 301.791 466.016 301.375C465.776 300.975 465.496 300.679 465.176 300.487C464.872 300.311 464.536 300.223 464.168 300.223C463.496 300.223 463.016 300.423 462.728 300.823C462.44 301.223 462.296 301.711 462.296 302.287ZM460.712 315.724C460.712 314.956 460.848 314.236 461.12 313.564C461.392 312.892 461.784 312.308 462.296 311.812C462.824 311.332 463.464 310.948 464.216 310.66C464.984 310.388 465.848 310.252 466.808 310.252C467.784 310.252 468.648 310.404 469.4 310.708C470.168 311.012 470.816 311.42 471.344 311.932C471.872 312.444 472.272 313.036 472.544 313.708C472.816 314.396 472.952 315.116 472.952 315.868C472.952 316.636 472.816 317.292 472.544 317.836C472.272 318.38 471.952 318.86 471.584 319.276L470.288 318.268C470.592 317.932 470.84 317.572 471.032 317.188C471.224 316.82 471.32 316.404 471.32 315.94C471.32 315.412 471.208 314.924 470.984 314.476C470.776 314.028 470.472 313.644 470.072 313.324C469.672 313.004 469.192 312.748 468.632 312.556C468.088 312.38 467.48 312.292 466.808 312.292C466.136 312.292 465.528 312.38 464.984 312.556C464.44 312.732 463.968 312.972 463.568 313.276C463.184 313.596 462.88 313.98 462.656 314.428C462.448 314.876 462.344 315.364 462.344 315.892C462.344 316.436 462.456 316.932 462.68 317.38C462.92 317.844 463.2 318.26 463.52 318.628L462.2 319.492C461.736 318.964 461.368 318.38 461.096 317.74C460.84 317.1 460.712 316.428 460.712 315.724ZM461 322.062H478.088V324.006H466.52V324.078L472.664 329.046V331.23L467.984 327.318L461 331.758V329.598L466.616 326.19L464.072 324.006H461V322.062Z" fill="white"/>
<g filter="url(#filter5_d)">
<path d="M138.848 358V342.352H142.376V355.024H148.568V358H138.848ZM155.766 358.288C155.014 358.288 154.286 358.152 153.582 357.88C152.878 357.592 152.254 357.184 151.71 356.656C151.182 356.128 150.758 355.48 150.438 354.712C150.118 353.928 149.958 353.04 149.958 352.048C149.958 351.056 150.118 350.176 150.438 349.408C150.758 348.624 151.182 347.968 151.71 347.44C152.254 346.912 152.878 346.512 153.582 346.24C154.286 345.952 155.014 345.808 155.766 345.808C156.518 345.808 157.238 345.952 157.926 346.24C158.63 346.512 159.246 346.912 159.774 347.44C160.318 347.968 160.75 348.624 161.07 349.408C161.39 350.176 161.55 351.056 161.55 352.048C161.55 353.04 161.39 353.928 161.07 354.712C160.75 355.48 160.318 356.128 159.774 356.656C159.246 357.184 158.63 357.592 157.926 357.88C157.238 358.152 156.518 358.288 155.766 358.288ZM155.766 355.432C156.486 355.432 157.03 355.128 157.398 354.52C157.766 353.912 157.95 353.088 157.95 352.048C157.95 351.008 157.766 350.184 157.398 349.576C157.03 348.968 156.486 348.664 155.766 348.664C155.03 348.664 154.478 348.968 154.11 349.576C153.758 350.184 153.582 351.008 153.582 352.048C153.582 353.088 153.758 353.912 154.11 354.52C154.478 355.128 155.03 355.432 155.766 355.432ZM166.708 358.288C166.164 358.288 165.668 358.192 165.22 358C164.788 357.824 164.42 357.576 164.116 357.256C163.812 356.92 163.572 356.536 163.396 356.104C163.236 355.672 163.156 355.2 163.156 354.688C163.156 353.44 163.684 352.464 164.74 351.76C165.796 351.056 167.5 350.584 169.852 350.344C169.82 349.816 169.66 349.4 169.372 349.096C169.1 348.776 168.636 348.616 167.98 348.616C167.468 348.616 166.956 348.712 166.444 348.904C165.948 349.096 165.412 349.36 164.836 349.696L163.564 347.368C164.332 346.904 165.132 346.528 165.964 346.24C166.812 345.952 167.708 345.808 168.652 345.808C170.188 345.808 171.356 346.248 172.156 347.128C172.972 347.992 173.38 349.344 173.38 351.184V358H170.5L170.26 356.776H170.164C169.652 357.224 169.116 357.592 168.556 357.88C167.996 358.152 167.38 358.288 166.708 358.288ZM167.908 355.552C168.308 355.552 168.652 355.464 168.94 355.288C169.228 355.112 169.532 354.864 169.852 354.544V352.456C168.604 352.632 167.74 352.888 167.26 353.224C166.78 353.56 166.54 353.96 166.54 354.424C166.54 354.808 166.66 355.096 166.9 355.288C167.156 355.464 167.492 355.552 167.908 355.552ZM180.613 358.288C179.877 358.288 179.205 358.144 178.597 357.856C178.005 357.568 177.493 357.16 177.061 356.632C176.645 356.088 176.317 355.432 176.077 354.664C175.853 353.896 175.741 353.024 175.741 352.048C175.741 351.072 175.877 350.2 176.149 349.432C176.437 348.664 176.805 348.016 177.253 347.488C177.717 346.944 178.245 346.528 178.837 346.24C179.445 345.952 180.061 345.808 180.685 345.808C181.357 345.808 181.909 345.92 182.341 346.144C182.773 346.368 183.197 346.672 183.613 347.056L183.469 345.232V341.176H186.997V358H184.117L183.877 356.824H183.781C183.365 357.24 182.877 357.592 182.317 357.88C181.757 358.152 181.189 358.288 180.613 358.288ZM181.525 355.408C181.909 355.408 182.253 355.328 182.557 355.168C182.877 355.008 183.181 354.728 183.469 354.328V349.456C183.149 349.168 182.821 348.968 182.485 348.856C182.149 348.744 181.821 348.688 181.501 348.688C180.941 348.688 180.445 348.96 180.013 349.504C179.581 350.032 179.365 350.864 179.365 352C179.365 353.184 179.549 354.048 179.917 354.592C180.301 355.136 180.837 355.408 181.525 355.408ZM195.215 358V342.352H200.567C201.383 342.352 202.135 342.416 202.823 342.544C203.527 342.656 204.135 342.864 204.647 343.168C205.175 343.472 205.583 343.872 205.871 344.368C206.175 344.864 206.327 345.488 206.327 346.24C206.327 346.592 206.279 346.944 206.183 347.296C206.087 347.648 205.951 347.976 205.775 348.28C205.599 348.584 205.383 348.856 205.127 349.096C204.887 349.336 204.607 349.512 204.287 349.624V349.72C204.687 349.816 205.055 349.968 205.391 350.176C205.727 350.368 206.023 350.616 206.279 350.92C206.535 351.224 206.735 351.584 206.879 352C207.023 352.4 207.095 352.864 207.095 353.392C207.095 354.192 206.935 354.88 206.615 355.456C206.311 356.032 205.879 356.512 205.319 356.896C204.775 357.264 204.135 357.544 203.399 357.736C202.663 357.912 201.871 358 201.023 358H195.215ZM198.743 348.616H200.399C201.263 348.616 201.887 348.448 202.271 348.112C202.671 347.776 202.871 347.328 202.871 346.768C202.871 346.16 202.671 345.728 202.271 345.472C201.871 345.216 201.255 345.088 200.423 345.088H198.743V348.616ZM198.743 355.264H200.735C202.671 355.264 203.639 354.56 203.639 353.152C203.639 352.464 203.399 351.976 202.919 351.688C202.439 351.384 201.711 351.232 200.735 351.232H198.743V355.264ZM212.458 358.288C211.914 358.288 211.418 358.192 210.97 358C210.538 357.824 210.17 357.576 209.866 357.256C209.562 356.92 209.322 356.536 209.146 356.104C208.986 355.672 208.906 355.2 208.906 354.688C208.906 353.44 209.434 352.464 210.49 351.76C211.546 351.056 213.25 350.584 215.602 350.344C215.57 349.816 215.41 349.4 215.122 349.096C214.85 348.776 214.386 348.616 213.73 348.616C213.218 348.616 212.706 348.712 212.194 348.904C211.698 349.096 211.162 349.36 210.586 349.696L209.314 347.368C210.082 346.904 210.882 346.528 211.714 346.24C212.562 345.952 213.458 345.808 214.402 345.808C215.938 345.808 217.106 346.248 217.906 347.128C218.722 347.992 219.13 349.344 219.13 351.184V358H216.25L216.01 356.776H215.914C215.402 357.224 214.866 357.592 214.306 357.88C213.746 358.152 213.13 358.288 212.458 358.288ZM213.658 355.552C214.058 355.552 214.402 355.464 214.69 355.288C214.978 355.112 215.282 354.864 215.602 354.544V352.456C214.354 352.632 213.49 352.888 213.01 353.224C212.53 353.56 212.29 353.96 212.29 354.424C212.29 354.808 212.41 355.096 212.65 355.288C212.906 355.464 213.242 355.552 213.658 355.552ZM225.355 358.288C224.747 358.288 224.235 358.192 223.819 358C223.403 357.808 223.067 357.544 222.811 357.208C222.571 356.856 222.395 356.44 222.283 355.96C222.171 355.464 222.115 354.912 222.115 354.304V341.176H225.643V354.448C225.643 354.816 225.707 355.072 225.835 355.216C225.979 355.36 226.123 355.432 226.267 355.432C226.347 355.432 226.411 355.432 226.459 355.432C226.523 355.432 226.603 355.416 226.699 355.384L227.131 358C226.939 358.08 226.691 358.144 226.387 358.192C226.099 358.256 225.755 358.288 225.355 358.288ZM231.982 358.288C231.438 358.288 230.942 358.192 230.494 358C230.062 357.824 229.694 357.576 229.39 357.256C229.086 356.92 228.846 356.536 228.67 356.104C228.51 355.672 228.43 355.2 228.43 354.688C228.43 353.44 228.958 352.464 230.014 351.76C231.07 351.056 232.774 350.584 235.126 350.344C235.094 349.816 234.934 349.4 234.646 349.096C234.374 348.776 233.91 348.616 233.254 348.616C232.742 348.616 232.23 348.712 231.718 348.904C231.222 349.096 230.686 349.36 230.11 349.696L228.838 347.368C229.606 346.904 230.406 346.528 231.238 346.24C232.086 345.952 232.982 345.808 233.926 345.808C235.462 345.808 236.63 346.248 237.43 347.128C238.246 347.992 238.654 349.344 238.654 351.184V358H235.774L235.534 356.776H235.438C234.926 357.224 234.39 357.592 233.83 357.88C233.27 358.152 232.654 358.288 231.982 358.288ZM233.182 355.552C233.582 355.552 233.926 355.464 234.214 355.288C234.502 355.112 234.806 354.864 235.126 354.544V352.456C233.878 352.632 233.014 352.888 232.534 353.224C232.054 353.56 231.814 353.96 231.814 354.424C231.814 354.808 231.934 355.096 232.174 355.288C232.43 355.464 232.766 355.552 233.182 355.552ZM241.638 358V346.096H244.518L244.758 347.608H244.854C245.366 347.128 245.926 346.712 246.534 346.36C247.142 345.992 247.854 345.808 248.67 345.808C249.966 345.808 250.902 346.232 251.478 347.08C252.07 347.928 252.366 349.104 252.366 350.608V358H248.838V351.064C248.838 350.2 248.718 349.608 248.478 349.288C248.254 348.968 247.886 348.808 247.374 348.808C246.926 348.808 246.542 348.912 246.222 349.12C245.902 349.312 245.55 349.592 245.166 349.96V358H241.638ZM260.557 358.288C259.725 358.288 258.949 358.152 258.229 357.88C257.525 357.592 256.909 357.184 256.381 356.656C255.853 356.128 255.437 355.48 255.133 354.712C254.829 353.928 254.677 353.04 254.677 352.048C254.677 351.056 254.845 350.176 255.181 349.408C255.517 348.624 255.965 347.968 256.525 347.44C257.101 346.912 257.765 346.512 258.517 346.24C259.269 345.952 260.053 345.808 260.868 345.808C261.605 345.808 262.253 345.928 262.813 346.168C263.389 346.408 263.901 346.712 264.349 347.08L262.693 349.36C262.133 348.896 261.597 348.664 261.085 348.664C260.221 348.664 259.541 348.968 259.045 349.576C258.549 350.184 258.301 351.008 258.301 352.048C258.301 353.088 258.549 353.912 259.045 354.52C259.557 355.128 260.197 355.432 260.965 355.432C261.349 355.432 261.717 355.352 262.069 355.192C262.437 355.016 262.781 354.808 263.101 354.568L264.493 356.872C263.901 357.384 263.261 357.752 262.573 357.976C261.885 358.184 261.213 358.288 260.557 358.288ZM271.224 358.288C270.376 358.288 269.584 358.152 268.848 357.88C268.112 357.592 267.472 357.184 266.928 356.656C266.384 356.112 265.96 355.456 265.656 354.688C265.352 353.92 265.2 353.04 265.2 352.048C265.2 351.088 265.36 350.224 265.68 349.456C266 348.672 266.416 348.016 266.928 347.488C267.456 346.944 268.056 346.528 268.728 346.24C269.4 345.952 270.096 345.808 270.816 345.808C271.664 345.808 272.4 345.952 273.024 346.24C273.664 346.528 274.192 346.928 274.608 347.44C275.04 347.952 275.36 348.56 275.568 349.264C275.776 349.952 275.88 350.704 275.88 351.52C275.88 351.84 275.864 352.144 275.832 352.432C275.8 352.72 275.768 352.936 275.736 353.08H268.608C268.768 353.944 269.12 354.584 269.664 355C270.224 355.4 270.904 355.6 271.704 355.6C272.552 355.6 273.408 355.336 274.272 354.808L275.448 356.944C274.84 357.36 274.16 357.688 273.408 357.928C272.672 358.168 271.944 358.288 271.224 358.288ZM268.584 350.752H272.88C272.88 350.08 272.728 349.536 272.424 349.12C272.12 348.704 271.608 348.496 270.888 348.496C270.328 348.496 269.832 348.68 269.4 349.048C268.984 349.416 268.712 349.984 268.584 350.752ZM278.318 358V346.096H281.198L281.438 348.184H281.534C281.966 347.368 282.486 346.768 283.094 346.384C283.702 346 284.31 345.808 284.918 345.808C285.254 345.808 285.526 345.832 285.734 345.88C285.958 345.912 286.158 345.968 286.334 346.048L285.758 349.096C285.534 349.032 285.326 348.984 285.134 348.952C284.942 348.92 284.718 348.904 284.462 348.904C284.014 348.904 283.542 349.064 283.046 349.384C282.566 349.704 282.166 350.272 281.846 351.088V358H278.318Z" fill="white"/>
</g>
<path d="M241 11H399C407.284 11 414 17.7157 414 26V378C414 386.284 407.284 393 399 393H241.46" stroke="#979797"/>
<path d="M414 201.5H444" stroke="#979797"/>
<defs>
<filter id="filter0_d" x="0" y="0" width="425" height="404" filterUnits="userSpaceOnUse" color-interpolation-filters="sRGB">
<feFlood flood-opacity="0" result="BackgroundImageFix"/>
<feColorMatrix in="SourceAlpha" type="matrix" values="0 0 0 0 0 0 0 0 0 0 0 0 0 0 0 0 0 0 127 0"/>
<feOffset/>
<feGaussianBlur stdDeviation="15"/>
<feColorMatrix type="matrix" values="0 0 0 0 1 0 0 0 0 1 0 0 0 0 1 0 0 0 0.25 0"/>
<feBlend mode="normal" in2="BackgroundImageFix" result="effect1_dropShadow"/>
<feBlend mode="normal" in="SourceGraphic" in2="effect1_dropShadow" result="shape"/>
</filter>
<filter id="filter1_d" x="91.8479" y="55.176" width="240.698" height="61.888" filterUnits="userSpaceOnUse" color-interpolation-filters="sRGB">
<feFlood flood-opacity="0" result="BackgroundImageFix"/>
<feColorMatrix in="SourceAlpha" type="matrix" values="0 0 0 0 0 0 0 0 0 0 0 0 0 0 0 0 0 0 127 0"/>
<feOffset/>
<feGaussianBlur stdDeviation="10"/>
<feColorMatrix type="matrix" values="0 0 0 0 0.996078 0 0 0 0 0.262745 0 0 0 0 0.156863 0 0 0 0.7 0"/>
<feBlend mode="normal" in2="BackgroundImageFix" result="effect1_dropShadow"/>
<feBlend mode="normal" in="SourceGraphic" in2="effect1_dropShadow" result="shape"/>
</filter>
<filter id="filter2_d" x="105.879" y="122.176" width="215.798" height="61.24" filterUnits="userSpaceOnUse" color-interpolation-filters="sRGB">
<feFlood flood-opacity="0" result="BackgroundImageFix"/>
<feColorMatrix in="SourceAlpha" type="matrix" values="0 0 0 0 0 0 0 0 0 0 0 0 0 0 0 0 0 0 127 0"/>
<feOffset/>
<feGaussianBlur stdDeviation="10"/>
<feColorMatrix type="matrix" values="0 0 0 0 0.996078 0 0 0 0 0.262745 0 0 0 0 0.156863 0 0 0 0.7 0"/>
<feBlend mode="normal" in2="BackgroundImageFix" result="effect1_dropShadow"/>
<feBlend mode="normal" in="SourceGraphic" in2="effect1_dropShadow" result="shape"/>
</filter>
<filter id="filter3_d" x="82.8479" y="187.672" width="259.29" height="61.984" filterUnits="userSpaceOnUse" color-interpolation-filters="sRGB">
<feFlood flood-opacity="0" result="BackgroundImageFix"/>
<feColorMatrix in="SourceAlpha" type="matrix" values="0 0 0 0 0 0 0 0 0 0 0 0 0 0 0 0 0 0 127 0"/>
<feOffset/>
<feGaussianBlur stdDeviation="10"/>
<feColorMatrix type="matrix" values="0 0 0 0 0.996078 0 0 0 0 0.262745 0 0 0 0 0.156863 0 0 0 0.7 0"/>
<feBlend mode="normal" in2="BackgroundImageFix" result="effect1_dropShadow"/>
<feBlend mode="normal" in="SourceGraphic" in2="effect1_dropShadow" result="shape"/>
</filter>
<filter id="filter4_d" x="125.856" y="257.064" width="172.079" height="60.592" filterUnits="userSpaceOnUse" color-interpolation-filters="sRGB">
<feFlood flood-opacity="0" result="BackgroundImageFix"/>
<feColorMatrix in="SourceAlpha" type="matrix" values="0 0 0 0 0 0 0 0 0 0 0 0 0 0 0 0 0 0 127 0"/>
<feOffset/>
<feGaussianBlur stdDeviation="10"/>
<feColorMatrix type="matrix" values="0 0 0 0 0.996078 0 0 0 0 0.262745 0 0 0 0 0.156863 0 0 0 0.7 0"/>
<feBlend mode="normal" in2="BackgroundImageFix" result="effect1_dropShadow"/>
<feBlend mode="normal" in="SourceGraphic" in2="effect1_dropShadow" result="shape"/>
</filter>
<filter id="filter5_d" x="118.848" y="321.176" width="187.486" height="57.112" filterUnits="userSpaceOnUse" color-interpolation-filters="sRGB">
<feFlood flood-opacity="0" result="BackgroundImageFix"/>
<feColorMatrix in="SourceAlpha" type="matrix" values="0 0 0 0 0 0 0 0 0 0 0 0 0 0 0 0 0 0 127 0"/>
<feOffset/>
<feGaussianBlur stdDeviation="10"/>
<feColorMatrix type="matrix" values="0 0 0 0 0.996078 0 0 0 0 0.262745 0 0 0 0 0.156863 0 0 0 0.7 0"/>
<feBlend mode="normal" in2="BackgroundImageFix" result="effect1_dropShadow"/>
<feBlend mode="normal" in="SourceGraphic" in2="effect1_dropShadow" result="shape"/>
</filter>
</defs>
</svg>
