<svg width="46" height="54" viewBox="0 0 46 54" fill="none" xmlns="http://www.w3.org/2000/svg">
<path opacity="0.2" d="M30.6534 10.9769L43.7023 17.9963C44.6246 18.4907 45.6745 19.454 45.6769 20.9945C45.6794 22.5369 44.6319 23.5027 43.7121 23.9982L39.2887 26.3784L43.7101 28.7172C44.6305 29.2109 45.6852 30.1758 45.6821 31.723C45.679 33.267 44.6244 34.228 43.7013 34.721L43.6986 34.7225L39.4424 37.0124L43.725 39.4439C44.6429 39.9406 45.6831 40.9023 45.6831 42.4377C45.6831 43.9812 44.632 44.9449 43.7106 45.4393L30.7782 52.3981C29.8063 52.9202 28.6172 53.1415 27.5074 53.1415C26.3975 53.1415 25.2093 52.9206 24.2374 52.3985L11.3048 45.4396C10.3835 44.9452 9.33171 43.9811 9.33171 42.4377C9.33171 40.8939 10.3832 39.9301 11.3048 39.4358L11.311 39.4326L15.7175 37.0997L11.2963 34.721C10.3749 34.2266 9.32312 33.2624 9.32312 31.7191C9.32312 30.1753 10.3747 29.2115 11.2963 28.7172L11.3023 28.714L15.7197 26.375L11.3048 23.9994C10.3839 23.5053 9.33171 22.5414 9.33171 20.998C9.33171 19.4547 10.3829 18.4914 11.3037 17.9972L24.3456 10.9769C25.2867 10.4694 26.4317 10.2554 27.4995 10.2554C28.5671 10.2554 29.7124 10.4696 30.6534 10.9769Z" fill="#1ABCFE"/>
<path d="M37.6327 14.5178L24.7054 7.33535C23.3041 6.55488 21.0105 6.55488 19.6092 7.33535L6.69057 14.5178C5.16727 15.3615 5.16727 16.7421 6.69057 17.5859L19.5002 24.705C20.962 25.5171 23.3681 25.5171 24.83 24.705L37.6396 17.5859C39.156 16.7421 39.156 15.3605 37.6327 14.5178Z" stroke="#0D5F80" stroke-width="3.375" stroke-linecap="round" stroke-linejoin="round"/>
<path d="M13.8484 32.5355L6.69057 36.4495C5.16727 37.2932 5.16727 38.6749 6.69057 39.5186L19.5002 46.6378C20.962 47.4488 23.3681 47.4488 24.83 46.6378L37.6396 39.5186C39.1629 38.6749 39.1629 37.2932 37.6396 36.4495L30.7207 32.3921" stroke="#0D5F80" stroke-width="3.375" stroke-linecap="round" stroke-linejoin="round"/>
<path d="M13.8485 21.5653L6.68203 25.4845C5.15873 26.3283 5.15873 27.7099 6.68203 28.5537L19.4916 35.6718C20.9535 36.4839 23.3596 36.4839 24.8215 35.6718L37.631 28.5537C39.163 27.7099 39.163 26.3283 37.6397 25.4845L30.4663 21.5653" stroke="#0D5F80" stroke-width="3.375" stroke-linecap="round" stroke-linejoin="round"/>
</svg>
