<svg width="837" height="1470" viewBox="0 0 837 1470" fill="none" xmlns="http://www.w3.org/2000/svg">
<path fill-rule="evenodd" clip-rule="evenodd" d="M142.303 1301.11C275.792 1301.12 384.007 1313.33 384.007 1328.4C384.008 1343.46 275.794 1355.67 142.305 1355.66C8.81631 1355.65 -99.3985 1343.44 -99.3992 1328.37C-99.3999 1313.31 8.8138 1301.1 142.303 1301.11Z" fill="#222222" fill-opacity="0.3"/>
<path fill-rule="evenodd" clip-rule="evenodd" d="M19.3882 1230.38C19.3417 1229.72 19.8405 1229.14 20.502 1229.1L66.2317 1225.92C66.8925 1225.87 67.4655 1226.37 67.512 1227.03L74.3035 1323.59C74.35 1324.25 73.8512 1324.82 73.1897 1324.87L70.4026 1325.06C70.4485 1325.33 70.4907 1325.59 70.529 1325.86C70.5773 1326.2 70.3469 1326.52 70.01 1326.57L-3.89736 1338.91C-12.092 1340.27 -19.8027 1334.62 -20.9598 1326.39C-22.0964 1318.31 -16.4655 1310.84 -8.3838 1309.7L24.6414 1305.06L19.3882 1230.38Z" fill="black"/>
<path fill-rule="evenodd" clip-rule="evenodd" d="M262.947 1233.13C262.947 1232.46 262.409 1231.93 261.746 1231.93L215.906 1231.94C215.244 1231.94 214.707 1232.48 214.707 1233.14L214.667 1329.94C214.667 1330.6 215.204 1331.14 215.868 1331.14L218.661 1331.14C218.634 1331.41 218.611 1331.68 218.591 1331.95C218.566 1332.29 218.818 1332.59 219.158 1332.62L293.746 1339.77C302.016 1340.56 309.313 1334.38 309.894 1326.09C310.464 1317.95 304.325 1310.89 296.184 1310.32L262.916 1308L262.947 1233.13Z" fill="black"/>
<path fill-rule="evenodd" clip-rule="evenodd" d="M315.441 283.038C301.932 287.311 260.52 283.095 215.431 268.488C181.431 257.473 152.128 243.068 136.257 230.726C203.321 228.547 265.376 247.099 315.441 283.038ZM-124.304 1082.76L-205.197 558.311C-211.363 518.333 -209.696 479.814 -201.314 444.136C-191.491 402.327 -172.446 364.418 -145.976 332.634C-120.444 301.975 -88.0032 277.014 -50.2688 259.746C-19.9315 245.864 13.8276 236.954 50.1699 234.055C74.5999 260.061 132.493 290.297 200.991 312.488C270.931 335.146 336.696 344.502 371.302 337.001C413.41 391.621 433.614 461.393 427.372 536.221L383.259 1065.04C375.845 1153.92 297.232 1228.68 207.837 1231.8L62.3241 1236.88C-27.022 1240 -110.709 1170.9 -124.304 1082.76Z" fill="black"/>
<path fill-rule="evenodd" clip-rule="evenodd" d="M272.947 543.076C319.255 514.314 333.729 454.319 305.277 409.072C276.825 363.826 137.582 513.227 137.582 513.227C137.582 513.227 226.639 571.837 272.947 543.076Z" fill="white"/>
<path fill-rule="evenodd" clip-rule="evenodd" d="M193.312 515.505C210.851 514.892 224.572 500.158 223.958 482.594C223.345 465.031 208.63 451.289 191.091 451.902C173.552 452.514 159.831 467.249 160.445 484.812C161.058 502.376 175.773 516.117 193.312 515.505Z" fill="black"/>
<path fill-rule="evenodd" clip-rule="evenodd" d="M-50.4509 554.369C-98.6522 528.908 -117.277 470.068 -92.0497 422.947C-66.8229 375.826 82.5025 515.151 82.5025 515.151C82.5025 515.151 -2.24963 579.831 -50.4509 554.369Z" fill="white"/>
<path fill-rule="evenodd" clip-rule="evenodd" d="M27.0667 521.31C9.52786 521.923 -5.1874 508.181 -5.80073 490.618C-6.41406 473.054 7.30678 458.32 24.8456 457.707C42.3845 457.095 57.0997 470.836 57.7131 488.4C58.3264 505.963 44.6056 520.698 27.0667 521.31Z" fill="black" stroke="black" stroke-width="2"/>
<path fill-rule="evenodd" clip-rule="evenodd" d="M-249.593 792.253C-250.059 867.126 -110.085 1042.48 -110.085 1042.48L-89.1734 984.925L-130.717 923.424L-120.691 916.672L-84.0719 970.884L-79.2319 957.562L-114.232 905.747L-104.207 898.995L-74.1305 943.521L-69.2905 930.199L-97.7483 888.07L-87.7231 881.318L-64.1891 916.158L-43.9129 860.35C-43.9129 860.35 -97.5549 756.92 -108.152 731.788C-126 689.463 -249.128 717.379 -249.593 792.253Z" fill="black"/>
<path fill-rule="evenodd" clip-rule="evenodd" d="M397.114 790.606C391.426 715.948 518.827 531.254 518.827 531.254L543.703 587.213L506.551 651.462L517.023 657.498L549.771 600.864L555.529 613.816L524.228 667.946L534.7 673.983L561.597 627.467L567.355 640.418L541.905 684.43L552.377 690.467L573.423 654.07L597.543 708.328C597.543 708.328 551.247 815.248 542.428 841.058C527.576 884.524 402.801 865.265 397.114 790.606Z" fill="black"/>
<path fill-rule="evenodd" clip-rule="evenodd" d="M-186.674 676.29L126.918 900.735L411.063 666.624L378.942 1146.53L-100.767 1168.82L-186.674 676.29Z" fill="white"/>
<path d="M-148.006 982.512L-189.276 657.193L22.6083 1066.1L22.6494 1066.18L22.7156 1066.24L127.892 1162.02L128.221 1162.31L128.557 1162.02L219.145 1083.37L219.227 1083.3L219.272 1083.2L418.432 649.191L403.766 923.412L403.766 923.414L388.293 1191.33L296.317 1286.55L205.338 1283.69L142.802 1251.15L142.557 1251.02L142.318 1251.16L90.3414 1281.65L6.57214 1296.66L-110.533 1214.2L-148.003 982.529L-148.006 982.512Z" fill="black" stroke="black"/>
<path fill-rule="evenodd" clip-rule="evenodd" d="M111.211 559.254C111.963 558.452 113.222 558.408 114.028 559.156L189.051 628.668C190.056 629.599 189.849 631.242 188.644 631.894L120.115 668.959C119.588 669.243 118.962 669.277 118.408 669.051L41.3766 637.631C40.0776 637.101 39.7135 635.433 40.6736 634.41L111.211 559.254Z" fill="#F5A623"/>
<path d="M349.842 259.986C347.415 268.371 345.218 276.792 343.316 285.192C337.824 300.281 287.041 295.648 229.884 274.845C172.728 254.042 130.848 224.948 136.34 209.859L136.344 209.86C140.295 202.189 144.03 194.315 147.559 186.322C102.751 179.261 70.858 182.482 65.481 197.255C56.474 222.001 125.292 269.767 219.191 303.944C313.094 338.121 396.51 345.765 405.517 321.018C410.886 306.268 388.6 283.34 349.842 259.986Z" fill="black"/>
<path d="M417.655 97.4179C408.611 112.236 362.78 109.962 298.419 86.5363C234.069 63.1148 197.484 35.4008 200.08 18.2402C200.08 18.2402 176.875 121.13 137.656 215.106C137.291 230.311 176.725 256.695 229.495 275.902C282.28 295.114 329.453 300.252 338.934 288.356C369.247 191.329 417.444 97.7378 417.655 97.4179Z" fill="#5F3EFF"/>
<path d="M442.844 63.4776C433.801 78.296 376.635 71.8962 312.274 48.4706C247.924 25.0491 200.004 -6.79038 202.6 -23.951C202.6 -23.951 190.73 83.0646 151.511 177.04C151.145 192.245 190.58 218.629 243.35 237.836C296.135 257.048 343.307 262.186 352.789 250.29C383.102 153.263 442.633 63.7975 442.844 63.4776Z" fill="black"/>
<path d="M445.307 61.4922C445.121 62.0023 444.893 62.4882 444.608 62.9536C435.646 77.8188 378.426 71.4164 314.023 47.9756C249.673 24.5542 201.754 -7.28531 204.35 -24.4459C204.431 -24.9983 204.572 -25.5377 204.761 -26.0592C210.844 -42.77 269.625 -36.7177 336.049 -12.5413C402.473 11.6352 451.391 44.7775 445.307 61.4922Z" fill="black"/>
<path fill-rule="evenodd" clip-rule="evenodd" d="M-70.5733 688.749C-72.0133 687.937 -73.7609 689.124 -73.5375 690.762L-42.9159 915.372C-42.7093 916.887 -40.948 917.619 -39.7282 916.697L284.206 671.835C285.486 670.868 287.326 671.724 287.41 673.325L298.953 893.637C299.036 895.213 297.347 896.259 295.974 895.484L-70.5733 688.749Z" fill="#FF4329"/>
<path fill-rule="evenodd" clip-rule="evenodd" d="M129.153 979.784C136.094 979.542 141.524 973.725 141.282 966.792C141.04 959.858 135.217 954.434 128.277 954.677C121.336 954.919 115.906 960.736 116.148 967.669C116.39 974.603 122.213 980.027 129.153 979.784Z" fill="black"/>
<path fill-rule="evenodd" clip-rule="evenodd" d="M130.907 1030C137.848 1029.76 143.278 1023.94 143.036 1017.01C142.794 1010.07 136.971 1004.65 130.03 1004.89C123.09 1005.13 117.659 1010.95 117.902 1017.89C118.144 1024.82 123.966 1030.24 130.907 1030Z" fill="black"/>
</svg>
