<svg width="197" height="162" viewBox="0 0 197 162" fill="none" xmlns="http://www.w3.org/2000/svg">
<rect x="11.3491" y="1" width="185" height="152" rx="4" fill="white" stroke="#2D9CDB"/>
<rect x="131.349" y="62" width="51" height="8" rx="4" fill="white" stroke="#5F3EFF"/>
<rect x="26.3491" y="62" width="25" height="8" rx="4" fill="white" stroke="#5F3EFF"/>
<rect x="60.3491" y="62" width="65" height="8" rx="4" fill="white" stroke="#5F3EFF"/>
<rect x="70.3491" y="81" width="25" height="8" rx="4" fill="white" stroke="#5F3EFF"/>
<rect x="107.349" y="81" width="75" height="8" rx="4" fill="white" stroke="#5F3EFF"/>
<rect x="24.3491" y="81" width="37" height="8" rx="4" fill="white" stroke="#5F3EFF"/>
<rect x="144.349" y="99" width="38" height="8" rx="4" fill="white" stroke="#5F3EFF"/>
<rect x="149.349" y="121" width="32" height="8" rx="4" fill="white" stroke="#5F3EFF"/>
<rect x="105.349" y="99" width="32" height="8" rx="4" fill="white" stroke="#5F3EFF"/>
<rect x="79.3491" y="121" width="63" height="8" rx="4" fill="white" stroke="#5F3EFF"/>
<rect x="26.3491" y="121" width="45" height="8" rx="4" fill="white" stroke="#5F3EFF"/>
<path d="M11.5888 33.5H196.109" stroke="#14121E" stroke-linecap="square"/>
<path fill-rule="evenodd" clip-rule="evenodd" d="M30.3491 23C32.5583 23 34.3491 21.2091 34.3491 19C34.3491 16.7909 32.5583 15 30.3491 15C28.14 15 26.3491 16.7909 26.3491 19C26.3491 21.2091 28.14 23 30.3491 23Z" fill="white" stroke="#FE4328"/>
<path fill-rule="evenodd" clip-rule="evenodd" d="M45.3491 23C47.5583 23 49.3491 21.2091 49.3491 19C49.3491 16.7909 47.5583 15 45.3491 15C43.14 15 41.3491 16.7909 41.3491 19C41.3491 21.2091 43.14 23 45.3491 23Z" fill="white" stroke="#FE4328"/>
<path fill-rule="evenodd" clip-rule="evenodd" d="M60.3491 23C62.5583 23 64.3491 21.2091 64.3491 19C64.3491 16.7909 62.5583 15 60.3491 15C58.14 15 56.3491 16.7909 56.3491 19C56.3491 21.2091 58.14 23 60.3491 23Z" fill="white" stroke="#FE4328"/>
<rect x="26.3491" y="99" width="70" height="8" rx="4" fill="white" stroke="#5F3EFF"/>
<path fill-rule="evenodd" clip-rule="evenodd" d="M42.6732 105.469C42.2846 105.849 41.9643 106.273 41.7122 106.725L33.7429 115.107C28.9574 120.14 27.1294 126.907 28.2023 133.264L1.34912 160.547H34.1387L43.0388 150.125L42.9891 150.025C49.9107 152.107 57.6887 150.579 63.3742 145.412L75.5532 134.343L75.3742 134.168L77.4161 132.166C79.6297 129.997 79.6297 126.432 77.4161 124.262C75.7514 122.631 73.3135 122.262 71.2988 123.155L72.5776 121.901C74.7912 119.732 74.7912 116.167 72.5776 113.997C70.7718 112.227 68.056 111.943 65.9577 113.144L70.1472 109.038C72.3608 106.868 72.3608 103.304 70.1472 101.134C68.486 99.5057 66.0547 99.1345 64.0425 100.021L76.5421 87.7692C78.7557 85.5995 78.7557 82.035 76.5421 79.8654C74.3904 77.7565 70.947 77.7565 68.7953 79.8654L42.6732 105.469Z" fill="white"/>
<path d="M41.7122 106.725L42.0745 107.069L42.118 107.024L42.1487 106.969L41.7122 106.725ZM42.6732 105.469L43.0232 105.826H43.0232L42.6732 105.469ZM33.7429 115.107L34.1052 115.451L33.7429 115.107ZM28.2023 133.264L28.5586 133.615L28.7378 133.433L28.6953 133.181L28.2023 133.264ZM1.34912 160.547L0.992776 160.196L0.155418 161.047H1.34912V160.547ZM34.1387 160.547V161.047H34.3693L34.519 160.871L34.1387 160.547ZM43.0388 150.125L43.419 150.45L43.6337 150.199L43.4864 149.903L43.0388 150.125ZM42.9891 150.025L43.1331 149.547L42.027 149.214L42.5414 150.248L42.9891 150.025ZM63.3742 145.412L63.7104 145.782L63.3742 145.412ZM75.5532 134.343L75.8895 134.713L76.2815 134.357L75.9032 133.986L75.5532 134.343ZM75.3742 134.168L75.0242 133.811L74.6599 134.168L75.0242 134.525L75.3742 134.168ZM77.4161 132.166L77.7661 132.523L77.4161 132.166ZM77.4161 124.262L77.7661 123.905L77.4161 124.262ZM71.2988 123.155L70.9488 122.798L71.5014 123.612L71.2988 123.155ZM72.5776 121.901L72.2276 121.544L72.5776 121.901ZM72.5776 113.997L72.2276 114.355L72.5776 113.997ZM65.9577 113.144L65.6077 112.787L66.206 113.578L65.9577 113.144ZM70.1472 109.038L69.7972 108.681L70.1472 109.038ZM70.1472 101.134L69.7972 101.491L70.1472 101.134ZM64.0425 100.021L63.6925 99.6634L64.2439 100.478L64.0425 100.021ZM76.5421 87.7692L76.1921 87.4121L76.5421 87.7692ZM76.5421 79.8654L76.1921 80.2225V80.2225L76.5421 79.8654ZM68.7953 79.8654L69.1453 80.2225V80.2225L68.7953 79.8654ZM42.1487 106.969C42.3778 106.558 42.6691 106.173 43.0232 105.826L42.3232 105.112C41.9002 105.526 41.5508 105.988 41.2756 106.481L42.1487 106.969ZM34.1052 115.451L42.0745 107.069L41.3498 106.38L33.3805 114.762L34.1052 115.451ZM28.6953 133.181C27.6474 126.972 29.4328 120.365 34.1052 115.451L33.3805 114.762C28.482 119.914 26.6113 126.842 27.7093 133.348L28.6953 133.181ZM1.70547 160.897L28.5586 133.615L27.8459 132.914L0.992776 160.196L1.70547 160.897ZM34.1387 160.047H1.34912V161.047H34.1387V160.047ZM42.6586 149.801L33.7585 160.222L34.519 160.871L43.419 150.45L42.6586 149.801ZM42.5414 150.248L42.5911 150.348L43.4864 149.903L43.4368 149.803L42.5414 150.248ZM63.0379 145.042C57.4869 150.087 49.8926 151.58 43.1331 149.547L42.8451 150.504C49.9288 152.635 57.8906 151.071 63.7104 145.782L63.0379 145.042ZM75.2169 133.973L63.0379 145.042L63.7104 145.782L75.8895 134.713L75.2169 133.973ZM75.0242 134.525L75.2032 134.7L75.9032 133.986L75.7241 133.811L75.0242 134.525ZM77.0661 131.809L75.0242 133.811L75.7242 134.525L77.7661 132.523L77.0661 131.809ZM77.0661 124.62C79.0797 126.593 79.0797 129.836 77.0661 131.809L77.7661 132.523C80.1797 130.158 80.1797 126.271 77.7661 123.905L77.0661 124.62ZM71.5014 123.612C73.3348 122.799 75.5524 123.136 77.0661 124.62L77.7661 123.905C75.9504 122.126 73.2921 121.724 71.0961 122.698L71.5014 123.612ZM72.2276 121.544L70.9488 122.798L71.6487 123.512L72.9276 122.258L72.2276 121.544ZM72.2276 114.355C74.2412 116.328 74.2412 119.571 72.2276 121.544L72.9276 122.258C75.3412 119.893 75.3412 116.006 72.9276 113.64L72.2276 114.355ZM66.206 113.578C68.1149 112.485 70.5854 112.745 72.2276 114.355L72.9276 113.64C70.9581 111.71 67.9971 111.401 65.7093 112.71L66.206 113.578ZM69.7972 108.681L65.6077 112.787L66.3077 113.501L70.4972 109.395L69.7972 108.681ZM69.7972 101.491C71.8108 103.465 71.8108 106.707 69.7972 108.681L70.4972 109.395C72.9108 107.029 72.9108 103.142 70.4972 100.777L69.7972 101.491ZM64.2439 100.478C66.0751 99.6719 68.2866 100.01 69.7972 101.491L70.4972 100.777C68.6853 99.0009 66.0343 98.5972 63.841 99.5629L64.2439 100.478ZM76.1921 87.4121L63.6925 99.6634L64.3925 100.378L76.8921 88.1263L76.1921 87.4121ZM76.1921 80.2225C78.2057 82.1961 78.2057 85.4385 76.1921 87.4121L76.8921 88.1263C79.3057 85.7606 79.3057 81.874 76.8921 79.5083L76.1921 80.2225ZM69.1453 80.2225C71.1025 78.3041 74.2348 78.3041 76.1921 80.2225L76.8921 79.5083C74.546 77.2088 70.7914 77.2088 68.4453 79.5083L69.1453 80.2225ZM43.0232 105.826L69.1453 80.2225L68.4453 79.5083L42.3232 105.112L43.0232 105.826Z" fill="#FE4328"/>
</svg>
