<svg viewBox="0 0 80 80" fill="none" xmlns="http://www.w3.org/2000/svg">
<path fill-rule="evenodd" clip-rule="evenodd" d="M40.1184 78.5211C18.7113 78.5211 1.35681 61.1665 1.35681 39.7595C1.35681 18.3525 18.7113 0.99585 40.1184 0.99585" fill="#F7F7FA"/>
<path fill-rule="evenodd" clip-rule="evenodd" d="M40.1289 1.02075C61.5359 1.02075 78.8905 18.3753 78.8905 39.7823C78.8905 61.1893 61.5359 78.5439 40.1289 78.5439" fill="#CFDDE0"/>
<path d="M58.923 29.8687C58.9024 29.8728 58.8797 29.8749 58.857 29.8769C53.9507 22.3865 44.8414 20.8522 36.5013 21.6916L36.5034 21.6936C34.0182 21.8091 31.6878 22.3268 29.5739 23.1888C26.8743 24.2901 24.5253 25.9482 22.6424 28.025C20.6914 30.1801 19.2416 32.7848 18.4291 35.6927C17.7341 38.1737 17.5031 40.8754 17.8186 43.7008L22.0237 74.4069L40.3176 78.8824L40.3187 78.8842H40.3248L58.5683 74.1037L62.2681 44.0246C62.926 38.7924 61.7154 33.8304 58.923 29.8687Z" fill="#272733"/>
<path d="M74.8834 57.0028C72.0435 54.5301 69.2305 52.5585 67.0383 52.0326C64.7944 51.4943 62.7342 52.1852 61.0781 53.4598L54.6519 76.4094C54.6519 76.4094 71.6661 70.6349 74.8834 57.0028Z" fill="#272733"/>
<path d="M5.36201 57.0048C8.20184 54.5315 11.0149 52.5594 13.2071 52.0334C15.4509 51.495 17.5112 52.186 19.1673 53.4609L25.5935 76.4159C25.5935 76.4159 8.57926 70.64 5.36201 57.0048Z" fill="#272733"/>
<path d="M58.3022 56.5038L60.2016 53.0081C60.2305 52.9524 60.2656 52.907 60.3068 52.8699C60.2408 52.8823 60.1769 52.905 60.115 52.9503L52.2513 58.8981V68.4158L45.3095 64.1488L40.5991 67.7125C40.4362 67.8363 40.2094 67.8342 40.0485 67.7084L35.0473 63.7941L27.5301 68.4137V57.9103L19.8582 51.9068C19.8005 51.8614 19.7386 51.8346 19.6768 51.8202C19.7159 51.8573 19.7489 51.9047 19.7757 51.9625L31.793 77.9561C34.441 78.5274 37.1901 78.8326 40.0114 78.8326C42.5563 78.8326 45.0435 78.5852 47.4523 78.117L57.7557 57.5927C57.9372 57.2276 58.1042 56.877 58.3022 56.5038Z" fill="white"/>
<path d="M27.5281 52.4471L39.8897 60.814L27.5281 68.4117V52.4471Z" fill="#F24E1E"/>
<path d="M39.8918 60.8161L52.2514 52.4492L52.2514 68.4138L39.8918 60.8161Z" fill="#DB210F"/>
<path d="M40.4732 51.6388L45.6126 49.131C45.6187 49.129 45.6187 49.1207 45.6146 49.1166L40.3351 43.7875C40.3309 43.7834 40.3268 43.7834 40.3227 43.7875L40.2319 43.8783" fill="#754F10"/>
<path d="M40.232 43.8761L34.9215 49.0835C34.9173 49.0876 34.9173 49.0959 34.9235 49.0979L40.465 51.6387C40.4671 51.6408 40.4712 51.6387 40.4733 51.6387" fill="#F5A623"/>
<path d="M51.6264 43.2263C48.2916 45.1093 42.218 40.7268 42.218 40.7268C43.9073 39.0633 52.4757 30.7211 54.293 33.9087C56.1553 37.1713 54.9612 41.3434 51.6264 43.2263Z" fill="white"/>
<path d="M28.9057 43.0594C25.5997 41.1291 24.4675 36.9405 26.3772 33.7047C28.2431 30.5419 36.6847 39.0131 38.3512 40.7001C38.3512 40.7001 32.2116 44.9918 28.9057 43.0594Z" fill="white"/>
<ellipse cx="46.1963" cy="38.7717" rx="2.26857" ry="2.26857" fill="#272733"/>
<circle cx="34.4409" cy="38.7717" r="2.26857" fill="#272733"/>
<path d="M62.8419 22.7822L62.3155 22.4771L62.1568 23.0645C61.922 23.9337 61.7097 24.8074 61.5273 25.6794C61.4627 25.8306 61.241 26.0345 60.6438 26.1724C60.0462 26.3104 59.2042 26.3482 58.1622 26.2717C56.0854 26.1191 53.3222 25.5211 50.3731 24.505C47.4243 23.489 44.8791 22.258 43.1487 21.0988C42.2805 20.5172 41.6403 19.9687 41.2542 19.4917C40.8701 19.0171 40.8194 18.7201 40.8605 18.5605C41.2546 17.759 41.6259 16.9379 41.9757 16.1062L42.211 15.5466L41.6097 15.4626C39.2646 15.1351 37.2301 15.0651 35.6977 15.2834C34.9322 15.3924 34.2669 15.5768 33.7454 15.855C33.2209 16.1348 32.8121 16.527 32.6297 17.057C32.3248 17.943 32.7467 18.9045 33.4738 19.8014C34.2191 20.7207 35.3852 21.7011 36.8596 22.6879C39.8143 24.6655 44.099 26.7295 49.0144 28.4231C53.9298 30.1167 58.5759 31.1298 62.121 31.3917C63.8899 31.5224 65.412 31.4682 66.565 31.2029C67.6899 30.944 68.6141 30.4462 68.9191 29.5602L68.9191 29.5601C69.1011 29.031 69.0207 28.4709 68.7805 27.9282C68.5416 27.3885 68.132 26.8343 67.5975 26.2776C66.5276 25.1634 64.886 23.967 62.8419 22.7822Z" fill="#272733" stroke="white" stroke-width="0.934098"/>
<path d="M67 10.9999C66.0909 12.552 63.6801 7.61708 56.9785 5.30805C50.2782 2.99943 45.2621 2.78283 45.5 0.999878C45.5 0.999878 44.7763 9.46878 40.261 18.6956C40.2502 20.2718 44.6882 23.1639 50.1829 25.0571C55.6788 26.9508 60.9942 27.4057 61.9539 26.1556C64.0152 16.2417 66.9787 11.0334 67 10.9999Z" fill="#AF5CF8"/>
<path d="M67.5 10.9998L45.5 0.499756C45.5 0.499756 45.5 4.99976 41.9376 14.956C41.9268 16.5323 46.054 19.1938 51.5486 21.0869C57.0452 22.9807 61.9352 23.4263 62.8956 22.1762C66 11.9998 67.5 10.9998 67.5 10.9998Z" fill="#272733"/>
<path d="M78.75 40C78.75 61.401 61.401 78.75 40 78.75C18.599 78.75 1.25 61.401 1.25 40C1.25 18.599 18.599 1.25 40 1.25C61.401 1.25 78.75 18.599 78.75 40Z" stroke="#272733" stroke-width="2.5" stroke-miterlimit="10"/>
</svg>
