<svg width="24" height="24" viewBox="0 0 24 24" xmlns="http://www.w3.org/2000/svg">
<path d="M11.9998 1.49976C6.20132 1.49976 1.49976 6.32319 1.49976 12.2669C1.49976 17.0247 4.50913 21.056 8.681 22.481C8.73952 22.4937 8.79925 22.5 8.85913 22.4997C9.24819 22.4997 9.39819 22.2138 9.39819 21.9654C9.39819 21.7076 9.38881 21.0326 9.38413 20.1326C9.0368 20.214 8.68148 20.2564 8.32475 20.2591C6.30444 20.2591 5.84507 18.6888 5.84507 18.6888C5.36694 17.4466 4.67788 17.1138 4.67788 17.1138C3.76382 16.4716 4.67319 16.4529 4.7435 16.4529H4.74819C5.80288 16.5466 6.356 17.5685 6.356 17.5685C6.881 18.4872 7.58413 18.7451 8.21225 18.7451C8.62758 18.7368 9.03649 18.6409 9.41225 18.4638C9.506 17.7701 9.77788 17.2966 10.0779 17.0247C7.74819 16.7529 5.29663 15.8294 5.29663 11.7044C5.29663 10.5279 5.70444 9.56694 6.37475 8.81694C6.26694 8.54506 5.906 7.44819 6.47788 5.96694C6.55459 5.94859 6.63343 5.9407 6.71225 5.9435C7.09194 5.9435 7.94975 6.08881 9.36538 7.07319C11.0855 6.59193 12.9047 6.59193 14.6247 7.07319C16.0404 6.08881 16.8982 5.9435 17.2779 5.9435C17.3567 5.9407 17.4355 5.94859 17.5122 5.96694C18.0841 7.44819 17.7232 8.54506 17.6154 8.81694C18.2857 9.57163 18.6935 10.5326 18.6935 11.7044C18.6935 15.8388 16.2372 16.7482 13.8982 17.0154C14.2732 17.3482 14.6107 18.0044 14.6107 19.0076C14.6107 20.4466 14.5966 21.6091 14.5966 21.9607C14.5966 22.2138 14.7419 22.4997 15.131 22.4997C15.194 22.5 15.2568 22.4937 15.3185 22.481C19.4951 21.056 22.4997 17.0201 22.4997 12.2669C22.4997 6.32319 17.7982 1.49976 11.9998 1.49976Z"/>
</svg>
