<svg width="17" height="16" viewBox="0 0 17 16" xmlns="http://www.w3.org/2000/svg">
<path fill-rule="evenodd" clip-rule="evenodd" d="M2.75 1.00049L2.74855 1.00049C2.41771 1.00145 2.10069 1.1333 1.86675 1.36724C1.63281 1.60118 1.50096 1.9182 1.5 2.24904L1.5 2.25049V13.2505L1.5 13.252C1.50139 13.7153 1.68605 14.1592 2.01366 14.4868C2.34126 14.8144 2.7852 14.9991 3.24851 15.0005L3.25 15.0005H13.5V14.9994C14.0304 14.9994 14.5391 14.7887 14.9142 14.4136C15.2892 14.0386 15.5 13.5299 15.5 12.9994V4.74943C15.5 4.41791 15.3683 4.09997 15.1338 3.86555C14.8994 3.63113 14.5815 3.49943 14.25 3.49943H12.5V2.25049L12.5 2.24904C12.499 1.9182 12.3672 1.60118 12.1332 1.36724C11.8993 1.1333 11.5823 1.00145 11.2514 1.00049L2.75 1.00049ZM12.5 12.9961L12.5 4.49943H14.25C14.3163 4.49943 14.3799 4.52577 14.4267 4.57266C14.4736 4.61954 14.5 4.68313 14.5 4.74943V12.9994C14.5 13.2646 14.3946 13.519 14.2071 13.7065C14.0195 13.8941 13.7652 13.9994 13.5 13.9994C13.2347 13.9994 12.9804 13.8941 12.7929 13.7065C12.6053 13.519 12.5 13.2646 12.5 12.9994L12.5 12.9961ZM11.5 3.9934V2.25133C11.4996 2.18492 11.4731 2.12132 11.4261 2.07435C11.3791 2.02736 11.3155 2.00082 11.2491 2.00049H2.75092C2.68448 2.00082 2.62085 2.02736 2.57386 2.07435C2.52687 2.12134 2.50033 2.18497 2.5 2.25141V13.2496C2.50077 13.4485 2.58011 13.6391 2.72076 13.7797C2.86139 13.9204 3.0519 13.9997 3.25076 14.0005H11.7685C11.5941 13.6988 11.5 13.354 11.5 12.9994V3.99943C11.5 3.99742 11.5 3.99541 11.5 3.9934Z" />
<path d="M4 6.49951H6C6.13261 6.49951 6.25978 6.44683 6.35355 6.35306C6.44732 6.2593 6.5 6.13212 6.5 5.99951V3.99951C6.5 3.8669 6.44732 3.73973 6.35355 3.64596C6.25978 3.55219 6.13261 3.49951 6 3.49951H4C3.86739 3.49951 3.74021 3.55219 3.64645 3.64596C3.55268 3.73973 3.5 3.8669 3.5 3.99951V5.99951C3.5 6.13212 3.55268 6.2593 3.64645 6.35306C3.74021 6.44683 3.86739 6.49951 4 6.49951Z" />
<path d="M7.5 3.99959C7.5 3.72345 7.72386 3.49959 8 3.49959H10C10.2761 3.49959 10.5 3.72345 10.5 3.99959C10.5 4.27574 10.2761 4.49959 10 4.49959H8C7.72386 4.49959 7.5 4.27574 7.5 3.99959Z" />
<path d="M7.5 6.00041C7.5 5.72426 7.72386 5.50041 8 5.50041H10C10.2761 5.50041 10.5 5.72426 10.5 6.00041C10.5 6.27655 10.2761 6.50041 10 6.50041H8C7.72386 6.50041 7.5 6.27655 7.5 6.00041Z" />
<path d="M3.5 8.00049C3.5 7.72435 3.72386 7.50049 4 7.50049H10C10.2761 7.50049 10.5 7.72435 10.5 8.00049C10.5 8.27663 10.2761 8.50049 10 8.50049H4C3.72386 8.50049 3.5 8.27663 3.5 8.00049Z" />
<path d="M3.5 9.99935C3.5 9.72321 3.72386 9.49935 4 9.49935H10C10.2761 9.49935 10.5 9.72321 10.5 9.99935C10.5 10.2755 10.2761 10.4994 10 10.4994H4C3.72386 10.4994 3.5 10.2755 3.5 9.99935Z" />
<path d="M3.5 11.9989C3.5 11.7227 3.72386 11.4989 4 11.4989H10C10.2761 11.4989 10.5 11.7227 10.5 11.9989C10.5 12.275 10.2761 12.4989 10 12.4989H4C3.72386 12.4989 3.5 12.275 3.5 11.9989Z" />
</svg>
