<svg width="25" height="24" viewBox="0 0 25 24" xmlns="http://www.w3.org/2000/svg">
<path d="M8 13.5005C8.82843 13.5005 9.5 12.8289 9.5 12.0005C9.5 11.1721 8.82843 10.5005 8 10.5005C7.17157 10.5005 6.5 11.1721 6.5 12.0005C6.5 12.8289 7.17157 13.5005 8 13.5005Z" />
<path d="M12.5 13.5005C13.3284 13.5005 14 12.8289 14 12.0005C14 11.1721 13.3284 10.5005 12.5 10.5005C11.6716 10.5005 11 11.1721 11 12.0005C11 12.8289 11.6716 13.5005 12.5 13.5005Z" />
<path d="M18.5 12.0005C18.5 12.8289 17.8284 13.5005 17 13.5005C16.1716 13.5005 15.5 12.8289 15.5 12.0005C15.5 11.1721 16.1716 10.5005 17 10.5005C17.8284 10.5005 18.5 11.1721 18.5 12.0005Z" />
<path fill-rule="evenodd" clip-rule="evenodd" d="M12.5 3.00024C7.50209 3.00024 3.48498 6.95039 3.50004 11.7795L3.50005 11.7818C3.49999 13.4617 3.99098 15.1047 4.9124 16.509C5.07445 16.7303 5.20693 16.9781 5.28914 17.2399C5.34444 17.416 5.40814 17.703 5.3249 18.0094L5.32403 18.0126L4.54982 20.8131L7.22866 19.8463C7.49543 19.7365 7.78133 19.6806 8.06992 19.6816C8.33918 19.6822 8.60607 19.732 8.85742 19.8286L8.8585 19.829C10.0612 20.2935 11.2032 20.6449 12.5 20.6449C17.473 20.6449 21.4999 16.643 21.5 11.78C21.4982 6.96408 17.2939 3.00024 12.5 3.00024ZM2.00005 11.783C1.98295 6.08915 6.7077 1.50024 12.5 1.50024C18.1339 1.50024 22.9981 6.12872 23 11.78C23 17.4553 18.3176 22.1449 12.5 22.1449C11.018 22.1449 9.69454 21.7596 8.31907 21.2287C8.23837 21.1977 8.15268 21.1817 8.06623 21.1816L8.06422 21.1816C7.97098 21.1813 7.87863 21.1998 7.79277 21.2362L7.77406 21.2441L4.59312 22.3921C4.61885 22.3816 4.61876 22.3813 4.59312 22.3921C4.46107 22.4463 4.32191 22.4813 4.17987 22.4962L4.13987 22.5004L4.09966 22.5002C3.9409 22.4998 3.78382 22.4678 3.63751 22.4062C3.4912 22.3445 3.35858 22.2545 3.24731 22.1413C3.13605 22.028 3.04836 21.8938 2.98933 21.7465C2.886 21.4885 2.88371 21.1936 2.96193 20.9278L3.85756 17.6878C3.85756 17.6331 3.80994 17.568 3.76844 17.4947C3.77294 17.5021 3.75968 17.4792 3.76844 17.4947C2.69696 15.7209 2.00022 13.887 2.00005 11.783Z"/>
</svg>
