<svg fill="none" xmlns="http://www.w3.org/2000/svg" viewBox="0 0 33 32">
  <defs/>
  <path fill-rule="evenodd" clip-rule="evenodd" d="M16.547 31.409c-8.562 0-15.504-6.942-15.504-15.505S7.985.398 16.547.398" fill="#F7F7FA"/>
  <path d="M24.07 11.947a.26.26 0 01-.027.004C22.08 8.955 18.437 8.34 15.1 8.677a8.349 8.349 0 00-2.771.599 7.61 7.61 0 00-2.773 1.934 7.604 7.604 0 00-1.685 3.067 8.392 8.392 0 00-.245 3.203L9.31 29.763l7.317 1.79h.003l7.297-1.912 1.48-12.031c.263-2.093-.22-4.078-1.338-5.662z" fill="#272733"/>
  <path d="M11.511 20.979l4.945 3.347-4.945 3.039v-6.386z" fill="#F24E1E"/>
  <path d="M16.457 24.326L21.4 20.98v6.386l-4.944-3.04z" fill="#DB210F"/>
  <path d="M16.69 20.655l2.055-1.003c.002 0 .002-.004 0-.005l-2.111-2.132c-.002-.002-.003-.002-.005 0l-.036.036" fill="#754F10"/>
  <path d="M16.593 17.55l-2.124 2.083c-.002.002-.002.005 0 .006l2.217 1.017h.003" fill="#F5A623"/>
  <path d="M21.15 17.29c-1.333.754-3.763-1-3.763-1 .676-.665 4.103-4.002 4.83-2.726.745 1.304.268 2.973-1.066 3.727zM12.062 17.224c-1.322-.772-1.775-2.448-1.011-3.742.746-1.265 4.123 2.123 4.79 2.798 0 0-2.456 1.717-3.779.944z" fill="#fff"/>
  <circle cx="18.979" cy="15.509" fill="#272733" r=".907"/>
  <circle cx="14.276" cy="15.509" fill="#272733" r=".907"/>
  <path d="M25.543 9.275c-.094.349-.18.7-.252 1.05-.217.629-2.322.474-4.703-.346-2.38-.82-4.134-1.996-3.918-2.625.159-.32.308-.65.448-.984-1.86-.26-3.177-.103-3.39.514-.355 1.032 2.528 2.961 6.439 4.309 3.91 1.347 7.369 1.603 7.724.57.212-.615-.727-1.549-2.348-2.488z" fill="#272733"/>
  <path fill-rule="evenodd" clip-rule="evenodd" d="M26.134 8.468l-.59.807-8.426-2.905.032-1 .151.006 8.71 3.002.123.09zm1.757 3.295c-.355 1.033-3.813.777-7.724-.57-3.911-1.348-6.794-3.277-6.439-4.31.213-.616 3.39-.513 3.39-.513l.032-1H17.108a14.724 14.724 0 00-.49-.006c-.313 0-.74.006-1.178.034a8.308 8.308 0 00-1.321.172 2.777 2.777 0 00-.648.229c-.187.098-.537.32-.688.76m15.108 5.204c.212-.615-2.348-2.488-2.348-2.488l.59-.807.004.002.007.005.024.018.086.065a20.16 20.16 0 011.207.983c.32.284.67.62.933.948.129.162.27.36.368.58.087.19.226.581.075 1.02-.267.773-1.015 1.066-1.529 1.185-.574.132-1.274.149-2.02.094-1.506-.111-3.434-.536-5.447-1.23-2.013-.693-3.794-1.547-5.05-2.387-.62-.416-1.162-.86-1.533-1.318-.332-.41-.741-1.101-.475-1.875" fill="#fff"/>
  <path d="M27.3 4.4c-.364.62-1.328-1.353-4.009-2.277-2.68-.923-4.686-1.01-4.59-1.723 0 0-.29 3.387-2.096 7.078-.005.63 1.77 1.787 3.968 2.545 2.199.757 4.325.94 4.709.44.824-3.966 2.01-6.05 2.018-6.063z" fill="#AF5CF8"/>
  <path d="M27.5 4.4L18.7.2s0 1.8-1.425 5.782c-.004.63 1.647 1.696 3.845 2.453 2.198.757 4.154.936 4.538.435C26.9 4.8 27.5 4.4 27.5 4.4z" fill="#272733"/>
  <path fill-rule="evenodd" clip-rule="evenodd" d="M16.5 29.5C23.956 29.5 30 23.456 30 16S23.956 2.5 16.5 2.5 3 8.544 3 16s6.044 13.5 13.5 13.5zm16-13.5c0 8.837-7.163 16-16 16S.5 24.837.5 16s7.163-16 16-16 16 7.163 16 16z" fill="#272733"/>
</svg>
