<svg viewBox="0 0 40 40" fill="none" xmlns="http://www.w3.org/2000/svg">
  <path d="M37.5008 38.7497H3.75079c-.66304 0-1.29892-.2633-1.76776-.7322-.46884-.4688-.73224-1.1047-.73224-1.7678V2.49976c0-.33153.1317-.64947.36612-.88389.23442-.23442.55236-.36611.88388-.36611.33152 0 .64947.13169.88389.36611.23442.23442.36611.55236.36611.88389V36.2497H37.5008c.3315 0 .6494.1317.8839.3662.2344.2344.3661.5523.3661.8838 0 .3316-.1317.6495-.3661.8839-.2345.2344-.5524.3661-.8839.3661z" fill="#CFDDE0"/>
  <path d="M12.1876 32.7496H9.06256c-.4807 0-.94172-.1909-1.28163-.5308-.33991-.34-.53087-.801-.53087-1.2817v-11.875c0-.4807.19096-.9417.53087-1.2816.33991-.3399.80093-.5309 1.28163-.5309h3.12504c.4807 0 .9417.191 1.2816.5309l.5617-.5617-.5617.5617c.3399.3399.5309.8009.5309 1.2816v11.875c0 .4807-.191.9417-.5309 1.2817-.3399.3399-.8009.5308-1.2816.5308z" stroke="#599CFF" stroke-width="2"/>
  <path d="M24.7191 14.0303l.5616-.5617-.5616.5617c.3399.3399.5308.8009.5308 1.2816v15.625c0 .4807-.1909.9417-.5308 1.2816-.3399.3399-.801.5309-1.2817.5309h-3.125c-.4807 0-.9417-.191-1.2816-.5309l-.7046.7046.7046-.7046c-.3399-.3399-.5309-.8009-.5309-1.2816v-15.625c0-.4807.191-.9417.5309-1.2816.3399-.34.8009-.5309 1.2816-.5309h3.125c.4807 0 .9418.1909 1.2817.5309z" stroke="#1ABCFE" stroke-width="2"/>
  <path d="M34.6594 32.7506h-3.125c-.4807 0-.9418-.191-1.2817-.5309-.3399-.3399-.5308-.8009-.5308-1.2816v-20.625c0-.4807.1909-.94171.5308-1.28162.3399-.33991.801-.53087 1.2817-.53087h3.125c.4807 0 .9417.19096 1.2816.53087l.5577-.55772-.5577.55772c.3399.33991.5309.80093.5309 1.28162v20.625c0 .4807-.191.9417-.5309 1.2816-.3399.3399-.8009.5309-1.2816.5309z" stroke="#AF5CF8" stroke-width="2"/>
</svg>
