<svg viewBox="0 0 28 28" fill="none" xmlns="http://www.w3.org/2000/svg">
  <defs/>
  <g opacity=".3" fill="#E24D3F">
    <path d="M25.54 15.82h-3.227v-2.448c0-.146-.005-.29-.014-.43 1.502-1.416 1.638-3.282 1.639-5.23a.828.828 0 00-.775-.834.813.813 0 00-.85.81c0 1.422-.095 2.445-.503 3.242-.976-2.09-3.34-3.246-6.81-3.246-2.02 0-3.767.464-5.049 1.34-.757.518-1.33 1.164-1.711 1.916-.45-.781-.552-1.78-.552-3.229a.828.828 0 00-.772-.834.813.813 0 00-.853.811c0 1.91.132 3.744 1.647 5.16a6.323 6.323 0 00-.022.524v2.448H4.46a.828.828 0 00-.835.773.813.813 0 00.813.852h3.25v.805c-.001.935.178 1.86.527 2.727-1.303 1.165-2.144 2.453-2.153 4.552 0 .444.336.828.78.846a.813.813 0 00.845-.812c0-1.405.462-2.27 1.329-3.114a7.33 7.33 0 004.155 2.881.813.813 0 001.016-.786v-12.77c0-.438.336-.813.773-.835a.812.812 0 01.852.812v12.793a.812.812 0 001.015.786 7.332 7.332 0 004.155-2.88c.863.839 1.325 1.701 1.33 3.094a.826.826 0 00.766.831.81.81 0 00.859-.812c0-2.116-.843-3.414-2.153-4.586.35-.867.528-1.792.528-2.727v-.805h3.25a.812.812 0 00.812-.852.83.83 0 00-.835-.773z"/>
    <path d="M18.32 7.282l.017.005c.69.193 1.273-.536.924-1.16a4.867 4.867 0 00-4.25-2.501h-.021a4.869 4.869 0 00-4.276 2.545c-.347.64.261 1.372.957 1.161 1-.304 2.122-.46 3.33-.46 1.223 0 2.34.138 3.32.41z"/>
  </g>
  <path fill-rule="evenodd" clip-rule="evenodd" d="M12.987 1.625H13.013a4.875 4.875 0 014.861 4.896 2.959 2.959 0 01-.024.276c.063.038.125.077.186.117a4.85 4.85 0 011.773 2.016c.419-.815.503-1.852.503-3.242a.813.813 0 011.625 0c0 1.907-.12 3.82-1.638 5.254.01.14.014.283.014.43v2.448h3.25a.812.812 0 110 1.625h-3.25v.805a7.25 7.25 0 01-.53 2.726c.564.504 1.056 1.046 1.426 1.683.481.826.728 1.764.728 2.904a.813.813 0 01-1.625 0c0-.887-.187-1.537-.507-2.088a4.876 4.876 0 00-.825-1.027A7.317 7.317 0 0113 23.563h-.028a7.317 7.317 0 01-5.952-3.115c-.347.34-.619.673-.825 1.027-.32.551-.507 1.2-.507 2.088a.813.813 0 01-1.625 0c0-1.14.247-2.078.727-2.905.37-.636.863-1.178 1.427-1.683a7.25 7.25 0 01-.53-2.725v-.805h-3.25a.813.813 0 010-1.625h3.25v-2.448c0-.178.008-.352.022-.522-1.522-1.421-1.646-3.238-1.646-5.162a.812.812 0 111.625 0c0 1.436.089 2.45.552 3.253a5.132 5.132 0 011.71-1.917c.07-.047.141-.094.213-.139a3.305 3.305 0 01-.038-.398 4.875 4.875 0 014.862-4.862zm3.587 6.333a.885.885 0 01-.02-.01c-.94-.43-2.158-.639-3.554-.639-1.365 0-2.575.245-3.517.702a4.781 4.781 0 00-.615.355c-.966.66-1.556 1.633-1.556 3.006v4.878a5.632 5.632 0 00.635 2.601 5.722 5.722 0 004.24 3.028V9.751a.812.812 0 111.626 0v12.128a5.722 5.722 0 004.267-3.08 5.632 5.632 0 00.608-2.549v-4.878c0-1.525-.603-2.483-1.543-3.099a4.465 4.465 0 00-.57-.315zm-1.276-3.756a3.25 3.25 0 01.927 1.897c-.998-.293-2.101-.415-3.225-.415-1.135 0-2.238.149-3.231.468A3.25 3.25 0 0112.99 3.25h.018a3.25 3.25 0 012.29.952z" fill="#DB210F"/>
  <path d="M19.805 21.475a4.876 4.876 0 00-.825-1.027l.803-1.473a7.25 7.25 0 00.53-2.725v-4.878c0-.147-.005-.29-.014-.43l-.49-2.012c.419-.815.503-1.852.503-3.242a.813.813 0 011.625 0c0 1.907-.12 3.82-1.638 5.254.01.14.014.283.014.43v2.448h3.25a.813.813 0 010 1.625h-3.25v.805a7.25 7.25 0 01-.53 2.726c.564.504 1.056 1.046 1.426 1.683.481.827.728 1.764.728 2.904a.813.813 0 01-1.625 0c0-.887-.187-1.537-.507-2.088zM6.217 21.475c.206-.354.478-.687.825-1.027l-.804-1.473a7.25 7.25 0 01-.53-2.725v-4.878c0-.147.005-.29.014-.43l.49-2.012c-.419-.815-.503-1.852-.503-3.242a.812.812 0 10-1.625 0c0 1.907.12 3.82 1.638 5.254-.009.14-.013.283-.013.43v2.448h-3.25a.813.813 0 000 1.625h3.25v.805c0 .962.188 1.882.529 2.726-.564.504-1.056 1.046-1.426 1.683-.481.827-.728 1.764-.728 2.904a.813.813 0 001.625 0c0-.887.187-1.537.508-2.088z" fill="#5C0E06"/>
  <path d="M13.813 9.75v12.13h-1.626V9.75a.812.812 0 111.626 0z" fill="#00C05B"/>
</svg>
