<svg viewBox="0 0 24 24" fill="none" xmlns="http://www.w3.org/2000/svg">
  <path d="M13.8749 11.999c.6213 0 1.125-.5037 1.125-1.125s-.5037-1.12498-1.125-1.12498-1.125.50368-1.125 1.12498c0 .6213.5037 1.125 1.125 1.125zM17.6249 11.999c.6214 0 1.125-.5037 1.125-1.125s-.5036-1.12498-1.125-1.12498c-.6213 0-1.125.50368-1.125 1.12498 0 .6213.5037 1.125 1.125 1.125zM13.8749 15.7483c.6213 0 1.125-.5037 1.125-1.125s-.5037-1.125-1.125-1.125-1.125.5037-1.125 1.125.5037 1.125 1.125 1.125zM17.6249 15.7483c.6214 0 1.125-.5037 1.125-1.125s-.5036-1.125-1.125-1.125c-.6213 0-1.125.5037-1.125 1.125s.5037 1.125 1.125 1.125zM6.37495 15.7483c.62132 0 1.125-.5037 1.125-1.125s-.50368-1.125-1.125-1.125-1.125.5037-1.125 1.125.50368 1.125 1.125 1.125zM10.1249 15.7483c.6213 0 1.125-.5037 1.125-1.125s-.5037-1.125-1.125-1.125-1.12498.5037-1.12498 1.125.50368 1.125 1.12498 1.125zM6.37495 19.4991c.62132 0 1.125-.5036 1.125-1.125 0-.6213-.50368-1.125-1.125-1.125s-1.125.5037-1.125 1.125c0 .6214.50368 1.125 1.125 1.125zM10.1249 19.4991c.6213 0 1.125-.5036 1.125-1.125 0-.6213-.5037-1.125-1.125-1.125s-1.12498.5037-1.12498 1.125c0 .6214.50368 1.125 1.12498 1.125zM13.8749 19.4991c.6213 0 1.125-.5036 1.125-1.125 0-.6213-.5037-1.125-1.125-1.125s-1.125.5037-1.125 1.125c0 .6214.5037 1.125 1.125 1.125z" />
  <path fill-rule="evenodd" clip-rule="evenodd" d="M5.99982 1.4989c.41422 0 .75.33579.75.75v.75012H17.2499V2.2489c0-.41421.3358-.75.75-.75s.75.33579.75.75v.75012H19.5c1.6568 0 3 1.34315 3 3V19.499c0 1.6569-1.3432 3-3 3H4.49997c-1.65685 0-3-1.3431-3-3V5.99902c0-1.65685 1.34315-3 3-3h.74985V2.2489c0-.41421.33579-.75.75-.75zM21 9.74902c0-.75-.75-1.5-1.5-1.5H4.49997c-.75 0-1.5.75-1.5 1.5V19.499c0 .8284.67158 1.5 1.5 1.5H19.5c.8284 0 1.5-.6716 1.5-1.5V9.74902z" />
</svg>
