<svg viewBox="0 0 25 27" fill="none" xmlns="http://www.w3.org/2000/svg">
  <path fill-rule="evenodd" clip-rule="evenodd" d="M12.587 5.24805H3.93503c-.84408.00264-1.65281.33918-2.24957.93613-.59676.59695-.933056 1.40579-.935429 2.24987V15.563c.002637.8439.339049 1.6525.935779 2.2493.59673.5967 1.40532.9331 2.24922.9357H12.565c.8439-.0026 1.6525-.339 2.2493-.9357.5967-.5968.9331-1.4054.9357-2.2493V8.41105c-.0023-.83815-.3364-1.6413-.929-2.23396-.5927-.59266-1.3958-.92667-2.234-.92904zM2.74647 7.24449c.31641-.31641.7451-.49486 1.19256-.49644H12.584c.4413.00184.864.17796 1.176.48999.3121.31204.4882.73472.49 1.17601V15.56c-.0018.4473-.1804.8758-.4968 1.192-.3163.3161-.7449.4945-1.1922.496H3.93803c-.44712-.0018-.8754-.1802-1.19156-.4964-.31616-.3162-.4946-.7444-.49644-1.1916V8.43705c.00158-.44747.18004-.87615.49644-1.19256zM21.8677 5.98604c-.2492-.01962-.4993.02336-.7277.12501h.001c-.0445.01981-.0871.04392-.127.072l-3.877 2.729c-.1966.13833-.3572.32192-.468.53529-.1109.21337-.1688.45026-.169.69066v3.722c.0002.2405.0581.4774.169.6908.1108.2133.2714.3969.468.5352l3.877 2.73c.0396.0281.0818.0522.126.072.2285.1017.4787.1447.728.125.2492-.0196.4896-.1013.6993-.2375.2097-.1363.382-.3227.5012-.5425.1192-.2198.1816-.4659.1815-.716V7.48105c0-.24996-.0626-.49594-.1819-.71559-.1193-.21965-.2916-.406-.5012-.54212-.2097-.13612-.45-.21769-.6992-.2373zM21.75 7.49902V16.5L18 13.86v-3.72l3.75-2.64098z" fill="#DB210F"/>
</svg>
