<svg viewBox="0 0 24 24" fill="none" xmlns="http://www.w3.org/2000/svg">
<path fill-rule="evenodd" clip-rule="evenodd" d="M14.0003 2.28595C18.2842 2.28595 21.7274 5.67177 21.7145 9.81096L21.7145 9.81298C21.7145 11.2528 21.2937 12.6612 20.5039 13.8648C20.365 14.0545 20.2515 14.267 20.181 14.4913C20.1336 14.6422 20.079 14.8883 20.1503 15.1509L20.1511 15.1536L20.8147 17.554L18.5185 16.7253C18.2899 16.6313 18.0448 16.5833 17.7975 16.5842C17.5667 16.5847 17.3379 16.6274 17.1225 16.7102C16.0916 17.1083 15.1118 17.4099 14.0003 17.4099C9.73771 17.4099 6.28607 13.9797 6.28596 9.81142C6.28752 5.68351 9.89122 2.28595 14.0003 2.28595ZM23.0002 9.81395C23.0149 4.93357 18.9651 1.00024 14.0003 1.00024C9.17117 1.00024 5.00193 4.96749 5.00024 9.81142C5.00024 14.676 9.01379 18.6956 14.0003 18.6956C15.2705 18.6956 16.4049 18.3653 17.5839 17.9102C17.6531 17.8837 17.7265 17.87 17.8006 17.8699L17.8023 17.8699C17.8823 17.8696 17.9614 17.8855 18.035 17.9167L18.0511 17.9235L20.7776 18.9075C20.7556 18.8982 20.7555 18.8984 20.7776 18.9075C20.8908 18.9539 21.01 18.9839 21.1318 18.9967L21.1661 19.0002L21.2005 19.0001C21.3366 18.9997 21.4713 18.9723 21.5967 18.9195C21.7221 18.8667 21.8358 18.7895 21.9311 18.6925C22.0265 18.5954 22.1016 18.4804 22.1522 18.3541C22.2408 18.133 22.2428 17.8802 22.1757 17.6524L21.4081 14.8752C21.4081 14.8283 21.4489 14.7725 21.4844 14.7097C21.4919 14.6964 21.4806 14.7161 21.4844 14.7097C22.4029 13.1893 23.0001 11.6174 23.0002 9.81395Z" />
<path d="M3.28596 12.813C3.28591 14.2529 3.70675 15.6612 4.49654 16.8648C4.63544 17.0546 4.74899 17.267 4.81946 17.4913C4.86686 17.6423 4.92146 17.8883 4.85012 18.1509L4.84937 18.1536L4.18576 20.554L6.48191 19.7253C6.71057 19.6313 6.95562 19.5833 7.20299 19.5842C7.43378 19.5847 7.66255 19.6274 7.87798 19.7102C8.90888 20.1083 9.88864 20.4099 11.0002 20.4099C11.0002 20.4099 12.0002 20.3574 12.0002 21.0002C12.0002 21.6431 11.0002 21.6956 11.0002 21.6956C9.72992 21.6956 8.59551 21.3653 7.41654 20.9103C7.34737 20.8837 7.27392 20.87 7.19983 20.87L7.1981 20.8699C7.11818 20.8696 7.03902 20.8856 6.96542 20.9167L6.94939 20.9235L4.22288 21.9075C4.10969 21.9539 3.99041 21.984 3.86866 21.9967L3.83438 22.0003L3.79991 22.0002C3.66383 21.9998 3.52919 21.9723 3.40378 21.9195C3.27838 21.8667 3.1647 21.7895 3.06933 21.6925C2.97396 21.5954 2.8988 21.4804 2.8482 21.3541C2.75963 21.133 2.75767 20.8802 2.82472 20.6524L3.59239 17.8752C3.59239 17.8283 3.55158 17.7726 3.51601 17.7097C2.5976 16.1893 2.00039 14.6174 2.00024 12.814V12.813C2.00024 12.813 1.88242 11.813 2.6431 11.813C3.40378 11.813 3.28596 12.813 3.28596 12.813Z" />
</svg>
