<svg width="20" height="20" viewBox="0 0 20 20" fill="none" xmlns="http://www.w3.org/2000/svg">
<path fill-rule="evenodd" clip-rule="evenodd" d="M4.06072 1.87427L4.0625 1.87427L15.9375 1.87427L15.9393 1.87427C16.6841 1.87639 17.3978 2.1732 17.9244 2.69985C18.4511 3.22651 18.7479 3.94019 18.75 4.68499L18.75 4.68677L18.75 12.1868L18.75 12.1885C18.7479 12.9333 18.4511 13.647 17.9244 14.1737C17.3978 14.7003 16.6841 14.9971 15.9393 14.9993L15.9375 14.9993H9.59945L6.02524 17.9793C5.83895 18.1346 5.57963 18.1681 5.35997 18.0653C5.14032 17.9624 5 17.7418 5 17.4993V14.9993H4.0625L4.06072 14.9993C3.31592 14.9971 2.60224 14.7003 2.07558 14.1737C1.54893 13.647 1.25212 12.9333 1.25 12.1885L1.25 12.1868V4.68499C1.25212 3.94019 1.54893 3.22651 2.07558 2.69985C2.60224 2.1732 3.31592 1.87639 4.06072 1.87427ZM15.9365 3.12427H4.06346C3.64925 3.12566 3.25238 3.29083 2.95947 3.58374C2.66656 3.87665 2.50139 4.27352 2.5 4.68773V12.1858C2.50139 12.6 2.66656 12.9969 2.95947 13.2898C3.25233 13.5827 3.64913 13.7478 4.06327 13.7493H5.625C5.97018 13.7493 6.25 14.0291 6.25 14.3743V16.1644L8.88528 13.9672C8.88542 13.9671 8.88514 13.9674 8.88528 13.9672C9.05384 13.8266 9.26682 13.7493 9.48633 13.7493C9.48637 13.7493 9.48629 13.7493 9.48633 13.7493H15.9367C16.3509 13.7478 16.7477 13.5827 17.0405 13.2898C17.3334 12.9969 17.4986 12.6001 17.5 12.186V4.68754C17.4986 4.2734 17.3334 3.87661 17.0405 3.58374C16.7476 3.29083 16.3508 3.12566 15.9365 3.12427Z" />
<path d="M6.25 9.6871C6.94036 9.6871 7.5 9.12746 7.5 8.4371C7.5 7.74675 6.94036 7.1871 6.25 7.1871C5.55964 7.1871 5 7.74675 5 8.4371C5 9.12746 5.55964 9.6871 6.25 9.6871Z" fill="#73250E"/>
<path d="M10 9.6871C10.6904 9.6871 11.25 9.12746 11.25 8.4371C11.25 7.74675 10.6904 7.1871 10 7.1871C9.30964 7.1871 8.75 7.74675 8.75 8.4371C8.75 9.12746 9.30964 9.6871 10 9.6871Z" fill="#73250E"/>
<path d="M13.75 9.6871C14.4404 9.6871 15 9.12746 15 8.4371C15 7.74675 14.4404 7.1871 13.75 7.1871C13.0596 7.1871 12.5 7.74675 12.5 8.4371C12.5 9.12746 13.0596 9.6871 13.75 9.6871Z" fill="#73250E"/>
</svg>
