<svg viewBox="0 0 49 49" fill="none" xmlns="http://www.w3.org/2000/svg">
  <path d="M24.703 39.225a.998.998 0 00-.217-.326l-5.998-6a1 1 0 00-1.415 1.415l4.293 4.293H7.781a3.003 3.003 0 01-3-3v-22a3.003 3.003 0 013-3 1 1 0 100-2 5.005 5.005 0 00-5 5v22a5.005 5.005 0 005 5h13.585L17.073 44.9a1 1 0 101.415 1.414l5.998-5.999a1.003 1.003 0 00.217-1.09zM41.78 8.609H28.193l4.293-4.295A1 1 0 0031.072 2.9l-5.999 6a1.004 1.004 0 000 1.417l6 6.001a1 1 0 001.413-1.414l-4.293-4.295H41.78a3.003 3.003 0 013 3.001v22.008a3.005 3.005 0 01-3 3 1 1 0 000 2.001 5.004 5.004 0 005-5.001V13.61a5.006 5.006 0 00-5-5.001z" fill="#06F"/>
  <circle r="5" transform="matrix(-1 0 0 1 16.78 9.62)" fill="#06F"/>
  <path d="M32.78 33.62l6.063 10.5H26.718l6.063-10.5z" fill="#06F"/>
</svg>
