<svg viewBox="0 0 33 32" fill="none" xmlns="http://www.w3.org/2000/svg">
  <path d="M27.34 14.204a1 1 0 01-.757-.774c-.48-2.293-1.528-4.26-3.073-5.75a9.598 9.598 0 00-6.697-2.679c-2.218 0-4.265.73-5.917 2.113a9.765 9.765 0 00-2.625 3.5 1 1 0 01-.71.572c-1.688.35-3.193 1.083-4.325 2.117C1.65 14.742.813 16.715.813 19c0 2.25.9 4.305 2.531 5.787 1.572 1.428 3.692 2.213 5.97 2.213h16.25c2.023 0 3.764-.535 5.036-1.548 1.448-1.153 2.213-2.865 2.213-4.952 0-3.598-2.625-5.661-5.472-6.297zm-5.95-.558l-6.737 8a.999.999 0 01-.75.355h-.017a1.001 1.001 0 01-.742-.33l-2.869-3.18c-.36-.398-.364-1.02.019-1.4a.998.998 0 011.447.04l2.12 2.349 6-7.125a.998.998 0 011.652.184 1 1 0 01-.123 1.105v.002z" fill="#06F"/>
</svg>
