<svg width="53" height="49" viewBox="0 0 53 49" fill="none" xmlns="http://www.w3.org/2000/svg">
<path opacity="0.3" d="M39.2921 18.792V18.8221C39.5407 18.8722 39.78 18.9854 39.9846 19.1631L52.0675 29.6631C52.3953 29.948 52.5833 30.3595 52.5833 30.792C52.5833 31.2245 52.3953 31.636 52.0675 31.9209L39.9846 42.4209C39.78 42.5987 39.5407 42.7118 39.2921 42.762V42.792H19.8745V42.762C19.6259 42.7118 19.3866 42.5987 19.182 42.4209L7.0991 31.9209C6.77132 31.636 6.58331 31.2245 6.58331 30.792C6.58331 30.3595 6.77132 29.948 7.0991 29.6631L19.182 19.1631C19.3866 18.9854 19.6259 18.8722 19.8745 18.8221V18.792H39.2921Z" fill="#F8C369"/>
<path d="M24.7502 27.23C26.0964 27.23 27.1877 26.1387 27.1877 24.7925C27.1877 23.4463 26.0964 22.355 24.7502 22.355C23.404 22.355 22.3127 23.4463 22.3127 24.7925C22.3127 26.1387 23.404 27.23 24.7502 27.23Z" fill="#F5A623"/>
<path fill-rule="evenodd" clip-rule="evenodd" d="M24.7502 22.8237C23.6629 22.8237 22.7815 23.7052 22.7815 24.7925C22.7815 25.8798 23.6629 26.7612 24.7502 26.7612C25.8376 26.7612 26.719 25.8798 26.719 24.7925C26.719 23.7052 25.8376 22.8237 24.7502 22.8237ZM21.844 24.7925C21.844 23.1874 23.1452 21.8862 24.7502 21.8862C26.3553 21.8862 27.6565 23.1874 27.6565 24.7925C27.6565 26.3976 26.3553 27.6987 24.7502 27.6987C23.1452 27.6987 21.844 26.3976 21.844 24.7925Z" fill="#F5A623"/>
<path d="M33.1877 27.23C34.5338 27.23 35.6252 26.1387 35.6252 24.7925C35.6252 23.4463 34.5338 22.355 33.1877 22.355C31.8415 22.355 30.7502 23.4463 30.7502 24.7925C30.7502 26.1387 31.8415 27.23 33.1877 27.23Z" fill="#F5A623"/>
<path fill-rule="evenodd" clip-rule="evenodd" d="M33.1877 22.8237C32.1003 22.8237 31.2189 23.7052 31.2189 24.7925C31.2189 25.8798 32.1003 26.7612 33.1877 26.7612C34.275 26.7612 35.1564 25.8798 35.1564 24.7925C35.1564 23.7052 34.275 22.8237 33.1877 22.8237ZM30.2814 24.7925C30.2814 23.1874 31.5826 21.8862 33.1877 21.8862C34.7927 21.8862 36.0939 23.1874 36.0939 24.7925C36.0939 26.3976 34.7927 27.6987 33.1877 27.6987C31.5826 27.6987 30.2814 26.3976 30.2814 24.7925Z" fill="#F5A623"/>
<path d="M16.3126 27.23C17.6588 27.23 18.7501 26.1387 18.7501 24.7925C18.7501 23.4463 17.6588 22.355 16.3126 22.355C14.9664 22.355 13.8751 23.4463 13.8751 24.7925C13.8751 26.1387 14.9664 27.23 16.3126 27.23Z" fill="#F5A623"/>
<path fill-rule="evenodd" clip-rule="evenodd" d="M16.3126 22.8237C15.2253 22.8237 14.3439 23.7052 14.3439 24.7925C14.3439 25.8798 15.2253 26.7612 16.3126 26.7612C17.3999 26.7612 18.2814 25.8798 18.2814 24.7925C18.2814 23.7052 17.3999 22.8237 16.3126 22.8237ZM13.4064 24.7925C13.4064 23.1874 14.7075 21.8862 16.3126 21.8862C17.9177 21.8862 19.2189 23.1874 19.2189 24.7925C19.2189 26.3976 17.9177 27.6987 16.3126 27.6987C14.7075 27.6987 13.4064 26.3976 13.4064 24.7925Z" fill="#F5A623"/>
<path fill-rule="evenodd" clip-rule="evenodd" d="M17.2321 12.9962C17.9481 13.8145 17.8652 15.0583 17.0469 15.7743L6.74018 24.7926L17.0469 33.811C17.8652 34.527 17.9481 35.7708 17.2321 36.5891C16.5161 37.4073 15.2723 37.4903 14.454 36.7743L2.45403 26.2743C2.02678 25.9004 1.78171 25.3603 1.78171 24.7926C1.78171 24.2249 2.02678 23.6848 2.45403 23.311L14.454 12.811C15.2723 12.095 16.5161 12.1779 17.2321 12.9962Z" fill="#F5A623"/>
<path fill-rule="evenodd" clip-rule="evenodd" d="M32.2687 12.9962C32.9847 12.1779 34.2285 12.095 35.0468 12.811L47.0468 23.311C47.474 23.6848 47.7191 24.2249 47.7191 24.7926C47.7191 25.3603 47.474 25.9004 47.0468 26.2743L35.0468 36.7743C34.2285 37.4903 32.9847 37.4073 32.2687 36.5891C31.5527 35.7708 31.6356 34.527 32.4539 33.811L42.7606 24.7926L32.4539 15.7743C31.6356 15.0583 31.5527 13.8145 32.2687 12.9962Z" fill="#F5A623"/>
</svg>
