<svg viewBox="0 0 40 40" fill="none" xmlns="http://www.w3.org/2000/svg">
  <path d="M31.4061 13.1254c-.2289 3.1773-2.5859 5.625-5.1562 5.625s-4.9313-2.4469-5.1563-5.625c-.2344-3.3055 2.0602-5.62503 5.1563-5.62503s5.3906 2.37968 5.1562 5.62503z" stroke="#00C05B" stroke-width="2" stroke-linecap="round" stroke-linejoin="round"/>
  <path d="M26.2502 23.7499c-5.0914 0-9.9875 2.5289-11.2141 7.4539-.1625.6515.2461 1.2961.9156 1.2961h20.5977c.6695 0 1.0758-.6446.9156-1.2961-1.2265-5.0039-6.1226-7.4539-11.2148-7.4539z" stroke="#00C05B" stroke-width="2" stroke-miterlimit="10"/>
  <path d="M15.6248 14.5271c-.1828 2.5374-2.0875 4.5359-4.1407 4.5359-2.05308 0-3.96089-1.9977-4.14058-4.5359-.18672-2.6399 1.66719-4.5266 4.14058-4.5266 2.4735 0 4.3274 1.9351 4.1407 4.5266z" stroke="#AF5CF8" stroke-width="2" stroke-linecap="round" stroke-linejoin="round"/>
  <path d="M16.0935 23.907c-1.4101-.6461-2.9632-.8945-4.6093-.8945-4.06254 0-7.9766 2.0195-8.95707 5.9531-.1289.5203.19766 1.0351.73203 1.0351H12.031" stroke="#AF5CF8" stroke-width="2" stroke-miterlimit="10" stroke-linecap="round"/>
</svg>
