<svg viewBox="0 0 49 49" fill="none" xmlns="http://www.w3.org/2000/svg">
  <path fill-rule="evenodd" clip-rule="evenodd" d="M27.797 4.433a5.995 5.995 0 00-6.031 0L7.512 12.726a4.5 4.5 0 00-2.231 3.886v16.014a4.501 4.501 0 002.231 3.886l14.254 8.293a5.995 5.995 0 006.031 0l14.252-8.293a4.5 4.5 0 002.232-3.885V16.611a4.5 4.5 0 00-2.232-3.885L27.797 4.433zM8.281 17.406v15.22a1.501 1.501 0 00.743 1.294l14.251 8.292.006.004V26.229l-15-8.823zm18 24.81l.005-.004 14.25-8.292a1.501 1.501 0 00.745-1.295v-15.22l-15 8.825v15.986zm13.44-27.373L26.285 7.026c-.4-.233-1.045-.376-1.505-.407-.417.045-1.14.194-1.506.407L9.84 14.843l14.94 8.788 14.94-8.788z" fill="#00C05B"/>
</svg>
