<svg viewBox="0 0 40 40" fill="none" xmlns="http://www.w3.org/2000/svg">
  <defs/>
  <path fill-rule="evenodd" clip-rule="evenodd" d="M6.263 18.554c-.03.352-.05.713-.05 1.082 0 .369.02 1.094.05 1.446l.001.01v.002l-.001.002-2.98 2.34-.025.02a2.093 2.093 0 00-.476 2.663v.002l3.34 5.778.008.013a2.094 2.094 0 002.546.888l3.529-1.42c.586.409 1.204.77 1.847 1.081l.006.003.002.002.001.002.525 3.732c.003.026.008.052.013.078a2.118 2.118 0 002.038 1.691h6.731a2.116 2.116 0 002.046-1.792l.525-3.741c.641-.31 1.257-.67 1.843-1.073l.008-.005h.006l3.504 1.41.022.01a2.095 2.095 0 002.546-.89l3.348-5.792a2.094 2.094 0 00-.475-2.663l-.026-.022-2.983-2.34c.03-.353.047-1.08.049-1.435v-.008c-.002-.355-.019-.71-.05-1.064l2.984-2.34.026-.02a2.094 2.094 0 00.475-2.664l-3.348-5.792a2.095 2.095 0 00-2.546-.89l-.022.01-3.504 1.41h-.006l-.007-.005A14.1 14.1 0 0025.938 7.2l-.525-3.74a2.116 2.116 0 00-2.046-1.792l-.027-.001h-6.704a2.118 2.118 0 00-2.051 1.769l-.525 3.731v.003l-.003.002-.006.003c-.643.31-1.261.672-1.847 1.081l-3.529-1.42a2.095 2.095 0 00-2.546.888l-.008.013-3.34 5.778v.002a2.094 2.094 0 00.476 2.663l.025.02 2.98 2.34.001.002v.012zm25.018 1.082a10.822 10.822 0 00-.107-1.449 1.25 1.25 0 01.466-1.16l3.237-2.538-2.985-5.165-3.166 1.275-.005.002a2.51 2.51 0 01-2.359-.27c-.482-.333-.99-.628-1.516-.883a2.5 2.5 0 01-1.382-1.9l-.475-3.381h-5.981l-.472 3.353v.004a2.505 2.505 0 01-1.4 1.903c-.523.253-1.025.547-1.501.88l-.002.001a2.5 2.5 0 01-2.361.268L8.106 9.3 5.12 14.465l2.69 2.113.006.004a2.505 2.505 0 01.937 2.19c-.026.297-.04.584-.04.864s.014.93.04 1.227a2.504 2.504 0 01-.937 2.19l-.005.005L5.12 25.17l2.985 5.164 3.166-1.275a2.5 2.5 0 012.36.267l.003.002c.476.333.978.627 1.501.88a2.505 2.505 0 011.4 1.903v.004l.472 3.353h5.98l.476-3.38a2.495 2.495 0 011.382-1.9 11.61 11.61 0 001.516-.884 2.509 2.509 0 012.36-.27l.004.002 3.166 1.275 2.985-5.165-3.237-2.539a1.25 1.25 0 01-.466-1.16c.068-.48.103-1.327.107-1.812z" fill="#FA7360"/>
  <path fill-rule="evenodd" clip-rule="evenodd" d="M16.921 14.562a6.25 6.25 0 013.694-.781h.002a6.26 6.26 0 015.603 5.603v.002a6.25 6.25 0 11-9.299-4.824zm3.447 1.706a3.75 3.75 0 103.364 3.365 3.76 3.76 0 00-3.364-3.365z" fill="#73250E"/>
</svg>
