<svg width="24" height="24" viewBox="0 0 24 24" xmlns="http://www.w3.org/2000/svg">
<path fill-rule="evenodd" clip-rule="evenodd" d="M6.75 1.50073C5.95435 1.50073 5.19129 1.8168 4.62868 2.37941C4.06607 2.94202 3.75 3.70508 3.75 4.50073V19.5007C3.75 20.2964 4.06607 21.0594 4.62868 21.622C5.19129 22.1847 5.95435 22.5007 6.75 22.5007H17.25C18.0456 22.5007 18.8087 22.1847 19.3713 21.622C19.9339 21.0594 20.25 20.2964 20.25 19.5007V10.3717C20.2499 9.77518 20.0129 9.20304 19.5911 8.78118L12.9695 2.15956C12.5476 1.7378 11.9754 1.50082 11.3789 1.50073H6.75ZM5.68934 3.44007C5.97064 3.15877 6.35217 3.00073 6.75 3.00073H11.3789C11.5777 3.00079 11.7684 3.07982 11.9089 3.22034L18.5304 9.84184C18.671 9.98243 18.7499 10.1732 18.75 10.3719V19.5007C18.75 19.8986 18.592 20.2801 18.3107 20.5614C18.0293 20.8427 17.6478 21.0007 17.25 21.0007H6.75C6.35217 21.0007 5.97064 20.8427 5.68934 20.5614C5.40803 20.2801 5.25 19.8986 5.25 19.5007V4.50073C5.25 4.10291 5.40803 3.72138 5.68934 3.44007Z" />
<path fill-rule="evenodd" clip-rule="evenodd" d="M12 1.87585C12.4142 1.87585 12.75 2.21164 12.75 2.62585V8.25085C12.75 8.44976 12.829 8.64053 12.9697 8.78118C13.1103 8.92183 13.3011 9.00085 13.5 9.00085H19.125C19.5392 9.00085 19.875 9.33664 19.875 9.75085C19.875 10.1651 19.5392 10.5008 19.125 10.5008H13.5C12.9033 10.5008 12.331 10.2638 11.909 9.84184C11.4871 9.41988 11.25 8.84759 11.25 8.25085V2.62585C11.25 2.21164 11.5858 1.87585 12 1.87585Z" />
<path fill-rule="evenodd" clip-rule="evenodd" d="M7.5 13.5006C7.5 13.0864 7.83579 12.7506 8.25 12.7506H15.75C16.1642 12.7506 16.5 13.0864 16.5 13.5006C16.5 13.9148 16.1642 14.2506 15.75 14.2506H8.25C7.83579 14.2506 7.5 13.9148 7.5 13.5006Z" />
<path fill-rule="evenodd" clip-rule="evenodd" d="M7.5 17.251C7.5 16.8368 7.83579 16.501 8.25 16.501H15.75C16.1642 16.501 16.5 16.8368 16.5 17.251C16.5 17.6652 16.1642 18.001 15.75 18.001H8.25C7.83579 18.001 7.5 17.6652 7.5 17.251Z" />
</svg>
