<svg viewBox="0 0 51 50" fill="none" xmlns="http://www.w3.org/2000/svg">
<mask id="mask0" maskUnits="userSpaceOnUse" x="0" y="0">
<path d="M25.9705 50C39.7776 50 50.9705 38.8071 50.9705 25.0001C50.9705 11.193 39.7776 0.00012207 25.9705 0.00012207C12.1634 0.00012207 0.970581 11.193 0.970581 25.0001C0.970581 38.8071 12.1634 50 25.9705 50Z" fill="#C4C4C4"/>
</mask>
<g mask="url(#mask0)">
<path fill-rule="evenodd" clip-rule="evenodd" d="M25.9705 50C12.5912 50 0.970581 38.3794 0.970581 25.0001C0.970581 11.6207 12.5912 0.00012207 25.9705 0.00012207" fill="#F7F7FA"/>
<path fill-rule="evenodd" clip-rule="evenodd" d="M25.9705 0.00012207C39.3499 0.00012207 50.9705 11.6207 50.9705 25.0001C50.9705 38.3794 39.3499 50 25.9705 50" fill="#CFDDE0"/>
<path d="M14.2206 51.5002C14.2206 61.0271 20.0956 66.4377 18.0956 66.4377C16.6581 66.4377 11.4081 61.3396 11.4081 51.8127C11.4081 42.2858 14.4706 35.1877 16.0956 35.1877C17.7206 35.1877 14.2206 41.9733 14.2206 51.5002Z" fill="#595F61"/>
<path d="M11.5955 53.0017C11.5955 62.5286 19.783 67.3141 17.783 67.3141C16.3455 67.3141 8.84555 62.5286 8.84555 53.0017C8.84555 43.4748 14.0955 35.1892 15.7205 35.1892C17.3455 35.1892 11.5955 43.4748 11.5955 53.0017Z" fill="#272733"/>
<path d="M38.7205 51.5002C38.7205 61.0271 32.8455 66.4377 34.8455 66.4377C36.283 66.4377 41.533 61.3396 41.533 51.8127C41.533 42.2858 38.4705 35.1877 36.8455 35.1877C35.2205 35.1877 38.7205 41.9733 38.7205 51.5002Z" fill="#595F61"/>
<path d="M41.3454 53.0002C41.3454 62.5271 33.1579 67.3127 35.1579 67.3127C36.5954 67.3127 44.0954 62.5271 44.0954 53.0002C44.0954 43.4733 38.8454 35.1877 37.2204 35.1877C35.5954 35.1877 41.3454 43.4733 41.3454 53.0002Z" fill="#272733"/>
<path d="M40.2633 24.4889C40.2633 29.1834 37.2504 31.8126 37.2504 35.0958C37.2504 38.0001 38.9706 49.3125 38.9706 52.6875C38.9706 60.5625 35.215 65.125 35.215 65.125C35.215 65.125 33.2831 68.0625 31.9081 68.0625C30.5331 68.0625 27.3456 65.6135 26.475 65.6135C25.6045 65.6135 22.5331 68.0625 21.2206 68.0625C19.9081 68.0625 17.4196 65.125 17.4196 65.125C17.4196 65.125 13.9081 60.5625 13.9081 52.6875C13.9081 49.3125 15.7206 38.0001 15.7206 35.0958C15.7206 31.8751 12.4975 29.0001 12.4975 24.4889C12.4975 16.163 19.3478 12.0001 26.3804 12.0001C33.413 12.0001 40.2633 16.163 40.2633 24.4889Z" fill="#272733"/>
<path opacity="0.08" d="M37.2502 35.0957C37.2502 37.9999 38.9705 49.3124 38.9705 52.6874C38.9705 60.5624 35.2149 65.1249 35.2149 65.1249C35.2149 65.1249 33.283 68.0624 31.908 68.0624C30.533 68.0624 27.3455 65.6134 26.4749 65.6134C25.6044 65.6134 22.533 68.0624 21.2205 68.0624C19.908 68.0624 17.4195 65.1249 17.4195 65.1249C17.4195 65.1249 13.908 60.5624 13.908 52.6874C13.908 49.3124 15.7205 37.9999 15.7205 35.0957L26.4749 41.8124L37.2502 35.0957Z" fill="white"/>
<g opacity="0.2">
<path d="M36.533 51.1872C36.787 49.8747 37.7205 49.8926 38.033 51.4997C38.908 55.9997 36.533 61.1247 36.533 61.1247C36.533 61.1247 33.533 67.2497 31.5955 67.2497C29.658 67.2497 32.3832 64.2492 33.7205 60.8747C36.2519 54.4873 36.279 52.4997 36.533 51.1872Z" fill="#595F61"/>
<path d="M16.4908 51.1872C16.2367 49.8747 15.3033 49.8926 14.9908 51.4997C14.1158 55.9997 16.4908 61.1247 16.4908 61.1247C16.4908 61.1247 19.4907 67.2497 21.4282 67.2497C23.3657 67.2497 20.6406 64.2492 19.3032 60.8747C16.7719 54.4873 16.7448 52.4997 16.4908 51.1872Z" fill="#595F61"/>
</g>
<path d="M15.7205 35.1248L26.367 41.686C26.4305 41.7251 26.5105 41.7251 26.574 41.686L37.2205 35.1248C37.2205 35.1248 38.2679 34.4998 32.8692 44.3748C27.4705 54.2498 26.4705 54.2498 26.4705 54.2498C26.4705 54.2498 25.4705 54.2498 19.6817 44.3748C14.7205 34.4998 15.7205 35.1248 15.7205 35.1248Z" fill="white"/>
<path d="M20.7206 34.1558L26.4706 38.097L20.7206 41.6758V34.1558Z" fill="#F24E1E" stroke="#272733" stroke-width="0.624986"/>
<path d="M26.4705 38.0971L32.2205 34.1559L32.2205 41.676L26.4705 38.0971Z" fill="#DB210F" stroke="#272733" stroke-width="0.624986"/>
<path d="M26.4705 31.5864L29.0955 26.3223C29.0955 26.3223 27.7205 25.069 26.4705 25.069" fill="#754F10"/>
<path d="M26.4705 25.0693C25.2205 25.0693 23.7205 26.3227 23.7205 26.3227L26.4705 31.5867" fill="#F5A623"/>
<path d="M33.4865 24.8998C31.8786 25.8052 29.245 24.3701 28.1496 23.6845C27.8286 23.4836 27.6696 23.1209 27.8836 22.8084C29.0464 21.1109 34.1437 17.3864 35.1415 19.132C36.2973 21.1516 35.5562 23.7342 33.4865 24.8998Z" fill="white"/>
<circle cx="31.4419" cy="21.9413" r="1.54063" fill="#272733"/>
<path d="M19.3742 24.8817C17.3144 23.6737 16.609 21.0524 17.7988 19.0275C18.8501 17.2377 24.1842 20.9415 25.1201 22.8634C25.2765 23.1847 25.0898 23.5247 24.7852 23.7117C23.6975 24.3792 20.9915 25.8312 19.3742 24.8817Z" fill="white"/>
<circle cx="21.6715" cy="22.0091" r="1.54063" fill="#272733"/>
<path d="M32.5954 13.2347C33.791 12.3951 34.5446 11.2321 34.3454 9.61643C32.4149 9.25957 30.0686 11.3268 28.5954 12.5556C28.3236 12.5418 27.8707 12.5164 27.5954 12.5152C29.5938 10.2851 31.4831 7.61847 29.3454 7.59537C27.7352 7.57804 26.4316 9.72961 25.3454 11.8696C26.2853 9.4074 26.8137 6.73613 24.0954 7.19924C21.4013 7.65773 22.8007 10.6766 23.5954 13.006L32.5954 13.2347Z" fill="#272733"/>
<path d="M14.7955 15.0377C12.9246 15.0377 11.408 16.5544 11.408 18.4252V24.1816C11.408 26.2041 13.1646 27.7762 15.1727 27.585C18.3685 27.2808 23.1341 26.8902 26.5476 26.8877C29.9736 26.8852 34.6546 27.2719 37.8085 27.5769C39.8198 27.7714 41.5829 26.1981 41.5829 24.1715V18.4252C41.5829 16.5544 40.0663 15.0377 38.1954 15.0377H14.7955Z" fill="url(#paint0_linear)" stroke="#7C7C87" stroke-width="0.624998"/>
<path d="M25.3455 12.0626C25.3455 12.0626 25.533 11.9376 26.7205 11.9376C27.908 11.9376 28.0955 12.0626 28.0955 12.0626V14.7501H25.3455V12.0626Z" fill="#7C7C87"/>
<circle cx="15.058" cy="17.8126" r="0.712498" fill="#00C05B"/>
<path d="M14.1649 20.6944H14.7999V22.3749H15.2981V20.6944H15.9321V20.284H14.1649V20.6944ZM16.4289 22.3749H17.8868V21.9645H16.9343V21.5346H17.8123V21.1232H16.9343V20.6944H17.8868V20.284H16.4289V22.3749ZM18.4533 22.3749H19.8286V21.9645H18.9587V20.284H18.4533V22.3749ZM20.3402 22.3749H21.7981V21.9645H20.8455V21.5346H21.7236V21.1232H20.8455V20.6944H21.7981V20.284H20.3402V22.3749ZM22.3646 22.3749H22.87V21.7256H23.213C23.6918 21.7256 23.991 21.4417 23.991 21.0078C23.991 20.578 23.6979 20.284 23.2283 20.284H22.3646V22.3749ZM22.87 21.3274V20.6913H23.1191C23.3457 20.6913 23.4672 20.8138 23.4672 21.0078C23.4672 21.2008 23.3457 21.3274 23.1191 21.3274H22.87ZM24.4901 22.3749H24.9954V21.6592H25.2548L25.6366 22.3749H26.1879L25.754 21.5785C25.9837 21.4744 26.1164 21.2692 26.1164 20.9803C26.1164 20.5504 25.8234 20.284 25.3538 20.284H24.4901V22.3749ZM24.9954 21.261V20.6913H25.2445C25.4712 20.6913 25.5927 20.7863 25.5927 20.9803C25.5927 21.1742 25.4712 21.261 25.2445 21.261H24.9954ZM26.6436 22.3749H28.1015V21.9645H27.149V21.5346H28.027V21.1232H27.149V20.6944H28.1015V20.284H26.6436V22.3749ZM29.7982 20.9108H30.2822C30.2781 20.5198 29.9667 20.2554 29.4807 20.2554C29.0029 20.2554 28.6588 20.5157 28.6619 20.9047C28.6609 21.2222 28.8835 21.4009 29.2449 21.4836L29.4634 21.5346C29.6931 21.5877 29.7962 21.65 29.7982 21.7674C29.7962 21.895 29.6767 21.9839 29.4736 21.9839C29.25 21.9839 29.103 21.8797 29.0917 21.6786H28.6078C28.6139 22.1676 28.9539 22.4014 29.4797 22.4014C30.0004 22.4014 30.3087 22.1656 30.3107 21.7684C30.3087 21.4346 30.0831 21.2304 29.6706 21.1395L29.4909 21.0987C29.301 21.0579 29.1806 20.9946 29.1846 20.87C29.1857 20.7557 29.2837 20.673 29.4797 20.673C29.6767 20.673 29.785 20.7618 29.7982 20.9108ZM30.816 22.3749H32.2739V21.9645H31.3213V21.5346H32.1994V21.1232H31.3213V20.6944H32.2739V20.284H30.816V22.3749ZM34.6199 20.284H34.1156V21.4887H34.0982L33.2753 20.284H32.8404V22.3749H33.3458V21.1681H33.359L34.1911 22.3749H34.6199V20.284ZM37.0856 21.0415C37.0346 20.5413 36.6619 20.2554 36.1566 20.2554C35.5991 20.2554 35.1652 20.6382 35.1652 21.3294C35.1652 22.0175 35.5889 22.4035 36.1566 22.4035C36.7303 22.4035 37.0478 22.0135 37.0856 21.6429L36.5751 21.6398C36.5394 21.8409 36.3883 21.9604 36.1668 21.9604C35.8686 21.9604 35.6808 21.745 35.6808 21.3294C35.6808 20.9302 35.8646 20.6985 36.1698 20.6985C36.3995 20.6985 36.5496 20.8322 36.5751 21.0415H37.0856ZM37.6248 22.3749H39.0827V21.9645H38.1302V21.5346H39.0082V21.1232H38.1302V20.6944H39.0827V20.284H37.6248V22.3749Z" fill="white"/>
<path d="M25.9466 49.202C39.3262 49.202 50.1725 38.3557 50.1725 24.976C50.1725 11.5964 39.3262 0.750122 25.9466 0.750122C12.567 0.750122 1.72064 11.5964 1.72064 24.976C1.72064 38.3557 12.567 49.202 25.9466 49.202Z" stroke="#7C7C87" stroke-width="2.57791" stroke-miterlimit="10"/>
</g>
<defs>
<linearGradient id="paint0_linear" x1="11.7205" y1="22.4377" x2="42.0329" y2="21.5002" gradientUnits="userSpaceOnUse">
<stop stop-color="#2F2F33"/>
<stop offset="0.473958" stop-color="#6D6D7F"/>
<stop offset="1" stop-color="#2F2F33"/>
</linearGradient>
</defs>
</svg>
