<svg width="51" height="50" viewBox="0 0 51 50" fill="none" xmlns="http://www.w3.org/2000/svg">
<g clip-path="url(#clip0)">
<path fill-rule="evenodd" clip-rule="evenodd" d="M26.0444 49.0757C12.665 49.0757 1.81848 38.2291 1.81848 24.8498C1.81848 11.4704 12.665 0.622559 26.0444 0.622559" fill="#F7F7FA"/>
<path fill-rule="evenodd" clip-rule="evenodd" d="M26.051 0.638184C39.4303 0.638184 50.2769 11.4847 50.2769 24.8641C50.2769 38.2435 39.4303 49.09 26.051 49.09" fill="#CFDDE0"/>
<path d="M37.7972 18.668C37.7843 18.6706 37.7701 18.6719 37.756 18.6732C34.6895 13.9917 28.9962 13.0327 23.7837 13.5573L23.785 13.5586C22.2318 13.6308 20.7753 13.9543 19.4541 14.4931C17.7668 15.1814 16.2987 16.2177 15.1219 17.5157C13.9025 18.8626 12.9964 20.4906 12.4886 22.308C12.0542 23.8586 11.9098 25.5472 12.107 27.313L14.7352 46.5043L26.1688 49.3015L26.1696 49.3026H26.1734L37.5755 46.3149L39.8879 27.5154C40.2991 24.2453 39.5425 21.1441 37.7972 18.668Z" fill="#272733"/>
<path d="M47.7725 35.6269C45.9976 34.0815 44.2394 32.8492 42.8693 32.5205C41.4669 32.1841 40.1792 32.6159 39.1442 33.4125L35.1278 47.756C35.1278 47.756 45.7617 44.1469 47.7725 35.6269Z" fill="#272733"/>
<path d="M4.32181 35.628C6.0967 34.0822 7.85483 32.8497 9.22499 32.5209C10.6274 32.1844 11.915 32.6163 12.9501 33.4131L16.9665 47.76C16.9665 47.76 6.33259 44.1501 4.32181 35.628Z" fill="#272733"/>
<path d="M37.4092 35.3149L38.5963 33.1301C38.6144 33.0953 38.6363 33.067 38.6621 33.0438C38.6208 33.0515 38.5808 33.0657 38.5422 33.094L33.6274 36.8114V42.7599L29.2888 40.0931L26.3448 42.3204C26.243 42.3977 26.1012 42.3964 26.0006 42.3178L22.8749 39.8714L18.1767 42.7586V36.194L13.3818 32.4418C13.3457 32.4135 13.307 32.3967 13.2683 32.3877C13.2928 32.4109 13.3135 32.4405 13.3302 32.4766L20.841 48.7226C22.496 49.0797 24.2142 49.2704 25.9774 49.2704C27.568 49.2704 29.1225 49.1158 30.628 48.8232L37.0676 35.9955C37.181 35.7673 37.2854 35.5482 37.4092 35.3149Z" fill="white"/>
<path d="M18.1754 32.7795L25.9014 38.0088L18.1754 42.7573V32.7795Z" fill="#F24E1E"/>
<path d="M25.9027 38.0102L33.6274 32.7809L33.6274 42.7587L25.9027 38.0102Z" fill="#DB210F"/>
<path d="M26.2662 32.2741L29.4783 30.7067C29.4822 30.7054 29.4822 30.7003 29.4796 30.6977L26.1799 27.367C26.1773 27.3645 26.1747 27.3645 26.1721 27.367L26.1154 27.4238" fill="#754F10"/>
<path d="M26.1154 27.4225L22.7964 30.6771C22.7938 30.6797 22.7938 30.6848 22.7976 30.6861L26.2611 32.2741C26.2624 32.2754 26.2649 32.2741 26.2662 32.2741" fill="#F5A623"/>
<path d="M33.2369 27.0166C31.1527 28.1934 27.3567 25.4544 27.3567 25.4544C28.4125 24.4147 33.7677 19.2008 34.9035 21.1931C36.0675 23.2322 35.3211 25.8398 33.2369 27.0166Z" fill="white"/>
<path d="M19.0365 26.9122C16.9703 25.7058 16.2626 23.0879 17.4562 21.0655C18.6224 19.0888 23.8984 24.3833 24.9399 25.4377C24.9399 25.4377 21.1027 28.12 19.0365 26.9122Z" fill="white"/>
<ellipse cx="29.843" cy="24.2324" rx="1.41785" ry="1.41785" fill="#272733"/>
<ellipse cx="22.496" cy="24.2324" rx="1.41785" ry="1.41785" fill="#272733"/>
<path d="M21.1984 10.6037C20.9768 11.2477 21.2922 11.9147 21.7555 12.4862C22.237 13.0801 22.982 13.7042 23.9103 14.3255C25.7727 15.5721 28.4652 16.8681 31.5473 17.93C34.6295 18.992 37.5485 19.6294 39.7831 19.7945C40.8968 19.8768 41.8678 19.8439 42.6128 19.6725C43.3296 19.5075 43.9887 19.1762 44.2104 18.5321L44.2104 18.532C44.3428 18.1471 44.2802 17.75 44.1183 17.3842C43.9578 17.0215 43.6871 16.6583 43.3451 16.3022C42.6604 15.5891 41.6187 14.8318 40.3344 14.0874L39.808 13.7823L39.6493 14.3697C39.5039 14.9078 39.3722 15.4492 39.2585 15.99C39.2375 16.0211 39.1499 16.114 38.8334 16.1871C38.4842 16.2677 37.9777 16.2924 37.3346 16.2451C36.0556 16.1512 34.3438 15.7816 32.5106 15.1501C30.6777 14.5185 29.1015 13.7552 28.0358 13.0413C27.5 12.6823 27.116 12.3509 26.8904 12.0721C26.6871 11.821 26.6741 11.6936 26.6764 11.6551C26.9203 11.1579 27.1501 10.6492 27.3666 10.1343L27.602 9.5747L27.0007 9.49072C25.5273 9.28491 24.2375 9.23908 23.2568 9.37876C22.7671 9.44851 22.3293 9.56788 21.9789 9.75487C21.6254 9.94343 21.331 10.2181 21.1984 10.6037ZM21.1984 10.6037L21.6391 10.7553L21.1984 10.6037Z" fill="#272733" stroke="white" stroke-width="0.934096"/>
<path d="M42.8454 6.87486C42.2773 7.84494 40.7705 4.76062 36.582 3.31748C32.3944 1.87459 29.2593 1.73922 29.408 0.624878C29.408 0.624878 28.9556 5.91793 26.1336 11.6847C26.1269 12.6698 28.9006 14.4773 32.3348 15.6606C35.7697 16.8441 39.0918 17.1285 39.6916 16.3472C40.98 10.151 42.8321 6.89583 42.8454 6.87486Z" fill="#AF5CF8"/>
<path d="M43.1578 6.87486L29.4079 0.312378C29.4079 0.312378 29.4079 3.12487 27.1814 9.34753C27.1747 10.3327 29.7541 11.9961 33.1882 13.1793C36.6236 14.3629 39.6799 14.6414 40.2801 13.8601C42.2203 7.49986 43.1578 6.87486 43.1578 6.87486Z" fill="#272733"/>
<path d="M49.7203 25.0001C49.7203 38.1168 39.0871 48.75 25.9704 48.75C12.8537 48.75 2.22046 38.1168 2.22046 25.0001C2.22046 11.8833 12.8537 1.25012 25.9704 1.25012C39.0871 1.25012 49.7203 11.8833 49.7203 25.0001Z" stroke="#272733" stroke-width="2.49999" stroke-miterlimit="10"/>
</g>
<defs>
<clipPath id="clip0">
<rect width="49.9999" height="49.9999" fill="white" transform="translate(0.970459 0.00012207)"/>
</clipPath>
</defs>
</svg>
