<svg viewBox="0 0 40 40" fill="none" xmlns="http://www.w3.org/2000/svg">
  <path fill-rule="evenodd" clip-rule="evenodd" d="M21.6668 6.66599c-1.6667 0-1.6667 0-1.6667 1.66666L20.0002 30c0 1.6667 0 1.6667 1.6666 1.6667h14.9999c1.6666 0 1.6666 0 1.6666-1.6666V8.33339c0-1.66735.0001-1.66667-1.6666-1.66735l-14.9999-.00005zm-3.3333 1.66666c0-3.33215 0-3.33185 3.3333-3.33265l14.9999.00005c3.3334 0 3.3334 0 3.3334 3.33334L40 30.0001c0 3.3333 0 3.3333-3.3333 3.3333l-14.9999-.0001c-3.3333 0-3.3333 0-3.3333-3.3333V8.33265z" fill="#00C05B"/>
  <path d="M16.6666 8.33337h-5c-3.33329 0-3.33329 0-3.33329 3.33333v15c0 3.3333 0 3.3333 3.33329 3.3333h5v-1.6666h-5c-1.66662 0-1.66662 0-1.66662-1.6667v-15c0-1.6667 0-1.6667 1.66662-1.6667h5V8.33337z" fill="#06F"/>
  <path d="M6.66667 11.6666H3.33333C0 11.6666 0 12.9165 0 14.9998v10c0 3.3334 0 3.3334 3.33333 3.3335h3.33334v-1.6668H3.33333c-1.66666 0-1.66666 0-1.66666-1.6667V15c0-1.6667 0-1.6667 1.66666-1.6667h3.33334v-1.6667z" fill="#AF5CF8"/>
</svg>
