<svg viewBox="0 0 40 40" fill="none" xmlns="http://www.w3.org/2000/svg">
  <defs/>
  <path opacity=".3" d="M9.22 29.53a.75.75 0 001.01.045l4.29-3.576h3.98v5.625a3.379 3.379 0 003.375 3.375H23v3a.75.75 0 001.23.576l4.29-3.576h7.605a3.379 3.379 0 003.375-3.375v-9a3.379 3.379 0 00-3.375-3.375H25.5v-5.625a3.379 3.379 0 00-3.375-3.375H7.875A3.379 3.379 0 004.5 13.624v9a3.379 3.379 0 003.375 3.375H9v3c0 .199.079.39.22.53z" fill="#F5A623"/>
  <path d="M4.875 7.249h-.002A3.382 3.382 0 001.5 10.622V19.626A3.382 3.382 0 004.873 23H6v3a.75.75 0 001.23.576l4.29-3.576H19v-1.5h-7.617c-.263 0-.518.093-.72.262L7.5 24.396V22.25a.75.75 0 00-.75-.75H4.876A1.883 1.883 0 013 19.623v-8.998A1.883 1.883 0 014.876 8.75h14.248A1.882 1.882 0 0121 10.625V16.5c0 .164 0-.733 0 0h1.5v-5.878a3.383 3.383 0 00-3.373-3.373H4.875z" fill="#754F10"/>
  <path fill-rule="evenodd" clip-rule="evenodd" d="M20.873 15.249H35.127a3.382 3.382 0 013.373 3.373V27.626A3.383 3.383 0 0135.127 31h-7.608l-4.289 3.576a.75.75 0 01-1.23-.576v-3h-1.127a3.383 3.383 0 01-3.373-3.373V18.622a3.382 3.382 0 013.373-3.373zm6.75 15.663c.001 0 0 0 0 0zm7.5-14.163H20.877A1.882 1.882 0 0019 18.625v8.998a1.882 1.882 0 001.876 1.876h1.874a.75.75 0 01.75.75v2.148l3.162-2.636c.203-.17.458-.262.722-.262h7.74A1.883 1.883 0 0037 27.623v-8.998a1.883 1.883 0 00-1.876-1.876z" fill="#F5A623"/>
  <path d="M23.5 24.624a1.5 1.5 0 100-3 1.5 1.5 0 000 3zM28 24.624a1.5 1.5 0 100-3 1.5 1.5 0 000 3zM32.5 24.624a1.5 1.5 0 100-3 1.5 1.5 0 000 3z" fill="#AF5CF8"/>
  <path d="M11.297 19.968a.812.812 0 100-1.625.812.812 0 000 1.625zM11.507 11.64c.43-.005.768.071.925.147.406.2.998.59.998 1.377 0 .865-.501 1.253-1.363 1.846-.468.322-.797.664-1.005 1.05-.209.389-.273.782-.273 1.166a.508.508 0 001.016 0c0-.266.043-.482.152-.685.16-.297.43-.52.705-.708.817-.562 1.783-1.226 1.783-2.67 0-1.416-1.104-2.061-1.567-2.288-.352-.171-.864-.257-1.384-.25h-.001c-.585.008-1.296.138-1.902.637a2.913 2.913 0 00-.883 1.22 2.197 2.197 0 00-.153.658.51.51 0 00.485.531c.382.017.467-.298.547-.597.022-.081.043-.162.07-.233.086-.227.253-.525.58-.795.362-.298.813-.4 1.27-.406z" fill="#DB210F"/>
</svg>
