<svg viewBox="0 0 41 42" fill="none" xmlns="http://www.w3.org/2000/svg">
  <defs/>
  <path d="M22.426 10.41L12.446.431a1.472 1.472 0 00-2.081 0L8.293 2.504l2.628 2.628a1.747 1.747 0 012.214 2.229l2.533 2.534a1.752 1.752 0 11-1.049.988l-2.363-2.364v6.218a1.752 1.752 0 11-1.44-.051V8.411a1.751 1.751 0 01-.95-2.297L7.273 3.521.431 10.364a1.473 1.473 0 000 2.082l9.98 9.98a1.472 1.472 0 002.082 0l9.933-9.933a1.473 1.473 0 000-2.083z" fill="#F05133"/>
  <path d="M37.52 22.456c-.133-.423-.451-.767-.85-.98l-8.089-3.865c-.212-.106-.45-.133-.663-.133s-.45 0-.663.053l-8.09 3.893c-.397.185-.69.53-.795.98l-1.99 8.712c-.08.45.027.9.292 1.27l5.597 6.912c.318.318.769.53 1.22.556H32.4c.477.053.928-.159 1.22-.556l5.596-6.911c.265-.371.371-.821.318-1.271l-2.015-8.66z" fill="#326DE6"/>
  <path d="M36.273 30.771c-.026 0-.053 0-.053-.026s-.053-.027-.106-.027c-.106-.026-.212-.026-.318-.026-.053 0-.106 0-.16-.027h-.026a5.376 5.376 0 01-.902-.158.32.32 0 01-.185-.186c.026 0 0 0 0 0l-.213-.053c.106-.768.053-1.562-.106-2.33a7.17 7.17 0 00-.928-2.171l.16-.16v-.026c0-.08.026-.185.079-.238.238-.212.477-.371.742-.53l.16-.08c.106-.052.185-.105.291-.158.027-.027.053-.027.08-.053.026-.027 0-.027 0-.053.239-.185.292-.503.106-.741a.507.507 0 00-.371-.186.635.635 0 00-.372.133l-.026.026c-.027.027-.053.053-.08.053-.08.08-.159.159-.212.238-.027.053-.08.08-.106.106a3.49 3.49 0 01-.663.583c-.053.026-.106.053-.16.053-.026 0-.079 0-.106-.027h-.026l-.212.133c-.212-.212-.451-.424-.663-.636a6.802 6.802 0 00-3.448-1.377l-.027-.212v.027c-.08-.053-.106-.133-.132-.212 0-.291 0-.583.053-.9v-.027c0-.053.026-.106.026-.159.027-.106.027-.212.053-.318v-.158a.524.524 0 00-.45-.556c-.16-.027-.319.052-.452.185a.523.523 0 00-.159.37V21c0 .106.027.212.053.318.027.053.027.106.027.159v.026c.053.291.053.583.053.9-.027.08-.053.16-.133.212v.053l-.026.212c-.292.027-.584.08-.902.132a6.325 6.325 0 00-3.262 1.854l-.16-.106h-.026c-.027 0-.053.027-.106.027s-.106-.027-.16-.053a4.882 4.882 0 01-.662-.61c-.027-.052-.08-.079-.107-.105-.08-.08-.132-.16-.212-.239-.026-.026-.053-.026-.08-.053l-.026-.026a.634.634 0 00-.371-.132c-.16 0-.292.052-.372.185a.569.569 0 00.107.741c.026 0 .026.027.026.027s.053.053.08.053c.08.053.185.106.291.159l.16.08c.265.158.53.317.742.529.053.053.106.159.08.238v-.026l.159.158c-.027.053-.053.08-.08.133-.822 1.297-1.167 2.833-.928 4.343l-.212.053c0 .026-.027.026-.027.026-.026.08-.106.133-.185.185a4.93 4.93 0 01-.902.16c-.053 0-.106 0-.16.026-.105 0-.211.026-.318.026-.026 0-.053.027-.106.027-.026 0-.026 0-.053.026a.517.517 0 00-.424.61.492.492 0 00.53.37c.053 0 .08 0 .133-.026.027 0 .027 0 .027-.027 0-.026.079 0 .106 0 .106-.026.212-.08.291-.106a.377.377 0 01.16-.053h.026c.292-.106.557-.185.875-.238h.027c.08 0 .159.026.212.08.026 0 .026.026.026.026l.24-.027a6.391 6.391 0 002.174 3.099c.239.185.451.344.716.476l-.132.186c0 .026.026.026.026.026.053.08.053.185.027.265-.106.265-.266.53-.425.768v.026a.466.466 0 01-.106.133c-.053.053-.106.159-.185.264-.027.027-.027.053-.054.08 0 0 0 .026-.026.026a.545.545 0 00.212.715.492.492 0 00.186.053.594.594 0 00.504-.317s0-.027.026-.027c0-.026.027-.053.053-.08.027-.105.08-.185.106-.29l.053-.16c.08-.29.213-.556.345-.82a.413.413 0 01.212-.16c.027 0 .027 0 .027-.026l.106-.212a6.252 6.252 0 002.308.424 5.32 5.32 0 001.432-.185c.292-.053.583-.16.849-.239l.106.186c.026 0 .026 0 .026.026.08.027.16.08.213.16.132.264.265.529.344.82v.026l.053.16a.948.948 0 00.106.29c.027.027.027.054.054.08 0 0 0 .027.026.027a.594.594 0 00.504.317c.08 0 .133-.026.212-.053a.443.443 0 00.239-.29.68.68 0 00-.027-.398c0-.027-.026-.027-.026-.027 0-.026-.027-.053-.053-.079a.953.953 0 00-.186-.265c-.026-.053-.053-.08-.106-.132v-.053a3.126 3.126 0 01-.424-.768.313.313 0 01.026-.265c0-.026.027-.026.027-.026l-.08-.212c1.353-.821 2.387-2.092 2.865-3.602l.212.027c.026 0 .026-.027.026-.027a.302.302 0 01.213-.079h.026c.292.053.584.132.849.238h.026c.054.027.107.053.16.053.106.053.185.106.291.133.027 0 .053.026.106.026.027 0 .027 0 .053.027a.24.24 0 00.133.026c.239 0 .451-.159.53-.37a.625.625 0 00-.477-.557zm-7.665-.82l-.716.344-.717-.345-.185-.767.504-.636h.795l.504.636-.185.767zm4.323-1.722c.133.556.16 1.112.106 1.668l-2.52-.714c-.238-.053-.37-.292-.318-.53a.427.427 0 01.106-.185l1.99-1.801c.291.477.503 1.006.636 1.562zM31.5 25.687l-2.175 1.536c-.186.106-.451.08-.584-.106a.24.24 0 01-.08-.185l-.158-2.675a4.995 4.995 0 012.997 1.43zm-4.8-1.35l.53-.106-.133 2.648c0 .238-.212.423-.45.423-.08 0-.134-.026-.213-.053l-2.202-1.562a5.27 5.27 0 012.467-1.35zm-3.237 2.33l1.963 1.748a.425.425 0 01.053.609c-.053.079-.106.106-.212.132l-2.573.741a5.568 5.568 0 01.77-3.23zm-.45 4.475l2.625-.45c.212 0 .424.132.451.344a.313.313 0 01-.027.265l-1.007 2.436a5.21 5.21 0 01-2.043-2.595zm6.02 3.284c-.371.08-.743.132-1.14.132-.557 0-1.14-.106-1.671-.265l1.3-2.357a.412.412 0 01.53-.106c.08.054.132.106.212.186l1.273 2.304c-.159.026-.318.053-.504.106zm3.236-2.304a5.061 5.061 0 01-1.591 1.589l-1.035-2.49a.43.43 0 01.239-.503c.08-.026.16-.053.239-.053l2.652.45c-.133.371-.292.715-.504 1.007z" fill="#fff"/>
  <path opacity=".2" d="M1.963 23.035C1.927 21.97.891 22.126.744 22.71c.111 7.539 4.815 14.62 12.367 17.454 1.414.531 2.851.884 4.286 1.07.535-.114.697-1.121-.034-1.215a18.023 18.023 0 01-3.83-.978c-6.96-2.612-11.335-9.075-11.57-16.007z" fill="#50FF8F"/>
  <path d="M2.963 22.035c-.036-1.064-1.072-.909-1.219-.324.111 7.539 4.815 14.62 12.367 17.454 1.414.531 2.851.884 4.286 1.07.535-.114.697-1.12-.034-1.215a18.023 18.023 0 01-3.83-.978c-6.96-2.612-11.335-9.075-11.57-16.007z" fill="#00C05B"/>
  <path opacity=".2" d="M21.504 4.229c-.772.218-.603 1.234.325 1.219 6.932.228 13.4 4.598 16.018 11.554.491 1.306.821 2.632.998 3.956.083.619 1.156.63 1.224.106-.18-1.5-.543-3.005-1.1-4.484-2.841-7.55-9.926-12.247-17.465-12.351z" fill="#50FF8F"/>
  <path d="M21.504 2.229c-.772.218-.603 1.234.325 1.219 6.932.228 13.4 4.597 16.018 11.554.491 1.305.82 2.632.999 3.956.082.619 1.155.63 1.223.106a19.23 19.23 0 00-1.1-4.485C36.127 7.03 29.043 2.333 21.504 2.23z" fill="#00C05B"/>
</svg>
