<svg viewBox="0 0 36 36" xmlns="http://www.w3.org/2000/svg">
<path fill-rule="evenodd" clip-rule="evenodd" d="M2.475 14.2979H4.49986V17.0402H6.94615V14.2979H8.97102V22.001H6.94615V19.0636H4.49986V22.001H2.475V14.2979ZM11.294 22.001V14.2979H16.0837V15.972H13.3188V17.2251H15.7651V18.93H13.3188V20.3474H16.0837V22.001H11.294ZM18.3039 22.001V14.2979H20.3288V19.9674H23.104V22.001H18.3039ZM26.2389 14.2979L29.3841 17.1532L32.5191 14.2979H33.4339V22.001H31.3987V18.0467L29.3841 19.8852L27.3593 18.057V22.001H25.3241V14.2979H26.2389Z" />
<path d="M17.5668 30.6596C17.4465 31.1749 17.3772 31.7815 17.3772 32.4308C17.3772 34.3009 17.9526 35.8169 18.6625 35.8169C19.3723 35.8169 19.9478 34.3009 19.9478 32.4308C19.9478 31.7473 19.8709 31.1111 19.7387 30.5789C21.8759 30.3174 23.8505 29.5269 25.5297 28.3424C25.7218 28.8994 26.0473 29.5317 26.4853 30.1574C27.5576 31.6892 28.8983 32.6009 29.4797 32.1936C30.0612 31.7864 29.6633 30.2144 28.591 28.6825C28.1098 27.9952 27.5747 27.4327 27.0783 27.0582C27.6889 26.4658 28.2413 25.8132 28.7258 25.11L28.6944 25.0884H26.1372C24.1628 27.2651 21.3257 28.6265 18.1753 28.6265C15.0249 28.6265 12.1878 27.2651 10.2134 25.0884H7.61698L7.61213 25.0917C8.22264 25.9809 8.94142 26.7896 9.74937 27.4983C9.40987 27.8259 9.06706 28.2267 8.74801 28.6825C7.67569 30.2144 7.27778 31.7864 7.85926 32.1936C8.44074 32.6009 9.78141 31.6892 10.8537 30.1574C11.1623 29.7165 11.4151 29.2724 11.6047 28.8536C13.3628 29.9109 15.3939 30.5574 17.5668 30.6596Z" />
<path d="M17.706 5.64802C17.5016 5.04842 17.3772 4.25551 17.3772 3.38606C17.3772 1.51599 17.9526 0 18.6625 0C19.3724 0 19.9478 1.51599 19.9478 3.38606C19.9478 4.29266 19.8126 5.11604 19.5923 5.72382C21.7334 5.96812 23.7142 6.74302 25.4021 7.9136C25.5519 7.26453 25.9273 6.45658 26.4853 5.65949C27.5576 4.12762 28.8983 3.21596 29.4798 3.62323C30.0612 4.0305 29.6633 5.60248 28.591 7.13435C28.0001 7.97845 27.3278 8.63423 26.7459 8.98481C27.4776 9.65238 28.1323 10.4036 28.6951 11.2232L28.6902 11.2265H26.0938C24.1194 9.04979 21.2823 7.68839 18.1319 7.68839C14.9815 7.68839 12.1444 9.04979 10.1701 11.2265H7.61279L7.58138 11.2048C8.26516 10.2126 9.08395 9.32102 10.0111 8.55722C9.58841 8.19426 9.14942 7.70775 8.74804 7.13435C7.67571 5.60248 7.2778 4.0305 7.85928 3.62323C8.44076 3.21596 9.78144 4.12762 10.8538 5.65949C11.2576 6.23644 11.5658 6.81908 11.7621 7.34304C13.5231 6.32712 15.5468 5.71894 17.706 5.64802Z" />
</svg>
