<svg viewBox="0 0 40 40" fill="none" xmlns="http://www.w3.org/2000/svg">
  <defs/>
  <path opacity=".3" fill-rule="evenodd" clip-rule="evenodd" d="M30.996 15.688a2.024 2.024 0 013.4.962 2.024 2.024 0 012.829 1.856v.898A2.024 2.024 0 0140 21.282v7.631c0 2.658-.726 4.736-2.033 6.155-1.311 1.424-3.14 2.112-5.194 2.112-2.005 0-3.484-.453-4.59-1.239-1.105-.784-1.773-1.854-2.24-2.967a.815.815 0 01-.01-.027l-2.284-6.243c-.175-.474-.243-.985-.124-1.468.124-.5.437-.92.922-1.195.941-.535 2.377-.257 2.822.816l.359.864v-6.522a2.023 2.023 0 012.775-1.878c0-.613.145-1.185.593-1.633z" fill="#599CFF"/>
  <path opacity=".3" d="M12.543 15.688a2.023 2.023 0 00-3.399.963 2.024 2.024 0 00-2.83 1.855v.898a2.024 2.024 0 00-2.775 1.878v7.632c0 2.657.726 4.735 2.033 6.154 1.312 1.425 3.141 2.112 5.194 2.112 2.005 0 3.484-.453 4.59-1.239 1.105-.784 1.773-1.853 2.24-2.967a.82.82 0 00.011-.027l2.283-6.243c.175-.474.243-.984.124-1.467-.123-.5-.436-.92-.921-1.196-.942-.535-2.378-.257-2.823.816l-.359.864V19.2a2.023 2.023 0 00-2.775-1.88c0-.612-.144-1.184-.592-1.632z" fill="#599CFF"/>
  <path fill-rule="evenodd" clip-rule="evenodd" d="M27.456 12.15a2.023 2.023 0 013.4.962 2.023 2.023 0 012.83 1.855v.898a2.024 2.024 0 012.775 1.879v7.63c0 2.659-.726 4.736-2.033 6.156-1.312 1.424-3.141 2.111-5.194 2.111-2.005 0-3.484-.452-4.591-1.238-1.104-.784-1.772-1.854-2.24-2.968a.536.536 0 01-.01-.027l-2.283-6.242c-.175-.474-.243-.985-.124-1.468.123-.5.436-.92.921-1.196.942-.535 2.378-.256 2.823.816l.358.864v-6.521a2.024 2.024 0 012.776-1.879c0-.613.144-1.185.592-1.633zm.68 9.769v.029a.636.636 0 01-1.272 0V15.66a.752.752 0 00-1.504 0v9.712a.636.636 0 01-1.223.244l-1.569-3.78c-.183-.318-.638-.453-1.033-.229-.415.236-.378.722-.232 1.117v.002l2.28 6.23c.412.98.956 1.812 1.796 2.409.841.597 2.044 1.003 3.855 1.003 1.763 0 3.228-.583 4.258-1.701 1.035-1.123 1.697-2.86 1.697-5.293v-7.631a.752.752 0 00-1.503 0V22.6a.636.636 0 01-1.272 0v-7.633a.752.752 0 00-1.504-.006v6.944a.636.636 0 11-1.271 0V13.58a.751.751 0 00-1.503 0V21.919zM9.004 12.15a2.023 2.023 0 00-3.4.962 2.024 2.024 0 00-2.829 1.855v.898A2.024 2.024 0 000 17.744v7.63c0 2.659.726 4.736 2.033 6.156 1.311 1.424 3.14 2.111 5.194 2.111 2.005 0 3.484-.452 4.59-1.238 1.105-.784 1.773-1.854 2.24-2.968a.536.536 0 00.01-.027l2.284-6.242c.175-.474.243-.985.124-1.468-.124-.5-.437-.92-.921-1.196-.942-.535-2.378-.256-2.823.816l-.359.864v-6.521a2.023 2.023 0 00-2.775-1.879c0-.613-.145-1.185-.593-1.633zm-.679 9.769v.029a.636.636 0 001.272 0V15.66a.752.752 0 011.503 0v9.712a.636.636 0 001.223.244l1.57-3.78c.183-.318.638-.453 1.032-.229.416.236.379.722.232 1.117v.002l-2.279 6.23c-.412.98-.957 1.812-1.797 2.409-.84.597-2.044 1.003-3.854 1.003-1.763 0-3.229-.583-4.259-1.701-1.034-1.123-1.696-2.86-1.696-5.293v-7.631a.752.752 0 011.503 0V22.6a.636.636 0 001.272 0v-7.633a.752.752 0 011.503-.006v6.944a.636.636 0 001.272 0V13.58a.751.751 0 111.503 0V21.919z" fill="#003380"/>
  <path d="M13.143 3.72l3.644-.643-.858 5.787-2.786-5.145zM8.056 5.851l3.204-1.85 1.173 5.732L8.056 5.85zM18.693 3.077l3.644.642-2.786 5.145-.858-5.787zM24.243 4.001l3.204 1.85-4.377 3.882L24.243 4z" fill="#E24D3F"/>
</svg>
