<svg viewBox="0 0 26 26" fill="none" xmlns="http://www.w3.org/2000/svg">
  <defs/>
  <path fill-rule="evenodd" clip-rule="evenodd" d="M17.847 7.897a1.315 1.315 0 012.21.626 1.315 1.315 0 011.839 1.206v.583a1.314 1.314 0 011.803 1.221v4.96c0 1.728-.471 3.079-1.32 4.001-.853.926-2.043 1.373-3.377 1.373-1.303 0-2.265-.294-2.984-.805-.718-.51-1.152-1.205-1.456-1.93a.345.345 0 01-.007-.017l-1.484-4.057c-.113-.308-.158-.64-.08-.954.08-.325.284-.598.599-.777.612-.348 1.545-.167 1.834.53l.234.562v-4.24a1.315 1.315 0 011.803-1.22c0-.399.094-.77.386-1.062zm.441 6.35v.02a.413.413 0 01-.827 0V10.18a.489.489 0 00-.977 0v6.313a.413.413 0 01-.795.158l-1.02-2.457c-.119-.207-.415-.294-.671-.149-.27.154-.246.47-.15.727l1.48 4.05c.268.636.622 1.178 1.168 1.566.547.388 1.33.652 2.506.652 1.146 0 2.099-.379 2.768-1.106.672-.73 1.103-1.86 1.103-3.44v-4.96a.488.488 0 00-.977 0v3.156a.413.413 0 01-.827 0V9.729a.489.489 0 00-.977-.004v4.513a.413.413 0 01-.827 0V8.827a.489.489 0 00-.977 0V14.248zM5.853 7.897a1.315 1.315 0 00-2.21.626 1.315 1.315 0 00-1.84 1.206v.583A1.315 1.315 0 000 11.533v4.96c0 1.728.472 3.079 1.321 4.001.853.926 2.042 1.373 3.376 1.373 1.304 0 2.265-.294 2.984-.805.718-.51 1.153-1.205 1.456-1.93a.365.365 0 00.007-.017l1.484-4.057c.114-.308.158-.64.08-.954a1.217 1.217 0 00-.598-.777c-.612-.348-1.546-.167-1.835.53l-.233.562v-4.24a1.315 1.315 0 00-1.804-1.22c0-.399-.094-.77-.385-1.062zm-.442 6.35v.02a.413.413 0 00.827 0V10.18a.489.489 0 01.977 0v6.313a.413.413 0 00.795.158l1.02-2.457c.12-.207.415-.294.671-.149.27.154.246.47.151.727l-1.481 4.05c-.268.636-.622 1.178-1.168 1.566-.547.388-1.329.652-2.506.652-1.145 0-2.098-.379-2.768-1.106-.672-.73-1.102-1.86-1.102-3.44v-4.96a.488.488 0 11.977 0v3.156a.413.413 0 00.826 0V9.729a.489.489 0 01.978-.004v4.513a.413.413 0 10.826 0V8.827a.489.489 0 11.977 0v5.411a.41.41 0 000 .01z" fill="#003380"/>
  <path d="M8.543 2.418L10.91 2l-.557 3.761-1.811-3.343zM5.236 3.803L7.32 2.601l.762 3.725-2.845-2.523zM12.15 2l2.369.418-1.81 3.343L12.15 2zm3.608.6l2.083 1.203-2.846 2.523.763-3.725z" fill="#E24D3F"/>
</svg>
