<svg viewBox="0 0 40 41" fill="none" xmlns="http://www.w3.org/2000/svg">
<path opacity="0.15" fill-rule="evenodd" clip-rule="evenodd" d="M7.125 6.29187L7.12137 6.29188C6.29427 6.29422 5.50173 6.61581 4.91689 7.1864C4.33204 7.75698 4.00241 8.53019 4.00001 9.33711L4 9.34066V36.1699L4.00001 36.1736C4.00346 37.3036 4.46512 38.3863 5.28414 39.1854C6.10316 39.9844 7.213 40.4348 8.37127 40.4382L8.375 40.4382H34V40.4356C35.326 40.4356 36.5978 39.9217 37.5354 39.0069C38.4731 38.0921 38.9999 36.8513 38.9999 35.5576V15.4356C38.9999 14.6271 38.6707 13.8516 38.0846 13.2798C37.4986 12.7081 36.7037 12.3869 35.8749 12.3869H31.5V9.34066L31.5 9.33711C31.4976 8.53019 31.168 7.75698 30.5831 7.1864C29.9983 6.61581 29.2057 6.29422 28.3786 6.29188L7.125 6.29187Z" fill="#0066FF"/>
<path fill-rule="evenodd" clip-rule="evenodd" d="M4.125 1.41382L4.12137 1.41383C3.29427 1.41617 2.50173 1.73776 1.91689 2.30835C1.33204 2.87893 1.00241 3.65214 1.00001 4.45906L1 4.4626V31.2919L1.00001 31.2955C1.00346 32.4255 1.46512 33.5083 2.28414 34.3073C3.10316 35.1064 4.213 35.5568 5.37127 35.5602L5.375 35.5602H31V35.5576C32.326 35.5576 33.5978 35.0436 34.5354 34.1288C35.4731 33.214 35.9999 31.9733 35.9999 30.6795V10.5576C35.9999 9.749 35.6707 8.97353 35.0846 8.40177C34.4986 7.83002 33.7037 7.50881 32.8749 7.50881H28.5V4.4626L28.5 4.45906C28.4976 3.65214 28.168 2.87893 27.5831 2.30835C26.9983 1.73776 26.2057 1.41617 25.3786 1.41382L4.125 1.41382ZM28.5 30.6714L28.5 9.94783H32.8749C33.0407 9.94783 33.1996 10.0121 33.3168 10.1264C33.4341 10.2408 33.4999 10.3959 33.4999 10.5576V30.6795C33.4999 31.3264 33.2365 31.9468 32.7677 32.4042C32.2988 32.8616 31.6629 33.1186 30.9999 33.1186C30.3369 33.1186 29.701 32.8616 29.2321 32.4042C28.7633 31.9468 28.4999 31.3264 28.4999 30.6795L28.5 30.6714ZM26 8.71361V4.46464C25.9991 4.30267 25.9328 4.14756 25.8153 4.033C25.6979 3.91839 25.5388 3.85366 25.3727 3.85285H4.1273C3.9612 3.85366 3.80213 3.91839 3.68465 4.033C3.56718 4.1476 3.50083 4.3028 3.5 4.46485V31.2898C3.50191 31.7749 3.70028 32.2396 4.05191 32.5827C4.40348 32.9257 4.87975 33.1192 5.3769 33.1211H26.6713C26.2352 32.3853 25.9999 31.5442 25.9999 30.6795V8.72832C25.9999 8.72341 25.9999 8.71851 26 8.71361Z" fill="#0066FF"/>
<path d="M6 18.4866C6 17.8131 6.55964 17.2671 7.25 17.2671H22.25C22.9404 17.2671 23.5 17.8131 23.5 18.4866C23.5 19.1601 22.9404 19.7061 22.25 19.7061H7.25C6.55964 19.7061 6 19.1601 6 18.4866Z" fill="#F24E1E"/>
<path d="M6 23.3619C6 22.6884 6.55964 22.1424 7.25 22.1424H22.25C22.9404 22.1424 23.5 22.6884 23.5 23.3619C23.5 24.0354 22.9404 24.5814 22.25 24.5814H7.25C6.55964 24.5814 6 24.0354 6 23.3619Z" fill="#F24E1E"/>
<path d="M6 28.2387C6 27.5652 6.55964 27.0192 7.25 27.0192H22.25C22.9404 27.0192 23.5 27.5652 23.5 28.2387C23.5 28.9122 22.9404 29.4582 22.25 29.4582H7.25C6.55964 29.4582 6 28.9122 6 28.2387Z" fill="#F24E1E"/>
<path d="M16 8.7283C16 8.05478 16.5596 7.50879 17.25 7.50879H22.25C22.9404 7.50879 23.5 8.05478 23.5 8.7283C23.5 9.40182 22.9404 9.94781 22.25 9.94781H17.25C16.5596 9.94781 16 9.40182 16 8.7283Z" fill="#AF5CF8"/>
<path d="M16 13.6083C16 12.9348 16.5596 12.3888 17.25 12.3888H22.25C22.9404 12.3888 23.5 12.9348 23.5 13.6083C23.5 14.2819 22.9404 14.8278 22.25 14.8278H17.25C16.5596 14.8278 16 14.2819 16 13.6083Z" fill="#AF5CF8"/>
<path d="M7.25 14.8257H12.25C12.5815 14.8257 12.8995 14.6972 13.1339 14.4685C13.3683 14.2398 13.5 13.9296 13.5 13.6062V8.72812C13.5 8.40468 13.3683 8.0945 13.1339 7.86579C12.8995 7.63709 12.5815 7.50861 12.25 7.50861H7.25C6.91848 7.50861 6.60054 7.63709 6.36612 7.86579C6.1317 8.0945 6 8.40468 6 8.72812V13.6062C6 13.9296 6.1317 14.2398 6.36612 14.4685C6.60054 14.6972 6.91848 14.8257 7.25 14.8257Z" fill="#00C05B"/>
</svg>
