<svg viewBox="0 0 40 40" fill="none" xmlns="http://www.w3.org/2000/svg">
<path opacity="0.2" fill-rule="evenodd" clip-rule="evenodd" d="M17.4748 6.66669C14.8003 6.66669 12.1858 7.45978 9.96202 8.94567C7.73823 10.4316 6.005 12.5435 4.9815 15.0144C3.95801 17.4854 3.69021 20.2043 4.21199 22.8275C4.73376 25.4506 6.02167 27.8601 7.91285 29.7513C9.80402 31.6425 12.2135 32.9304 14.8367 33.4522C17.4598 33.9739 20.1788 33.7061 22.6497 32.6826C23.909 32.161 25.075 31.4551 26.1124 30.5938L34.3181 38.7995C34.8063 39.2877 35.5977 39.2877 36.0859 38.7995C36.574 38.3113 36.574 37.5199 36.0859 37.0317L27.8801 28.826C28.1779 28.4673 28.4578 28.0922 28.7185 27.7021C30.2044 25.4783 30.9975 22.8638 30.9975 20.1893C30.9972 16.6029 29.5725 13.1635 27.0365 10.6276C24.5006 8.09168 21.0611 6.66692 17.4748 6.66669Z" fill="#C98BFF"/>
<path fill-rule="evenodd" clip-rule="evenodd" d="M16.5227 0C13.8481 0 11.2337 0.79309 9.00988 2.27898C6.78609 3.76487 5.05285 5.87681 4.02936 8.34775C3.00586 10.8187 2.73807 13.5377 3.25984 16.1608C3.78161 18.7839 5.06952 21.1934 6.9607 23.0846C8.85188 24.9758 11.2614 26.2637 13.8845 26.7855C16.5077 27.3072 19.2266 27.0394 21.6976 26.016C22.9568 25.4943 24.1229 24.7884 25.1603 23.9271L33.366 32.1328C33.8541 32.621 34.6456 32.621 35.1337 32.1328C35.6219 31.6447 35.6219 30.8532 35.1337 30.365L26.928 22.1593C27.2257 21.8006 27.5057 21.4255 27.7663 21.0354C29.2522 18.8116 30.0453 16.1971 30.0453 13.5226C30.0451 9.93623 28.6203 6.49685 26.0844 3.96092C23.5485 1.425 20.109 0.000228087 16.5227 0ZM24.3166 5.72869C22.2495 3.66158 19.446 2.50021 16.5227 2.5C14.3426 2.50001 12.2114 3.14648 10.3988 4.35765C8.58614 5.56884 7.17333 7.29034 6.33905 9.30446C5.50478 11.3186 5.28649 13.5349 5.7118 15.6731C6.13711 17.8112 7.18692 19.7753 8.72847 21.3168C10.27 22.8584 12.2341 23.9082 14.3722 24.3335C16.5104 24.7588 18.7267 24.5405 20.7408 23.7063C22.755 22.872 24.4765 21.4592 25.6877 19.6465C26.8988 17.8339 27.5453 15.7027 27.5453 13.5226C27.5451 10.5993 26.3837 7.79579 24.3166 5.72869Z" fill="#AF5CF8"/>
<path d="M23.9854 13.3043H19.5971L18.9293 15.9757L17.2183 3.8681L15.3113 14.4936L13.614 8.19032L12.336 13.3043H7.82129V14.1939H13.0304L13.6463 11.7309L15.4851 18.5608L17.1139 9.48615L18.6864 20.6149L20.2918 14.1939H23.9854V13.3043Z" fill="#552C78"/>
</svg>
