<svg viewBox="0 0 55 59" fill="none" xmlns="http://www.w3.org/2000/svg">
<path opacity="0.2" d="M40.9005 50.3501H14.6927C11.4298 50.3501 8.62157 49.4863 6.5693 47.8533C4.23378 45.9936 3 43.2327 3 39.867C3 34.064 7.23356 30.7366 11.826 29.7115C12.1281 29.6427 12.4039 29.4883 12.6206 29.2668C12.8372 29.0453 12.9855 28.7661 13.0477 28.4626C13.8218 24.7653 15.5122 21.5932 18.005 19.1891C20.9063 16.3998 24.78 14.8502 28.8046 14.8688C32.383 14.8688 35.6831 16.0472 38.3482 18.2759C40.17 19.8125 41.6193 21.7425 42.5869 23.9206C42.6909 24.1544 42.8492 24.3601 43.0484 24.5206C43.2477 24.6812 43.4824 24.792 43.7329 24.8439C46.4545 25.4094 48.8808 26.5908 50.7062 28.256C53.2595 30.5814 54.6092 33.7606 54.6092 37.4479C54.6092 41.0766 53.1597 44.3909 50.5278 46.7808C47.9927 49.0831 44.5736 50.3501 40.9005 50.3501Z" fill="#AF5CF8"/>
<path fill-rule="evenodd" clip-rule="evenodd" d="M25.8046 12.0421C19.8125 12.0421 14.5391 16.109 13.3236 23.2456C13.2007 23.9615 12.8469 24.6238 12.3133 25.1343C11.7806 25.6438 11.0956 25.9782 10.3553 26.09C8.61035 26.3595 6.88048 27.0431 5.61876 28.1381C4.39968 29.1961 3.55926 30.68 3.55926 32.7718C3.55926 35.229 4.47821 36.8418 5.82865 37.8812C7.23697 38.965 9.30557 39.567 11.79 39.567H37.8171C43.6065 39.567 48.0499 35.7336 48.0499 30.4494C48.0499 27.7752 47.0736 25.7583 45.5635 24.301C44.0262 22.8174 41.8459 21.832 39.3549 21.4395C38.7477 21.3436 38.1762 21.0963 37.6979 20.7223C37.2196 20.3482 36.8504 19.8602 36.6266 19.3062C35.1018 15.523 31.3664 12.0421 25.8046 12.0421ZM9.8119 22.6848C11.2865 14.0321 17.9228 8.60153 25.8046 8.60153C33.1242 8.60153 37.9943 13.233 39.9382 18.0454C43.0047 18.5304 45.9142 19.7777 48.0782 21.8661C50.272 23.9832 51.6092 26.8822 51.6092 30.4494C51.6092 37.9385 45.2414 43.0077 37.8171 43.0077H11.79C8.76877 43.0077 5.83217 42.2818 3.61172 40.5729C1.33339 38.8194 0 36.1744 0 32.7718C0 29.6522 1.31015 27.2536 3.241 25.5779C5.12847 23.9399 7.5466 23.0389 9.79806 22.6919L9.80546 22.6907C9.80707 22.6905 9.80857 22.6898 9.80974 22.6887C9.81084 22.6876 9.8116 22.6863 9.8119 22.6848Z" fill="#AF5CF8"/>
</svg>
