<svg viewBox="0 0 40 40" fill="none" xmlns="http://www.w3.org/2000/svg">
  <defs/>
  <path opacity=".3" d="M11.843 18.679a1.462 1.462 0 00-.214-.769.198.198 0 01.08-.282.197.197 0 01.107-.019h.004c.06.006.381.053.836.33.338.204 1.302.862 2.98 2.538-.017.57.165 1.13.516 1.58l4.731-4.396a2.409 2.409 0 00-1.543-.658.19.19 0 01-.015-.018l-.046-.05-1.753-2.417a2.03 2.03 0 01-.286-1.865c.161-.463.453-.869.842-1.168.406-.315 1.323-.694 2.102-.758.363-.03.729-.008 1.085.067.171.041.34.092.505.152a1.142 1.142 0 001.323-1.745l-.003-.005a7.57 7.57 0 00-.203-.261 6.569 6.569 0 00-.686-.74c-.582-.526-2.09-1.412-4.071-1.412a8.791 8.791 0 00-3.307.643c-2.741 1.103-4.534 2.612-5.358 3.413l-.007.006a15.88 15.88 0 00-1.536 1.759c-.177.25-.292.538-.336.84a.524.524 0 01-.55.441h-.078a1.475 1.475 0 00-1.043.422l-2.103 2.05-.023.024a1.492 1.492 0 00-.017 2.05l.04.042 3.393 3.31a1.5 1.5 0 002.09.007l2.103-2.057a1.467 1.467 0 00.441-1.054zM34.614 30.382c-.996-.828-3.123-2.743-5.29-4.73l-4.72 5.043c2.017 2.143 3.843 4.132 4.643 5.063l.005.006a2.141 2.141 0 001.533.731h.078a2.15 2.15 0 001.5-.616l2.393-2.388a2.105 2.105 0 00-.142-3.11z" fill="#50FF8F"/>
  <path opacity=".3" d="M38.985 11.93c.154.116.277.266.361.438.575 1.183.748 2.772.475 4.357-.292 1.682-1.05 3.194-2.135 4.265-1.888 1.858-4.817 2.429-8.031 1.572a.785.785 0 00-.779.226L17.298 35.16a4.055 4.055 0 11-5.724-5.727l12.35-11.476a.786.786 0 00.226-.792c-.917-3.265-.344-6.221 1.571-8.122 2.209-2.195 5.735-2.878 8.572-1.663a1.203 1.203 0 01.376 1.957l-3.634 3.635a.798.798 0 000 1.12l1.606 1.605a.797.797 0 001.118 0l3.654-3.654a1.203 1.203 0 011.572-.112z" fill="#50FF8F"/>
  <path fill-rule="evenodd" clip-rule="evenodd" d="M10.569 16.283c.532.52 1.111 1.086 1.698 1.465-.006.134 0 .267.02.396.08.516.324.991.693 1.359l.007.007.391.382c.25.246.573.563 1.017.995l5.257 5.361c2.51 2.64 5.178 5.519 6.22 6.73l.009.009a2.145 2.145 0 003.105.116l2.394-2.393a2.106 2.106 0 00-.145-3.11c-1.23-1.025-4.239-3.751-6.971-6.28l-5.114-4.852-1.604-1.56a2.436 2.436 0 00-1.268-.654 2.144 2.144 0 00-.646-.015 11.49 11.49 0 00-.628-.822l-.003-.004c-.352-.434-.754-.931-1.14-1.552a1.335 1.335 0 01-.186-.407c-.02-.09-.03-.198-.02-.4.056-1.117.384-1.82 1.052-2.35.418-.328 1.346-.698 2.1-.76h.002a3.77 3.77 0 011.085.067c.173.042.344.093.512.155a1.142 1.142 0 001.314-1.752 7.205 7.205 0 00-.886-.999C18.195 4.837 16.684 4 14.763 4a8.807 8.807 0 00-3.308.641c-3.053 1.23-4.88 2.943-5.366 3.42l-.003.002a15.927 15.927 0 00-1.522 1.74c-.221.3-.342.657-.374 1.027a3.214 3.214 0 00-.006.396 1.487 1.487 0 00-.594-.125 1.478 1.478 0 00-1.05.423l-.002.001-2.098 2.05a1.491 1.491 0 00-.03 2.084c1.097 1.156 2.288 2.235 3.428 3.348l.008.008a1.49 1.49 0 002.08-.016l2.093-2.043a1.48 1.48 0 00.446-1.057 1.473 1.473 0 00-.419-1.03 1.06 1.06 0 01.4-.038c.082.01.396.065.832.33.375.228.815.657 1.29 1.122zm5.384.264c.29.282 5.992 5.703 6.75 6.441l-1.487 1.588c-.266-.259-5.676-5.766-5.941-6.026l-.686-.67a.16.16 0 01-.042-.142l.02-.02.003-.002c.175-.174.348-.35.521-.526.207-.21.413-.42.625-.627l.01-.01a.19.19 0 01.057-.04.15.15 0 01.166.03l.004.004zM12.31 6.761a6.522 6.522 0 012-.46 5.246 5.246 0 00-1.015.606l-.004.003c-1.316 1.04-1.84 2.44-1.919 4.033v.001c-.014.303-.011.644.075 1.02.294 1.286 1.373 2.31 2.255 3.217a4.95 4.95 0 00-.377.364c-1.303-1.252-2.244-1.963-2.861-2.338-.75-.455-1.391-.607-1.777-.649l-.01-.001a3.347 3.347 0 00-1.976.416 1.957 1.957 0 00-.446.34l-.006.006a2.154 2.154 0 00-.35 2.513l-1.02.996-2.25-2.195 1.076-1.052c.27.093.557.127.84.092.365-.041.953-.168 1.41-.601l.006-.007c.343-.332.47-.728.514-1.04.037-.27.018-.536.007-.682l-.001-.018c-.01-.129-.014-.2-.015-.248.377-.489.786-.952 1.225-1.386.374-.366 1.952-1.856 4.618-2.93h.002zm10.392 16.227l-1.486 1.588c2.462 2.588 5.121 5.453 6.28 6.785l2.129-2.128c-1.357-1.146-4.288-3.805-6.923-6.245z" fill="#00C05B"/>
  <path fill-rule="evenodd" clip-rule="evenodd" d="M14.395 20.887l-6.2 5.762a4.053 4.053 0 105.725 5.726l5.732-6.127 5.842-6.243.003-.003a.784.784 0 01.78-.224c2.568.686 5.786.64 8.03-1.571 1.187-1.17 1.871-2.743 2.135-4.266.262-1.51.133-3.11-.473-4.358l-.007-.013a1.202 1.202 0 00-1.927-.31l-3.65 3.651v.001a.798.798 0 01-1.123 0l-.001-.001-1.602-1.602a.796.796 0 010-1.123l3.633-3.632a1.203 1.203 0 00-.368-1.954l-.008-.004c-2.767-1.184-6.308-.587-8.575 1.664-2.274 2.258-2.3 5.53-1.571 8.12a.787.787 0 01-.223.79l-.003.002-6.15 5.715zm7.704-4.04l-.001.002-12.37 11.495a1.767 1.767 0 102.498 2.496l.008-.009 11.588-12.385.002-.002a3.072 3.072 0 013.043-.874c2.21.59 4.426.398 5.836-.992.777-.765 1.286-1.868 1.487-3.027.079-.453.106-.893.091-1.304L32 14.53l-.003.003a3.083 3.083 0 01-4.346 0l-.003-.003-1.606-1.607-.002-.002a3.082 3.082 0 010-4.347l.002-.002L28.315 6.3c-1.555-.103-3.208.436-4.363 1.583-1.423 1.412-1.608 3.652-.982 5.88a3.071 3.071 0 01-.87 3.086z" fill="#00401E"/>
</svg>
