<svg viewBox="0 0 40 40" fill="none" xmlns="http://www.w3.org/2000/svg">
<path opacity="0.3" d="M39.9938 17.3396V17.3483C39.998 17.3877 40.0001 17.4274 40.0002 17.467V31.3994C40.0002 31.5709 39.9651 31.7405 39.897 31.8981C39.829 32.0557 39.7294 32.198 39.6043 32.3162C39.4792 32.4345 39.3312 32.5264 39.1692 32.5862C39.0073 32.6461 38.8348 32.6727 38.6622 32.6644C37.9752 32.6304 37.447 32.0454 37.447 31.3638V19.9226C37.4471 19.8948 37.4398 19.8674 37.4259 19.8432C37.4119 19.8191 37.3918 19.799 37.3675 19.785C37.3432 19.7711 37.3157 19.7637 37.2876 19.7637C37.2595 19.7636 37.2319 19.7709 37.2076 19.7849L33.6171 21.8204V31.3995C33.6173 31.6255 33.5565 31.8475 33.4411 32.0424C33.3256 32.2373 33.1597 32.3979 32.9605 32.5077L21.4711 38.8406C21.2814 38.9451 21.0681 39 20.8511 39C20.6342 39 20.4208 38.9451 20.2312 38.8406L8.74175 32.5077C8.54257 32.3979 8.37664 32.2373 8.26117 32.0424C8.1457 31.8475 8.08491 31.6255 8.0851 31.3995V21.8217L2.34365 18.5666C2.14832 18.4558 1.98598 18.2957 1.87306 18.1026C1.76015 17.9095 1.70068 17.6903 1.70068 17.467C1.70068 17.2438 1.76015 17.0245 1.87306 16.8314C1.98598 16.6383 2.14832 16.4783 2.34365 16.3675L20.2161 6.23483C20.409 6.12542 20.6274 6.06787 20.8496 6.06787C21.0718 6.06787 21.2902 6.12542 21.4831 6.23483L39.3555 16.3675C39.5323 16.4673 39.6824 16.6077 39.7935 16.7768C39.9045 16.9458 39.9732 17.1388 39.9938 17.3396Z" fill="#599CFF"/>
<path fill-rule="evenodd" clip-rule="evenodd" d="M37.0212 11.1334C37.7263 11.1334 38.2978 11.6997 38.2978 12.3992L38.2978 26.3323C38.2978 27.0318 37.7263 27.5989 37.0212 27.5989C36.3162 27.5989 35.7446 27.0318 35.7446 26.3323V12.3999C35.7446 11.7004 36.3162 11.1334 37.0212 11.1334Z" fill="#00C05B"/>
<path fill-rule="evenodd" clip-rule="evenodd" d="M7.65941 14.9318C8.36446 14.9318 8.93602 15.4988 8.93602 16.1983V25.5857L19.1488 31.215L29.3616 25.5857V16.1983C29.3616 15.4988 29.9332 14.9318 30.6382 14.9318C31.3433 14.9318 31.9148 15.4988 31.9148 16.1983V26.331C31.9148 26.791 31.6635 27.2148 31.2582 27.4382L19.7688 33.7711C19.3832 33.9836 18.9144 33.9836 18.5289 33.7711L7.03944 27.4382C6.63417 27.2148 6.38281 26.791 6.38281 26.331V16.1983C6.38281 15.4988 6.95437 14.9318 7.65941 14.9318Z" fill="#003380"/>
<path fill-rule="evenodd" clip-rule="evenodd" d="M19.149 21.2635C19.854 21.2635 20.4256 21.8306 20.4256 22.5301V32.6627C20.4256 33.3622 19.854 33.9293 19.149 33.9293C18.4439 33.9293 17.8724 33.3622 17.8724 32.6627V22.5301C17.8724 21.8306 18.4439 21.2635 19.149 21.2635Z" fill="#003380"/>
<path fill-rule="evenodd" clip-rule="evenodd" d="M18.5157 1.16688C18.9081 0.944373 19.3899 0.944373 19.7824 1.16688L37.6548 11.2995C38.0526 11.525 38.2981 11.9447 38.2981 12.3992C38.2981 12.8538 38.0526 13.2734 37.6548 13.4989L19.7824 23.6316C19.3899 23.8541 18.9081 23.8541 18.5157 23.6316L0.64323 13.4989C0.245473 13.2734 0 12.8538 0 12.3992C0 11.9447 0.245473 11.525 0.64323 11.2995L18.5157 1.16688ZM3.84968 12.3992L19.149 21.0731L34.4484 12.3992L19.149 3.72537L3.84968 12.3992Z" fill="#0066FF"/>
</svg>
