<svg viewBox="0 0 42 43" fill="none" xmlns="http://www.w3.org/2000/svg">
<path opacity="0.3" fill-rule="evenodd" clip-rule="evenodd" d="M16.952 9.38123C15.7004 9.38123 14.5001 9.87841 13.6151 10.7634C12.7301 11.6484 12.2329 12.8487 12.2329 14.1002V37.6952C12.2329 38.9467 12.7301 40.1471 13.6151 41.032C14.5001 41.917 15.7004 42.4143 16.952 42.4143H33.4685C34.7199 42.4143 35.9203 41.917 36.8052 41.032C37.6903 40.1471 38.1873 38.9467 38.1873 37.6952V23.3353C38.1872 22.3969 37.8143 21.497 37.1509 20.8334L26.7352 10.4176C26.0716 9.75412 25.1715 9.38137 24.2332 9.38123H16.952Z" fill="#C98BFF"/>
<path fill-rule="evenodd" clip-rule="evenodd" d="M12.2332 2.7746C10.9816 2.7746 9.7813 3.27176 8.89633 4.15675C8.01134 5.04174 7.51416 6.24204 7.51416 7.49359V31.0885C7.51416 32.3401 8.01134 33.5403 8.89633 34.4254C9.7813 35.3103 10.9816 35.8075 12.2332 35.8075H28.7497C30.0013 35.8075 31.2015 35.3103 32.0864 34.4254C32.9715 33.5403 33.4687 32.3401 33.4687 31.0885V16.7286C33.4685 15.7903 33.0957 14.8903 32.4323 14.2267L22.0164 3.81093C21.3528 3.14749 20.4527 2.77473 19.5144 2.7746H12.2332ZM10.5648 5.82517C11.0072 5.38268 11.6074 5.13409 12.2332 5.13409H19.5144C19.8271 5.13419 20.1271 5.25849 20.3482 5.47953L30.7637 15.8952C30.9849 16.1163 31.1091 16.4163 31.1091 16.729V31.0885C31.1091 31.7143 30.8605 32.3144 30.418 32.757C29.9756 33.1995 29.3755 33.4481 28.7497 33.4481H12.2332C11.6074 33.4481 11.0072 33.1995 10.5648 32.757C10.1222 32.3144 9.87366 31.7143 9.87366 31.0885V7.49359C9.87366 6.8678 10.1222 6.26766 10.5648 5.82517Z" fill="#AF5CF8"/>
<path fill-rule="evenodd" clip-rule="evenodd" d="M20.4917 3.36456C21.1432 3.36456 21.6714 3.89276 21.6714 4.54431V13.3924C21.6714 13.7053 21.7957 14.0054 22.017 14.2266C22.2383 14.4479 22.5383 14.5722 22.8512 14.5722H31.6993C32.3509 14.5722 32.879 15.1004 32.879 15.7519C32.879 16.4035 32.3509 16.9316 31.6993 16.9316H22.8512C21.9125 16.9316 21.0124 16.5588 20.3486 15.895C19.6848 15.2313 19.312 14.3311 19.312 13.3924V4.54431C19.312 3.89276 19.8401 3.36456 20.4917 3.36456Z" fill="#AF5CF8"/>
<path fill-rule="evenodd" clip-rule="evenodd" d="M13.4126 21.6502C13.4126 20.9987 13.9408 20.4705 14.5923 20.4705H26.3898C27.0414 20.4705 27.5697 20.9987 27.5697 21.6502C27.5697 22.3018 27.0414 22.8301 26.3898 22.8301H14.5923C13.9408 22.8301 13.4126 22.3018 13.4126 21.6502Z" fill="#552C78"/>
<path fill-rule="evenodd" clip-rule="evenodd" d="M13.4126 27.5493C13.4126 26.8977 13.9408 26.3696 14.5923 26.3696H26.3898C27.0414 26.3696 27.5697 26.8977 27.5697 27.5493C27.5697 28.2008 27.0414 28.7291 26.3898 28.7291H14.5923C13.9408 28.7291 13.4126 28.2008 13.4126 27.5493Z" fill="#552C78"/>
</svg>
