<svg viewBox="0 0 38 36" fill="none" xmlns="http://www.w3.org/2000/svg">
<rect opacity="0.2" x="5.3999" y="10.8" width="32.4" height="23.4" rx="4" fill="#50FF8F"/>
<path d="M17.9422 28.9545C17.9047 28.8629 17.8493 28.7797 17.7793 28.7097L13.2802 24.2106C13.1388 24.074 12.9493 23.9984 12.7527 24.0001C12.5561 24.0018 12.3679 24.0807 12.2289 24.2197C12.0898 24.3588 12.011 24.5469 12.0092 24.7435C12.0075 24.9402 12.0831 25.1296 12.2197 25.2711L15.4395 28.4908H5.25C4.65347 28.4902 4.08157 28.2529 3.65976 27.8311C3.23794 27.4093 3.00067 26.8374 3 26.2408V9.74084C3.00067 9.14431 3.23794 8.57241 3.65976 8.1506C4.08157 7.72879 4.65347 7.49152 5.25 7.49084C5.44891 7.49084 5.63968 7.41183 5.78033 7.27117C5.92098 7.13052 6 6.93976 6 6.74084C6 6.54193 5.92098 6.35117 5.78033 6.21051C5.63968 6.06986 5.44891 5.99084 5.25 5.99084C4.25575 5.99188 3.30253 6.3873 2.59949 7.09033C1.89645 7.79337 1.50103 8.7466 1.5 9.74084V26.2408C1.50103 27.2351 1.89645 28.1883 2.59949 28.8914C3.30253 29.5944 4.25575 29.9898 5.25 29.9908H15.4395L12.2197 33.2106C12.1481 33.2798 12.091 33.3625 12.0517 33.454C12.0124 33.5455 11.9917 33.644 11.9908 33.7435C11.9899 33.8431 12.0089 33.9419 12.0466 34.0341C12.0843 34.1262 12.14 34.21 12.2105 34.2804C12.2809 34.3508 12.3646 34.4065 12.4568 34.4442C12.549 34.4819 12.6477 34.5009 12.7473 34.5C12.8469 34.4992 12.9453 34.4785 13.0368 34.4392C13.1283 34.3999 13.2111 34.3427 13.2802 34.2711L17.7793 29.772C17.884 29.667 17.9554 29.5333 17.9844 29.3879C18.0133 29.2424 17.9987 29.0916 17.9422 28.9545Z" fill="#00401E"/>
<path d="M30.7497 5.99216H20.5595L23.7795 2.77142C23.9161 2.62993 23.9917 2.44042 23.99 2.24371C23.9883 2.047 23.9094 1.85884 23.7704 1.71974C23.6313 1.58064 23.4432 1.50174 23.2465 1.50003C23.0499 1.49832 22.8604 1.57394 22.7189 1.7106L18.2195 6.21108C18.0789 6.35216 18 6.54321 18 6.74239C18 6.94158 18.0789 7.13263 18.2195 7.27371L22.7189 11.7742C22.8604 11.9109 23.0499 11.9865 23.2465 11.9848C23.4432 11.9831 23.6313 11.9042 23.7704 11.7651C23.9094 11.626 23.9883 11.4378 23.99 11.2411C23.9917 11.0444 23.9161 10.8549 23.7795 10.7134L20.5595 7.49262H30.7497C31.3463 7.4933 31.9183 7.73064 32.3401 8.15258C32.7619 8.57452 32.9992 9.1466 32.9999 9.74332V26.2488C32.9992 26.8456 32.7619 27.4176 32.3401 27.8396C31.9183 28.2615 31.3463 28.4989 30.7497 28.4995C30.5508 28.4995 30.36 28.5786 30.2194 28.7193C30.0787 28.86 29.9997 29.0508 29.9997 29.2498C29.9997 29.4487 30.0787 29.6396 30.2194 29.7803C30.36 29.921 30.5508 30 30.7497 30C31.7441 29.9991 32.6975 29.6036 33.4006 28.9003C34.1037 28.197 34.4991 27.2434 34.5 26.2488V9.74332C34.4991 8.74873 34.1037 7.79514 33.4006 7.09186C32.6975 6.38858 31.7441 5.99308 30.7497 5.99216Z" fill="#00C05B"/>
<circle r="3.75" transform="matrix(-1 0 0 1 12 6.75)" fill="#DB210F"/>
<path d="M24 24.75L28.5466 32.625H19.4534L24 24.75Z" fill="#AF5CF8"/>
</svg>
