<svg width="46" height="46" viewBox="0 0 46 46" fill="none" xmlns="http://www.w3.org/2000/svg">
<path fill-rule="evenodd" clip-rule="evenodd" d="M4.31232 22.2858C4.31232 12.3628 12.3581 4.31702 22.2811 4.31702C32.204 4.31702 40.2498 12.3628 40.2498 22.2858C40.2498 32.2087 32.204 40.2545 22.2811 40.2545C12.3581 40.2545 4.31232 32.2087 4.31232 22.2858ZM22.2811 7.19202C13.946 7.19202 7.18732 13.9507 7.18732 22.2858C7.18732 30.6209 13.946 37.3795 22.2811 37.3795C30.6162 37.3795 37.3748 30.6209 37.3748 22.2858C37.3748 13.9507 30.6162 7.19202 22.2811 7.19202Z" fill="#AF5CF8"/>
<path d="M19.7657 18.3296C18.9718 18.3296 18.3282 18.9732 18.3282 19.7671C18.3282 20.561 18.9718 21.2046 19.7657 21.2046H21.2032V29.1097H18.6873C17.8933 29.1097 17.2498 29.7533 17.2498 30.5472C17.2498 31.3411 17.8933 31.9847 18.6873 31.9847H26.5935C27.3874 31.9847 28.031 31.3411 28.031 30.5472C28.031 29.7533 27.3874 29.1097 26.5935 29.1097H24.0782V19.7671C24.0782 18.9732 23.4346 18.3296 22.6407 18.3296H19.7657Z" fill="#AF5CF8"/>
<path d="M24.6292 14.03C24.6292 15.3214 23.5823 16.3683 22.2908 16.3683C20.9994 16.3683 19.9525 15.3214 19.9525 14.03C19.9525 12.7386 20.9994 11.6917 22.2908 11.6917C23.5823 11.6917 24.6292 12.7386 24.6292 14.03Z" fill="#AF5CF8"/>
<ellipse opacity="0.3" cx="27" cy="27.5" rx="17" ry="16.5" fill="#C98BFF"/>
</svg>
