<svg viewBox="0 0 53 52" fill="none" xmlns="http://www.w3.org/2000/svg">
  <defs/>
  <path opacity=".2" d="M11.077 34.035c.038 0 .038 0 0 0h.038c.04 0 .076 0 .076-.038.075 0 .15-.038.225-.038.264-.037.49-.073.715-.073.114 0 .225 0 .376-.037h.038c.79-.073 1.43-.147 2.031-.33.265-.111.34-.258.415-.404 0-.037.039-.037.039-.073l.49-.146a14.079 14.079 0 01.263-5.16 14.874 14.874 0 012.107-4.795l-.376-.33v-.073a.816.816 0 00-.19-.55c-.45-.403-1.015-.731-1.69-1.134-.115-.073-.226-.111-.34-.184a5.904 5.904 0 01-.64-.366c-.039-.037-.114-.073-.189-.146-.039-.038-.075-.038-.075-.073-.526-.439-.64-1.172-.264-1.646.189-.257.526-.404.865-.404.3 0 .565.111.827.293l.075.073c.075.038.113.11.189.146.189.184.339.33.49.512.074.073.15.184.263.257.526.55 1.016.988 1.505 1.318a.626.626 0 00.34.111c.075 0 .15 0 .225-.038h.075l.451.293c.49-.512 1.016-.95 1.542-1.391a15.27 15.27 0 017.86-3.038l.039-.477.075-.073c.114-.11.264-.219.3-.476.04-.585-.038-1.245-.113-1.976v-.038c0-.11-.039-.257-.076-.366a27.058 27.058 0 01-.113-.695v-.319c0-.658.526-1.208 1.165-1.208.301 0 .602.146.827.366.226.22.34.511.34.842v.293c0 .256-.04.475-.114.695-.04.11-.04.22-.076.365v.038c-.075.731-.189 1.392-.113 1.976.038.257.189.366.3.477l.075.073.037.474c.676.073 1.354.146 2.03.293a14.606 14.606 0 017.447 4.098l.375-.256h.076c.075 0 .15.037.225.037a.623.623 0 00.34-.11c.489-.33.976-.805 1.504-1.354.075-.073.15-.184.264-.257.15-.184.301-.33.49-.512.039-.038.114-.073.19-.146.038-.038.074-.038.074-.073a1.33 1.33 0 01.827-.293c.34 0 .676.146.865.403.376.477.264 1.208-.264 1.646-.039 0-.039.038-.075.038-.075.038-.114.11-.19.146a5.549 5.549 0 01-.639.366c-.114.038-.225.11-.34.184-.676.403-1.24.731-1.691 1.134-.19.184-.19.366-.19.55v.073l-.375.33c.075.11.15.184.19.293 1.88 2.89 2.595 6.294 2.105 9.66l.49.146c0 .038.039.038.039.073a.87.87 0 00.414.403c.565.184 1.241.257 2.031.33h.039c.114 0 .264 0 .376.038.225 0 .45.038.715.073.075 0 .15.038.225.038.039 0 .075 0 .114.038.676.146 1.09.769.977 1.353-.114.512-.601.842-1.205.842a.82.82 0 01-.3-.037c-.04 0-.075 0-.075-.038-.076 0-.15-.038-.226-.038a3.573 3.573 0 01-.676-.257c-.114-.037-.226-.11-.34-.146h-.038c-.715-.257-1.355-.476-1.956-.55h-.075c-.226 0-.376.111-.49.184-.039 0-.039.038-.075.038l-.526-.073a14.47 14.47 0 01-4.928 6.88 15.14 15.14 0 01-1.616 1.061l.225.476c0 .038-.038.038-.038.074-.076.146-.15.33-.076.584.226.55.565 1.097.977 1.72v.037c.075.111.15.184.226.293.15.184.264.365.414.585.039.038.075.11.114.184 0 .037.039.073.039.073.3.622.075 1.318-.49 1.573-.15.073-.3.11-.45.11-.452 0-.903-.292-1.128-.695 0-.038-.039-.073-.039-.073-.038-.073-.075-.146-.114-.184-.113-.257-.15-.439-.225-.658l-.114-.33c-.264-.731-.45-1.319-.79-1.83-.15-.22-.34-.257-.49-.33-.038 0-.038 0-.075-.038l-.264-.476a15.05 15.05 0 01-5.264.95c-1.091 0-2.218-.11-3.272-.365a17.182 17.182 0 01-1.956-.55l-.226.403c-.039 0-.039 0-.075.038a.702.702 0 00-.49.33c-.3.512-.526 1.134-.79 1.83v.038l-.113.33c-.076.22-.114.439-.226.658-.039.073-.075.11-.114.184 0 .038-.038.073-.038.073a1.281 1.281 0 01-1.128.696c-.15 0-.3-.038-.45-.111-.265-.146-.49-.366-.565-.658-.075-.293-.075-.623.075-.915 0-.038.039-.038.039-.073.038-.073.075-.147.114-.184.113-.22.264-.403.414-.585.075-.11.15-.184.225-.293v-.037c.415-.623.79-1.172.977-1.72.075-.257 0-.403-.038-.584 0-.038-.04-.038-.04-.074l.19-.438a14.391 14.391 0 01-4.964-4.722 14.003 14.003 0 01-1.58-3.292l-.451.073c-.039 0-.039-.038-.075-.038-.15-.073-.265-.184-.49-.184h-.075c-.601.073-1.241.293-1.956.55h-.039c-.114.037-.225.11-.34.146-.225.11-.414.184-.675.257-.076 0-.15.038-.226.038-.039 0-.075 0-.114.037-.114.038-.189.038-.3.038-.565 0-1.052-.366-1.205-.842.007-.445.421-1.033 1.098-1.214z" fill="#06F"/>
  <path d="M6.02 31.131c.042 0 .042 0 0 0h.042c.042 0 .081 0 .081-.04.082 0 .163-.04.244-.04.286-.04.53-.078.773-.078.123 0 .244 0 .406-.04h.042c.854-.078 1.546-.156 2.196-.352.285-.119.367-.274.448-.43 0-.04.042-.04.042-.078l.529-.156a14.827 14.827 0 01.285-5.505 15.759 15.759 0 012.277-5.114l-.406-.352v-.078a.862.862 0 00-.204-.586c-.487-.43-1.098-.78-1.829-1.21-.123-.078-.244-.119-.367-.197a6.392 6.392 0 01-.692-.39c-.041-.04-.123-.078-.204-.155-.042-.04-.081-.04-.081-.078-.569-.468-.692-1.25-.286-1.756.205-.275.569-.43.936-.43.325 0 .61.118.893.311l.082.078c.08.04.123.118.204.156.204.196.367.352.53.546.08.078.162.197.285.274.568.587 1.098 1.054 1.627 1.407a.68.68 0 00.367.118c.08 0 .162 0 .243-.04h.082l.487.312c.53-.546 1.098-1.014 1.667-1.485a16.638 16.638 0 018.497-3.24l.042-.508.081-.078c.123-.118.286-.234.325-.508.042-.624-.042-1.328-.123-2.108v-.04c0-.118-.042-.274-.081-.39a28.22 28.22 0 01-.123-.742v-.341c0-.702.569-1.288 1.26-1.288.325 0 .65.156.894.39s.367.546.367.898V8.1c0 .274-.042.508-.123.742-.042.119-.042.234-.082.39v.04c-.08.78-.204 1.485-.123 2.109.042.274.205.39.325.508l.081.078.04.505c.73.079 1.465.157 2.196.313 3.13.664 5.895 2.186 8.05 4.372l.405-.274h.082c.08 0 .162.04.243.04a.68.68 0 00.367-.118c.53-.353 1.056-.858 1.627-1.444.082-.079.163-.197.286-.275.162-.196.325-.352.53-.546.041-.04.122-.077.203-.155.042-.04.082-.04.082-.079.243-.196.568-.311.893-.311.367 0 .731.155.936.43.406.508.285 1.288-.286 1.756-.042 0-.042.04-.081.04-.081.04-.123.118-.204.156a6.006 6.006 0 01-.692.39c-.123.04-.244.118-.367.196-.731.43-1.342.78-1.829 1.21-.204.196-.204.39-.204.586v.078l-.406.352c.08.118.162.196.204.312a14.705 14.705 0 012.277 10.304l.53.157c0 .04.041.04.041.078a.935.935 0 00.448.43c.61.196 1.342.274 2.196.352h.042c.123 0 .285 0 .406.04.244 0 .487.04.773.078.081 0 .162.04.244.04.041 0 .08 0 .123.04.73.156 1.179.82 1.056 1.444-.123.546-.65.898-1.303.898-.123 0-.204 0-.324-.04-.042 0-.082 0-.082-.04-.08 0-.162-.04-.243-.04a3.885 3.885 0 01-.731-.274c-.124-.04-.244-.119-.367-.156h-.042c-.773-.274-1.465-.508-2.115-.586h-.08c-.245 0-.407.118-.53.196-.042 0-.042.04-.081.04l-.57-.078c-.974 2.888-2.845 5.464-5.326 7.338-.569.43-1.137.78-1.748 1.132l.244.508c0 .04-.042.04-.042.078-.081.156-.163.352-.081.624.243.586.61 1.17 1.056 1.834v.04c.081.119.162.197.244.312.162.197.285.39.447.624.042.04.082.118.124.197 0 .04.041.078.041.078.325.664.082 1.406-.529 1.678a1.12 1.12 0 01-.487.118c-.488 0-.975-.312-1.219-.742 0-.04-.042-.078-.042-.078-.041-.078-.08-.156-.123-.197-.123-.274-.162-.467-.243-.701l-.123-.353c-.286-.78-.488-1.406-.855-1.952-.162-.234-.367-.274-.529-.352-.042 0-.042 0-.081-.04l-.286-.508a16.455 16.455 0 01-5.691 1.014c-1.18 0-2.398-.119-3.538-.39a18.74 18.74 0 01-2.114-.586l-.244.43c-.042 0-.042 0-.081.04a.76.76 0 00-.53.352c-.324.546-.568 1.21-.853 1.952v.04l-.124.352c-.08.235-.123.468-.243.702-.042.078-.081.119-.123.197 0 .04-.042.078-.042.078a1.387 1.387 0 01-1.219.742 1.12 1.12 0 01-.487-.118c-.286-.157-.53-.39-.61-.702-.082-.312-.082-.664.08-.977 0-.04.042-.04.042-.078.042-.078.082-.155.123-.196a3.59 3.59 0 01.449-.624c.08-.118.162-.196.243-.312v-.04c.448-.664.854-1.25 1.056-1.834.082-.274 0-.43-.042-.624 0-.04-.041-.04-.041-.078l.204-.468a15.473 15.473 0 01-5.366-5.036 14.85 14.85 0 01-1.709-3.512l-.487.078c-.042 0-.042-.04-.082-.04-.162-.078-.285-.196-.529-.196h-.081c-.65.078-1.342.312-2.115.586h-.041c-.124.04-.244.118-.367.156a3.963 3.963 0 01-.731.274c-.082 0-.163.04-.244.04-.042 0-.081 0-.123.04-.123.04-.205.04-.325.04-.61 0-1.137-.39-1.302-.898.007-.475.455-1.1 1.186-1.295zm18.825-1.914l1.79.82 1.789-.82.448-1.834-1.219-1.484h-1.991l-1.219 1.484.402 1.834zm-10.613-4.058a11.874 11.874 0 00-.285 3.942l6.22-1.718c.569-.156.894-.702.773-1.25a.95.95 0 00-.243-.43l-4.919-4.254a12.296 12.296 0 00-1.546 3.71zm3.498-6.05l5.327 3.63a1.111 1.111 0 001.423-.234c.123-.118.163-.274.205-.43l.366-6.362c-2.808.312-5.369 1.522-7.32 3.396zm11.792-3.203c-.448-.078-.854-.155-1.302-.234l.366 6.247a1.093 1.093 0 001.098 1.014c.163 0 .367-.04.488-.118l5.405-3.706c-1.666-1.6-3.739-2.694-6.055-3.203zm8.008 5.545l-4.838 4.138c-.448.352-.487 1.014-.123 1.444a.813.813 0 00.488.312l6.302 1.756a12.14 12.14 0 00-1.83-7.65zm1.097 10.578l-6.464-1.054a1.086 1.086 0 00-1.137.82c-.042.234-.042.43.042.624l2.479 5.739c2.277-1.407 4.106-3.553 5.08-6.129zm-14.839 7.766c.936.197 1.871.312 2.846.312 1.423 0 2.806-.233 4.106-.623L27.528 33.9c-.325-.352-.854-.508-1.302-.274a1.694 1.694 0 00-.488.43l-3.131 5.426c.367.119.775.197 1.181.313zm-7.928-5.424c1.016 1.563 2.358 2.81 3.904 3.787l2.562-5.895a1.036 1.036 0 00-.568-1.21 1.347 1.347 0 00-.569-.118l-6.506 1.054c.241.858.647 1.64 1.177 2.382z" fill="#06F"/>
</svg>
