<svg viewBox="0 0 36 36" xmlns="http://www.w3.org/2000/svg">
<path d="M32.8507 8.72693C32.6448 8.06932 32.1508 7.53501 31.5333 7.2062L18.9772 1.2055C18.6479 1.0411 18.2774 1 17.948 1C17.6187 1 17.2482 1 16.9188 1.0822L4.36271 7.124C3.74519 7.41171 3.29235 7.94602 3.12768 8.64473L0.040112 22.1669C-0.0833908 22.8656 0.0812796 23.5643 0.492955 24.1397L9.17932 34.867C9.67333 35.3602 10.3732 35.689 11.073 35.7301H24.9053C25.6463 35.8123 26.3462 35.4835 26.799 34.867L35.4854 24.1397C35.8971 23.5643 36.0617 22.8656 35.9794 22.1669L32.8507 8.72693V8.72693Z" />
<path d="M30.9157 21.6328C30.8745 21.6328 30.8333 21.6328 30.8333 21.5917C30.8333 21.5506 30.751 21.5506 30.6687 21.5506C30.504 21.5095 30.3393 21.5095 30.1747 21.5095C30.0923 21.5095 30.01 21.5095 29.9277 21.4684H29.8865C29.4336 21.4273 28.9396 21.3451 28.4868 21.2218C28.3633 21.1807 28.2398 21.0574 28.1986 20.9341C28.2398 20.9341 28.1986 20.9341 28.1986 20.9341L27.8693 20.8519C28.0339 19.66 27.9516 18.4269 27.7046 17.235C27.4164 16.0431 26.9224 14.8923 26.2637 13.8648L26.5107 13.6182V13.577C26.5107 13.4537 26.5519 13.2893 26.6342 13.2071C27.0048 12.8783 27.3753 12.6317 27.7869 12.3851C27.8693 12.344 27.9516 12.3029 28.0339 12.2618C28.1986 12.1796 28.3221 12.0974 28.4868 12.0152C28.528 11.9741 28.5691 11.9741 28.6103 11.933C28.6515 11.8919 28.6103 11.8919 28.6103 11.8508C28.9808 11.5631 29.0631 11.0699 28.775 10.7C28.6515 10.5356 28.4045 10.4123 28.1986 10.4123C27.9928 10.4123 27.7869 10.4945 27.6223 10.6178L27.5811 10.6589C27.5399 10.7 27.4988 10.7411 27.4576 10.7411C27.3341 10.8644 27.2106 10.9877 27.1283 11.111C27.0871 11.1932 27.0048 11.2343 26.9636 11.2754C26.6754 11.6042 26.3049 11.933 25.9344 12.1796C25.8521 12.2207 25.7697 12.2618 25.6874 12.2618C25.6462 12.2618 25.5639 12.2618 25.5227 12.2207H25.4816L25.1522 12.4262C24.8229 12.0974 24.4524 11.7686 24.123 11.4398C22.5998 10.2479 20.7061 9.50808 18.7712 9.30258L18.7301 8.97377V9.01487C18.6066 8.93267 18.5654 8.80937 18.5242 8.68607C18.5242 8.23396 18.5242 7.78185 18.6066 7.28864V7.24754C18.6066 7.16534 18.6477 7.08314 18.6477 7.00094C18.6889 6.83654 18.6889 6.67213 18.7301 6.50773V6.26113C18.7712 5.85012 18.4419 5.43911 18.0302 5.39801C17.7832 5.35691 17.5362 5.48021 17.3304 5.68572C17.1657 5.85012 17.0834 6.05562 17.0834 6.26113V6.46663C17.0834 6.63103 17.1245 6.79544 17.1657 6.95984C17.2069 7.04204 17.2069 7.12424 17.2069 7.20644V7.24754C17.2892 7.69965 17.2892 8.15176 17.2892 8.64497C17.248 8.76827 17.2069 8.89157 17.0834 8.97377V9.05597L17.0422 9.38478C16.5894 9.42588 16.1365 9.50808 15.6425 9.59028C13.7076 10.0013 11.9374 11.0288 10.5789 12.4673L10.3319 12.3029H10.2907C10.2495 12.3029 10.2084 12.344 10.126 12.344C10.0437 12.344 9.96137 12.3029 9.87904 12.2618C9.50853 11.9741 9.13802 11.6453 8.84985 11.3165C8.80868 11.2343 8.72635 11.1932 8.68518 11.1521C8.56168 11.0288 8.47934 10.9055 8.35584 10.7822C8.31467 10.7411 8.2735 10.7411 8.23234 10.7C8.19117 10.6589 8.19117 10.6589 8.19117 10.6589C8.0265 10.5356 7.82066 10.4534 7.61482 10.4534C7.36782 10.4534 7.16198 10.5356 7.03848 10.7411C6.79147 11.111 6.87381 11.6042 7.20315 11.8919C7.24431 11.8919 7.24431 11.933 7.24431 11.933C7.24431 11.933 7.32665 12.0152 7.36782 12.0152C7.49132 12.0974 7.65599 12.1796 7.82066 12.2618C7.90299 12.3029 7.98533 12.344 8.06767 12.3851C8.47934 12.6317 8.89102 12.8783 9.22036 13.2071C9.30269 13.2893 9.38503 13.4537 9.34386 13.577V13.5359L9.59087 13.7826C9.5497 13.8648 9.50853 13.9059 9.46736 13.9881C8.19117 16.002 7.65599 18.3858 8.0265 20.7286L7.69716 20.8108C7.69716 20.8519 7.65599 20.8519 7.65599 20.8519C7.61482 20.9752 7.49132 21.0574 7.36782 21.1396C6.91497 21.2629 6.46213 21.3451 5.96812 21.3862C5.88578 21.3862 5.80345 21.3862 5.72111 21.4273C5.55644 21.4273 5.39177 21.4684 5.2271 21.4684C5.18593 21.4684 5.14477 21.5095 5.06243 21.5095C5.02126 21.5095 5.02126 21.5095 4.9801 21.5506C4.52725 21.6328 4.23908 22.0438 4.32141 22.4959C4.40375 22.8658 4.77426 23.1124 5.14477 23.0713C5.2271 23.0713 5.26827 23.0713 5.3506 23.0302C5.39177 23.0302 5.39177 23.0302 5.39177 22.9891C5.39177 22.948 5.51527 22.9891 5.55644 22.9891C5.72111 22.948 5.88578 22.8658 6.00929 22.8247C6.09162 22.7836 6.17396 22.7425 6.25629 22.7425H6.29746C6.7503 22.5781 7.16198 22.4548 7.65599 22.3726H7.69716C7.82066 22.3726 7.94416 22.4137 8.0265 22.4959C8.06767 22.4959 8.06767 22.537 8.06767 22.537L8.43817 22.4959C9.05569 24.3865 10.2084 26.0717 11.8139 27.3047C12.1844 27.5924 12.5138 27.839 12.9254 28.0445L12.7196 28.3322C12.7196 28.3733 12.7608 28.3733 12.7608 28.3733C12.8431 28.4966 12.8431 28.661 12.8019 28.7843C12.6373 29.1953 12.3903 29.6063 12.1433 29.9762V30.0173C12.1021 30.0995 12.0609 30.1406 11.9786 30.2228C11.8963 30.305 11.8139 30.4694 11.6904 30.6338C11.6492 30.6749 11.6492 30.716 11.6081 30.7571C11.6081 30.7571 11.6081 30.7982 11.5669 30.7982C11.3611 31.2092 11.5257 31.7025 11.8963 31.908C11.9786 31.9491 12.1021 31.9902 12.1844 31.9902C12.5138 31.9902 12.8019 31.7847 12.9666 31.497C12.9666 31.497 12.9666 31.4559 13.0078 31.4559C13.0078 31.4147 13.0489 31.3737 13.0901 31.3326C13.1313 31.1681 13.2136 31.0448 13.2548 30.8804L13.3371 30.6338C13.4606 30.1817 13.6665 29.7707 13.8723 29.3597C13.9546 29.2364 14.0781 29.1542 14.2016 29.1131C14.2428 29.1131 14.2428 29.1131 14.2428 29.072L14.4075 28.7432C15.5602 29.1953 16.754 29.4008 17.9891 29.4008C18.7301 29.4008 19.4711 29.3186 20.2121 29.1131C20.6649 29.0309 21.1178 28.8665 21.5295 28.7432L21.6941 29.0309C21.7353 29.0309 21.7353 29.0309 21.7353 29.072C21.8588 29.1131 21.9823 29.1953 22.0646 29.3186C22.2705 29.7296 22.4763 30.1406 22.5998 30.5927V30.6338L22.6822 30.8804C22.7233 31.0448 22.7645 31.2092 22.8468 31.3326C22.888 31.3737 22.888 31.4147 22.9292 31.4559C22.9292 31.4559 22.9292 31.497 22.9703 31.497C23.135 31.7847 23.4232 31.9902 23.7525 31.9902C23.876 31.9902 23.9584 31.9491 24.0819 31.908C24.2465 31.8258 24.4112 31.6614 24.4524 31.4559C24.4935 31.2503 24.4935 31.0448 24.4112 30.8393C24.4112 30.7982 24.37 30.7982 24.37 30.7982C24.37 30.7571 24.3289 30.716 24.2877 30.6749C24.2054 30.5105 24.123 30.3872 23.9995 30.2639C23.9584 30.1817 23.9172 30.1406 23.8348 30.0584V29.9762C23.5467 29.6063 23.3408 29.1953 23.1762 28.7843C23.135 28.661 23.135 28.4966 23.2173 28.3733C23.2173 28.3322 23.2585 28.3322 23.2585 28.3322L23.135 28.0034C25.2345 26.7293 26.8401 24.7564 27.5811 22.4137L27.9104 22.4548C27.9516 22.4548 27.9516 22.4137 27.9516 22.4137C28.0339 22.3315 28.1574 22.2904 28.2809 22.2904H28.3221C28.775 22.3726 29.2278 22.4959 29.6395 22.6603H29.6806C29.763 22.7014 29.8453 22.7425 29.9277 22.7425C30.0923 22.8247 30.2158 22.9069 30.3805 22.948C30.4217 22.948 30.4628 22.9891 30.5452 22.9891C30.5863 22.9891 30.5863 22.9891 30.6275 23.0302C30.7098 23.0713 30.751 23.0713 30.8333 23.0713C31.2038 23.0713 31.5332 22.8247 31.6567 22.4959C31.6155 22.0438 31.2862 21.715 30.9157 21.6328V21.6328ZM19.0182 20.3587L17.9067 20.893L16.7952 20.3587L16.507 19.1667L17.2892 18.1803H18.5242L19.3064 19.1667L19.0182 20.3587V20.3587ZM25.7286 17.6871C25.9344 18.5502 25.9756 19.4133 25.8932 20.2765L21.9823 19.1667C21.6118 19.0845 21.406 18.7146 21.4883 18.3447C21.5295 18.2214 21.5706 18.1392 21.653 18.057L24.7405 15.2622C25.1934 16.002 25.5227 16.824 25.7286 17.6871V17.6871ZM23.5055 13.7415L20.1298 16.1253C19.8416 16.2897 19.4299 16.2486 19.2241 15.9609C19.1417 15.8787 19.1006 15.7965 19.1006 15.6732L18.8536 11.522C20.6649 11.7275 22.2705 12.5084 23.5055 13.7415V13.7415ZM16.0542 11.6453L16.8775 11.4809L16.6717 15.591C16.6717 15.9609 16.3423 16.2486 15.9718 16.2486C15.8483 16.2486 15.766 16.2075 15.6425 16.1664L12.2256 13.7415C13.2959 12.7139 14.6133 11.9741 16.0542 11.6453ZM11.0317 15.2622L14.0781 17.9748C14.3663 18.2214 14.4075 18.6324 14.1605 18.9201C14.0781 19.0434 13.9958 19.0845 13.8311 19.1256L9.83787 20.2765C9.71437 18.5502 10.126 16.7829 11.0317 15.2622V15.2622ZM10.3319 22.2082L14.4075 21.5095C14.7368 21.5095 15.0662 21.715 15.1073 22.0438C15.1485 22.1671 15.1485 22.3315 15.0662 22.4548L13.5018 26.2361C12.0609 25.2907 10.9082 23.8522 10.3319 22.2082V22.2082ZM19.6769 27.3047C19.1006 27.428 18.5242 27.5102 17.9067 27.5102C17.0422 27.5102 16.1365 27.3458 15.3132 27.0992L17.3304 23.4412C17.5362 23.1946 17.8655 23.1124 18.1537 23.2768C18.2772 23.359 18.3596 23.4412 18.4831 23.5645L20.4591 27.1403C20.2121 27.1814 19.9651 27.2225 19.6769 27.3047V27.3047ZM24.6994 23.7289C24.0819 24.7153 23.2173 25.5785 22.2293 26.195L20.6238 22.3315C20.5414 22.0027 20.7061 21.6739 20.9943 21.5506C21.1178 21.5095 21.2413 21.4684 21.3648 21.4684L25.4816 22.1671C25.2757 22.7425 25.0287 23.2768 24.6994 23.7289Z" fill="white" />
</svg>
