<svg viewBox="0 0 49 49" fill="none" xmlns="http://www.w3.org/2000/svg">
  <path fill-rule="evenodd" clip-rule="evenodd" d="M32.705 28.762a1.5 1.5 0 012.002-.702l7.48 3.6c.985.452 2.101 1.326 2.101 2.723 0 1.403-1.127 2.28-2.116 2.729L28.298 43.44c-1.043.474-2.318.675-3.509.675-1.19 0-2.465-.2-3.508-.675L7.407 37.112c-.989-.45-2.117-1.326-2.117-2.73 0-1.403 1.128-2.28 2.117-2.729l.006-.003 7.754-3.479a1.5 1.5 0 111.228 2.737l-7.743 3.475 13.872 6.327c.54.246 1.36.405 2.265.405.904 0 1.724-.16 2.265-.405l13.873-6.327-.027-.013-7.494-3.606a1.5 1.5 0 01-.701-2.002z" fill="#AF5CF8"/>
  <path fill-rule="evenodd" clip-rule="evenodd" d="M32.412 19.175a1.5 1.5 0 011.983-.755l7.776 3.487c.988.448 2.12 1.326 2.116 2.733-.003 1.404-1.135 2.277-2.125 2.726l-.003.001-13.87 6.325c-1.043.476-2.318.677-3.51.677-1.19 0-2.465-.201-3.508-.677L7.398 27.366c-.989-.45-2.117-1.326-2.117-2.73s1.128-2.28 2.117-2.73l.006-.002 7.763-3.484a1.5 1.5 0 111.228 2.737l-7.753 3.48 13.874 6.326c.54.246 1.36.406 2.264.406.904 0 1.724-.16 2.264-.406l13.878-6.329-7.755-3.477a1.5 1.5 0 01-.755-1.982z" fill="#AF5CF8"/>
  <path fill-rule="evenodd" clip-rule="evenodd" d="M6.95 11.683c-1.015.453-2.165 1.703-2.169 3.119 0 1.415 1.158 2.3 2.172 2.753l14.23 6.383c1.07.479 2.377.681 3.599.681 1.22 0 2.53-.203 3.599-.681l14.23-6.383c1.014-.454 2.17-1.337 2.17-2.753 0-1.416-1.159-2.665-2.173-3.119l-14.23-6.381c-1.07-.48-2.377-.683-3.599-.683-1.221 0-2.529.203-3.599.683l-14.226 6.38-.003.001zm20.152-3.628l14.242 6.747-14.24 6.382c-.554.248-1.395.41-2.322.41-.928 0-1.769-.162-2.324-.41L8.23 14.802l14.228-6.747c.554-.248 1.395-.41 2.322-.41.928 0 1.768.162 2.323.41z" fill="#AF5CF8"/>
</svg>
