<svg viewBox="0 0 24 24" fill="none" xmlns="http://www.w3.org/2000/svg">
  <path fill-rule="evenodd" clip-rule="evenodd" d="M6.75 8.62427c-.89511 0-1.75355.35558-2.38649.98851-.63293.63292-.98851 1.49142-.98851 2.38652s.35558 1.7535.98851 2.3864c.63294.633 1.49138.9886 2.38649.9886h2.65593c.62137 0 1.12497.5036 1.12497 1.125 0 .6213-.5036 1.125-1.12497 1.125H6.75c-1.49184 0-2.92258-.5927-3.97748-1.6476C1.71763 14.9218 1.125 13.4911 1.125 11.9993c0-1.4919.59263-2.92262 1.64752-3.97751C3.82742 6.9669 5.25816 6.37427 6.75 6.37427h2.59734c.62132 0 1.12496.50368 1.12496 1.125s-.50364 1.125-1.12496 1.125H6.75zM13.5278 7.49927c0-.62132.5037-1.125 1.125-1.125h2.5974c1.4918 0 2.9226.59263 3.9774 1.64752 1.0549 1.05489 1.6476 2.48561 1.6476 3.97751 0 1.4918-.5927 2.9225-1.6476 3.9774-1.0548 1.0549-2.4856 1.6476-3.9774 1.6476h-2.656c-.6213 0-1.125-.5037-1.125-1.125 0-.6214.5037-1.125 1.125-1.125h2.656c.8951 0 1.7535-.3556 2.3865-.9886.6329-.6329.9885-1.4913.9885-2.3864s-.3556-1.7536-.9885-2.38652c-.633-.63293-1.4914-.98851-2.3865-.98851h-2.5974c-.6213 0-1.125-.50368-1.125-1.125z" fill="#AF5CF8"/>
  <path fill-rule="evenodd" clip-rule="evenodd" d="M6.80029 11.9985c0-.6213.50368-1.125 1.125-1.125h8.24341c.6213 0 1.125.5037 1.125 1.125 0 .6214-.5037 1.125-1.125 1.125H7.92529c-.62132 0-1.125-.5036-1.125-1.125z" fill="#AF5CF8"/>
</svg>
