<svg viewBox="0 0 49 48" fill="none" xmlns="http://www.w3.org/2000/svg">
  <path fill-rule="evenodd" clip-rule="evenodd" d="M29.72 1.499a3.828 3.828 0 012.715 1.135l.003.003 10.23 10.404a3.856 3.856 0 011.112 2.74v16.093c0 3.068-2.42 5.625-5.526 5.625H33.28v3.375c0 3.068-2.42 5.625-5.526 5.625H10.31c-3.11 0-5.53-2.556-5.53-5.625V16.115a5.65 5.65 0 015.615-5.616H15.28V7.115A5.65 5.65 0 0120.896 1.5h8.824zm-1.69 3h-7.12a2.65 2.65 0 00-2.63 2.63v3.37h.951a3.803 3.803 0 012.708 1.139l10.235 10.409c.71.725 1.107 1.7 1.106 2.714V34.5h4.974c1.374 0 2.526-1.137 2.526-2.625V17.249h-8.642a4.157 4.157 0 01-4.107-4.107V4.499zm11.619 9.75h-7.483a1.157 1.157 0 01-1.135-1.136V5.485l8.618 8.764zm-22.119-.75h-7.12a2.65 2.65 0 00-2.63 2.63v24.745c0 1.487 1.151 2.625 2.532 2.625h17.442c1.374 0 2.526-1.137 2.526-2.625V26.249h-8.643a4.157 4.157 0 01-4.107-4.107v-8.643zm11.619 9.75h-7.483a1.157 1.157 0 01-1.136-1.136v-7.629l8.619 8.765z" fill="#AF5CF8"/>
</svg>
