<svg viewBox="0 0 40 40" fill="none" xmlns="http://www.w3.org/2000/svg">
  <path fill-rule="evenodd" clip-rule="evenodd" d="M20 3.75024c-8.9716 0-16.25 7.27836-16.25 16.24996 0 8.9716 7.2784 16.25 16.25 16.25 8.9716 0 16.25-7.2784 16.25-16.25 0-8.9716-7.2784-16.24996-16.25-16.24996zM6.25 20.0002c0-7.5909 6.1591-13.74996 13.75-13.74996S33.75 12.4093 33.75 20.0002c0 7.5909-6.1591 13.75-13.75 13.75s-13.75-6.1591-13.75-13.75z" fill="#C98BFF"/>
  <path d="M19.2266 10.8702c.4271-.4272 1.1197-.4272 1.5468 0l3.125 3.125c.4271.4271.4271 1.1196 0 1.5468l-3.125 3.125c-.4271.4271-1.1197.4271-1.5468 0-.4271-.4272-.4271-1.1197 0-1.5468l1.4106-1.4106c-.1905-.004-.4022-.0063-.6372-.0063-1.0198 0-2.0167.3024-2.8647.869-.8479.5666-1.5088 1.3719-1.8991 2.314-.3902.9422-.4923 1.979-.2934 2.9792.199 1.0002.6901 1.919 1.4112 2.6401.7211.7211 1.6399 1.2122 2.6401 1.4111 1.0002.199 2.0369.0969 2.9791-.2934.9422-.3903 1.7475-1.0511 2.3141-1.8991.5665-.8479.8689-1.8448.8689-2.8646 0-.6041.4897-1.0938 1.0938-1.0938.6041 0 1.0938.4897 1.0938 1.0938 0 1.4524-.4308 2.8723-1.2377 4.0799-.8069 1.2077-1.9539 2.149-3.2958 2.7048-1.3419.5558-2.8184.7013-4.243.4179-1.4245-.2834-2.7331-.9828-3.7601-2.0098-1.0271-1.0271-1.7265-2.3356-2.0098-3.7601-.2834-1.4246-.138-2.9012.4179-4.2431.5558-1.3419 1.4971-2.4888 2.7047-3.2957 1.2077-.807 2.6275-1.2377 4.08-1.2377.113 0 .2219.0005.3269.0015l-1.1003-1.1003c-.4271-.4272-.4271-1.1197 0-1.5468z" fill="#552C78"/>
</svg>
