<svg viewBox="0 0 25 26" fill="none" xmlns="http://www.w3.org/2000/svg">
<path d="M12.5001 22.782C6.90002 22.782 2.34387 18.2259 2.34387 12.6258C2.34387 7.02569 6.90002 2.46954 12.5001 2.46954C18.1002 2.46954 22.6564 7.02569 22.6564 12.6258C22.6564 18.2259 18.1002 22.782 12.5001 22.782Z" fill="#FA7360"/>
<path d="M12.4994 18.1392C14.6769 18.1392 16.2629 16.8913 16.2579 15.1712C16.2629 13.8984 15.4674 12.9837 14.0406 12.7798V12.7003C15.1443 12.4616 15.885 11.6413 15.8801 10.4979C15.885 8.94673 14.5626 7.67898 12.5292 7.67898C10.5505 7.67898 9.01926 8.85724 8.97949 10.5625H10.7544C10.7842 9.70739 11.5796 9.17543 12.5193 9.17543C13.4688 9.17543 14.1002 9.75213 14.0953 10.6072C14.1002 11.4972 13.3644 12.0888 12.3105 12.0888H11.4106V13.5107H12.3105C13.5981 13.5107 14.3637 14.157 14.3588 15.0767C14.3637 15.9766 13.5832 16.593 12.4944 16.593C11.4703 16.593 10.6798 16.0611 10.635 15.2308H8.76571C8.81543 16.951 10.3517 18.1392 12.4994 18.1392Z" fill="white"/>
</svg>
