<svg width="41" height="40" viewBox="0 0 41 40" fill="none" xmlns="http://www.w3.org/2000/svg">
<path d="M20.3835 29.2287C23.6261 29.2287 26.0355 27.195 26.0355 24.4588C26.0355 22.3352 24.7777 20.7915 22.6705 20.4403V20.3097C24.3611 19.7951 25.4148 18.4066 25.4148 16.5199C25.4148 14.1513 23.5444 12.044 20.4489 12.044C17.5575 12.044 15.1562 13.8246 15.0582 16.4545H17.0185C17.092 14.7884 18.6765 13.8082 20.4162 13.8082C22.2621 13.8082 23.4545 14.9272 23.4545 16.6179C23.4545 18.3821 22.0742 19.5256 20.0895 19.5256H18.75V21.3224H20.0895C22.6296 21.3224 24.0426 22.6129 24.0426 24.4588C24.0426 26.2312 22.4989 27.4318 20.3509 27.4318C18.4151 27.4318 16.8796 26.4354 16.7571 24.8182H14.6989C14.8214 27.4482 17.141 29.2287 20.3835 29.2287Z" fill="#F24E1E"/>
<rect x="1.25" y="0.75" width="38.5" height="38.5" rx="19.25" stroke="url(#paint0_linear)" stroke-width="1.5"/>
<defs>
<linearGradient id="paint0_linear" x1="0.49999" y1="20.0024" x2="40.4993" y2="20.1637" gradientUnits="userSpaceOnUse">
<stop stop-color="#599CFF"/>
<stop offset="0.102704" stop-color="#0066FF"/>
<stop offset="0.200372" stop-color="#C98BFF"/>
<stop offset="0.314609" stop-color="#AF5CF8"/>
<stop offset="0.323266" stop-color="#F8C369"/>
<stop offset="0.445853" stop-color="#F5A623"/>
<stop offset="0.539144" stop-color="#9EF0B7"/>
<stop offset="0.658913" stop-color="#50FF8F"/>
<stop offset="1" stop-color="#00C05B"/>
</linearGradient>
</defs>
</svg>
