<svg viewBox="0 0 49 48" fill="none" xmlns="http://www.w3.org/2000/svg">
  <path fill-rule="evenodd" clip-rule="evenodd" d="M3.28 1.5A1.5 1.5 0 014.78 3v40.5h40.5a1.5 1.5 0 010 3H4.78a3 3 0 01-3-3V3a1.5 1.5 0 011.5-1.5z" fill="#00C05B"/>
  <path fill-rule="evenodd" clip-rule="evenodd" d="M11.155 22.5a.375.375 0 00-.374.376v14.25c0 .207.167.375.374.375h3.75a.375.375 0 00.376-.375v-14.25a.375.375 0 00-.376-.375h-3.75zm-3.374.376a3.375 3.375 0 013.375-3.375h3.75a3.375 3.375 0 013.374 3.375v14.25a3.375 3.375 0 01-3.375 3.375h-3.75a3.375 3.375 0 01-3.374-3.375v-14.25zM24.655 18a.375.375 0 00-.375.375v18.75c0 .208.168.375.375.375h3.75a.375.375 0 00.375-.375v-18.75a.375.375 0 00-.375-.375h-3.75zm-3.375.375A3.375 3.375 0 0124.655 15h3.75a3.375 3.375 0 013.375 3.375v18.75a3.375 3.375 0 01-3.375 3.375h-3.75a3.375 3.375 0 01-3.375-3.375v-18.75zM38.122 12a.375.375 0 00-.375.375v24.75c0 .207.167.375.375.375h3.75a.375.375 0 00.375-.375v-24.75a.375.375 0 00-.375-.375h-3.75zm-3.375.375A3.375 3.375 0 0138.122 9h3.75a3.375 3.375 0 013.375 3.375v24.75a3.375 3.375 0 01-3.375 3.375h-3.75a3.375 3.375 0 01-3.375-3.375v-24.75z" fill="#00C05B"/>
</svg>
