<svg width="55" height="56" viewBox="0 0 55 56" fill="none" xmlns="http://www.w3.org/2000/svg">
<path d="M54.2001 31.1992C54.2001 17.8664 43.3829 7.04919 30.0501 7.04919C16.7173 7.04919 5.90015 17.8664 5.90015 31.1992C5.90015 44.532 16.7173 55.3492 30.0501 55.3492C43.3829 55.3492 54.2001 44.532 54.2001 31.1992Z" fill="#FDECEA"/>
<path d="M19.75 17.2647H19.75L19.75 17.2589C19.7496 17.1957 19.7661 17.1336 19.7976 17.0789C19.8292 17.0242 19.8747 16.9789 19.9296 16.9476C19.9844 16.9164 20.0466 16.9002 20.1097 16.9009C20.1724 16.9016 20.2339 16.9188 20.2878 16.9508C20.2881 16.9511 20.2885 16.9513 20.2888 16.9515L34.6781 25.6442C34.6785 25.6444 34.6789 25.6446 34.6792 25.6448C34.7329 25.6778 34.7773 25.7239 34.8081 25.7788C34.8392 25.8341 34.8555 25.8965 34.8555 25.9599C34.8555 26.0234 34.8392 26.0857 34.8081 26.141C34.7773 26.1959 34.7329 26.242 34.6793 26.275C34.6789 26.2752 34.6785 26.2755 34.6781 26.2757L20.2888 34.9684C20.2885 34.9686 20.2881 34.9688 20.2877 34.969C20.2338 35.0011 20.1724 35.0183 20.1097 35.0189C20.0466 35.0196 19.9844 35.0035 19.9296 34.9722L19.4341 35.8408L19.9296 34.9722C19.8747 34.9409 19.8292 34.8956 19.7976 34.8409C19.7661 34.7862 19.7496 34.7241 19.75 34.661H19.75V34.6552V17.2647Z" stroke="#DB210F" stroke-width="2"/>
<path fill-rule="evenodd" clip-rule="evenodd" d="M0.5 26.0509C0.5 12.0277 11.8768 0.650879 25.9 0.650879C33.2479 0.650879 39.8701 3.77596 44.5071 8.76474C44.5777 8.84069 44.6878 8.86518 44.784 8.82628C44.8801 8.78739 44.9422 8.69319 44.9401 8.58951L44.8178 2.50915C44.8081 2.02599 45.1919 1.62644 45.675 1.61672C46.1582 1.607 46.5577 1.9908 46.5675 2.47395L46.7595 12.018C46.7692 12.5011 46.3854 12.9007 45.9022 12.9104L36.3582 13.1024C35.8751 13.1121 35.4755 12.7283 35.4658 12.2452C35.4561 11.762 35.8399 11.3625 36.323 11.3527L42.8075 11.2223C42.9081 11.2203 42.9977 11.1581 43.0349 11.0646C43.072 10.9711 43.0494 10.8644 42.9776 10.7939C42.9591 10.7757 42.941 10.7568 42.9233 10.7372C38.7289 6.07811 32.6554 3.15088 25.9 3.15088C13.2575 3.15088 3 13.4084 3 26.0509C3 38.6933 13.2575 48.9509 25.9 48.9509C38.5424 48.9509 48.8 38.6933 48.8 26.0509C48.8 25.3605 49.3596 24.8009 50.05 24.8009C50.7403 24.8009 51.3 25.3605 51.3 26.0509C51.3 40.074 39.9231 51.4509 25.9 51.4509C11.8768 51.4509 0.5 40.074 0.5 26.0509Z" fill="#E24D3F"/>
<path opacity="0.2" d="M23.3033 38.7935L35.8043 31.1296C35.9786 31.0219 36.1226 30.8705 36.2225 30.69C36.3224 30.5094 36.3749 30.3058 36.3749 30.0988C36.3749 29.8917 36.3224 29.6881 36.2225 29.5076C36.1226 29.3271 35.9786 29.1756 35.8043 29.0679L23.3033 21.4041C23.1242 21.2951 22.9196 21.2365 22.7108 21.2343C22.5019 21.232 22.2962 21.2862 22.1148 21.3912C21.9333 21.4962 21.7827 21.6484 21.6783 21.832C21.5739 22.0156 21.5196 22.2241 21.5208 22.436V37.7615C21.5196 37.9735 21.5739 38.182 21.6783 38.3656C21.7827 38.5492 21.9333 38.7013 22.1148 38.8064C22.2962 38.9114 22.5019 38.9656 22.7108 38.9633C22.9196 38.961 23.1242 38.9024 23.3033 38.7935Z" fill="#DB210F"/>
</svg>
