<svg width="24" height="24" viewBox="0 0 24 24" xmlns="http://www.w3.org/2000/svg">
<path d="M7.5 13.5005C8.32843 13.5005 9 12.8289 9 12.0005C9 11.1721 8.32843 10.5005 7.5 10.5005C6.67157 10.5005 6 11.1721 6 12.0005C6 12.8289 6.67157 13.5005 7.5 13.5005Z" />
<path d="M12 13.5005C12.8284 13.5005 13.5 12.8289 13.5 12.0005C13.5 11.1721 12.8284 10.5005 12 10.5005C11.1716 10.5005 10.5 11.1721 10.5 12.0005C10.5 12.8289 11.1716 13.5005 12 13.5005Z" />
<path d="M18 12.0005C18 12.8289 17.3284 13.5005 16.5 13.5005C15.6716 13.5005 15 12.8289 15 12.0005C15 11.1721 15.6716 10.5005 16.5 10.5005C17.3284 10.5005 18 11.1721 18 12.0005Z" />
<path fill-rule="evenodd" clip-rule="evenodd" d="M12 3.00024C7.00209 3.00024 2.98498 6.95039 3.00004 11.7795L3.00005 11.7818C2.99999 13.4617 3.49098 15.1047 4.4124 16.509C4.57445 16.7303 4.70693 16.9781 4.78914 17.2399C4.84444 17.416 4.90814 17.703 4.8249 18.0094L4.82403 18.0126L4.04982 20.8131L6.72866 19.8463C6.99543 19.7365 7.28133 19.6806 7.56992 19.6816C7.83918 19.6822 8.10607 19.732 8.35742 19.8286L8.3585 19.829C9.56122 20.2935 10.7032 20.6449 12 20.6449C16.973 20.6449 20.9999 16.643 21 11.78C20.9982 6.96408 16.7939 3.00024 12 3.00024ZM1.50005 11.783C1.48295 6.08915 6.2077 1.50024 12 1.50024C17.6339 1.50024 22.4981 6.12872 22.5 11.78C22.5 17.4553 17.8176 22.1449 12 22.1449C10.518 22.1449 9.19454 21.7596 7.81907 21.2287C7.73837 21.1977 7.65268 21.1817 7.56623 21.1816L7.56422 21.1816C7.47098 21.1813 7.37863 21.1998 7.29277 21.2362L7.27406 21.2441L4.09312 22.3921C4.11885 22.3816 4.11876 22.3813 4.09312 22.3921C3.96107 22.4463 3.82191 22.4813 3.67987 22.4962L3.63987 22.5004L3.59966 22.5002C3.4409 22.4998 3.28382 22.4678 3.13751 22.4062C2.9912 22.3445 2.85858 22.2545 2.74731 22.1413C2.63605 22.028 2.54836 21.8938 2.48933 21.7465C2.386 21.4885 2.38371 21.1936 2.46193 20.9278L3.35756 17.6878C3.35756 17.6331 3.30994 17.568 3.26844 17.4947C3.27294 17.5021 3.25968 17.4792 3.26844 17.4947C2.19696 15.7209 1.50022 13.887 1.50005 11.783Z" />
</svg>
