<svg viewBox="0 0 32 32" fill="none" xmlns="http://www.w3.org/2000/svg">
  <path d="M12.473 9.406a7.46 7.46 0 018.886 1.44l.018.02.288.335.918-.918a.527.527 0 01.375-.158l.001-.002a.54.54 0 01.543.54v3.722a.539.539 0 01-.539.539h-3.721a.538.538 0 01-.38-.92l1.385-1.385-.352-.41a5.461 5.461 0 101.217 5.61 1 1 0 011.886.666 7.46 7.46 0 11-10.525-9.08z" fill="#DB210F"/>
  <path fill-rule="evenodd" clip-rule="evenodd" d="M3 16C3 8.823 8.823 3 16 3s13 5.823 13 13-5.823 13-13 13S3 23.177 3 16zM16 5C9.927 5 5 9.927 5 16s4.927 11 11 11 11-4.927 11-11S22.073 5 16 5z" fill="#DB210F"/>
</svg>
