<svg width="55" height="55" viewBox="0 0 55 55" fill="none" xmlns="http://www.w3.org/2000/svg">
<path d="M54.5141 30.5483C54.5141 17.2155 43.6969 6.39832 30.3641 6.39832C17.0313 6.39832 6.21411 17.2155 6.21411 30.5483C6.21411 43.8811 17.0313 54.6983 30.3641 54.6983C43.6969 54.6983 54.5141 43.8811 54.5141 30.5483Z" fill="#FDECEA"/>
<path d="M20.064 16.6138H20.064L20.064 16.608C20.0636 16.5448 20.08 16.4827 20.1116 16.428C20.1431 16.3733 20.1887 16.328 20.2435 16.2968C20.2984 16.2655 20.3605 16.2493 20.4237 16.25C20.4864 16.2507 20.5478 16.2679 20.6017 16.2999C20.6021 16.3002 20.6024 16.3004 20.6028 16.3006L34.9921 24.9933C34.9925 24.9935 34.9928 24.9937 34.9932 24.9939C35.0469 25.0269 35.0913 25.073 35.1221 25.1279C35.1532 25.1832 35.1695 25.2456 35.1695 25.309C35.1695 25.3725 35.1532 25.4348 35.1221 25.4901C35.0913 25.545 35.0469 25.5911 34.9932 25.6241C34.9929 25.6243 34.9925 25.6246 34.9921 25.6248L20.6028 34.3175C20.6024 34.3177 20.602 34.3179 20.6017 34.3182C20.5478 34.3502 20.4864 34.3674 20.4237 34.3681C20.3605 34.3687 20.2984 34.3526 20.2435 34.3213L19.748 35.1899L20.2435 34.3213C20.1887 34.29 20.1431 34.2447 20.1116 34.19C20.08 34.1353 20.0636 34.0732 20.064 34.0101H20.064V34.0043V16.6138Z" stroke="#DB210F" stroke-width="2"/>
<path fill-rule="evenodd" clip-rule="evenodd" d="M0.813965 25.4C0.813965 11.3768 12.1908 0 26.214 0C33.5618 0 40.1841 3.12508 44.821 8.11386C44.8916 8.18981 45.0018 8.2143 45.0979 8.17541C45.1941 8.13651 45.2562 8.04231 45.2541 7.93863L45.1318 1.85827C45.1221 1.37512 45.5059 0.975565 45.989 0.965845C46.4722 0.956125 46.8717 1.33992 46.8814 1.82307L47.0734 11.3671C47.0832 11.8502 46.6994 12.2498 46.2162 12.2595L36.6722 12.4515C36.1891 12.4612 35.7895 12.0774 35.7798 11.5943C35.7701 11.1111 36.1539 10.7116 36.637 10.7019L43.1215 10.5714C43.2221 10.5694 43.3117 10.5072 43.3488 10.4137C43.386 10.3202 43.3634 10.2135 43.2916 10.143C43.2731 10.1249 43.255 10.106 43.2373 10.0863C39.0429 5.42723 32.9694 2.5 26.214 2.5C13.5715 2.5 3.31396 12.7575 3.31396 25.4C3.31396 38.0424 13.5715 48.3 26.214 48.3C38.8564 48.3 49.1139 38.0424 49.1139 25.4C49.1139 24.7096 49.6736 24.15 50.3639 24.15C51.0543 24.15 51.6139 24.7096 51.6139 25.4C51.6139 39.4231 40.2371 50.8 26.214 50.8C12.1908 50.8 0.813965 39.4231 0.813965 25.4Z" fill="#E24D3F"/>
<path opacity="0.2" d="M23.6173 38.1426L36.1183 30.4788C36.2925 30.371 36.4365 30.2196 36.5365 30.0391C36.6364 29.8586 36.6889 29.655 36.6889 29.4479C36.6889 29.2408 36.6364 29.0373 36.5365 28.8567C36.4365 28.6762 36.2925 28.5248 36.1183 28.417L23.6173 20.7532C23.4381 20.6443 23.2336 20.5857 23.0247 20.5834C22.8159 20.5811 22.6102 20.6353 22.4287 20.7403C22.2473 20.8454 22.0967 20.9975 21.9923 21.1811C21.8879 21.3647 21.8335 21.5732 21.8347 21.7852V37.1106C21.8335 37.3226 21.8879 37.5311 21.9923 37.7147C22.0967 37.8983 22.2473 38.0504 22.4287 38.1555C22.6102 38.2605 22.8159 38.3147 23.0247 38.3124C23.2336 38.3102 23.4381 38.2516 23.6173 38.1426Z" fill="#DB210F"/>
</svg>
