<svg viewBox="0 0 36 36" fill="none" xmlns="http://www.w3.org/2000/svg">
  <defs/>
  <path opacity=".2" d="M33.064 7.403v-.005a1.324 1.324 0 00-.982-.994c-1.934-.471-4.977.032-8.348 1.382-3.399 1.363-6.583 3.375-8.735 5.53-.69.687-1.33 1.42-1.918 2.196-1.45-.065-2.726.142-3.801.611-3.748 1.65-4.818 5.87-5.103 7.603a1.623 1.623 0 001.765 1.882h.008l4.175-.455.015.146c.054.509.28.984.643 1.345l2.037 2.039c.361.362.836.59 1.344.643l.14.015-.454 4.17v.008a1.621 1.621 0 001.866 1.767c1.743-.28 5.962-1.338 7.606-5.105.466-1.069.671-2.34.614-3.787a20.428 20.428 0 002.203-1.918c2.17-2.158 4.188-5.317 5.537-8.666 1.343-3.333 1.849-6.399 1.388-8.407z" fill="#50FF8F"/>
  <path opacity=".2" d="M12.586 29.235a1.038 1.038 0 00-.714.173 63.41 63.41 0 01-1.252.838c-.851.553-1.869-.418-1.363-1.298l.788-1.363a1.038 1.038 0 00-.984-1.617c-.875.11-1.688.51-2.312 1.133-.238.238-.96.961-1.349 3.716-.11.792-.18 1.588-.209 2.387a1.038 1.038 0 001.039 1.065h.026a23.35 23.35 0 002.388-.208c2.757-.39 3.48-1.112 3.717-1.35a3.926 3.926 0 001.129-2.32 1.04 1.04 0 00-.904-1.156z" fill="#50FF8F"/>
  <path fill-rule="evenodd" clip-rule="evenodd" d="M26.886.915C28.28.668 29.614.613 30.697.878a1.324 1.324 0 01.982 1.004c.254 1.115.201 2.46-.047 3.863-.251 1.421-.715 2.973-1.343 4.531-1.251 3.105-3.194 6.33-5.534 8.658a20.11 20.11 0 01-2.206 1.918c.051 1.274-.094 2.593-.613 3.785-.842 1.924-2.358 3.134-3.819 3.884-1.456.749-2.92 1.076-3.788 1.215a1.624 1.624 0 01-1.872-1.765v-.009l.458-4.168c-.046-.004.046.005 0 0-.51-.052-1.124-.294-1.485-.658l.002.001-.005-.004L9.4 21.104l-.005-.004.002.002c-.364-.36-.592-.997-.645-1.507l-4.194.474a1.622 1.622 0 01-1.767-1.875v-.002c.143-.866.472-2.327 1.221-3.782.752-1.459 1.96-2.974 3.883-3.82h.003c1.192-.52 2.518-.666 3.8-.61a20.174 20.174 0 011.916-2.198l-.001.002.003-.003-.002.001c2.335-2.333 5.61-4.274 8.734-5.524 1.569-.628 3.126-1.092 4.539-1.343zm-3.767 3.271c-2.94 1.176-5.952 2.981-8.039 5.067l-.003.002a18.094 18.094 0 00-2.03 2.4 1.038 1.038 0 01-.942.434c-1.264-.114-2.434-.007-3.376.404-1.353.595-2.26 1.682-2.871 2.868-.47.914-.746 1.85-.904 2.575l4.646-.51a1.039 1.039 0 011.152 1.023c.003.365.025.73.066 1.093l2.086 2.131a.14.14 0 00.086.04l.011.002c.358.04.717.061 1.076.065a1.039 1.039 0 011.022 1.152l-.51 4.643c.725-.156 1.664-.43 2.58-.901 1.186-.61 2.272-1.516 2.863-2.868.412-.945.519-2.11.41-3.37a1.038 1.038 0 01.437-.937 18.04 18.04 0 002.405-2.031l.004-.005c2.097-2.085 3.901-5.052 5.075-7.963.584-1.45 1.002-2.863 1.224-4.117.18-1.016.222-1.885.145-2.569-.645-.073-1.484-.031-2.483.146-1.247.221-2.666.64-4.13 1.226zM22.035 8.79a1.733 1.733 0 100 3.466 1.733 1.733 0 000-3.466zm-2.694 4.426a3.81 3.81 0 115.388-5.386 3.81 3.81 0 01-5.388 5.386z" fill="#00C05B"/>
  <path fill-rule="evenodd" clip-rule="evenodd" d="M8.838 21.335c.07.57-.335 1.087-.904 1.157-.417.052-.805.24-1.103.538l.002-.002c-.1.1-.261.376-.42.898-.15.487-.261 1.067-.342 1.643-.05.359-.088.706-.116 1.013.308-.027.655-.065 1.014-.115a11.118 11.118 0 001.643-.342c.522-.16.797-.321.896-.42l.001-.002c.297-.296.486-.683.536-1.1a1.038 1.038 0 012.062.248 3.941 3.941 0 01-1.132 2.324c-.473.472-1.158.753-1.755.936-.632.193-1.33.323-1.96.412a23.372 23.372 0 01-2.383.207l-1.07-1.07s.022-.502.037-.72c.03-.433.08-1.026.17-1.661.09-.63.22-1.328.412-1.96.183-.598.464-1.283.936-1.757l.002-.002a3.963 3.963 0 012.317-1.13c.57-.07 1.087.336 1.157.905zm-5.03 6.326a1.05 1.05 0 00.303.766c.201.2.482.31.766.303l-1.07-1.07z" fill="#DB210F"/>
</svg>
