<svg viewBox="0 0 24 24" fill="none" xmlns="http://www.w3.org/2000/svg">
  <path fill-rule="evenodd" clip-rule="evenodd" d="M13.5084 1.90695C13.0505 1.64042 12.5302 1.5 12.0005 1.5c-.5298 0-1.0501.14041-1.5079.40692L3.36586 6.05363c-.33949.19814-.62115.48175-.81693.82261-.19577.34085-.29884.72722-.29893 1.1203v8.00696c.00009.393.10316.7794.29893 1.1203.19578.3408.47744.6244.81693.8226l7.12674 4.1467c.4578.2665.9781.4069 1.5079.4069.5297 0 1.05-.1404 1.5079-.4069l7.1257-4.1467c.3395-.1982.6206-.4813.8164-.8221.196-.3409.2993-.7272.2995-1.1204V7.99609c-.0002-.39321-.1035-.7795-.2995-1.12037-.1958-.34085-.4769-.62395-.8164-.82209l-7.1257-4.14668zM3.75 8.39338v7.60992c.00006.131.03441.2598.09964.3734.06517.1134.15887.2078.27181.2739l7.12575 4.1461.0027.0016v-7.9932L3.75 8.39338zm8.9999 12.40502l.0029-.0017 7.1251-4.1463c.1131-.066.207-.1604.2722-.2739.0653-.1135.0997-.2426.0999-.3735V8.39338l-7.5001 4.41182v7.9932zm6.7199-13.68629l-6.717-3.90881c-.2001-.1165-.5224-.18805-.7523-.2033-.209.02234-.5707.09698-.7533.2033L4.52981 7.11182 12 11.506l7.4698-4.39389z" fill="#F5A623"/>
</svg>
