<svg width="52" height="54" viewBox="0 0 52 54" fill="none" xmlns="http://www.w3.org/2000/svg">
<rect opacity="0.3" x="9" y="7.99243" width="43" height="46" rx="8" fill="#C98BFF"/>
<path fill-rule="evenodd" clip-rule="evenodd" d="M7.2574 3.23462L7.25272 3.23463C6.18557 3.23773 5.16302 3.66303 4.40843 4.41762C3.65384 5.17221 3.22854 6.19476 3.22544 7.26191L3.22543 7.26659V42.7479L3.22544 42.7527C3.2299 44.2471 3.82554 45.6791 4.88227 46.7358C5.93899 47.7925 7.37094 48.3882 8.86537 48.3926L8.87018 48.3926H41.9323V48.3892C43.6432 48.3892 45.284 47.7095 46.4938 46.4997C47.7037 45.2899 48.3833 43.649 48.3833 41.9381V15.3271C48.3833 14.2578 47.9585 13.2322 47.2024 12.4761C46.4463 11.7199 45.4207 11.2951 44.3514 11.2951H38.7067V7.26659L38.7067 7.26191C38.7036 6.19476 38.2783 5.17221 37.5237 4.41762C36.7691 3.66303 35.7466 3.23773 34.6794 3.23463L7.2574 3.23462ZM38.7067 41.9274L38.7067 14.5207H44.3514C44.5652 14.5207 44.7703 14.6057 44.9216 14.7569C45.0728 14.9081 45.1578 15.1132 45.1578 15.3271V41.9381C45.1578 42.7936 44.8179 43.614 44.213 44.2189C43.6081 44.8238 42.7877 45.1637 41.9322 45.1637C41.0767 45.1637 40.2563 44.8238 39.6514 44.2189C39.0465 43.614 38.7066 42.7936 38.7066 41.9381L38.7067 41.9274ZM35.4812 12.8885V7.26929C35.48 7.05508 35.3944 6.84995 35.2429 6.69844C35.0913 6.54687 34.8861 6.46127 34.6718 6.4602H7.26037C7.04607 6.46127 6.84082 6.54687 6.68925 6.69844C6.53768 6.85001 6.45208 7.05526 6.45101 7.26956V42.7452C6.45348 43.3867 6.70941 44.0013 7.16309 44.455C7.61671 44.9086 8.2312 45.1645 8.87264 45.1671H36.3473C35.7847 44.1939 35.481 43.0816 35.481 41.9381V12.9079C35.481 12.9014 35.4811 12.895 35.4812 12.8885Z" fill="#AF5CF8"/>
<path d="M11.2894 20.9721H17.7405C18.1682 20.9721 18.5785 20.8022 18.8809 20.4998C19.1834 20.1973 19.3533 19.7871 19.3533 19.3593V12.9082C19.3533 12.4805 19.1834 12.0702 18.8809 11.7678C18.5785 11.4653 18.1682 11.2954 17.7405 11.2954H11.2894C10.8616 11.2954 10.4514 11.4653 10.1489 11.7678C9.84649 12.0702 9.67657 12.4805 9.67657 12.9082V19.3593C9.67657 19.7871 9.84649 20.1973 10.1489 20.4998C10.4514 20.8022 10.8616 20.9721 11.2894 20.9721Z" fill="#552C78"/>
<path d="M22.5789 12.9085C22.5789 12.0177 23.3009 11.2957 24.1917 11.2957H30.6428C31.5335 11.2957 32.2556 12.0177 32.2556 12.9085C32.2556 13.7992 31.5335 14.5212 30.6428 14.5212H24.1917C23.3009 14.5212 22.5789 13.7992 22.5789 12.9085Z" fill="#552C78"/>
<path d="M22.5789 19.3622C22.5789 18.4715 23.3009 17.7494 24.1917 17.7494H30.6428C31.5335 17.7494 32.2556 18.4715 32.2556 19.3622C32.2556 20.2529 31.5335 20.975 30.6428 20.975H24.1917C23.3009 20.975 22.5789 20.2529 22.5789 19.3622Z" fill="#552C78"/>
<path d="M9.67657 25.8136C9.67657 24.9229 10.3986 24.2009 11.2894 24.2009H30.6428C31.5335 24.2009 32.2556 24.9229 32.2556 25.8136C32.2556 26.7044 31.5335 27.4264 30.6428 27.4264H11.2894C10.3986 27.4264 9.67657 26.7044 9.67657 25.8136Z" fill="#552C78"/>
<path d="M9.67657 32.2611C9.67657 31.3704 10.3986 30.6483 11.2894 30.6483H20.9661H30.6428C31.5335 30.6483 32.2556 31.3704 32.2556 32.2611C32.2556 33.1518 31.5335 33.8739 30.6428 33.8739H11.2894C10.3986 33.8739 9.67657 33.1518 9.67657 32.2611Z" fill="#552C78"/>
<path d="M9.67657 38.7107C9.67657 37.82 10.3986 37.0979 11.2894 37.0979H30.6428C31.5335 37.0979 32.2556 37.82 32.2556 38.7107C32.2556 39.6014 31.5335 40.3235 30.6428 40.3235H11.2894C10.3986 40.3235 9.67657 39.6014 9.67657 38.7107Z" fill="#552C78"/>
</svg>
