<svg viewBox="0 0 49 49" fill="none" xmlns="http://www.w3.org/2000/svg">
  <mask id="a" fill="#fff">
    <path fill-rule="evenodd" clip-rule="evenodd" d="M8.297 22.884c-.037.422-.06.856-.06 1.298 0 .443.023 1.313.06 1.736v.016L4.72 28.74l-.03.025a2.513 2.513 0 00-.571 3.196l.001.002 4.008 6.934.009.016a2.513 2.513 0 003.055 1.065l4.235-1.704c.703.49 1.444.925 2.216 1.298l.008.003.002.002.001.003.63 4.478a2.541 2.541 0 002.462 2.123h8.076a2.54 2.54 0 002.455-2.15l.631-4.49a16.913 16.913 0 002.212-1.288l.008-.005.003-.001h.005l4.204 1.693.027.011a2.514 2.514 0 003.056-1.067l4.017-6.95a2.513 2.513 0 00-.57-3.197l-.032-.025-3.58-2.808c.037-.424.057-1.297.06-1.723v-.01a15.954 15.954 0 00-.06-1.276l3.58-2.807.032-.026a2.514 2.514 0 00.57-3.196l-4.017-6.95a2.514 2.514 0 00-3.056-1.068l-.027.011-4.204 1.693h-.008l-.008-.006a16.91 16.91 0 00-2.212-1.288l-.63-4.489a2.539 2.539 0 00-2.455-2.15h-8.078a2.542 2.542 0 00-2.461 2.122l-.63 4.478v.003l-.003.002-.008.004c-.772.373-1.513.807-2.216 1.298l-4.235-1.705a2.514 2.514 0 00-3.055 1.065l-.01.016-4.007 6.934-.001.002a2.513 2.513 0 00.571 3.197l.03.024 3.576 2.808.001.001v.015zm30.02 1.298a12.966 12.966 0 00-.128-1.738 1.5 1.5 0 01.56-1.392l3.884-3.046-3.582-6.198-3.8 1.53-.005.002a3.01 3.01 0 01-2.83-.324 13.924 13.924 0 00-1.82-1.06 3 3 0 01-1.659-2.28l-.57-4.057H21.19l-.566 4.024v.005a3.007 3.007 0 01-1.68 2.284c-.628.303-1.23.656-1.801 1.056l-.003.001a3 3 0 01-2.833.32l-3.8-1.528-3.581 6.197 3.229 2.535.006.005a3.003 3.003 0 011.124 2.629c-.03.355-.048.699-.048 1.035 0 .336.018 1.117.048 1.473a3.004 3.004 0 01-1.124 2.628l-.006.005-3.23 2.536 3.583 6.197 3.799-1.53a3 3 0 012.833.321l.003.002c.571.4 1.173.752 1.801 1.055a3.007 3.007 0 011.68 2.285v.005l.566 4.023h7.177l.57-4.057a2.995 2.995 0 011.658-2.28c.633-.307 1.241-.66 1.82-1.06a3.01 3.01 0 012.831-.324l.005.003 3.8 1.53 3.582-6.198-3.885-3.047a1.5 1.5 0 01-.56-1.391c.083-.576.126-1.594.13-2.176z"/>
  </mask>
  <path clip-rule="evenodd" d="M8.297 22.884c-.037.422-.06.856-.06 1.298 0 .443.023 1.313.06 1.736v.016L4.72 28.74l-.03.025a2.513 2.513 0 00-.571 3.196l.001.002 4.008 6.934.009.016a2.513 2.513 0 003.055 1.065l4.235-1.704c.703.49 1.444.925 2.216 1.298l.008.003.002.002.001.003.63 4.478a2.541 2.541 0 002.462 2.123h8.076a2.54 2.54 0 002.455-2.15l.631-4.49a16.913 16.913 0 002.212-1.288l.008-.005.003-.001h.005l4.204 1.693.027.011a2.514 2.514 0 003.056-1.067l4.017-6.95a2.513 2.513 0 00-.57-3.197l-.032-.025-3.58-2.808c.037-.424.057-1.297.06-1.723v-.01a15.954 15.954 0 00-.06-1.276l3.58-2.807.032-.026a2.514 2.514 0 00.57-3.196l-4.017-6.95a2.514 2.514 0 00-3.056-1.068l-.027.011-4.204 1.693h-.008l-.008-.006a16.91 16.91 0 00-2.212-1.288l-.63-4.489a2.539 2.539 0 00-2.455-2.15h-8.078a2.542 2.542 0 00-2.461 2.122l-.63 4.478v.003l-.003.002-.008.004c-.772.373-1.513.807-2.216 1.298l-4.235-1.705a2.514 2.514 0 00-3.055 1.065l-.01.016-4.007 6.934-.001.002a2.513 2.513 0 00.571 3.197l.03.024 3.576 2.808.001.001v.015zm30.02 1.298a12.966 12.966 0 00-.128-1.738 1.5 1.5 0 01.56-1.392l3.884-3.046-3.582-6.198-3.8 1.53-.005.002a3.01 3.01 0 01-2.83-.324 13.924 13.924 0 00-1.82-1.06 3 3 0 01-1.659-2.28l-.57-4.057H21.19l-.566 4.024v.005a3.007 3.007 0 01-1.68 2.284c-.628.303-1.23.656-1.801 1.056l-.003.001a3 3 0 01-2.833.32l-3.8-1.528-3.581 6.197 3.229 2.535.006.005a3.003 3.003 0 011.124 2.629c-.03.355-.048.699-.048 1.035 0 .336.018 1.117.048 1.473a3.004 3.004 0 01-1.124 2.628l-.006.005-3.23 2.536 3.583 6.197 3.799-1.53a3 3 0 012.833.321l.003.002c.571.4 1.173.752 1.801 1.055a3.007 3.007 0 011.68 2.285v.005l.566 4.023h7.177l.57-4.057a2.995 2.995 0 011.658-2.28c.633-.307 1.241-.66 1.82-1.06a3.01 3.01 0 012.831-.324l.005.003 3.8 1.53 3.582-6.198-3.885-3.047a1.5 1.5 0 01-.56-1.391c.083-.576.126-1.594.13-2.176z" stroke="#DB210F" stroke-width="4" mask="url(#a)"/>
  <path fill-rule="evenodd" clip-rule="evenodd" d="M21.085 18.093a7.5 7.5 0 014.433-.937h.002a7.512 7.512 0 016.724 6.724v.003a7.5 7.5 0 11-11.159-5.79zm4.137 2.048a4.5 4.5 0 104.037 4.038 4.512 4.512 0 00-4.037-4.038z" fill="#DB210F"/>
</svg>
