<svg viewBox="0 0 73 72" fill="none" xmlns="http://www.w3.org/2000/svg">
  <defs/>
  <path opacity=".1" fill-rule="evenodd" clip-rule="evenodd" d="M.516 38.95c-.424-7.116 7.733-11.482 12.79-16.531 4.223-4.217 8.38-8.591 14.104-10.324 5.654-1.712 11.715-1.164 17.276.824 5.433 1.943 9.25 6.229 13.454 10.164 5.339 4.998 14.705 8.583 14.35 15.867-.36 7.375-11.189 9.035-15.844 14.787-4.277 5.286-3.754 14.496-10.022 17.175-6.254 2.674-13.38-1.403-19.377-4.607-5.174-2.765-7.959-8-12.052-12.189C10.155 48.958.944 46.13.515 38.95z" fill="#06F"/>
  <g opacity=".15" fill="#06F">
    <path d="M63.775 17.161v-.008a1.818 1.818 0 00-1.348-1.363c-2.654-.647-6.83.043-11.458 1.896-4.665 1.87-9.035 4.632-11.99 7.592a28.562 28.562 0 00-2.632 3.013c-1.99-.089-3.741.195-5.217.839-5.144 2.263-6.613 8.056-7.004 10.435a2.228 2.228 0 002.422 2.583h.012l5.73-.625c.007.073.015.14.02.201.074.699.386 1.35.883 1.846l2.796 2.798c.495.498 1.147.81 1.845.883l.192.02-.624 5.723v.012a2.23 2.23 0 002.192 2.456c.124 0 .248-.01.37-.03 2.392-.385 8.182-1.836 10.44-7.008.638-1.466.92-3.211.841-5.197a28.04 28.04 0 003.025-2.632c2.978-2.963 5.748-7.298 7.6-11.895 1.843-4.575 2.537-8.782 1.905-11.539z"/>
    <path d="M35.667 47.127a1.425 1.425 0 00-.98.238c-.569.389-1.14.774-1.718 1.149-1.168.759-2.565-.574-1.87-1.782l1.082-1.87a1.425 1.425 0 00-1.35-2.22 5.456 5.456 0 00-3.175 1.556c-.326.327-1.318 1.32-1.851 5.1a31.905 31.905 0 00-.287 3.276 1.426 1.426 0 001.425 1.462h.036a32.072 32.072 0 003.278-.285c3.784-.534 4.776-1.527 5.102-1.853a5.388 5.388 0 001.55-3.184 1.425 1.425 0 00-1.242-1.587z"/>
  </g>
  <path d="M57.676 22.882a4.588 4.588 0 11-9.176 0 4.588 4.588 0 019.177 0z" fill="#fff"/>
  <path fill-rule="evenodd" clip-rule="evenodd" d="M59.746 10.157c1.912-.34 3.742-.414 5.228-.052a1.818 1.818 0 011.35 1.379c.35 1.53.277 3.375-.063 5.302-.345 1.95-.982 4.081-1.843 6.22-1.718 4.26-4.384 8.687-7.596 11.883-.944.95-1.956 1.83-3.028 2.632.07 1.75-.129 3.559-.842 5.195v.001c-1.155 2.642-3.236 4.3-5.24 5.33-2 1.028-4.009 1.477-5.2 1.669a2.226 2.226 0 01-2.57-2.423l.001-.012.628-5.721a17.592 17.592 0 01-.19-.02 3.042 3.042 0 01-1.852-.888l-2.785-2.784c0-.002-.002-.003-.003-.004a3.042 3.042 0 01-.884-1.847 19.174 19.174 0 01-.021-.2l-5.726.628-.01.001a2.227 2.227 0 01-2.426-2.573v-.003c.197-1.188.648-3.193 1.676-5.19 1.031-2.003 2.69-4.082 5.33-5.243l.003-.001c1.637-.714 3.456-.914 5.216-.837a27.691 27.691 0 012.63-3.017c3.205-3.201 7.699-5.866 11.988-7.582 2.153-.862 4.29-1.499 6.23-1.843zm-5.17 4.49c-4.034 1.613-8.17 4.092-11.033 6.954l-.004.004a24.838 24.838 0 00-2.788 3.292 1.425 1.425 0 01-1.292.596c-1.735-.157-3.34-.01-4.634.555-1.857.817-3.102 2.308-3.94 3.937-.646 1.254-1.024 2.539-1.241 3.534l6.377-.7a1.425 1.425 0 011.58 1.404c.005.496.035.992.09 1.485l.002.015a.191.191 0 00.055.117l.006.006 2.797 2.796.005.006a.192.192 0 00.134.058c.49.054.983.084 1.476.089a1.426 1.426 0 011.403 1.58l-.7 6.373c.995-.214 2.283-.59 3.54-1.236 1.629-.837 3.119-2.08 3.93-3.935.566-1.298.713-2.896.564-4.626a1.425 1.425 0 01.599-1.287 24.754 24.754 0 003.3-2.788l.007-.006c2.878-2.861 5.354-6.935 6.965-10.93.802-1.991 1.376-3.93 1.68-5.65.246-1.395.305-2.588.199-3.527-.885-.1-2.036-.043-3.408.2-1.712.304-3.66.88-5.669 1.683zm-1.487 6.318a2.379 2.379 0 00-1.682 4.06l.001.002a2.376 2.376 0 003.361 0l.002-.001a2.378 2.378 0 00-1.682-4.06zm-2.905-1.97a5.23 5.23 0 115.81 8.697 5.23 5.23 0 01-5.81-8.696z" fill="#06F"/>
  <path fill-rule="evenodd" clip-rule="evenodd" d="M34.976 38.184a1.425 1.425 0 01-1.241 1.589c-.572.07-1.105.329-1.513.736-.137.138-.358.517-.576 1.231-.204.67-.357 1.465-.469 2.255-.07.493-.12.97-.158 1.391.422-.037.899-.089 1.392-.158.79-.112 1.586-.265 2.255-.47.715-.219 1.093-.44 1.228-.576l.003-.002c.408-.406.667-.938.735-1.51a1.425 1.425 0 112.83.34 5.41 5.41 0 01-1.553 3.188c-.649.65-1.59 1.036-2.41 1.286-.867.266-1.824.444-2.69.566a32.086 32.086 0 01-3.2.282l-.055.002H29.533l-.038-1.424-1.425-.037v-.022l.003-.056a22.783 22.783 0 01.048-.917c.04-.594.11-1.409.233-2.28.122-.866.3-1.824.566-2.69.25-.821.636-1.762 1.284-2.413l.002-.002a5.439 5.439 0 013.181-1.55 1.425 1.425 0 011.589 1.241zm-5.48 8.726l-1.426-.037a1.426 1.426 0 001.462 1.462l-.037-1.425z" fill="#DB210F"/>
</svg>
