<svg viewBox="0 0 24 24" fill="none" xmlns="http://www.w3.org/2000/svg">
  <path d="M15.2858 10.8693l-2.2265 3.5391c-.0911.1263-.2019.237-.3281.3281-.3048.2126-.6811.2965-1.0474.2334-.3662-.0632-.6927-.2682-.9087-.5706-.216-.3024-.304-.6777-.245-1.0446.0591-.3669.2605-.6957.5604-.915l3.5391-2.2266c.0804-.0561.1762-.0861.2742-.0861.0981 0 .1938.03.2742.0861.1011.0729.1691.1829.1893.3059.0202.1229-.0091.2489-.0815.3503z" />
  <path fill-rule="evenodd" clip-rule="evenodd" d="M.750987 13.4955C.751267 7.28267 5.78894 2.25073 12.001 2.25073c6.2122 0 11.25 5.03222 11.25 11.24527.0036 2.825-1.0847 5.5507-2.9856 7.6311l-.0026.0028c-.1813.1964-.4015.353-.6466.4598-.245.1068-.5096.1616-.7769.1609-.2673-.0007-.5315-.0569-.776-.1651-.2445-.1081-.4641-.2662-.6441-.4632.0009.0009-1.5198-1.3435-2.4589-1.7555-.9329-.4093-1.9406-.6207-2.9593-.6207-1.0188 0-2.02647.2114-2.95939.6207-.93248.4091-1.76999 1.0072-2.45965 1.7564.00027-.0003.00055-.0006.00082-.0009l-.00177.0019c.00031-.0004.00063-.0007.00095-.001-.18016.1969-.3992.3543-.6433.4623-.24446.1082-.50871.1644-.77603.1651-.26732.0007-.53187-.0541-.77691-.1609-.06134-.0267-.62812-.4405-.626-.4383-1.97883-1.979-3.012447-4.8846-3.008733-7.6559zM12.001 3.75073c-5.38468 0-9.75001 4.36152-9.75001 9.74527v.0011c-.00342 2.4622.92613 4.814 2.58999 6.615.04047.0439.0896.0788.14427.1026.05467.0239.11369.0361.17334.0359.05964-.0001.1186-.0127.17314-.0368.05454-.0241.10347-.0593.14371-.1034l.00177-.0019c.83033-.9023 1.83881-1.6226 2.96172-2.1153 1.12291-.4927 2.33577-.7471 3.56207-.7471 1.2262 0 2.4391.2544 3.562.7471 1.1229.4927 2.1314 1.213 2.9617 2.1153l.0018.0019c.0403.0441.0892.0793.1437.1034.0546.0241.1135.0367.1732.0368.0596.0002.1186-.012.1733-.0359.0542-.0236.103-.0581.1432-.1014.0004-.0004.0007-.0008.0011-.0012 1.6487-1.8034 2.5934-4.1652 2.59-6.615v-.0011c0-5.38375-4.3654-9.74527-9.75-9.74527z" />
  <path fill-rule="evenodd" clip-rule="evenodd" d="M12 5.24927c.4142 0 .75.33578.75.75v1.5c0 .41421-.3358.75-.75.75s-.75-.33579-.75-.75v-1.5c0-.41422.3358-.75.75-.75zM17.25 13.5007c0-.4142.3358-.75.75-.75h1.5c.4142 0 .75.3358.75.75s-.3358.75-.75.75H18c-.4142 0-.75-.3358-.75-.75zM3.75 13.5007c0-.4142.33579-.75.75-.75H6c.41421 0 .75.3358.75.75s-.33579.75-.75.75H4.5c-.41421 0-.75-.3358-.75-.75zM6.16645 7.66571c.29289-.29289.76776-.29289 1.06066 0l1.0615 1.0615c.29289.2929.29289.76777 0 1.06066-.2929.29293-.76777.29293-1.06066 0l-1.0615-1.0615c-.2929-.29289-.2929-.76776 0-1.06066zM17.8345 7.66571c.2929.2929.2929.76777 0 1.06066l-1.0615 1.0615c-.2929.29293-.7678.29293-1.0607 0-.2928-.29289-.2928-.76776 0-1.06066l1.0615-1.0615c.2929-.29289.7678-.29289 1.0607 0z" />
</svg>
