<svg viewBox="0 0 24 24" fill="none" xmlns="http://www.w3.org/2000/svg">
<path fill-rule="evenodd" clip-rule="evenodd" d="M12 0.75C16.1749 0.75 19.5 4.08651 19.5 8.25C19.5 10.4655 18.7196 12.4077 17.2085 13.8519C16.7056 14.3338 16.1449 14.8415 15.6938 15.4009C15.2349 15.9698 15 16.4627 15 16.88V18C15 18.4142 14.6642 18.75 14.25 18.75C13.8358 18.75 13.5 18.4142 13.5 18V16.88C13.5 15.9373 14.0051 15.1052 14.5262 14.4591C14.9752 13.9026 15.5181 13.3881 15.9515 12.9774C17.2755 11.7226 18 10.0863 18 8.25C18 4.91349 15.3451 2.25 12 2.25C8.75963 2.25 6 4.9742 6 8.25C6 10.0381 6.68967 11.7084 7.99769 12.9259C8.44077 13.3383 9.00666 13.865 9.47377 14.4441C9.99738 15.0933 10.5 15.9295 10.5 16.88V18C10.5 18.4142 10.1642 18.75 9.75 18.75C9.33579 18.75 9 18.4142 9 18V16.88C9 16.4505 8.76262 15.9517 8.30623 15.3859C7.85737 14.8294 7.29626 14.3252 6.79704 13.8572C5.30774 12.4581 4.5 10.3904 4.5 8.25C4.5 4.1589 7.95228 0.75 12 0.75Z" fill="#F7F7FA"/>
<path fill-rule="evenodd" clip-rule="evenodd" d="M9.75 22.4993C9.75 22.0851 10.0858 21.7493 10.5 21.7493H13.5C13.9142 21.7493 14.25 22.0851 14.25 22.4993C14.25 22.9135 13.9142 23.2493 13.5 23.2493H10.5C10.0858 23.2493 9.75 22.9135 9.75 22.4993Z" fill="white"/>
<path fill-rule="evenodd" clip-rule="evenodd" d="M8.99988 20.2506C8.99988 19.8364 9.33566 19.5006 9.74988 19.5006H14.2499C14.6641 19.5006 14.9999 19.8364 14.9999 20.2506C14.9999 20.6648 14.6641 21.0006 14.2499 21.0006H9.74988C9.33566 21.0006 8.99988 20.6648 8.99988 20.2506Z" fill="white"/>
<path d="M9.61695 10.8019C9.86417 10.4696 10.334 10.4006 10.6664 10.6478C10.8287 10.764 10.9989 10.8695 11.1747 10.964C11.506 11.1422 11.8112 11.2496 12 11.2496C12.1888 11.2496 12.4939 11.1422 12.8253 10.964C13.0008 10.8696 13.1723 10.765 13.3336 10.6478C13.6659 10.4008 14.1359 10.4697 14.383 10.8019C14.6302 11.1343 14.5612 11.6041 14.2288 11.8513C14.0102 12.0135 13.7752 12.1563 13.5357 12.2851C13.33 12.3957 13.055 12.5287 12.7499 12.6239V18C12.7499 18.4142 12.4141 18.75 11.9999 18.75C11.5857 18.75 11.2499 18.4142 11.2499 18V12.6239C10.9449 12.5286 10.67 12.3957 10.4643 12.2851C10.2251 12.1565 9.99068 12.0139 9.77216 11.8521C9.44365 11.6083 9.37266 11.1304 9.61695 10.8019Z" fill="white"/>
</svg>
