<svg viewBox="0 0 48 49" fill="none" xmlns="http://www.w3.org/2000/svg">
  <g opacity=".2" fill="#F24E1E">
    <path d="M19 6c-3.866 0-7 3.00865-7 6.72v28.8001c0 3.7113 3.134 6.72 7 6.72s7-3.0087 7-6.72V12.72C26 9.00865 22.866 6 19 6zM37 6c-3.866 0-7 3.00865-7 6.72v28.8001c0 3.7113 3.134 6.72 7 6.72s7.0001-3.0087 7.0001-6.72V12.72C44.0001 9.00865 40.866 6 37 6z"/>
  </g>
  <path fill-rule="evenodd" clip-rule="evenodd" d="M28.0607 1.86037c.5858.56235.5858 1.47411 0 2.03647l-3.4399 3.30224h5.7542c1.8897 0 3.702.72064 5.0382 2.00339C36.7494 10.4852 37.5 12.225 37.5 14.0391v17.8231c2.5878.6395 4.5 2.8947 4.5 5.5786 0 3.1811-2.6863 5.76-6 5.76s-6-2.5789-6-5.76c0-2.684 1.9121-4.9392 4.5-5.5786V14.0391c0-1.0503-.4346-2.0575-1.2082-2.8002-.7735-.7426-1.8228-1.1598-2.9168-1.1598h-5.7532l3.4389 3.3013c.5858.5623.5858 1.4741 0 2.0365-.5858.5623-1.5356.5623-2.1213 0l-6.0001-5.76005c-.5857-.56236-.5857-1.47412 0-2.03647l6.0001-5.76001c.5857-.56236 1.5355-.56236 2.1213 0zM36 34.5608c-1.6569 0-3 1.2894-3 2.88 0 1.5906 1.3431 2.88 3 2.88 1.6568 0 3-1.2894 3-2.88 0-1.5906-1.3432-2.88-3-2.88z" fill="#F24E1E"/>
  <path fill-rule="evenodd" clip-rule="evenodd" d="M13.5001 14.219C16.0879 13.5796 18 11.3244 18 8.64049c0-3.18117-2.6863-5.76001-6-5.76001S6 5.45932 6 8.64049c0 2.68391 1.91219 4.93911 4.5001 5.57851v17.6432C7.91219 32.5016 6 34.7568 6 37.4408c0 3.1811 2.6863 5.76 6 5.76s6-2.5789 6-5.76c0-2.6839-1.9121-4.9391-4.4999-5.5786V14.219zm-1.4332-2.6992c-.0221-.0009-.0444-.0014-.0668-.0014-.0224 0-.0447.0005-.0669.0014-1.626-.0341-2.93319-1.3102-2.93319-2.87931 0-1.59059 1.34319-2.88001 2.99999-2.88001 1.6569 0 3 1.28942 3 2.88001 0 1.56911-1.3071 2.84511-2.9331 2.87931zm-3.06689 25.921c0-1.5906 1.34319-2.88 2.99999-2.88 1.6569 0 3 1.2894 3 2.88 0 1.5906-1.3431 2.88-3 2.88-1.6568 0-2.99999-1.2894-2.99999-2.88z" fill="#73250E"/>
  <ellipse cx="36" cy="37.4401" rx="3.00001" ry="2.88" fill="#fff"/>
</svg>
