<svg viewBox="0 0 49 47" fill="none" xmlns="http://www.w3.org/2000/svg">
  <path opacity=".3" fill-rule="evenodd" clip-rule="evenodd" d="M8.297 14.457c0-2.96 2.4-5.36 5.36-5.36H43.14c2.961 0 5.36 2.4 5.36 5.36v26.802c0 2.96-2.399 5.36-5.36 5.36H13.657a5.36 5.36 0 01-5.36-5.36V14.457z" fill="#6D6D7F"/>
  <path fill-rule="evenodd" clip-rule="evenodd" d="M1.84 8.04c0-2.96 2.4-5.36 5.36-5.36h29.483c2.96 0 5.36 2.4 5.36 5.36v26.803c0 2.96-2.4 5.36-5.36 5.36H7.2a5.36 5.36 0 01-5.36-5.36V8.04zM7.2 5.36a2.68 2.68 0 00-2.68 2.68v26.803c0 1.48 1.2 2.68 2.68 2.68h29.483c1.48 0 2.68-1.2 2.68-2.68V8.04c0-1.48-1.2-2.68-2.68-2.68H7.2z" fill="#595F61"/>
  <path d="M7.494 8.544a1.34 1.34 0 011.883-.21l6.701 5.361a1.34 1.34 0 010 2.093l-6.7 5.36a1.34 1.34 0 01-1.675-2.093l5.393-4.314-5.393-4.313a1.34 1.34 0 01-.21-1.884zM16.581 18.76a1.34 1.34 0 100 2.68h5.36a1.34 1.34 0 100-2.68h-5.36z" fill="#00C05B"/>
</svg>
