<svg viewBox="0 0 31 30" fill="none" xmlns="http://www.w3.org/2000/svg">
  <path d="M5.393 5.977a.937.937 0 011.317-.146l4.688 3.75a.937.937 0 010 1.464l-4.688 3.75a.938.938 0 01-1.17-1.464l3.772-3.018-3.773-3.018a.937.937 0 01-.146-1.318zM11.75 13.123a.938.938 0 000 1.875h3.75a.937.937 0 100-1.875h-3.75z" />
  <path fill-rule="evenodd" clip-rule="evenodd" d="M1.438 5.625a3.75 3.75 0 013.75-3.75h20.625a3.75 3.75 0 013.75 3.75v18.75a3.75 3.75 0 01-3.75 3.75H5.188a3.75 3.75 0 01-3.75-3.75V5.625zm3.75-1.875c-1.036 0-1.875.84-1.875 1.875v18.75c0 1.035.839 1.875 1.874 1.875h20.625c1.036 0 1.875-.84 1.875-1.875V5.625c0-1.036-.839-1.875-1.875-1.875H5.188z" />
</svg>
