<svg viewBox="0 0 36 36" xmlns="http://www.w3.org/2000/svg">
<path d="M5.87134 7.17249C6.25948 6.68732 6.96743 6.60866 7.4526 6.9968L13.0776 11.4968C13.3445 11.7103 13.4998 12.0335 13.4998 12.3753C13.4998 12.717 13.3445 13.0403 13.0776 13.2538L7.4526 17.7538C6.96743 18.1419 6.25948 18.0632 5.87134 17.5781C5.48321 17.0929 5.56187 16.3849 6.04704 15.9968L10.5739 12.3753L6.04704 8.75375C5.56187 8.36562 5.48321 7.65766 5.87134 7.17249Z" />
<path d="M13.4998 15.7481C12.8785 15.7481 12.3748 16.2518 12.3748 16.8731C12.3748 17.4944 12.8785 17.9981 13.4998 17.9981H17.9998C18.6211 17.9981 19.1248 17.4944 19.1248 16.8731C19.1248 16.2518 18.6211 15.7481 17.9998 15.7481H13.4998Z" />
<path fill-rule="evenodd" clip-rule="evenodd" d="M1.125 6.75C1.125 4.26472 3.13972 2.25 5.625 2.25H30.375C32.8603 2.25 34.875 4.26472 34.875 6.75V29.25C34.875 31.7353 32.8603 33.75 30.375 33.75H5.625C3.13972 33.75 1.125 31.7353 1.125 29.25V6.75ZM5.625 4.5C4.38236 4.5 3.375 5.50736 3.375 6.75V29.25C3.375 30.4926 4.38236 31.5 5.625 31.5H30.375C31.6176 31.5 32.625 30.4926 32.625 29.25V6.75C32.625 5.50736 31.6176 4.5 30.375 4.5H5.625Z" />
</svg>
