<svg viewBox="0 0 25 24" fill="none" xmlns="http://www.w3.org/2000/svg">
<path fill-rule="evenodd" clip-rule="evenodd" d="M2.74991 12.0008C2.74991 6.61783 7.11694 2.25079 12.4999 2.25079C17.8829 2.25079 22.2499 6.61783 22.2499 12.0008C22.2499 17.3838 17.8829 21.7508 12.4999 21.7508C7.11694 21.7508 2.74991 17.3838 2.74991 12.0008ZM12.4999 3.75079C7.94537 3.75079 4.24991 7.44626 4.24991 12.0008C4.24991 16.5553 7.94537 20.2508 12.4999 20.2508C17.0544 20.2508 20.7499 16.5553 20.7499 12.0008C20.7499 7.44626 17.0544 3.75079 12.4999 3.75079Z" />
<path fill-rule="evenodd" clip-rule="evenodd" d="M12.5 5.25201C12.9142 5.25201 13.25 5.5878 13.25 6.00201V12.002H17C17.4142 12.002 17.75 12.3378 17.75 12.752C17.75 13.1662 17.4142 13.502 17 13.502H12.5C12.0858 13.502 11.75 13.1662 11.75 12.752V6.00201C11.75 5.5878 12.0858 5.25201 12.5 5.25201Z" />
</svg>
