<svg width="48" height="49" viewBox="0 0 48 49" fill="none" xmlns="http://www.w3.org/2000/svg">
<circle opacity="0.12" cx="28.0001" cy="29.2925" r="19.5" fill="#F5A623"/>
<path d="M24.4735 4.80393C35.3003 5.05536 44.0001 13.9132 44.0001 24.7979C44.0001 35.8504 35.0637 44.8133 23.9977 44.7924C12.9224 44.7716 3.87864 35.6723 4.00129 24.5892C4.05134 19.7423 5.8621 15.0789 9.09624 11.4677C9.663 10.8348 10.6356 10.7811 11.2686 11.3478C11.9016 11.9144 11.9553 12.8867 11.3885 13.5196C8.65217 16.5749 7.12018 20.5206 7.07796 24.6215C6.97405 33.9845 14.6278 41.6987 24.0035 41.7164C33.3601 41.734 40.9232 34.1571 40.9232 24.7979C40.9232 15.9717 34.1626 8.72056 25.5391 7.94347V14.8007C25.5391 15.6501 24.8503 16.3387 24.0006 16.3387C23.151 16.3387 22.4622 15.6501 22.4622 14.8007C22.4622 13.2425 22.4622 10.4412 22.4601 7.94347C22.4592 6.85359 22.3318 5.95813 22.9731 5.31436C23.6145 4.67059 24.4735 4.80393 24.4735 4.80393Z" fill="#F5A623"/>
<path d="M22.0874 27.4308L14.1472 16.0769C14.0373 15.9196 13.9864 15.7287 14.0032 15.5376C14.0201 15.3465 14.1037 15.1674 14.2394 15.0317C14.3751 14.8961 14.5542 14.8125 14.7454 14.7956C14.9366 14.7788 15.1276 14.8297 15.2849 14.9395L26.6425 22.8772C27.3392 23.3788 27.8103 24.1343 27.954 24.9805C28.0977 25.8266 27.9024 26.6952 27.4103 27.3985C26.9183 28.1018 26.1691 28.5832 25.3247 28.7385C24.4804 28.8939 23.6088 28.7107 22.8986 28.2286C22.5845 28.011 22.3101 27.7412 22.0874 27.4308Z" fill="#F5A623"/>
</svg>
