<svg viewBox="0 0 32 32" fill="none" xmlns="http://www.w3.org/2000/svg">
  <path fill-rule="evenodd" clip-rule="evenodd" d="M15.594 4.285c2.291-2.274 5.873-2.88 8.668-1.682a1.062 1.062 0 01.33 1.731L20.837 8.09a1.008 1.008 0 000 1.418l1.657 1.657a1.009 1.009 0 001.417.001l3.777-3.78.002-.002a1.062 1.062 0 011.7.277l.005.01c.607 1.247.74 2.86.474 4.396-.267 1.546-.961 3.135-2.155 4.312-2.251 2.221-5.503 2.282-8.13 1.579a.996.996 0 00-.984.283l-.001.002L8.99 28.67a4.01 4.01 0 11-5.66-5.665l10.402-9.5.002-.002a.995.995 0 00.281-.998c-.745-2.649-.706-5.954 1.578-8.22zm1.54 12.596L7.501 27.337a2.013 2.013 0 01-2.927.088 2.011 2.011 0 01.088-2.926l10.424-9.52.004-.004a2.996 2.996 0 00.85-3.01c-.655-2.331-.476-4.732 1.062-6.26 1.33-1.32 3.274-1.886 5.042-1.651L19.42 6.678l-.002.002a3.006 3.006 0 000 4.24l.002.001 1.66 1.66.003.003a3.006 3.006 0 004.238 0l.002-.003 2.643-2.644c.058.55.04 1.16-.068 1.789-.213 1.227-.754 2.405-1.59 3.228-1.52 1.502-3.894 1.691-6.21 1.071a2.997 2.997 0 00-2.966.857z" fill="#7C7C87"/>
  <path d="M6 27a1 1 0 100-2 1 1 0 000 2z" fill="#7C7C87"/>
</svg>
