<svg fill="none" xmlns="http://www.w3.org/2000/svg" viewBox="0 0 61 59">
  <defs/>
  <g opacity=".15" fill="#F8C369">
    <path d="M16.12 29.835a2.302 2.302 0 00-.338-1.209.31.31 0 01.295-.474h.006c.095.01.6.083 1.315.518.532.322 2.049 1.357 4.69 3.993a3.846 3.846 0 00.81 2.486l7.443-6.916a3.79 3.79 0 00-2.427-1.034.288.288 0 01-.024-.03l-.073-.077-2.757-3.802a3.197 3.197 0 01-.45-2.935 3.958 3.958 0 011.324-1.837c.64-.495 2.082-1.092 3.308-1.193a5.946 5.946 0 011.707.105c.269.065.534.145.793.24a1.798 1.798 0 002.082-2.745l-.005-.008c-.037-.05-.153-.206-.319-.412-.33-.415-.69-.804-1.079-1.164-.916-.827-3.289-2.221-6.405-2.221a13.835 13.835 0 00-5.203 1.011c-4.311 1.736-7.132 4.11-8.429 5.37l-.01.01a24.962 24.962 0 00-2.417 2.767c-.278.393-.46.846-.528 1.323a.824.824 0 01-.866.693H8.44a2.321 2.321 0 00-1.64.663l-3.309 3.226-.036.036a2.347 2.347 0 00.037 3.293l5.338 5.206c.44.43 1.03.672 1.646.674a2.321 2.321 0 001.64-.663l3.31-3.235a2.304 2.304 0 00.693-1.659zM51.943 48.246c-1.567-1.303-4.913-4.315-8.324-7.442l-7.424 7.935c3.173 3.371 6.045 6.5 7.304 7.965l.008.009a3.37 3.37 0 002.411 1.15h.124a3.383 3.383 0 002.36-.968l3.764-3.758a3.312 3.312 0 00-.223-4.891z"/>
    <path d="M58.819 19.219c.241.18.436.416.568.688.905 1.86 1.177 4.36.746 6.855-.458 2.645-1.65 5.024-3.358 6.71-2.97 2.921-7.578 3.82-12.634 2.471a1.237 1.237 0 00-1.225.357L24.702 55.763a6.379 6.379 0 11-9.006-9.01L35.126 28.7a1.237 1.237 0 00.354-1.247c-1.441-5.136-.54-9.787 2.473-12.777 3.474-3.454 9.022-4.527 13.484-2.617a1.895 1.895 0 01.592 3.079l-5.717 5.719a1.255 1.255 0 000 1.76l2.526 2.526a1.253 1.253 0 001.76 0l5.747-5.747a1.893 1.893 0 012.474-.177z"/>
  </g>
  <path fill-rule="evenodd" clip-rule="evenodd" d="M16.96 25.513c.838.818 1.749 1.708 2.672 2.304-.01.211 0 .42.033.624.126.81.508 1.559 1.09 2.136l.01.011.615.602c.395.387.902.885 1.6 1.565l-9.755 9.065a6.377 6.377 0 109.007 9.008l9.018-9.638c3.95 4.154 8.146 8.682 9.787 10.586l.013.014a3.37 3.37 0 004.885.183l3.766-3.764a3.311 3.311 0 00-.229-4.894c-1.935-1.611-6.668-5.9-10.966-9.88l1.935-2.068.004-.004a1.235 1.235 0 011.227-.352c4.04 1.08 9.103 1.005 12.634-2.473 1.866-1.838 2.943-4.314 3.358-6.71.412-2.377.21-4.893-.745-6.856l-.01-.02a1.894 1.894 0 00-3.031-.49l-5.742 5.745-.002.002a1.255 1.255 0 01-1.766 0l-.002-.002-2.52-2.52a1.253 1.253 0 01.002-1.766l5.714-5.715a1.894 1.894 0 00-.579-3.074l-.013-.005c-4.353-1.864-9.922-.924-13.49 2.617-3.577 3.553-3.617 8.7-2.471 12.775a1.235 1.235 0 01-.351 1.243l-.004.003-2.194 2.039a2213.077 2213.077 0 00-2.523-2.454 3.833 3.833 0 00-1.995-1.03 3.385 3.385 0 00-1.016-.023c-.27-.407-.613-.83-.993-1.3-.553-.683-1.186-1.465-1.793-2.441-.195-.313-.262-.507-.293-.641-.032-.14-.046-.31-.03-.629.087-1.757.603-2.864 1.654-3.698.658-.514 2.117-1.096 3.304-1.193h.003a5.933 5.933 0 011.706.104c.273.065.542.146.805.243a1.798 1.798 0 002.068-2.755 11.349 11.349 0 00-1.394-1.572c-1.004-.91-3.382-2.226-6.404-2.226-1.784-.002-3.55.34-5.204 1.008-4.803 1.935-7.677 4.63-8.441 5.38l-.005.004a25.063 25.063 0 00-2.395 2.736 3.155 3.155 0 00-.588 1.617 5.056 5.056 0 00-.01.622 2.343 2.343 0 00-.935-.197 2.33 2.33 0 00-1.652.666l-.002.002-3.301 3.226a2.376 2.376 0 00-.692 1.663c0 .601.23 1.18.645 1.616 1.725 1.817 3.6 3.515 5.393 5.266l.012.012c.438.419 1.02.652 1.625.65a2.327 2.327 0 001.65-.675l3.29-3.214a2.33 2.33 0 00.702-1.662 2.318 2.318 0 00-.66-1.62c.203-.06.416-.08.629-.061.13.015.625.102 1.31.518.59.359 1.282 1.035 2.03 1.767zm18.138.89l.002-.002a4.832 4.832 0 001.37-4.855c-.985-3.505-.693-7.029 1.544-9.25 1.818-1.805 4.419-2.653 6.864-2.491l-3.576 3.577-.004.003a4.849 4.849 0 000 6.839l.003.003 2.526 2.527.005.004a4.851 4.851 0 006.838 0l.005-.004 3.59-3.592c.024.647-.02 1.34-.144 2.052-.316 1.824-1.117 3.559-2.339 4.763-2.219 2.186-5.703 2.49-9.182 1.56a4.832 4.832 0 00-4.787 1.376l-.002.002L19.58 48.399l-.013.015a2.784 2.784 0 01-4.659-.825 2.783 2.783 0 01.729-3.102l19.46-18.084zm-7.275 1.852a2200.46 2200.46 0 00-2.393-2.328l-.005-.005a.236.236 0 00-.26-.048.3.3 0 00-.09.062l-.017.017c-.611.596-1.196 1.214-1.803 1.813l-.005.005-.031.03a.254.254 0 00.067.223c.778.759 1.553 1.521 2.33 2.28l2.207-2.05zM22.846 9.808c-1.078.074-2.14.318-3.145.724l-.003.001c-4.193 1.689-6.676 4.032-7.265 4.609a21.462 21.462 0 00-1.926 2.18c0 .076.008.188.022.39l.002.029c.017.23.048.647-.01 1.071a2.761 2.761 0 01-.81 1.638l-.01.01c-.717.682-1.643.881-2.217.946a2.95 2.95 0 01-1.321-.145l-1.694 1.655 3.54 3.454 1.604-1.567a3.382 3.382 0 01-.167-2.836c.163-.417.407-.796.718-1.118l.01-.01c.207-.21.443-.39.701-.534a5.265 5.265 0 013.108-.654l.017.001c.607.066 1.617.305 2.796 1.02.971.59 2.45 1.71 4.502 3.679.186-.201.385-.393.592-.572-1.387-1.428-3.085-3.038-3.548-5.062a5.777 5.777 0 01-.117-1.604v-.002c.124-2.507.948-4.707 3.018-6.345l.006-.005a8.252 8.252 0 011.598-.953zM33.712 38.56l2.338-2.5c4.146 3.84 8.757 8.023 10.89 9.825l-3.348 3.347c-1.823-2.094-6.006-6.602-9.88-10.672z" fill="#F5A623"/>
</svg>
