<svg viewBox="0 0 24 24" fill="none" xmlns="http://www.w3.org/2000/svg">
  <path fill-rule="evenodd" clip-rule="evenodd" d="M5.45208 6.5788C6.35631 4.3496 8.62119 2.24097 12 2.24097c3.6352 0 6.7335 2.4734 7.4127 6.476.9592.14357 1.9635.51091 2.7904 1.12517C23.2309 10.6056 24 11.7689 24 13.3222c0 1.5061-.6341 2.7043-1.6664 3.5074-1.012.7873-2.3587 1.1614-3.7711 1.1614H15c-.4142 0-.75-.3358-.75-.75 0-.4143.3358-.75.75-.75h3.5625c1.1657 0 2.1627-.3106 2.85-.8453.6669-.5188 1.0875-1.28 1.0875-2.3235 0-.9962-.4731-1.7423-1.1914-2.2759-.7368-.5473-1.7133-.85-2.5957-.8938-.3695-.0183-.6704-.30318-.7088-.67108C17.6262 5.866 15.0277 3.74097 12 3.74097c-2.85899 0-4.6869 1.88606-5.28582 3.75399-.09159.28566-.3446.48927-.64325.51764C3.48645 8.25813 1.5 9.84923 1.5 12.2535c0 2.417 2.08852 4.2375 4.875 4.2375H9c.41421 0 .75.3357.75.75 0 .4142-.33579.75-.75.75H6.375C2.97397 17.991 0 15.6977 0 12.2535c0-3.27565 2.59336-5.23262 5.45208-5.6747z" fill="#00C05B"/>
  <path d="M12.5303 8.45966c-.2929-.29289-.7677-.29289-1.0606 0L8.46967 11.4597c-.29289.2929-.29289.7677 0 1.0606.29289.2929.76777.2929 1.06066 0l1.71957-1.7196v10.21c0 .4142.3358.75.75.75s.75-.3358.75-.75V10.8006l1.7198 1.7197c.2929.2929.7677.2929 1.0606 0 .2929-.2929.2929-.7677 0-1.0606l-3-3.00004z" fill="#00C05B"/>
</svg>
