<svg width="20" height="20" viewBox="0 0 20 20" fill="none" xmlns="http://www.w3.org/2000/svg">
<path fill-rule="evenodd" clip-rule="evenodd" d="M3.62773 7.49957C3.35008 7.49957 3.125 7.72465 3.125 8.00231V15.7468C3.125 16.0245 3.35008 16.2496 3.62773 16.2496H16.3723C16.6499 16.2496 16.875 16.0245 16.875 15.7468V8.00231C16.875 7.72465 16.6499 7.49957 16.3723 7.49957H3.62773ZM1.875 8.00231C1.875 7.0343 2.65973 6.24957 3.62773 6.24957H16.3723C17.3403 6.24957 18.125 7.0343 18.125 8.00231V15.7468C18.125 16.7148 17.3403 17.4996 16.3723 17.4996H3.62773C2.65973 17.4996 1.875 16.7148 1.875 15.7468V8.00231Z" />
<path fill-rule="evenodd" clip-rule="evenodd" d="M5 3.12469C5 2.77952 5.27982 2.49969 5.625 2.49969H14.375C14.7202 2.49969 15 2.77952 15 3.12469C15 3.46987 14.7202 3.74969 14.375 3.74969H5.625C5.27982 3.74969 5 3.46987 5 3.12469Z" />
<path fill-rule="evenodd" clip-rule="evenodd" d="M3.75 4.99939C3.75 4.65421 4.02982 4.37439 4.375 4.37439H15.625C15.9702 4.37439 16.25 4.65421 16.25 4.99939C16.25 5.34457 15.9702 5.62439 15.625 5.62439H4.375C4.02982 5.62439 3.75 5.34457 3.75 4.99939Z" />
</svg>