<svg width="26" height="25" viewBox="0 0 26 25" fill="none" xmlns="http://www.w3.org/2000/svg">
<path opacity="0.2" fill-rule="evenodd" clip-rule="evenodd" d="M8.25 7.14041V7.89066H6C4.34315 7.89066 3 9.2338 3 10.8907V21.3906C3 23.0475 4.34315 24.3906 6 24.3906H22.5C24.1568 24.3906 25.5 23.0475 25.5 21.3906V10.8907C25.5 9.2338 24.1568 7.89066 22.5 7.89066H20.25V7.14041C20.25 6.54367 20.0129 5.97138 19.591 5.54942C19.169 5.12746 18.5967 4.89041 18 4.89041H10.5C9.90326 4.89041 9.33097 5.12746 8.90901 5.54942C8.48705 5.97138 8.25 6.54367 8.25 7.14041ZM10.5 6.39041C10.3011 6.39041 10.1103 6.46943 9.96967 6.61008C9.82902 6.75073 9.75 6.9415 9.75 7.14041V7.89066H18.75V7.14041C18.75 6.9415 18.671 6.75073 18.5303 6.61008C18.3897 6.46943 18.1989 6.39041 18 6.39041H10.5Z" fill="#1ABCFE"/>
<g clip-path="url(#clip0)">
<path d="M20.25 6.89066H3.75C2.50736 6.89066 1.5 7.89801 1.5 9.14065V19.6406C1.5 20.8833 2.50736 21.8906 3.75 21.8906H20.25C21.4926 21.8906 22.5 20.8833 22.5 19.6406V9.14065C22.5 7.89801 21.4926 6.89066 20.25 6.89066Z" stroke="#0D5F80" stroke-width="1.5" stroke-linejoin="round"/>
<path d="M6.75 6.89044V5.39044C6.75 4.99262 6.90804 4.61109 7.18934 4.32978C7.47064 4.04848 7.85217 3.89044 8.25 3.89044H15.75C16.1478 3.89044 16.5293 4.04848 16.8107 4.32978C17.092 4.61109 17.25 4.99262 17.25 5.39044V6.89044" stroke="#0D5F80" stroke-width="1.5" stroke-linecap="round" stroke-linejoin="round"/>
<path d="M22.5 12.1406H1.5" stroke="#0D5F80" stroke-width="1.5" stroke-linecap="round" stroke-linejoin="round"/>
<path d="M15 12.1406V13.2656C15 13.365 14.9605 13.4604 14.8902 13.5307C14.8198 13.6011 14.7245 13.6406 14.625 13.6406H9.375C9.27554 13.6406 9.18016 13.6011 9.10983 13.5307C9.03951 13.4604 9 13.365 9 13.2656V12.1406" stroke="#0D5F80" stroke-width="1.5" stroke-linecap="round" stroke-linejoin="round"/>
</g>
<defs>
<clipPath id="clip0">
<rect width="24" height="24" fill="white" transform="translate(0 0.890411)"/>
</clipPath>
</defs>
</svg>
