<svg viewBox="0 0 24 24" xmlns="http://www.w3.org/2000/svg">
  <path fill-rule="evenodd" clip-rule="evenodd" d="M11.1591 0.658841C11.581 0.236885 12.1533 -0.000167847 12.7501 -0.000167847C13.3468 -0.000167847 13.9191 0.236885 14.3411 0.658841C14.6205 0.938247 14.8188 1.28357 14.9209 1.65826C15.1823 1.55464 15.4633 1.49994 15.75 1.49994C16.3467 1.49994 16.919 1.737 17.341 2.15895C17.7629 2.58091 18 3.15321 18 3.74994V4.62985C18.2387 4.54544 18.4921 4.50113 18.7501 4.50113C19.3468 4.50113 19.9191 4.73819 20.3411 5.16014C20.763 5.5821 21.0001 6.15439 21.0001 6.75113V15.0011C21.0001 15.0051 21.0001 15.009 21 15.0129C20.9976 17.8911 20.2102 20.1499 18.7861 21.6966C17.3544 23.2516 15.3588 23.9999 13.125 23.9999C10.948 23.9999 9.33526 23.5087 8.12558 22.6498C6.91908 21.7931 6.19068 20.6252 5.68332 19.4149C5.67884 19.4042 5.67462 19.3934 5.67064 19.3826L3.20247 12.6346L3.20209 12.6336C3.0101 12.1127 2.93381 11.5484 3.06644 11.011C3.20409 10.4531 3.55346 9.985 4.09207 9.67906C5.13811 9.08469 6.58646 9.35754 7.20322 10.5294C7.21383 10.5495 7.22351 10.5702 7.23223 10.5912L7.49991 11.2361V4.49951C7.49991 3.90277 7.73696 3.33048 8.15892 2.90852C8.58087 2.48657 9.15317 2.24951 9.74991 2.24951C10.0079 2.24951 10.2614 2.29383 10.5001 2.37825V2.24983C10.5001 1.65309 10.7371 1.0808 11.1591 0.658841ZM11.9999 11.2655V11.2964C11.9999 11.7106 11.6641 12.0464 11.2499 12.0464C10.8357 12.0464 10.4999 11.7106 10.4999 11.2964V4.49951C10.4999 4.3006 10.4209 4.10983 10.2802 3.96918C10.1396 3.82853 9.94882 3.74951 9.74991 3.74951C9.55099 3.74951 9.36023 3.82853 9.21958 3.96918C9.07892 4.10983 8.99991 4.3006 8.99991 4.49951V14.9995C8.99991 15.3572 8.7473 15.6651 8.39649 15.735C8.04568 15.805 7.69433 15.6174 7.5572 15.287L5.86257 11.2041C5.68213 10.8963 5.23184 10.7566 4.83307 10.9833C4.64465 11.0903 4.55959 11.2211 4.52275 11.3703C4.48097 11.5397 4.48981 11.7903 4.60973 12.1153L4.61046 12.1173L7.07329 18.8507C7.51621 19.9023 8.09897 20.7912 8.99399 21.4267C9.89029 22.0631 11.177 22.4999 13.125 22.4999C15.0162 22.4999 16.5831 21.8748 17.6826 20.6806C18.7876 19.4805 19.5 17.6188 19.5 14.9999C19.5 14.9961 19.5 14.9923 19.5001 14.9885V6.75113C19.5001 6.55222 19.4211 6.36146 19.2804 6.2208C19.1398 6.08015 18.949 6.00113 18.7501 6.00113C18.5512 6.00113 18.3604 6.08015 18.2198 6.2208C18.0791 6.36146 18.0001 6.55222 18.0001 6.75113V12.0011C18.0001 12.4153 17.6643 12.7511 17.2501 12.7511C16.8575 12.7511 16.5354 12.4495 16.5028 12.0654C16.5009 12.0438 16.5 12.022 16.5 11.9999V3.74994C16.5 3.55103 16.421 3.36026 16.2803 3.21961C16.1397 3.07896 15.9489 2.99994 15.75 2.99994C15.5511 2.99994 15.3603 3.07896 15.2197 3.21961C15.0814 3.35787 15.0027 3.54456 15.0001 3.7398L15 11.2499C15 11.6642 14.6642 11.9999 14.25 11.9999C13.8358 11.9999 13.5 11.6642 13.5 11.2499V3.74994C13.5 3.74408 13.5 3.73823 13.5001 3.73237L13.5001 2.24983C13.5001 2.05092 13.421 1.86015 13.2804 1.7195C13.1397 1.57885 12.949 1.49983 12.7501 1.49983C12.5512 1.49983 12.3604 1.57885 12.2197 1.7195C12.0791 1.86015 12.0001 2.05092 12.0001 2.24983V11.2498C12.0001 11.2551 12 11.2603 11.9999 11.2655Z" />
</svg>