<?xml version="1.0" encoding="UTF-8"?>
<svg width="337px" height="556px" viewBox="0 0 337 556" version="1.1" xmlns="http://www.w3.org/2000/svg" xmlns:xlink="http://www.w3.org/1999/xlink">
    <!-- Generator: Sketch 52.4 (67378) - http://www.bohemiancoding.com/sketch -->
    <title>Group 4</title>
    <desc>Created with Sketch.</desc>
    <defs>
        <filter x="-0.0%" y="0.0%" width="100.0%" height="100.0%" filterUnits="objectBoundingBox" id="filter-1">
            <feGaussianBlur stdDeviation="0" in="SourceGraphic"></feGaussianBlur>
        </filter>
    </defs>
    <g id="final" stroke="none" stroke-width="1" fill="none" fill-rule="evenodd">
        <g id="ambassador" transform="translate(-109.000000, -125.000000)">
            <g id="Group-4" transform="translate(21.000000, 70.000000)">
                <g id="front-copy">
                    <g transform="translate(257.858622, 326.434702) rotate(4.000000) translate(-257.858622, -326.434702) translate(21.358622, 16.434702)">
                        <g transform="translate(236.215485, 309.902913) rotate(-7.000000) translate(-236.215485, -309.902913) translate(33.715485, 22.902913)">
                            <g id="Group-2" transform="translate(-0.000000, 0.000000)">
                                <g id="Group-17-Copy-2" transform="translate(-0.000000, 122.293722)">
                                    <g id="Group-16" transform="translate(0.000000, 0.000000)">
                                        <ellipse id="Oval-8-Copy-10" fill-opacity="0.300000012" fill="#222222" filter="url(#filter-1)" transform="translate(178.943787, 436.611480) scale(1, -1) rotate(-2.000000) translate(-178.943787, -436.611480) " cx="178.943787" cy="436.61148" rx="96.1071364" ry="10.8536001"></ellipse>
                                        <g id="Group-12-Copy-8" transform="translate(113.108438, 394.556987)" fill="#000000" fill-rule="nonzero">
                                            <path d="M37.2566201,39.7559697 C37.1573531,40.1576794 36.8175902,40.4799693 36.3936452,40.5357402 L7.53246483,44.3324879 C4.27120684,44.7615131 1.34828465,42.4539886 1.00405412,39.179617 L0.992999224,39.0744612 C0.648715537,35.799584 3.01921178,32.8663803 6.28705641,32.5230297 L19.3819056,31.1471615 L18.3561591,2.07629558 C18.3323411,1.40126459 18.8516998,0.854296612 19.515359,0.831361473 L36.3218727,0.25055173 C36.9897036,0.227472422 37.5425446,0.747807366 37.5659954,1.41243035 L38.8744362,38.4951865 C38.8982542,39.1702175 38.3788955,39.7171854 37.7152363,39.7401206 L37.2566201,39.7559697 Z" id="Combined-Shape"></path>
                                            <path d="M130.870446,44.2317696 C130.771179,44.6334793 130.431416,44.9557693 130.007471,45.0115401 L101.146291,48.8082878 C97.8850326,49.237313 94.9621104,46.9297885 94.6178798,43.655417 L94.6068249,43.5502611 C94.2625413,40.275384 96.6330375,37.3421802 99.9008821,36.9988297 L112.995731,35.6229614 L111.969985,6.5520955 C111.946167,5.87706452 112.465526,5.33009654 113.129185,5.3071614 L129.935698,4.72635166 C130.603529,4.70327235 131.15637,5.22360729 131.179821,5.88823027 L132.488262,42.9709864 C132.51208,43.6460174 131.992721,44.1929854 131.329062,44.2159205 L130.870446,44.2317696 Z" id="Combined-Shape-Copy" transform="translate(113.531325, 26.792616) scale(-1, 1) translate(-113.531325, -26.792616) "></path>
                                        </g>
                                        <path d="M51.5395256,125.535383 L76.4072079,335.227634 C80.5862254,370.466446 112.88313,399.110225 148.430855,399.110225 L206.325489,399.110225 C241.892651,399.110225 274.169377,370.472697 278.349136,335.227634 L303.216818,125.535383 C306.735632,95.8636149 299.675459,67.8356325 283.700386,45.5292374 C269.84438,48.03147 243.84051,43.3975349 216.361958,33.4153802 C189.450086,23.6390836 166.86423,10.8106585 157.517095,0.128923664 C143.035139,0.777304643 129.496264,3.85163685 117.248144,8.95119373 C102.013562,15.2941774 88.7759271,24.7704144 78.2042904,36.6087678 C67.2448542,48.8813876 59.1505974,63.6926013 54.6669329,80.1832578 C50.8407846,94.2556084 49.6439103,109.550948 51.5395256,125.535383 Z M222.710937,16.1176331 C240.425903,22.5529626 256.823762,24.8046935 262.251104,23.292733 C242.855112,8.30525951 218.453064,0.065461337 191.772536,0.00038840809 C197.908319,5.1294239 209.352983,11.2650788 222.710937,16.1176331 Z" id="Combined-Shape" fill="#000000" fill-rule="nonzero"></path>
                                        <g id="Group" transform="translate(78.305241, 63.607762)">
                                            <g id="Group-3" transform="translate(103.921901, 0.000000)">
                                                <path d="M47.2696913,65.844609 C68.9488081,65.8975295 86.4799671,48.2778854 86.4266308,26.4900323 C86.3732944,4.70217926 7.91960395,26.2983901 7.91960395,26.2983901 C7.91960395,26.2983901 25.5905745,65.7916885 47.2696913,65.844609 Z" id="Oval-3-Copy-4" fill="#FFFFFF" transform="translate(47.173178, 41.300667) rotate(-30.000000) translate(-47.173178, -41.300667) "></path>
                                                <ellipse id="Oval-3-Copy-5" fill="#000000" cx="28.2663217" cy="37.775892" rx="12.6349829" ry="12.6625631"></ellipse>
                                            </g>
                                            <g id="Group-3-Copy" transform="translate(47.311212, 41.500000) scale(-1, 1) translate(-47.311212, -41.500000) translate(0.311212, 0.000000)">
                                                <path d="M47.2696913,65.844609 C68.9488081,65.8975295 86.4799671,48.2778854 86.4266308,26.4900323 C86.3732944,4.70217926 7.91960395,26.2983901 7.91960395,26.2983901 C7.91960395,26.2983901 25.5905745,65.7916885 47.2696913,65.844609 Z" id="Oval-3-Copy-4" fill="#FFFFFF" transform="translate(47.173178, 41.300667) rotate(-30.000000) translate(-47.173178, -41.300667) "></path>
                                                <ellipse id="Oval-3-Copy-5" stroke="#000000" stroke-width="2" fill="#000000" cx="28.2663217" cy="37.775892" rx="12.6349829" ry="12.6625631"></ellipse>
                                            </g>
                                        </g>
                                        <path d="M97.1161351,294.253439 L90.5637573,265.762772 L85.8815735,266.847899 L91.6569954,291.960251 L86.4776905,289.784612 L80.9530683,265.762772 L76.2708844,266.847899 L81.0185509,287.491425 L75.839246,285.315786 L71.3423792,265.762772 L66.6601954,266.847899 L70.3801063,283.022598 L48.6795246,273.906968 C48.6795246,273.906968 33.1788677,230.213324 28.7441989,220.308967 C21.2756807,203.628833 63.2007545,175.185776 85.1998258,195.325136 C107.198897,215.464496 120.031789,303.879477 120.031789,303.879477 L97.1161351,294.253439 Z" id="Combined-Shape-Copy-13" fill="#000000" transform="translate(73.948204, 246.131587) scale(-1, 1) rotate(-315.000000) translate(-73.948204, -246.131587) "></path>
                                        <path d="M354.128257,246.226367 L347.575879,217.7357 L342.893695,218.820827 L348.669117,243.933179 L343.489812,241.75754 L337.96519,217.7357 L333.283006,218.820827 L338.030673,239.464353 L332.851368,237.288714 L328.354501,217.7357 L323.672317,218.820827 L327.392228,234.995526 L305.691647,225.879896 C305.691647,225.879896 290.19099,182.186252 285.756321,172.281895 C278.287803,155.601761 320.212876,127.158704 342.211948,147.298064 C364.211019,167.437424 377.043911,255.852406 377.043911,255.852406 L354.128257,246.226367 Z" id="Combined-Shape-Copy-4" fill="#000000" transform="translate(330.960326, 198.104515) rotate(-135.000000) translate(-330.960326, -198.104515) "></path>
                                        <polygon id="Rectangle-2-Copy-18" fill="#FFFFFF" points="57.2630577 172.711646 178.763916 266.325637 294.926473 177.168698 275.502726 367.574579 84.5660687 369.778264"></polygon>
                                        <path d="M68.6794766,295.000257 L80.3383249,387.526408 L125.528323,421.793643 L158.847185,417.012156 L180.120884,405.504061 L204.701107,419.414999 L240.612658,421.804623 L278.307495,385.381118 L288.163481,279.163173 L297.657544,171.886108 L213.200911,340.30737 L213.068538,340.47188 L175.632926,370.77372 L134.848621,330.911765 L134.746347,330.768462 L56.9481214,166.741569 L68.6794766,295.000257 Z" id="Rectangle-2-Copy-17" stroke="#000000" fill="#000000"></path>
                                        <path d="M224.285504,300.434573 L224.285504,299.274081 C224.285504,298.081875 224.62552,297.175052 225.305561,296.553583 C225.985602,295.932114 226.880873,295.583336 227.991399,295.507237 C228.478034,295.469188 228.952184,295.450164 229.413864,295.450164 C231.123326,295.450164 232.583209,295.678455 233.793558,296.135045 L233.793558,299.007739 C232.658076,298.880908 231.16076,298.817494 229.301564,298.817494 C228.75254,298.817494 228.384449,298.861884 228.197282,298.950665 C228.010115,299.039447 227.916532,299.274079 227.916532,299.65457 L227.916532,299.86384 C227.916532,300.193599 227.985159,300.428231 228.122416,300.567745 C228.259672,300.707258 228.565374,300.777014 229.039531,300.777014 L230.798895,300.777014 C232.283756,300.777014 233.313161,301.43018 233.887141,302.736534 C234.161653,303.370685 234.298907,304.061901 234.298907,304.8102 L234.298907,305.438007 C234.298907,308.279008 233.032427,309.699487 230.499429,309.699487 C228.677667,309.699487 227.486053,309.670951 226.92455,309.613877 C226.363048,309.556803 225.626868,309.369731 224.715987,309.052655 L224.715987,306.179961 C226.088547,306.319475 227.704401,306.389231 229.563597,306.389231 C229.962887,306.389231 230.246754,306.328987 230.415204,306.208498 C230.583655,306.088009 230.667879,305.888254 230.667879,305.609228 L230.667879,305.304836 C230.667879,305.013126 230.599252,304.800688 230.461996,304.667517 C230.32474,304.534345 230.062709,304.46776 229.675897,304.46776 L227.991399,304.46776 C227.317597,304.46776 226.734267,304.353614 226.241393,304.125319 C225.748519,303.897025 225.383548,303.630685 225.146469,303.326292 C224.909391,303.021899 224.715987,302.660438 224.566254,302.241897 C224.379086,301.658478 224.285504,301.056042 224.285504,300.434573 Z M235.571639,309.547291 L235.571639,295.621384 L241.691981,295.621384 C243.01463,295.621384 244.044035,295.96065 244.780227,296.639193 C245.516419,297.317736 245.884509,298.468704 245.884509,300.092133 C245.884509,301.677513 245.66615,302.749214 245.229426,303.307267 C244.992348,303.586294 244.783347,303.786049 244.602419,303.906538 C244.421491,304.027027 244.175057,304.150685 243.863112,304.277515 L246.221409,309.547291 L242.085031,309.547291 L240.325666,304.619955 L239.202668,304.353613 L239.202668,309.547291 L235.571639,309.547291 Z M239.221384,301.576041 L241.224065,301.576041 C241.660789,301.576041 241.938416,301.468237 242.056956,301.252625 C242.175495,301.037014 242.234764,300.675553 242.234764,300.168231 C242.234764,299.660909 242.163017,299.299448 242.019522,299.083837 C241.876027,298.868225 241.610878,298.760421 241.224065,298.760421 L239.221384,298.760421 L239.221384,301.576041 Z M246.708041,305.495081 L246.708041,302.565313 L252.585067,302.565313 L252.585067,305.495081 L246.708041,305.495081 Z M253.277583,298.931641 L253.277583,295.621384 L262.280287,295.621384 L263.15997,297.105292 L258.873859,309.547291 L255.01823,309.547291 L258.724125,298.931641 L253.277583,298.931641 Z M269.710794,295.621384 L269.710794,309.547291 L266.079766,309.547291 L266.079766,299.121885 L263.871202,299.502375 L263.871202,297.162366 L266.117199,295.621384 L269.710794,295.621384 Z" id="SR-71-Copy-11" fill="#FFFFFF" transform="translate(246.998149, 302.574826) rotate(-426.000000) translate(-246.998149, -302.574826) "></path>
                                        <path d="M156.452258,140.48225 C156.455373,139.37868 157.358654,138.481517 158.451479,138.478433 L197.590685,138.367954 C198.691709,138.364847 199.298654,139.213071 198.944779,140.267145 L189.748792,167.658893 C189.395613,168.710895 188.266214,169.884176 187.241423,170.273706 L158.202887,181.31146 C157.171284,181.703579 156.337516,181.13205 156.340645,180.023265 L156.452258,140.48225 Z" id="Rectangle-4-Copy-7" fill="#F5A623" transform="translate(177.693148, 159.901466) rotate(-315.000000) translate(-177.693148, -159.901466) "></path>
                                    </g>
                                </g>
                                <g id="Group" transform="translate(248.858327, 90.434070) rotate(22.000000) translate(-248.858327, -90.434070) translate(176.858327, 22.934070)" fill-rule="nonzero">
                                    <path d="M114.780748,100.3139 C115.014159,103.779628 115.338696,107.227624 115.770347,110.627261 C115.770347,117.017095 96.1654067,122.196343 71.9801714,122.196343 C47.7949361,122.196343 28.1899956,117.017095 28.1899956,110.627261 L28.1915943,110.627261 C28.6248438,107.221176 28.9493813,103.768344 29.1811938,100.299392 C11.4787143,103.75706 9.66338121e-13,109.302224 9.66338121e-13,115.558266 C9.66338121e-13,126.037659 32.2091443,134.532721 71.9418025,134.532721 C111.676059,134.532721 143.883605,126.037659 143.883605,115.558266 C143.883605,109.311896 132.438464,103.771568 114.780748,100.3139 Z" id="Shape" fill="#000000"></path>
                                    <path d="M118.010135,30.2949193 C116.646439,37.0667898 99.2125417,42.4539812 71.9785727,42.4539812 C44.7493998,42.4539812 27.3107069,37.0700137 25.9470101,30.2997552 C25.9470101,30.2997552 31.2691048,71.9320092 29.3954205,112.410095 C31.3266582,118.145472 49.6494359,122.644469 71.9785727,122.644469 C94.3141043,122.644469 112.638481,118.145472 114.563324,112.406871 C112.694436,71.9997118 117.974964,30.4432202 118.010135,30.2949193 Z" id="Shape" fill="#5F3EFF"></path>
                                    <path d="M122.806256,14.1752561 C121.442559,20.9471266 99.2125417,26.3343181 71.9785727,26.3343181 C44.7493998,26.3343181 22.5145868,20.9503506 21.1508899,14.180092 C21.1508899,14.180092 31.2691048,55.8123461 29.3954205,96.2904322 C31.3266582,102.025808 49.6494359,106.524806 71.9785727,106.524806 C94.3141043,106.524806 112.638481,102.025808 114.563324,96.2872083 C112.694436,55.8800486 122.771084,14.323557 122.806256,14.1752561 Z" id="Shape-Copy" fill="#000000"></path>
                                    <path d="M123.456546,13.0976681 C123.456546,13.3136716 123.437361,13.5264512 123.394196,13.7392307 C122.06727,20.5175491 99.8164696,25.9111884 72.5649148,25.9111884 C45.335742,25.9111884 23.1009289,20.5272209 21.737232,13.7569624 C21.6924683,13.5393469 21.6716851,13.3185075 21.6716851,13.0976681 C21.6716851,6.02113601 44.458052,0.28414789 72.5649148,0.28414789 C100.671778,0.28414789 123.456546,6.01952404 123.456546,13.0976681 Z" id="Shape" fill="#000000"></path>
                                </g>
                                <path d="M103.568128,301.78162 C102.624544,301.204682 101.94915,301.624718 102.060297,302.726781 L111.007805,391.444925 C111.118637,392.543861 111.948209,392.914711 112.848038,392.282148 L244.030314,300.063474 C244.935815,299.426924 245.685521,299.808818 245.704741,300.911516 L247.21637,387.633596 C247.235629,388.738507 246.486417,389.166575 245.542734,388.589576 L103.568128,301.78162 Z" id="Path-8-Copy" fill="#FF4329"></path>
                                <g id="Group-2-Copy" transform="translate(173.553881, 409.142643)" fill="#000000">
                                    <ellipse id="Oval-10-Copy" cx="5.00137047" cy="5.94633079" rx="5" ry="4.99866674"></ellipse>
                                    <ellipse id="Oval-10-Copy-2" cx="5.00137047" cy="25.9409978" rx="5" ry="4.99866674"></ellipse>
                                </g>
                            </g>
                        </g>
                    </g>
                </g>
            </g>
        </g>
    </g>
</svg>