<?xml version="1.0" encoding="UTF-8"?>
<svg width="36px" height="36px" viewBox="0 0 36 36" version="1.1" xmlns="http://www.w3.org/2000/svg" xmlns:xlink="http://www.w3.org/1999/xlink">
    <!-- Generator: Sketch 52.4 (67378) - http://www.bohemiancoding.com/sketch -->
    <title>learn-more</title>
    <desc>Created with Sketch.</desc>
    <defs>
        <polygon id="path-1" points="0 0 17.979 0 17.979 10.273 0 10.273"></polygon>
    </defs>
    <g id="Page-1" stroke="none" stroke-width="1" fill="none" fill-rule="evenodd">
        <g id="learn-more" transform="translate(2.000000, 2.000000)">
            <circle id="Oval" stroke="#5F3EFF" stroke-width="3" fill="#5F3EFF" cx="16" cy="16" r="16"></circle>
            <path d="M16.734,17.8 L8.58,17.8 C7.711,17.8 7,17.106 7,16.257 C7,15.409 7.711,14.714 8.58,14.714 L16.734,14.714 C17.604,14.714 18.314,15.409 18.314,16.257 C18.314,17.106 17.604,17.8 16.734,17.8" id="Path" fill="#FFFFFF"></path>
            <g id="Group" transform="translate(19.500000, 16.000000) rotate(90.000000) translate(-19.500000, -16.000000) translate(10.500000, 10.500000)">
                <g id="Clipped">
                    <mask id="mask-2" fill="white">
                        <use xlink:href="#path-1"></use>
                    </mask>
                    <g id="a"></g>
                    <path d="M10.058,0.436 C9.45257152,-0.145962521 8.49535322,-0.145079071 7.891,0.438 L0.454,7.696 C0.164047456,7.97585162 0.000277242064,8.36152431 0.000277242064,8.7645 C0.000277242064,9.16747569 0.164047456,9.55314838 0.454,9.833 C1.06912436,10.4199219 2.03687564,10.4199219 2.652,9.833 L7.907,4.726 C8.51163302,4.14476243 9.46736698,4.14476243 10.072,4.726 L15.327,9.833 C15.9421244,10.4199219 16.9098756,10.4199219 17.525,9.833 C17.8149525,9.55314838 17.9787228,9.16747569 17.9787228,8.7645 C17.9787228,8.36152431 17.8149525,7.97585162 17.525,7.696 L10.058,0.436 Z" id="Path" fill="#FFFFFF" mask="url(#mask-2)"></path>
                </g>
            </g>
        </g>
    </g>
</svg>