<svg width="397" height="553" viewBox="0 0 397 553" fill="none" xmlns="http://www.w3.org/2000/svg">
<g id="front copy 2">
<g id="Group 2">
<g id="Group 17 Copy 2">
<g id="Group 16">
<path id="Oval 8 Copy 10" fill-rule="evenodd" clip-rule="evenodd" d="M192.586 521.42C237.733 520.635 274.409 524.429 274.505 529.893C274.601 535.357 238.08 540.423 192.933 541.207C147.786 541.992 111.109 538.198 111.014 532.734C110.918 527.27 147.439 522.204 192.586 521.42Z" fill="#CBCED3"/>
<path id="Combined Shape" fill-rule="evenodd" clip-rule="evenodd" d="M246.639 138.779C241.769 140.414 226.733 139.146 210.297 134.133C197.904 130.352 187.191 125.312 181.36 120.935C205.654 119.721 228.264 126.059 246.639 138.779ZM77.2584 336.456L59.6757 241.919C57.1872 227.456 57.5471 213.474 60.3591 200.479C63.6544 185.251 70.3171 171.38 79.7096 159.683C88.7697 148.401 100.37 139.142 113.937 132.64C124.845 127.412 137.025 123.967 150.179 122.686C159.199 131.965 180.374 142.567 205.343 150.184C230.837 157.961 254.733 160.939 267.229 158C282.838 177.547 290.603 202.728 288.815 229.91L282.498 325.961L256.841 420.993C254.717 453.282 246.036 481.913 213.654 483.61L160.944 486.372C128.58 488.068 119.424 459.877 113.937 427.993L77.2584 336.456Z" fill="black"/>
<g id="Group">
<g id="Group 3">
<path id="Oval 3 Copy 4" fill-rule="evenodd" clip-rule="evenodd" d="M232.887 233.371C249.489 222.647 254.145 200.469 243.286 183.836C232.426 167.204 183.163 222.672 183.163 222.672C183.163 222.672 216.285 244.095 232.887 233.371Z" fill="white"/>
<path id="Oval 3 Copy 5" fill-rule="evenodd" clip-rule="evenodd" d="M203.848 223.874C210.201 223.541 215.081 218.109 214.747 211.742C214.413 205.375 208.992 200.484 202.639 200.817C196.286 201.15 191.406 206.581 191.74 212.948C192.074 219.315 197.494 224.207 203.848 223.874Z" fill="black"/>
</g>
<g id="Group 3 Copy">
<path id="Oval 3 Copy 4_2" fill-rule="evenodd" clip-rule="evenodd" d="M115.74 239.51C98.107 230.58 91.1588 209.011 100.22 191.334C109.282 173.657 164.073 223.673 164.073 223.673C164.073 223.673 133.372 248.44 115.74 239.51Z" fill="white"/>
<path id="Oval 3 Copy 5_2" fill-rule="evenodd" clip-rule="evenodd" d="M143.627 227.03C137.274 227.363 131.853 222.472 131.519 216.104C131.185 209.737 136.065 204.306 142.418 203.973C148.772 203.64 154.192 208.532 154.526 214.899C154.86 221.266 149.98 226.697 143.627 227.03Z" fill="black" stroke="black" stroke-width="2"/>
</g>
</g>
<path id="Combined Shape Copy 13" fill-rule="evenodd" clip-rule="evenodd" d="M35.8572 329.493C35.8545 353.493 96.8441 417.098 96.8441 417.098L104.302 395.7L88.9961 373.88L92.5876 371.369L106.079 390.602L107.764 385.766L94.8591 367.368L98.4506 364.858L109.541 380.668L111.227 375.83L100.723 360.857L104.315 358.346L113.003 370.733L120.065 350.47C120.065 350.47 99.9178 313.313 95.9127 304.267C89.1676 289.031 35.8588 316.211 35.8572 329.493Z" fill="black"/>
<path id="Combined Shape Copy 4" fill-rule="evenodd" clip-rule="evenodd" d="M281.828 305.422C302.291 287.516 383.698 284.791 383.698 284.791L372.509 304.871L349.864 307.496L350.376 311.848L369.882 309.587L367.389 314.061L348.896 316.204L349.408 320.556L364.761 318.776L362.268 323.251L347.929 324.913L348.44 329.265L359.64 327.967L349.355 346.426C349.355 346.426 303.778 360.379 298.781 359.093C293.784 357.808 261.364 323.328 281.828 305.422Z" fill="black"/>
<path id="Rectangle 2 Copy 18" fill-rule="evenodd" clip-rule="evenodd" d="M67.1377 284.597L182.225 364.031L283.731 277.315L254 464.288L122 464.288L67.1377 284.597Z" fill="white"/>
<path id="Rectangle 2 Copy 17" d="M83.4049 395.344L66.6456 279.416L145.185 424.824L145.228 424.903L145.295 424.962L184.024 459.04L184.359 459.334L184.689 459.036L217.025 429.933L217.105 429.861L217.149 429.762L285.913 272.605L282.398 370.46L257.401 505.621L230.17 515.523L229.983 515.591L229.894 515.77L221.532 532.493L211.257 532.493L208.832 519.402L208.784 519.139L208.538 519.034L191.038 511.534L190.817 511.439L190.605 511.552L176.606 519.052L176.384 519.171L176.347 519.42L174.41 532.493L163.117 532.493L154.764 519.227L154.69 519.11L154.567 519.047L120.247 501.639L83.4049 395.344Z" fill="black" stroke="black"/>
<g id="Group 12">
<path id="Vector" d="M168.842 526.138L168.842 529.287C168.842 529.777 168.486 530.195 168.002 530.274L144.455 534.101C144.306 534.125 144.153 534.115 144.008 534.072L131.947 530.468C131.364 530.294 131.07 529.643 131.325 529.091L133.529 524.315C133.715 523.913 134.142 523.681 134.58 523.744L144.157 525.127C144.204 525.134 144.252 525.138 144.3 525.138L154.592 525.138L167.842 525.138C168.394 525.138 168.842 525.585 168.842 526.138Z" fill="black"/>
<path id="Line (Stroke)" fill-rule="evenodd" clip-rule="evenodd" d="M138.944 527.005L139.944 524.005L143.738 525.27L142.738 528.27L138.944 527.005Z" fill="white"/>
<path id="Line (Stroke)_2" fill-rule="evenodd" clip-rule="evenodd" d="M143.945 527.005L144.945 524.005L148.739 525.27L147.739 528.27L143.945 527.005Z" fill="white"/>
</g>
<g id="Group 12.1">
<path id="Vector_2" d="M214.842 525.993L214.842 529.143C214.842 529.633 215.197 530.051 215.681 530.13L239.229 533.956C239.378 533.981 239.531 533.971 239.675 533.927L251.737 530.323C252.32 530.149 252.614 529.499 252.359 528.946L250.154 524.17C249.969 523.769 249.541 523.537 249.104 523.6L239.527 524.983C239.479 524.99 239.431 524.993 239.384 524.993L229.092 524.993L215.842 524.993C215.29 524.993 214.842 525.441 214.842 525.993Z" fill="black"/>
<path id="Line (Stroke)_3" fill-rule="evenodd" clip-rule="evenodd" d="M244.74 526.861L243.74 523.861L239.945 525.126L240.945 528.126L244.74 526.861Z" fill="white"/>
<path id="Line (Stroke)_4" fill-rule="evenodd" clip-rule="evenodd" d="M239.739 526.861L238.739 523.861L234.944 525.125L235.944 528.125L239.739 526.861Z" fill="white"/>
</g>
<path id="&#194;&#174;" d="M271.328 496.147C270.444 496.147 269.616 495.989 268.846 495.671C268.075 495.331 267.395 494.867 266.806 494.277C266.239 493.688 265.786 492.985 265.446 492.169C265.106 491.353 264.936 490.447 264.936 489.449C264.936 488.452 265.106 487.545 265.446 486.729C265.786 485.913 266.239 485.211 266.806 484.621C267.395 484.032 268.075 483.579 268.846 483.261C269.616 482.921 270.444 482.751 271.328 482.751C272.212 482.751 273.039 482.921 273.81 483.261C274.603 483.579 275.283 484.032 275.85 484.621C276.439 485.211 276.904 485.913 277.244 486.729C277.584 487.545 277.754 488.452 277.754 489.449C277.754 490.447 277.584 491.353 277.244 492.169C276.904 492.985 276.439 493.688 275.85 494.277C275.283 494.867 274.603 495.331 273.81 495.671C273.039 495.989 272.212 496.147 271.328 496.147ZM271.328 494.889C272.03 494.889 272.688 494.765 273.3 494.515C273.934 494.243 274.478 493.869 274.932 493.393C275.385 492.917 275.736 492.351 275.986 491.693C276.258 491.013 276.394 490.265 276.394 489.449C276.394 488.656 276.258 487.931 275.986 487.273C275.736 486.593 275.385 486.015 274.932 485.539C274.478 485.041 273.934 484.655 273.3 484.383C272.688 484.111 272.03 483.975 271.328 483.975C270.602 483.975 269.934 484.111 269.322 484.383C268.71 484.655 268.177 485.041 267.724 485.539C267.293 486.015 266.942 486.593 266.67 487.273C266.42 487.931 266.296 488.656 266.296 489.449C266.296 490.265 266.42 491.013 266.67 491.693C266.942 492.351 267.293 492.917 267.724 493.393C268.177 493.869 268.71 494.243 269.322 494.515C269.934 494.765 270.602 494.889 271.328 494.889ZM268.88 492.815L268.88 485.913L271.464 485.913C272.189 485.913 272.812 486.083 273.334 486.423C273.855 486.741 274.116 487.307 274.116 488.123C274.116 488.531 274.002 488.917 273.776 489.279C273.549 489.619 273.243 489.857 272.858 489.993L274.422 492.815L272.858 492.815L271.668 490.435L270.274 490.435L270.274 492.815L268.88 492.815ZM270.274 489.347L271.158 489.347C272.132 489.347 272.62 488.962 272.62 488.191C272.62 487.851 272.518 487.579 272.314 487.375C272.11 487.171 271.747 487.069 271.226 487.069L270.274 487.069L270.274 489.347Z" fill="black"/>
<path id="SR-71 Copy 11" fill-rule="evenodd" clip-rule="evenodd" d="M236.835 412.411L235.847 412.032C234.833 411.642 234.172 411.056 233.865 410.275C233.558 409.493 233.554 408.617 233.852 407.647C233.979 407.22 234.117 406.81 234.268 406.417C234.827 404.962 235.498 403.794 236.282 402.913L238.727 403.852C238.248 404.777 237.705 406.031 237.098 407.613C236.918 408.08 236.836 408.408 236.85 408.596C236.865 408.785 237.034 408.941 237.358 409.065L237.536 409.134C237.816 409.241 238.039 409.26 238.202 409.188C238.366 409.117 238.525 408.88 238.68 408.476L239.255 406.979C239.74 405.715 240.632 405.052 241.932 404.99C242.561 404.964 243.194 405.073 243.831 405.318L244.365 405.523C246.784 406.451 247.579 407.993 246.751 410.149C246.156 411.699 245.742 412.704 245.51 413.164C245.278 413.623 244.879 414.188 244.311 414.86L241.866 413.922C242.433 412.799 243.021 411.446 243.628 409.864C243.758 409.524 243.8 409.263 243.752 409.08C243.705 408.897 243.562 408.76 243.325 408.669L243.066 408.57C242.818 408.474 242.614 408.463 242.456 408.537C242.298 408.61 242.156 408.811 242.029 409.14L241.479 410.574C241.259 411.148 240.971 411.607 240.616 411.952C240.26 412.297 239.914 412.52 239.578 412.623C239.241 412.725 238.87 412.772 238.465 412.762C237.908 412.731 237.364 412.614 236.835 412.411ZM248.279 405.782L236.426 401.232L238.426 396.023C238.858 394.897 239.483 394.132 240.301 393.727C241.119 393.322 242.219 393.385 243.601 393.915C244.95 394.433 245.791 394.969 246.123 395.523C246.283 395.816 246.385 396.059 246.429 396.252C246.472 396.446 246.497 396.696 246.503 397.003L251.759 396.717L250.407 400.238L245.638 400.126L245.045 400.994L249.465 402.691L248.279 405.782ZM242.688 400.071L243.342 398.367C243.485 397.995 243.484 397.723 243.339 397.552C243.194 397.381 242.906 397.212 242.474 397.046C242.043 396.881 241.711 396.824 241.481 396.875C241.251 396.927 241.072 397.117 240.946 397.447L240.292 399.151L242.688 400.071ZM248.469 394.979L245.976 394.022L247.896 389.02L250.39 389.977L248.469 394.979ZM245.029 387.243L242.211 386.162L245.153 378.499L246.703 378.235L255.893 385.948L254.633 389.23L246.808 382.607L245.029 387.243ZM247.58 372.175L259.433 376.725L258.247 379.815L249.373 376.409L248.976 378.413L246.984 377.649L246.406 375.233L247.58 372.175Z" fill="white"/>
<path id="Rectangle 4 Copy 7" fill-rule="evenodd" clip-rule="evenodd" d="M173.515 241.197C174.253 240.381 175.511 240.315 176.331 241.049L202.065 264.089C203.085 265.002 202.906 266.647 201.714 267.32L178.835 280.234C178.314 280.528 177.688 280.573 177.129 280.357L150.918 270.197C149.611 269.69 149.217 268.029 150.159 266.989L173.515 241.197Z" fill="#F5A623"/>
</g>
</g>
<g id="Group_2">
<path id="Shape" d="M258.952 130.188C258.124 133.245 257.381 136.313 256.744 139.372C254.847 144.88 236.41 143.526 215.561 136.347C194.713 129.168 179.35 118.884 181.247 113.376L181.248 113.377C182.633 110.569 183.937 107.689 185.167 104.768C168.88 102.494 157.339 103.867 155.483 109.26C152.372 118.293 177.616 135.176 211.866 146.97C246.119 158.764 276.404 161.001 279.514 151.967C281.368 146.583 273.147 138.409 258.952 130.188Z" fill="black"/>
<path id="Shape_2" d="M282.519 70.7881C279.334 76.2209 262.706 75.6901 239.23 67.6065C215.757 59.5243 202.323 49.707 203.157 43.4661C203.157 43.4661 195.387 80.934 181.757 115.271C181.72 120.788 196.179 130.105 215.428 136.733C234.681 143.363 251.813 144.923 255.176 140.548C265.558 105.161 282.445 70.9055 282.519 70.7881Z" fill="#5F3EFF"/>
<path id="Shape Copy" d="M291.437 58.3159C288.252 63.7487 267.49 61.7943 244.013 53.7107C220.541 45.6286 202.972 34.3877 203.806 28.1467C203.806 28.1467 200.171 67.0382 186.541 101.375C186.504 106.893 200.963 116.209 220.211 122.837C239.465 129.467 256.597 131.028 259.959 126.652C270.342 91.2653 291.363 58.4333 291.437 58.3159Z" fill="black"/>
<path id="Shape_3" d="M292.319 57.5804C292.255 57.7666 292.175 57.9444 292.075 58.115C288.919 63.5642 268.137 61.6092 244.646 53.5204C221.173 45.4382 203.604 34.1973 204.438 27.9564C204.464 27.7555 204.512 27.559 204.578 27.3686C206.678 21.2684 228.023 23.0865 252.252 31.4291C276.481 39.7718 294.42 51.4789 292.319 57.5804Z" fill="black"/>
</g>
<path id="Path 8 Copy" fill-rule="evenodd" clip-rule="evenodd" d="M111.556 289.606C110.102 288.819 108.375 290.035 108.627 291.67L120.427 368.259C120.66 369.77 122.435 370.472 123.638 369.528L235.891 281.49C237.154 280.5 239.009 281.324 239.121 282.924L244.373 358.054C244.483 359.628 242.812 360.704 241.425 359.952L111.556 289.606Z" fill="#FF4329"/>
<g id="Group 2 Copy">
<path id="Oval 10 Copy" fill-rule="evenodd" clip-rule="evenodd" d="M183.535 392.691C186.049 392.559 187.981 390.415 187.849 387.902C187.717 385.388 185.572 383.457 183.058 383.589C180.544 383.721 178.613 385.865 178.744 388.379C178.876 390.892 181.021 392.823 183.535 392.691Z" fill="black"/>
<path id="Oval 10 Copy 2" fill-rule="evenodd" clip-rule="evenodd" d="M184.49 410.895C187.004 410.763 188.936 408.619 188.804 406.106C188.672 403.592 186.527 401.661 184.013 401.793C181.499 401.925 179.568 404.069 179.699 406.583C179.831 409.096 181.976 411.027 184.49 410.895Z" fill="black"/>
</g>
</g>
</g>
</svg>
