<svg width="666" height="410" viewBox="0 0 666 410" fill="none" xmlns="http://www.w3.org/2000/svg">
<g opacity="0.573451" filter="url(#filter0_f)">
<path fill-rule="evenodd" clip-rule="evenodd" d="M26.7071 188.284C14.5303 195.672 14.5117 213.336 26.6729 220.75L326.62 403.615C332.688 407.315 340.315 407.318 346.387 403.624L673 204.876L346.361 6.30409C340.302 2.62085 332.696 2.61763 326.634 6.29578L26.7071 188.284Z" fill="url(#paint0_linear)"/>
</g>
<path fill-rule="evenodd" clip-rule="evenodd" d="M281 142.149V178.317C281 181.156 282.504 183.781 284.952 185.218L356.166 226.992C362.885 230.934 371.235 230.832 377.856 226.728L442.88 186.419C446.409 184.23 448.557 180.373 448.557 176.219V142.149L364.778 106.721L281 142.149Z" fill="url(#paint1_linear)"/>
<path fill-rule="evenodd" clip-rule="evenodd" d="M284.85 136.446C280.201 139.157 280.223 145.883 284.89 148.563L361.654 192.648C365.14 194.65 369.441 194.591 372.871 192.493L444.87 148.465C449.316 145.746 449.338 139.296 444.911 136.547L372.933 91.8491C369.473 89.7 365.108 89.6394 361.589 91.6917L284.85 136.446Z" fill="#5630EB"/>
<g filter="url(#filter1_f)">
<path fill-rule="evenodd" clip-rule="evenodd" d="M321.542 136.286C316.893 138.998 316.916 145.723 321.583 148.403L360.414 170.704C363.901 172.706 368.201 172.647 371.631 170.55L408.006 148.306C412.452 145.587 412.474 139.137 408.047 136.387L371.693 113.812C368.233 111.663 363.868 111.602 360.349 113.655L321.542 136.286Z" fill="#6C52DA" style="mix-blend-mode:lighten"/>
</g>
<g filter="url(#filter2_f)">
<path fill-rule="evenodd" clip-rule="evenodd" d="M313.44 136.1C308.791 138.812 308.813 145.537 313.48 148.217L360.641 175.302C364.127 177.304 368.428 177.244 371.858 175.147L416.055 148.12C420.502 145.401 420.524 138.951 416.096 136.201L371.92 108.768C368.46 106.619 364.094 106.559 360.576 108.611L313.44 136.1Z" fill="#7D60F4" style="mix-blend-mode:lighten"/>
</g>
<path fill-rule="evenodd" clip-rule="evenodd" d="M388 204.149V240.317C388 243.156 389.504 245.781 391.952 247.218L463.166 288.992C469.885 292.934 478.235 292.832 484.856 288.728L549.88 248.419C553.409 246.23 555.557 242.373 555.557 238.219V204.149L471.778 168.721L388 204.149Z" fill="url(#paint2_linear)"/>
<path fill-rule="evenodd" clip-rule="evenodd" d="M391.85 198.446C387.201 201.157 387.223 207.883 391.89 210.563L468.654 254.648C472.14 256.65 476.441 256.591 479.871 254.493L551.87 210.465C556.316 207.746 556.338 201.296 551.911 198.547L479.933 153.849C476.473 151.7 472.108 151.639 468.589 153.692L391.85 198.446Z" fill="#5630EB"/>
<g filter="url(#filter3_f)">
<path fill-rule="evenodd" clip-rule="evenodd" d="M428.542 198.286C423.893 200.998 423.916 207.723 428.583 210.403L467.414 232.704C470.901 234.706 475.201 234.647 478.631 232.55L515.006 210.306C519.452 207.587 519.474 201.137 515.047 198.387L478.693 175.812C475.233 173.663 470.868 173.602 467.349 175.655L428.542 198.286Z" fill="#6C52DA" style="mix-blend-mode:lighten"/>
</g>
<g filter="url(#filter4_f)">
<path fill-rule="evenodd" clip-rule="evenodd" d="M420.44 198.1C415.791 200.812 415.813 207.537 420.48 210.217L467.641 237.302C471.127 239.304 475.428 239.244 478.858 237.147L523.055 210.12C527.502 207.401 527.524 200.951 523.096 198.201L478.92 170.768C475.46 168.619 471.095 168.559 467.576 170.611L420.44 198.1Z" fill="#7D60F4" style="mix-blend-mode:lighten"/>
</g>
<path fill-rule="evenodd" clip-rule="evenodd" d="M174 204.149V240.317C174 243.156 175.504 245.781 177.952 247.218L249.166 288.992C255.885 292.934 264.235 292.832 270.856 288.728L335.88 248.419C339.409 246.23 341.557 242.373 341.557 238.219V204.149L257.778 168.721L174 204.149Z" fill="url(#paint3_linear)"/>
<path fill-rule="evenodd" clip-rule="evenodd" d="M177.85 198.446C173.201 201.157 173.223 207.883 177.89 210.563L254.654 254.648C258.14 256.65 262.441 256.591 265.871 254.493L337.87 210.465C342.316 207.746 342.338 201.296 337.911 198.547L265.933 153.849C262.473 151.7 258.108 151.639 254.589 153.692L177.85 198.446Z" fill="#5630EB"/>
<g filter="url(#filter5_f)">
<path fill-rule="evenodd" clip-rule="evenodd" d="M214.542 198.286C209.893 200.998 209.916 207.723 214.583 210.403L253.414 232.704C256.901 234.706 261.201 234.647 264.631 232.55L301.006 210.306C305.452 207.587 305.474 201.137 301.047 198.387L264.693 175.812C261.233 173.663 256.868 173.602 253.349 175.655L214.542 198.286Z" fill="#6C52DA" style="mix-blend-mode:lighten"/>
</g>
<g filter="url(#filter6_f)">
<path fill-rule="evenodd" clip-rule="evenodd" d="M206.44 198.1C201.791 200.812 201.813 207.537 206.48 210.217L253.641 237.302C257.127 239.304 261.428 239.244 264.858 237.147L309.055 210.12C313.502 207.401 313.524 200.951 309.096 198.201L264.92 170.768C261.46 168.619 257.094 168.559 253.576 170.611L206.44 198.1Z" fill="#7D60F4" style="mix-blend-mode:lighten"/>
</g>
<path fill-rule="evenodd" clip-rule="evenodd" d="M281 265.149V301.317C281 304.156 282.504 306.781 284.952 308.218L356.166 349.992C362.885 353.934 371.235 353.832 377.856 349.728L442.88 309.419C446.409 307.23 448.557 303.373 448.557 299.219V265.149L364.778 229.721L281 265.149Z" fill="url(#paint4_linear)"/>
<path fill-rule="evenodd" clip-rule="evenodd" d="M284.85 259.446C280.201 262.157 280.223 268.883 284.89 271.563L361.654 315.648C365.14 317.65 369.441 317.591 372.871 315.493L444.87 271.465C449.316 268.746 449.338 262.296 444.911 259.547L372.933 214.849C369.473 212.7 365.108 212.639 361.589 214.692L284.85 259.446Z" fill="#5630EB"/>
<g filter="url(#filter7_f)">
<path fill-rule="evenodd" clip-rule="evenodd" d="M321.542 259.286C316.893 261.998 316.916 268.723 321.583 271.403L360.414 293.704C363.901 295.706 368.201 295.647 371.631 293.55L408.006 271.306C412.452 268.587 412.474 262.137 408.047 259.387L371.693 236.812C368.233 234.663 363.868 234.602 360.349 236.655L321.542 259.286Z" fill="#6C52DA" style="mix-blend-mode:lighten"/>
</g>
<g filter="url(#filter8_f)">
<path fill-rule="evenodd" clip-rule="evenodd" d="M313.44 259.1C308.791 261.812 308.813 268.537 313.48 271.217L360.641 298.302C364.127 300.304 368.428 300.244 371.858 298.147L416.055 271.12C420.502 268.401 420.524 261.951 416.096 259.201L371.92 231.768C368.46 229.619 364.094 229.559 360.576 231.611L313.44 259.1Z" fill="#7D60F4" style="mix-blend-mode:lighten"/>
</g>
<g filter="url(#filter9_d)">
<path fill-rule="evenodd" clip-rule="evenodd" d="M282 85.852C282 88.0042 283.153 89.9916 285.021 91.0602L461.503 192.008C470.104 196.929 480.666 196.936 489.274 192.028L557.412 153.177C559.285 152.109 560.44 150.12 560.44 147.964V117.793L374.936 47.232C370.416 45.513 365.529 44.9936 360.749 45.7244L282 57.7649V85.852Z" fill="url(#paint5_linear)"/>
<path fill-rule="evenodd" clip-rule="evenodd" d="M286.313 51.3585C281.565 54.0225 281.542 60.8487 286.272 63.5446L460.863 163.056C469.517 167.988 480.14 167.952 488.76 162.961L556.226 123.894C560.902 121.186 560.877 114.425 556.18 111.753L382.52 12.9179C373.987 8.0611 363.532 8.02936 354.969 12.8343L286.313 51.3585Z" fill="url(#paint6_radial)"/>
<path d="M522.27 143.091L497.949 128.609C495.455 127.124 495.323 123.562 497.699 121.896L501.131 119.491C503.437 117.875 503.395 114.443 501.049 112.884L493.397 107.799" stroke="url(#paint7_radial)" stroke-linecap="round"/>
<path d="M420.205 139.423L447.577 121.395" stroke="url(#paint8_radial)" stroke-linecap="round" stroke-linejoin="round"/>
<path d="M349.735 99.4848L372.779 85.8162C376.172 83.8036 380.383 83.7621 383.815 85.7074L388.465 88.3436C391.798 90.2327 395.874 90.2517 399.225 88.3936L420.687 76.491C424.177 74.5554 428.442 74.6621 431.831 76.7699L446.109 85.6497" stroke="url(#paint9_radial)" stroke-linecap="round"/>
<path d="M306.941 74.8496L359.15 43.227C361.753 41.6504 361.712 37.8601 359.076 36.3402L336.807 23.5026" stroke="url(#paint10_radial)" stroke-linecap="round"/>
<path d="M436.378 43.4437L414.993 57.4647C411.872 59.5114 407.87 59.649 404.615 57.8218L379.003 43.4437" stroke="url(#paint11_radial)" stroke-linecap="round"/>
<path d="M514.356 86.9515L502.81 94.5076C499.692 96.5485 495.697 96.6859 492.446 94.8639L487.898 92.3155L485.088 90.7411C480.972 88.4344 475.886 88.7541 472.091 91.558L456.857 102.814" stroke="url(#paint12_radial)" stroke-linecap="round"/>
</g>
<path d="M195 187L171.908 174.001C167.477 171.506 162.083 171.427 157.579 173.79L139.488 183.285C135.063 185.607 129.772 185.573 125.377 183.194L101 170" stroke="#98B4F0"/>
<g filter="url(#filter10_d)">
<path fill-rule="evenodd" clip-rule="evenodd" d="M164 154.18C164 156.317 165.137 158.293 166.985 159.367L343.334 261.873C352.021 266.922 362.748 266.93 371.442 261.892L439.448 222.489C441.3 221.416 442.44 219.438 442.44 217.298V186.554L257.03 114.887C252.451 113.118 247.487 112.583 242.636 113.336L164 125.554V154.18Z" fill="url(#paint13_linear)"/>
<path fill-rule="evenodd" clip-rule="evenodd" d="M168.1 119.166C163.408 121.841 163.385 128.597 168.059 131.304L342.694 232.451C351.434 237.513 362.222 237.476 370.927 232.354L438.436 192.63C443.056 189.911 443.031 183.221 438.391 180.537L264.687 80.078C256.068 75.0931 245.45 75.0606 236.8 79.9926L168.1 119.166Z" fill="url(#paint14_radial)"/>
<path fill-rule="evenodd" clip-rule="evenodd" d="M300.411 100.897L283.08 111.706L343.596 146.851V164.255H325.65H312.614L220.802 111.706L268.819 82.6608L300.411 100.897Z" fill="url(#paint15_linear)"/>
<path fill-rule="evenodd" clip-rule="evenodd" d="M359.089 155.097V172.354H327.725L343.233 181.74H374.503V164.265L359.089 155.097Z" fill="url(#paint16_linear)"/>
<path d="M329.395 223.369L353.105 208.655C358.917 205.047 366.326 205.275 371.906 209.234L388.704 221.152" stroke="#FF8738" stroke-width="2" stroke-linecap="round"/>
<path d="M378.68 213.378L415.434 190.898" stroke="#FF8738" stroke-width="2" stroke-linecap="round"/>
<path d="M172.353 133.449L195.281 119.03C200.45 115.78 200.312 108.2 195.028 105.141V105.141" stroke="#FF8738" stroke-width="2" stroke-linecap="round"/>
<path d="M181.161 128.697L222.742 153.047" stroke="#FF8738" stroke-width="2" stroke-linecap="round"/>
<path d="M307.561 185.77L349.142 210.12" stroke="#FF8738" stroke-width="2" stroke-linecap="round"/>
</g>
<path d="M225 277L201.77 291.162C199.238 292.706 199.207 296.371 201.713 297.957L218.239 308.418C221.362 310.394 221.336 314.958 218.191 316.898L186.951 336.171C182.149 339.134 176.089 339.151 171.27 336.215L141.637 318.159C136.979 315.32 131.146 315.234 126.406 317.935L99 333.552" stroke="#98B4F0"/>
<path d="M533 262L572.475 282.44C576.788 284.673 581.915 284.68 586.234 282.458L626 262" stroke="#98B4F0" stroke-linecap="round"/>
<path d="M614 267L673 302" stroke="#98B4F0"/>
<path d="M550 197.651L574.741 183.384C579.437 180.676 585.228 180.712 589.89 183.479L643 215" stroke="#98B4F0" stroke-linecap="round"/>
<path d="M613 197L673 161" stroke="#98B4F0"/>
<defs>
<filter id="filter0_f" x="14.845" y="0.821147" width="660.873" height="408.29" filterUnits="userSpaceOnUse" color-interpolation-filters="sRGB">
<feFlood flood-opacity="0" result="BackgroundImageFix"/>
<feBlend mode="normal" in="SourceGraphic" in2="BackgroundImageFix" result="shape"/>
<feGaussianBlur stdDeviation="1.35914" result="effect1_foregroundBlur"/>
</filter>
<filter id="filter1_f" x="307.196" y="101.283" width="115.032" height="81.7547" filterUnits="userSpaceOnUse" color-interpolation-filters="sRGB">
<feFlood flood-opacity="0" result="BackgroundImageFix"/>
<feBlend mode="normal" in="SourceGraphic" in2="BackgroundImageFix" result="shape"/>
<feGaussianBlur stdDeviation="5.43656" result="effect1_foregroundBlur"/>
</filter>
<filter id="filter2_f" x="239.291" y="36.4376" width="250.788" height="211" filterUnits="userSpaceOnUse" color-interpolation-filters="sRGB">
<feFlood flood-opacity="0" result="BackgroundImageFix"/>
<feBlend mode="normal" in="SourceGraphic" in2="BackgroundImageFix" result="shape"/>
<feGaussianBlur stdDeviation="35.3377" result="effect1_foregroundBlur"/>
</filter>
<filter id="filter3_f" x="414.196" y="163.283" width="115.032" height="81.7547" filterUnits="userSpaceOnUse" color-interpolation-filters="sRGB">
<feFlood flood-opacity="0" result="BackgroundImageFix"/>
<feBlend mode="normal" in="SourceGraphic" in2="BackgroundImageFix" result="shape"/>
<feGaussianBlur stdDeviation="5.43656" result="effect1_foregroundBlur"/>
</filter>
<filter id="filter4_f" x="346.291" y="98.4376" width="250.788" height="211" filterUnits="userSpaceOnUse" color-interpolation-filters="sRGB">
<feFlood flood-opacity="0" result="BackgroundImageFix"/>
<feBlend mode="normal" in="SourceGraphic" in2="BackgroundImageFix" result="shape"/>
<feGaussianBlur stdDeviation="35.3377" result="effect1_foregroundBlur"/>
</filter>
<filter id="filter5_f" x="200.196" y="163.283" width="115.032" height="81.7547" filterUnits="userSpaceOnUse" color-interpolation-filters="sRGB">
<feFlood flood-opacity="0" result="BackgroundImageFix"/>
<feBlend mode="normal" in="SourceGraphic" in2="BackgroundImageFix" result="shape"/>
<feGaussianBlur stdDeviation="5.43656" result="effect1_foregroundBlur"/>
</filter>
<filter id="filter6_f" x="132.291" y="98.4376" width="250.788" height="211" filterUnits="userSpaceOnUse" color-interpolation-filters="sRGB">
<feFlood flood-opacity="0" result="BackgroundImageFix"/>
<feBlend mode="normal" in="SourceGraphic" in2="BackgroundImageFix" result="shape"/>
<feGaussianBlur stdDeviation="35.3377" result="effect1_foregroundBlur"/>
</filter>
<filter id="filter7_f" x="307.196" y="224.283" width="115.032" height="81.7547" filterUnits="userSpaceOnUse" color-interpolation-filters="sRGB">
<feFlood flood-opacity="0" result="BackgroundImageFix"/>
<feBlend mode="normal" in="SourceGraphic" in2="BackgroundImageFix" result="shape"/>
<feGaussianBlur stdDeviation="5.43656" result="effect1_foregroundBlur"/>
</filter>
<filter id="filter8_f" x="239.291" y="159.438" width="250.788" height="211" filterUnits="userSpaceOnUse" color-interpolation-filters="sRGB">
<feFlood flood-opacity="0" result="BackgroundImageFix"/>
<feBlend mode="normal" in="SourceGraphic" in2="BackgroundImageFix" result="shape"/>
<feGaussianBlur stdDeviation="35.3377" result="effect1_foregroundBlur"/>
</filter>
<filter id="filter9_d" x="271" y="8.25281" width="310.44" height="218.451" filterUnits="userSpaceOnUse" color-interpolation-filters="sRGB">
<feFlood flood-opacity="0" result="BackgroundImageFix"/>
<feColorMatrix in="SourceAlpha" type="matrix" values="0 0 0 0 0 0 0 0 0 0 0 0 0 0 0 0 0 0 127 0"/>
<feOffset dx="5" dy="15"/>
<feGaussianBlur stdDeviation="8"/>
<feColorMatrix type="matrix" values="0 0 0 0 0.12549 0 0 0 0 0.117647 0 0 0 0 0.117647 0 0 0 0.59 0"/>
<feBlend mode="normal" in2="BackgroundImageFix" result="effect1_dropShadow"/>
<feBlend mode="normal" in="SourceGraphic" in2="effect1_dropShadow" result="shape"/>
</filter>
<filter id="filter10_d" x="153" y="75.3163" width="310.44" height="221.349" filterUnits="userSpaceOnUse" color-interpolation-filters="sRGB">
<feFlood flood-opacity="0" result="BackgroundImageFix"/>
<feColorMatrix in="SourceAlpha" type="matrix" values="0 0 0 0 0 0 0 0 0 0 0 0 0 0 0 0 0 0 127 0"/>
<feOffset dx="5" dy="15"/>
<feGaussianBlur stdDeviation="8"/>
<feColorMatrix type="matrix" values="0 0 0 0 0.124264 0 0 0 0 0.117125 0 0 0 0 0.117125 0 0 0 0.6 0"/>
<feBlend mode="normal" in2="BackgroundImageFix" result="effect1_dropShadow"/>
<feBlend mode="normal" in="SourceGraphic" in2="effect1_dropShadow" result="shape"/>
</filter>
<linearGradient id="paint0_linear" x1="251.122" y1="314.373" x2="424.179" y2="165.868" gradientUnits="userSpaceOnUse">
<stop stop-color="#D8D3EE"/>
<stop offset="1" stop-color="#ECEAF9" stop-opacity="0.01"/>
</linearGradient>
<linearGradient id="paint1_linear" x1="401.696" y1="75.8658" x2="282.284" y2="203.859" gradientUnits="userSpaceOnUse">
<stop stop-color="#180D39"/>
<stop stop-color="#231647"/>
<stop offset="1" stop-color="#433384"/>
</linearGradient>
<linearGradient id="paint2_linear" x1="508.696" y1="137.866" x2="389.284" y2="265.859" gradientUnits="userSpaceOnUse">
<stop stop-color="#180D39"/>
<stop stop-color="#231647"/>
<stop offset="1" stop-color="#433384"/>
</linearGradient>
<linearGradient id="paint3_linear" x1="294.696" y1="137.866" x2="175.284" y2="265.859" gradientUnits="userSpaceOnUse">
<stop stop-color="#180D39"/>
<stop stop-color="#231647"/>
<stop offset="1" stop-color="#433384"/>
</linearGradient>
<linearGradient id="paint4_linear" x1="401.696" y1="198.866" x2="282.284" y2="326.859" gradientUnits="userSpaceOnUse">
<stop stop-color="#180D39"/>
<stop stop-color="#231647"/>
<stop offset="1" stop-color="#433384"/>
</linearGradient>
<linearGradient id="paint5_linear" x1="498.57" y1="63.0866" x2="427.377" y2="199.182" gradientUnits="userSpaceOnUse">
<stop stop-color="#0B3328"/>
<stop offset="1" stop-color="#327360"/>
</linearGradient>
<radialGradient id="paint6_radial" cx="0" cy="0" r="1" gradientUnits="userSpaceOnUse" gradientTransform="translate(428.933 84.9317) rotate(90) scale(274.774 484.256)">
<stop stop-color="#09FFB6"/>
<stop offset="1" stop-color="#428772"/>
</radialGradient>
<radialGradient id="paint7_radial" cx="0" cy="0" r="1" gradientUnits="userSpaceOnUse" gradientTransform="translate(465.454 112.903) rotate(37.078) scale(71.2155 121.674)">
<stop stop-color="#34B694"/>
<stop offset="1" stop-color="#082D22"/>
</radialGradient>
<radialGradient id="paint8_radial" cx="0" cy="0" r="1" gradientUnits="userSpaceOnUse" gradientTransform="translate(455.683 85.1923) rotate(147.98) scale(85.2799 123.375)">
<stop stop-color="#34B694"/>
<stop offset="1" stop-color="#082D22"/>
</radialGradient>
<radialGradient id="paint9_radial" cx="0" cy="0" r="1" gradientUnits="userSpaceOnUse" gradientTransform="translate(474.647 25.8407) rotate(166.44) scale(261.881 192.096)">
<stop stop-color="#34B694"/>
<stop offset="1" stop-color="#082D22"/>
</radialGradient>
<radialGradient id="paint10_radial" cx="0" cy="0" r="1" gradientUnits="userSpaceOnUse" gradientTransform="translate(334.207 44.8879) rotate(30.8574) scale(121.794 190.479)">
<stop stop-color="#34B694"/>
<stop offset="1" stop-color="#082D22"/>
</radialGradient>
<radialGradient id="paint11_radial" cx="0" cy="0" r="1" gradientUnits="userSpaceOnUse" gradientTransform="translate(326.377 45.9533) rotate(10.8635) scale(112.009 73.6404)">
<stop stop-color="#34B694"/>
<stop offset="1" stop-color="#082D22"/>
</radialGradient>
<radialGradient id="paint12_radial" cx="0" cy="0" r="1" gradientUnits="userSpaceOnUse" gradientTransform="translate(404.117 89.2457) rotate(9.92928) scale(111.915 67.5195)">
<stop stop-color="#34B694"/>
<stop offset="1" stop-color="#082D22"/>
</radialGradient>
<linearGradient id="paint13_linear" x1="380.57" y1="130.962" x2="307.566" y2="268.298" gradientUnits="userSpaceOnUse">
<stop stop-color="#8B3027"/>
<stop offset="1" stop-color="#BA4D43"/>
</linearGradient>
<radialGradient id="paint14_radial" cx="0" cy="0" r="1" gradientUnits="userSpaceOnUse" gradientTransform="translate(303.22 156.274) rotate(91.8518) scale(291.151 504.594)">
<stop stop-color="#FF8738"/>
<stop offset="1" stop-color="#FD4F1A"/>
</radialGradient>
<linearGradient id="paint15_linear" x1="311.695" y1="71.2679" x2="242.741" y2="167.535" gradientUnits="userSpaceOnUse">
<stop stop-color="#C06E1A" stop-opacity="0.0825503"/>
<stop offset="1" stop-color="#210D01" stop-opacity="0.0825503"/>
</linearGradient>
<linearGradient id="paint16_linear" x1="362.351" y1="151.376" x2="341.143" y2="185.918" gradientUnits="userSpaceOnUse">
<stop stop-color="#C06E1A" stop-opacity="0.0825503"/>
<stop offset="1" stop-color="#210D01" stop-opacity="0.0825503"/>
</linearGradient>
</defs>
</svg>
