<?xml version="1.0" encoding="UTF-8"?>
<svg width="65px" height="51px" viewBox="0 0 65 51" version="1.1" xmlns="http://www.w3.org/2000/svg" xmlns:xlink="http://www.w3.org/1999/xlink">
    <!-- Generator: Sketch 52.4 (67378) - http://www.bohemiancoding.com/sketch -->
    <title>Group 12</title>
    <desc>Created with Sketch.</desc>
    <defs>
        <rect id="path-1" x="0" y="0" width="74" height="74"></rect>
    </defs>
    <g id="final" stroke="none" stroke-width="1" fill="none" fill-rule="evenodd">
        <g id="ambassador-features" transform="translate(-937.000000, -421.000000)">
            <g id="Group-12" transform="translate(971.000000, 453.500000) scale(-1, 1) translate(-971.000000, -453.500000) translate(934.000000, 416.500000)">
                <mask id="mask-2" fill="white">
                    <use xlink:href="#path-1"></use>
                </mask>
                <g id="Mask"></g>
                <g mask="url(#mask-2)">
                    <g transform="translate(2.983871, 5.110497)">
                        <path d="M6.00384635,17.3896349 L29.2364657,4.1308152 C31.6831024,2.73452344 34.683795,2.72794397 37.1365313,4.11349311 L60.6544205,17.3987334 C62.5778768,18.4852926 63.2563159,20.9253923 62.1697567,22.8488486 C61.8227717,23.4630908 61.3195075,23.9746386 60.7110115,24.3316045 L37.3998581,38.0067731 C34.9003894,39.4730522 31.8034048,39.4730522 29.3039361,38.0067731 L5.96250917,24.3138449 C4.05704651,23.1960314 3.41853075,20.7451817 4.53634431,18.8397191 C4.89030026,18.2363538 5.39629806,17.7363617 6.00384635,17.3896349 Z" id="Path-12" stroke="none" fill="#7F65FF" fill-rule="evenodd"></path>
                        <path d="M3.80608303,19.8454308 L3.80608303,30.0824267 C3.80608303,31.471709 4.52694997,32.7614922 5.71026617,33.4894125 L29.3513065,48.032265 C31.8526797,49.5709918 34.9960487,49.6154969 37.5399824,48.1482036 L61.0146501,34.6084554 C62.2530878,33.8941478 63.016129,32.5731727 63.016129,31.1435003 L63.016129,19.6727856" id="Path-13" stroke="#FFFFFF" stroke-width="1" fill="none"></path>
                        <polygon id="Path-14" stroke="none" fill="#5F3EFF" fill-rule="evenodd" transform="translate(45.267601, 13.045291) scale(-1, -1) translate(-45.267601, -13.045291) " points="22.5521297 17.9301177 48.8277101 3.63462221 41.097439 0 67.9830721 0 67.9830721 14.9591389 61.6307421 11.5520935 35.9615439 26.0905824"></polygon>
                    </g>
                </g>
            </g>
        </g>
    </g>
</svg>