<?xml version="1.0" encoding="UTF-8"?>
<svg width="63px" height="50px" viewBox="0 0 63 50" version="1.1" xmlns="http://www.w3.org/2000/svg" xmlns:xlink="http://www.w3.org/1999/xlink">
    <!-- Generator: Sketch 52.4 (67378) - http://www.bohemiancoding.com/sketch -->
    <title>Group 9</title>
    <desc>Created with Sketch.</desc>
    <defs>
        <rect id="path-1" x="0.21484375" y="0" width="73" height="73"></rect>
    </defs>
    <g id="final" stroke="none" stroke-width="1" fill="none" fill-rule="evenodd">
        <g id="ambassador-features" transform="translate(-577.000000, -422.000000)">
            <g id="Group-9" transform="translate(572.000000, 417.000000)">
                <mask id="mask-2" fill="white">
                    <use xlink:href="#path-1"></use>
                </mask>
                <g id="Mask"></g>
                <g mask="url(#mask-2)">
                    <g transform="translate(2.214844, 4.000000)">
                        <path d="M5.80802006,24.9349864 L30.5134288,39.676219 C31.7759371,40.429533 33.3499351,40.429565 34.612474,39.6763023 L59.3353812,24.9259914 C61.2325209,23.7941099 61.8528853,21.338603 60.7210038,19.4414632 C60.3773603,18.8654845 59.8944021,18.3851621 59.3165513,18.0446759 L34.6740426,3.52460689 C33.4237577,2.78790339 31.8725362,2.78615066 30.6205897,3.52002689 L5.83478252,18.0491742 C3.92894723,19.1663524 3.28961429,21.6169889 4.40679242,23.5228242 C4.74749199,24.1040362 5.22947398,24.5897793 5.80802006,24.9349864 Z" id="Path-4" stroke="none" fill="#7F65FF" fill-rule="evenodd"></path>
                        <path d="M45.844401,10.12461 L38.5057471,5.85227045 L41.8256585,4.01238553 C48.0484602,0.563727564 55.6320338,0.667538821 61.7581043,4.28524004 L61.7581043,4.28524004 C65.0475715,6.22780819 66.139449,10.4692109 64.1968808,13.7586781 C63.6236476,14.7293682 62.8218567,15.545246 61.8612967,16.1352969 L59.0431483,17.8664232 L51.8699488,13.4726672 L55.0994648,11.7840117 C56.1204065,11.2501797 56.515287,9.98978649 55.981455,8.9688447 C55.8143052,8.6491743 55.5671148,8.37831247 55.2640198,8.18270646 L55.2640198,8.18270646 C53.4232,6.99471095 51.0658721,6.96122907 49.1920547,8.09646439 L45.844401,10.12461 Z" id="Path-23" stroke="none" fill="#7F64FF" fill-rule="evenodd"></path>
                        <path d="M3.58515625,21.1647955 L3.58515625,30.8364944 C3.58515625,32.1850341 4.2646534,33.4427983 5.39254191,34.1820052 L27.3479551,48.5713636 C29.9037505,50.2464064 33.190506,50.319185 35.817941,48.7589145 L57.3002544,36.001902 C59.6194164,34.6246957 61.0884575,32.1715596 61.2076786,29.4769361 L61.5754414,21.1647955" id="Path-24" stroke="#FFFFFF" stroke-width="1" fill="none"></path>
                        <path d="M65.2368421,9.60719242 L65.1784389,14.8579949 C65.1496514,17.4461658 63.5520718,19.7575522 61.1411133,20.6992187" id="Path-25" stroke="#FFFFFF" stroke-width="1" fill="none"></path>
                    </g>
                </g>
            </g>
        </g>
    </g>
</svg>