<?xml version="1.0" encoding="UTF-8"?>
<svg width="14px" height="14px" viewBox="0 0 14 14" version="1.1" xmlns="http://www.w3.org/2000/svg" xmlns:xlink="http://www.w3.org/1999/xlink">
    <!-- Generator: Sketch 52.4 (67378) - http://www.bohemiancoding.com/sketch -->
    <title>Group</title>
    <desc>Created with Sketch.</desc>
    <g id="final" stroke="none" stroke-width="1" fill="none" fill-rule="evenodd">
        <g id="reference-architecture" transform="translate(-153.000000, -366.000000)" fill="#9B9B9B" fill-rule="nonzero">
            <g id="noun_Time_1939558" transform="translate(153.000000, 366.000000)">
                <g id="Group">
                    <path d="M10.381,8.365 L7.021,8.365 C7.0042,8.365 6.9888,8.365 6.9706,8.365 C6.8025489,8.43163417 6.61235988,8.41029817 6.46325072,8.30808398 C6.31414155,8.20586979 6.22565369,8.03617304 6.2272,7.8554 L6.2272,3.2466 C6.24194033,2.95540853 6.48233568,2.72687436 6.7739,2.72687436 C7.06546432,2.72687436 7.30585967,2.95540853 7.3206,3.2466 L7.3206,6.8334 L10.381,6.8334 C10.8039397,6.8334 11.1468,7.17626034 11.1468,7.5992 C11.1468,8.02213966 10.8039397,8.365 10.381,8.365 Z" id="Path"></path>
                    <path d="M7,0 C3.13400675,-2.36723813e-16 4.73447626e-16,3.13400675 0,7 C-4.73447626e-16,10.8659932 3.13400675,14 7,14 C10.8659932,14 14,10.8659932 14,7 C14,5.14348457 13.2625021,3.36300718 11.9497475,2.05025253 C10.6369928,0.737497883 8.85651543,1.13678784e-16 7,0 Z M7,12.4684 C3.97988607,12.4684 1.5316,10.0201139 1.5316,7 C1.5316,3.97988607 3.97988607,1.5316 7,1.5316 C10.0201139,1.5316 12.4684,3.97988607 12.4684,7 C12.4645435,10.018515 10.018515,12.4645435 7,12.4684 Z" id="Shape"></path>
                    <path d="M10.381,6.8334 L7.3248,6.8334 L7.3248,3.2466 C7.31005967,2.95540853 7.06966432,2.72687436 6.7781,2.72687436 C6.48653568,2.72687436 6.24614033,2.95540853 6.2314,3.2466 L6.2314,7.8512 C6.22985369,8.03197304 6.31834155,8.20166979 6.46745072,8.30388398 C6.61655988,8.40609817 6.8067489,8.42743417 6.9748,8.3608 C6.9916,8.3608 7.007,8.3608 7.0252,8.3608 L10.3852,8.3608 C10.7849869,8.33004677 11.0933647,7.99611641 11.0922622,7.59514997 C11.0911596,7.19418352 10.78095,6.86195414 10.381,6.8334 Z" id="Path"></path>
                </g>
            </g>
        </g>
    </g>
</svg>