<svg width="79" height="67" viewBox="0 0 79 67" fill="none" xmlns="http://www.w3.org/2000/svg">
<path fill-rule="evenodd" clip-rule="evenodd" d="M55.5 9.32304C56.8807 9.32304 58 8.20376 58 6.82304C58 5.44233 56.8807 4.32304 55.5 4.32304C54.1193 4.32304 53 5.44233 53 6.82304C53 8.20376 54.1193 9.32304 55.5 9.32304Z" fill="white" stroke="#5F3EFF"/>
<path fill-rule="evenodd" clip-rule="evenodd" d="M3 16.323C1.61929 16.323 0.5 17.4423 0.5 18.823C0.5 20.2038 1.61929 21.323 3 21.323C4.38071 21.323 5.5 20.2038 5.5 18.823C5.5 17.4423 4.38071 16.323 3 16.323Z" fill="white" stroke="#5F3EFF"/>
<path fill-rule="evenodd" clip-rule="evenodd" d="M3 50.323C1.61929 50.323 0.5 49.2038 0.5 47.823C0.5 46.4423 1.61929 45.323 3 45.323C4.38071 45.323 5.5 46.4423 5.5 47.823C5.5 49.2038 4.38071 50.323 3 50.323Z" fill="white" stroke="#5F3EFF"/>
<path fill-rule="evenodd" clip-rule="evenodd" d="M55.5 58.323C54.1193 58.323 53 59.4423 53 60.823C53 62.2038 54.1193 63.323 55.5 63.323C56.8807 63.323 58 62.2038 58 60.823C58 59.4423 56.8807 58.323 55.5 58.323Z" fill="white" stroke="#5F3EFF"/>
<path fill-rule="evenodd" clip-rule="evenodd" d="M21.5 59.323C20.1193 59.323 19 60.4423 19 61.823C19 63.2038 20.1193 64.323 21.5 64.323C22.8807 64.323 24 63.2038 24 61.823C24 60.4423 22.8807 59.323 21.5 59.323Z" fill="white" stroke="#5F3EFF"/>
<path d="M16 40.323H3V45.323" stroke="#5F3EFF"/>
<path fill-rule="evenodd" clip-rule="evenodd" d="M38.5 61.323C37.1193 61.323 36 62.4423 36 63.823C36 65.2038 37.1193 66.323 38.5 66.323C39.8807 66.323 41 65.2038 41 63.823C41 62.4423 39.8807 61.323 38.5 61.323Z" fill="white" stroke="#FE4328"/>
<path d="M16 26.323H3V21.323" stroke="#5F3EFF"/>
<path fill-rule="evenodd" clip-rule="evenodd" d="M76 16.323C77.3807 16.323 78.5 17.4423 78.5 18.823C78.5 20.2038 77.3807 21.323 76 21.323C74.6193 21.323 73.5 20.2038 73.5 18.823C73.5 17.4423 74.6193 16.323 76 16.323Z" fill="white" stroke="#5F3EFF"/>
<path fill-rule="evenodd" clip-rule="evenodd" d="M76 50.323C77.3807 50.323 78.5 49.2038 78.5 47.823C78.5 46.4423 77.3807 45.323 76 45.323C74.6193 45.323 73.5 46.4423 73.5 47.823C73.5 49.2038 74.6193 50.323 76 50.323Z" fill="white" stroke="#5F3EFF"/>
<path d="M63 40.323H76V45.323" stroke="#5F3EFF"/>
<path d="M21.5 17.163V9.48305" stroke="#5F3EFF" stroke-linecap="square"/>
<path d="M55.5 17.163V9.48305" stroke="#5F3EFF" stroke-linecap="square"/>
<path d="M38.5 20.1373V6.50876" stroke="#FE4328" stroke-linecap="square"/>
<path d="M63 26.323H76V21.323" stroke="#5F3EFF"/>
<rect x="16" y="30.323" width="45" height="7" fill="white" stroke="#14121E" stroke-width="0.5"/>
<path d="M55.5 50.323V58.323" stroke="#5F3EFF" stroke-linecap="square"/>
<path d="M38.5 49.323V61.323" stroke="#FE4328" stroke-linecap="square"/>
<path d="M21.5 51.323V59.323" stroke="#5F3EFF" stroke-linecap="square"/>
<rect x="14" y="16.323" width="49" height="15" rx="1" fill="white" stroke="#2D9CDB"/>
<rect x="14" y="36.323" width="49" height="15" rx="1" fill="white" stroke="#2D9CDB"/>
<path fill-rule="evenodd" clip-rule="evenodd" d="M21.5 9.32304C22.8807 9.32304 24 8.20376 24 6.82304C24 5.44233 22.8807 4.32304 21.5 4.32304C20.1193 4.32304 19 5.44233 19 6.82304C19 8.20376 20.1193 9.32304 21.5 9.32304Z" fill="white" stroke="#5F3EFF"/>
<path fill-rule="evenodd" clip-rule="evenodd" d="M38.5 6.32304C39.8807 6.32304 41 5.20376 41 3.82304C41 2.44233 39.8807 1.32304 38.5 1.32304C37.1193 1.32304 36 2.44233 36 3.82304C36 5.20376 37.1193 6.32304 38.5 6.32304Z" fill="white" stroke="#FE4328"/>
<path fill-rule="evenodd" clip-rule="evenodd" d="M21.5 46.323C22.8807 46.323 24 45.2038 24 43.823C24 42.4423 22.8807 41.323 21.5 41.323C20.1193 41.323 19 42.4423 19 43.823C19 45.2038 20.1193 46.323 21.5 46.323Z" fill="white" stroke="#FE4328"/>
<path d="M24.375 44.0768H40.825" stroke="#FE4328" stroke-linecap="square"/>
<path fill-rule="evenodd" clip-rule="evenodd" d="M21.5 26.323C22.8807 26.323 24 25.2038 24 23.823C24 22.4423 22.8807 21.323 21.5 21.323C20.1193 21.323 19 22.4423 19 23.823C19 25.2038 20.1193 26.323 21.5 26.323Z" fill="white" stroke="#FE4328"/>
<path d="M24.375 23.823H40.825" stroke="#FE4328" stroke-linecap="square"/>
<path fill-rule="evenodd" clip-rule="evenodd" d="M59.3977 20.323C61.1159 21.6381 61.8032 23.2819 69.3633 22.6244C68.3323 24.9258 71.7687 32.8162 68.676 37.4189C67.5562 39.0855 65.5832 39.7203 63.5214 41.0354C61.4595 42.0217 60.4286 42.6792 59.3977 44.323C58.7104 43.3367 58.1357 42.8421 55.6177 41.0354C52.8686 39.0628 50.2253 38.4055 49.4322 36.4326C48.0576 31.5011 50.4631 25.2546 49.7758 22.6244C56.9922 23.2819 58.0232 21.6381 59.3977 20.323Z" fill="white" stroke="#FE4328"/>
</svg>
