<svg viewBox="0 0 1439 477" fill="none" xmlns="http://www.w3.org/2000/svg">
  <g opacity=".2">
    <path d="M785.758 17.6303L679.43 197.775l76.124 26.847 30.204-206.9917z" fill="#F5A623"/>
    <path d="M1328.39 208.145l-166.58-15.42 4.97 63.102 161.61-47.682z" fill="#DB210F"/>
    <circle r="17.4763" transform="matrix(-1 0 0 1 963.693 275.924)" fill="#AF5CF8"/>
    <circle r="40.7779" transform="matrix(-1 0 0 1 928.741 101.162)" fill="#F24E1E"/>
    <path fill="#F24E1E" d="M1132.63 434.878l-81.53544412-83.223179-41.61173236 40.76786202 81.53544412 83.223179z"/>
    <path fill="#DB210F" d="M87.1592 272.89l-32.409426 13.088418 21.81404249 54.01574092 32.409426-13.088418zM488.737 220.643l62.96804723-124.82726135-41.60905736-20.98933406-62.96804723 124.82726135z"/>
    <path d="M1435.55 125.133s-74.5-37.1055-91.4-17.657c-9.28 10.684-16.29 23.625-7.98 34.14 6.41 8.104 15.67 9.138 26.51 7.233 22.96-4.032 22.61-35.919 13.4-55.668-12.73-27.2667-80.29-11.1726-80.29-11.1726" stroke="#00C05B" stroke-width="13.981"/>
    <path d="M1178.28 351.655s5.67-33.692-10.61-40.407c-13.67-5.642-25.53 19.307-36.76 10.262-11.38-9.162 17.03-23.677 7.77-34.635-9.73-11.533-41 0-41 0" stroke="#06F" stroke-width="13.981"/>
    <path d="M23.3646 194.246c0 28.955-46.4107 52.428-14.11503 52.428 32.29573 0 58.47653-23.473 58.47653-52.428 0-28.956-26.1808-52.429-58.47653-52.429-32.29567 0 14.11503 23.473 14.11503 52.429z" fill="#AF5CF8"/>
    <path d="M535.652 267.123c-19.207 1.934-37.876-27.284-35.72-5.862 2.157 21.422 19.475 37.221 38.681 35.288 19.207-1.933 33.029-20.866 30.873-42.289-2.156-21.422-14.628 10.93-33.834 12.863z" fill="#06F"/>
    <path d="M713.2 316.702l-13.078 40.253h-42.325l34.241 24.877-13.079 40.253 34.241-24.878 34.241 24.878-13.079-40.253 34.241-24.877h-42.324L713.2 316.702z" fill="#00C05B"/>
    <path d="M1132.63 118.638l-7.85 24.151h-25.39l20.54 14.927-7.84 24.151 20.54-14.926 20.55 14.926-7.85-24.151 20.54-14.927h-25.39l-7.85-24.151z" fill="#F5A623"/>
    <path d="M269.713 259.207l-5.802-50.044-40.447 25.642-4.611-41.981-36.894 25.416-11.491-45.385" stroke="#06F" stroke-width="11.6508"/>
  </g>
</svg>
