<svg width="900" height="475" viewBox="0 0 900 475" fill="none" xmlns="http://www.w3.org/2000/svg">
<g opacity="0.2">
<path d="M286.758 16.6322L180.43 196.777L256.554 223.623L286.758 16.6322Z" fill="#F5A623"/>
<path d="M829.391 207.147L662.811 191.727L667.776 254.829L829.391 207.147Z" fill="#DB210F"/>
<circle r="17.4763" transform="matrix(-1 0 0 1 464.693 274.926)" fill="#AF5CF8"/>
<circle r="40.7779" transform="matrix(-1 0 0 1 429.741 100.164)" fill="#F24E1E"/>
<rect width="116.508" height="58.2542" transform="matrix(-0.699827 -0.714313 -0.714313 0.699827 633.63 433.88)" fill="#F24E1E"/>
<rect width="139.81" height="46.6033" transform="matrix(0.450383 -0.892835 -0.892835 -0.450383 -10.2627 219.645)" fill="#DB210F"/>
<path d="M936.553 124.135C936.553 124.135 862.054 87.0294 845.154 106.478C835.869 117.162 828.858 130.103 837.173 140.618C843.583 148.722 852.837 149.756 863.68 147.851C886.643 143.819 886.294 111.932 877.077 92.1829C864.35 64.9163 796.794 81.0103 796.794 81.0103" stroke="#00C05B" stroke-width="13.981"/>
<path d="M679.277 350.656C679.277 350.656 684.948 316.965 668.672 310.25C654.998 304.608 643.143 329.557 631.907 320.512C620.526 311.35 648.937 296.835 639.684 285.877C629.946 274.344 598.678 285.877 598.678 285.877" stroke="#0066FF" stroke-width="13.981"/>
<path d="M36.6516 266.125C17.445 268.059 -1.22365 238.841 0.932491 260.263C3.08863 281.685 20.4066 297.484 39.6133 295.551C58.82 293.618 72.6422 274.685 70.4861 253.262C68.33 231.84 55.8583 264.192 36.6516 266.125Z" fill="#0066FF"/>
<path d="M214.2 315.704L201.122 355.957H158.797L193.038 380.834L179.959 421.087L214.2 396.209L248.441 421.087L235.362 380.834L269.603 355.957H227.279L214.2 315.704Z" fill="#00C05B"/>
<path d="M633.63 117.64L625.783 141.791L600.389 141.791L620.933 156.718L613.086 180.869L633.63 165.943L654.175 180.869L646.328 156.718L666.872 141.791L641.478 141.791L633.63 117.64Z" fill="#F5A623"/>
</g>
</svg>
