<svg width="70" height="65" viewBox="0 0 70 65" fill="none" xmlns="http://www.w3.org/2000/svg">
<path fill-rule="evenodd" clip-rule="evenodd" d="M45.0731 14.0128C45.3925 14.1732 45.7039 14.3504 46.0059 14.5436L48.9579 11.242C49.509 10.6256 50.4549 10.5714 51.0728 11.1207L58.1524 17.4149C58.7522 17.9481 58.826 18.8589 58.32 19.4817L55.2582 23.2505C55.783 24.0653 56.1607 24.9672 56.373 25.9149L56.4218 26.1327L60.7651 26.0567C61.5935 26.0422 62.2767 26.702 62.2912 27.5304L62.4584 37.1397C62.4728 37.9679 61.8131 38.651 60.9848 38.6655L56.6165 38.742C56.3553 39.7313 56.0016 40.6941 55.5602 41.6176L58.6992 44.891C59.2628 45.4788 59.2545 46.4088 58.6806 46.9865L51.7906 53.9209C51.2185 54.4968 50.292 54.513 49.7 53.9574L46.6127 51.0597C45.5403 51.574 44.4121 51.9635 43.2504 52.2204L43.3305 56.8286C43.3449 57.6568 42.6853 58.34 41.857 58.3545L32.355 58.5208C31.5266 58.5353 30.8434 57.8755 30.829 57.0471L30.7487 52.4337C29.5203 52.174 28.3496 51.6929 27.294 51.014L23.9211 54.4087C23.3489 54.9846 22.4224 55.0007 21.8304 54.4452L14.7421 47.7923C14.1258 47.2139 14.1089 46.2408 14.7045 45.6413L17.9848 42.3398C17.2868 41.5305 16.8718 40.5113 16.8089 39.4387L12.1115 39.5209C11.2831 39.5354 10.5999 38.8756 10.5855 38.0472L10.4183 28.4379C10.4039 27.6097 11.0635 26.9266 11.8918 26.9121L16.2639 26.8355C16.5623 25.7862 17.0463 24.7978 17.694 23.9176L14.2708 20.7047C13.6545 20.1263 13.6376 19.1532 14.2332 18.5537L21.086 11.6567C21.6582 11.0808 22.5847 11.0646 23.1766 11.6202L26.6292 14.8607C27.1007 14.4697 27.6371 14.1695 28.2107 13.9718L28.8189 14.8312C28.1277 15.0145 27.4912 15.3787 26.979 15.8942L26.6243 15.5418L26.2821 15.9064L22.4922 12.3493C22.2949 12.1641 21.9861 12.1695 21.7954 12.3615L14.9426 19.2585C14.7441 19.4584 14.7497 19.7827 14.9551 19.9755L18.7035 23.4936L19.0287 23.7989L18.7624 24.1567L18.5256 24.4749C17.8665 25.3606 17.3944 26.3711 17.138 27.4449L16.6517 27.3288L16.6604 27.8288L11.9093 27.9119C11.6332 27.9167 11.4133 28.1445 11.4181 28.4205L11.5853 38.0298C11.5901 38.3059 11.8179 38.5259 12.094 38.521L17.2873 38.4301L17.7872 38.4214L17.7959 38.9214L17.8012 39.2206C17.8194 40.2686 18.2609 41.2646 19.0252 41.982L18.683 42.3465L19.0377 42.6989L15.4139 46.3461C15.2154 46.546 15.221 46.8703 15.4264 47.0631L22.5148 53.716C22.7121 53.9012 23.0209 53.8958 23.2117 53.7039L26.8756 50.0163L27.2302 50.3687L27.5177 49.9596C28.6379 50.7466 29.9174 51.2777 31.2657 51.5154L31.3283 51.5265L31.7343 51.598L31.7415 52.0102L31.8288 57.0297C31.8336 57.3058 32.0614 57.5257 32.3375 57.5209L41.8395 57.3546C42.1156 57.3498 42.3355 57.1221 42.3307 56.846L42.2433 51.8263L42.2362 51.4142L42.6393 51.3285L42.9189 51.2691C44.1541 51.0064 45.3498 50.5839 46.4758 50.0122L46.7022 50.458L47.0444 50.0934L50.3844 53.2283C50.5817 53.4135 50.8905 53.4081 51.0813 53.2161L57.9712 46.2816C58.1625 46.0891 58.1653 45.7791 57.9774 45.5832L54.5968 42.0577L54.3544 41.8049L54.5092 41.4907L54.5791 41.3487C55.0843 40.3233 55.4732 39.2445 55.7386 38.1327L56.225 38.2488L56.2162 37.7488L60.9673 37.6657C61.2434 37.6609 61.4633 37.4331 61.4585 37.1571L61.2913 27.5478C61.2865 27.2717 61.0588 27.0517 60.7826 27.0566L56.0317 27.1397L55.6241 27.1469L55.5351 26.7491L55.3972 26.1335C55.1861 25.191 54.7888 24.3002 54.2287 23.5133L54.636 23.2233L54.2479 22.908L57.5439 18.8512C57.7125 18.6436 57.6879 18.34 57.488 18.1622L50.4083 11.8681C50.2024 11.685 49.8871 11.7031 49.7034 11.9085L46.4615 15.5344L46.0887 15.2012L45.8013 15.6103C45.3688 15.3064 44.9126 15.0407 44.4378 14.8153L45.0731 14.0128ZM29.5404 15.8505C28.3949 16.2827 27.3104 16.8695 26.3181 17.5969C26.2005 17.6832 26.0371 17.6684 25.9369 17.5625L22.9939 14.4551C22.603 14.0423 21.9471 14.038 21.5508 14.4457L17.2896 18.8291C16.8999 19.23 16.9146 19.8726 17.3223 20.2552L20.2934 23.044C20.4831 23.222 20.515 23.5117 20.3685 23.7268L20.2614 23.8841C19.2727 25.336 18.5252 26.9381 18.0478 28.6285C17.9929 28.8228 17.8172 28.9582 17.6154 28.9617L13.7192 29.0299C13.1791 29.0393 12.7441 29.476 12.7368 30.0162L12.6534 36.1742C12.6458 36.7386 13.1065 37.1975 13.6708 37.1876L17.9598 37.1126C18.1194 37.1098 18.2591 37.2191 18.2947 37.3746C18.6863 39.0834 19.3883 40.7058 20.3659 42.161L20.529 42.4038C20.6442 42.5753 20.6223 42.8042 20.4767 42.9508L17.509 45.9379C17.1266 46.3227 17.1208 46.9423 17.496 47.3342L21.7773 51.8063C22.1813 52.2282 22.8594 52.2156 23.2473 51.7788L26.1645 48.4945C26.3159 48.3241 26.5716 48.2956 26.7567 48.4286L27.0609 48.6469C28.7753 49.8781 30.7393 50.7175 32.8139 51.1059C32.974 51.1358 33.0909 51.2742 33.0937 51.437L33.1658 55.5787C33.1754 56.132 33.6324 56.5722 34.1856 56.5611L40.2828 56.439C40.834 56.428 41.2722 55.973 41.2626 55.4218L41.1911 51.3097C41.1883 51.1477 41.3056 51.0085 41.4658 50.984L41.8587 50.9239C43.78 50.6296 45.6054 49.8886 47.1882 48.7604C47.2745 48.6989 47.3923 48.7068 47.4696 48.7794L50.2499 51.389C50.6591 51.7731 51.3042 51.7453 51.6789 51.3274L55.9668 46.5443C56.316 46.1548 56.306 45.5622 55.944 45.1847L53.1132 42.2323C53.0273 42.1428 53.0184 42.0046 53.092 41.9048C54.2668 40.3114 55.0607 38.4699 55.4129 36.5218L55.4507 36.3126C55.4784 36.1596 55.615 36.0507 55.7702 36.0578L59.1235 36.211C59.6933 36.237 60.1695 35.7818 60.1691 35.2114L60.1654 29.4829C60.165 28.924 59.7067 28.4739 59.1479 28.4837L55.0948 28.5546C55.0359 28.5557 54.985 28.5136 54.975 28.4555C54.6904 26.8114 54.026 25.2565 53.0347 23.9143L52.4357 23.1032C52.3333 22.9647 52.3377 22.7744 52.4463 22.6406L55.1712 19.2865C55.5063 18.874 55.4602 18.2714 55.0662 17.9147L50.6142 13.8839C50.203 13.5115 49.5673 13.5451 49.1975 13.9587L46.5632 16.9052C46.4476 17.0345 46.2546 17.0594 46.1099 16.9637C45.3593 16.467 44.5663 16.0427 43.7416 15.6948L43.5 16C43.5 16 41.3472 15.5534 39.2685 15.2571C39.4758 15.4855 39.7585 15.6461 40.0817 15.6984L40.2608 15.7274C42.1534 16.034 43.9592 16.7397 45.5581 17.7976C46.1168 18.1673 46.8622 18.0711 47.3087 17.5717L49.943 14.6252L54.395 18.656L51.6702 22.0101C51.2739 22.4978 51.2579 23.1919 51.6313 23.6973L52.2303 24.5084C53.1292 25.7254 53.7316 27.1353 53.9896 28.6261C54.0838 29.17 54.5604 29.5641 55.1123 29.5545L59.1654 29.4835L59.1691 35.212L55.8159 35.0588C55.1602 35.0289 54.5835 35.4887 54.4667 36.1347L54.4288 36.344C54.1039 38.1416 53.3712 39.8409 52.2871 41.3113C51.9248 41.8028 51.9688 42.4837 52.3914 42.9244L55.2222 45.8768L50.9343 50.6599L48.154 48.0503C47.7292 47.6516 47.0821 47.608 46.6077 47.9461C45.1524 48.9835 43.4739 49.6648 41.7073 49.9354L41.3144 49.9955C40.6596 50.0958 40.1797 50.6647 40.1913 51.3271L40.2628 55.4392L34.1656 55.5613L34.0936 51.4196C34.0825 50.7821 33.6246 50.2403 32.9979 50.123C31.0673 49.7615 29.2396 48.9804 27.6441 47.8347L27.34 47.6163C26.7388 47.1845 25.9085 47.277 25.4169 47.8304L22.4997 51.1147L18.2184 46.6427L21.1861 43.6556C21.6678 43.1708 21.7402 42.4134 21.3591 41.8462L21.196 41.6033C20.2867 40.2498 19.6337 38.7407 19.2694 37.1513C19.1282 36.5349 18.5746 36.1016 17.9423 36.1127L13.6533 36.1878L13.7367 30.0297L17.6329 29.9615C18.2758 29.9503 18.8354 29.5191 19.0101 28.9003C19.4583 27.3136 20.1599 25.8098 21.0879 24.4469L21.1951 24.2896C21.6186 23.6676 21.5264 22.8298 20.9777 22.3148L18.0067 19.5261L22.2679 15.1427L25.2108 18.2502C25.6575 18.7219 26.3854 18.7875 26.9093 18.4035C28.3232 17.367 29.9389 16.6389 31.6519 16.2662L31.7731 16.2398C32.2423 16.1377 32.6071 15.7947 32.7504 15.3586C32.2855 15.4385 32 15.5 32 15.5L29.8601 16.3024L29.5404 15.8505Z" fill="#5F3EFF"/>
<path fill-rule="evenodd" clip-rule="evenodd" d="M52.9383 31.5C52.9383 40.6127 45.551 48 36.4383 48C27.3256 48 19.9383 40.6127 19.9383 31.5C19.9383 22.3873 27.3256 15 36.4383 15C45.551 15 52.9383 22.3873 52.9383 31.5ZM50.6144 31.5C50.6144 39.3292 44.2675 45.6761 36.4383 45.6761C28.6091 45.6761 22.2623 39.3292 22.2623 31.5C22.2623 23.6708 28.6091 17.3239 36.4383 17.3239C44.2675 17.3239 50.6144 23.6708 50.6144 31.5Z" fill="#5F3EFF"/>
<path fill-rule="evenodd" clip-rule="evenodd" d="M28.9383 4C28.9383 3.44772 29.386 3 29.9383 3H42.9383C43.4906 3 43.9383 3.44772 43.9383 4V10H28.9383V4Z" stroke="#5F3EFF" stroke-width="2"/>
<path d="M68.7383 35C68.7383 35 67.2487 54.0832 47.1383 61.9286" stroke="#5F3EFF"/>
<path d="M47.9691 55.7143L47.1383 61.8694L54.3383 64" stroke="#5F3EFF"/>
<path d="M4.92992 34.7676C4.92992 34.7676 3.7944 14.2015 21.2466 3.54636" stroke="#5F3EFF"/>
<path d="M21.6005 9.48732L21.5662 3.0051L14.7925 1.59149" stroke="#5F3EFF"/>
<path d="M40.0765 10V17" stroke="#5F3EFF" stroke-width="2"/>
<path d="M33.0765 10V17" stroke="#5F3EFF" stroke-width="2"/>
</svg>
