<svg width="51" height="71" viewBox="0 0 51 71" fill="none" xmlns="http://www.w3.org/2000/svg">
<path d="M10 27.127C10 27.127 10 14.3474 10 13.9067C10 7.73718 15.1667 1.12701 25.5 1.12701C29.1292 1.12701 32.1211 1.88804 34.4757 3.16189C40.1961 6.25667 41 27.127 41 27.127V27.127" stroke="#5F3EFF" stroke-width="2"/>
<rect x="1" y="26.1843" width="49" height="43.1075" rx="2" stroke="#5F3EFF" stroke-width="2"/>
<path fill-rule="evenodd" clip-rule="evenodd" d="M25.5 59.2679C26.54 59.2679 28.1 59.0998 28.1 57.4375C28.1 54.2342 28.1 49.2005 28.2156 49.1365C30.4493 48.2313 32 46.244 32 43.9379C32 40.7788 29.0899 38.2178 25.5 38.2178C21.9101 38.2178 19 40.7788 19 43.9379C19 46.348 20.6936 48.4099 23.0906 49.2522C23.42 49.2005 23.42 54.6918 23.42 57.4375C23.42 58.9755 24.46 59.2679 25.5 59.2679Z" stroke="#5F3EFF" stroke-width="2"/>
</svg>
