<svg width="68" height="69" viewBox="0 0 68 69" fill="none" xmlns="http://www.w3.org/2000/svg">
<rect x="1" y="1.29181" width="66" height="66.1624" rx="1" stroke="#5F3EFF" stroke-width="2"/>
<rect x="7.5" y="7.5" width="3" height="3" rx="1.5" stroke="#5F3EFF"/>
<rect x="16.5" y="7.5" width="3" height="3" rx="1.5" stroke="#5F3EFF"/>
<rect x="25.5" y="7.5" width="3" height="3" rx="1.5" stroke="#5F3EFF"/>
<path fill-rule="evenodd" clip-rule="evenodd" d="M55.1608 59.2454C55.1608 59.2454 54.08 56.1311 54.3952 56.0377C55.2395 55.5803 56.0096 55.0176 56.6925 54.3709C57.0179 54.3203 59.2697 56.0378 59.2697 56.0378C59.2697 56.0378 62.2677 51.2196 62.2677 51.2196C62.2677 51.2196 59.7433 49.9401 59.631 49.672C59.9277 48.7316 60.1003 47.745 60.1338 46.7362C60.076 46.4946 62.903 45.8324 62.903 45.8324C62.903 45.8324 61.7714 40.859 61.7714 40.859C61.7714 40.859 58.9445 41.5213 59.0116 41.5143C58.5448 40.565 57.9489 39.7041 57.2515 38.9488C57.2378 38.9277 58.5197 36.3824 58.5197 36.3824C58.5197 36.3824 54.5311 33.575 54.5311 33.575C54.5311 33.575 52.815 35.8479 52.7347 36.0229C51.752 35.6927 50.7151 35.5021 49.6527 35.4688C49.3922 35.5272 48.7456 32.6853 48.7456 32.6853C48.7456 32.6853 43.7984 33.8443 43.7984 33.8443C43.7984 33.8443 44.4449 36.6862 44.3269 36.6753C43.4339 37.1357 42.6205 37.7123 41.9017 38.3814C41.8605 38.4142 39.2553 36.7794 39.2553 36.7794L36.2573 41.5976C36.2573 41.5976 38.7816 42.8771 38.8899 43.158C38.5752 44.1597 38.4013 45.2137 38.3862 46.2909C38.4489 46.3226 35.2686 47.0677 35.2686 47.0677C35.2686 47.0677 36.4001 52.041 36.4001 52.041C36.4001 52.041 39.5805 51.296 39.6467 51.565C40.1068 52.44 40.6783 53.2358 41.3384 53.9382C41.7214 54.162 40.0053 56.4349 40.0053 56.4349C40.0053 56.4349 44.4281 59.5147 44.4281 59.5147C44.4281 59.5147 45.9825 56.5313 45.896 56.8293C46.8781 57.148 47.9127 57.3278 48.9718 57.3512C49.1328 57.29 49.8602 60.4872 49.8602 60.4872C49.8602 60.4872 55.1608 59.2454 55.1608 59.2454Z" stroke="#5F3EFF"/>
<path fill-rule="evenodd" clip-rule="evenodd" d="M25.6941 50.5122C25.6941 50.5122 24.6133 47.3979 24.9285 47.3045C25.7728 46.847 26.5429 46.2844 27.2258 45.6377C27.5512 45.5871 29.803 47.3046 29.803 47.3046C29.803 47.3046 32.801 42.4864 32.801 42.4864C32.801 42.4864 30.2766 41.2069 30.1643 40.9388C30.461 39.9984 30.6336 39.0118 30.6671 38.003C30.6093 37.7614 33.4363 37.0992 33.4363 37.0992C33.4363 37.0992 32.3048 32.1258 32.3048 32.1258C32.3048 32.1258 29.4778 32.7881 29.5449 32.7811C29.0781 31.8318 28.4822 30.9709 27.7848 30.2156C27.7711 30.1945 29.053 27.6492 29.053 27.6492C29.053 27.6492 25.0644 24.8418 25.0644 24.8418C25.0644 24.8418 23.3483 27.1147 23.268 27.2896C22.2853 26.9595 21.2485 26.7689 20.1861 26.7355C19.9255 26.794 19.2789 23.9521 19.2789 23.9521C19.2789 23.9521 14.3317 25.1111 14.3317 25.1111C14.3317 25.1111 14.9783 27.953 14.8603 27.9421C13.9672 28.4024 13.1538 28.9791 12.435 29.6482C12.3938 29.6809 9.7886 28.0462 9.7886 28.0462L6.79058 32.8644C6.79058 32.8644 9.31494 34.1439 9.42325 34.4248C9.10853 35.4265 8.93459 36.4805 8.91956 37.5577C8.98224 37.5894 5.8019 38.3345 5.8019 38.3345C5.8019 38.3345 6.93345 43.3078 6.93345 43.3078C6.93345 43.3078 10.1138 42.5628 10.18 42.8318C10.6401 43.7068 11.2116 44.5026 11.8717 45.2049C12.2547 45.4288 10.5386 47.7017 10.5386 47.7017C10.5386 47.7017 14.9614 50.7815 14.9614 50.7815C14.9614 50.7815 16.5158 47.7981 16.4293 48.0961C17.4114 48.4148 18.446 48.5946 19.5051 48.6179C19.6661 48.5568 20.3935 51.754 20.3935 51.754C20.3935 51.754 25.6941 50.5122 25.6941 50.5122Z" stroke="#5F3EFF"/>
<path fill-rule="evenodd" clip-rule="evenodd" d="M50.1076 50.7734C52.5471 50.2019 54.0854 47.8074 53.5433 45.425C53.0013 43.0427 50.5843 41.5747 48.1447 42.1462C45.7052 42.7177 44.167 45.1122 44.709 47.4946C45.2511 49.8769 47.6681 51.3449 50.1076 50.7734Z" stroke="#5F3EFF"/>
<path fill-rule="evenodd" clip-rule="evenodd" d="M20.6409 42.0402C23.0805 41.4687 24.6187 39.0741 24.0766 36.6918C23.5346 34.3095 21.1176 32.8415 18.6781 33.413C16.2385 33.9845 14.7003 36.379 15.2424 38.7613C15.7844 41.1437 18.2014 42.6117 20.6409 42.0402Z" stroke="#5F3EFF"/>
<path d="M0 16.33H66" stroke="#5F3EFF" stroke-width="2"/>
</svg>
