<svg width="784" height="476" viewBox="0 0 784 476" fill="none" xmlns="http://www.w3.org/2000/svg">
<path fill-rule="evenodd" clip-rule="evenodd" d="M247.5 352.131L249.031 402.028C249.115 404.777 250.607 407.291 252.979 408.683L355.421 468.776C362.14 472.718 370.49 472.616 377.111 468.511L471.769 409.832C475.18 407.717 477.309 404.036 477.44 400.023L479 352.131C479 352.131 479.543 354.987 474.333 358.254C453.84 371.106 423 389.754 382.75 414.254C376.333 418.338 369.333 423.004 366.417 421.838C361.167 421.838 360 420.088 355.917 417.754C334.593 405.569 298.167 385.088 252.083 358.254C247.5 356.131 247.5 352.131 247.5 352.131Z" stroke="#5F3EFF"/>
<path fill-rule="evenodd" clip-rule="evenodd" d="M250.634 345.418C245.985 348.13 246.007 354.855 250.674 357.535L360.988 420.888C364.474 422.89 368.775 422.831 372.205 420.733L475.711 357.438C480.158 354.719 480.18 348.269 475.752 345.519L426.495 314.931L366.035 349.82C357.662 354.652 347.345 354.639 338.985 349.786L290.953 321.904L250.634 345.418Z" stroke="#5F3EFF" stroke-linejoin="round"/>
<path fill-rule="evenodd" clip-rule="evenodd" d="M101 268.631L102.991 318.079C103.1 320.801 104.587 323.279 106.937 324.658L209.289 384.699C216.078 388.681 224.523 388.533 231.168 384.315L248 373.631C248 373.631 248 361.631 247.5 351.631C247.5 345.631 256 342.631 256 342.631L291.1 322.031L270.194 309.835C270.194 309.835 248.664 323.002 236.75 330.254C230.333 334.338 223.333 339.004 220.417 337.838C215.167 337.838 214 336.088 209.917 333.754C188.593 321.569 152.167 301.088 106.083 274.254C103.381 272.681 101 268.631 101 268.631Z" stroke="#5F3EFF"/>
<path fill-rule="evenodd" clip-rule="evenodd" d="M104.649 261.421C99.9954 264.13 100.015 270.86 104.685 273.541L214.99 336.889C218.475 338.89 222.774 338.832 226.204 336.736L270.095 309.916L145.506 237.64L104.649 261.421Z" stroke="#5F3EFF" stroke-linejoin="round"/>
<path d="M587.5 344.131L647.813 376.278C652.183 378.607 657.421 378.63 661.811 376.338L718 347" stroke="#98B4F0" stroke-linecap="round"/>
<path d="M616 258.631L651.205 238.381C655.908 235.675 661.706 235.721 666.366 238.499L741 283" stroke="#98B4F0" stroke-linecap="round"/>
<path fill-rule="evenodd" clip-rule="evenodd" d="M426.4 314.931L473.5 344.131C473.5 344.131 477.792 346.706 478.82 348.675C478.972 348.965 479 349.296 478.999 349.623C478.97 355.183 478.5 371.631 478.5 371.631L500.383 384.658C507.119 388.668 515.527 388.593 522.19 384.463L616.769 325.832C620.18 323.717 622.309 320.036 622.44 316.023L624 268.131C624 268.131 624.543 270.987 619.333 274.254C598.84 287.106 568 305.754 527.75 330.254C521.333 334.338 514.333 339.004 511.417 337.838C506.167 337.838 505 336.088 500.917 333.754C488.056 326.405 446.95 302.981 446.95 302.981L426.4 314.931Z" stroke="#5F3EFF"/>
<path fill-rule="evenodd" clip-rule="evenodd" d="M466.303 238.038C468.575 239.324 469.942 241.768 469.849 244.378L468.319 287.397C468.245 289.47 467.105 291.358 465.305 292.39L446.9 302.931L505.987 336.885C509.474 338.889 513.776 338.83 517.206 336.732L620.711 273.438C625.157 270.719 625.18 264.269 620.752 261.519L570.053 230.035L527.962 254.296C519.009 259.456 507.987 259.462 499.028 254.313L453.092 227.909L450.789 229.252L466.303 238.038Z" stroke="#5F3EFF" stroke-linejoin="round"/>
<path fill-rule="evenodd" clip-rule="evenodd" d="M250.076 108.242C250.134 110.332 251.275 112.242 253.09 113.282L499.537 254.564C508.15 259.502 518.735 259.509 527.355 254.583L626.309 198.037C628.128 196.997 629.273 195.085 629.33 192.991L630.5 150.131C630.5 150.131 629.092 155.22 627.078 156.581C575.071 186.426 541.178 206.908 526.569 214.516C519.122 218.394 516.986 217.274 511.376 218.027C500.857 218.027 483.845 206.441 477.483 202.812C389.245 152.485 324.382 115.032 260.687 78.7493C247.831 72.3121 249 69.1312 249 69.1312L250.076 108.242Z" stroke="#00C58A" stroke-linejoin="round"/>
<path fill-rule="evenodd" clip-rule="evenodd" d="M252.109 62.0056C247.369 64.6712 247.346 71.4878 252.069 74.1852L498.701 215.07C507.367 220.02 518.012 219.984 526.644 214.975L627.343 156.534C632.012 153.825 631.986 147.074 627.298 144.4L382.07 4.524C373.525 -0.350376 363.048 -0.382204 354.473 4.44015L252.109 62.0056Z" stroke="#00C58A" stroke-linejoin="round"/>
<path d="M577.273 184.957L542.227 164.043C539.738 162.557 539.606 159 541.977 157.334L550.242 151.529C552.544 149.912 552.502 146.487 550.16 144.927L537.965 136.804" stroke="url(#paint0_radial)" stroke-linecap="round"/>
<path d="M438.322 179.952L475.586 155.355" stroke="url(#paint1_radial)" stroke-linecap="round" stroke-linejoin="round"/>
<path d="M342.384 125.46L375.729 105.637C379.126 103.617 383.346 103.575 386.783 105.528L397.041 111.355C400.379 113.251 404.463 113.27 407.819 111.405L441.011 92.9562C444.506 91.0135 448.781 91.1206 452.174 93.2359L473.587 106.583" stroke="url(#paint2_radial)" stroke-linecap="round"/>
<path d="M284.123 91.847L357.31 47.4203C359.908 45.843 359.867 42.0582 357.235 40.5375L324.783 21.7878" stroke="url(#paint3_radial)" stroke-linecap="round"/>
<path d="M460.34 48.9959L429.398 69.3279C426.272 71.3816 422.262 71.5197 419.003 69.6859L382.229 48.9959" stroke="url(#paint4_radial)" stroke-linecap="round"/>
<path d="M566.498 108.359L548.954 119.867C545.832 121.915 541.829 122.052 538.573 120.224L530.479 115.678L524.221 112.164C520.099 109.849 515.003 110.169 511.204 112.983L488.22 130.002" stroke="url(#paint5_radial)" stroke-linecap="round"/>
<path d="M132 244L98.314 225.011C93.8784 222.51 88.4771 222.431 83.9698 224.799L54.5222 240.275C50.0932 242.603 44.7952 242.569 40.3964 240.185L5 221" stroke="#98B4F0"/>
<path fill-rule="evenodd" clip-rule="evenodd" d="M89.0783 201.569C89.1345 203.65 90.265 205.553 92.0654 206.597L338.413 349.509C347.089 354.542 357.796 354.55 366.48 349.528L465.374 292.341C467.157 291.31 468.287 289.437 468.366 287.379L470 245.131C470 245.131 469.877 247.721 466.078 250.035C428.679 272.813 397.213 291.037 385.437 297.928C363.232 311.362 361.479 311.946 352.129 312.53C342.195 312.53 336.351 309.026 317.652 297.928C284.625 278.817 148.184 199.984 145.881 198.653C145.809 198.612 145.839 198.629 145.767 198.589C143.522 197.317 97.2362 171.1 92.6748 167.681C88 164.176 88 161.631 88 161.631L89.0783 201.569Z" stroke="#FF4329" stroke-linejoin="round"/>
<path fill-rule="evenodd" clip-rule="evenodd" d="M90.9518 154.812C86.2531 157.486 86.2302 164.251 90.9108 166.956L337.576 309.543C346.305 314.589 357.073 314.552 365.768 309.446L466.499 250.289C471.126 247.571 471.1 240.873 466.453 238.19L221.194 96.6255C212.585 91.6564 201.987 91.624 193.348 96.5404L90.9518 154.812Z" stroke="#FF4329" stroke-linejoin="round"/>
<path fill-rule="evenodd" clip-rule="evenodd" d="M274.879 127.829L251.284 142.515L333.671 190.267V213.915H309.24H291.493L166.5 142.515L231.87 103.05L274.879 127.829Z" stroke="#FF4329"/>
<path fill-rule="evenodd" clip-rule="evenodd" d="M354.764 201.471V224.919H312.064L333.177 237.672H375.748V213.928L354.764 201.471Z" stroke="#FF4329"/>
<path d="M314.338 294.236L350.097 272.086C355.903 268.49 363.298 268.718 368.873 272.665L395.081 291.222" stroke="#FF8738" stroke-width="2" stroke-linecap="round"/>
<path d="M381.434 280.66L431.472 250.116" stroke="#FF8738" stroke-width="2" stroke-linecap="round"/>
<path d="M100.541 172.058L131.754 152.467C138.785 148.055 138.597 137.748 131.41 133.595V133.595" stroke="#FF8738" stroke-width="2" stroke-linecap="round"/>
<path d="M112.532 165.601L169.141 198.687" stroke="#FF8738" stroke-width="2" stroke-linecap="round"/>
<path d="M284.613 243.148L341.221 276.234" stroke="#FF8738" stroke-width="2" stroke-linecap="round"/>
<path d="M173 367L139.312 387.453C136.771 388.995 136.74 392.671 139.255 394.256L166.203 411.242C169.336 413.217 169.31 417.793 166.154 419.732L118.179 449.206C113.388 452.149 107.353 452.166 102.546 449.249L56.4241 421.263C51.7769 418.444 45.9678 418.359 41.2401 421.041L1 443.875" stroke="#98B4F0"/>
<path d="M702 355L783 403" stroke="#98B4F0"/>
<path d="M700 258L782 209" stroke="#98B4F0"/>
<defs>
<radialGradient id="paint0_radial" cx="0" cy="0" r="1" gradientUnits="userSpaceOnUse" gradientTransform="translate(499.923 143.769) rotate(37.1392) scale(97.0313 165.881)">
<stop stop-color="#34B694"/>
<stop offset="1" stop-color="#082D22"/>
</radialGradient>
<radialGradient id="paint1_radial" cx="0" cy="0" r="1" gradientUnits="userSpaceOnUse" gradientTransform="translate(486.621 105.959) rotate(147.923) scale(116.173 168.231)">
<stop stop-color="#34B694"/>
<stop offset="1" stop-color="#082D22"/>
</radialGradient>
<radialGradient id="paint2_radial" cx="0" cy="0" r="1" gradientUnits="userSpaceOnUse" gradientTransform="translate(512.439 24.9779) rotate(166.411) scale(356.57 262.069)">
<stop stop-color="#34B694"/>
<stop offset="1" stop-color="#082D22"/>
</radialGradient>
<radialGradient id="paint3_radial" cx="0" cy="0" r="1" gradientUnits="userSpaceOnUse" gradientTransform="translate(321.244 50.9664) rotate(30.9134) scale(165.907 259.743)">
<stop stop-color="#34B694"/>
<stop offset="1" stop-color="#082D22"/>
</radialGradient>
<radialGradient id="paint4_radial" cx="0" cy="0" r="1" gradientUnits="userSpaceOnUse" gradientTransform="translate(310.583 52.4201) rotate(10.8871) scale(152.502 100.469)">
<stop stop-color="#34B694"/>
<stop offset="1" stop-color="#082D22"/>
</radialGradient>
<radialGradient id="paint5_radial" cx="0" cy="0" r="1" gradientUnits="userSpaceOnUse" gradientTransform="translate(416.419 111.489) rotate(9.95091) scale(152.372 92.1194)">
<stop stop-color="#34B694"/>
<stop offset="1" stop-color="#082D22"/>
</radialGradient>
</defs>
</svg>
