<svg width="46" height="69" viewBox="0 0 46 69" fill="none" xmlns="http://www.w3.org/2000/svg">
<mask id="path-1-inside-1" fill="white">
<rect x="11" y="3.51367" width="25" height="57.2959" rx="1"/>
</mask>
<rect x="11" y="3.51367" width="25" height="57.2959" rx="1" stroke="#5F3EFF" stroke-width="4" mask="url(#path-1-inside-1)"/>
<path fill-rule="evenodd" clip-rule="evenodd" d="M23.5 53C26.2614 53 28.5 50.7614 28.5 48C28.5 45.2386 26.2614 43 23.5 43C20.7386 43 18.5 45.2386 18.5 48C18.5 50.7614 20.7386 53 23.5 53Z" stroke="#5F3EFF" stroke-width="2"/>
<path fill-rule="evenodd" clip-rule="evenodd" d="M23.5 37C26.2614 37 28.5 34.7614 28.5 32C28.5 29.2386 26.2614 27 23.5 27C20.7386 27 18.5 29.2386 18.5 32C18.5 34.7614 20.7386 37 23.5 37Z" stroke="#5F3EFF" stroke-width="2"/>
<path fill-rule="evenodd" clip-rule="evenodd" d="M23.5 21C26.2614 21 28.5 18.7614 28.5 16C28.5 13.2386 26.2614 11 23.5 11C20.7386 11 18.5 13.2386 18.5 16C18.5 18.7614 20.7386 21 23.5 21Z" stroke="#5F3EFF" stroke-width="2"/>
<path fill-rule="evenodd" clip-rule="evenodd" d="M35.3964 11H44.6596V15.5922C44.6596 15.5922 42.3438 15.5922 41.3146 16.8678C40.028 18.1434 40.028 20.4396 40.028 20.4396H35.3964V11Z" stroke="#5F3EFF" stroke-width="2"/>
<path fill-rule="evenodd" clip-rule="evenodd" d="M11.2385 11H1.97537V15.5922C1.97537 15.5922 4.29116 15.5922 5.3204 16.8678C6.60695 18.1434 6.60695 20.4396 6.60695 20.4396H11.2385V11Z" stroke="#5F3EFF" stroke-width="2"/>
<path fill-rule="evenodd" clip-rule="evenodd" d="M35.3964 27H44.6596V31.5922C44.6596 31.5922 42.3438 31.5922 41.3146 32.8678C40.028 34.1434 40.028 36.4396 40.028 36.4396H35.3964V27Z" stroke="#5F3EFF" stroke-width="2"/>
<path fill-rule="evenodd" clip-rule="evenodd" d="M11.2385 27H1.97537V31.5922C1.97537 31.5922 4.29116 31.5922 5.3204 32.8678C6.60695 34.1434 6.60695 36.4396 6.60695 36.4396H11.2385V27Z" stroke="#5F3EFF" stroke-width="2"/>
<path fill-rule="evenodd" clip-rule="evenodd" d="M35.3964 43H44.6596V47.5922C44.6596 47.5922 42.3438 47.5922 41.3146 48.8678C40.028 50.1434 40.028 52.4396 40.028 52.4396H35.3964V43Z" stroke="#5F3EFF" stroke-width="2"/>
<path fill-rule="evenodd" clip-rule="evenodd" d="M11.2385 43H1.97537V47.5922C1.97537 47.5922 4.29116 47.5922 5.3204 48.8678C6.60695 50.1434 6.60695 52.4396 6.60695 52.4396H11.2385V43Z" stroke="#5F3EFF" stroke-width="2"/>
<mask id="path-11-inside-2" fill="white">
<rect x="18" y="0.537964" width="11" height="4" rx="1"/>
</mask>
<rect x="18" y="0.537964" width="11" height="4" rx="1" stroke="#5F3EFF" stroke-width="4" mask="url(#path-11-inside-2)"/>
<path fill-rule="evenodd" clip-rule="evenodd" d="M19 61V68V61Z" fill="white"/>
<path d="M19 61V68" stroke="#5F3EFF" stroke-width="2" stroke-linecap="round"/>
<path fill-rule="evenodd" clip-rule="evenodd" d="M28 61V68V61Z" fill="white"/>
<path d="M28 61V68" stroke="#5F3EFF" stroke-width="2" stroke-linecap="round"/>
</svg>
