<svg width="68" height="72" viewBox="0 0 68 72" fill="none" xmlns="http://www.w3.org/2000/svg">
<mask id="path-1-inside-1" fill="white">
<path fill-rule="evenodd" clip-rule="evenodd" d="M2 2.54346H66V62.6963H53V64.6963H66C67.1046 64.6963 68 63.8009 68 62.6963V2.54346C68 1.43889 67.1046 0.543457 66 0.543457H2C0.895431 0.543457 0 1.43889 0 2.54346V62.6963C0 63.8009 0.895432 64.6963 2 64.6963H47V62.6963H2V2.54346Z"/>
</mask>
<path d="M66 2.54346H68V0.543457H66V2.54346ZM2 2.54346V0.543457H0V2.54346H2ZM66 62.6963V64.6963H68V62.6963H66ZM53 62.6963V60.6963H51V62.6963H53ZM53 64.6963H51V66.6963H53V64.6963ZM47 64.6963V66.6963H49V64.6963H47ZM47 62.6963H49V60.6963H47V62.6963ZM2 62.6963H0V64.6963H2V62.6963ZM66 0.543457H2V4.54346H66V0.543457ZM68 62.6963V2.54346H64V62.6963H68ZM53 64.6963H66V60.6963H53V64.6963ZM51 62.6963V64.6963H55V62.6963H51ZM53 66.6963H66V62.6963H53V66.6963ZM66 66.6963C68.2091 66.6963 70 64.9054 70 62.6963H66V66.6963ZM70 62.6963V2.54346H66V62.6963H70ZM70 2.54346C70 0.334317 68.2091 -1.45654 66 -1.45654V2.54346H70ZM66 -1.45654H2V2.54346H66V-1.45654ZM2 -1.45654C-0.209139 -1.45654 -2 0.334318 -2 2.54346H2V-1.45654ZM-2 2.54346V62.6963H2V2.54346H-2ZM-2 62.6963C-2 64.9054 -0.209135 66.6963 2 66.6963V62.6963H2H-2ZM2 66.6963H47V62.6963H2V66.6963ZM49 64.6963V62.6963H45V64.6963H49ZM2 64.6963H47V60.6963H2V64.6963ZM0 2.54346V62.6963H4V2.54346H0Z" fill="#5F3EFF" mask="url(#path-1-inside-1)"/>
<rect x="6.5" y="6.5" width="3" height="3" rx="1.5" stroke="#5F3EFF"/>
<rect x="15.5" y="6.5" width="3" height="3" rx="1.5" stroke="#5F3EFF"/>
<rect x="24.5" y="6.5" width="3" height="3" rx="1.5" stroke="#5F3EFF"/>
<path fill-rule="evenodd" clip-rule="evenodd" d="M50 51.6653C57.732 51.6653 64 45.3823 64 37.6318C64 29.8814 57.732 23.5984 50 23.5984C42.268 23.5984 36 29.8814 36 37.6318C36 45.3823 42.268 51.6653 50 51.6653Z" stroke="#5F3EFF" stroke-width="2"/>
<path d="M49.0215 28.6103C44.6032 28.6103 41.0215 32.6494 41.0215 37.6318C41.0215 42.6143 44.6032 46.6533 49.0215 46.6533" stroke="#5F3EFF"/>
<path d="M46 55.6724H54V66.713C54 68.9221 52.2091 70.713 50 70.713C47.7909 70.713 46 68.9221 46 66.713V55.6724Z" stroke="#5F3EFF" stroke-width="2"/>
<path d="M0 14.5745H68" stroke="#5F3EFF" stroke-width="2"/>
<path d="M52 56V52" stroke="#5F3EFF" stroke-width="2"/>
<path d="M48 56V52" stroke="#5F3EFF" stroke-width="2"/>
</svg>
