<svg width="68" height="68" viewBox="0 0 68 68" fill="none" xmlns="http://www.w3.org/2000/svg">
<mask id="path-1-inside-1" fill="white">
<rect y="24.9841" width="15.7681" height="17.7815" rx="1.5"/>
</mask>
<rect y="24.9841" width="15.7681" height="17.7815" rx="1.5" stroke="#5F3EFF" stroke-width="4" mask="url(#path-1-inside-1)"/>
<mask id="path-2-inside-2" fill="white">
<rect x="52.2319" y="50.6685" width="15.7681" height="16.7936" rx="1.5"/>
</mask>
<rect x="52.2319" y="50.6685" width="15.7681" height="16.7936" rx="1.5" stroke="#5F3EFF" stroke-width="4" mask="url(#path-2-inside-2)"/>
<mask id="path-3-inside-3" fill="white">
<rect x="52.2319" y="25" width="15.7681" height="16.7936" rx="1.5"/>
</mask>
<rect x="52.2319" y="25" width="15.7681" height="16.7936" rx="1.5" stroke="#5F3EFF" stroke-width="4" mask="url(#path-3-inside-3)"/>
<mask id="path-4-inside-4" fill="white">
<rect x="52.2319" width="15.7681" height="16.7936" rx="1.5"/>
</mask>
<rect x="52.2319" width="15.7681" height="16.7936" rx="1.5" stroke="#5F3EFF" stroke-width="4" mask="url(#path-4-inside-4)"/>
<path d="M47.2899 8.17828H31.5507C30.4462 8.17828 29.5507 9.07371 29.5507 10.1783V57.1783C29.5507 58.2829 30.4462 59.1783 31.5507 59.1783H47.2899" stroke="#5F3EFF" stroke-width="2" stroke-linecap="round"/>
<path d="M42.3623 1L49.2609 8.40896L42.3623 15.8179" stroke="#5F3EFF" stroke-width="2" stroke-linecap="round"/>
<path d="M42.3623 26L49.2609 33.409L42.3623 40.8179" stroke="#5F3EFF" stroke-width="2" stroke-linecap="round"/>
<path d="M42.3623 51.6442L49.2609 59.0531L42.3623 66.4621" stroke="#5F3EFF" stroke-width="2" stroke-linecap="round"/>
<path d="M13.7826 33.8748H49.2609" stroke="#5F3EFF" stroke-width="2"/>
</svg>
