<svg width="81" height="67" viewBox="0 0 81 67" fill="none" xmlns="http://www.w3.org/2000/svg">
<rect x="5" y="1.32304" width="75" height="60" rx="2" fill="white" stroke="#2D9CDB"/>
<rect x="52" y="26.323" width="20" height="2" rx="1" fill="white" stroke="#5F3EFF" stroke-width="0.5"/>
<path d="M6 16.323L78.9983 15.8265" stroke="#14121E" stroke-linecap="square"/>
<rect x="13" y="26.323" width="12" height="2" rx="1" fill="white" stroke="#5F3EFF" stroke-width="0.5"/>
<rect x="27" y="26.323" width="23" height="2" rx="1" fill="white" stroke="#5F3EFF" stroke-width="0.5"/>
<rect x="29" y="34.323" width="12" height="2" rx="1" fill="white" stroke="#5F3EFF" stroke-width="0.5"/>
<rect x="43" y="34.323" width="29" height="2" rx="1" fill="white" stroke="#5F3EFF" stroke-width="0.5"/>
<rect x="13" y="34.323" width="15" height="2" rx="1" fill="white" stroke="#5F3EFF" stroke-width="0.5"/>
<rect x="56" y="42.323" width="16" height="2" rx="1" fill="white" stroke="#5F3EFF" stroke-width="0.5"/>
<rect x="57" y="50.323" width="15" height="2" rx="1" fill="white" stroke="#5F3EFF" stroke-width="0.5"/>
<rect x="39" y="42.323" width="14" height="2" rx="1" fill="white" stroke="#5F3EFF" stroke-width="0.5"/>
<rect x="31" y="50.323" width="23" height="2" rx="1" fill="white" stroke="#5F3EFF" stroke-width="0.5"/>
<rect x="13" y="50.323" width="16" height="2" rx="1" fill="white" stroke="#5F3EFF" stroke-width="0.5"/>
<path fill-rule="evenodd" clip-rule="evenodd" d="M14 10.823C15.1046 10.823 16 9.92761 16 8.82304C16 7.71847 15.1046 6.82304 14 6.82304C12.8954 6.82304 12 7.71847 12 8.82304C12 9.92761 12.8954 10.823 14 10.823Z" fill="white" stroke="#FE4328" stroke-width="0.5"/>
<path fill-rule="evenodd" clip-rule="evenodd" d="M22 10.823C23.1046 10.823 24 9.92761 24 8.82304C24 7.71847 23.1046 6.82304 22 6.82304C20.8954 6.82304 20 7.71847 20 8.82304C20 9.92761 20.8954 10.823 22 10.823Z" fill="white" stroke="#FE4328" stroke-width="0.5"/>
<path fill-rule="evenodd" clip-rule="evenodd" d="M30 10.823C31.1046 10.823 32 9.92761 32 8.82304C32 7.71847 31.1046 6.82304 30 6.82304C28.8954 6.82304 28 7.71847 28 8.82304C28 9.92761 28.8954 10.823 30 10.823Z" fill="white" stroke="#FE4328" stroke-width="0.5"/>
<rect x="13" y="42.323" width="23" height="2" rx="1" fill="white" stroke="#5F3EFF" stroke-width="0.5"/>
<path fill-rule="evenodd" clip-rule="evenodd" d="M17.4231 44.2449C17.2686 44.3963 17.1413 44.5648 17.0411 44.7445L13.8722 48.0787C11.9703 50.0797 11.2441 52.7699 11.6711 55.2969L1 66.1427H14.0318L17.569 61.9993L17.5485 61.9581C20.3005 62.7859 23.3931 62.1782 25.6534 60.1232L30.4914 55.7245L30.4202 55.6547L31.2324 54.8584C32.1119 53.996 32.1119 52.5795 31.2324 51.7171C30.5705 51.0682 29.601 50.9213 28.7999 51.2766L29.3094 50.7771C30.1889 49.9147 30.1889 48.4982 29.3094 47.6358C28.5914 46.9319 27.5115 46.8188 26.6772 47.2965L28.3434 45.6627C29.223 44.8003 29.223 43.3838 28.3434 42.5214C27.683 41.8738 26.7161 41.7263 25.916 42.0787L30.885 37.2066C31.7645 36.3442 31.7645 34.9277 30.885 34.0653C30.0296 33.2266 28.6603 33.2266 27.8049 34.0653L17.4231 44.2449Z" fill="white"/>
<path d="M17.0411 44.7445L17.2223 44.9167L17.244 44.8938L17.2594 44.8663L17.0411 44.7445ZM17.4231 44.2449L17.248 44.0664L17.4231 44.2449ZM13.8722 48.0787L13.6909 47.9065L13.8722 48.0787ZM11.6711 55.2969L11.8493 55.4723L11.9389 55.3812L11.9176 55.2553L11.6711 55.2969ZM1 66.1427L0.821794 65.9674L0.403311 66.3927H1V66.1427ZM14.0318 66.1427V66.3927H14.1471L14.2219 66.3051L14.0318 66.1427ZM17.569 61.9993L17.7591 62.1616L17.8664 62.036L17.7928 61.888L17.569 61.9993ZM17.5485 61.9581L17.6205 61.7187L17.0675 61.5524L17.3246 62.0694L17.5485 61.9581ZM25.6534 60.1232L25.8215 60.3082L25.6534 60.1232ZM30.4914 55.7245L30.6595 55.9095L30.8554 55.7314L30.6664 55.546L30.4914 55.7245ZM30.4202 55.6547L30.2452 55.4762L30.0631 55.6547L30.2452 55.8332L30.4202 55.6547ZM31.2324 54.8584L31.4074 55.0369L31.2324 54.8584ZM31.2324 51.7171L31.0573 51.8956L31.2324 51.7171ZM28.7999 51.2766L28.6249 51.0981L28.9013 51.5052L28.7999 51.2766ZM29.3094 50.7771L29.4844 50.9556L29.3094 50.7771ZM29.3094 47.6358L29.4844 47.4573L29.3094 47.6358ZM26.6772 47.2965L26.5021 47.118L26.8014 47.5135L26.6772 47.2965ZM28.3434 45.6627L28.1684 45.4842L28.3434 45.6627ZM28.3434 42.5214L28.5185 42.3429L28.3434 42.5214ZM25.916 42.0787L25.741 41.9002L26.0168 42.3075L25.916 42.0787ZM30.885 37.2066L31.06 37.3851V37.3851L30.885 37.2066ZM30.885 34.0653L30.71 34.2438V34.2438L30.885 34.0653ZM27.8049 34.0653L27.6299 33.8868V33.8868L27.8049 34.0653ZM17.2594 44.8663C17.3481 44.7073 17.4609 44.5579 17.5981 44.4234L17.248 44.0664C17.0763 44.2347 16.9345 44.4224 16.8228 44.6227L17.2594 44.8663ZM14.0534 48.2509L17.2223 44.9167L16.8599 44.5722L13.6909 47.9065L14.0534 48.2509ZM11.9176 55.2553C11.5031 52.8025 12.208 50.1925 14.0534 48.2509L13.6909 47.9065C11.7326 49.967 10.985 52.7373 11.4246 55.3386L11.9176 55.2553ZM1.17821 66.3181L11.8493 55.4723L11.4929 55.1216L0.821794 65.9674L1.17821 66.3181ZM14.0318 65.8927H1V66.3927H14.0318V65.8927ZM17.3788 61.837L13.8416 65.9804L14.2219 66.3051L17.7591 62.1616L17.3788 61.837ZM17.3246 62.0694L17.3451 62.1106L17.7928 61.888L17.7723 61.8468L17.3246 62.0694ZM25.4852 59.9383C23.2922 61.9321 20.2914 62.5221 17.6205 61.7187L17.4765 62.1975C20.3096 63.0497 23.4941 62.4243 25.8215 60.3082L25.4852 59.9383ZM30.3232 55.5395L25.4852 59.9383L25.8215 60.3082L30.6595 55.9095L30.3232 55.5395ZM30.2452 55.8332L30.3163 55.903L30.6664 55.546L30.5952 55.4762L30.2452 55.8332ZM31.0573 54.6799L30.2452 55.4762L30.5952 55.8332L31.4074 55.0369L31.0573 54.6799ZM31.0573 51.8956C31.8369 52.66 31.8369 53.9155 31.0573 54.6799L31.4074 55.0369C32.3869 54.0765 32.3869 52.499 31.4074 51.5386L31.0573 51.8956ZM28.9013 51.5052C29.6117 51.1901 30.471 51.3207 31.0573 51.8956L31.4074 51.5386C30.6701 50.8157 29.5903 50.6526 28.6986 51.0481L28.9013 51.5052ZM29.1343 50.5986L28.6249 51.0981L28.975 51.4552L29.4844 50.9556L29.1343 50.5986ZM29.1343 47.8144C29.9139 48.5787 29.9139 49.8342 29.1343 50.5986L29.4844 50.9556C30.4639 49.9952 30.4639 48.4177 29.4844 47.4573L29.1343 47.8144ZM26.8014 47.5135C27.5409 47.09 28.4982 47.1906 29.1343 47.8144L29.4844 47.4573C28.6846 46.6731 27.482 46.5476 26.5529 47.0796L26.8014 47.5135ZM28.1684 45.4842L26.5021 47.118L26.8522 47.475L28.5185 45.8412L28.1684 45.4842ZM28.1684 42.6999C28.948 43.4643 28.948 44.7198 28.1684 45.4842L28.5185 45.8412C29.498 44.8808 29.498 43.3033 28.5185 42.3429L28.1684 42.6999ZM26.0168 42.3075C26.7263 41.9949 27.5833 42.1262 28.1684 42.6999L28.5185 42.3429C27.7827 41.6215 26.7059 41.4576 25.8152 41.8499L26.0168 42.3075ZM30.71 37.028L25.741 41.9002L26.091 42.2572L31.06 37.3851L30.71 37.028ZM30.71 34.2438C31.4895 35.0082 31.4895 36.2637 30.71 37.028L31.06 37.3851C32.0395 36.4247 32.0395 34.8472 31.06 33.8868L30.71 34.2438ZM27.98 34.2438C28.7381 33.5004 29.9518 33.5004 30.71 34.2438L31.06 33.8868C30.1074 32.9527 28.5825 32.9527 27.6299 33.8868L27.98 34.2438ZM17.5981 44.4234L27.98 34.2438L27.6299 33.8868L17.248 44.0664L17.5981 44.4234Z" fill="#FE4328"/>
</svg>
