<svg width="113" height="30" viewBox="0 0 113 30" fill="none" xmlns="http://www.w3.org/2000/svg">
<path d="M45.014 21.4322L43.4677 17.5285H38.1192L36.5729 21.4068H34.3169L39.8049 7.6172H41.782L47.27 21.4448L45.014 21.4322ZM40.7934 10.7984L38.9177 15.5513H42.7199L40.7934 10.7984ZM55.6223 19.8099C55.2709 20.3936 54.769 20.8721 54.1692 21.1954C53.5694 21.5187 52.8938 21.6749 52.213 21.6476C51.5539 21.6582 50.9019 21.5104 50.3118 21.2167V25.7921H48.2966V11.8504H50.3118V12.1419C50.9019 11.8482 51.5539 11.7005 52.213 11.711C52.8938 11.6837 53.5694 11.8399 54.1692 12.1632C54.769 12.4865 55.2709 12.9651 55.6223 13.5488C56.129 14.5243 56.357 15.6206 56.2814 16.7173C56.3381 17.7882 56.1108 18.8551 55.6223 19.8099ZM53.8606 14.4993C53.6861 14.2267 53.4403 14.007 53.1499 13.864C52.8595 13.721 52.5355 13.6602 52.213 13.6882C51.89 13.6559 51.5644 13.7147 51.2731 13.8581C50.9819 14.0015 50.7367 14.2236 50.5653 14.4993C50.4199 14.7742 50.3336 15.0764 50.3118 15.3865V17.9214C50.3339 18.2315 50.4203 18.5336 50.5653 18.8086C50.755 19.0654 51.0024 19.2741 51.2874 19.418C51.5725 19.5618 51.8873 19.6367 52.2066 19.6367C52.5259 19.6367 52.8408 19.5618 53.1258 19.418C53.4109 19.2741 53.6582 19.0654 53.8479 18.8086C54.1662 18.1375 54.3018 17.3942 54.2408 16.654C54.2976 15.9152 54.1668 15.174 53.8606 14.4993ZM65.0774 19.8099C64.7259 20.3936 64.224 20.8721 63.6242 21.1954C63.0244 21.5187 62.3488 21.6749 61.668 21.6476C61.0089 21.6582 60.3569 21.5104 59.7668 21.2167V25.7921H57.7516V11.8504H59.7668V12.1419C60.3569 11.8482 61.0089 11.7005 61.668 11.711C62.3488 11.6837 63.0244 11.8399 63.6242 12.1632C64.224 12.4865 64.7259 12.9651 65.0774 13.5488C65.584 14.5243 65.812 15.6206 65.7364 16.7173C65.7931 17.7882 65.5658 18.8551 65.0774 19.8099ZM63.3156 14.4993C63.1411 14.2267 62.8953 14.007 62.6049 13.864C62.3145 13.721 61.9905 13.6602 61.668 13.6882C61.345 13.6559 61.0194 13.7147 60.7281 13.8581C60.4369 14.0015 60.1917 14.2236 60.0203 14.4993C59.8753 14.7743 59.7889 15.0764 59.7668 15.3865V17.9214C59.7893 18.2314 59.8756 18.5335 60.0203 18.8086C60.21 19.0654 60.4574 19.2741 60.7424 19.418C61.0275 19.5618 61.3423 19.6367 61.6616 19.6367C61.9809 19.6367 62.2958 19.5618 62.5808 19.418C62.8659 19.2741 63.1132 19.0654 63.303 18.8086C63.6212 18.1375 63.7568 17.3942 63.6959 16.654C63.7526 15.9152 63.6218 15.174 63.3156 14.4993ZM77.5362 17.5285C77.0419 20.8365 74.7478 21.4322 71.7947 21.4322H67.4094V7.6172H71.782C74.7351 7.6172 77.0292 8.18754 77.5235 11.5209C77.6483 12.5213 77.7034 13.5293 77.6883 14.5374C77.7059 15.5367 77.6551 16.5361 77.5362 17.5285ZM71.782 9.65776H69.5007V19.3789H71.782C75.7237 19.3789 75.5843 18.0355 75.5843 14.5247C75.5843 11.0139 75.7237 9.65776 71.782 9.65776ZM79.6528 21.4322V11.6476H81.6933V21.4322H79.6528ZM79.6528 9.92392V7.51581H81.6933V9.92392H79.6528ZM88.9557 13.9924C88.5789 13.744 88.1394 13.6078 87.6883 13.5995C86.8771 13.5995 85.8505 14.0811 85.8505 15.0063V21.4448H83.8226V11.749H85.7998V12.0405C86.377 11.7791 87.0039 11.645 87.6376 11.6476C88.3982 11.6542 89.1476 11.8318 89.8302 12.1673L88.9557 13.9924ZM92.1116 17.3764C92.1232 17.8748 92.2582 18.3625 92.5045 18.7959C92.743 19.0932 93.0493 19.3289 93.3978 19.4832C93.7462 19.6376 94.1266 19.7062 94.507 19.6831C94.8943 19.7021 95.2808 19.632 95.6368 19.4782C95.9927 19.3244 96.3087 19.091 96.5602 18.7959L98.1826 20.0633C97.7212 20.5753 97.1526 20.9793 96.5173 21.2466C95.882 21.5139 95.1956 21.6378 94.507 21.6096C93.7882 21.6506 93.0705 21.5109 92.4196 21.2031C91.7687 20.8954 91.2052 20.4294 90.7808 19.8479C90.2231 18.866 89.9633 17.743 90.033 16.6159C89.9633 15.4889 90.2231 14.3659 90.7808 13.384C91.1767 12.8184 91.7104 12.3632 92.3315 12.0616C92.9525 11.7599 93.6402 11.6218 94.3296 11.6603C94.9838 11.6405 95.632 11.79 96.2115 12.0942C96.791 12.3984 97.2822 12.847 97.6376 13.3967C98.2046 14.6369 98.4111 16.0117 98.2332 17.3637L92.1116 17.3764ZM95.9139 14.4613C95.7426 14.1899 95.5019 13.9692 95.2166 13.8221C94.9314 13.6751 94.612 13.6069 94.2915 13.6248C94.0327 13.6004 93.7715 13.6272 93.5231 13.7039C93.2746 13.7805 93.0437 13.9054 92.8435 14.0714C92.6434 14.2374 92.478 14.4412 92.3567 14.6713C92.2355 14.9013 92.1608 15.153 92.1369 15.4119H96.1547C96.149 15.0849 96.0802 14.7621 95.9519 14.4613H95.9139ZM103.823 21.5969C101.009 21.5969 99.3486 19.4803 99.3486 16.5272C99.3486 13.5741 101.009 11.4575 103.823 11.4575C104.551 11.4522 105.269 11.6221 105.918 11.953C106.566 12.2839 107.126 12.766 107.549 13.3586L106.066 14.6261C105.001 13.4727 104.558 13.3586 103.823 13.3586C103.461 13.3402 103.1 13.4115 102.773 13.5663C102.446 13.7211 102.162 13.9546 101.947 14.2458C101.533 14.9212 101.35 15.7133 101.427 16.5019C101.34 17.3031 101.522 18.1106 101.947 18.7959C102.16 19.0897 102.443 19.3251 102.771 19.4802C103.099 19.6353 103.461 19.7051 103.823 19.6831C104.558 19.6831 104.989 19.5183 106.066 18.4157L107.549 19.6831C107.126 20.2765 106.567 20.7599 105.918 21.0929C105.27 21.4259 104.551 21.5987 103.823 21.5969ZM108.715 11.6476V9.36625L110.654 9.03672V11.6476H112.378V13.4727H110.654V18.8593C110.634 19.0023 110.634 19.1472 110.654 19.2902C110.673 19.3368 110.707 19.3757 110.751 19.4009C110.794 19.4261 110.845 19.4362 110.895 19.4296H112.162V21.4322H110.895C110.529 21.4427 110.166 21.357 109.844 21.1835C109.521 21.01 109.25 20.7548 109.057 20.4436C108.79 19.96 108.667 19.4104 108.702 18.8593V11.6476H108.715Z" fill="#6D6D7F"/>
<path d="M2.22568 23.891L10.4766 20.2915L14.469 8.46641L10.4259 2.05323L2.22568 23.891ZM10.2485 0L20.3752 16.0076L26.3195 13.4221L16.8264 0H10.2485ZM30.6287 12.5982L0.590698 25.6274L6.99121 30L27.1306 21.4449L30.6287 12.5982Z" fill="#6D6D7F"/>
</svg>
