<svg width="1440" height="680" viewBox="0 0 1440 680" fill="none" xmlns="http://www.w3.org/2000/svg">
<g clip-path="url(#clip0)">
<path opacity="0.2" d="M1114.07 431.127C1133.9 431.127 1269.69 154.618 1280.13 154.618C1290.58 154.618 1371.85 336.329 1382.85 336.329C1393.85 336.329 1428.08 -38.9117 1473.73 -56.1883L1473.73 680.032C982.489 680.032 491.244 680.032 0 680.032V573.726C19.8033 573.726 138.525 521.546 168.207 521.546C197.887 521.546 346.29 601.803 357.243 601.803C368.196 601.803 529.09 458.755 546.451 458.755C563.811 458.755 719.438 543.726 735.656 543.726C751.876 543.726 930.847 252.03 945.15 252.03C959.453 252.03 1094.24 431.127 1114.07 431.127Z" fill="url(#paint0_linear)"/>
<path opacity="0.2" d="M1114.07 463.052C1133.9 463.052 1269.17 224.573 1279.62 224.573C1290.06 224.573 1371.85 386.505 1382.85 386.505C1393.85 386.505 1438.08 -68.7356 1483.73 -86.0122L1483.73 680.032C1171.31 680.032 858.878 680.032 546.451 680.032H0V593.902C19.8033 593.902 138.525 531.479 168.207 531.479C197.887 531.479 346.46 602.86 357.413 602.86C368.366 602.86 529.09 483.213 546.451 483.213C563.811 483.213 719.438 579.4 735.656 579.4C751.876 579.4 930.851 348.287 945.154 348.287C959.457 348.287 1094.24 463.052 1114.07 463.052Z" fill="url(#paint1_linear)"/>
<path opacity="0.3" d="M1114.07 493.158C1133.9 493.158 1273.17 314.89 1283.62 314.89C1294.06 314.89 1371.85 396.54 1382.85 396.54C1393.85 396.54 1441.08 -38.63 1486.73 -55.9066L1486.73 680.032C991.155 680.032 495.578 680.032 0 680.032V624.007C19.8033 624.007 138.525 541.549 168.207 541.549C197.887 541.549 346.46 632.966 357.413 632.966C368.366 632.966 529.09 553.46 546.451 553.46C563.811 553.46 719.438 619.541 735.656 619.541C751.876 619.541 930.851 418.534 945.154 418.534C959.457 418.534 1094.24 493.158 1114.07 493.158Z" fill="url(#paint2_linear)"/>
<path opacity="0.5" d="M1114.07 513.228C1133.9 513.228 1273.17 344.96 1283.62 344.96C1294.06 344.96 1371.85 416.611 1382.85 416.611C1393.85 416.611 1448.08 -18.5596 1493.73 -35.8362L1493.73 680.032C995.822 680.032 497.911 680.032 0 680.032V644.078C19.8033 644.078 138.525 551.62 168.207 551.62C197.887 551.62 346.46 653.036 357.413 653.036C368.366 653.036 529.09 573.53 546.451 573.53C563.811 573.53 719.438 639.611 735.656 639.611C751.876 639.611 930.851 438.604 945.154 438.604C959.457 438.604 1094.24 513.228 1114.07 513.228Z" fill="url(#paint3_linear)"/>
</g>
<defs>
<linearGradient id="paint0_linear" x1="1421.74" y1="679.999" x2="-0.00014403" y2="681.685" gradientUnits="userSpaceOnUse">
<stop stop-color="#00C05B"/>
<stop offset="0.216843" stop-color="#00C05B"/>
<stop offset="0.297787" stop-color="#55DA8C"/>
<stop offset="0.35674" stop-color="#96BEB7"/>
<stop offset="0.446698" stop-color="#AF5CF8"/>
<stop offset="0.557619" stop-color="#C98BFF"/>
<stop offset="0.579606" stop-color="#ABAAEA"/>
<stop offset="0.670541" stop-color="#F5A623"/>
<stop offset="0.74392" stop-color="#F8C369"/>
<stop offset="0.824446" stop-color="#FFE8B7"/>
<stop offset="0.915387" stop-color="#F1A69F"/>
<stop offset="0.940538" stop-color="#E24D3F"/>
<stop offset="1" stop-color="#DB210F"/>
</linearGradient>
<linearGradient id="paint1_linear" x1="1431.39" y1="679.998" x2="-0.000273392" y2="681.64" gradientUnits="userSpaceOnUse">
<stop stop-color="#00C05B"/>
<stop offset="0.216843" stop-color="#00C05B"/>
<stop offset="0.297787" stop-color="#55DA8C"/>
<stop offset="0.35674" stop-color="#96BEB7"/>
<stop offset="0.446698" stop-color="#AF5CF8"/>
<stop offset="0.557619" stop-color="#C98BFF"/>
<stop offset="0.579606" stop-color="#ABAAEA"/>
<stop offset="0.670541" stop-color="#F5A623"/>
<stop offset="0.74392" stop-color="#F8C369"/>
<stop offset="0.824446" stop-color="#FFE8B7"/>
<stop offset="0.915387" stop-color="#F1A69F"/>
<stop offset="0.940538" stop-color="#E24D3F"/>
<stop offset="1" stop-color="#DB210F"/>
</linearGradient>
<linearGradient id="paint2_linear" x1="1434.28" y1="679.999" x2="-0.000107982" y2="681.716" gradientUnits="userSpaceOnUse">
<stop stop-color="#00C05B"/>
<stop offset="0.216843" stop-color="#00C05B"/>
<stop offset="0.297787" stop-color="#55DA8C"/>
<stop offset="0.35674" stop-color="#96BEB7"/>
<stop offset="0.446698" stop-color="#AF5CF8"/>
<stop offset="0.557619" stop-color="#C98BFF"/>
<stop offset="0.579606" stop-color="#ABAAEA"/>
<stop offset="0.670541" stop-color="#F5A623"/>
<stop offset="0.74392" stop-color="#F8C369"/>
<stop offset="0.824446" stop-color="#FFE8B7"/>
<stop offset="0.915387" stop-color="#F1A69F"/>
<stop offset="0.940538" stop-color="#E24D3F"/>
<stop offset="1" stop-color="#DB210F"/>
</linearGradient>
<linearGradient id="paint3_linear" x1="1441.04" y1="680" x2="2.94727e-05" y2="681.781" gradientUnits="userSpaceOnUse">
<stop stop-color="#00C05B"/>
<stop offset="0.216843" stop-color="#00C05B"/>
<stop offset="0.297787" stop-color="#55DA8C"/>
<stop offset="0.35674" stop-color="#96BEB7"/>
<stop offset="0.446698" stop-color="#AF5CF8"/>
<stop offset="0.557619" stop-color="#C98BFF"/>
<stop offset="0.579606" stop-color="#ABAAEA"/>
<stop offset="0.670541" stop-color="#F5A623"/>
<stop offset="0.74392" stop-color="#F8C369"/>
<stop offset="0.824446" stop-color="#FFE8B7"/>
<stop offset="0.915387" stop-color="#F1A69F"/>
<stop offset="0.940538" stop-color="#E24D3F"/>
<stop offset="1" stop-color="#DB210F"/>
</linearGradient>
<clipPath id="clip0">
<rect width="1440" height="680" fill="white"/>
</clipPath>
</defs>
</svg>
