<svg width="2400" height="767" viewBox="0 0 2400 767" fill="none" xmlns="http://www.w3.org/2000/svg">
<path opacity="0.2" d="M1856.78 518.127C1889.83 518.127 2116.14 241.618 2133.55 241.618C2150.97 241.618 2286.42 423.329 2304.75 423.329C2323.08 423.329 2380.13 48.0883 2456.22 30.8117L2456.22 767.032C1637.48 767.032 818.74 767.032 0 767.032V660.726C33.0054 660.726 230.876 608.546 280.345 608.546C329.812 608.546 577.151 688.803 595.406 688.803C613.661 688.803 881.817 545.755 910.751 545.755C939.685 545.755 1199.06 630.726 1226.09 630.726C1253.13 630.726 1551.41 339.03 1575.25 339.03C1599.09 339.03 1823.74 518.127 1856.78 518.127Z" fill="url(#paint0_linear)"/>
<path opacity="0.2" d="M1856.78 550.052C1889.83 550.052 2115.28 311.573 2132.69 311.573C2150.1 311.573 2286.42 473.505 2304.75 473.505C2323.08 473.505 2396.8 18.2644 2472.89 0.987762L2472.89 767.032C1952.18 767.032 1431.46 767.032 910.751 767.032H0V680.902C33.0054 680.902 230.876 618.479 280.345 618.479C329.812 618.479 577.433 689.86 595.688 689.86C613.943 689.86 881.817 570.213 910.751 570.213C939.685 570.213 1199.06 666.4 1226.09 666.4C1253.13 666.4 1551.42 435.287 1575.26 435.287C1599.09 435.287 1823.74 550.052 1856.78 550.052Z" fill="url(#paint1_linear)"/>
<path opacity="0.3" d="M1856.78 580.158C1889.83 580.158 2121.95 401.89 2139.36 401.89C2156.77 401.89 2286.42 483.54 2304.75 483.54C2323.08 483.54 2401.8 48.37 2477.89 31.0934L2477.89 767.032C1651.93 767.032 825.963 767.032 0 767.032V711.007C33.0054 711.007 230.876 628.549 280.345 628.549C329.812 628.549 577.433 719.966 595.688 719.966C613.943 719.966 881.817 640.46 910.751 640.46C939.685 640.46 1199.06 706.541 1226.09 706.541C1253.13 706.541 1551.42 505.534 1575.26 505.534C1599.09 505.534 1823.74 580.158 1856.78 580.158Z" fill="url(#paint2_linear)"/>
<path opacity="0.5" d="M1856.78 600.228C1889.83 600.228 2121.95 431.96 2139.36 431.96C2156.77 431.96 2286.41 503.611 2304.74 503.611C2323.08 503.611 2413.47 68.4404 2489.55 51.1638L2489.55 767.032C1659.7 767.032 829.852 767.032 0 767.032V731.078C33.0054 731.078 230.876 638.62 280.345 638.62C329.812 638.62 577.433 740.036 595.688 740.036C613.943 740.036 881.817 660.53 910.751 660.53C939.685 660.53 1199.06 726.611 1226.09 726.611C1253.13 726.611 1551.42 525.604 1575.26 525.604C1599.09 525.604 1823.74 600.228 1856.78 600.228Z" fill="url(#paint3_linear)"/>
<defs>
<linearGradient id="paint0_linear" x1="2369.57" y1="766.999" x2="0.00568474" y2="771.683" gradientUnits="userSpaceOnUse">
<stop stop-color="#00C05B"/>
<stop offset="0.216843" stop-color="#00C05B"/>
<stop offset="0.297787" stop-color="#55DA8C"/>
<stop offset="0.35674" stop-color="#96BEB7"/>
<stop offset="0.446698" stop-color="#AF5CF8"/>
<stop offset="0.557619" stop-color="#C98BFF"/>
<stop offset="0.579606" stop-color="#ABAAEA"/>
<stop offset="0.670541" stop-color="#F5A623"/>
<stop offset="0.74392" stop-color="#F8C369"/>
<stop offset="0.824446" stop-color="#FFE8B7"/>
<stop offset="0.915387" stop-color="#F1A69F"/>
<stop offset="0.940538" stop-color="#E24D3F"/>
<stop offset="1" stop-color="#DB210F"/>
</linearGradient>
<linearGradient id="paint1_linear" x1="2385.65" y1="766.998" x2="0.00512895" y2="771.56" gradientUnits="userSpaceOnUse">
<stop stop-color="#00C05B"/>
<stop offset="0.216843" stop-color="#00C05B"/>
<stop offset="0.297787" stop-color="#55DA8C"/>
<stop offset="0.35674" stop-color="#96BEB7"/>
<stop offset="0.446698" stop-color="#AF5CF8"/>
<stop offset="0.557619" stop-color="#C98BFF"/>
<stop offset="0.579606" stop-color="#ABAAEA"/>
<stop offset="0.670541" stop-color="#F5A623"/>
<stop offset="0.74392" stop-color="#F8C369"/>
<stop offset="0.824446" stop-color="#FFE8B7"/>
<stop offset="0.915387" stop-color="#F1A69F"/>
<stop offset="0.940538" stop-color="#E24D3F"/>
<stop offset="1" stop-color="#DB210F"/>
</linearGradient>
<linearGradient id="paint2_linear" x1="2390.47" y1="766.999" x2="0.00590766" y2="771.768" gradientUnits="userSpaceOnUse">
<stop stop-color="#00C05B"/>
<stop offset="0.216843" stop-color="#00C05B"/>
<stop offset="0.297787" stop-color="#55DA8C"/>
<stop offset="0.35674" stop-color="#96BEB7"/>
<stop offset="0.446698" stop-color="#AF5CF8"/>
<stop offset="0.557619" stop-color="#C98BFF"/>
<stop offset="0.579606" stop-color="#ABAAEA"/>
<stop offset="0.670541" stop-color="#F5A623"/>
<stop offset="0.74392" stop-color="#F8C369"/>
<stop offset="0.824446" stop-color="#FFE8B7"/>
<stop offset="0.915387" stop-color="#F1A69F"/>
<stop offset="0.940538" stop-color="#E24D3F"/>
<stop offset="1" stop-color="#DB210F"/>
</linearGradient>
<linearGradient id="paint3_linear" x1="2401.73" y1="767" x2="0.00657419" y2="771.948" gradientUnits="userSpaceOnUse">
<stop stop-color="#00C05B"/>
<stop offset="0.216843" stop-color="#00C05B"/>
<stop offset="0.297787" stop-color="#55DA8C"/>
<stop offset="0.35674" stop-color="#96BEB7"/>
<stop offset="0.446698" stop-color="#AF5CF8"/>
<stop offset="0.557619" stop-color="#C98BFF"/>
<stop offset="0.579606" stop-color="#ABAAEA"/>
<stop offset="0.670541" stop-color="#F5A623"/>
<stop offset="0.74392" stop-color="#F8C369"/>
<stop offset="0.824446" stop-color="#FFE8B7"/>
<stop offset="0.915387" stop-color="#F1A69F"/>
<stop offset="0.940538" stop-color="#E24D3F"/>
<stop offset="1" stop-color="#DB210F"/>
</linearGradient>
</defs>
</svg>
