<svg width="900" height="768" viewBox="0 0 900 768" fill="none" xmlns="http://www.w3.org/2000/svg">
<path opacity="0.2" d="M696.294 518.127C708.687 518.127 793.553 241.618 800.083 241.618C806.612 241.618 857.407 423.329 864.281 423.329C871.156 423.329 892.55 48.0883 921.083 30.8117L921.083 767.032C614.055 767.032 307.028 767.032 0 767.032V660.726C12.377 660.726 86.5784 608.546 105.129 608.546C123.68 608.546 216.431 688.803 223.277 688.803C230.123 688.803 330.681 545.755 341.532 545.755C352.382 545.755 449.649 630.726 459.785 630.726C469.923 630.726 581.78 339.03 590.719 339.03C599.658 339.03 683.902 518.127 696.294 518.127Z" fill="url(#paint0_linear)"/>
<path opacity="0.2" d="M696.294 550.052C708.687 550.052 793.23 311.573 799.76 311.573C806.289 311.573 857.407 473.505 864.281 473.505C871.156 473.505 898.8 18.2644 927.333 0.987762L927.333 767.032C732.066 767.032 536.799 767.032 341.532 767.032H0V680.902C12.377 680.902 86.5784 618.479 105.129 618.479C123.68 618.479 216.537 689.86 223.383 689.86C230.229 689.86 330.681 570.213 341.532 570.213C352.382 570.213 449.649 666.4 459.785 666.4C469.923 666.4 581.782 435.287 590.721 435.287C599.66 435.287 683.902 550.052 696.294 550.052Z" fill="url(#paint1_linear)"/>
<path opacity="0.3" d="M696.294 580.158C708.686 580.158 795.73 401.89 802.26 401.89C808.789 401.89 857.407 483.54 864.281 483.54C871.156 483.54 900.675 48.37 929.208 31.0934L929.208 767.032C619.472 767.032 309.736 767.032 0 767.032V711.007C12.377 711.007 86.5784 628.549 105.129 628.549C123.68 628.549 216.537 719.966 223.383 719.966C230.229 719.966 330.681 640.46 341.532 640.46C352.382 640.46 449.649 706.541 459.785 706.541C469.923 706.541 581.782 505.534 590.721 505.534C599.66 505.534 683.902 580.158 696.294 580.158Z" fill="url(#paint2_linear)"/>
<path opacity="0.5" d="M696.294 600.228C708.686 600.228 795.73 431.96 802.26 431.96C808.789 431.96 857.404 503.611 864.279 503.611C871.153 503.611 905.05 68.4404 933.583 51.1638L933.583 767.032C622.389 767.032 311.194 767.032 0 767.032V731.078C12.377 731.078 86.5784 638.62 105.129 638.62C123.68 638.62 216.537 740.036 223.383 740.036C230.229 740.036 330.681 660.53 341.532 660.53C352.382 660.53 449.649 726.611 459.785 726.611C469.923 726.611 581.782 525.604 590.721 525.604C599.66 525.604 683.902 600.228 696.294 600.228Z" fill="url(#paint3_linear)"/>
<defs>
<linearGradient id="paint0_linear" x1="888.588" y1="766.999" x2="-0.000851594" y2="767.658" gradientUnits="userSpaceOnUse">
<stop stop-color="#00C05B"/>
<stop offset="0.216843" stop-color="#00C05B"/>
<stop offset="0.297787" stop-color="#55DA8C"/>
<stop offset="0.35674" stop-color="#96BEB7"/>
<stop offset="0.446698" stop-color="#AF5CF8"/>
<stop offset="0.557619" stop-color="#C98BFF"/>
<stop offset="0.579606" stop-color="#ABAAEA"/>
<stop offset="0.670541" stop-color="#F5A623"/>
<stop offset="0.74392" stop-color="#F8C369"/>
<stop offset="0.824446" stop-color="#FFE8B7"/>
<stop offset="0.915387" stop-color="#F1A69F"/>
<stop offset="0.940538" stop-color="#E24D3F"/>
<stop offset="1" stop-color="#DB210F"/>
</linearGradient>
<linearGradient id="paint1_linear" x1="894.618" y1="766.998" x2="-0.000888717" y2="767.639" gradientUnits="userSpaceOnUse">
<stop stop-color="#00C05B"/>
<stop offset="0.216843" stop-color="#00C05B"/>
<stop offset="0.297787" stop-color="#55DA8C"/>
<stop offset="0.35674" stop-color="#96BEB7"/>
<stop offset="0.446698" stop-color="#AF5CF8"/>
<stop offset="0.557619" stop-color="#C98BFF"/>
<stop offset="0.579606" stop-color="#ABAAEA"/>
<stop offset="0.670541" stop-color="#F5A623"/>
<stop offset="0.74392" stop-color="#F8C369"/>
<stop offset="0.824446" stop-color="#FFE8B7"/>
<stop offset="0.915387" stop-color="#F1A69F"/>
<stop offset="0.940538" stop-color="#E24D3F"/>
<stop offset="1" stop-color="#DB210F"/>
</linearGradient>
<linearGradient id="paint2_linear" x1="896.426" y1="766.999" x2="-0.000849995" y2="767.67" gradientUnits="userSpaceOnUse">
<stop stop-color="#00C05B"/>
<stop offset="0.216843" stop-color="#00C05B"/>
<stop offset="0.297787" stop-color="#55DA8C"/>
<stop offset="0.35674" stop-color="#96BEB7"/>
<stop offset="0.446698" stop-color="#AF5CF8"/>
<stop offset="0.557619" stop-color="#C98BFF"/>
<stop offset="0.579606" stop-color="#ABAAEA"/>
<stop offset="0.670541" stop-color="#F5A623"/>
<stop offset="0.74392" stop-color="#F8C369"/>
<stop offset="0.824446" stop-color="#FFE8B7"/>
<stop offset="0.915387" stop-color="#F1A69F"/>
<stop offset="0.940538" stop-color="#E24D3F"/>
<stop offset="1" stop-color="#DB210F"/>
</linearGradient>
<linearGradient id="paint3_linear" x1="900.647" y1="767" x2="-0.000820315" y2="767.696" gradientUnits="userSpaceOnUse">
<stop stop-color="#00C05B"/>
<stop offset="0.216843" stop-color="#00C05B"/>
<stop offset="0.297787" stop-color="#55DA8C"/>
<stop offset="0.35674" stop-color="#96BEB7"/>
<stop offset="0.446698" stop-color="#AF5CF8"/>
<stop offset="0.557619" stop-color="#C98BFF"/>
<stop offset="0.579606" stop-color="#ABAAEA"/>
<stop offset="0.670541" stop-color="#F5A623"/>
<stop offset="0.74392" stop-color="#F8C369"/>
<stop offset="0.824446" stop-color="#FFE8B7"/>
<stop offset="0.915387" stop-color="#F1A69F"/>
<stop offset="0.940538" stop-color="#E24D3F"/>
<stop offset="1" stop-color="#DB210F"/>
</linearGradient>
</defs>
</svg>
