<svg width="86" height="38" viewBox="0 0 86 38" fill="none" xmlns="http://www.w3.org/2000/svg">
<path d="M81.7528 21.797C81.292 21.797 80.9174 21.3995 80.9174 20.9111C80.9174 20.4212 81.292 20.0262 81.7528 20.0262C82.2145 20.0262 82.5889 20.4212 82.5889 20.9111C82.5889 21.3995 82.2145 21.797 81.7528 21.797ZM81.7528 19.8114C81.1803 19.8114 80.7142 20.3016 80.7142 20.9111C80.7142 21.5188 81.1803 22.0135 81.7528 22.0135C82.3269 22.0135 82.7941 21.5188 82.7941 20.9111C82.7941 20.3016 82.3269 19.8114 81.7528 19.8114Z" fill="#6D6D7F"/>
<path d="M81.5782 21.086H81.6441L81.7095 21.0893C81.7554 21.0925 81.7914 21.0966 81.8134 21.108C81.8525 21.123 81.8842 21.1525 81.898 21.1912C81.9087 21.2179 81.9147 21.2634 81.9147 21.3307C81.9182 21.3998 81.9247 21.4531 81.9357 21.4886H82.2251L82.2145 21.4568C82.2118 21.4459 82.2078 21.4353 82.2078 21.4231C82.2078 21.4126 82.2045 21.4026 82.2045 21.3902V21.2893C82.2045 21.1701 82.1731 21.086 82.1027 21.0342C82.065 21.0018 82.0092 20.982 81.9368 20.9656C82.0172 20.9583 82.0846 20.931 82.1392 20.8892C82.1951 20.8475 82.2213 20.7763 82.2213 20.6813C82.2213 20.5545 82.1687 20.4641 82.065 20.409C82.0053 20.3764 81.9302 20.3547 81.8352 20.3493C81.8203 20.3493 81.7408 20.3493 81.5977 20.3475H81.2733V21.4886H81.5782V21.086ZM81.8627 20.8381C81.8242 20.8661 81.7667 20.881 81.6955 20.881H81.5782V20.5477H81.6513C81.7277 20.5477 81.7856 20.5545 81.8283 20.5708C81.8909 20.5976 81.9213 20.639 81.9213 20.702C81.9213 20.7664 81.9035 20.8094 81.8627 20.8381Z" fill="#6D6D7F"/>
<path d="M40.8151 25.8154C41.5044 25.8154 41.6683 26.5053 41.6359 26.8915C41.4993 28.486 39.342 29.7827 38.7955 29.8472C39.088 26.5504 40.0538 25.8531 40.8151 25.8154ZM19.3175 26.1673C18.8819 26.8309 18.3321 27.563 17.6579 28.3755C17.694 28.0417 17.7297 27.7246 17.7686 27.4191C18.3099 23.0737 19.1101 21.6144 20.1517 21.7986C20.491 21.8703 20.6296 22.2383 20.6381 22.5361C20.7146 23.4813 20.3149 24.6452 19.3175 26.1673ZM78.2765 30.2181C77.7491 29.4215 77.2652 28.5675 76.8475 27.7019C76.1486 28.6939 75.3722 29.6911 74.5734 30.64C75.688 30.6118 76.9643 30.4975 78.2765 30.2181ZM77.1979 23.7449C77.6336 22.9178 77.9079 22.1974 77.9434 21.662C77.9827 21.3436 77.9292 20.7937 77.479 20.7937C76.7009 20.7937 76.7009 22.0498 77.1979 23.7449ZM63.4974 28.9908C65.3922 26.7803 66.3613 23.4648 66.1377 22.1055C66.089 21.8208 65.9818 21.6022 65.7011 21.6367C64.8163 21.7502 62.7527 25.7565 63.4974 28.9908ZM52.57 31.8718C51.824 31.6307 51.2042 31.207 50.8406 30.7515C50.8135 30.7737 50.7886 30.7934 50.7611 30.813C50.758 30.8477 50.7509 30.8836 50.7411 30.9178C50.7214 33.6962 51.6674 36.265 52.7161 36.1416C53.8212 35.9479 53.2999 33.5655 52.57 31.8718ZM50.9097 28.4818C53.0627 26.3383 54.7394 23.2849 54.7283 21.6502C54.7283 21.3355 54.6582 21.0584 54.3619 21.0584C53.6884 21.0584 51.4913 23.3125 50.9097 28.4818ZM44.6271 30.604C43.7621 30.6829 43.5715 32.658 41.8448 32.7529C40.6661 32.8184 40.126 31.3433 40.126 31.3433C40.126 31.3433 43.4612 29.8009 43.4367 26.4702C43.383 25.5157 42.9084 23.9871 41.144 23.9871C40.3818 23.9871 39.5381 24.4806 39.0375 25.0245C39.2076 24.1235 39.368 22.9665 39.4435 21.3942C39.4928 20.371 38.7782 20.2722 38.5014 20.2876C38.2956 20.298 37.6968 20.4559 37.6154 21.3815C37.3426 24.4686 37.3013 24.927 37.0542 26.8907C36.6015 30.4975 34.0956 31.7519 32.4636 31.6569C31.7693 31.6158 30.6829 31.2387 30.6829 29.3312C30.6829 27.2848 31.9639 25.77 32.6439 25.8629C33.1227 25.9279 33.3698 26.434 32.945 27.16C32.6014 27.7619 32.2413 28.5997 33.128 28.944C34.1809 29.3097 34.9595 27.7596 34.9879 26.3234C34.9879 25.2044 34.2966 23.8977 32.6014 23.8131C30.8171 23.7238 28.6858 26.1912 28.6858 29.508C28.6858 29.7843 28.7048 30.0432 28.7395 30.2896C28.6107 31.0393 27.9798 31.8077 27.3517 31.8077C26.6693 31.8077 26.0936 30.7819 26.1656 29.4728C26.2418 28.1228 26.6484 27.224 26.8198 26.6864C27.1725 25.5697 26.7545 25.3443 26.2576 25.2475C25.8673 25.1731 25.2473 25.2763 24.9209 26.3865C24.6244 27.3938 24.2386 28.7703 23.9028 29.7827C23.6941 30.412 23.4276 31.1301 23.0765 31.6211C22.7682 31.9723 22.4345 32.2035 22.1222 32.2035C21.0196 32.2139 21.9537 29.9464 21.9537 28.3915C21.943 27.952 21.6128 27.1498 20.5148 27.3721C21.7305 25.5321 22.3454 23.9579 22.307 22.3493C22.2335 20.5832 20.9954 20.0702 20.0608 20.0888C17.557 20.1425 16.2472 23.0448 15.7716 29.8307C13.5155 32.0811 10.7671 33.4396 8.14579 33.2163C4.43859 32.8994 2.52778 29.0617 2.77529 24.4598C3.12348 18.0028 7.9481 10.2129 12.5471 10.6913C14.1591 10.8601 15.2708 12.3635 15.0992 15.6217C14.899 19.399 12.3224 24.9074 9.60181 24.7458C8.34582 24.6712 7.95358 23.3125 8.04938 22.1108C8.2565 19.5085 9.5066 18.7945 9.5901 17.7394C9.63863 17.1191 9.03724 16.848 8.59617 16.9957C7.83903 17.2513 6.33093 19.2344 6.14708 22.0551C5.92233 25.5012 8.07153 26.5766 9.34564 26.6518C13.1149 26.8757 16.7934 21.3065 17.1031 15.4562C17.3021 11.6697 15.742 9.22491 12.7884 8.8891C7.04543 8.23803 1.01243 16.1955 0.704026 24.5306C0.518773 29.5143 2.7959 34.7309 8.10672 35.1278C10.6438 35.3001 13.2986 34.2435 15.6213 32.348C15.617 32.7726 15.6213 33.1504 15.6201 33.4342C15.6412 34.1324 15.8781 34.7349 16.6047 34.7116C17.298 34.6861 17.4806 34.1564 17.4643 33.5211C17.4554 33.1523 17.4581 32.7942 17.4663 32.4461C17.618 29.411 19.0511 28.972 19.6313 29.0805C20.4313 29.2582 19.7937 30.0263 19.8734 32.2045C19.93 33.7653 21.138 34.1815 21.6931 34.1815C23.0052 34.1815 24.1447 33.1801 24.8123 31.6882L24.8356 31.6704C25.4152 33.1995 26.3985 33.7471 27.1834 33.7471C28.1041 33.7471 28.9756 33.0362 29.5205 32.2473C30.2656 33.2308 31.3618 33.664 32.18 33.704C33.8389 33.7838 35.2486 32.9845 36.3073 31.9119C36.1841 32.756 36.0353 33.8907 36.0353 34.0755C36.0353 34.5768 36.2576 34.9313 36.7264 34.9861C37.4981 35.0756 38.0615 34.5304 38.3023 31.8552C38.3023 31.8552 39.3929 34.4962 41.8142 34.4962C44.2409 34.4962 45.2904 32.0407 45.2904 31.2916C45.2904 31.0743 45.2129 30.5488 44.6271 30.604ZM21.3032 16.4736C21.3032 15.6896 19.2732 14.205 17.8395 14.0656C17.8564 14.489 17.8532 14.9243 17.8295 15.3767C17.7732 16.4458 17.6197 17.5247 17.3824 18.584C20.0169 16.6532 21.3032 17.1836 21.3032 16.4736ZM83.6313 34.5051C82.2025 34.4274 80.7214 33.3205 79.4038 31.7411C77.076 32.302 74.6904 32.413 73.0272 32.3995C71.6472 33.8994 70.3267 35.1489 69.3829 35.8591C69.3829 35.8591 68.1111 36.874 67.4939 36.0121C67.133 35.4334 67.3167 34.81 68.3087 34.1473C68.9281 33.7316 69.7063 33.0617 70.5486 32.2354C69.1251 31.8248 69.4755 30.262 70.8668 30.4419C70.9679 30.4557 71.4291 30.5248 72.1402 30.5789C73.5198 29.0604 74.922 27.3121 76.0036 25.7104C75.4939 24.3054 75.1967 22.9705 75.1967 21.9236C75.1967 20.5496 75.9389 18.9942 77.4499 18.9942C78.9124 18.9942 79.661 20.2819 79.661 21.6129C79.661 22.7449 79.007 24.2769 78.0098 25.9287C78.5814 27.2175 79.3207 28.5557 80.1516 29.6999C81.0476 29.3915 81.9302 28.986 82.7597 28.4632C83.8772 27.756 84.839 29.1181 83.6653 29.9906C82.9597 30.4585 82.1787 30.8386 81.3606 31.1468C82.2215 32.0253 83.129 32.616 84.0013 32.6956C85.495 32.8302 85.5565 34.6696 83.6313 34.5051ZM69.0545 30.4148C68.8795 31.1406 67.9781 33.2356 65.6795 33.2905H65.6293C64.5631 33.3076 63.5198 32.7633 62.7514 31.7619C61.6706 32.4837 60.6296 32.8315 59.8813 32.7122C58.2605 32.4522 57.775 31.0978 57.636 30.2145C56.7069 31.3775 55.4716 31.9301 54.2835 32.0444C54.7073 32.9207 54.9216 33.9736 54.9216 34.9423C54.9216 36.454 54.093 38.0001 52.5933 38.0001C50.4969 38.0001 49.2407 34.8822 49.0771 31.8465C48.7187 31.9872 48.1273 32.0982 47.8526 31.4914C47.521 30.7622 48.3433 30.0892 49.0375 29.6733C49.1586 23.6236 51.6586 19.3439 54.3619 19.3439C55.2707 19.3439 56.3653 19.9293 56.3653 21.6871C56.3653 23.529 55.3333 25.8881 53.669 27.9939C53.4427 28.2797 52.9166 28.8388 52.3314 29.4123C54.6944 31.1834 56.1274 29.2749 56.7179 28.103C56.8585 27.7891 56.9764 27.4789 57.066 27.2066C57.4013 26.1968 57.3051 26.4325 57.6207 25.4314C58.0709 24.0051 58.8013 24.0674 59.1317 24.1235C60.3085 24.3305 59.6034 25.7111 59.3154 26.9251L59.3021 26.9546C58.8597 29.0235 59.0655 30.6655 60.2857 30.9196C60.6754 30.9805 61.3476 30.7395 62.0352 30.2218C60.4265 25.8108 62.8831 20.5887 65.4255 20.0854C66.2745 19.9174 67.3907 20.2471 67.672 21.8368C67.964 23.5048 67.3776 25.8289 66.1588 28.0417C65.8838 28.5438 65.0901 29.6733 64.1498 30.5312C64.1554 30.5394 64.1594 30.5476 64.1589 30.5488C64.8714 31.5394 65.7726 31.5154 65.7726 31.5154C67.1079 31.5074 67.5103 30.4244 67.6747 29.9762C67.8635 29.4621 68.2512 29.2919 68.6612 29.4297C69.1075 29.5811 69.1398 30.0659 69.0545 30.4148ZM59.5845 21.229C59.018 21.229 58.559 21.7126 58.559 22.3138C58.559 22.9123 59.018 23.3982 59.5845 23.3982C60.15 23.3982 60.607 22.9123 60.607 22.3138C60.607 21.7126 60.15 21.229 59.5845 21.229ZM71.1236 28.0417C72.4309 28.0417 72.9377 27.5011 72.9377 26.9452C72.9377 26.2313 72.1292 25.8872 71.1249 25.8972C70.0974 25.9084 69.3669 26.3112 69.3669 26.9546C69.3669 27.4789 69.8164 28.0417 71.1236 28.0417ZM46.2373 28.0461C47.5483 28.0461 48.0598 27.5026 48.0598 26.9452C48.0598 26.2277 47.248 25.8832 46.2373 25.8933C45.2058 25.9048 44.4736 26.3094 44.4736 26.9546C44.4736 27.482 44.9258 28.0461 46.2373 28.0461ZM26.7808 22.3127C26.1845 22.3127 25.7023 22.823 25.7023 23.455C25.7023 24.0844 26.1845 24.5946 26.7808 24.5946C27.3748 24.5946 27.8581 24.0844 27.8581 23.455C27.8581 22.823 27.3748 22.3127 26.7808 22.3127ZM4.23359 6.42344C3.74398 7.03376 3.8959 8.02483 4.78486 8.82834C5.67325 9.63422 6.90708 9.89527 7.3986 9.28585C7.88998 8.67608 7.4519 7.42487 6.56385 6.62118C5.67525 5.81566 4.7273 5.81403 4.23359 6.42344ZM7.74985 2.06314C6.79481 2.52702 6.45563 3.90829 7.15863 5.53297C7.86049 7.158 9.29483 8.30861 10.2492 7.84746C11.2049 7.38303 11.3196 5.47876 10.6171 3.85336C9.91448 2.23014 8.70468 1.60072 7.74985 2.06314ZM15.0236 0.0471687C13.7546 -0.246803 12.4547 0.847046 12.0152 2.9949C11.5734 5.14185 12.1884 7.39904 13.4579 7.6901C14.726 7.98244 16.1715 6.20059 16.611 4.0531C17.052 1.90578 16.2931 0.337688 15.0236 0.0471687ZM24.1887 3.53901C23.2199 2.15919 21.1229 2.07497 19.0044 3.74294C16.8858 5.41145 15.6777 8.09705 16.6462 9.48032C17.6151 10.8601 20.3935 10.4134 22.5137 8.74466C24.6313 7.07596 25.1569 4.9221 24.1887 3.53901ZM13.9715 14.2343C13.9477 15.3554 12.6571 16.7234 12.0406 15.6698C11.7047 14.8632 12.5493 13.3955 13.3313 13.3705C13.9617 13.3705 13.9766 13.9667 13.9715 14.2343Z" fill="#6D6D7F"/>
</svg>
