<svg viewBox="0 0 54 48" fill="none" xmlns="http://www.w3.org/2000/svg">
  <path opacity=".3" d="M35.724 15.716v.032c.256.052.503.169.713.353l12.447 10.89a1.555 1.555 0 010 2.343l-12.447 10.89c-.21.184-.457.302-.713.354v.031H15.723v-.031a1.549 1.549 0 01-.714-.354L2.563 29.334a1.556 1.556 0 010-2.342l12.446-10.89a1.55 1.55 0 01.713-.354v-.032h20.002z" fill="#FA7360"/>
  <path d="M14.146 10.11a1.45 1.45 0 01-.136 2.046L3.653 21.218 14.01 30.28a1.45 1.45 0 11-1.91 2.183L.494 22.31a1.45 1.45 0 010-2.183L12.1 9.973a1.45 1.45 0 012.047.136zM29.369 10.11a1.45 1.45 0 012.047-.137L43.02 20.127a1.45 1.45 0 010 2.183L31.416 32.463a1.45 1.45 0 11-1.91-2.183l10.356-9.062-10.357-9.062a1.45 1.45 0 01-.136-2.046z" fill="#F24E1E"/>
  <path d="M27.498 7.13a1.45 1.45 0 10-2.778-.834l-8.703 29.01a1.45 1.45 0 102.779.834l8.703-29.01z" fill="#73250E"/>
</svg>
