<svg width="150" height="36" viewBox="0 0 150 36" fill="none" xmlns="http://www.w3.org/2000/svg">
<path fill-rule="evenodd" clip-rule="evenodd" d="M89.0071 10.7818C88.285 11.1088 87.8341 11.8424 87.8679 12.6349L87.8916 12.6468C87.8978 13.1475 88.1041 13.6248 88.4644 13.9721C88.8248 14.3194 89.3091 14.5078 89.8092 14.4951C90.6018 14.4943 91.3144 14.0115 91.6093 13.2751C91.9043 12.5388 91.7224 11.697 91.1499 11.1484C90.5774 10.5998 89.7292 10.4547 89.0071 10.7818ZM46.4021 11.6634H42.6023V27.0658H46.4021V11.6634ZM53.8358 15.1704C50.2847 15.1704 47.9172 17.4571 47.9172 21.2721C47.9172 25.1701 50.2018 27.3975 53.8358 27.3975C57.4699 27.3975 59.7545 25.0872 59.7545 21.2721C59.7545 17.4571 57.387 15.1704 53.8358 15.1704ZM55.9902 21.2722C55.9902 19.1751 55.1734 17.9429 53.8714 17.9429C52.5693 17.9429 51.7643 19.1277 51.7643 21.2722C51.7643 23.4166 52.5693 24.5896 53.8714 24.5896C55.1734 24.5896 56.0139 23.4166 56.0139 21.284L55.9902 21.2722ZM64.9392 27.8596H61.2696L61.2933 27.8714C61.5064 29.9922 63.6134 31.4969 66.9042 31.5088C70.5264 31.5088 72.9885 29.7671 72.9885 26.9828V15.4429H69.2243V17.3537C68.5815 16.0659 67.2319 15.2703 65.7796 15.3481C62.8085 15.3481 61.0447 17.6229 61.0447 21.2721C61.0447 24.9213 62.8913 27.0421 65.6731 27.0421C67.162 27.1513 68.5652 26.338 69.2124 24.9935V27.1013C69.2124 28.2624 68.4548 29.0444 66.9989 29.0444C66.1245 29.1566 65.2825 28.6722 64.9392 27.8596ZM69.2243 21.2721C69.2243 19.412 68.372 18.239 67.0225 18.239C65.6731 18.239 64.8445 19.4238 64.8445 21.2721C64.8445 23.1204 65.6612 24.2104 67.0225 24.2104C68.3838 24.2104 69.2243 23.2034 69.2243 21.2721ZM80.4105 15.1704C76.8593 15.1704 74.4918 17.4571 74.4918 21.2721H74.5155C74.5155 25.1701 76.7883 27.3975 80.4105 27.3975C84.0327 27.3975 86.3291 25.0872 86.3291 21.2721C86.3291 17.4571 83.9616 15.1704 80.4105 15.1704ZM82.5648 21.2722C82.5648 19.1751 81.7362 17.9429 80.446 17.9429C79.1557 17.9429 78.3389 19.1277 78.3389 21.2722C78.3389 23.4166 79.1439 24.5896 80.446 24.5896C81.7481 24.5896 82.5885 23.4166 82.5885 21.284L82.5648 21.2722ZM87.8679 15.431H91.715V27.1132H87.9271L87.8679 15.431ZM100.948 27.2791C103.848 27.2791 105.553 25.0754 105.553 21.2722L105.624 21.284C105.624 17.469 103.907 15.2771 100.924 15.3008C99.3851 15.2275 97.965 16.1277 97.3732 17.5519H97.3022V15.4666H93.5261V30.869H97.3259V25.1109H97.3969C98.0094 26.5073 99.4273 27.373 100.948 27.2791ZM101.682 21.2721C101.682 19.4239 100.818 18.2272 99.4803 18.2272C98.1426 18.2272 97.3022 19.412 97.2904 21.2721C97.2785 23.1323 98.1426 24.3052 99.4803 24.3052C100.818 24.3052 101.753 23.2034 101.753 21.284L101.682 21.2721ZM117.224 19.0802C117.201 16.6632 115.224 15.1585 112.04 15.1585L112.111 15.1704C108.903 15.1704 106.914 16.6514 106.843 18.9736C106.843 20.7626 108.039 21.9593 110.323 22.445L112.525 22.9071C113.436 23.0967 113.791 23.2033 113.791 23.8313C113.791 24.4592 113.271 24.8146 112.158 24.8146C111.045 24.8146 110.359 24.3052 110.252 23.4403H106.571C106.725 25.8217 108.844 27.3857 112.099 27.3857C115.354 27.3857 117.544 25.7743 117.544 23.4047C117.544 21.6394 116.597 20.6915 114.229 20.1939L111.791 19.6963C110.915 19.5186 110.477 19.329 110.477 18.7248C110.477 18.1205 110.974 17.7177 112.016 17.7177C113.058 17.7177 113.756 18.239 113.756 19.0802H117.224ZM130.269 27.1013H126.588V24.9094H126.517C126.092 26.4154 124.68 27.4248 123.119 27.3383C121.962 27.376 120.844 26.9174 120.046 26.0778C119.248 25.2383 118.846 24.0976 118.941 22.9427V15.4429H122.74V22.1251C122.74 23.4995 123.463 24.2459 124.646 24.2459C125.208 24.2417 125.741 23.994 126.106 23.5668C126.472 23.1396 126.634 22.5749 126.552 22.0185V15.4429H130.34L130.269 27.1013ZM135.797 15.4311H132.104L132.127 27.1132H135.927V20.2177C135.866 19.7327 136.016 19.2447 136.341 18.8792C136.665 18.5137 137.131 18.3062 137.62 18.3101C138.662 18.3101 139.242 18.9381 139.242 20.1229V27.1132H142.864V20.194C142.798 19.7145 142.945 19.2302 143.266 18.8681C143.587 18.506 144.049 18.3022 144.533 18.3101C145.61 18.3101 146.166 18.9736 146.166 20.1584V27.1132H149.99V19.1869C150.068 18.1371 149.695 17.1037 148.965 16.3459C148.235 15.5881 147.217 15.1778 146.166 15.2178C144.559 15.1425 143.102 16.1586 142.615 17.694H142.449C142.168 16.1548 140.763 15.0823 139.206 15.2178C137.666 15.1864 136.299 16.1991 135.88 17.6822H135.797V15.4311Z" fill="#6D6D7F"/>
<path fill-rule="evenodd" clip-rule="evenodd" d="M35.0856 12.6705C35.0858 7.84406 32.1265 3.51229 27.633 1.76146C23.1394 0.0106264 18.0329 1.19971 14.7729 4.75601H0V35.9636H31.1911V21.3787C33.6671 19.1621 35.0834 15.9954 35.0856 12.6705ZM29.0841 12.6704C29.0889 14.9813 27.7018 17.0673 25.5702 17.9549C23.4386 18.8426 20.9826 18.3569 19.3483 16.7246C17.7141 15.0923 17.2238 12.635 18.1062 10.4996C18.9886 8.36422 21.0698 6.97156 23.3786 6.97155C26.525 6.97155 29.0776 9.52112 29.0841 12.6704ZM6.00149 29.9567H25.1897V24.2341C24.591 24.3334 23.9854 24.385 23.3786 24.3882C16.9156 24.3816 11.6781 19.1393 11.6715 12.6705C11.6767 12.0308 11.7361 11.3926 11.8491 10.763H6.00149V29.9567Z" fill="#6D6D7F"/>
</svg>
