<svg width="900" height="235" viewBox="0 0 900 235" fill="none" xmlns="http://www.w3.org/2000/svg">
<g opacity="0.2">
<path d="M400.805 -100.834L478.577 30.9297L422.898 50.5666L400.805 -100.834Z" fill="#F5A623"/>
<path d="M3.90421 38.5141L125.747 27.2354L122.116 73.3907L3.90421 38.5141Z" fill="#DB210F"/>
<circle cx="270.657" cy="88.0911" r="12.7828" fill="#AF5CF8"/>
<rect x="147.09" y="204.355" width="85.2185" height="42.6092" transform="rotate(-45.5869 147.09 204.355)" fill="#F24E1E"/>
<rect x="911.786" y="85.8716" width="25.5655" height="42.6092" transform="rotate(21.9912 911.786 85.8716)" fill="#DB210F"/>
<rect x="618.057" y="47.6565" width="102.262" height="34.0874" transform="rotate(-116.768 618.057 47.6565)" fill="#DB210F"/>
<path d="M-74.4782 -22.2029C-74.4782 -22.2029 -19.9872 -49.3432 -7.6257 -35.1179C-0.834597 -27.3029 4.29396 -17.8373 -1.78819 -10.1469C-6.47666 -4.21871 -13.2456 -3.46293 -21.1768 -4.85579C-37.9722 -7.80537 -37.7175 -31.1289 -30.9755 -45.5738C-21.6669 -65.5176 27.7463 -53.7458 27.7463 -53.7458" stroke="#00C05B" stroke-width="10.2262"/>
<path d="M113.702 143.483C113.702 143.483 109.554 118.84 121.459 113.928C131.461 109.802 140.132 128.05 148.35 121.434C156.674 114.733 135.894 104.116 142.662 96.1012C149.784 87.6656 172.655 96.1012 172.655 96.1012" stroke="#0066FF" stroke-width="10.2262"/>
<path d="M583.742 81.6534C597.79 83.0674 611.445 61.6964 609.868 77.3654C608.291 93.0344 595.624 104.59 581.576 103.176C567.527 101.762 557.417 87.914 558.994 72.245C560.571 56.576 569.694 80.2395 583.742 81.6534Z" fill="#0066FF"/>
<path d="M453.876 117.918L463.443 147.36H494.4L469.355 165.556L478.921 194.999L453.876 176.802L428.831 194.999L438.398 165.556L413.353 147.36H444.31L453.876 117.918Z" fill="#00C05B"/>
<path d="M147.09 -26.9539L152.83 -9.2885L171.404 -9.2885L156.377 1.62929L162.117 19.2947L147.09 8.37686L132.063 19.2947L137.803 1.62929L122.776 -9.2885H141.35L147.09 -26.9539Z" fill="#F5A623"/>
<path d="M778.259 75.8636L782.503 39.26L812.088 58.0156L815.46 27.3092L842.446 45.8988L850.85 12.7027" stroke="#0066FF" stroke-width="8.52185"/>
</g>
</svg>
