<svg width="1055" height="235" viewBox="0 0 1055 235" fill="none" xmlns="http://www.w3.org/2000/svg">
<g opacity="0.2">
<path d="M477.805 -100.834L555.577 30.9297L499.898 50.5666L477.805 -100.834Z" fill="#F5A623"/>
<path d="M80.9042 38.5141L202.747 27.2354L199.116 73.3907L80.9042 38.5141Z" fill="#DB210F"/>
<circle cx="347.657" cy="88.0911" r="12.7828" fill="#AF5CF8"/>
<rect x="224.09" y="204.355" width="85.2185" height="42.6092" transform="rotate(-45.5869 224.09 204.355)" fill="#F24E1E"/>
<rect x="988.786" y="85.8716" width="25.5655" height="42.6092" transform="rotate(21.9912 988.786 85.8716)" fill="#DB210F"/>
<rect x="695.057" y="47.6565" width="102.262" height="34.0874" transform="rotate(-116.768 695.057 47.6565)" fill="#DB210F"/>
<path d="M2.5219 -22.2029C2.5219 -22.2029 57.013 -49.3432 69.3744 -35.1179C76.1655 -27.3029 81.2941 -17.8373 75.2119 -10.1469C70.5235 -4.21871 63.7545 -3.46293 55.8233 -4.85579C39.0279 -7.80537 39.2826 -31.1289 46.0246 -45.5738C55.3332 -65.5176 104.746 -53.7458 104.746 -53.7458" stroke="#00C05B" stroke-width="10.2262"/>
<path d="M190.702 143.483C190.702 143.483 186.554 118.84 198.459 113.928C208.461 109.802 217.132 128.05 225.35 121.434C233.675 114.733 212.894 104.116 219.662 96.1012C226.784 87.6656 249.656 96.1012 249.656 96.1012" stroke="#0066FF" stroke-width="10.2262"/>
<path d="M1035.45 28.3483C1035.45 49.5275 1069.39 66.6966 1045.77 66.6966C1022.15 66.6966 1003 49.5275 1003 28.3483C1003 7.16913 1022.15 -10 1045.77 -10C1069.39 -10 1035.45 7.16913 1035.45 28.3483Z" fill="#AF5CF8"/>
<path d="M660.742 81.6534C674.79 83.0674 688.445 61.6964 686.868 77.3654C685.291 93.0344 672.624 104.59 658.576 103.176C644.527 101.762 634.417 87.914 635.994 72.245C637.571 56.576 646.694 80.2395 660.742 81.6534Z" fill="#0066FF"/>
<path d="M530.877 117.918L540.443 147.36H571.4L546.355 165.556L555.922 194.999L530.877 176.802L505.831 194.999L515.398 165.556L490.353 147.36H521.31L530.877 117.918Z" fill="#00C05B"/>
<path d="M224.09 -26.9539L229.83 -9.2885L248.404 -9.2885L233.377 1.62929L239.117 19.2947L224.09 8.37686L209.063 19.2947L214.803 1.62929L199.776 -9.2885H218.35L224.09 -26.9539Z" fill="#F5A623"/>
<path d="M855.259 75.8636L859.503 39.26L889.088 58.0156L892.46 27.3092L919.446 45.8988L927.85 12.7027" stroke="#0066FF" stroke-width="8.52185"/>
</g>
</svg>
