<svg width="161" height="26" viewBox="0 0 161 26" xmlns="http://www.w3.org/2000/svg">
<g>
<path d="M77.8314 0.5H77.015C72.5707 0.5 69.6232 3.66786 69.6232 7.74086V23.6706C69.6232 24.4852 70.3034 25.1188 71.1197 25.1188H72.48C73.2964 25.1188 73.9314 24.4852 73.9314 23.6706V8.10286C73.9314 6.1569 75.2914 4.66348 77.2414 4.66348H77.65C79.6 4.66348 80.96 6.1569 80.96 8.10286V23.7159C80.96 24.5305 81.6407 25.1641 82.4564 25.1641H83.7721C84.5878 25.1641 85.2685 24.5305 85.2685 23.7159V7.74086C85.2228 3.66786 82.23 0.5 77.8314 0.5Z" />
<path d="M59.0569 0.5H58.15C53.7965 0.5 50.3954 3.44159 50.3954 7.87657V17.7875C50.3954 22.1772 53.7965 25.1641 58.15 25.1641H59.1023C62.1406 25.1641 64.9069 23.6706 66.1766 20.7743C66.494 19.9597 66.2219 19.1451 65.3604 18.6926L64.9522 18.4663C63.9545 17.9232 62.9569 18.2853 62.4127 19.1904C61.7324 20.2765 60.6894 21.1816 59.1023 21.1816H58.286C56.064 21.1816 54.7035 19.6429 54.7035 17.6517V14.9364H64.4987C65.7232 14.9364 66.8568 13.9408 66.8568 12.7641V7.87657C66.7662 3.44159 63.5917 0.5 59.0569 0.5ZM62.5941 10.9539H54.6128V8.10286C54.6128 6.11164 55.9732 4.52771 58.1953 4.52771H59.0116C61.0976 4.52771 62.5487 5.97588 62.5487 7.96707V10.9539H62.5941Z" />
<path d="M39.7841 0.5H38.8771C34.5236 0.5 31.1226 3.44159 31.1226 7.87657V17.7875C31.1226 22.1772 34.5236 25.1641 38.8771 25.1641H39.8294C42.8678 25.1641 45.634 23.6706 46.9038 20.7743C47.2212 19.9597 46.9491 19.1451 46.0875 18.6926L45.6793 18.4663C44.6817 17.9232 43.684 18.2853 43.1398 19.1904C42.4596 20.2765 41.4166 21.1816 39.8294 21.1816H39.0131C36.7911 21.1816 35.4306 19.6429 35.4306 17.6517V14.9364H45.1805C46.4049 14.9364 47.5386 13.9408 47.5386 12.7641V7.87657C47.4933 3.44159 44.3189 0.5 39.7841 0.5ZM43.3666 10.9539H35.3853V8.10286C35.3853 6.11164 36.7457 4.52771 38.9678 4.52771H39.7841C41.8701 4.52771 43.3212 5.97588 43.3212 7.96707V10.9539H43.3666Z" />
<path d="M28.5377 0.5H27.3587C22.8692 0.5 19.6041 3.57735 19.6041 8.28386V23.7159C19.6041 24.5305 20.2843 25.1641 21.1006 25.1641H22.4157C23.2773 25.1641 23.9122 24.5305 23.9122 23.7159V8.73643C23.9122 6.51894 25.5447 4.75399 27.7668 4.75399H28.6284C29.4901 4.75399 30.1249 4.16567 30.1249 3.44159V1.8124C30.0796 1.08832 29.3993 0.5 28.5377 0.5Z" />
<path d="M14.2983 10.9539H8.94714C8.17622 10.9539 7.63207 11.5423 7.63207 12.2664V13.5335C7.63207 14.2576 8.17622 14.8459 8.94714 14.8459H12.4844V17.697C12.4844 19.6882 10.9879 21.1364 8.94714 21.1364H8.13093C5.90883 21.1364 4.54838 19.5524 4.54838 17.5612V8.10286C4.54838 6.11164 5.90883 4.57296 8.13093 4.57296H8.94714C10.5797 4.57296 11.5774 5.47807 12.2576 6.56419C12.8018 7.4693 13.7994 7.83136 14.7971 7.28828L15.2052 7.062C16.0669 6.60945 16.3389 5.79486 16.0215 4.98026C14.7517 1.99342 11.9855 0.5 8.9925 0.5H8.04022C3.68677 0.5 0.285645 3.44159 0.285645 7.87657V17.7875C0.285645 22.1772 3.68677 25.1641 8.04022 25.1641H8.94714C13.4366 25.1641 16.6564 22.2225 16.6564 17.7875V13.1262C16.6564 11.9496 15.5226 10.9539 14.2983 10.9539Z" />
<path d="M141.999 0.5H140.684C139.913 0.5 139.187 1.17883 139.187 1.99342V10.9539H132.022V1.99342C132.022 1.17883 131.342 0.5 130.526 0.5H129.211C128.44 0.5 127.714 1.17883 127.714 1.99342V23.7159C127.714 24.5305 128.394 25.1641 129.211 25.1641H130.526C131.297 25.1641 132.022 24.5305 132.022 23.7159V14.9364H139.187V23.6706C139.187 24.4852 139.868 25.1188 140.684 25.1188H141.999C142.77 25.1188 143.496 24.4852 143.496 23.6706V1.94816C143.496 1.17883 142.815 0.5 141.999 0.5Z" />
<path d="M159.504 0.5H146.987C146.126 0.5 145.491 1.17883 145.491 1.99342V3.1248C145.491 3.93939 146.126 4.57296 146.987 4.57296H151.114V23.7159C151.114 24.5305 151.794 25.1641 152.611 25.1641H153.926C154.696 25.1641 155.422 24.5305 155.422 23.7159V4.57296H159.504C160.411 4.57296 161 3.93939 161 3.1248V1.99342C161 1.17883 160.411 0.5 159.504 0.5Z" />
<path d="M97.4214 20.9101H96.56C94.3378 20.9101 92.7057 19.1904 92.7057 16.9276V1.94816C92.7057 1.13357 92.0707 0.5 91.2092 0.5H89.8935C89.0778 0.5 88.3971 1.13357 88.3971 1.94816V17.3802C88.3971 22.132 91.7078 25.1641 96.1521 25.1641H97.3307C98.1928 25.1641 98.8728 24.5758 98.8728 23.8516V22.2225C98.9178 21.4984 98.2835 20.9101 97.4214 20.9101Z" />
<path d="M122.499 10.9539H117.148C116.377 10.9539 115.833 11.5423 115.833 12.2664V13.5335C115.833 14.2576 116.377 14.8459 117.148 14.8459H120.685V17.697C120.685 19.6882 119.189 21.1364 117.148 21.1364H116.332C114.11 21.1364 112.749 19.5524 112.749 17.5612V8.10287C112.749 6.11164 114.11 4.57297 116.332 4.57297H117.148C118.781 4.57297 119.779 5.47807 120.459 6.5642C121.003 7.4693 122.001 7.83137 122.998 7.28828L123.406 7.06201C124.268 6.60945 124.54 5.79486 124.223 4.98027C122.953 2.08394 120.186 0.590515 117.148 0.590515H116.196C111.842 0.590515 108.441 3.5321 108.441 7.96708V17.878C108.441 22.2677 111.842 25.2546 116.196 25.2546H117.103C121.592 25.2546 124.812 22.313 124.812 17.878V13.1262C124.812 11.9496 123.679 10.9539 122.499 10.9539Z" />
<path d="M103.952 0.5H102.591C101.73 0.5 101.004 1.08832 101.004 1.99342V3.89414C101.004 4.79924 101.73 5.34231 102.591 5.34231H103.952C104.814 5.34231 105.539 4.79924 105.539 3.89414V1.99342C105.539 1.08832 104.814 0.5 103.952 0.5Z" />
<path d="M103.906 7.78625H102.591C101.821 7.78625 101.095 8.46504 101.095 9.27968V23.716C101.095 24.5307 101.775 25.1643 102.591 25.1643H103.906C104.677 25.1643 105.403 24.5307 105.403 23.716V9.27968C105.403 8.46504 104.677 7.78625 103.906 7.78625Z" />
</g>
</svg>
