<svg width="160" height="31" viewBox="0 0 160 31" fill="none" xmlns="http://www.w3.org/2000/svg">
<path fill-rule="evenodd" clip-rule="evenodd" d="M122.608 24.914H121.636C120.936 24.914 120.536 24.3176 120.531 23.8164V4.33101C120.531 4.2307 120.464 4.16357 120.364 4.16357H117.514C117.414 4.16357 117.346 4.2307 117.346 4.33101V23.5302C117.346 25.4321 118.078 26.4132 118.515 26.8502C118.962 27.2972 119.619 27.5664 120.497 27.6866C120.843 27.7338 121.216 27.7637 121.636 27.7637H122.608C122.708 27.7637 122.776 27.6966 122.776 27.5959V25.0821C122.776 24.9811 122.708 24.914 122.608 24.914ZM156.602 19.2823C156.602 15.796 154.859 13.3154 151.808 13.3154C148.59 13.3154 146.68 15.796 146.68 19.2823C146.68 22.7686 148.59 25.2499 151.808 25.2499C154.859 25.2499 156.602 22.7686 156.602 19.2823ZM159.787 4.33101V27.5959C159.787 27.6966 159.72 27.7637 159.619 27.7637H157.106C157.005 27.7637 156.971 27.6966 156.938 27.5959L156.602 26.2553C156.535 26.0539 156.368 26.0879 156.267 26.1882C155.362 27.0932 153.15 28.099 151.474 28.099C146.579 28.099 143.495 24.5123 143.495 19.2823C143.495 14.0531 146.579 10.4657 151.474 10.4657C153.82 10.4657 155.865 11.9074 156.267 12.3768C156.435 12.5778 156.602 12.4436 156.602 12.3097V4.33101C156.602 4.2307 156.669 4.16357 156.77 4.16357H159.619C159.72 4.16357 159.787 4.2307 159.787 4.33101ZM136.553 20.3216C136.553 20.2213 136.486 20.1542 136.385 20.1542H131.692C128.138 20.1542 127.502 21.5619 127.502 22.7351C127.502 23.9422 128.34 25.2499 131.021 25.2499C135.078 25.2499 136.486 22.8358 136.553 20.7911V20.3216ZM141.983 25.0821V27.5959C141.983 27.6966 141.916 27.7637 141.816 27.7637H140.844C138.933 27.7637 137.793 27.2942 137.29 26.2214C137.223 26.0539 137.056 26.0879 136.989 26.1543C136.184 26.9929 134.106 28.099 131.021 28.099C126.529 28.099 124.317 25.9201 124.317 22.7351C124.317 19.8189 126.764 17.6397 131.692 17.6397H135.447C136.184 17.6397 136.553 17.0031 136.553 16.5336C136.553 15.1587 136.217 13.3154 132.229 13.3154C129.346 13.3154 128.038 14.6561 128.038 16.3658C128.038 16.4665 127.971 16.5336 127.87 16.5336H125.021C124.92 16.5336 124.853 16.4665 124.853 16.3658C124.853 12.4104 128.44 10.4657 132.229 10.4657C136.855 10.4657 139.737 12.4436 139.737 16.5336V23.8079C139.737 24.3106 140.14 24.914 140.844 24.914H141.816C141.916 24.914 141.983 24.9811 141.983 25.0821ZM106.295 13.3154C108.575 13.3154 110.184 14.3879 110.921 16.3658C110.954 16.4665 111.021 16.5336 111.122 16.5336H114.106C114.206 16.5336 114.307 16.5004 114.273 16.3658C113.368 12.6782 110.553 10.4657 106.295 10.4657C101.031 10.4657 98.0146 14.0191 98.0146 19.2823C98.0146 24.5123 101.031 28.099 106.295 28.099C110.553 28.099 113.334 25.9201 114.273 22.1992C114.307 22.065 114.206 22.0318 114.106 22.0318H111.122C111.021 22.0318 110.954 22.0982 110.921 22.1992C110.184 24.1771 108.575 25.2499 106.295 25.2499C103.11 25.2499 101.199 22.7686 101.199 19.2823C101.199 15.796 103.11 13.3154 106.295 13.3154ZM87.8209 10.4657C85.5749 10.4657 84.0997 11.505 83.4296 12.5107C83.3624 12.611 83.0939 12.6782 83.0611 12.4772L82.7255 10.9684C82.6919 10.8681 82.6587 10.8009 82.5581 10.8009H80.0436C79.9429 10.8009 79.8761 10.8681 79.8761 10.9684V27.5959C79.8761 27.6966 79.9429 27.7637 80.0436 27.7637H82.8933C82.994 27.7637 83.0611 27.6966 83.0611 27.5959V18.3769C83.0611 15.7628 84.6698 13.3154 87.4857 13.3154C90.8045 13.3154 91.9441 15.8292 91.9441 18.3769V27.5959C91.9441 27.6966 92.0113 27.7637 92.1119 27.7637H94.9613C95.062 27.7637 95.1291 27.6966 95.1291 27.5959V18.3769C95.1291 14.0191 92.6814 10.4657 87.8209 10.4657ZM73.7053 19.2823C73.7053 15.796 71.7942 13.3154 68.576 13.3154C65.3913 13.3154 63.447 15.796 63.447 19.2823C63.447 22.7686 65.3913 25.2499 68.576 25.2499C71.7942 25.2499 73.7053 22.7686 73.7053 19.2823ZM76.8899 19.2823C76.8899 24.5123 73.806 28.099 68.576 28.099C63.3135 28.099 60.2628 24.5123 60.2628 19.2823C60.2628 14.0191 63.3135 10.4657 68.576 10.4657C73.806 10.4657 76.8899 14.0531 76.8899 19.2823ZM58.9974 10.4657H57.2876C55.6118 10.4657 54.3715 11.3707 53.2315 12.5107C53.1308 12.611 52.9295 12.6782 52.8631 12.4772L52.5275 10.9684C52.4939 10.8681 52.4607 10.8009 52.36 10.8009H49.8455C49.7452 10.8009 49.6781 10.8681 49.6781 10.9684V27.5959C49.6781 27.6966 49.7452 27.7637 49.8455 27.7637H52.6953C52.7956 27.7637 52.8631 27.6966 52.8631 27.5959V18.3769C52.8631 15.7628 54.4718 13.3154 57.2876 13.3154H58.9974C59.0977 13.3154 59.1652 13.2483 59.1652 13.1476V10.6331C59.1652 10.5328 59.0977 10.4657 58.9974 10.4657ZM45.2277 4.33101V27.5959C45.2277 27.6966 45.1606 27.7637 45.0599 27.7637H42.2109C42.1098 27.7637 42.0427 27.6966 42.0427 27.5959V4.33101C42.0427 4.2307 42.1098 4.16357 42.2109 4.16357H45.0599C45.1606 4.16357 45.2277 4.2307 45.2277 4.33101Z" fill="#1A2832"/>
<path fill-rule="evenodd" clip-rule="evenodd" d="M26.3971 0.963623C26.4838 0.963623 26.5539 1.0337 26.5539 1.12036V3.99187C26.5539 4.07854 26.4838 4.14862 26.3971 4.14862L14.8689 4.14785V27.7781L26.3971 27.7786C26.4665 27.7786 26.5252 27.8235 26.5459 27.8858L26.5539 27.9354V30.8069C26.5539 30.8762 26.509 30.9349 26.4467 30.9556L26.3971 30.9636H0.156742C0.0874066 30.9636 0.028693 30.9188 0.00798092 30.8565L0 30.8069V27.9354C0 27.866 0.0448466 27.8073 0.10716 27.7866L0.156742 27.7786L11.6835 27.7781V4.14785L0.156742 4.14862C0.0874066 4.14862 0.028693 4.10377 0.00798092 4.04146L0 3.99187V1.12036C0 1.0337 0.0700728 0.963623 0.156742 0.963623H26.3971ZM7.97395 7.7023C8.04299 7.7023 8.10188 7.74715 8.12267 7.80946L8.13069 7.85904V24.068C8.13069 24.137 8.08561 24.1959 8.02339 24.2167L7.97395 24.2247L0.156742 24.2249C0.0874066 24.2249 0.028693 24.18 0.00798092 24.1177L0 24.0681V21.1966C0 21.1273 0.0448466 21.0686 0.10716 21.0479L0.156742 21.0399L4.94456 21.0392V10.8868L0.156742 10.8874C0.0874066 10.8874 0.028693 10.8426 0.00798092 10.7802L0 10.7307V7.85915C0 7.78982 0.0448466 7.7311 0.10716 7.71039L0.156742 7.70241L7.97395 7.7023ZM26.3971 7.70241C26.4665 7.70241 26.5252 7.74726 26.5459 7.80957L26.5539 7.85915V10.7307C26.5539 10.8 26.509 10.8587 26.4467 10.8794L26.3971 10.8874L21.6079 10.8868V21.0392L26.3971 21.0399C26.4665 21.0399 26.5252 21.0847 26.5459 21.147L26.5539 21.1966V24.0681C26.5539 24.1375 26.509 24.1962 26.4467 24.2169L26.3971 24.2249L18.58 24.2247C18.5106 24.2247 18.4519 24.1796 18.4312 24.1174L18.4232 24.068V7.85904C18.4232 7.78971 18.4681 7.73099 18.5304 7.71028L18.58 7.7023L26.3971 7.70241Z" fill="#00CA88"/>
</svg>
