<svg width="157" height="28" viewBox="0 0 157 28" fill="none" xmlns="http://www.w3.org/2000/svg">
<path d="M26.0273 6.66734C25.8734 6.16735 25.5042 5.76111 25.0425 5.51112L15.6565 0.948727C15.4103 0.82373 15.1333 0.79248 14.8871 0.79248C14.6409 0.79248 14.3639 0.79248 14.1178 0.854979L4.73166 5.44862C4.27005 5.66737 3.93153 6.07361 3.80844 6.60484L1.50038 16.8858C1.40806 17.4171 1.53116 17.9483 1.8389 18.3858L8.33223 26.5419C8.70152 26.9169 9.22467 27.1669 9.74783 27.1981H20.0879C20.6419 27.2606 21.165 27.0106 21.5035 26.5419L27.9969 18.3858C28.3046 17.9483 28.4277 17.4171 28.3661 16.8858L26.0273 6.66734Z" fill="#0066FF"/>
<path d="M24.5808 16.4796C24.5501 16.4796 24.5193 16.4796 24.5193 16.4483C24.5193 16.4171 24.4577 16.4171 24.3962 16.4171C24.2731 16.3858 24.15 16.3858 24.0269 16.3858C23.9654 16.3858 23.9038 16.3858 23.8423 16.3546H23.8115C23.473 16.3233 23.1037 16.2608 22.7652 16.1671C22.6728 16.1358 22.5805 16.0421 22.5497 15.9483C22.5805 15.9483 22.5497 15.9483 22.5497 15.9483L22.3036 15.8858C22.4266 14.9796 22.3651 14.0421 22.1805 13.1359C21.965 12.2297 21.5957 11.3547 21.1034 10.5735L21.288 10.386V10.3547C21.288 10.261 21.3188 10.136 21.3803 10.0735C21.6573 9.82348 21.9343 9.63598 22.242 9.44849C22.3036 9.41724 22.3651 9.38599 22.4266 9.35474C22.5497 9.29224 22.6421 9.22974 22.7652 9.16725C22.7959 9.136 22.8267 9.136 22.8575 9.10475C22.8883 9.0735 22.8575 9.0735 22.8575 9.04225C23.1345 8.8235 23.196 8.44851 22.9806 8.16727C22.8883 8.04227 22.7036 7.94852 22.5497 7.94852C22.3959 7.94852 22.242 8.01102 22.1189 8.10477L22.0881 8.13602C22.0574 8.16727 22.0266 8.19852 21.9958 8.19852C21.9035 8.29227 21.8112 8.38601 21.7496 8.47976C21.7188 8.54226 21.6573 8.57351 21.6265 8.60476C21.4111 8.85475 21.1341 9.10475 20.8572 9.29224C20.7956 9.32349 20.7341 9.35474 20.6725 9.35474C20.6418 9.35474 20.5802 9.35474 20.5494 9.32349H20.5187L20.2725 9.47974C20.0263 9.22974 19.7493 8.97975 19.5031 8.72976C18.3645 7.82353 16.9489 7.26104 15.5025 7.10479L15.4717 6.8548V6.88605C15.3794 6.82355 15.3486 6.7298 15.3178 6.63606C15.3178 6.29231 15.3178 5.94857 15.3794 5.57358V5.54233C15.3794 5.47983 15.4102 5.41733 15.4102 5.35484C15.4409 5.22984 15.4409 5.10484 15.4717 4.97984V4.79235C15.5025 4.47986 15.2563 4.16736 14.9486 4.13611C14.7639 4.10487 14.5793 4.19861 14.4254 4.35486C14.3023 4.47986 14.2407 4.6361 14.2407 4.79235V4.9486C14.2407 5.07359 14.2715 5.19859 14.3023 5.32359C14.3331 5.38608 14.3331 5.44858 14.3331 5.51108V5.54233C14.3946 5.88607 14.3946 6.22982 14.3946 6.60481C14.3638 6.69855 14.3331 6.7923 14.2407 6.8548V6.9173L14.21 7.16729C13.8715 7.19854 13.5329 7.26104 13.1637 7.32354C11.7173 7.63603 10.394 8.41726 9.37845 9.51099L9.1938 9.38599H9.16303C9.13225 9.38599 9.10148 9.41724 9.03993 9.41724C8.97838 9.41724 8.91683 9.38599 8.85529 9.35474C8.57832 9.136 8.30135 8.886 8.08593 8.63601C8.05516 8.57351 7.99361 8.54226 7.96284 8.51101C7.87052 8.41726 7.80897 8.32352 7.71665 8.22977C7.68587 8.19852 7.6551 8.19852 7.62432 8.16727C7.59355 8.13602 7.59355 8.13602 7.59355 8.13602C7.47045 8.04227 7.31658 7.97977 7.16271 7.97977C6.97807 7.97977 6.8242 8.04227 6.73188 8.19852C6.54723 8.47976 6.60878 8.85475 6.85497 9.0735C6.88575 9.0735 6.88575 9.10475 6.88575 9.10475C6.88575 9.10475 6.94729 9.16725 6.97807 9.16725C7.07039 9.22974 7.19349 9.29224 7.31658 9.35474C7.37813 9.38599 7.43968 9.41724 7.50123 9.44849C7.80897 9.63598 8.11671 9.82348 8.3629 10.0735C8.42445 10.136 8.486 10.261 8.45522 10.3547V10.3235L8.63987 10.511C8.60909 10.5735 8.57832 10.6047 8.54755 10.6672C7.59355 12.1984 7.19349 14.0109 7.47045 15.7921L7.22426 15.8546C7.22426 15.8858 7.19349 15.8858 7.19349 15.8858C7.16271 15.9796 7.07039 16.0421 6.97807 16.1046C6.63955 16.1983 6.30104 16.2608 5.93175 16.2921C5.8702 16.2921 5.80865 16.2921 5.74711 16.3233C5.62401 16.3233 5.50091 16.3546 5.37782 16.3546C5.34704 16.3546 5.31627 16.3858 5.25472 16.3858C5.22395 16.3858 5.22395 16.3858 5.19317 16.4171C4.85466 16.4796 4.63924 16.7921 4.70079 17.1358C4.76234 17.4171 5.0393 17.6045 5.31627 17.5733C5.37782 17.5733 5.40859 17.5733 5.47014 17.542C5.50091 17.542 5.50091 17.542 5.50091 17.5108C5.50091 17.4795 5.59324 17.5108 5.62401 17.5108C5.74711 17.4795 5.8702 17.417 5.96252 17.3858C6.02407 17.3546 6.08562 17.3233 6.14717 17.3233H6.17794C6.51646 17.1983 6.8242 17.1046 7.19349 17.0421H7.22426C7.31658 17.0421 7.40891 17.0733 7.47045 17.1358C7.50123 17.1358 7.50123 17.1671 7.50123 17.1671L7.77819 17.1358C8.2398 18.5733 9.10148 19.8545 10.3017 20.792C10.5786 21.0107 10.8248 21.1982 11.1326 21.3545L10.9787 21.5732C10.9787 21.6045 11.0095 21.6045 11.0095 21.6045C11.071 21.6982 11.071 21.8232 11.0402 21.9169C10.9171 22.2294 10.7325 22.5419 10.5479 22.8232V22.8544C10.5171 22.9169 10.4863 22.9482 10.4248 23.0107C10.3632 23.0732 10.3017 23.1982 10.2093 23.3232C10.1786 23.3544 10.1786 23.3857 10.1478 23.4169C10.1478 23.4169 10.1478 23.4482 10.117 23.4482C9.96315 23.7607 10.0862 24.1356 10.3632 24.2919C10.4248 24.3231 10.5171 24.3544 10.5786 24.3544C10.8248 24.3544 11.0402 24.1981 11.1633 23.9794C11.1633 23.9794 11.1633 23.9481 11.1941 23.9481C11.1941 23.9169 11.2249 23.8856 11.2557 23.8544C11.2864 23.7294 11.348 23.6357 11.3788 23.5107L11.4403 23.3232C11.5326 22.9794 11.6865 22.6669 11.8404 22.3544C11.9019 22.2607 11.9942 22.1982 12.0866 22.1669C12.1173 22.1669 12.1173 22.1669 12.1173 22.1357L12.2404 21.8857C13.1021 22.2294 13.9946 22.3857 14.9178 22.3857C15.4717 22.3857 16.0256 22.3232 16.5796 22.1669C16.9181 22.1044 17.2566 21.9794 17.5643 21.8857L17.6874 22.1044C17.7182 22.1044 17.7182 22.1044 17.7182 22.1357C17.8105 22.1669 17.9029 22.2294 17.9644 22.3232C18.1183 22.6357 18.2722 22.9482 18.3645 23.2919V23.3232L18.426 23.5107C18.4568 23.6357 18.4876 23.7607 18.5491 23.8544C18.5799 23.8856 18.5799 23.9169 18.6107 23.9481C18.6107 23.9481 18.6107 23.9794 18.6414 23.9794C18.7645 24.1981 18.98 24.3544 19.2261 24.3544C19.3185 24.3544 19.38 24.3231 19.4723 24.2919C19.5954 24.2294 19.7185 24.1044 19.7493 23.9481C19.7801 23.7919 19.7801 23.6357 19.7185 23.4794C19.7185 23.4482 19.6878 23.4482 19.6878 23.4482C19.6878 23.4169 19.657 23.3857 19.6262 23.3544C19.5647 23.2294 19.5031 23.1357 19.4108 23.0419C19.38 22.9794 19.3492 22.9482 19.2877 22.8857V22.8232C19.0723 22.5419 18.9184 22.2294 18.7953 21.9169C18.7645 21.8232 18.7645 21.6982 18.8261 21.6045C18.8261 21.5732 18.8569 21.5732 18.8569 21.5732L18.7645 21.3232C20.334 20.3545 21.5342 18.8545 22.0881 17.0733L22.3343 17.1046C22.3651 17.1046 22.3651 17.0733 22.3651 17.0733C22.4266 17.0108 22.519 16.9796 22.6113 16.9796H22.6421C22.9806 17.0421 23.3191 17.1358 23.6268 17.2608H23.6576C23.7192 17.2921 23.7807 17.3233 23.8423 17.3233C23.9654 17.3858 24.0577 17.4483 24.1808 17.4795C24.2115 17.4795 24.2423 17.5108 24.3039 17.5108C24.3346 17.5108 24.3346 17.5108 24.3654 17.542C24.427 17.5733 24.4577 17.5733 24.5193 17.5733C24.7963 17.5733 25.0424 17.3858 25.1348 17.1358C25.104 16.7921 24.8578 16.5421 24.5808 16.4796ZM15.6871 15.5108L14.8562 15.9171L14.0253 15.5108L13.8099 14.6046L14.3946 13.8546H15.3178L15.9025 14.6046L15.6871 15.5108ZM20.7033 13.4796C20.8572 14.1359 20.8879 14.7921 20.8264 15.4483L17.9029 14.6046C17.6259 14.5421 17.472 14.2609 17.5336 13.9796C17.5643 13.8859 17.5951 13.8234 17.6567 13.7609L19.9647 11.6359C20.3032 12.1984 20.5494 12.8234 20.7033 13.4796ZM19.0415 10.4797L16.518 12.2922C16.3026 12.4172 15.9949 12.3859 15.841 12.1672C15.7795 12.1047 15.7487 12.0422 15.7487 11.9484L15.564 8.79225C16.9181 8.9485 18.1183 9.54224 19.0415 10.4797ZM13.4714 8.886L14.0869 8.761L13.933 11.8859C13.933 12.1672 13.6868 12.3859 13.4098 12.3859C13.3175 12.3859 13.256 12.3547 13.1637 12.3234L10.6094 10.4797C11.4095 9.69848 12.3943 9.136 13.4714 8.886ZM9.71696 11.6359L11.9942 13.6984C12.2097 13.8859 12.2404 14.1984 12.0558 14.4171C11.9942 14.5109 11.9327 14.5421 11.8096 14.5734L8.82451 15.4483C8.73219 14.1359 9.03993 12.7922 9.71696 11.6359ZM9.1938 16.9171L12.2404 16.3858C12.4866 16.3858 12.7328 16.5421 12.7636 16.7921C12.7944 16.8858 12.7944 17.0108 12.7328 17.1046L11.5634 19.9795C10.4863 19.2608 9.62464 18.167 9.1938 16.9171ZM16.1795 20.792C15.7487 20.8857 15.3178 20.9482 14.8562 20.9482C14.21 20.9482 13.5329 20.8232 12.9175 20.6357L14.4254 17.8545C14.5793 17.667 14.8255 17.6045 15.0409 17.7295C15.1332 17.792 15.1947 17.8545 15.2871 17.9483L16.7642 20.667C16.5796 20.6982 16.3949 20.7295 16.1795 20.792ZM19.934 18.0733C19.4723 18.8233 18.8261 19.4795 18.0875 19.9482L16.8873 17.0108C16.8258 16.7608 16.9489 16.5108 17.1643 16.4171C17.2566 16.3858 17.3489 16.3546 17.4412 16.3546L20.5187 16.8858C20.3648 17.3233 20.1801 17.7295 19.934 18.0733Z" fill="white"/>
<path d="M150.57 20.3234C151.001 20.3546 151.462 20.2921 151.862 20.1359C152.109 20.0109 152.263 19.7296 152.232 19.4484C152.201 19.1359 152.016 18.8547 151.739 18.7609C151.278 18.4797 150.755 18.2297 150.231 18.0734C149.708 17.8859 149.247 17.6672 148.816 17.4484C148.416 17.2609 148.077 17.011 147.739 16.6985C147.431 16.386 147.216 16.0422 147.062 15.636C146.877 15.1672 146.816 14.6673 146.816 14.1673C146.785 13.136 147.246 12.1361 148.046 11.5111C148.877 10.8548 149.985 10.5424 151.401 10.5424C152.078 10.5424 152.786 10.6049 153.463 10.7611C153.986 10.8548 154.509 10.9798 155.032 11.1673L154.447 13.8235C154.017 13.6673 153.617 13.5735 153.186 13.4485C152.693 13.3235 152.17 13.2923 151.678 13.2923C150.632 13.2923 150.108 13.5735 150.108 14.1673C150.108 14.2923 150.139 14.4173 150.17 14.5423C150.231 14.6673 150.324 14.761 150.447 14.8548C150.57 14.9485 150.755 15.0422 150.97 15.1672C151.185 15.2922 151.493 15.4172 151.862 15.5422C152.478 15.761 153.093 16.0422 153.647 16.3547C154.078 16.5735 154.447 16.8547 154.755 17.2297C155.032 17.5109 155.217 17.8547 155.34 18.2609C155.463 18.6984 155.525 19.1359 155.525 19.5734C155.586 20.6359 155.094 21.6671 154.201 22.2608C153.34 22.8546 152.109 23.1671 150.508 23.1671C149.616 23.1983 148.754 23.1046 147.893 22.8858C147.4 22.7608 146.939 22.6046 146.477 22.4483L147.031 19.6984C147.585 19.9171 148.17 20.1046 148.754 20.2296C149.37 20.2609 149.954 20.3234 150.57 20.3234ZM133.613 16.886C133.583 15.9485 133.767 15.011 134.075 14.136C134.352 13.386 134.783 12.7298 135.337 12.1361C135.86 11.6048 136.445 11.1986 137.122 10.9486C137.799 10.6674 138.507 10.5424 139.214 10.5424C140.876 10.5424 142.199 11.0736 143.153 12.1048C144.107 13.136 144.6 14.6673 144.6 16.6672C144.6 16.8547 144.6 17.0734 144.569 17.3234C144.569 17.5734 144.538 17.7609 144.538 17.9484H137.029C137.091 18.6047 137.429 19.2296 137.983 19.6046C138.66 20.0421 139.461 20.2609 140.261 20.2296C140.845 20.2296 141.461 20.1671 142.046 20.0734C142.538 19.9796 143.03 19.8234 143.492 19.6046L143.954 22.3546C143.738 22.4796 143.492 22.5421 143.246 22.6358C142.907 22.7296 142.569 22.8233 142.23 22.8546C141.861 22.9171 141.492 22.9796 141.061 23.0421C140.661 23.0733 140.23 23.1046 139.799 23.1046C138.845 23.1358 137.922 22.9796 137.029 22.6358C136.291 22.3546 135.645 21.9171 135.091 21.3546C134.567 20.7921 134.198 20.1046 133.952 19.3859C133.737 18.5422 133.613 17.6984 133.613 16.886ZM141.399 15.6047C141.399 15.3235 141.338 15.0422 141.245 14.761C141.184 14.4798 141.03 14.261 140.876 14.0423C140.691 13.8235 140.476 13.636 140.23 13.511C139.922 13.3548 139.614 13.2923 139.276 13.2923C138.937 13.2923 138.63 13.3548 138.322 13.511C138.076 13.636 137.829 13.7923 137.645 14.011C137.46 14.2298 137.306 14.4798 137.214 14.761C137.122 15.0422 137.06 15.3235 137.029 15.6047H141.399ZM124.597 7.85492L127.92 7.32368V10.8236H131.921V13.636H127.92V17.8234C127.889 18.4172 128.013 19.0109 128.29 19.5109C128.536 19.9171 129.028 20.1359 129.797 20.1359C130.167 20.1359 130.536 20.1046 130.875 20.0421C131.244 19.9796 131.582 19.8859 131.921 19.7609L132.382 22.3858C131.952 22.5733 131.49 22.6983 131.028 22.8233C130.444 22.9483 129.828 23.0108 129.213 23.0108C128.443 23.0421 127.674 22.9171 126.966 22.6358C126.412 22.4171 125.92 22.0421 125.551 21.6046C125.181 21.1359 124.935 20.5734 124.781 19.9796C124.627 19.2921 124.566 18.5734 124.597 17.8859V7.85492ZM111.148 16.886C111.118 15.9485 111.302 15.011 111.61 14.136C111.887 13.386 112.318 12.7298 112.872 12.1361C113.395 11.6048 113.98 11.1986 114.657 10.9486C115.334 10.6674 116.041 10.5424 116.749 10.5424C118.411 10.5424 119.734 11.0736 120.688 12.1048C121.642 13.136 122.135 14.6673 122.135 16.6672C122.135 16.8547 122.135 17.0734 122.104 17.3234C122.073 17.5734 122.073 17.7609 122.073 17.9484H114.534C114.595 18.6047 114.934 19.2296 115.488 19.6046C116.165 20.0421 116.965 20.2609 117.765 20.2296C118.35 20.2296 118.965 20.1671 119.55 20.0734C120.042 19.9796 120.534 19.8234 121.027 19.6046L121.488 22.3546C121.273 22.4796 121.027 22.5421 120.781 22.6358C120.442 22.7296 120.104 22.8233 119.765 22.8546C119.396 22.9171 119.027 22.9796 118.596 23.0421C118.196 23.0733 117.765 23.1046 117.334 23.1046C116.38 23.1358 115.457 22.9796 114.564 22.6358C113.826 22.3546 113.179 21.9171 112.626 21.3546C112.102 20.7921 111.733 20.1046 111.487 19.3859C111.241 18.5422 111.118 17.6984 111.148 16.886ZM118.934 15.6047C118.934 15.3235 118.873 15.0422 118.78 14.761C118.719 14.4798 118.565 14.261 118.411 14.0423C118.226 13.8235 118.011 13.636 117.765 13.511C117.457 13.3548 117.149 13.2923 116.811 13.2923C116.472 13.2923 116.165 13.3548 115.857 13.511C115.611 13.636 115.395 13.7923 115.211 14.011C115.026 14.2298 114.872 14.4798 114.78 14.761C114.687 15.0422 114.626 15.3235 114.595 15.6047H118.934ZM98.531 11.2298C99.2388 11.0423 99.9774 10.8861 100.716 10.7611C101.639 10.6049 102.593 10.5424 103.516 10.5424C104.347 10.5111 105.178 10.6674 105.978 10.9486C106.594 11.1673 107.148 11.5423 107.548 12.0423C107.948 12.5423 108.225 13.136 108.379 13.761C108.563 14.4798 108.625 15.2297 108.625 15.9797V22.6983H105.332V16.4172C105.332 15.3235 105.178 14.5735 104.901 14.1048C104.624 13.6673 104.101 13.4173 103.332 13.4173C103.086 13.4173 102.839 13.4173 102.562 13.4485C102.285 13.4485 102.07 13.4798 101.855 13.511V22.6983H98.531V11.2298ZM96.1922 13.8235C95.8844 13.761 95.5459 13.6673 95.1459 13.6048C94.715 13.511 94.2842 13.4798 93.8534 13.4798C93.6072 13.4798 93.361 13.511 93.084 13.5423C92.8686 13.5735 92.6532 13.6048 92.4377 13.6673V22.7608H89.1141V11.4486C89.7912 11.1986 90.499 11.0111 91.2068 10.8548C92.0992 10.6361 93.0224 10.5424 93.9149 10.5736C94.1303 10.5736 94.3457 10.6049 94.5611 10.6049C94.8073 10.6049 95.0535 10.6361 95.3305 10.6986C95.5767 10.7298 95.8229 10.7611 96.0999 10.8236C96.3153 10.8548 96.5307 10.9173 96.7461 11.0111L96.1922 13.8235ZM75.5428 16.886C75.512 15.9485 75.6966 15.011 76.0044 14.136C76.2813 13.386 76.7122 12.7298 77.2661 12.1361C77.7893 11.6048 78.374 11.1986 79.051 10.9486C79.7281 10.6674 80.4358 10.5424 81.1437 10.5424C82.8055 10.5424 84.1287 11.0736 85.0827 12.1048C86.0367 13.136 86.5291 14.6673 86.5291 16.636C86.5291 16.8235 86.5291 17.0422 86.4983 17.2922C86.4676 17.5422 86.4676 17.7297 86.4676 17.9172H78.9279C78.9895 18.5734 79.328 19.1984 79.8819 19.5734C80.5589 20.0109 81.3591 20.2296 82.1592 20.1984C82.7439 20.1984 83.3594 20.1359 83.9441 20.0421C84.4365 19.9484 84.9289 19.7921 85.3905 19.6046L85.8521 22.3546C85.6367 22.4796 85.3905 22.5421 85.1443 22.6358C84.8058 22.7296 84.4673 22.8233 84.1287 22.8546C83.7595 22.9171 83.3902 22.9796 82.9593 23.0421C82.5593 23.0733 82.1284 23.1046 81.6976 23.1046C80.7436 23.1358 79.8204 22.9796 78.9279 22.6358C78.1893 22.3546 77.5431 21.9171 76.9892 21.3546C76.466 20.7921 76.0967 20.1046 75.8505 19.3859C75.6659 18.5422 75.5428 17.7297 75.5428 16.886ZM83.3594 15.6047C83.3594 15.3235 83.2978 15.0422 83.2055 14.761C83.144 14.4798 82.9901 14.261 82.8362 14.0423C82.6516 13.8235 82.4362 13.636 82.19 13.511C81.8822 13.3548 81.5745 13.2923 81.236 13.2923C80.8975 13.2923 80.5897 13.3548 80.282 13.511C80.0358 13.636 79.7896 13.7923 79.605 14.011C79.4203 14.2298 79.2664 14.4798 79.1741 14.761C79.0818 15.0422 79.0202 15.3235 78.9895 15.6047H83.3594ZM70.1573 16.6985C70.1573 14.511 69.3572 13.4485 67.7877 13.4485C67.4492 13.4485 67.1107 13.4798 66.7722 13.5735C66.4952 13.636 66.2182 13.761 65.972 13.9173V20.0421C66.1259 20.0734 66.3413 20.1046 66.5875 20.1359C66.8337 20.1671 67.1107 20.1671 67.4184 20.1671C68.2185 20.2296 68.9879 19.8859 69.4803 19.2296C69.9419 18.4797 70.1881 17.6047 70.1573 16.6985ZM73.5425 16.8235C73.5425 17.6984 73.4194 18.5734 73.1116 19.4171C72.8654 20.1671 72.4654 20.8234 71.9422 21.3858C71.3883 21.9483 70.742 22.3858 70.0342 22.6671C69.2033 22.9796 68.3416 23.1046 67.4492 23.1046C67.0491 23.1046 66.6183 23.0733 66.1875 23.0421C65.7566 23.0108 65.3258 22.9483 64.8949 22.9171C64.4949 22.8546 64.0948 22.7921 63.6948 22.6983C63.2947 22.6358 62.9562 22.5421 62.6792 22.4171V5.69872L66.0028 5.16748V11.1048C66.3721 10.9486 66.7722 10.8236 67.1722 10.7298C67.6031 10.6361 68.0339 10.6049 68.4647 10.6049C69.2341 10.6049 69.9727 10.7298 70.6805 11.0736C71.296 11.3548 71.8499 11.7923 72.2807 12.3236C72.7423 12.9173 73.0808 13.5735 73.2655 14.2923C73.4501 15.0735 73.5425 15.9485 73.5425 16.8235ZM59.5095 22.3233C58.8017 22.5108 58.0631 22.6671 57.3245 22.7608C56.4013 22.9171 55.4473 22.9796 54.5241 22.9796C53.6624 23.0108 52.8315 22.8546 52.0314 22.5733C51.4159 22.3233 50.8927 21.9483 50.4619 21.4483C50.0618 20.9171 49.7849 20.3234 49.631 19.6671C49.4464 18.9484 49.3848 18.1672 49.3848 17.4172V10.8236H52.7084V17.0422C52.7084 18.1359 52.8623 18.9172 53.1393 19.3859C53.4162 19.8546 53.9394 20.1046 54.7087 20.1046C54.9549 20.1046 55.2011 20.1046 55.4781 20.0734C55.755 20.0421 55.9705 20.0421 56.1859 19.9796V10.8236H59.5095V22.3233ZM40.1218 15.136C40.4603 14.761 40.7681 14.386 41.1374 14.011C41.4759 13.6048 41.8144 13.2298 42.1529 12.8548C42.4914 12.4486 42.7992 12.1048 43.0761 11.7611C43.3531 11.4173 43.6301 11.1048 43.8455 10.8548H47.7846C46.9844 11.7611 46.2151 12.6673 45.4765 13.511C44.7072 14.3548 43.907 15.2297 43.0146 16.1047C43.507 16.5735 43.9686 17.0422 44.3994 17.5734C44.861 18.1359 45.3226 18.6984 45.7842 19.3234C46.2151 19.9171 46.6459 20.5421 47.0152 21.1359C47.3845 21.7296 47.6922 22.2921 47.9384 22.7921H44.1224C43.8763 22.3858 43.5993 21.9796 43.2915 21.5108C42.9838 21.0421 42.6453 20.5734 42.3376 20.0734C41.999 19.6046 41.6297 19.1359 41.2297 18.6984C40.8912 18.2922 40.5219 17.9172 40.1218 17.6047V22.8233H36.7982V5.69872L40.1218 5.16748V15.136Z" fill="black"/>
</svg>
