<svg viewBox="0 0 400 157" xmlns="http://www.w3.org/2000/svg">
<path d="M67.4368 0.763751L0 39.7195V74.1525L67.4368 34.9255L105.362 56.685L97.8153 61.071L67.4368 43.5989L41.0119 58.8838L101.397 93.8477L134.874 74.2533V39.7195L67.4368 0.763751Z" />
<path fill-rule="evenodd" clip-rule="evenodd" d="M33.4767 63.3047L0 82.899V117.519L67.4368 156.389L134.874 117.519V82.9999L67.4368 122.228L29.508 100.467L37.0583 96.0825L67.4368 113.553L93.8616 98.2685L33.4767 63.3047Z" fill="white"/>
<path fill-rule="evenodd" clip-rule="evenodd" d="M33.4767 63.3047L0 82.899V117.519L67.4368 156.389L134.874 117.519V82.9999L67.4368 122.228L29.508 100.467L37.0583 96.0825L67.4368 113.553L93.8616 98.2685L33.4767 63.3047ZM81.883 98.2659L33.4931 70.2473L6 86.3394V114.052L67.4368 149.463L128.874 114.052V93.4314L67.4575 129.157L17.5062 100.499L37.0437 89.1526L67.4282 106.627L81.883 98.2659Z" />
<path d="M227.954 48.9594C219.76 48.9594 213.287 51.7934 208.534 57.4555C203.981 62.8186 201.705 69.5923 201.705 77.787C201.705 85.9806 203.981 92.759 208.534 98.1186C213.287 103.783 219.76 106.614 227.954 106.614C236.045 106.614 242.617 103.783 247.676 98.1186C252.43 92.759 254.807 85.9806 254.807 77.787C254.807 69.5923 252.43 62.8186 247.676 57.4555C242.617 51.7934 236.045 48.9594 227.954 48.9594ZM202.311 51.995C208.382 43.0933 217.431 38.6412 229.472 38.6412C240.396 38.6412 249.242 42.4349 256.023 50.0234C262.797 57.5111 266.189 66.7618 266.189 77.787C266.189 88.8123 262.797 98.0664 256.023 105.551C249.242 113.135 240.14 116.928 228.714 116.928C217.283 116.928 208.482 112.432 202.311 103.426V145.756H190.937V39.8571H202.311V51.995Z" />
<path d="M289.855 115.715V49.8695H274.378V39.8561H289.855V12.6987H301.234V39.8561H318.683V49.8695H301.234V115.715H289.855Z" />
<path d="M366.624 106.613C371.478 106.613 375.778 105.248 379.52 102.515C383.262 99.7841 385.992 96.2466 387.711 91.8954H400C397.676 99.3831 393.428 105.401 387.257 109.95C380.781 114.603 373.096 116.932 364.195 116.932C353.07 116.932 344.016 113.138 337.038 105.549C330.261 98.1695 326.875 88.9154 326.875 77.7858C326.875 66.6609 330.261 57.4068 337.038 50.0222C344.016 42.4383 353.07 38.6446 364.195 38.6446C373.096 38.6446 380.781 40.9732 387.257 45.6223C393.428 50.1717 397.676 56.1932 400 63.6774H387.711C385.992 59.3297 383.262 55.7887 379.52 53.0579C375.778 50.3236 371.478 48.9593 366.624 48.9593C361.77 48.9593 357.648 49.7174 354.257 51.2358C350.867 52.753 348.01 54.829 345.686 57.4543C340.728 62.9194 338.254 69.6954 338.254 77.7858C338.254 85.8797 340.728 92.6534 345.686 98.1174C350.741 103.783 357.723 106.613 366.624 106.613Z" />
</svg>
