<svg width="118" height="26" viewBox="0 0 118 26" fill="none" xmlns="http://www.w3.org/2000/svg">
<g clip-path="url(#clip0)">
<path d="M41.8803 14.8992L41.1826 16.8759H41.1245C41.0082 16.4302 40.795 15.7519 40.4462 14.938L36.7059 5.53874H33.0431V20.5194H35.4656V11.2752C35.4656 10.6938 35.4656 10.0349 35.4462 9.22091C35.4268 8.81393 35.3881 8.50385 35.3687 8.27129H35.4268C35.5431 8.85269 35.6787 9.27905 35.7756 9.55036L40.2718 20.4806H41.9772L46.4346 9.45346C46.5315 9.20153 46.6284 8.69765 46.7253 8.27129H46.7834C46.7253 9.37594 46.6865 10.3643 46.6671 10.9651V20.4612H49.2446V5.49998H45.7175L41.8803 14.8992ZM51.6865 9.72478H54.2059V20.4612H51.6865V9.72478ZM52.9656 5.1899C52.5392 5.1899 52.1904 5.34494 51.8997 5.61625C51.609 5.88757 51.4539 6.23641 51.4539 6.66277C51.4539 7.06974 51.609 7.41858 51.8997 7.6899C52.1904 7.96122 52.5392 8.09688 52.9656 8.09688C53.3919 8.09688 53.7601 7.94184 54.0315 7.6899C54.3222 7.41858 54.4772 7.06974 54.4772 6.66277C54.4772 6.25579 54.3222 5.90695 54.0315 5.61625C53.7795 5.34494 53.4113 5.1899 52.9656 5.1899ZM63.14 9.62788C62.6749 9.53098 62.1904 9.47284 61.7253 9.47284C60.5818 9.47284 59.5353 9.72478 58.6632 10.2287C57.7911 10.7325 57.0935 11.4302 56.6477 12.3023C56.1826 13.1938 55.9501 14.2209 55.9501 15.4031C55.9501 16.4302 56.1826 17.3411 56.6284 18.1744C57.0741 18.9883 57.6943 19.6473 58.5276 20.093C59.3222 20.5387 60.2524 20.7713 61.2989 20.7713C62.5005 20.7713 63.5276 20.5194 64.3415 20.0542L64.3609 20.0349V17.7093L64.264 17.7868C63.8958 18.0581 63.4694 18.2907 63.0431 18.4263C62.5974 18.5814 62.1904 18.6589 61.8415 18.6589C60.8338 18.6589 60.0392 18.3682 59.4772 17.7287C58.8958 17.1085 58.6051 16.2558 58.6051 15.1899C58.6051 14.0852 58.8958 13.2132 59.4966 12.5736C60.0974 11.9341 60.8919 11.6046 61.8609 11.6046C62.6749 11.6046 63.5082 11.8759 64.264 12.4186L64.3609 12.4961V10.0349L64.3415 10.0155C64.0121 9.87982 63.6439 9.72478 63.14 9.62788ZM71.4539 9.55036C70.8338 9.55036 70.2524 9.74416 69.7485 10.1511C69.3222 10.5 69.0315 11.0039 68.7795 11.6046H68.7601V9.72478H66.2408V20.4612H68.7601V14.9767C68.7601 14.0465 68.9539 13.2713 69.3803 12.7093C69.8067 12.1279 70.3493 11.8372 71.0082 11.8372C71.2408 11.8372 71.4733 11.8953 71.764 11.9341C72.0353 12.0116 72.2291 12.0891 72.3648 12.186L72.4617 12.2635V9.74416L72.4036 9.72478C72.2291 9.6085 71.8803 9.55036 71.4539 9.55036ZM78.3144 9.49222C76.5508 9.49222 75.1361 10.0155 74.1477 11.0426C73.14 12.0697 72.6555 13.4845 72.6555 15.2674C72.6555 16.9341 73.1594 18.2907 74.1284 19.279C75.0974 20.248 76.4152 20.7519 78.0625 20.7519C79.7873 20.7519 81.1632 20.2287 82.1516 19.1821C83.1594 18.1356 83.6439 16.7403 83.6439 15.0155C83.6439 13.3101 83.1787 11.9535 82.2291 10.9651C81.3183 9.97672 79.9811 9.49222 78.3144 9.49222ZM80.3299 17.748C79.8648 18.3488 79.1284 18.6395 78.2175 18.6395C77.3067 18.6395 76.5702 18.3488 76.047 17.7093C75.5237 17.1085 75.2718 16.2364 75.2718 15.1318C75.2718 13.9883 75.5431 13.1163 76.047 12.4961C76.5702 11.8759 77.2873 11.5659 78.1981 11.5659C79.0896 11.5659 79.7873 11.8566 80.2911 12.4573C80.795 13.0581 81.0663 13.9302 81.0663 15.0736C81.0276 16.2364 80.8144 17.1473 80.3299 17.748ZM89.264 14.1821C88.4694 13.8527 87.9656 13.6008 87.733 13.3876C87.5392 13.1938 87.4423 12.9225 87.4423 12.5736C87.4423 12.2829 87.5586 11.9922 87.8493 11.7984C88.14 11.6046 88.4694 11.5077 88.9539 11.5077C89.3803 11.5077 89.826 11.5852 90.2524 11.7015C90.6787 11.8178 91.0663 11.9922 91.3764 12.2248L91.4733 12.3023V9.93796L91.4152 9.91858C91.1245 9.8023 90.7369 9.68602 90.2718 9.58912C89.8067 9.5116 89.3803 9.47284 89.0315 9.47284C87.8299 9.47284 86.8415 9.76354 86.0663 10.4031C85.2911 11.0039 84.9229 11.8178 84.9229 12.7674C84.9229 13.2713 85.0005 13.717 85.1749 14.0852C85.3493 14.4535 85.6012 14.8023 85.9501 15.093C86.2989 15.3643 86.8028 15.6744 87.5005 15.9651C88.0818 16.217 88.5276 16.4108 88.7989 16.5659C89.0702 16.7209 89.2446 16.8953 89.3803 17.031C89.4772 17.186 89.5353 17.3798 89.5353 17.6318C89.5353 18.3488 88.9927 18.6977 87.8881 18.6977C87.4617 18.6977 87.016 18.6201 86.4927 18.4457C85.9694 18.2713 85.4849 18.0194 85.078 17.7287L84.9811 17.6511V20.1124L85.0392 20.1318C85.4074 20.3062 85.8532 20.4225 86.3958 20.5581C86.9384 20.655 87.4229 20.7325 87.8493 20.7325C89.1477 20.7325 90.2136 20.4418 90.9694 19.8023C91.7446 19.1821 92.1516 18.3876 92.1516 17.3604C92.1516 16.6434 91.9578 16.0039 91.5315 15.5194C90.9694 15.0542 90.2718 14.5697 89.264 14.1821ZM98.7989 9.49222C97.0353 9.49222 95.6206 10.0155 94.6322 11.0426C93.6439 12.0697 93.14 13.4845 93.14 15.2674C93.14 16.9341 93.6439 18.2907 94.6129 19.279C95.5818 20.248 96.8997 20.7519 98.547 20.7519C100.272 20.7519 101.648 20.2287 102.636 19.1821C103.644 18.1356 104.128 16.7403 104.128 15.0155C104.128 13.3101 103.663 11.9535 102.714 10.9651C101.803 9.97672 100.466 9.49222 98.7989 9.49222ZM100.795 17.748C100.33 18.3488 99.5935 18.6395 98.6826 18.6395C97.7524 18.6395 97.0353 18.3488 96.5121 17.7093C95.9888 17.1085 95.7369 16.2364 95.7369 15.1318C95.7369 13.9883 96.0082 13.1163 96.5121 12.4961C97.0353 11.8759 97.7524 11.5659 98.6632 11.5659C99.5353 11.5659 100.252 11.8566 100.756 12.4573C101.26 13.0581 101.531 13.9302 101.531 15.0736C101.531 16.2364 101.28 17.1473 100.795 17.748ZM117.597 11.7984V9.72478H115.059V6.54649L114.981 6.56587L112.578 7.28292L112.52 7.3023V9.72478H108.721V8.36819C108.721 7.74804 108.876 7.26354 109.148 6.95346C109.419 6.64339 109.826 6.48835 110.33 6.48835C110.679 6.48835 111.047 6.56587 111.454 6.74029L111.551 6.79843V4.6085L111.493 4.58912C111.144 4.47284 110.679 4.39532 110.078 4.39532C109.322 4.39532 108.663 4.56974 108.062 4.86044C107.462 5.1899 107.016 5.63563 106.686 6.23641C106.357 6.81781 106.183 7.47672 106.183 8.23253V9.72478H104.419V11.779H106.183V20.4612H108.721V11.7984H112.52V17.3217C112.52 19.5891 113.586 20.7325 115.718 20.7325C116.066 20.7325 116.435 20.6744 116.783 20.6163C117.152 20.5387 117.423 20.4418 117.578 20.3643L117.597 20.3449V18.2713L117.5 18.3488C117.345 18.4457 117.21 18.5232 116.977 18.5814C116.783 18.6395 116.609 18.6589 116.473 18.6589C115.969 18.6589 115.621 18.5426 115.369 18.2519C115.136 17.9806 115.02 17.5349 115.02 16.8759V11.7984H117.597Z" fill="#6D6D7F"/>
<path d="M0.5625 0.5H12.4423V12.3798H0.5625V0.5Z" fill="#6D6D7F"/>
<path d="M13.6826 0.5H25.5625V12.3798H13.6826V0.5Z" fill="#6D6D7F"/>
<path d="M0.5625 13.6201H12.4423V25.5H0.5625V13.6201Z" fill="#6D6D7F"/>
<path d="M13.6826 13.6201H25.5625V25.5H13.6826V13.6201Z" fill="#6D6D7F"/>
</g>
<defs>
<clipPath id="clip0">
<rect width="117.054" height="25" fill="white" transform="translate(0.5625 0.5)"/>
</clipPath>
</defs>
</svg>
