<svg  width="135" height="26" viewBox="0 0 135 26" fill="none" xmlns="http://www.w3.org/2000/svg">
<g clip-path="url(#nvidia-clip)">
<path d="M132.668 20.4739V20.1019H132.903C133.027 20.1019 133.206 20.1157 133.206 20.2673C133.206 20.4188 133.11 20.4739 132.958 20.4739H132.668V20.4739ZM132.668 20.7357H132.834L133.206 21.3832H133.606L133.192 20.7081C133.399 20.7219 133.565 20.5703 133.579 20.3637V20.3086C133.579 19.9504 133.33 19.8402 132.917 19.8402H132.324V21.3832H132.668V20.7357V20.7357ZM134.406 20.6117C134.406 19.7024 133.703 19.1789 132.917 19.1789C132.131 19.1789 131.427 19.7024 131.427 20.6117C131.427 21.5209 132.131 22.0445 132.917 22.0445C133.703 22.0445 134.406 21.5209 134.406 20.6117ZM133.965 20.6117C133.992 21.1903 133.537 21.6863 132.958 21.7138H132.917C132.31 21.7414 131.8 21.2592 131.772 20.653C131.745 20.0468 132.227 19.5371 132.834 19.5095C133.441 19.482 133.951 19.9642 133.978 20.5703C133.965 20.5841 133.965 20.5979 133.965 20.6117V20.6117Z" fill="#6D6D7F"/>
<path d="M79.7307 5.30569V21.5623H84.3226V5.30569H79.7307ZM43.6023 5.27814V21.5485H48.2356V8.91521L51.8484 8.92898C53.0343 8.92898 53.8617 9.2183 54.427 9.82447C55.1579 10.596 55.4474 11.8497 55.4474 14.1228V21.5485H59.9428V12.5661C59.9428 6.14607 55.8473 5.27814 51.8484 5.27814H43.6023V5.27814ZM87.1357 5.30569V21.5623H94.582C98.5533 21.5623 99.8495 20.901 101.242 19.4269C102.235 18.3936 102.869 16.1067 102.869 13.6131C102.869 11.3261 102.332 9.28718 101.38 8.01972C99.6979 5.74655 97.2433 5.30569 93.5753 5.30569H87.1357V5.30569ZM91.6862 8.83254H93.6581C96.5263 8.83254 98.3741 10.1138 98.3741 13.4478C98.3741 16.7817 96.5263 18.0768 93.6581 18.0768H91.6862V8.83254V8.83254ZM73.1118 5.30569L69.2783 18.187L65.6103 5.30569H60.6461L65.8861 21.5623H72.505L77.8002 5.30569H73.1118V5.30569ZM105.021 21.5623H109.612V5.30569H105.021V21.5623ZM117.9 5.30569L111.488 21.5485H116.011L117.031 18.6692H124.615L125.581 21.5347H130.504L124.036 5.30569H117.9V5.30569ZM120.878 8.2677L123.664 15.8725H118.01L120.878 8.2677Z" fill="#6D6D7F"/>
<path d="M13.9687 8.00593V5.77409C14.1894 5.76032 14.41 5.74654 14.6306 5.74654C20.7532 5.55367 24.7659 11.0093 24.7659 11.0093C24.7659 11.0093 20.436 17.0159 15.7889 17.0159C15.1684 17.0159 14.5617 16.9195 13.9825 16.7266V9.94846C16.3681 10.2378 16.8507 11.2848 18.271 13.6682L21.4564 10.9955C21.4564 10.9955 19.126 7.95082 15.2098 7.95082C14.7961 7.93705 14.3824 7.9646 13.9687 8.00593V8.00593ZM13.9687 0.621582V3.95556L14.6306 3.91423C23.1387 3.62492 28.6959 10.8853 28.6959 10.8853C28.6959 10.8853 22.3252 18.6278 15.6924 18.6278C15.1133 18.6278 14.5479 18.5727 13.9825 18.4763V20.5428C14.4514 20.5979 14.934 20.6392 15.4028 20.6392C21.5805 20.6392 26.0483 17.4843 30.3782 13.7646C31.0953 14.3432 34.0324 15.7347 34.6391 16.3409C30.5299 19.7851 20.9462 22.5542 15.5132 22.5542C14.9892 22.5542 14.4927 22.5266 13.9963 22.4715V25.3784H37.466V0.621582H13.9687V0.621582ZM13.9687 16.7266V18.4901C8.25989 17.4706 6.6741 11.5328 6.6741 11.5328C6.6741 11.5328 9.41821 8.50189 13.9687 8.00593V9.93468H13.9549C11.5694 9.64537 9.694 11.8772 9.694 11.8772C9.694 11.8772 10.7558 15.6383 13.9687 16.7266V16.7266ZM3.83347 11.2848C3.83347 11.2848 7.21189 6.29761 13.9825 5.77409V3.95556C6.48105 4.56174 0 10.8991 0 10.8991C0 10.8991 3.668 21.5072 13.9687 22.4715V20.5428C6.4121 19.606 3.83347 11.2848 3.83347 11.2848V11.2848Z" fill="#6D6D7F"/>
</g>
<defs>
<clipPath id="nvidia-clip">
<rect width="134.406" height="25" fill="white" transform="translate(0 0.5)"/>
</clipPath>
</defs>
</svg>
