<svg width="400" height="109" viewBox="0 0 400 109" fill="none" xmlns="http://www.w3.org/2000/svg">
<path d="M28.6425 62.7937H28.5332H0.0424805C0.0473186 62.933 0.0511874 63.0733 0.0589284 63.2127C0.0705399 63.4817 0.0898921 63.7497 0.106342 64.0187C0.114083 64.1339 0.11892 64.249 0.127629 64.3632C0.149884 64.6748 0.176979 64.9844 0.20504 65.294C0.211814 65.3647 0.21762 65.4343 0.224393 65.5021C0.257293 65.8465 0.295028 66.191 0.335668 66.5326C0.337603 66.5665 0.341475 66.5994 0.346313 66.6323C0.390824 67.0019 0.438239 67.3715 0.492425 67.7392C0.492425 67.7431 0.493391 67.7489 0.495327 67.7528C0.823351 70.0325 1.31587 72.2909 1.97289 74.5106C1.97579 74.5203 1.97966 74.529 1.9816 74.5387C2.08416 74.888 2.19254 75.2354 2.30381 75.5808C2.31059 75.6012 2.31736 75.6215 2.32317 75.6418C2.32897 75.6621 2.33575 75.6824 2.34252 75.7028C2.44412 76.0153 2.55056 76.3269 2.657 76.6394C2.68506 76.7178 2.71118 76.7971 2.74021 76.8755C2.83601 77.1455 2.93374 77.4155 3.03437 77.6854C3.08082 77.8073 3.12726 77.9283 3.17274 78.0512C3.25983 78.2747 3.34594 78.4963 3.434 78.7198C3.50076 78.8872 3.57043 79.0546 3.6401 79.222C3.71171 79.3962 3.78525 79.5694 3.85879 79.7445C3.94974 79.9574 4.04457 80.1693 4.13843 80.3812C4.19455 80.508 4.25164 80.6338 4.30776 80.7596C4.42388 81.014 4.54386 81.2685 4.66385 81.5211C4.70352 81.6024 4.74126 81.6836 4.7819 81.7649C4.9222 82.0562 5.06541 82.3445 5.21056 82.631C5.23475 82.6755 5.25603 82.719 5.27829 82.7635C5.44182 83.0809 5.60825 83.3983 5.77952 83.7128C5.78726 83.7263 5.795 83.7398 5.80177 83.7553C5.83758 83.8211 5.87725 83.884 5.91305 83.9489L30.3388 69.2342L30.4288 69.18C29.465 67.149 28.8651 64.9892 28.6425 62.7937Z" fill="#93D500"/>
<path d="M35.6715 75.9236L35.6028 75.9923L15.4579 96.1382C15.5614 96.235 15.664 96.3327 15.7704 96.4265C15.9581 96.5969 16.1497 96.7662 16.3404 96.9326C16.4391 97.0207 16.5358 97.1078 16.6345 97.1929C16.8629 97.3903 17.0932 97.5829 17.3225 97.7754C17.3854 97.8277 17.4464 97.879 17.5083 97.9302C17.7666 98.1441 18.0298 98.3541 18.294 98.5631C18.3279 98.5892 18.3617 98.6163 18.3956 98.6434C18.681 98.8679 18.9694 99.0866 19.2606 99.3072C19.2732 99.3149 19.2839 99.3226 19.2935 99.3314C20.5069 100.238 21.7649 101.088 23.0624 101.879C23.1069 101.907 23.1515 101.933 23.1969 101.961C23.4437 102.109 23.6904 102.256 23.9391 102.4C24.091 102.487 24.2429 102.573 24.3949 102.659C24.5381 102.742 24.6813 102.822 24.8264 102.902C25.0877 103.045 25.3509 103.187 25.6141 103.327C25.6499 103.346 25.6866 103.365 25.7234 103.385C26.4559 103.768 27.201 104.124 27.9518 104.467L28.6669 102.731L38.7989 78.1249L38.8366 78.034C37.7297 77.4418 36.6692 76.7403 35.6715 75.9236Z" fill="#4D5A31"/>
<path d="M33.5736 73.9167C33.3559 73.6748 33.1488 73.427 32.9456 73.1764C32.7657 72.9539 32.5915 72.7294 32.4231 72.502C32.2306 72.2407 32.0419 71.9785 31.8638 71.7105C31.6839 71.4415 31.5078 71.1705 31.3413 70.8948L6.88464 85.6278C7.26008 86.2519 7.65197 86.8596 8.0516 87.4605C8.06515 87.4808 8.07772 87.5031 8.09127 87.5234C8.09611 87.5311 8.10095 87.5379 8.10579 87.5456C8.11933 87.565 8.13094 87.5863 8.14449 87.6066C8.14546 87.6085 8.14739 87.6105 8.14836 87.6124C8.18029 87.6608 8.21319 87.7072 8.24609 87.7556C8.24803 87.7585 8.24996 87.7614 8.25189 87.7643C8.25286 87.7653 8.25383 87.7672 8.2548 87.7682C8.67959 88.3962 9.11598 89.0145 9.56593 89.6164C9.5756 89.6289 9.58625 89.6425 9.59592 89.6551C9.6056 89.6676 9.61528 89.6802 9.62495 89.6928C9.82041 89.9521 10.0168 90.2105 10.2191 90.4669C10.2452 90.5008 10.2713 90.5337 10.2994 90.5666C10.5065 90.8317 10.7174 91.0929 10.9322 91.3523C10.9825 91.4132 11.0348 91.4752 11.0851 91.5371C11.2786 91.7684 11.4721 91.9986 11.6695 92.227C11.7537 92.3247 11.8418 92.4225 11.9269 92.5192C12.0953 92.7108 12.2617 92.9014 12.434 93.0901C12.5278 93.1937 12.6256 93.2982 12.7213 93.4017C12.7649 93.4491 12.8075 93.4956 12.852 93.543C12.9778 93.6784 13.1026 93.8139 13.2293 93.9484C13.2797 94.0016 13.3329 94.0539 13.3842 94.1071C13.6067 94.3393 13.8312 94.5716 14.0605 94.7999L34.2355 74.625C34.0042 74.3937 33.7875 74.1557 33.5736 73.9167Z" fill="#6BA43A"/>
<path d="M60.3158 75.9128C60.0942 76.0919 59.8697 76.267 59.6414 76.4354L59.6917 76.5195L74.4015 100.938C75.0827 100.492 75.7562 100.034 76.4141 99.5519C77.8375 98.502 79.2154 97.3641 80.543 96.1391L60.3961 75.9922L60.3158 75.9128Z" fill="#4D5A31"/>
<path d="M72.2641 101.138L71.7648 100.309L58.0342 77.5171C57.7565 77.6845 57.472 77.8354 57.1885 77.9883C56.9021 78.1422 56.6137 78.2864 56.3215 78.4247C53.6838 79.6759 50.8283 80.3145 47.969 80.3145C46.0957 80.3145 44.2233 80.0435 42.4129 79.5036C42.1042 79.4117 41.8033 79.2907 41.4985 79.1824C41.1937 79.075 40.885 78.9821 40.5851 78.8582L30.4599 103.447L30.0631 104.411L29.7235 105.237L29.7216 105.24C29.7477 105.251 29.7748 105.26 29.8009 105.27C29.829 105.282 29.8561 105.291 29.8841 105.302H29.8851C29.8861 105.302 29.887 105.303 29.887 105.303C29.8938 105.306 29.9006 105.308 29.9064 105.311C30.1454 105.409 30.3863 105.493 30.6263 105.587C30.9272 105.704 31.2281 105.823 31.53 105.933C31.6839 105.989 31.8368 106.055 31.9906 106.109H31.9916C35.1635 107.23 38.4456 108.014 41.783 108.453C41.9136 108.468 42.0433 108.487 42.1739 108.505C42.3103 108.521 42.4477 108.534 42.5842 108.55C42.8416 108.579 43.098 108.609 43.3563 108.634C43.4202 108.639 43.4841 108.645 43.5479 108.65C43.8643 108.68 44.1808 108.707 44.4952 108.73C44.6026 108.737 44.711 108.742 44.8174 108.75C45.0952 108.768 45.3709 108.786 45.6477 108.798C45.817 108.808 45.9863 108.813 46.1566 108.819C46.3763 108.826 46.595 108.835 46.8166 108.842C47.133 108.85 47.4523 108.853 47.7706 108.854C47.8461 108.854 47.9206 108.856 47.9951 108.856C50.6609 108.856 53.3258 108.635 55.9616 108.193C56.0061 108.186 56.0496 108.178 56.0951 108.172C56.3738 108.124 56.6524 108.072 56.9311 108.02C57.0898 107.989 57.2495 107.959 57.4062 107.929C57.5688 107.895 57.7323 107.861 57.8949 107.826C58.1668 107.769 58.4377 107.71 58.7096 107.647C58.758 107.636 58.8073 107.627 58.8567 107.613C62.8636 106.679 66.7331 105.234 70.3685 103.321L70.3695 103.32C70.6075 103.194 70.8397 103.051 71.0768 102.922C71.3594 102.767 71.64 102.608 71.9206 102.447C72.1151 102.336 72.3115 102.233 72.5041 102.118L72.505 102.117C72.507 102.116 72.5089 102.114 72.5108 102.113C72.5108 102.113 72.5108 102.113 72.5118 102.113C72.5147 102.111 72.5176 102.11 72.5205 102.108C72.5224 102.107 72.5234 102.106 72.5244 102.105L72.4886 102.044L72.5244 102.105C72.5263 102.104 72.5282 102.103 72.5302 102.102C72.5331 102.101 72.536 102.1 72.5389 102.098C72.5495 102.091 72.5602 102.085 72.5708 102.078C72.6337 102.041 72.6966 102.003 72.7595 101.965L72.2641 101.138Z" fill="#93D500"/>
<path d="M35.6831 45.8052C35.9057 45.6252 36.1302 45.451 36.3576 45.2827L36.3073 45.1985L21.5984 20.7805C20.9153 21.2266 20.2399 21.6862 19.5809 22.17C18.1585 23.217 16.7816 24.354 15.4569 25.578L35.6038 45.7249L35.6831 45.8052Z" fill="#93D500"/>
<path d="M14.0596 26.9192C13.8302 27.1485 13.6135 27.3856 13.39 27.6178C13.1665 27.85 12.9391 28.0813 12.7204 28.3174C11.2322 29.9285 9.8717 31.616 8.64475 33.3684C8.58572 33.4506 8.5267 33.5368 8.46864 33.6209C8.33027 33.8222 8.19384 34.0235 8.05934 34.2257C7.91903 34.4357 7.77969 34.6486 7.64423 34.8605C7.59294 34.9379 7.54262 35.0163 7.49327 35.0937C2.85933 42.3634 0.376408 50.6085 0.0425779 58.9233C0.0299988 59.2455 0.023225 59.5687 0.0164516 59.8909C0.00967827 60.2132 0 60.5364 0 60.8586H28.5333C28.5333 60.5354 28.5633 60.2141 28.5797 59.8909C28.5962 59.5678 28.601 59.2446 28.6329 58.9233C29.0016 55.2077 30.4356 51.58 32.936 48.532C33.1392 48.2843 33.3685 48.0521 33.5862 47.8131C33.803 47.5741 34.0042 47.3254 34.2355 47.0951L14.0596 26.9192Z" fill="#4D5A31"/>
<path d="M72.9327 19.8373C72.894 19.8131 72.8533 19.7899 72.8146 19.7667C72.564 19.6128 72.3105 19.4648 72.057 19.3167C71.9099 19.2316 71.7628 19.1493 71.6148 19.0651C71.4658 18.9819 71.3187 18.8987 71.1687 18.8174C70.9113 18.6762 70.653 18.5368 70.3936 18.3994C70.353 18.3791 70.3133 18.3568 70.2717 18.3356C68.5987 17.4608 66.8802 16.6906 65.1259 16.022C65.0814 16.0036 65.0349 15.9862 64.9895 15.9697C64.6072 15.8265 64.2241 15.6843 63.838 15.5507C60.7213 14.4622 57.4981 13.6987 54.2237 13.2691C54.0901 13.2507 53.9556 13.2323 53.8221 13.2149C53.6876 13.1984 53.5541 13.1849 53.4205 13.1704C53.1622 13.1404 52.9048 13.1114 52.6455 13.0862C52.5739 13.0794 52.5013 13.0746 52.4287 13.0668C52.122 13.0388 51.8133 13.0117 51.5066 12.9894C51.3876 12.9807 51.2666 12.974 51.1476 12.9672C50.8844 12.9498 50.6183 12.9314 50.3551 12.9198C50.2138 12.912 50.0745 12.9082 49.9352 12.9033L49.9342 41.394V41.5053C51.4021 41.6572 52.8564 41.9698 54.2672 42.4487L75.3169 21.3991C74.536 20.8572 73.7455 20.3308 72.9327 19.8373Z" fill="#4D5A31"/>
<path d="M23.7348 20.5785L23.2355 19.7502L23.7348 20.5785Z" fill="#6BA43A"/>
<path d="M23.2327 19.7441L23.2357 19.7502L23.2327 19.7441Z" fill="#6BA43A"/>
<path d="M47.0323 12.88C46.7101 12.8867 46.3869 12.8877 46.0647 12.9003C44.0463 12.9815 42.0317 13.1877 40.0335 13.5225C39.99 13.5302 39.9464 13.537 39.9019 13.5447C39.6213 13.5931 39.3436 13.6444 39.0649 13.6966C38.9072 13.7266 38.7485 13.7557 38.5908 13.7876C38.4263 13.8205 38.2628 13.8544 38.0992 13.8902C37.8283 13.9463 37.5574 14.0053 37.2864 14.0682C37.2371 14.0788 37.1887 14.0904 37.1384 14.1011C33.1315 15.0358 29.26 16.4824 25.6256 18.3954H25.6246C25.3876 18.5212 25.1563 18.6634 24.9202 18.7931C24.6377 18.9479 24.3571 19.1076 24.0764 19.2682C23.8684 19.3882 23.6565 19.4985 23.4494 19.6224C23.4475 19.6233 23.4446 19.6253 23.4427 19.6262H23.4417C23.4272 19.6349 23.4127 19.6427 23.3981 19.6514C23.3439 19.6843 23.2878 19.7114 23.2336 19.7443L23.2365 19.7491L23.7358 20.5784L37.9647 44.2C38.2424 44.0326 38.5269 43.8807 38.8104 43.7287C39.0959 43.5749 39.3852 43.4307 39.6765 43.2923C41.7085 42.3247 43.8682 41.7248 46.0637 41.5023C46.386 41.4694 46.7082 41.4422 47.0314 41.4258C47.3536 41.4093 47.6758 41.3929 47.999 41.3929L48 12.8606C47.6768 12.8606 47.3546 12.8741 47.0323 12.88Z" fill="#6BA43A"/>
<path d="M95.9398 58.4996C95.9263 58.2432 95.9108 57.9877 95.8934 57.7303C95.8857 57.6026 95.8789 57.4759 95.8683 57.3462C95.847 57.0453 95.8218 56.7434 95.7938 56.4424C95.7879 56.3641 95.7802 56.2866 95.7734 56.2083C95.7405 55.8715 95.7047 55.5348 95.666 55.199C95.6622 55.1719 95.6592 55.1449 95.6563 55.1178C95.6544 55.1052 95.6534 55.0916 95.6515 55.079C95.607 54.7162 95.5586 54.3533 95.5073 53.9914C95.5064 53.9808 95.5054 53.9673 95.5025 53.9576C95.1745 51.6827 94.6829 49.4281 94.0278 47.2113C94.023 47.1958 94.0191 47.1823 94.0143 47.1687C93.9108 46.8243 93.8053 46.4817 93.6969 46.1402C93.6824 46.0956 93.6669 46.0502 93.6534 46.0047C93.5518 45.696 93.4492 45.3893 93.3428 45.0816C93.3128 44.9993 93.2837 44.9161 93.2547 44.8319C93.1608 44.5658 93.0641 44.3007 92.9654 44.0356C92.918 43.9088 92.8696 43.783 92.8202 43.6572C92.737 43.4376 92.6509 43.2179 92.5638 43.0012C92.4941 42.827 92.4245 42.6557 92.3529 42.4845C92.2832 42.3142 92.2116 42.1458 92.14 41.9755C92.0461 41.7588 91.9513 41.542 91.8555 41.3262C91.8013 41.2053 91.7471 41.0824 91.691 40.9605C91.573 40.7031 91.452 40.4457 91.3301 40.1893C91.2924 40.1118 91.2556 40.0325 91.2179 39.9551C91.0756 39.6619 90.9314 39.3687 90.7844 39.0784C90.7631 39.0388 90.7428 38.9981 90.7215 38.9575C90.557 38.6372 90.3886 38.316 90.2173 37.9995C90.2106 37.9889 90.2057 37.9763 90.1989 37.9657C89.3678 36.4368 88.4553 34.9583 87.4683 33.5359L66.4119 54.5933C66.8908 56.0051 67.2024 57.4584 67.3543 58.9254H67.4666H95.9573C95.9505 58.7812 95.9466 58.6399 95.9398 58.4996Z" fill="#4D5A31"/>
<path d="M67.4647 60.8586C67.4647 61.1818 67.4347 61.5031 67.4182 61.8263C67.4027 62.1495 67.3969 62.4726 67.365 62.7939C66.9963 66.5096 65.5623 70.1382 63.0629 73.1862C62.8597 73.4339 62.6304 73.6661 62.4127 73.9051C62.196 74.1441 61.9947 74.3928 61.7634 74.6231L81.9393 94.798C82.1687 94.5687 82.3844 94.3316 82.608 94.0984C82.8315 93.8652 83.0589 93.6349 83.2766 93.3988C84.7696 91.7819 86.134 90.0905 87.3638 88.3324C87.4132 88.2627 87.4596 88.194 87.507 88.1253C87.657 87.9095 87.8031 87.6918 87.9502 87.4741C88.0789 87.2796 88.2076 87.0851 88.3324 86.8887C88.3944 86.7948 88.4563 86.6971 88.5163 86.6032C93.1434 79.3373 95.6196 71.1009 95.9525 62.7929C95.965 62.4707 95.9718 62.1475 95.9786 61.8253C95.9854 61.5031 95.995 61.1809 95.995 60.8577H67.4647V60.8586Z" fill="#6BA43A"/>
<path d="M104.472 4.38522C99.2519 -0.835111 90.7881 -0.835111 85.5687 4.38522C81.4041 8.5489 80.5719 14.7736 83.052 19.7724L53.9352 48.8901C48.9365 46.411 42.7117 47.2422 38.5471 51.4059C33.3268 56.6262 33.3277 65.09 38.5471 70.3104C43.7684 75.5307 52.2322 75.5288 57.4525 70.3094C61.6162 66.1457 62.4474 59.921 59.9674 54.9213L89.0841 25.8045C94.0838 28.2836 100.308 27.4524 104.471 23.2877C109.692 18.0703 109.692 9.60554 104.472 4.38522Z" fill="#424143"/>
<path d="M228.91 104.76V88.937H231.686V104.76H228.91Z" fill="#6BA43A"/>
<path d="M252.844 104.76L244.588 93.4432V104.76H241.812V88.937H244.658L252.749 99.8963V88.937H255.523V104.76H252.844Z" fill="#6BA43A"/>
<path d="M265.651 104.76V88.937H268.427V104.76H265.651Z" fill="#6BA43A"/>
<path d="M282.327 104.76V91.3803H277.534V88.937H289.894V91.3803H285.103V104.76H282.327Z" fill="#6BA43A"/>
<path d="M299.001 104.76V88.937H301.777V104.76H299.001Z" fill="#6BA43A"/>
<path d="M323.007 104.76L321.843 101.699H314.585L313.422 104.76H310.266L316.482 88.937H319.944L326.16 104.76H323.007ZM318.215 91.7122L315.368 99.2557H321.061L318.215 91.7122Z" fill="#6BA43A"/>
<path d="M336.857 104.76V91.3803H332.065V88.937H344.425V91.3803H339.633V104.76H336.857Z" fill="#6BA43A"/>
<path d="M353.532 104.76V88.937H356.309V104.76H353.532Z" fill="#6BA43A"/>
<path d="M371.016 104.76L364.799 88.937H367.954L372.747 101.723L377.539 88.937H380.693L374.479 104.76H371.016Z" fill="#6BA43A"/>
<path d="M389.159 104.76V88.937H400V91.3803H391.934V95.4598H399.833V97.903H391.934V102.315H400V104.76H389.159Z" fill="#6BA43A"/>
<path d="M110.678 50.5244C110.678 36.22 121.139 25.9719 135.515 25.9719C149.818 25.9719 160.28 36.22 160.28 50.5244C160.28 64.8278 149.819 75.0778 135.515 75.0778C121.14 75.0778 110.678 64.8288 110.678 50.5244ZM149.891 50.5244C149.891 41.6281 144.269 34.9389 135.516 34.9389C126.69 34.9389 121.068 41.6281 121.068 50.5244C121.068 59.3482 126.69 66.1099 135.516 66.1099C144.269 66.1099 149.891 59.3491 149.891 50.5244Z" fill="#424143"/>
<path d="M165.613 74.2226V26.7549H187.818C198.135 26.7549 203.758 33.7285 203.758 42.0549C203.758 50.3097 198.064 57.2853 187.818 57.2853H175.718V74.2226H165.613ZM193.439 42.0559C193.439 38.0703 190.38 35.6512 186.393 35.6512H175.719V48.39H186.393C190.38 48.389 193.439 45.9699 193.439 42.0559Z" fill="#424143"/>
<path d="M208.309 74.2226V26.7549H241.9V35.6502H218.416V45.6139H241.403V54.5102H218.416V65.3272H241.9V74.2236H208.309V74.2226Z" fill="#424143"/>
<path d="M280.752 74.2226L258.123 43.2654V74.2226H248.016V26.7549H258.407L280.397 56.5741V26.7549H290.503V74.2226H280.752Z" fill="#424143"/>
<path d="M333.111 74.2226L330.121 66.1807H309.769L306.78 74.2226H295.321L313.611 26.7549H326.281L344.568 74.2226H333.111ZM319.944 36.8607L312.544 57.2853H327.348L319.944 36.8607Z" fill="#424143"/>
<path d="M347.198 74.2226V26.7549H369.402C379.72 26.7549 385.343 33.7285 385.343 42.0549C385.343 50.3097 379.647 57.2853 369.402 57.2853H357.303V74.2226H347.198ZM375.024 42.0559C375.024 38.0703 371.964 35.6512 367.978 35.6512H357.303V48.39H367.978C371.964 48.389 375.024 45.9699 375.024 42.0559Z" fill="#424143"/>
<path d="M389.893 74.2226V26.7549H400V74.2226H389.893Z" fill="#424143"/>
</svg>
