<svg viewBox="0 0 54 55" fill="none" xmlns="http://www.w3.org/2000/svg">
  <path opacity=".2" d="M36.233 11.789l15.425 7.034c1.09.496 2.332 1.461 2.334 3.005.004 1.546-1.235 2.514-2.322 3.01l-5.229 2.385 5.226 2.344c1.089.495 2.335 1.462 2.332 3.013-.004 1.547-1.25 2.51-2.342 3.004l-.003.001-5.031 2.295 5.062 2.437c1.085.498 2.315 1.462 2.315 3 0 1.547-1.243 2.513-2.332 3.008L36.381 53.3c-1.149.523-2.555.745-3.867.745-1.312 0-2.716-.221-3.865-.744L13.36 46.326c-1.089-.496-2.332-1.462-2.332-3.009s1.243-2.513 2.332-3.008l.008-.003 5.209-2.338-5.227-2.384c-1.089-.495-2.332-1.462-2.332-3.008 0-1.547 1.243-2.514 2.332-3.009l.007-.003 5.222-2.344-5.219-2.38c-1.088-.496-2.332-1.462-2.332-3.009 0-1.546 1.243-2.512 2.331-3.007l15.417-7.035c1.112-.509 2.466-.723 3.728-.723s2.616.214 3.728.723z" fill="#06F"/>
  <path fill-rule="evenodd" clip-rule="evenodd" d="M35.176 31.06a1.653 1.653 0 012.206-.772l8.243 3.967c1.085.498 2.315 1.462 2.315 3 0 1.547-1.243 2.513-2.332 3.008l-15.287 6.974c-1.15.523-2.555.745-3.867.745-1.312 0-2.716-.221-3.865-.744L7.3 40.264c-1.089-.496-2.332-1.462-2.332-3.009s1.243-2.513 2.332-3.008l.008-.003 8.543-3.835a1.653 1.653 0 111.353 3.017l-8.532 3.83 15.286 6.972c.595.272 1.499.448 2.495.448.997 0 1.9-.176 2.496-.448l15.286-6.973-.03-.013-8.257-3.975a1.653 1.653 0 01-.773-2.207z" fill="#003380"/>
  <path fill-rule="evenodd" clip-rule="evenodd" d="M34.854 20.494a1.653 1.653 0 012.184-.832l8.57 3.843c1.088.495 2.334 1.462 2.33 3.013-.003 1.547-1.25 2.51-2.341 3.004l-.003.002-15.284 6.97c-1.149.525-2.554.746-3.866.746-1.312 0-2.717-.221-3.866-.745L7.29 29.522c-1.089-.495-2.332-1.462-2.332-3.008 0-1.547 1.243-2.513 2.332-3.009l.007-.003 8.554-3.84a1.653 1.653 0 111.353 3.017l-8.542 3.835 15.286 6.972c.596.272 1.5.448 2.495.448.996 0 1.9-.176 2.495-.448l15.292-6.975-8.545-3.832a1.653 1.653 0 01-.832-2.184z" fill="#06F"/>
  <path fill-rule="evenodd" clip-rule="evenodd" d="M6.799 12.238c-1.12.499-2.387 1.876-2.39 3.437 0 1.56 1.275 2.535 2.392 3.035l15.68 7.034c1.178.528 2.62.751 3.965.751 1.345 0 2.787-.224 3.966-.751l15.68-7.035c1.117-.5 2.391-1.474 2.391-3.034 0-1.56-1.277-2.937-2.394-3.437l-15.68-7.033c-1.178-.529-2.62-.752-3.965-.752-1.346 0-2.787.224-3.966.752L6.802 12.237l-.003.001zM29.003 8.24l15.693 7.435-15.69 7.034c-.611.274-1.538.451-2.56.451s-1.949-.177-2.56-.451L8.208 15.675 23.884 8.24c.611-.274 1.538-.452 2.56-.452 1.021 0 1.948.178 2.559.452z" fill="#00C05B"/>
</svg>
