<svg viewBox="0 0 54 54" fill="none" xmlns="http://www.w3.org/2000/svg">
  <path opacity=".2" d="M49.597 11.105v-.008a1.986 1.986 0 00-1.473-1.49c-2.902-.708-7.466.047-12.523 2.072-5.098 2.044-9.874 5.062-13.102 8.296a31.216 31.216 0 00-2.877 3.294c-2.174-.097-4.09.212-5.702.916-5.622 2.474-7.227 8.805-7.654 11.404a2.434 2.434 0 002.647 2.824h.012l6.262-.684.024.22c.08.763.42 1.475.963 2.017l3.056 3.058a3.336 3.336 0 002.017.965l.209.023-.681 6.254v.012a2.435 2.435 0 002.395 2.684c.136 0 .27-.01.404-.033 2.614-.42 8.943-2.006 11.41-7.658.698-1.602 1.006-3.51.92-5.68a30.646 30.646 0 003.305-2.876c3.254-3.238 6.282-7.976 8.305-13 2.014-5 2.773-9.598 2.083-12.61z" fill="#50FF8F"/>
  <path opacity=".2" d="M18.879 43.853a1.558 1.558 0 00-1.071.26c-.622.425-1.247.846-1.878 1.256-1.277.83-2.803-.627-2.045-1.947l1.183-2.045a1.558 1.558 0 00-1.476-2.425 5.963 5.963 0 00-3.469 1.7c-.356.357-1.44 1.442-2.023 5.575a34.843 34.843 0 00-.313 3.58 1.558 1.558 0 001.558 1.597h.039a35.024 35.024 0 003.582-.312c4.135-.584 5.22-1.668 5.576-2.024a5.89 5.89 0 001.693-3.48 1.558 1.558 0 00-1.356-1.735z" fill="#50FF8F"/>
  <path fill-rule="evenodd" clip-rule="evenodd" d="M40.328 1.373c2.092-.371 4.093-.453 5.718-.055a1.986 1.986 0 011.472 1.505c.381 1.672.302 3.689-.07 5.794-.377 2.132-1.073 4.46-2.015 6.797-1.877 4.657-4.79 9.495-8.3 12.987a30.165 30.165 0 01-3.31 2.877c.078 1.911-.14 3.89-.92 5.677-1.262 2.887-3.537 4.701-5.727 5.827-2.184 1.123-4.38 1.614-5.683 1.823a2.433 2.433 0 01-2.808-2.648l.001-.013.687-6.252c-.07-.007.069.007 0 0-.765-.08-1.687-.443-2.228-.989l.002.003-.006-.006-3.043-3.043-.007-.007.003.003c-.546-.541-.888-1.496-.967-2.26l-6.291.71a2.434 2.434 0 01-2.65-2.812v-.003c.214-1.298.707-3.49 1.83-5.672 1.128-2.189 2.94-4.461 5.825-5.73l.004-.002c1.788-.78 3.777-.997 5.7-.913a30.255 30.255 0 012.875-3.298l-.002.003.004-.005-.002.002c3.503-3.499 8.413-6.41 13.1-8.286 2.353-.942 4.69-1.638 6.808-2.014zm-5.65 4.906c-4.408 1.764-8.928 4.472-12.058 7.6l-.004.004a27.157 27.157 0 00-3.047 3.599c-.32.453-.859.701-1.412.652-1.896-.172-3.65-.011-5.064.605-2.03.893-3.39 2.523-4.306 4.303-.706 1.37-1.119 2.775-1.356 3.862l6.969-.765a1.558 1.558 0 011.727 1.534c.005.548.04 1.095.1 1.64l3.13 3.197a.21.21 0 00.128.06l.017.002c.536.06 1.074.093 1.614.098a1.558 1.558 0 011.533 1.728l-.765 6.964c1.087-.234 2.495-.645 3.868-1.35 1.781-.916 3.41-2.275 4.296-4.302.618-1.418.778-3.165.616-5.055a1.557 1.557 0 01.654-1.407 27.056 27.056 0 003.608-3.046l.006-.007c3.145-3.127 5.852-7.579 7.612-11.945.877-2.176 1.504-4.294 1.836-6.175.27-1.524.333-2.828.218-3.854-.967-.109-2.226-.047-3.725.22-1.87.331-4 .96-6.195 1.838zm-1.625 6.906a2.599 2.599 0 00-.994 5.002 2.595 2.595 0 002.83-.563 2.605 2.605 0 00.565-2.834 2.6 2.6 0 00-2.401-1.605zm-4.042 6.64a5.714 5.714 0 118.083-8.08 5.714 5.714 0 01-8.083 8.08z" fill="#00C05B"/>
  <path fill-rule="evenodd" clip-rule="evenodd" d="M13.258 32.003a1.558 1.558 0 01-1.357 1.736 2.829 2.829 0 00-1.654.806l.002-.003c-.15.15-.391.564-.63 1.347-.224.731-.391 1.601-.513 2.465a30.29 30.29 0 00-.173 1.52 30.31 30.31 0 001.521-.174c.864-.121 1.734-.289 2.465-.513.782-.239 1.194-.48 1.342-.63l.003-.002a2.796 2.796 0 00.804-1.649 1.558 1.558 0 013.093.371 5.912 5.912 0 01-1.699 3.486c-.71.708-1.737 1.13-2.632 1.404-.948.29-1.995.485-2.94.618a35.005 35.005 0 01-3.574.31L5.71 41.492s.033-.754.055-1.08c.044-.65.121-1.54.255-2.492.134-.946.329-1.992.618-2.94.274-.897.696-1.925 1.404-2.636l.002-.003a5.945 5.945 0 013.477-1.694 1.558 1.558 0 011.736 1.357zM5.71 41.49c-.01.427.154.847.456 1.15.301.301.722.466 1.149.455L5.71 41.49z" fill="#DB210F"/>
</svg>
