<svg viewBox="0 0 49 55" fill="none" xmlns="http://www.w3.org/2000/svg">
<g opacity="0.2">
<path d="M17.2289 6.52429C13.3108 6.52429 10.1346 9.90901 10.1346 14.0843V46.4842C10.1346 50.6595 13.3108 54.0442 17.2289 54.0442C21.1469 54.0442 24.3231 50.6595 24.3231 46.4842V14.0843C24.3231 9.90901 21.1469 6.52429 17.2289 6.52429Z" fill="#C98BFF"/>
<path d="M35.4711 6.52429C31.5531 6.52429 28.3769 9.90901 28.3769 14.0843V46.4842C28.3769 50.6595 31.5531 54.0442 35.4711 54.0442C39.3891 54.0442 42.5653 50.6595 42.5653 46.4842V14.0843C42.5653 9.90901 39.3891 6.52429 35.4711 6.52429Z" fill="#C98BFF"/>
</g>
<path fill-rule="evenodd" clip-rule="evenodd" d="M28.4382 2.13708C29.0319 2.76973 29.0319 3.79546 28.4382 4.4281L24.9521 8.14311H30.7837C32.6988 8.14311 34.5354 8.95383 35.8896 10.3969C37.2438 11.84 38.0046 13.7973 38.0046 15.8381V35.889C40.6272 36.6084 42.5651 39.1455 42.5651 42.1649C42.5651 45.7437 39.8426 48.6448 36.4843 48.6448C33.126 48.6448 30.4036 45.7437 30.4036 42.1649C30.4036 39.1454 32.3415 36.6083 34.9642 35.889V15.8381C34.9642 14.6565 34.5238 13.5234 33.7398 12.6879C32.9558 11.8525 31.8924 11.3831 30.7837 11.3831H24.9531L28.4382 15.097C29.0319 15.7297 29.0319 16.7554 28.4382 17.3881C27.8445 18.0207 26.882 18.0207 26.2883 17.3881L20.2076 10.9081C19.6139 10.2754 19.6139 9.24971 20.2076 8.61707L26.2883 2.13708C26.882 1.50444 27.8445 1.50444 28.4382 2.13708ZM36.4843 38.9249C34.8052 38.9249 33.444 40.3755 33.444 42.1649C33.444 43.9543 34.8052 45.4049 36.4843 45.4049C38.1635 45.4049 39.5247 43.9543 39.5247 42.1649C39.5247 40.3755 38.1635 38.9249 36.4843 38.9249Z" fill="#552C78"/>
<path fill-rule="evenodd" clip-rule="evenodd" d="M13.6816 16.0405C16.3043 15.3211 18.2421 12.7841 18.2421 9.76468C18.2421 6.18589 15.5197 3.2847 12.1614 3.2847C8.80307 3.2847 6.08063 6.18589 6.08063 9.76468C6.08063 12.7841 8.01855 15.3212 10.6413 16.0405V35.889C8.01855 36.6083 6.08063 39.1454 6.08063 42.1649C6.08063 45.7437 8.80307 48.6448 12.1614 48.6448C15.5197 48.6448 18.2421 45.7437 18.2421 42.1649C18.2421 39.1455 16.3043 36.6084 13.6816 35.8891V16.0405ZM12.2292 13.0039C12.2067 13.0028 12.1841 13.0023 12.1614 13.0023C12.1387 13.0023 12.1161 13.0028 12.0937 13.0039C10.4458 12.9655 9.121 11.53 9.121 9.76468C9.121 7.97529 10.4822 6.52469 12.1614 6.52469C13.8405 6.52469 15.2018 7.97529 15.2018 9.76468C15.2018 11.5299 13.877 12.9655 12.2292 13.0039ZM9.121 42.1649C9.121 40.3755 10.4822 38.9249 12.1614 38.9249C13.8405 38.9249 15.2018 40.3755 15.2018 42.1649C15.2018 43.9543 13.8405 45.4049 12.1614 45.4049C10.4822 45.4049 9.121 43.9543 9.121 42.1649Z" fill="#552C78"/>
</svg>
