<svg width="177" height="26" viewBox="0 0 177 26" fill="none" xmlns="http://www.w3.org/2000/svg">
<path d="M110.53 22.2864C113.813 22.2864 114.828 20.0248 115.515 17.3005H113.975C111.843 17.3005 108.303 17.6633 108.303 20.5141C108.303 21.6955 109.415 22.2864 110.53 22.2864ZM114.828 22.5155H114.761C113.254 24.4175 111.746 25.5 109.317 25.5C106.27 25.5 104.105 23.7941 104.105 20.6809C104.105 15.1061 110.335 14.6789 114.467 14.6789H116.007C116.14 14.2186 116.14 13.7269 116.14 13.2372C116.14 11.5314 114.303 11.0398 112.761 11.0398C110.827 11.0398 108.958 11.5314 107.22 12.3512L107.844 8.84226C109.711 8.18725 111.614 7.82615 113.582 7.82615C116.958 7.82615 120.14 9.07312 120.14 13.0391C120.14 15.3025 118.467 21.925 118.072 25.1072H114.369L114.828 22.5155Z" fill="#6D6D7F"/>
<path d="M0.923717 8.20442H4.10397L4.85785 4.72996L9.58036 3.18748L8.49814 8.20442H12.432L11.7439 11.418H7.8092L6.20229 18.7963C6.10423 19.1902 6.00623 19.7793 6.00623 20.4343C6.00623 21.4504 6.69481 22.0741 7.67728 22.0741C8.46589 22.0741 9.25202 21.9107 9.80896 21.6813L9.05589 25.0916C8.3015 25.2546 7.44985 25.4857 6.69481 25.4857C3.71121 25.4857 1.61176 24.304 1.61176 21.0562C1.61176 19.746 1.87426 18.4677 2.16869 17.1246L3.41536 11.418H0.235107L0.923717 8.20442Z" fill="#6D6D7F"/>
<path d="M15.8437 0.923855H20.2378L19.3198 5.12279H14.9254L15.8437 0.923855ZM14.2367 8.20447H18.6312L15.0236 25.0916H10.6287L14.2367 8.20447Z" fill="#6D6D7F"/>
<path d="M31.8989 12.0733C31.047 11.5157 29.8994 11.2216 28.6853 11.2216C25.1776 11.2216 23.2104 14.4999 23.2104 17.6811C23.2104 19.8765 23.9306 22.0741 26.9481 22.0741C28.0309 22.0741 29.3756 21.7791 30.5223 21.221L30.0298 24.6988C28.6853 25.3538 27.2425 25.4857 25.7997 25.4857C21.4392 25.4857 18.6201 22.5671 18.6201 18.2055C18.6201 12.3041 22.5214 7.81194 28.5867 7.81194C30.2276 7.81194 31.8008 8.10723 32.9811 8.46658L31.8989 12.0733Z" fill="#6D6D7F"/>
<path d="M36.718 0.500072H41.1121L38.1927 14.3367H38.2605L44.3919 8.20447H50.0965L41.9989 15.9103L47.0794 25.0916H42.1285L37.7663 16.1399H37.7022L35.8 25.0916H31.5046L36.718 0.500072Z" fill="#6D6D7F"/>
<path d="M65.9352 8.20442H69.1154L69.8693 4.72996L74.5917 3.18748L73.5097 8.20442H77.4447L76.7552 11.418H72.8209L71.2137 18.7963C71.1155 19.1902 71.0183 19.7793 71.0183 20.4343C71.0183 21.4504 71.706 22.0741 72.6903 22.0741C73.4768 22.0741 74.2634 21.9107 74.8201 21.6813L74.0679 25.0916C73.3127 25.2546 72.4604 25.4857 71.706 25.4857C68.7224 25.4857 66.6232 24.304 66.6232 21.0562C66.6232 19.746 66.8855 18.4677 67.1815 17.1246L68.4263 11.418H65.2466L65.9352 8.20442Z" fill="#6D6D7F"/>
<path d="M64.4653 14.2377C64.4653 9.94362 61.7115 7.81194 57.5473 7.81194C52.0059 7.81194 47.9387 12.8616 47.9387 18.1066C47.9387 23.1235 51.2181 25.4857 56.0724 25.4857C57.8748 25.4857 59.7443 25.0588 61.4493 24.5337L62.0062 21.0562C60.367 21.8132 58.6281 22.2721 56.8248 22.2721C54.015 22.2721 52.3727 21.2729 52.1625 18.6187H52.159C52.1513 18.4649 52.1362 18.3137 52.1362 18.1522C52.1362 18.1208 52.1377 18.0892 52.1377 18.0581C52.1377 18.0401 52.1362 18.0268 52.1362 18.0088H52.1393C52.159 16.8531 52.4127 15.7127 52.8542 14.6587C53.6987 12.5102 54.8912 11.0255 57.4815 11.0255C59.3165 11.0255 60.2687 12.0402 60.2687 13.8449C60.2687 14.2377 60.235 14.5988 60.1707 14.9916H54.1578C53.7677 16.319 53.7001 17.2079 53.6922 18.0088H64.0384C64.3009 16.7619 64.4653 15.5163 64.4653 14.2377Z" fill="#6D6D7F"/>
<path d="M79.3402 10.0739C79.4701 9.41861 79.6022 8.73084 79.7 8.20447H83.7999L83.4059 10.4666H83.4715C84.6521 8.73084 86.5857 7.81199 88.6513 7.81199C90.652 7.81199 92.7177 8.99169 92.9475 11.0256H93.0132C94.1288 8.82803 96.5885 7.81199 98.9475 7.81199C101.471 7.81199 103.638 9.8772 103.638 12.4344C103.638 13.9422 103.241 15.648 102.882 17.0241L101.112 25.0916H96.7169L98.4885 16.8608C98.7183 15.8444 99.046 14.2691 99.046 13.2545C99.046 12.0075 98.0959 11.2217 96.981 11.2217C93.9304 11.2217 93.1766 14.7639 92.6184 17.0586L90.8819 25.0916H86.4879L88.2588 16.8608C88.4893 15.8444 88.8162 14.2691 88.8162 13.2545C88.8162 12.0075 87.864 11.2217 86.7491 11.2217C83.7663 11.2217 82.9462 14.7953 82.3894 17.0586L80.6507 25.0916H76.2582L79.3402 10.0739Z" fill="#6D6D7F"/>
<path d="M133.189 11.6429C132.718 11.3852 131.505 11.0255 130.26 11.0255C128.947 11.0255 127.308 11.3852 127.308 12.7283C127.308 14.861 133.013 15.648 133.013 19.7793C133.013 24.1747 129.178 25.4857 125.408 25.4857C123.636 25.4857 121.864 25.2236 120.259 24.4679L121.211 20.9602C122.455 21.6471 123.702 22.2721 125.408 22.2721C126.881 22.2721 128.424 21.7791 128.424 20.403C128.424 17.6811 122.718 17.4168 122.718 13.1882C122.718 9.2225 126.555 7.81194 130.029 7.81194C131.637 7.81194 133.278 8.10723 134.142 8.33181L133.189 11.6429Z" fill="#6D6D7F"/>
<path d="M135.998 8.20442H139.179L139.933 4.72996L144.653 3.18748L143.572 8.20442H147.507L146.819 11.418H142.882L141.275 18.7963C141.178 19.1902 141.079 19.7793 141.079 20.4343C141.079 21.4504 141.769 22.0741 142.752 22.0741C143.539 22.0741 144.326 21.9107 144.883 21.6813L144.128 25.0916C143.374 25.2546 142.523 25.4857 141.769 25.4857C138.784 25.4857 136.686 24.304 136.686 21.0562C136.686 19.746 136.95 18.4677 137.244 17.1246L138.49 11.418H135.308L135.998 8.20442Z" fill="#6D6D7F"/>
<path d="M165.787 10.4666C165.917 9.74666 166.049 8.99169 166.181 8.20447H170.378L169.787 11.3852H169.854C170.642 9.54915 172.804 7.81199 174.837 7.81199C175.395 7.81199 175.984 7.84329 176.509 7.97499L175.592 12.2697C175.101 12.1061 174.475 12.0075 173.919 12.0075C170.802 12.0075 169.295 14.7953 168.739 17.5172L167.164 25.0916H162.771L165.787 10.4666Z" fill="#6D6D7F"/>
<path d="M162.738 14.2377C162.738 9.94362 159.984 7.81194 155.819 7.81194C150.279 7.81194 146.211 12.8616 146.211 18.1066C146.211 23.1235 149.49 25.4857 154.344 25.4857C156.146 25.4857 158.016 25.0588 159.722 24.5337L160.278 21.0562C158.639 21.8132 156.902 22.2721 155.098 22.2721C152.286 22.2721 150.646 21.2729 150.433 18.6187H150.43C150.424 18.4649 150.408 18.3137 150.408 18.1522C150.408 18.1208 150.411 18.0892 150.411 18.0581C150.411 18.0401 150.408 18.0268 150.408 18.0088H150.411C150.43 16.8531 150.684 15.7127 151.126 14.6587C151.969 12.5102 153.163 11.0255 155.753 11.0255C157.589 11.0255 158.541 12.0402 158.541 13.8449C158.541 14.2377 158.507 14.5988 158.443 14.9916H152.431C152.038 16.319 151.972 17.2079 151.963 18.0088H162.311C162.574 16.7619 162.738 15.5163 162.738 14.2377Z" fill="#6D6D7F"/>
</svg>
