<svg viewBox="0 0 400 173" fill="none" xmlns="http://www.w3.org/2000/svg">
<path d="M200.116 76.1596C205.1 76.1596 209.076 77.2516 212.044 79.4356C215.012 81.6196 217.14 84.4476 218.428 87.9196L209.944 91.2796C209.216 88.7036 208.04 86.7436 206.416 85.3996C204.848 83.9996 202.776 83.2996 200.2 83.2996C196.448 83.2996 193.508 84.5876 191.38 87.1636C189.308 89.6836 188.272 93.3236 188.272 98.0836C188.272 102.788 189.336 106.4 191.464 108.92C193.592 111.44 196.504 112.7 200.2 112.7C203.112 112.7 205.408 112 207.088 110.6C208.824 109.2 209.972 107.184 210.532 104.552L218.68 107.324C217.504 111.132 215.348 114.184 212.212 116.48C209.076 118.72 205.128 119.84 200.368 119.84C196.224 119.84 192.556 118.972 189.364 117.236C186.228 115.5 183.764 113.008 181.972 109.76C180.18 106.456 179.284 102.536 179.284 97.9996C179.284 93.4636 180.18 89.5716 181.972 86.3236C183.764 83.0196 186.228 80.4996 189.364 78.7636C192.5 77.0276 196.084 76.1596 200.116 76.1596Z" fill="#14D4AC"/>
<path d="M222.42 119V58.0996H231.408V83.7196C232.808 81.0876 234.684 79.1836 237.036 78.0076C239.444 76.7756 242.104 76.1596 245.016 76.1596C247.984 76.1596 250.644 76.7476 252.996 77.9236C255.404 79.0436 257.308 80.7796 258.708 83.1316C260.108 85.4276 260.808 88.3116 260.808 91.7836V119H251.82V94.6396C251.82 90.4396 250.952 87.5556 249.216 85.9876C247.536 84.3636 245.408 83.5516 242.832 83.5516C240.984 83.5516 239.192 83.9996 237.456 84.8956C235.72 85.7356 234.264 87.1356 233.088 89.0956C231.968 90.9996 231.408 93.5756 231.408 96.8236V119H222.42Z" fill="#14D4AC"/>
<path d="M272.244 69.9436C270.284 69.9436 268.772 69.4676 267.708 68.5156C266.7 67.5076 266.196 66.1076 266.196 64.3156C266.196 62.5236 266.7 61.1516 267.708 60.1996C268.772 59.2476 270.284 58.7716 272.244 58.7716C274.148 58.7716 275.604 59.2476 276.612 60.1996C277.676 61.1516 278.208 62.5236 278.208 64.3156C278.208 66.1076 277.676 67.5076 276.612 68.5156C275.604 69.4676 274.148 69.9436 272.244 69.9436ZM276.696 76.9996V119H267.708V76.9996H276.696Z" fill="#14D4AC"/>
<path d="M302.519 119.84C298.319 119.84 294.623 118.972 291.431 117.236C288.295 115.5 285.831 113.008 284.039 109.76C282.247 106.456 281.351 102.536 281.351 97.9996C281.351 93.4636 282.219 89.5716 283.955 86.3236C285.747 83.0196 288.183 80.4996 291.263 78.7636C294.399 77.0276 297.983 76.1596 302.015 76.1596C306.103 76.1596 309.575 76.9996 312.431 78.6796C315.287 80.3596 317.471 82.6556 318.983 85.5676C320.495 88.4796 321.251 91.7836 321.251 95.4796C321.251 96.5436 321.223 97.5236 321.167 98.4196C321.111 99.3156 321.027 100.072 320.915 100.688H290.171C290.563 104.608 291.823 107.604 293.951 109.676C296.135 111.692 298.935 112.7 302.351 112.7C305.151 112.7 307.419 112.168 309.155 111.104C310.891 110.04 312.263 108.556 313.271 106.652L320.411 110.012C318.955 113.092 316.631 115.5 313.439 117.236C310.303 118.972 306.663 119.84 302.519 119.84ZM301.847 83.2996C298.767 83.2996 296.219 84.1956 294.203 85.9876C292.243 87.7796 290.983 90.3836 290.423 93.7996H312.515C312.291 90.4396 311.227 87.8636 309.323 86.0716C307.419 84.2236 304.927 83.2996 301.847 83.2996Z" fill="#14D4AC"/>
<path d="M352.287 76.9996H361.695L344.979 119H335.151L318.351 76.9996H328.263L340.107 111.188L352.287 76.9996Z" fill="#14D4AC"/>
<path d="M380.872 119.84C376.672 119.84 372.976 118.972 369.784 117.236C366.648 115.5 364.184 113.008 362.392 109.76C360.6 106.456 359.704 102.536 359.704 97.9996C359.704 93.4636 360.572 89.5716 362.308 86.3236C364.1 83.0196 366.536 80.4996 369.616 78.7636C372.752 77.0276 376.336 76.1596 380.368 76.1596C384.456 76.1596 387.928 76.9996 390.784 78.6796C393.64 80.3596 395.824 82.6556 397.336 85.5676C398.848 88.4796 399.604 91.7836 399.604 95.4796C399.604 96.5436 399.576 97.5236 399.52 98.4196C399.464 99.3156 399.38 100.072 399.268 100.688H368.524C368.916 104.608 370.176 107.604 372.304 109.676C374.488 111.692 377.288 112.7 380.704 112.7C383.504 112.7 385.772 112.168 387.508 111.104C389.244 110.04 390.616 108.556 391.624 106.652L398.764 110.012C397.308 113.092 394.984 115.5 391.792 117.236C388.656 118.972 385.016 119.84 380.872 119.84ZM380.2 83.2996C377.12 83.2996 374.572 84.1956 372.556 85.9876C370.596 87.7796 369.336 90.3836 368.776 93.7996H390.868C390.644 90.4396 389.58 87.8636 387.676 86.0716C385.772 84.2236 383.28 83.2996 380.2 83.2996Z" fill="#14D4AC"/>
<path d="M125.986 13.6992C125.986 13.6992 134.157 27.904 134.157 27.9418L117.784 27.9378C117.784 27.9378 125.786 14.071 125.986 13.6992Z" fill="#FBDC64"/>
<path d="M125.986 41.5383C125.986 41.5383 134.157 55.7431 134.157 55.7809L117.784 55.7769C117.784 55.7769 125.786 41.9101 125.986 41.5383Z" fill="#FBDC64"/>
<path d="M125.986 67.3889C125.986 67.3889 134.157 81.5937 134.157 81.6315L117.784 81.6275C117.784 81.6275 125.786 67.7606 125.986 67.3889Z" fill="#FBDC64"/>
<path d="M125.986 94.2337C125.986 94.2337 134.157 108.439 134.157 108.476L117.784 108.472C117.784 108.472 125.786 94.6055 125.986 94.2337Z" fill="#FBDC64"/>
<path d="M55.745 135.321C55.745 135.283 47.5742 121.079 47.5742 121.079C47.3737 121.45 39.3718 135.317 39.3718 135.317L55.745 135.321Z" fill="#FBDC64"/>
<path d="M73.3807 121.079C73.3807 121.079 81.5514 135.283 81.5514 135.321L65.1782 135.317C65.1782 135.317 73.1802 121.45 73.3807 121.079Z" fill="#FBDC64"/>
<path d="M100.18 121.079C100.18 121.079 108.35 135.283 108.35 135.321L91.9772 135.317C91.9772 135.317 99.9792 121.45 100.18 121.079Z" fill="#FBDC64"/>
<path d="M108.35 108.476C108.35 108.439 100.18 94.2337 100.18 94.2337C99.9792 94.6055 91.9772 108.472 91.9772 108.472L108.35 108.476Z" fill="#FBDC64"/>
<path d="M73.3807 94.2337C73.3807 94.2337 81.5514 108.439 81.5514 108.476L65.1782 108.472C65.1782 108.472 73.1802 94.6055 73.3807 94.2337Z" fill="#FBDC64"/>
<path d="M55.745 108.476C55.745 108.439 47.5742 94.2337 47.5742 94.2337C47.3737 94.6055 39.3718 108.472 39.3718 108.472L55.745 108.476Z" fill="#FBDC64"/>
<path d="M108.35 81.6315C108.35 81.5937 100.18 67.3889 100.18 67.3889C99.9792 67.7606 91.9772 81.6275 91.9772 81.6275L108.35 81.6315Z" fill="#FBDC64"/>
<path d="M73.3807 67.3889C73.3807 67.3889 81.5514 81.5937 81.5514 81.6315L65.1782 81.6275C65.1782 81.6275 73.1802 67.7606 73.3807 67.3889Z" fill="#FBDC64"/>
<path d="M55.745 81.6315C55.745 81.5937 47.5742 67.3889 47.5742 67.3889C47.3737 67.7606 39.3718 81.6275 39.3718 81.6275L55.745 81.6315Z" fill="#FBDC64"/>
<path d="M108.35 55.7809C108.35 55.7431 100.18 41.5383 100.18 41.5383C99.9792 41.9101 91.9772 55.7769 91.9772 55.7769L108.35 55.7809Z" fill="#FBDC64"/>
<path d="M73.3807 41.5383C73.3807 41.5383 81.5514 55.7431 81.5514 55.7809L65.1782 55.7769C65.1782 55.7769 73.1802 41.9101 73.3807 41.5383Z" fill="#FBDC64"/>
<path d="M55.745 55.7809C55.745 55.7431 47.5742 41.5383 47.5742 41.5383C47.3737 41.9101 39.3718 55.7769 39.3718 55.7769L55.745 55.7809Z" fill="#FBDC64"/>
<path d="M108.35 27.9418C108.35 27.904 100.18 13.6992 100.18 13.6992C99.9792 14.071 91.9772 27.9378 91.9772 27.9378L108.35 27.9418Z" fill="#FBDC64"/>
<path d="M73.3807 13.6992C73.3807 13.6992 81.5514 27.904 81.5514 27.9418L65.1782 27.9378C65.1782 27.9378 73.1802 14.071 73.3807 13.6992Z" fill="#FBDC64"/>
<path d="M108.35 163.16C108.35 163.122 100.18 148.918 100.18 148.918C99.9792 149.289 91.9772 163.156 91.9772 163.156L108.35 163.16Z" fill="#FBDC64"/>
<path d="M73.3807 148.918C73.3807 148.918 81.5514 163.122 81.5514 163.16L65.1782 163.156C65.1782 163.156 73.1802 149.289 73.3807 148.918Z" fill="#FBDC64"/>
<path d="M55.745 27.9418C55.745 27.904 47.5742 13.6992 47.5742 13.6992C47.3737 14.071 39.3718 27.9378 39.3718 27.9378L55.745 27.9418Z" fill="#FBDC64"/>
<path d="M125.986 121.079C125.986 121.079 134.157 135.283 134.157 135.321L117.784 135.317C117.784 135.317 125.786 121.45 125.986 121.079Z" fill="#FBDC64"/>
<path d="M159.963 108.476C159.963 108.439 151.793 94.2337 151.793 94.2337C151.592 94.6055 143.59 108.472 143.59 108.472L159.963 108.476Z" fill="#FBDC64"/>
<path d="M151.793 67.3889C151.793 67.3889 159.963 81.5937 159.963 81.6315L143.59 81.6275C143.59 81.6275 151.592 67.7606 151.793 67.3889Z" fill="#FBDC64"/>
<path d="M151.793 40.544C151.793 40.544 159.963 54.7489 159.963 54.7866L143.59 54.7827C143.59 54.7827 151.592 40.9158 151.793 40.544Z" fill="#FBDC64"/>
<path d="M28.9459 81.6315C28.9459 81.5937 20.7752 67.3889 20.7752 67.3889C20.5747 67.7606 12.5728 81.6275 12.5728 81.6275L28.9459 81.6315Z" fill="#FBDC64"/>
<path d="M20.7752 94.2337C20.7752 94.2337 28.9459 108.439 28.9459 108.476L12.5728 108.472C12.5728 108.472 20.5747 94.6055 20.7752 94.2337Z" fill="#FBDC64"/>
<path d="M28.9459 54.7866C28.9459 54.7489 20.7752 40.544 20.7752 40.544C20.5747 40.9158 12.5728 54.7827 12.5728 54.7827L28.9459 54.7866Z" fill="#FBDC64"/>
<path fill-rule="evenodd" clip-rule="evenodd" d="M86.8515 159C127.14 159 159.703 126.487 159.703 86.5C159.703 46.5128 127.14 14 86.8515 14C46.5631 14 14 46.5128 14 86.5C14 126.487 46.5631 159 86.8515 159ZM86.8515 173C134.818 173 173.703 134.273 173.703 86.5C173.703 38.7274 134.818 0 86.8515 0C38.8847 0 0 38.7274 0 86.5C0 134.273 38.8847 173 86.8515 173Z" fill="#FBDC64"/>
<path fill-rule="evenodd" clip-rule="evenodd" d="M33.2506 66.1152L33.933 100.168C36.0898 113.187 46.9141 121.247 61.4144 120.799C75.9573 120.35 85.3161 111.541 86.7246 96.6885C87.0769 92.9698 87.134 57.9116 86.7866 57.9126L72.9528 66.1152C72.9528 82.7196 72.8372 97.4916 71.1538 101.163C66.6556 110.971 53.1638 110.878 48.8213 100.914C47.3563 97.5532 47.3077 79.016 47.2084 57.6641C42.5668 60.4658 37.9422 63.3974 33.2506 66.1152ZM91.5012 57.6641C91.5012 74.8649 91.6253 120.302 91.6253 120.302L105.521 111.851L105.645 102.903L121.712 102.405C134.593 100.864 141.129 93.5279 141.129 80.5319C141.129 67.5448 135.152 60.4823 122.395 58.4098C119.258 57.8998 103.8 57.6641 91.5012 57.6641ZM118.424 70.0922C124.586 71.3646 126.744 73.99 126.737 80.0347C126.729 85.993 124.847 88.8232 120.161 90.2258C119.027 90.5648 111.781 90.6554 105.521 90.723V69.5951C109.984 69.6567 118.424 70.0922 118.424 70.0922Z" fill="#14D4AC"/>
</svg>
