<svg viewBox="0 0 463 271" fill="none" xmlns="http://www.w3.org/2000/svg">
  <rect opacity=".2" x="129.15" y="81.3" width="243.9" height="176.15" rx="30.111" fill="#50FF8F"/>
  <path d="M223.565 217.962a5.616 5.616 0 00-1.226-1.843l-33.868-33.868a5.647 5.647 0 00-9.568 4.012 5.642 5.642 0 001.585 3.971l24.237 24.238h-76.704a16.957 16.957 0 01-16.938-16.938V73.326a16.958 16.958 0 0116.938-16.937 5.646 5.646 0 000-11.292 28.26 28.26 0 00-28.23 28.23v124.207a28.259 28.259 0 0028.23 28.23h76.704l-24.237 24.237a5.64 5.64 0 00-1.304 6.199 5.648 5.648 0 005.275 3.508 5.64 5.64 0 004.012-1.724l33.868-33.868a5.665 5.665 0 001.226-6.154z" fill="#00401E"/>
  <path d="M319.977 45.108h-76.709l24.239-24.245a5.649 5.649 0 00-4.012-9.57 5.645 5.645 0 00-3.972 1.584l-33.871 33.879a5.667 5.667 0 000 7.999l33.871 33.879a5.646 5.646 0 007.984-7.986l-24.239-24.245h76.709a16.962 16.962 0 0116.939 16.943v124.25a16.96 16.96 0 01-16.939 16.942 5.646 5.646 0 00-3.992 9.641 5.646 5.646 0 003.992 1.654 28.251 28.251 0 0019.955-8.278 28.265 28.265 0 008.276-19.959V73.346a28.267 28.267 0 00-8.276-19.96 28.255 28.255 0 00-19.955-8.278z" fill="#00C05B"/>
  <circle r="28.229" transform="matrix(-1 0 0 1 178.833 50.812)" fill="#DB210F"/>
  <path d="M269.167 186.312l34.226 59.282h-68.452l34.226-59.282z" fill="#AF5CF8"/>
</svg>
