<svg width="416" height="417" viewBox="0 0 416 417" fill="none" xmlns="http://www.w3.org/2000/svg">
<path d="M1 208.619C1 322.942 93.6771 415.619 208 415.619C322.323 415.619 415 322.942 415 208.619C415 94.2962 322.323 1.61914 208 1.61914C93.6771 1.61914 1 94.2962 1 208.619ZM332.2 208.619C332.2 277.213 276.594 332.819 208 332.819C139.406 332.819 83.8 277.213 83.8 208.619C83.8 140.025 139.406 84.4191 208 84.4191C276.594 84.4191 332.2 140.025 332.2 208.619Z" fill="#F7F7FA"/>
<path d="M208 1.61914C253.568 1.61914 297.862 16.6551 334.014 44.395C370.165 72.1349 396.153 111.028 407.947 155.044L327.968 176.474C320.892 150.065 305.299 126.729 283.608 110.085C261.917 93.4407 235.341 84.4191 208 84.4191V1.61914Z" fill="#EDF7ED" stroke="#00C05B" stroke-width="1.5"/>
<path d="M354.371 354.99C380.065 329.297 398.542 297.293 407.947 262.195C417.351 227.097 417.351 190.142 407.947 155.044L327.968 176.474C333.611 197.533 333.611 219.706 327.968 240.764C322.325 261.823 311.239 281.026 295.823 296.442L354.371 354.99Z" fill="#FDECEA" stroke="#DB210F" stroke-width="1.5"/>
<path d="M61.6289 354.99C100.449 393.81 153.1 415.619 208 415.619C262.9 415.619 315.551 393.81 354.371 354.99L295.823 296.442C272.531 319.734 240.94 332.819 208 332.819C175.06 332.819 143.469 319.734 120.177 296.442L61.6289 354.99Z" fill="#E9F6FF" stroke="#1ABCFE" stroke-width="1.5"/>
<path d="M8.05334 155.044C-1.35114 190.142 -1.3511 227.097 8.05338 262.195C17.4578 297.293 35.9354 329.297 61.6289 354.99L120.177 296.442C104.761 281.026 93.6747 261.823 88.032 240.764C82.3893 219.706 82.3893 197.533 88.032 176.474L8.05334 155.044Z" fill="#FAF4FF" stroke="#AF5CF8" stroke-width="1.5"/>
<path d="M208 1.61914C162.432 1.61914 118.138 16.6551 81.9864 44.395C45.835 72.1349 19.8471 111.029 8.05334 155.044L88.032 176.474C95.1083 150.065 110.701 126.729 132.392 110.085C154.083 93.4407 180.659 84.4191 208 84.4191V1.61914Z" fill="#E4EEF1" stroke="#7C7C87" stroke-width="1.5"/>
<path fill-rule="evenodd" clip-rule="evenodd" d="M101.781 67.6183C99.7807 67.6183 99.7807 67.6183 99.7807 69.6183L99.7807 95.6191C99.7807 97.6191 99.7807 97.6191 101.781 97.6191L119.781 97.6192C121.781 97.6192 121.781 97.6192 121.781 95.6192V69.6191C121.781 67.6183 121.781 67.6191 119.781 67.6183L101.781 67.6183ZM97.7807 69.6183C97.7807 65.6197 97.7807 65.62 101.781 65.6191L119.781 65.6191C123.781 65.6191 123.781 65.6191 123.781 69.6191L123.781 95.6192C123.781 99.6192 123.781 99.6192 119.781 99.6192L101.781 99.6191C97.7807 99.6191 97.7807 99.6191 97.7807 95.6191V69.6183Z" fill="#7C7C87"/>
<path d="M95.7805 69.6191H89.7805C85.7805 69.6191 85.7805 69.6191 85.7805 73.6191V91.6191C85.7805 95.6191 85.7805 95.6191 89.7805 95.6191H95.7805V93.6191H89.7805C87.7805 93.6191 87.7805 93.6191 87.7805 91.6191V73.6191C87.7805 71.6191 87.7805 71.6191 89.7805 71.6191H95.7805V69.6191Z" fill="#7C7C87"/>
<path d="M83.7805 73.6191H79.7805C75.7805 73.6191 75.7805 75.119 75.7805 77.619V89.619C75.7805 93.619 75.7805 93.619 79.7805 93.6192H83.7805V91.619H79.7805C77.7805 91.619 77.7805 91.619 77.7805 89.619L77.7805 77.6191C77.7805 75.6191 77.7805 75.6191 79.7805 75.6191H83.7805V73.6191Z" fill="#7C7C87"/>
<mask id="path-10-inside-1" fill="white">
<path fill-rule="evenodd" clip-rule="evenodd" d="M355.297 250.884C355.26 251.306 355.237 251.74 355.237 252.182C355.237 252.625 355.26 253.495 355.297 253.918L355.298 253.93L355.297 253.932L355.296 253.934L351.72 256.741L351.69 256.766C351.232 257.145 350.923 257.675 350.819 258.26C350.714 258.845 350.821 259.448 351.119 259.962L351.12 259.964L355.128 266.898L355.137 266.914C355.439 267.423 355.912 267.809 356.47 268.003C357.029 268.198 357.639 268.19 358.192 267.979L362.427 266.275C363.13 266.766 363.871 267.2 364.643 267.573L364.651 267.576L364.653 267.578L364.654 267.581L365.284 272.059C365.288 272.091 365.293 272.122 365.3 272.153C365.416 272.719 365.722 273.228 366.166 273.597C366.611 273.965 367.168 274.172 367.745 274.182H375.791L375.822 274.182C376.41 274.169 376.976 273.953 377.422 273.57C377.869 273.187 378.168 272.66 378.269 272.081C378.272 272.064 378.275 272.048 378.277 272.031L378.908 267.542C379.677 267.17 380.416 266.739 381.12 266.254L381.128 266.249L381.131 266.248L381.136 266.249L385.34 267.941L385.367 267.952C385.921 268.162 386.531 268.171 387.09 267.976C387.649 267.78 388.121 267.394 388.423 266.885L392.44 259.934C392.738 259.42 392.844 258.817 392.74 258.232C392.636 257.647 392.327 257.118 391.87 256.738L391.838 256.713L388.259 253.905C388.295 253.481 388.315 252.608 388.317 252.182L388.317 252.173C388.315 251.747 388.295 251.321 388.259 250.896L391.838 248.089L391.87 248.063C392.327 247.684 392.636 247.154 392.74 246.569C392.844 245.984 392.738 245.381 392.44 244.867L388.423 237.917C388.121 237.407 387.649 237.021 387.09 236.826C386.531 236.631 385.921 236.639 385.367 236.849L385.34 236.86L381.136 238.553L381.131 238.554L381.128 238.553L381.12 238.547C380.416 238.062 379.677 237.632 378.908 237.259L378.277 232.77C378.275 232.754 378.272 232.737 378.269 232.721C378.168 232.141 377.869 231.615 377.422 231.232C376.976 230.848 376.41 230.632 375.822 230.62L375.791 230.619H367.745C367.168 230.629 366.611 230.836 366.166 231.205C365.722 231.574 365.416 232.083 365.3 232.649C365.293 232.68 365.288 232.711 365.284 232.742L364.654 237.22L364.653 237.223L364.651 237.225L364.643 237.229C363.871 237.602 363.13 238.036 362.427 238.527L358.192 236.822C357.639 236.612 357.029 236.603 356.47 236.798C355.912 236.993 355.439 237.379 355.137 237.887L355.128 237.903L351.12 244.837L351.119 244.839C350.821 245.353 350.714 245.956 350.819 246.541C350.923 247.127 351.232 247.656 351.69 248.036L351.72 248.06L355.296 250.868L355.297 250.869L355.298 250.872L355.297 250.884ZM385.317 252.182C385.314 251.6 385.271 251.02 385.189 250.444C385.114 249.913 385.327 249.383 385.748 249.052L389.633 246.006L386.051 239.808L382.251 241.338L382.246 241.34C381.783 241.524 381.282 241.591 380.788 241.534C380.294 241.477 379.823 241.299 379.416 241.016C378.836 240.617 378.228 240.263 377.595 239.957C377.153 239.742 376.769 239.42 376.48 239.023C376.192 238.625 376.005 238.163 375.937 237.677L375.367 233.619H368.19L367.624 237.643L367.624 237.648C367.553 238.138 367.362 238.603 367.069 239.002C366.776 239.4 366.39 239.719 365.944 239.932C365.316 240.235 364.714 240.588 364.143 240.987L364.14 240.989C363.731 241.274 363.259 241.452 362.764 241.508C362.269 241.564 361.769 241.496 361.307 241.31L357.508 239.781L353.926 245.978L357.155 248.513L357.161 248.518C357.553 248.829 357.861 249.233 358.057 249.693C358.253 250.151 358.331 250.651 358.285 251.147C358.255 251.502 358.237 251.846 358.237 252.182C358.237 252.518 358.255 253.299 358.285 253.655C358.331 254.151 358.253 254.65 358.057 255.108C357.861 255.568 357.553 255.972 357.161 256.284L357.155 256.288L353.926 258.824L357.508 265.021L361.307 263.491C361.769 263.306 362.269 263.238 362.764 263.294C363.259 263.35 363.731 263.528 364.14 263.812L364.143 263.814C364.714 264.213 365.316 264.566 365.944 264.869C366.39 265.082 366.776 265.402 367.069 265.799C367.362 266.198 367.553 266.663 367.624 267.154L367.624 267.159L368.19 271.182H375.367L375.937 267.125C376.005 266.638 376.192 266.176 376.48 265.779C376.769 265.381 377.153 265.06 377.595 264.845C378.228 264.538 378.836 264.184 379.416 263.785C379.823 263.502 380.294 263.325 380.788 263.268C381.282 263.211 381.783 263.277 382.246 263.461L382.251 263.463L386.051 264.993L389.633 258.796L385.748 255.749C385.327 255.418 385.114 254.888 385.189 254.358C385.271 253.782 385.314 252.764 385.317 252.182Z"/>
</mask>
<path fill-rule="evenodd" clip-rule="evenodd" d="M355.297 250.884C355.26 251.306 355.237 251.74 355.237 252.182C355.237 252.625 355.26 253.495 355.297 253.918L355.298 253.93L355.297 253.932L355.296 253.934L351.72 256.741L351.69 256.766C351.232 257.145 350.923 257.675 350.819 258.26C350.714 258.845 350.821 259.448 351.119 259.962L351.12 259.964L355.128 266.898L355.137 266.914C355.439 267.423 355.912 267.809 356.47 268.003C357.029 268.198 357.639 268.19 358.192 267.979L362.427 266.275C363.13 266.766 363.871 267.2 364.643 267.573L364.651 267.576L364.653 267.578L364.654 267.581L365.284 272.059C365.288 272.091 365.293 272.122 365.3 272.153C365.416 272.719 365.722 273.228 366.166 273.597C366.611 273.965 367.168 274.172 367.745 274.182H375.791L375.822 274.182C376.41 274.169 376.976 273.953 377.422 273.57C377.869 273.187 378.168 272.66 378.269 272.081C378.272 272.064 378.275 272.048 378.277 272.031L378.908 267.542C379.677 267.17 380.416 266.739 381.12 266.254L381.128 266.249L381.131 266.248L381.136 266.249L385.34 267.941L385.367 267.952C385.921 268.162 386.531 268.171 387.09 267.976C387.649 267.78 388.121 267.394 388.423 266.885L392.44 259.934C392.738 259.42 392.844 258.817 392.74 258.232C392.636 257.647 392.327 257.118 391.87 256.738L391.838 256.713L388.259 253.905C388.295 253.481 388.315 252.608 388.317 252.182L388.317 252.173C388.315 251.747 388.295 251.321 388.259 250.896L391.838 248.089L391.87 248.063C392.327 247.684 392.636 247.154 392.74 246.569C392.844 245.984 392.738 245.381 392.44 244.867L388.423 237.917C388.121 237.407 387.649 237.021 387.09 236.826C386.531 236.631 385.921 236.639 385.367 236.849L385.34 236.86L381.136 238.553L381.131 238.554L381.128 238.553L381.12 238.547C380.416 238.062 379.677 237.632 378.908 237.259L378.277 232.77C378.275 232.754 378.272 232.737 378.269 232.721C378.168 232.141 377.869 231.615 377.422 231.232C376.976 230.848 376.41 230.632 375.822 230.62L375.791 230.619H367.745C367.168 230.629 366.611 230.836 366.166 231.205C365.722 231.574 365.416 232.083 365.3 232.649C365.293 232.68 365.288 232.711 365.284 232.742L364.654 237.22L364.653 237.223L364.651 237.225L364.643 237.229C363.871 237.602 363.13 238.036 362.427 238.527L358.192 236.822C357.639 236.612 357.029 236.603 356.47 236.798C355.912 236.993 355.439 237.379 355.137 237.887L355.128 237.903L351.12 244.837L351.119 244.839C350.821 245.353 350.714 245.956 350.819 246.541C350.923 247.127 351.232 247.656 351.69 248.036L351.72 248.06L355.296 250.868L355.297 250.869L355.298 250.872L355.297 250.884ZM385.317 252.182C385.314 251.6 385.271 251.02 385.189 250.444C385.114 249.913 385.327 249.383 385.748 249.052L389.633 246.006L386.051 239.808L382.251 241.338L382.246 241.34C381.783 241.524 381.282 241.591 380.788 241.534C380.294 241.477 379.823 241.299 379.416 241.016C378.836 240.617 378.228 240.263 377.595 239.957C377.153 239.742 376.769 239.42 376.48 239.023C376.192 238.625 376.005 238.163 375.937 237.677L375.367 233.619H368.19L367.624 237.643L367.624 237.648C367.553 238.138 367.362 238.603 367.069 239.002C366.776 239.4 366.39 239.719 365.944 239.932C365.316 240.235 364.714 240.588 364.143 240.987L364.14 240.989C363.731 241.274 363.259 241.452 362.764 241.508C362.269 241.564 361.769 241.496 361.307 241.31L357.508 239.781L353.926 245.978L357.155 248.513L357.161 248.518C357.553 248.829 357.861 249.233 358.057 249.693C358.253 250.151 358.331 250.651 358.285 251.147C358.255 251.502 358.237 251.846 358.237 252.182C358.237 252.518 358.255 253.299 358.285 253.655C358.331 254.151 358.253 254.65 358.057 255.108C357.861 255.568 357.553 255.972 357.161 256.284L357.155 256.288L353.926 258.824L357.508 265.021L361.307 263.491C361.769 263.306 362.269 263.238 362.764 263.294C363.259 263.35 363.731 263.528 364.14 263.812L364.143 263.814C364.714 264.213 365.316 264.566 365.944 264.869C366.39 265.082 366.776 265.402 367.069 265.799C367.362 266.198 367.553 266.663 367.624 267.154L367.624 267.159L368.19 271.182H375.367L375.937 267.125C376.005 266.638 376.192 266.176 376.48 265.779C376.769 265.381 377.153 265.06 377.595 264.845C378.228 264.538 378.836 264.184 379.416 263.785C379.823 263.502 380.294 263.325 380.788 263.268C381.282 263.211 381.783 263.277 382.246 263.461L382.251 263.463L386.051 264.993L389.633 258.796L385.748 255.749C385.327 255.418 385.114 254.888 385.189 254.358C385.271 253.782 385.314 252.764 385.317 252.182Z" stroke="#DB210F" stroke-width="4" mask="url(#path-10-inside-1)"/>
<path fill-rule="evenodd" clip-rule="evenodd" d="M368.085 246.093C369.431 245.331 370.979 245.004 372.518 245.156L372.52 245.156C374.245 245.329 375.856 246.093 377.082 247.319C378.307 248.544 379.071 250.156 379.244 251.88L379.245 251.883C379.397 253.421 379.069 254.969 378.307 256.315C377.545 257.661 376.386 258.738 374.988 259.399C373.591 260.06 372.023 260.274 370.499 260.009C368.976 259.745 367.571 259.016 366.478 257.923C365.384 256.83 364.655 255.425 364.391 253.901C364.127 252.378 364.34 250.81 365.001 249.412C365.663 248.014 366.74 246.855 368.085 246.093ZM372.222 248.141C371.299 248.05 370.371 248.247 369.564 248.704C368.756 249.161 368.11 249.856 367.713 250.695C367.316 251.534 367.189 252.475 367.347 253.389C367.506 254.303 367.943 255.146 368.599 255.802C369.255 256.458 370.098 256.895 371.012 257.053C371.926 257.212 372.867 257.084 373.705 256.687C374.544 256.291 375.24 255.644 375.697 254.837C376.154 254.03 376.35 253.101 376.259 252.179C376.155 251.143 375.696 250.176 374.96 249.44C374.225 248.704 373.257 248.246 372.222 248.141Z" fill="#DB210F"/>
<path d="M202.704 389.225C202.653 389.103 202.58 388.992 202.486 388.899L196.488 382.9C196.299 382.718 196.046 382.617 195.784 382.619C195.522 382.622 195.271 382.727 195.086 382.912C194.9 383.098 194.795 383.348 194.793 383.611C194.791 383.873 194.891 384.125 195.074 384.314L199.367 388.607H185.781C184.985 388.606 184.223 388.29 183.66 387.727C183.098 387.165 182.781 386.402 182.781 385.607V363.607C182.781 362.812 183.098 362.049 183.66 361.487C184.223 360.924 184.985 360.608 185.781 360.607C186.046 360.607 186.3 360.502 186.488 360.314C186.675 360.127 186.781 359.872 186.781 359.607C186.781 359.342 186.675 359.087 186.488 358.9C186.3 358.712 186.046 358.607 185.781 358.607C184.455 358.608 183.184 359.136 182.247 360.073C181.309 361.01 180.782 362.281 180.781 363.607V385.607C180.782 386.933 181.309 388.204 182.247 389.141C183.184 390.078 184.455 390.606 185.781 390.607H199.367L195.074 394.9C194.978 394.992 194.902 395.103 194.849 395.225C194.797 395.347 194.769 395.478 194.768 395.611C194.767 395.743 194.792 395.875 194.843 395.998C194.893 396.121 194.967 396.232 195.061 396.326C195.155 396.42 195.267 396.494 195.39 396.545C195.512 396.595 195.644 396.62 195.777 396.619C195.91 396.618 196.041 396.59 196.163 396.538C196.285 396.486 196.395 396.409 196.488 396.314L202.486 390.315C202.626 390.175 202.721 389.997 202.76 389.803C202.798 389.609 202.779 389.408 202.704 389.225Z" fill="#0066FF"/>
<path d="M219.78 358.609H206.193L210.487 354.314C210.669 354.126 210.769 353.873 210.767 353.611C210.765 353.348 210.66 353.098 210.474 352.912C210.289 352.727 210.038 352.621 209.776 352.619C209.514 352.617 209.261 352.718 209.072 352.9L203.073 358.901C202.886 359.089 202.781 359.343 202.781 359.609C202.781 359.875 202.886 360.129 203.073 360.317L209.072 366.318C209.261 366.5 209.514 366.601 209.776 366.599C210.038 366.597 210.289 366.491 210.474 366.306C210.66 366.12 210.765 365.87 210.767 365.607C210.769 365.345 210.669 365.092 210.487 364.904L206.193 360.609H219.78C220.576 360.61 221.338 360.927 221.901 361.489C222.463 362.052 222.779 362.815 222.78 363.61V385.618C222.779 386.413 222.463 387.176 221.901 387.739C221.338 388.301 220.576 388.618 219.78 388.619C219.515 388.619 219.261 388.724 219.073 388.912C218.885 389.099 218.78 389.354 218.78 389.619C218.78 389.884 218.885 390.139 219.073 390.326C219.261 390.514 219.515 390.619 219.78 390.619C221.106 390.618 222.377 390.091 223.315 389.153C224.252 388.215 224.779 386.944 224.781 385.618V363.61C224.779 362.284 224.252 361.013 223.315 360.075C222.377 359.137 221.106 358.61 219.78 358.609Z" fill="#0066FF"/>
<circle r="5" transform="matrix(-1 0 0 1 194.781 359.619)" fill="#0066FF"/>
<path d="M210.781 383.619L216.843 394.119H204.718L210.781 383.619Z" fill="#0066FF"/>
<path fill-rule="evenodd" clip-rule="evenodd" d="M61.7047 261.762C62.0639 261.015 62.9603 260.701 63.7068 261.06L71.1875 264.66C72.1723 265.112 73.2882 265.986 73.2882 267.383C73.2882 268.786 72.1606 269.662 71.1721 270.112C71.1718 270.112 71.1723 270.112 71.1721 270.112L57.2981 276.44C56.2554 276.914 54.9798 277.116 53.7891 277.116C52.5984 277.116 51.3237 276.915 50.281 276.44L36.4068 270.112C36.4065 270.112 36.4072 270.112 36.4068 270.112C35.4184 269.663 34.2901 268.786 34.2901 267.383C34.2901 265.979 35.4182 265.102 36.4068 264.653L36.4134 264.65L44.1666 261.171C44.9224 260.832 45.81 261.17 46.1492 261.925C46.4884 262.681 46.1506 263.569 45.3948 263.908L37.6516 267.383L51.5241 273.71C52.0649 273.956 52.8849 274.116 53.7891 274.116C54.6933 274.116 55.5134 273.956 56.0541 273.71L69.9268 267.383L69.9002 267.37L62.4058 263.764C61.6594 263.404 61.3454 262.508 61.7047 261.762Z" fill="#AF5CF8"/>
<path fill-rule="evenodd" clip-rule="evenodd" d="M61.4121 252.175C61.751 251.419 62.6386 251.081 63.3945 251.42L71.1715 254.907C72.159 255.355 73.2905 256.233 73.2871 257.64C73.2838 259.044 72.1524 259.918 71.1621 260.366C71.1611 260.366 71.1602 260.367 71.1592 260.367L57.2888 266.692C56.2459 267.168 54.9708 267.369 53.7799 267.369C52.589 267.369 51.314 267.168 50.2711 266.692L36.3976 260.366C36.3973 260.366 36.398 260.366 36.3976 260.366C35.4092 259.916 34.2808 259.04 34.2808 257.636C34.2808 256.232 35.4089 255.356 36.3976 254.907L36.4042 254.904L44.1667 251.42C44.9225 251.081 45.8101 251.418 46.1493 252.174C46.4885 252.93 46.1508 253.818 45.395 254.157L37.6424 257.636L51.5156 263.963C52.0561 264.209 52.8759 264.369 53.7799 264.369C54.6839 264.369 55.5037 264.209 56.0442 263.963L69.9221 257.634L62.1671 254.157C61.4112 253.818 61.0732 252.931 61.4121 252.175Z" fill="#AF5CF8"/>
<path fill-rule="evenodd" clip-rule="evenodd" d="M35.9507 244.683C34.9349 245.136 33.7849 246.386 33.7815 247.802C33.7815 249.217 34.9388 250.102 35.9527 250.555L50.1833 256.938C51.2527 257.417 52.5602 257.619 53.7815 257.619C55.0028 257.619 56.3112 257.416 57.3806 256.938L71.611 250.555C72.625 250.101 73.7815 249.217 73.7815 247.802C73.7815 246.386 72.6221 245.137 71.6083 244.683L57.3784 238.302C56.3087 237.822 55.0009 237.619 53.7794 237.619C52.558 237.619 51.25 237.822 50.1804 238.302L35.9536 244.682L35.9507 244.683ZM56.1019 241.055L70.3443 247.802L56.1047 254.184C55.55 254.432 54.7089 254.593 53.7815 254.593C52.8541 254.593 52.013 254.432 51.4583 254.184L37.2294 247.802L51.4569 241.055C52.0114 240.807 52.8523 240.645 53.7794 240.645C54.7066 240.645 55.5475 240.807 56.1019 241.055Z" fill="#AF5CF8"/>
<path fill-rule="evenodd" clip-rule="evenodd" d="M326.797 63.433C325.882 62.9 324.841 62.6191 323.782 62.6191C322.722 62.6191 321.681 62.9 320.766 63.433L306.512 71.7264C305.833 72.1227 305.27 72.6899 304.878 73.3716C304.487 74.0533 304.281 74.8261 304.281 75.6122V91.6261C304.281 92.4122 304.487 93.185 304.878 93.8667C305.27 94.5484 305.833 95.1156 306.512 95.5119L320.766 103.805C321.681 104.338 322.722 104.619 323.782 104.619C324.841 104.619 325.882 104.338 326.797 103.805L341.049 95.5119C341.728 95.1156 342.29 94.5494 342.682 93.8677C343.074 93.186 343.28 92.4134 343.281 91.627V75.6113C343.28 74.8249 343.074 74.0523 342.682 73.3706C342.29 72.6889 341.728 72.1227 341.049 71.7264L326.797 63.433ZM307.281 76.4059V91.6257C307.281 91.8877 307.349 92.1453 307.48 92.3725C307.61 92.5994 307.798 92.7882 308.024 92.9203L322.275 101.213L322.28 101.216V85.2293L307.281 76.4059ZM325.28 101.216L325.286 101.213L339.536 92.92C339.763 92.788 339.95 92.5991 340.081 92.3721C340.211 92.1451 340.28 91.887 340.281 91.6252V76.4059L325.28 85.2295V101.216ZM338.72 73.8434L325.286 66.0257C324.886 65.7927 324.241 65.6496 323.782 65.6191C323.364 65.6638 322.64 65.8131 322.275 66.0257L308.84 73.8428L323.781 82.6312L338.72 73.8434Z" fill="#00C05B"/>
</svg>
