<svg viewBox="0 0 340 341" fill="none" xmlns="http://www.w3.org/2000/svg">
  <mask id="a" maskUnits="userSpaceOnUse" x="136" y="139" width="184" height="184">
    <path d="M300.873 322.362a10.5 10.5 0 0010.449-10.519 11.858 11.858 0 00-.491-3.118l-7.527-27.228c-.314-1.006.041-2.019.503-2.82l.09-.163c.032-.054.188-.27.298-.429.11-.16.237-.331.351-.499l.078-.11a88.126 88.126 0 0014.568-48.544c.074-23.534-9.133-45.768-25.932-62.637-17.384-17.417-40.636-27.008-65.531-27.008a92.93 92.93 0 00-58.102 20.367c-16.121 12.975-27.326 31.057-31.552 50.95a87.251 87.251 0 00-1.953 18.39c0 24.081 9.252 46.7 26.055 63.696 16.951 17.163 39.713 26.586 64.089 26.586 8.581 0 19.562-2.19 24.833-3.678 6.343-1.773 12.354-4.086 13.016-4.331a6.163 6.163 0 014.564.061l.348.135 27.575 9.963c1.355.57 2.802.887 4.271.936z" fill="#fff"/>
  </mask>
  <g opacity=".7" filter="url(#filter0_f)" mask="url(#a)">
    <path d="M309.295 330.784a10.495 10.495 0 0010.45-10.519 11.942 11.942 0 00-.491-3.118l-7.527-27.228c-.315-1.005.041-2.018.503-2.819l.089-.164c.033-.053.188-.27.299-.429.11-.159.237-.331.351-.499l.078-.11a88.13 88.13 0 0014.568-48.543c.074-23.534-9.133-45.769-25.933-62.638-17.384-17.417-40.636-27.008-65.531-27.008a92.928 92.928 0 00-58.101 20.368c-16.121 12.974-27.327 31.057-31.552 50.95a87.169 87.169 0 00-1.953 18.389c0 24.082 9.251 46.7 26.055 63.696 16.951 17.163 39.713 26.587 64.088 26.587 8.582 0 19.562-2.191 24.834-3.678 6.342-1.774 12.353-4.087 13.015-4.332a6.194 6.194 0 012.195-.408 6.024 6.024 0 012.37.47l.347.134 27.576 9.963c1.354.57 2.802.888 4.27.936z" fill="url(#paint0_linear)" style="mix-blend-mode:multiply"/>
    <path d="M309.295 330.784a10.495 10.495 0 0010.45-10.519 11.942 11.942 0 00-.491-3.118l-7.527-27.228c-.315-1.005.041-2.018.503-2.819l.089-.164c.033-.053.188-.27.299-.429.11-.159.237-.331.351-.499l.078-.11a88.13 88.13 0 0014.568-48.543c.074-23.534-9.133-45.769-25.933-62.638-17.384-17.417-40.636-27.008-65.531-27.008a92.928 92.928 0 00-58.101 20.368c-16.121 12.974-27.327 31.057-31.552 50.95a87.169 87.169 0 00-1.953 18.389c0 24.082 9.251 46.7 26.055 63.696 16.951 17.163 39.713 26.587 64.088 26.587 8.582 0 19.562-2.191 24.834-3.678 6.342-1.774 12.353-4.087 13.015-4.332a6.194 6.194 0 012.195-.408 6.024 6.024 0 012.37.47l.347.134 27.576 9.963c1.354.57 2.802.888 4.27.936z" fill="url(#paint1_linear)"/>
  </g>
  <path fill-rule="evenodd" clip-rule="evenodd" d="M301.332 299.225c.301 1.013.466 2.062.49 3.118a10.495 10.495 0 01-10.449 10.519 12.039 12.039 0 01-4.27-.936l-27.576-9.963-.347-.135a6.168 6.168 0 00-4.565-.061l-.238.089c-1.329.5-6.912 2.602-12.777 4.242-5.272 1.488-16.252 3.678-24.834 3.678-24.376 0-47.138-9.423-64.088-26.586-16.804-16.996-26.056-39.615-26.056-63.696a87.252 87.252 0 011.954-18.39c4.225-19.893 15.43-37.975 31.551-50.95a92.932 92.932 0 0158.102-20.367c24.895 0 48.147 9.591 65.531 27.008 16.8 16.869 26.006 39.103 25.933 62.637a88.127 88.127 0 01-14.569 48.544l-.077.11c-.063.092-.13.186-.196.278l-.156.221-.136.195a6.935 6.935 0 00-.162.234l-.09.163c-.462.801-.817 1.814-.502 2.82l7.527 27.228zm-14.471-25.22l7.523 27.213.019.067c.111.372.175.756.191 1.144a3.271 3.271 0 01-3.127 3.202 4.803 4.803 0 01-1.56-.367l-.172-.073-27.672-9.997-.193-.075a13.257 13.257 0 00-5.094-.989 13.428 13.428 0 00-4.708.872l-.224.085c-1.368.514-6.659 2.504-12.191 4.05l-.016.005c-4.887 1.379-15.173 3.406-22.871 3.406-22.472 0-43.373-8.67-58.946-24.437l-.002-.003c-15.455-15.631-23.968-36.419-23.968-58.614v-.003a80.027 80.027 0 011.792-16.866l.004-.019c3.872-18.229 14.158-34.863 29.006-46.815a85.697 85.697 0 0153.573-18.776h.004c22.996 0 44.399 8.842 60.411 24.881 15.462 15.527 23.892 35.925 23.825 57.514v.023a80.911 80.911 0 01-13.315 44.474l-.043.061-.029.042-.093.13c-.045.065-.141.198-.232.33l-.092.131-.058.083-.054.077-.057.081a2.724 2.724 0 01-.08.118 7.973 7.973 0 00-.171.265l-.092.151-.147.266c-.817 1.438-2.257 4.597-1.141 8.363z" fill="#fff"/>
  <path fill-rule="evenodd" clip-rule="evenodd" d="M301.332 299.225c.301 1.013.466 2.062.49 3.118a10.495 10.495 0 01-10.449 10.519 12.039 12.039 0 01-4.27-.936l-27.576-9.963-.347-.135a6.168 6.168 0 00-4.565-.061l-.238.089c-1.329.5-6.912 2.602-12.777 4.242-5.272 1.488-16.252 3.678-24.834 3.678-24.376 0-47.138-9.423-64.088-26.586-16.804-16.996-26.056-39.615-26.056-63.696a87.252 87.252 0 011.954-18.39c4.225-19.893 15.43-37.975 31.551-50.95a92.932 92.932 0 0158.102-20.367c24.895 0 48.147 9.591 65.531 27.008 16.8 16.869 26.006 39.103 25.933 62.637a88.127 88.127 0 01-14.569 48.544l-.077.11c-.063.092-.13.186-.196.278l-.156.221-.136.195a6.935 6.935 0 00-.162.234l-.09.163c-.462.801-.817 1.814-.502 2.82l7.527 27.228zm-14.471-25.22l7.523 27.213.019.067c.111.372.175.756.191 1.144a3.271 3.271 0 01-3.127 3.202 4.803 4.803 0 01-1.56-.367l-.172-.073-27.672-9.997-.193-.075a13.257 13.257 0 00-5.094-.989 13.428 13.428 0 00-4.708.872l-.224.085c-1.368.514-6.659 2.504-12.191 4.05l-.016.005c-4.887 1.379-15.173 3.406-22.871 3.406-22.472 0-43.373-8.67-58.946-24.437l-.002-.003c-15.455-15.631-23.968-36.419-23.968-58.614v-.003a80.027 80.027 0 011.792-16.866l.004-.019c3.872-18.229 14.158-34.863 29.006-46.815a85.697 85.697 0 0153.573-18.776h.004c22.996 0 44.399 8.842 60.411 24.881 15.462 15.527 23.892 35.925 23.825 57.514v.023a80.911 80.911 0 01-13.315 44.474l-.043.061-.029.042-.093.13c-.045.065-.141.198-.232.33l-.092.131-.058.083-.054.077-.057.081a2.724 2.724 0 01-.08.118 7.973 7.973 0 00-.171.265l-.092.151-.147.266c-.817 1.438-2.257 4.597-1.141 8.363z" fill="url(#paint2_linear)" style="mix-blend-mode:multiply"/>
  <mask id="b" maskUnits="userSpaceOnUse" x="26" y="48" width="187" height="174">
    <path d="M73.249 221.045a6.648 6.648 0 01-6.651-6.651V187.79H56.62a29.964 29.964 0 01-29.93-29.93V78.047a29.963 29.963 0 0129.93-29.93h126.371a29.964 29.964 0 0129.93 29.93v79.813a29.965 29.965 0 01-29.93 29.93h-67.451L77.51 219.503a6.672 6.672 0 01-4.261 1.542z" fill="#fff"/>
  </mask>
  <g opacity=".7" filter="url(#filter1_f)" mask="url(#b)">
    <path d="M73.249 221.045a6.648 6.648 0 01-6.651-6.651V187.79H56.62a29.964 29.964 0 01-29.93-29.93V78.047a29.963 29.963 0 0129.93-29.93h126.371a29.964 29.964 0 0129.93 29.93v79.813a29.965 29.965 0 01-29.93 29.93h-67.451L77.51 219.503a6.672 6.672 0 01-4.261 1.542z" fill="url(#paint3_linear)" style="mix-blend-mode:multiply"/>
    <path d="M73.249 221.045a6.648 6.648 0 01-6.651-6.651V187.79H56.62a29.964 29.964 0 01-29.93-29.93V78.047a29.963 29.963 0 0129.93-29.93h126.371a29.964 29.964 0 0129.93 29.93v79.813a29.965 29.965 0 01-29.93 29.93h-67.451L77.51 219.503a6.672 6.672 0 01-4.261 1.542z" fill="url(#paint4_linear)"/>
  </g>
  <path d="M83.874 210.42a6.648 6.648 0 01-6.651-6.651v-26.604h-9.977a29.964 29.964 0 01-29.93-29.93V67.422a29.963 29.963 0 0129.93-29.93h126.371a29.964 29.964 0 0129.93 29.93v79.813a29.965 29.965 0 01-29.93 29.93h-67.451l-38.031 31.713a6.672 6.672 0 01-4.261 1.542v0z" stroke="#fff" stroke-width="7.969"/>
  <path d="M83.874 210.42a6.648 6.648 0 01-6.651-6.651v-26.604h-9.977a29.964 29.964 0 01-29.93-29.93V67.422a29.963 29.963 0 0129.93-29.93h126.371a29.964 29.964 0 0129.93 29.93v79.813a29.965 29.965 0 01-29.93 29.93h-67.451l-38.031 31.713a6.672 6.672 0 01-4.261 1.542v0z" stroke="url(#paint5_linear)" stroke-width="7.969" style="mix-blend-mode:multiply"/>
  <path opacity=".3" d="M149.785 116.109c.377-9.143 8.063-16.274 17.137-15.9 9.074.374 16.147 8.114 15.77 17.257-.377 9.143-8.062 16.274-17.137 15.9-9.074-.374-16.146-8.114-15.77-17.257z" fill="#599CFF"/>
  <path d="M154.255 108.051c.377-9.143 8.062-16.274 17.136-15.9 9.075.374 16.147 8.113 15.77 17.256-.377 9.143-8.062 16.274-17.136 15.9-9.074-.374-16.147-8.113-15.77-17.256zm15.961 12.615c6.532.269 12.068-4.868 12.339-11.449.271-6.581-4.823-12.156-11.355-12.425-6.531-.27-12.068 4.868-12.339 11.449-.271 6.581 4.824 12.156 11.355 12.425z" fill="#003380"/>
  <path opacity=".3" d="M108.763 116.83c.376-9.143 8.062-16.274 17.136-15.9 9.074.374 16.147 8.113 15.77 17.256-.377 9.143-8.062 16.274-17.137 15.9-9.074-.374-16.146-8.113-15.769-17.256z" fill="#599CFF"/>
  <path d="M113.232 108.771c.377-9.143 8.062-16.274 17.136-15.9 9.074.374 16.147 8.113 15.77 17.256-.377 9.143-8.062 16.274-17.136 15.9-9.074-.374-16.147-8.113-15.77-17.256zm15.961 12.615c6.532.269 12.068-4.867 12.339-11.448.271-6.582-4.823-12.157-11.355-12.426-6.532-.269-12.068 4.868-12.339 11.449-.271 6.581 4.823 12.156 11.355 12.425z" fill="#003380"/>
  <path opacity=".3" d="M67.838 115.143c.377-9.143 8.063-16.274 17.137-15.9 9.074.374 16.146 8.113 15.77 17.256-.377 9.143-8.063 16.274-17.137 15.9-9.074-.374-16.147-8.113-15.77-17.256z" fill="#599CFF"/>
  <path d="M72.307 107.084c.377-9.142 8.063-16.273 17.137-15.9 9.074.375 16.147 8.114 15.77 17.257-.377 9.143-8.063 16.274-17.137 15.9-9.074-.374-16.147-8.113-15.77-17.257zM88.27 119.7c6.531.269 12.067-4.868 12.339-11.449.271-6.581-4.824-12.156-11.355-12.425-6.532-.27-12.068 4.867-12.34 11.448-.27 6.581 4.824 12.156 11.356 12.426z" fill="#003380"/>
  <path opacity=".3" d="M200.09 227.06c-.376-9.143-8.062-16.274-17.136-15.9-9.074.374-16.147 8.114-15.77 17.257.377 9.143 8.062 16.273 17.136 15.899 9.075-.374 16.147-8.113 15.77-17.256z" fill="#599CFF"/>
  <path d="M195.621 219.002c-.377-9.143-8.062-16.274-17.136-15.9-9.074.374-16.147 8.113-15.77 17.256.377 9.143 8.062 16.274 17.136 15.9 9.074-.374 16.147-8.113 15.77-17.256zm-15.961 12.615c-6.531.269-12.068-4.868-12.339-11.449-.271-6.581 4.823-12.156 11.355-12.425 6.532-.269 12.068 4.867 12.339 11.448.271 6.582-4.823 12.157-11.355 12.426z" fill="#003380"/>
  <path opacity=".3" d="M241.113 227.781c-.376-9.143-8.062-16.274-17.136-15.9-9.074.374-16.147 8.113-15.77 17.256.377 9.143 8.062 16.274 17.137 15.9 9.074-.374 16.146-8.113 15.769-17.256z" fill="#599CFF"/>
  <path d="M236.644 219.722c-.377-9.143-8.062-16.274-17.136-15.9-9.074.374-16.147 8.113-15.77 17.256.377 9.143 8.062 16.274 17.136 15.9 9.074-.374 16.147-8.113 15.77-17.256zm-15.961 12.615c-6.532.269-12.068-4.867-12.339-11.449-.271-6.581 4.823-12.156 11.355-12.425 6.532-.269 12.068 4.868 12.339 11.449.271 6.581-4.823 12.156-11.355 12.425z" fill="#003380"/>
  <path opacity=".3" d="M282.038 226.094c-.377-9.143-8.063-16.274-17.137-15.9-9.074.374-16.146 8.113-15.769 17.256.376 9.143 8.062 16.274 17.136 15.9 9.074-.374 16.147-8.113 15.77-17.256z" fill="#599CFF"/>
  <path d="M277.569 218.035c-.377-9.143-8.063-16.274-17.137-15.9-9.074.374-16.147 8.114-15.77 17.257.377 9.143 8.062 16.274 17.137 15.9 9.074-.374 16.146-8.114 15.77-17.257zm-15.962 12.615c-6.531.27-12.067-4.867-12.339-11.448-.271-6.581 4.824-12.156 11.355-12.426 6.532-.269 12.068 4.868 12.339 11.449.272 6.581-4.823 12.156-11.355 12.425z" fill="#003380"/>
  <path d="M285.786 23.33c-.762 1.875.38 3.409 2.241 4.177l5.625 1.533c1.522.383 3.384-.768 3.766-2.301.379-1.917-.762-3.409-2.244-4.177l-5.625-1.533c-1.902-.384-3.382.765-3.763 2.301zM299.656 38.97l1.481-5.753c.38-1.493-.718-3.408-2.242-3.793-1.864-.383-3.386.767-3.725 2.3l-1.523 5.713c-.762 1.534.381 3.452 2.286 3.835 1.481.342 3.342-.382 3.723-2.301zM301.517 27.89c-.718 1.534.382 3.451 2.284 3.835l5.585 1.492c1.902.427 3.383-.34 3.762-2.258.763-1.535-.38-3.452-2.241-3.837l-5.626-1.534c-1.48-.765-3.382.385-3.764 2.302zM299.27 15.319l-1.482 5.327c-.379 1.917.719 3.836 2.243 4.177 1.863.383 3.386-.727 4.104-2.26l1.143-5.37c.763-1.874-.38-3.793-2.242-4.176-1.524-.386-3.385.766-3.766 2.302z" fill="#F24E1E"/>
  <path opacity=".1" d="M50.298 296.87l8.658-26.777h28.02l-22.653-16.556 8.649-26.767-22.674 16.546-22.664-16.546 8.649 26.767-22.654 16.546h28.02l8.649 26.787z" fill="#00C05B"/>
  <path d="M42.693 290.405l7.729-23.975h25.011l-20.221-14.824 7.72-23.967-20.239 14.815-20.23-14.815 7.72 23.967L9.96 266.421h25.012l7.72 23.984zm-7.472-37.15l-4.61-14.315 12.082 8.85 12.09-8.85-4.61 14.315 12.09 8.858H47.313l-4.619 14.315-4.61-14.315H23.131l12.09-8.858z" fill="#00C05B"/>
  <path opacity=".1" d="M260.856 72.907c4.284-5.81 3.002-14.043-2.853-18.36-5.855-4.316-14.102-3.1-18.382 2.707-4.28 5.806-3.002 14.044 2.853 18.36 5.855 4.316 14.099 3.104 18.382-2.707z" fill="#DB210F"/>
  <path d="M256.773 73.04c4.283-5.812 3.002-14.044-2.853-18.36-5.855-4.316-14.102-3.1-18.382 2.706-4.28 5.807-3.002 14.044 2.853 18.36 5.855 4.316 14.098 3.105 18.382-2.707zm-18.987-13.996c3.373-4.575 9.875-5.534 14.489-2.133 4.614 3.401 5.622 9.896 2.249 14.47-3.372 4.576-9.874 5.534-14.488 2.133-4.614-3.4-5.622-9.896-2.25-14.47z" fill="#DB210F"/>
  <path opacity=".1" d="M33.559 307.579c-7.03 0-12.751 5.765-12.751 12.847 0 7.083 5.721 12.848 12.75 12.848 7.03 0 12.752-5.765 12.752-12.848 0-7.082-5.716-12.847-12.751-12.847z" fill="#1ABCFE"/>
  <path d="M28.688 305.13c-7.03 0-12.75 5.764-12.75 12.847 0 7.083 5.72 12.848 12.75 12.848s12.751-5.765 12.751-12.848c0-7.083-5.715-12.847-12.75-12.847zm0 22.83c-5.465 0-9.907-4.481-9.907-9.983 0-5.501 4.442-9.982 9.907-9.982 5.466 0 9.908 4.481 9.908 9.982 0 5.502-4.442 9.983-9.908 9.983zM16.778 25.917c-.562 1.383.28 2.515 1.653 3.08l4.15 1.132c1.122.283 2.495-.567 2.777-1.697.28-1.414-.562-2.515-1.655-3.081l-4.149-1.131c-1.403-.284-2.495.564-2.776 1.697zM27.009 37.454l1.093-4.244c.28-1.101-.53-2.514-1.654-2.798-1.375-.283-2.498.566-2.748 1.697l-1.123 4.213c-.562 1.132.28 2.547 1.686 2.83 1.092.252 2.465-.282 2.746-1.698zM28.382 29.28c-.53 1.132.281 2.547 1.685 2.83l4.12 1.1c1.402.315 2.495-.251 2.775-1.665.562-1.133-.28-2.547-1.654-2.831l-4.15-1.131c-1.091-.565-2.495.283-2.776 1.697zM26.724 20.008l-1.093 3.93c-.28 1.413.53 2.829 1.654 3.08 1.375.282 2.498-.536 3.028-1.667l.843-3.96c.562-1.383-.28-2.799-1.654-3.08-1.124-.286-2.497.564-2.778 1.697z" fill="#1ABCFE"/>
  <path d="M108.481 304.229c-.762 1.875.38 3.409 2.241 4.176l5.626 1.534c1.522.383 3.383-.768 3.765-2.301.38-1.917-.762-3.409-2.243-4.177l-5.625-1.534c-1.903-.383-3.383.766-3.764 2.302zM122.351 319.869l1.481-5.753c.381-1.493-.718-3.409-2.242-3.794-1.864-.383-3.386.768-3.725 2.301l-1.522 5.712c-.763 1.534.38 3.452 2.285 3.835 1.481.343 3.343-.382 3.723-2.301zM124.213 308.788c-.719 1.534.381 3.452 2.284 3.835l5.584 1.493c1.903.427 3.384-.341 3.763-2.258.763-1.536-.38-3.452-2.241-3.838l-5.626-1.533c-1.48-.766-3.383.384-3.764 2.301zM121.965 296.217l-1.482 5.327c-.379 1.917.72 3.836 2.243 4.177 1.863.383 3.386-.726 4.105-2.26l1.142-5.369c.763-1.875-.38-3.794-2.242-4.176-1.523-.386-3.385.765-3.766 2.301z" fill="#F24E1E"/>
  <path d="M282.461 100.809c-.746 1.836.372 3.337 2.194 4.089l5.508 1.502c1.49.375 3.313-.753 3.687-2.254.372-1.876-.746-3.337-2.197-4.089l-5.507-1.502c-1.863-.375-3.312.75-3.685 2.254zM296.041 116.122l1.45-5.633c.373-1.462-.703-3.337-2.195-3.714-1.825-.376-3.315.751-3.647 2.252l-1.491 5.593c-.746 1.502.372 3.38 2.238 3.755 1.45.335 3.272-.374 3.645-2.253zM297.863 105.272c-.703 1.503.374 3.38 2.237 3.755l5.468 1.462c1.862.418 3.312-.333 3.684-2.211.746-1.503-.373-3.38-2.195-3.757l-5.508-1.502c-1.449-.749-3.312.377-3.686 2.253zM295.663 92.964l-1.451 5.216c-.372 1.877.704 3.756 2.196 4.09 1.824.375 3.315-.711 4.019-2.213l1.118-5.257c.747-1.836-.372-3.715-2.195-4.089-1.492-.378-3.314.75-3.687 2.253z" fill="#F5A623"/>
  <defs>
    <linearGradient id="paint0_linear" x1="327.616" y1="239.258" x2="144.548" y2="239.996" gradientUnits="userSpaceOnUse">
      <stop stop-color="#06F"/>
      <stop offset=".11" stop-color="#599CFF"/>
      <stop offset=".184" stop-color="#C98BFF"/>
      <stop offset=".341" stop-color="#F8C369"/>
      <stop offset=".498" stop-color="#F5A623"/>
      <stop offset=".643" stop-color="#9EF0B7"/>
      <stop offset=".698" stop-color="#50FF8F"/>
      <stop offset="1" stop-color="#00C05B"/>
    </linearGradient>
    <linearGradient id="paint1_linear" x1="236.08" y1="147.709" x2="236.08" y2="330.784" gradientUnits="userSpaceOnUse">
      <stop stop-color="#fff"/>
      <stop offset="1" stop-color="#fff" stop-opacity="0"/>
    </linearGradient>
    <linearGradient id="paint2_linear" x1="309.693" y1="221.335" x2="126.625" y2="222.073" gradientUnits="userSpaceOnUse">
      <stop stop-color="#06F"/>
      <stop offset=".11" stop-color="#599CFF"/>
      <stop offset=".184" stop-color="#C98BFF"/>
      <stop offset=".341" stop-color="#F8C369"/>
      <stop offset=".498" stop-color="#F5A623"/>
      <stop offset=".643" stop-color="#9EF0B7"/>
      <stop offset=".698" stop-color="#50FF8F"/>
      <stop offset="1" stop-color="#00C05B"/>
    </linearGradient>
    <linearGradient id="paint3_linear" x1="26.691" y1="134.591" x2="212.918" y2="135.4" gradientUnits="userSpaceOnUse">
      <stop stop-color="#06F"/>
      <stop offset=".11" stop-color="#599CFF"/>
      <stop offset=".184" stop-color="#C98BFF"/>
      <stop offset=".341" stop-color="#F8C369"/>
      <stop offset=".498" stop-color="#F5A623"/>
      <stop offset=".643" stop-color="#9EF0B7"/>
      <stop offset=".698" stop-color="#50FF8F"/>
      <stop offset="1" stop-color="#00C05B"/>
    </linearGradient>
    <linearGradient id="paint4_linear" x1="119.806" y1="48.117" x2="119.806" y2="221.045" gradientUnits="userSpaceOnUse">
      <stop stop-color="#fff"/>
      <stop offset="1" stop-color="#fff" stop-opacity="0"/>
    </linearGradient>
    <linearGradient id="paint5_linear" x1="37.316" y1="123.966" x2="223.543" y2="124.775" gradientUnits="userSpaceOnUse">
      <stop stop-color="#06F"/>
      <stop offset=".11" stop-color="#599CFF"/>
      <stop offset=".184" stop-color="#C98BFF"/>
      <stop offset=".341" stop-color="#F8C369"/>
      <stop offset=".498" stop-color="#F5A623"/>
      <stop offset=".643" stop-color="#9EF0B7"/>
      <stop offset=".698" stop-color="#50FF8F"/>
      <stop offset="1" stop-color="#00C05B"/>
    </linearGradient>
    <filter id="filter0_f" x="88.182" y="91.347" width="295.797" height="295.8" filterUnits="userSpaceOnUse" color-interpolation-filters="sRGB">
      <feFlood flood-opacity="0" result="BackgroundImageFix"/>
      <feBlend mode="normal" in="SourceGraphic" in2="BackgroundImageFix" result="shape"/>
      <feGaussianBlur stdDeviation="28.181" result="effect1_foregroundBlur"/>
    </filter>
    <filter id="filter1_f" x="-29.672" y="-8.246" width="298.956" height="285.654" filterUnits="userSpaceOnUse" color-interpolation-filters="sRGB">
      <feFlood flood-opacity="0" result="BackgroundImageFix"/>
      <feBlend mode="normal" in="SourceGraphic" in2="BackgroundImageFix" result="shape"/>
      <feGaussianBlur stdDeviation="28.181" result="effect1_foregroundBlur"/>
    </filter>
  </defs>
</svg>
