<svg width="417" height="416" viewBox="0 0 417 416" fill="none" xmlns="http://www.w3.org/2000/svg">
<path d="M1.5 208C1.5 322.323 94.1771 415 208.5 415C322.823 415 415.5 322.323 415.5 208C415.5 93.6771 322.823 1 208.5 1C94.1771 1 1.5 93.6771 1.5 208ZM332.7 208C332.7 276.594 277.094 332.2 208.5 332.2C139.906 332.2 84.3 276.594 84.3 208C84.3 139.406 139.906 83.8 208.5 83.8C277.094 83.8 332.7 139.406 332.7 208Z" fill="#F7F7FA"/>
<path d="M208.5 1C254.068 0.999999 298.362 16.0359 334.514 43.7759C370.665 71.5158 396.653 110.409 408.447 154.424L328.468 175.855C321.392 149.446 305.799 126.109 284.108 109.466C262.417 92.8216 235.841 83.8 208.5 83.8V1Z" fill="#EDF7ED" stroke="#00C05B" stroke-width="1.5"/>
<path d="M354.871 354.371C380.565 328.678 399.042 296.673 408.447 261.576C417.851 226.478 417.851 189.522 408.447 154.424L328.468 175.855C334.111 196.913 334.111 219.087 328.468 240.145C322.825 261.204 311.739 280.407 296.323 295.823L354.871 354.371Z" fill="#FDECEA" stroke="#DB210F" stroke-width="1.5"/>
<path d="M62.1289 354.371C100.949 393.191 153.6 415 208.5 415C263.4 415 316.051 393.191 354.871 354.371L296.323 295.823C273.031 319.115 241.44 332.2 208.5 332.2C175.56 332.2 143.969 319.115 120.677 295.823L62.1289 354.371Z" fill="#E9F6FF" stroke="#1ABCFE" stroke-width="1.5"/>
<path d="M8.55334 154.424C-0.851135 189.522 -0.851105 226.478 8.55338 261.576C17.9578 296.674 36.4354 328.678 62.1289 354.371L120.677 295.823C105.261 280.407 94.1747 261.204 88.532 240.145C82.8893 219.087 82.8893 196.913 88.532 175.855L8.55334 154.424Z" fill="#FAF4FF" stroke="#AF5CF8" stroke-width="1.5"/>
<path d="M208.5 1C162.932 1 118.638 16.036 82.4864 43.7759C46.335 71.5158 20.3471 110.409 8.55334 154.424L88.532 175.855C95.6083 149.446 111.201 126.109 132.892 109.466C154.583 92.8216 181.159 83.8 208.5 83.8V1Z" fill="#E4EEF1" stroke="#7C7C87" stroke-width="1.5"/>
<path fill-rule="evenodd" clip-rule="evenodd" d="M100.261 62L100.257 62C97.8781 62.0062 95.5985 62.954 93.9165 64.636C92.2344 66.3181 91.2867 68.5976 91.2805 70.9764C91.2804 71.0027 91.281 71.0289 91.2823 71.0552C91.2933 71.2754 91.3163 71.4945 91.3509 71.7116C91.218 71.7945 91.0873 71.88 90.9587 71.9679C89.6109 72.8897 88.5264 74.0733 87.8003 75.506C86.9449 74.0243 86.7805 72.1513 86.7805 69.5005C86.7805 68.6721 86.1089 68.0005 85.2805 68.0005C84.4521 68.0005 83.7805 68.6721 83.7805 69.5005C83.7805 73.0525 84.0105 76.4069 86.821 79.0298C86.7941 79.3437 86.7805 79.665 86.7805 79.9937V84.5132H80.7805C79.9521 84.5132 79.2805 85.1848 79.2805 86.0132C79.2805 86.8416 79.9521 87.5132 80.7805 87.5132H86.7805V89.0002C86.7805 90.7764 87.1276 92.4749 87.7573 94.0315C86.716 94.963 85.8078 95.9632 85.1244 97.1385C84.2367 98.6651 83.7805 100.395 83.7805 102.501C83.7805 103.329 84.4521 104.001 85.2805 104.001C86.1089 104.001 86.7805 103.329 86.7805 102.501C86.7805 100.862 87.1263 99.6638 87.7178 98.6465C88.0982 97.9924 88.6006 97.3774 89.2411 96.7501C91.6803 100.209 95.7 102.483 100.229 102.5C100.239 102.5 100.248 102.501 100.258 102.501C100.265 102.501 100.273 102.501 100.28 102.501C100.298 102.501 100.315 102.501 100.332 102.5C104.861 102.483 108.88 100.209 111.32 96.7502C111.96 97.3775 112.463 97.9926 112.843 98.6468C113.434 99.6643 113.78 100.863 113.78 102.501C113.78 103.329 114.452 104.001 115.28 104.001C116.109 104.001 116.78 103.329 116.78 102.501C116.78 100.396 116.324 98.6656 115.436 97.1389C114.753 95.9635 113.845 94.9632 112.804 94.0316C113.433 92.475 113.78 90.7764 113.78 89.0002V87.5132H119.78C120.609 87.5132 121.28 86.8416 121.28 86.0132C121.28 85.1848 120.609 84.5132 119.78 84.5132H113.78V79.9937C113.78 79.7237 113.772 79.4592 113.756 79.2C116.559 76.5527 116.78 73.0221 116.78 69.5005C116.78 68.6721 116.109 68.0005 115.28 68.0005C114.452 68.0005 113.78 68.6721 113.78 69.5005C113.78 72.0667 113.624 73.9821 112.851 75.4866C112.127 73.9385 111.005 72.6995 109.577 71.764C109.465 71.6902 109.351 71.6186 109.235 71.5489C109.258 71.3801 109.273 71.21 109.279 71.0392C109.28 71.0183 109.281 70.9973 109.28 70.9764C109.274 68.5976 108.326 66.3181 106.644 64.636C104.962 62.954 102.683 62.0062 100.304 62L100.261 62ZM106.84 73.6739C106.853 73.6801 106.866 73.6861 106.879 73.692C107.256 73.8664 107.608 74.0601 107.933 74.2733C109.668 75.4097 110.78 77.1782 110.78 79.9937V85.9899L110.78 86.0132L110.78 86.0365V89.0002C110.78 90.689 110.376 92.2885 109.658 93.7063C109.64 93.7389 109.623 93.772 109.607 93.8055C108.076 96.7549 105.185 98.8993 101.78 99.3924V77.001C101.78 76.1726 101.109 75.501 100.28 75.501C99.452 75.501 98.7804 76.1726 98.7804 77.001V99.3924C95.3748 98.8991 92.4828 96.753 90.9515 93.8017C90.937 93.7708 90.9213 93.7402 90.9045 93.71C90.186 92.2912 89.7805 90.6905 89.7805 89.0002V86.0263L89.7805 86.0132L89.7805 86.0001V79.9937C89.7805 77.4594 90.8687 75.6639 92.6522 74.4442C92.9873 74.215 93.3496 74.0048 93.7366 73.8142C93.7538 73.8062 93.7708 73.7979 93.7875 73.7893C95.5269 72.9453 97.7599 72.4937 100.28 72.4937C102.858 72.4937 105.106 72.8805 106.84 73.6739ZM106.235 70.2594C106.071 68.941 105.472 67.7065 104.523 66.7573C103.402 65.6364 101.883 65.0046 100.298 65H100.263C98.6777 65.0046 97.1587 65.6364 96.0378 66.7573C95.0651 67.7301 94.4607 69.0025 94.3149 70.3578C96.1494 69.7683 98.1856 69.4937 100.28 69.4937C102.356 69.4937 104.392 69.7187 106.235 70.2594Z" fill="#7C7C87"/>
<path d="M377.651 239.688L366.913 232.818C366.486 232.604 366.014 232.496 365.536 232.502C365.059 232.508 364.59 232.627 364.168 232.851L353.58 239.955C353.339 240.083 353.137 240.273 352.997 240.507C352.856 240.741 352.782 241.008 352.782 241.281V269.012C352.782 269.271 352.849 269.525 352.976 269.75C353.103 269.975 353.287 270.164 353.508 270.297C353.73 270.431 353.982 270.504 354.241 270.511C354.5 270.519 354.756 270.459 354.984 270.338L364.155 264.357C364.58 264.132 365.054 264.012 365.535 264.008C366.016 264.004 366.491 264.116 366.92 264.335L377.407 271.178C377.833 271.395 378.303 271.507 378.781 271.505C379.258 271.504 379.728 271.388 380.151 271.168L390.973 264.049C391.217 263.922 391.421 263.731 391.564 263.496C391.706 263.262 391.782 262.992 391.782 262.718V234.994C391.782 234.735 391.715 234.481 391.588 234.256C391.461 234.03 391.277 233.842 391.056 233.709C390.834 233.575 390.582 233.501 390.323 233.494C390.064 233.487 389.808 233.547 389.58 233.668L380.392 239.655C379.971 239.878 379.502 239.997 379.026 240.003C378.549 240.009 378.078 239.901 377.651 239.688Z" stroke="#DB210F" stroke-width="2" stroke-linecap="round" stroke-linejoin="round"/>
<path d="M379.031 240.004V271.504" stroke="#DB210F" stroke-width="2" stroke-linecap="round" stroke-linejoin="round"/>
<path d="M365.53 232.501V264.001" stroke="#DB210F" stroke-width="2" stroke-linecap="round" stroke-linejoin="round"/>
<path fill-rule="evenodd" clip-rule="evenodd" d="M200.008 354.501C196.798 354.501 193.661 355.453 190.992 357.236C188.324 359.019 186.244 361.554 185.016 364.519C183.788 367.484 183.466 370.747 184.092 373.894C184.718 377.042 186.264 379.933 188.533 382.203C190.803 384.472 193.694 386.018 196.842 386.644C199.99 387.27 203.252 386.949 206.218 385.72C207.729 385.095 209.128 384.247 210.373 383.214L220.22 393.061C220.805 393.647 221.755 393.647 222.341 393.061C222.927 392.475 222.927 391.525 222.341 390.939L212.494 381.093C212.851 380.662 213.187 380.212 213.5 379.744C215.283 377.075 216.235 373.938 216.235 370.728C216.235 366.425 214.525 362.298 211.482 359.254C208.439 356.211 204.311 354.502 200.008 354.501ZM209.36 361.376C206.88 358.895 203.516 357.502 200.008 357.501C197.392 357.501 194.834 358.277 192.659 359.731C190.484 361.184 188.789 363.25 187.787 365.667C186.786 368.084 186.524 370.743 187.035 373.309C187.545 375.875 188.805 378.232 190.655 380.082C192.505 381.931 194.861 383.191 197.427 383.702C199.993 384.212 202.653 383.95 205.07 382.949C207.486 381.948 209.552 380.252 211.006 378.077C212.459 375.902 213.235 373.345 213.235 370.729C213.235 367.221 211.841 363.856 209.36 361.376Z" fill="#0066FF"/>
<path fill-rule="evenodd" clip-rule="evenodd" d="M59.7198 234.499C60.2247 234.5 60.7246 234.6 61.1905 234.795C61.6565 234.99 62.0792 235.275 62.4345 235.634L62.4382 235.637L72.6686 246.041C73.3706 246.752 73.7695 247.71 73.78 248.708C73.7803 248.721 73.7805 248.735 73.7805 248.749C73.7805 248.76 73.7804 248.771 73.7802 248.781V264.874C73.7802 267.942 71.3607 270.499 68.2536 270.499H63.2803V273.874C63.2803 276.942 60.8607 279.499 57.7537 279.499H40.3115C37.2009 279.499 34.7803 276.943 34.7803 273.874V249.115C34.789 247.628 35.3835 246.205 36.4349 245.154C37.4862 244.102 38.9097 243.508 40.3965 243.499L40.4053 243.499L45.2802 243.499V240.115C45.2889 238.628 45.8834 237.205 46.9348 236.154C47.9861 235.102 49.4096 234.508 50.8964 234.499L50.9052 234.499L59.7198 234.499ZM58.0305 237.499H50.9101C50.2142 237.504 49.5482 237.783 49.0561 238.275C48.564 238.767 48.2853 239.433 48.2802 240.129V243.499H49.2313C49.7358 243.5 50.235 243.601 50.7 243.797C51.1647 243.992 51.5858 244.278 51.9388 244.638L62.174 255.047C62.8834 255.772 63.2805 256.746 63.2803 257.761V267.499H68.2536C69.6278 267.499 70.7802 266.362 70.7802 264.874V250.249H62.1376C61.0524 250.236 60.0153 249.799 59.2479 249.032C58.4804 248.264 58.0436 247.227 58.0306 246.142L58.0304 246.124L58.0305 237.499ZM69.6489 247.249H62.1663C61.8669 247.244 61.5811 247.122 61.3692 246.91C61.1573 246.698 61.0359 246.413 61.0305 246.113V238.485L69.6489 247.249ZM47.5302 246.499H40.4102C39.7143 246.504 39.0483 246.783 38.5562 247.275C38.0641 247.767 37.7854 248.433 37.7803 249.129V273.874C37.7803 275.361 38.9315 276.499 40.3115 276.499H57.7537C59.1279 276.499 60.2803 275.362 60.2803 273.874V259.249H51.6374C50.5521 259.236 49.515 258.799 48.7476 258.032C47.9802 257.264 47.5433 256.227 47.5304 255.142L47.5301 255.124L47.5302 246.499ZM59.149 256.249H51.666C51.3666 256.244 51.0808 256.122 50.8689 255.91C50.657 255.698 50.5357 255.413 50.5302 255.113V247.484L59.149 256.249Z" fill="#AF5CF8"/>
<path fill-rule="evenodd" clip-rule="evenodd" d="M303.28 60.4994C304.109 60.4994 304.78 61.1709 304.78 61.9994V102.499H345.28C346.109 102.499 346.78 103.171 346.78 103.999C346.78 104.828 346.109 105.499 345.28 105.499H304.78C303.985 105.499 303.222 105.183 302.659 104.621C302.096 104.058 301.78 103.295 301.78 102.499V61.9994C301.78 61.1709 302.452 60.4994 303.28 60.4994Z" fill="#00C05B"/>
<path fill-rule="evenodd" clip-rule="evenodd" d="M311.156 81.5007C310.948 81.5007 310.781 81.6686 310.781 81.8757V96.1257C310.781 96.3328 310.948 96.5007 311.156 96.5007H314.906C315.113 96.5007 315.281 96.3328 315.281 96.1257V81.8757C315.281 81.6686 315.113 81.5007 314.906 81.5007H311.156ZM307.781 81.8757C307.781 80.0117 309.292 78.5007 311.156 78.5007H314.906C316.769 78.5007 318.281 80.0117 318.281 81.8757V96.1257C318.281 97.9897 316.769 99.5007 314.906 99.5007H311.156C309.292 99.5007 307.781 97.9897 307.781 96.1257V81.8757Z" fill="#00C05B"/>
<path fill-rule="evenodd" clip-rule="evenodd" d="M324.656 77.0004C324.448 77.0004 324.281 77.1683 324.281 77.3754V96.1254C324.281 96.3325 324.448 96.5004 324.656 96.5004H328.406C328.613 96.5004 328.781 96.3325 328.781 96.1254V77.3754C328.781 77.1683 328.613 77.0004 328.406 77.0004H324.656ZM321.281 77.3754C321.281 75.5114 322.792 74.0004 324.656 74.0004H328.406C330.269 74.0004 331.781 75.5114 331.781 77.3754V96.1254C331.781 97.9893 330.269 99.5004 328.406 99.5004H324.656C322.792 99.5004 321.281 97.9893 321.281 96.1254V77.3754Z" fill="#00C05B"/>
<path fill-rule="evenodd" clip-rule="evenodd" d="M338.122 70.9999C337.914 70.9999 337.747 71.1678 337.747 71.3749V96.1249C337.747 96.332 337.914 96.4999 338.122 96.4999H341.872C342.079 96.4999 342.247 96.332 342.247 96.1249V71.3749C342.247 71.1678 342.079 70.9999 341.872 70.9999H338.122ZM334.747 71.3749C334.747 69.5109 336.258 67.9999 338.122 67.9999H341.872C343.736 67.9999 345.247 69.5109 345.247 71.3749V96.1249C345.247 97.9889 343.736 99.4999 341.872 99.4999H338.122C336.258 99.4999 334.747 97.9889 334.747 96.1249V71.3749Z" fill="#00C05B"/>
</svg>
