<svg viewBox="0 0 416 416" fill="none" xmlns="http://www.w3.org/2000/svg">
  <path d="M1 208c0 114.323 92.677 207 207 207s207-92.677 207-207S322.323 1 208 1 1 93.677 1 208zm331.2 0c0 68.594-55.606 124.2-124.2 124.2S83.8 276.594 83.8 208 139.406 83.8 208 83.8 332.2 139.406 332.2 208z" fill="#F7F7FA"/>
  <path d="M208 1a207.001 207.001 0 01199.947 153.424l-79.979 21.431A124.197 124.197 0 00208 83.8V1z" fill="#E4EEF1" stroke="#7C7C87" stroke-width="1.5"/>
  <path d="M354.371 354.371a207.002 207.002 0 0053.576-199.947l-79.979 21.431a124.204 124.204 0 01-32.145 119.968l58.548 58.548z" fill="#FDECEA" stroke="#DB210F" stroke-width="1.5"/>
  <path d="M61.629 354.371a207 207 0 00292.742 0l-58.548-58.548a124.2 124.2 0 01-175.646 0l-58.548 58.548z" fill="#E9F6FF" stroke="#1ABCFE" stroke-width="1.5"/>
  <path d="M8.053 154.424A207.003 207.003 0 0061.63 354.371l58.548-58.548a124.2 124.2 0 01-32.145-119.968L8.053 154.424z" fill="#FAF4FF" stroke="#AF5CF8" stroke-width="1.5"/>
  <path d="M208 1A207 207 0 008.053 154.424l79.979 21.431A124.197 124.197 0 01208 83.8V1z" fill="#EDF7ED" stroke="#00C05B" stroke-width="1.5"/>
  <path fill-rule="evenodd" clip-rule="evenodd" d="M323.391 65.428c3.437-3.411 8.809-4.321 13.002-2.524a1.598 1.598 0 01.94 1.178 1.595 1.595 0 01-.446 1.419l-5.631 5.634a1.51 1.51 0 00-.002 2.127l2.486 2.486a1.507 1.507 0 002.126.001l.002-.001 5.664-5.67.002-.001a1.597 1.597 0 012.069-.156c.203.15.368.345.481.57l.008.016c.91 1.87 1.111 4.29.712 6.594-.402 2.318-1.442 4.702-3.234 6.467-3.376 3.333-8.253 3.424-12.194 2.369a1.494 1.494 0 00-1.476.425l-.002.002-14.411 15.642a6.03 6.03 0 01-4.311 2.011 6.02 6.02 0 01-5.772-3.795 6.003 6.003 0 01-.421-2.4 6 6 0 012.013-4.312L320.6 79.259l.003-.003a1.495 1.495 0 00.421-1.498c-1.117-3.972-1.059-8.93 2.367-12.33zm2.309 18.894l-14.448 15.682a3.015 3.015 0 11-4.257-4.257l15.635-14.28.007-.006a4.49 4.49 0 001.275-4.514c-.983-3.498-.715-7.1 1.593-9.39 1.996-1.981 4.911-2.83 7.562-2.478l-3.936 3.938-.002.003a4.505 4.505 0 000 6.359l.002.002 2.491 2.491.004.004a4.509 4.509 0 006.356 0l.004-.004 3.964-3.967c.088.825.061 1.74-.102 2.684-.319 1.841-1.13 3.608-2.384 4.843-2.282 2.252-5.842 2.536-9.314 1.606h-.003a4.495 4.495 0 00-4.447 1.284z" fill="#7C7C87"/>
  <path d="M309 99.5a1.5 1.5 0 100-3 1.5 1.5 0 000 3z" fill="#7C7C87"/>
  <path d="M366.49 242.108a11.193 11.193 0 0113.329 2.161l.027.029.432.503 1.376-1.376a.8.8 0 01.563-.238l.003-.002a.794.794 0 01.575.235.797.797 0 01.238.574v5.584a.808.808 0 01-.808.808h-5.582a.809.809 0 01-.571-1.379l2.079-2.079-.528-.614a8.191 8.191 0 101.826 8.414 1.5 1.5 0 012.829 1 11.193 11.193 0 01-21.494-1.382 11.196 11.196 0 015.706-12.238z" fill="#DB210F"/>
  <path fill-rule="evenodd" clip-rule="evenodd" d="M352.281 252c0-10.766 8.734-19.5 19.5-19.5s19.5 8.734 19.5 19.5-8.734 19.5-19.5 19.5-19.5-8.734-19.5-19.5zm19.5-16.5c-9.109 0-16.5 7.391-16.5 16.5s7.391 16.5 16.5 16.5 16.5-7.391 16.5-16.5-7.391-16.5-16.5-16.5z" fill="#DB210F"/>
  <path d="M186.609 359.563a1.5 1.5 0 012.108-.234l7.5 6a1.5 1.5 0 010 2.343l-7.5 6a1.5 1.5 0 01-1.874-2.343l6.036-4.829-6.036-4.828a1.5 1.5 0 01-.234-2.109zM196.78 370.997a1.5 1.5 0 000 3h6a1.5 1.5 0 100-3h-6z" fill="#06F"/>
  <path fill-rule="evenodd" clip-rule="evenodd" d="M180.281 359a6 6 0 016-6h33a6 6 0 016 6v30a6 6 0 01-6 6h-33a6 6 0 01-6-6v-30zm6-3a3 3 0 00-3 3v30a3 3 0 003 3h33a3 3 0 003-3v-30a3 3 0 00-3-3h-33z" fill="#06F"/>
  <path d="M60.352 254.739l-4.453 7.078a2.912 2.912 0 01-.656.656 2.825 2.825 0 01-3.912-.674 2.825 2.825 0 01.63-3.92l7.079-4.453a.96.96 0 011.097 0 .944.944 0 01.215 1.313z" fill="#AF5CF8"/>
  <path fill-rule="evenodd" clip-rule="evenodd" d="M31.282 259.991c0-12.426 10.076-22.489 22.5-22.489 12.425 0 22.5 10.064 22.5 22.49.007 5.65-2.17 11.101-5.971 15.262l-.005.006a3.848 3.848 0 01-1.293.919 3.847 3.847 0 01-3.106-.008 3.858 3.858 0 01-1.289-.926c.002.002-3.04-2.687-4.917-3.511a14.726 14.726 0 00-16.757 3.512l.002-.001-.004.003.002-.002a3.86 3.86 0 01-4.393.933c-.122-.053-1.256-.881-1.252-.876-3.957-3.958-6.024-9.769-6.017-15.312zm22.5-19.489c-10.77 0-19.5 8.723-19.5 19.49v.002a19.43 19.43 0 005.18 13.23.863.863 0 00.981.204.873.873 0 00.288-.207l.003-.004a17.736 17.736 0 0113.048-5.725 17.737 17.737 0 0113.048 5.725l.003.004a.86.86 0 001.267.006l.002-.003c3.297-3.607 5.187-8.33 5.18-13.23v-.002c0-10.767-8.73-19.49-19.5-19.49z" fill="#AF5CF8"/>
  <path fill-rule="evenodd" clip-rule="evenodd" d="M53.78 243.498a1.5 1.5 0 011.5 1.5v3a1.5 1.5 0 11-3 0v-3a1.5 1.5 0 011.5-1.5zM64.28 260.001a1.5 1.5 0 011.5-1.5h3a1.5 1.5 0 010 3h-3a1.5 1.5 0 01-1.5-1.5zM37.28 260.001a1.5 1.5 0 011.5-1.5h3a1.5 1.5 0 010 3h-3a1.5 1.5 0 01-1.5-1.5zM42.113 248.331a1.501 1.501 0 012.122 0l2.123 2.123a1.5 1.5 0 01-2.122 2.122l-2.123-2.123a1.5 1.5 0 010-2.122zM65.45 248.331a1.5 1.5 0 010 2.122l-2.123 2.123a1.501 1.501 0 01-2.121-2.122l2.122-2.123a1.502 1.502 0 012.122 0z" fill="#AF5CF8"/>
  <path fill-rule="evenodd" clip-rule="evenodd" d="M101.781 67c-2 0-2 0-2 2v26c0 2 0 2 2 2h18c2 0 2 0 2-2V69c0-2 0-2-2-2h-18zm-4 2c0-4 0-4 4-4h18c4 0 4 0 4 4v26c0 4 0 4-4 4h-18c-4 0-4 0-4-4V69z" fill="#00C05B"/>
  <path d="M95.78 69h-6c-4 0-4 0-4 4v18c0 4 0 4 4 4h6v-2h-6c-2 0-2 0-2-2V73c0-2 0-2 2-2h6v-2zM83.78 73h-4c-4 0-4 1.5-4 4v12c0 4 0 4 4 4h4v-2h-4c-2 0-2 0-2-2V77c0-2 0-2 2-2h4v-2z" fill="#00C05B"/>
</svg>
