<svg width="59" height="59" viewBox="0 0 59 59" fill="none" xmlns="http://www.w3.org/2000/svg">
<path fill-rule="evenodd" clip-rule="evenodd" d="M29.5 59C45.7924 59 59 45.7924 59 29.5C59 13.2076 45.7924 0 29.5 0C13.2076 0 0 13.2076 0 29.5C0 45.7924 13.2076 59 29.5 59Z" fill="#5F3EFF"/>
<path fill-rule="evenodd" clip-rule="evenodd" d="M22.3213 43C35.9062 43 43.3366 32.6115 43.3366 23.6026C43.3366 23.3075 43.3366 23.0138 43.315 22.7214C44.7606 21.7563 46.0084 20.5614 47 19.1925C45.652 19.7439 44.222 20.1054 42.7578 20.2652C44.2996 19.4132 45.4536 18.0731 46.005 16.4944C44.5551 17.2885 42.9689 17.8481 41.3149 18.1492C39.0254 15.9021 35.3874 15.3522 32.441 16.8076C29.4945 18.2631 27.9722 21.3621 28.7278 24.3669C22.7891 24.0921 17.256 21.503 13.5056 17.244C11.5452 20.359 12.5465 24.3441 15.7923 26.3446C14.6169 26.3125 13.4671 26.0198 12.44 25.4913C12.44 25.5192 12.44 25.5485 12.44 25.5777C12.441 28.8229 14.9193 31.618 18.3656 32.2606C17.2782 32.5343 16.1373 32.5743 15.0306 32.3776C15.9982 35.1547 18.7711 37.0572 21.931 37.1119C19.3156 39.0092 16.0847 40.0391 12.7582 40.036C12.1706 40.035 11.5835 40.0021 11 39.9377C14.3777 41.9384 18.3079 42.9996 22.3213 42.9947" fill="white"/>
</svg>
