<svg viewBox="0 0 570 451" fill="none" xmlns="http://www.w3.org/2000/svg">
  <path d="M334.19 153.015c4.774-2.724 12.457-2.723 17.228.004l207.934 118.849c4.839 2.766 4.841 7.28.003 10.047L274.893 444.631c-4.767 2.727-12.447 2.732-17.223.01L49.0659 325.803c-4.8569-2.767-4.8604-7.291-.0078-10.061L334.19 153.015z" fill="#272733" fill-opacity=".12"/>
  <path d="M549.968 225.867c7.569-.682 14.352 2.769 14.132 7.19l-.378 7.586c-.09 1.801-1.368 3.514-3.572 4.79L277.882 408.798c-4.785 2.77-12.555 2.77-17.341.001L54.0486 289.325c-2.3176-1.341-3.6063-3.162-3.5771-5.057l.1139-7.397c.0533-3.46 4.436-6.389 10.3578-6.923l489.0248-44.081z" fill="#89C5FE"/>
  <path d="M337.273 109.397c4.776-2.719 12.451-2.715 17.217.009l205.525 117.459c4.84 2.766 4.842 7.28.004 10.048l-282.57 161.624c-4.778 2.733-12.479 2.73-17.251-.006L54.3655 280.497c-4.834-2.772-4.82-7.288.0313-10.05l282.8762-161.05z" fill="#E9F6FF"/>
  <path fill-rule="evenodd" clip-rule="evenodd" d="M318.043 155.64c1.58.852 2.17 2.823 1.317 4.403l-61.912 114.758c1.386-.825 2.895-1.724 4.516-2.688 9.053-5.389 21.586-12.844 35.505-21.111 27.834-16.532 61.216-36.316 83.388-49.306 1.549-.907 3.54-.388 4.447 1.161.908 1.549.388 3.54-1.161 4.447-22.153 12.98-55.52 32.754-83.355 49.287-13.487 8.011-25.674 15.259-34.653 20.603l186.283-33.891c1.766-.322 3.458.849 3.78 2.615.321 1.766-.85 3.458-2.616 3.78l-204 37.115c-.751.136-1.527.004-2.19-.374l-98-55.796c-1.56-.888-2.104-2.873-1.216-4.433.888-1.559 2.872-2.104 4.432-1.216l95.11 54.152 65.922-122.189c.852-1.58 2.823-2.17 4.403-1.317z" fill="#AF5CF8" fill-opacity=".15"/>
  <g filter="url(#filter0_di)">
    <path fill-rule="evenodd" clip-rule="evenodd" d="M339.465 82.224c.966-.4386 2.102-.2209 2.837.5432l.031.0323c.957.9953.926 2.5779-.069 3.5349-.549.5278-1.277.7551-1.98.6857-.89-.0581-1.72-.5919-2.115-1.4608-.571-1.2569-.015-2.739 1.242-3.3104l.054-.0249zM320.86 95.4421c.26-.6197.271-1.3416-.029-2.0015-.572-1.257-2.054-1.8128-3.311-1.2414l-.055.0248c-.771.3505-1.312 1.0676-1.437 1.9053-.126.8377.181 1.6819.816 2.2432l.032.0286c1.034.9148 2.614.8181 3.529-.2161.2-.2258.351-.4777.455-.7429zm30.376.2234c.995-.9569 2.578-.9259 3.535.0694l.031.0323c.044.0462.087.094.128.1435l.035.0423c.877 1.0658.725 2.6413-.341 3.5191-1.056.8699-2.613.7279-3.495-.3123-.918-.9972-.875-2.5502.107-3.4943zm-21.641 8.6495c.915-1.034 2.495-1.131 3.529-.216l.032.028c1.035.915 1.131 2.495.216 3.529-.914 1.035-2.494 1.131-3.528.216l-.033-.028c-1.034-.915-1.131-2.495-.216-3.529zm35.781 8.213c1.066-.878 2.641-.725 3.519.34l.035.043c.807.98.751 2.409-.13 3.324l-.033.034c-.958.994-2.54 1.023-3.535.065-.502-.483-.758-1.126-.765-1.773-.031-.755.28-1.515.909-2.033zm-55.061 1.979c.706-.053 1.401.197 1.913.686l.029.028c.997.954 1.033 2.537.078 3.534-.302.316-.666.535-1.055.657-.771.267-1.657.151-2.35-.386-1.091-.846-1.29-2.416-.445-3.508l.039-.049c.434-.56 1.085-.91 1.791-.962zm88.899 6.349c1.003-.602 2.29-.427 3.097.421l.037.038c.952 1 .912 2.583-.088 3.535-.659.627-1.57.823-2.388.599-.625-.153-1.192-.546-1.55-1.142-.71-1.184-.326-2.72.858-3.43l.034-.021zm-79.049 5.389c.954-.998 2.537-1.033 3.534-.079l.029.027c.994.951 1.033 2.527.087 3.526l-.034.036c-.949 1.002-2.532 1.045-3.534.095-.579-.548-.838-1.308-.77-2.045.038-.565.266-1.12.688-1.56zm35.353.171c.994.958 1.023 2.54.065 3.534l-.066.069c-.958.994-2.54 1.023-3.535.065-.994-.958-1.023-2.54-.065-3.535l.066-.068c.958-.994 2.54-1.024 3.535-.065zm33.41 3.527c.71 1.184.326 2.72-.858 3.43l-.068.041c-1.184.711-2.72.327-3.43-.857s-.326-2.72.858-3.43l.068-.041c1.184-.711 2.72-.327 3.43.857zm-91.565 6.086c-.159-.403-.426-.77-.793-1.055-1.091-.846-2.662-.646-3.507.445l-.039.05c-.51.658-.659 1.527-.397 2.318.262.791.901 1.399 1.704 1.622l.067.018c1.33.37 2.708-.409 3.078-1.739.159-.572.105-1.153-.113-1.659zm116.127.621c1-.951 2.583-.912 3.534.088l.074.077c.952 1 .912 2.583-.088 3.535-1 .951-2.583.912-3.534-.088l-.074-.077c-.952-1-.912-2.583.088-3.535zm-38.692 1.057c-.792-.79-2.047-.973-3.05-.371l-.034.02c-.893.536-1.36 1.568-1.173 2.592.186 1.024.988 1.825 2.012 2.012l.068.012c1.359.247 2.66-.654 2.907-2.012.156-.857-.145-1.692-.73-2.253zm-32.53 2.459c.994.958 1.023 2.54.065 3.534l-.033.035c-.288.299-.646.521-1.041.647l-.057.018c-1.315.419-2.721-.307-3.141-1.623-.367-1.153.146-2.377 1.165-2.943.948-.582 2.204-.476 3.042.332zm-32.015.234c1.002.949 1.045 2.532.095 3.534l-.067.071c-.949 1.002-2.532 1.045-3.534.095-1.002-.949-1.045-2.532-.095-3.534l.067-.071c.949-1.002 2.532-1.045 3.534-.095zm9.271 3.412c.37-1.33 1.748-2.109 3.078-1.739l.067.018c.728.202 1.325.723 1.625 1.416.3.694.271 1.486-.08 2.155l-.023.043c-.642 1.223-2.153 1.694-3.375 1.052-.373-.196-.676-.472-.899-.797-.437-.597-.606-1.38-.393-2.148zm78.448.228c.247-1.358 1.548-2.259 2.907-2.012l.068.012c1.045.19 1.856 1.02 2.022 2.069.166 1.049-.349 2.089-1.284 2.592l-.048.026c-1.216.655-2.732.2-3.387-1.016-.009-.017-.018-.035-.027-.053-.255-.478-.356-1.043-.251-1.618zm-77.783 4.433c.419 1.315-.308 2.722-1.623 3.141l-.114.036c-1.315.419-2.721-.307-3.141-1.623-.419-1.315.308-2.722 1.623-3.141l.113-.036c1.316-.419 2.722.307 3.142 1.623zm108.051 3.677c1-.951 2.583-.912 3.534.088l.037.039c.603.633.831 1.536.601 2.38-.23.844-.884 1.506-1.725 1.747l-.061.017c-1.328.379-2.711-.389-3.091-1.717-.166-.582-.112-1.174.113-1.688.13-.318.327-.614.592-.866zm52.426-.361c.821.432 1.334 1.284 1.334 2.211v.017c0 1.221-.874 2.237-2.03 2.456-.957.197-1.982-.18-2.569-1.037-.779-1.14-.488-2.695.652-3.475l.035-.024c.766-.524 1.758-.581 2.578-.148zm-97.416 2c.654 1.215.199 2.731-1.016 3.386l-.097.052c-1.216.655-2.732.2-3.387-1.016-.654-1.215-.199-2.731 1.016-3.386l.097-.052c1.216-.655 2.732-.2 3.387 1.016zm-86.696.691c-1.003-.771-2.446-.673-3.335.265l-.034.036c-.784.828-.909 2.082-.303 3.048.607.966 1.79 1.399 2.877 1.053l.057-.018c1.315-.419 2.042-1.826 1.623-3.141-.165-.516-.481-.942-.885-1.243zm109.73 8.896c1.305-.394 2.057-1.765 1.681-3.08-.38-1.328-1.763-2.097-3.091-1.717l-.061.017c-.071.021-.141.044-.21.071l-.041.015c-1.289.496-1.931 1.942-1.436 3.231.486 1.264 1.888 1.907 3.158 1.463zm75.445-3.527c-.414-.811-1.257-1.366-2.229-1.366-1.381 0-2.5 1.119-2.5 2.5V161c0 .537.173 1.06.493 1.491l.032.043c.824 1.109 2.39 1.34 3.498.516 1.013-.752 1.293-2.125.706-3.201zm-167.67-.217c1.223.642 1.694 2.153 1.052 3.376l-.045.086c-.642 1.223-2.153 1.694-3.375 1.052-1.223-.641-1.694-2.152-1.052-3.375l.045-.086c.642-1.223 2.153-1.694 3.375-1.053zm153.29 2.682c.779 1.14.488 2.695-.652 3.475l-.071.048c-1.139.78-2.695.488-3.475-.651-.779-1.14-.488-2.695.652-3.475l.071-.049c1.139-.779 2.695-.488 3.475.652zm-103.599 1.975c.654 1.215.199 2.731-1.016 3.386l-.049.026c-1.215.655-2.732.2-3.386-1.016-.655-1.215-.2-2.732 1.016-3.386l.048-.026c1.216-.655 2.732-.2 3.387 1.016zm27.874 2.048c.495 1.289-.147 2.735-1.436 3.231l-.081.031c-1.289.496-2.735-.147-3.231-1.436-.495-1.289.147-2.735 1.436-3.231l.081-.031c1.289-.496 2.735.147 3.231 1.436zm61.66 6.046c-.053-.109-.115-.216-.185-.319-.78-1.14-2.336-1.431-3.475-.652l-.036.025c-.752.515-1.165 1.399-1.076 2.307.089.907.665 1.695 1.503 2.054l.061.026c1.269.544 2.739-.044 3.283-1.313.305-.713.254-1.489-.075-2.128zm-77.773 1.483c.065-.417.025-.857-.137-1.279-.496-1.289-1.942-1.932-3.231-1.436l-.04.016c-.836.321-1.436 1.065-1.573 1.95-.138.885.209 1.776.908 2.335l.034.027c1.079.863 2.652.688 3.514-.39.293-.366.467-.789.525-1.223zm115.466 2.584c1.108-.824 2.674-.593 3.498.516l.032.043c.143.192.257.404.34.629l.022.061c.476 1.296-.189 2.732-1.485 3.209-1.211.444-2.544-.107-3.102-1.238-.601-1.08-.324-2.464.695-3.22zm-186.043.572c1.223.641 1.694 2.153 1.052 3.375l-.045.087c-.642 1.222-2.153 1.693-3.375 1.052-1.223-.642-1.694-2.153-1.052-3.376l.045-.086c.642-1.223 2.153-1.694 3.375-1.052zm168.207 5.967c.544-1.269 2.014-1.857 3.283-1.313l.061.026c.942.404 1.542 1.342 1.514 2.367-.028 1.024-.679 1.928-1.642 2.279l-.039.015c-1.193.435-2.503-.095-3.074-1.192-.354-.65-.417-1.449-.103-2.182zm-88.377-.078c.862-1.078 2.435-1.253 3.514-.391l.068.055c1.078.863 1.253 2.436.39 3.514-.862 1.078-2.435 1.253-3.514.39l-.068-.054c-1.078-.863-1.253-2.436-.39-3.514zm77.374 5.967c.473 1.297-.194 2.733-1.491 3.206l-.079.029c-1.297.473-2.732-.194-3.206-1.491-.473-1.297.194-2.733 1.491-3.206l.079-.029c1.297-.473 2.732.194 3.206 1.491zm-33.71 1.678c.587-.475 1.358-.659 2.096-.501l.035.008c1.35.289 2.21 1.618 1.92 2.968-.121.567-.426 1.047-.838 1.392-.439.383-1.013.614-1.641.614-1.381 0-2.5-1.119-2.5-2.5v-.037c0-.755.341-1.47.928-1.944zm-29.914 3.355c.862-1.078 2.435-1.253 3.514-.391l.034.028c.666.533 1.015 1.37.924 2.219-.091.849-.609 1.592-1.374 1.972l-.049.024c-1.236.614-2.737.11-3.351-1.127-.285-.575-.329-1.207-.169-1.781.085-.334.241-.657.471-.944zm47.874.717c.473 1.297-.194 2.733-1.491 3.206l-.04.014c-.442.162-.921.195-1.381.096l-.035-.007c-1.35-.289-2.21-1.618-1.92-2.968.237-1.109 1.177-1.888 2.253-1.97 1.116-.12 2.211.528 2.614 1.629zm-150.579-.217c1.223.642 1.694 2.153 1.052 3.376l-.045.086c-.642 1.223-2.153 1.694-3.375 1.052-1.223-.641-1.694-2.153-1.052-3.375l.045-.087c.642-1.222 2.153-1.693 3.375-1.052zm204.807 6.181c1.296-.476 2.732.189 3.208 1.485l.023.061c.462 1.257-.15 2.655-1.386 3.17l-.036.015c-1.274.53-2.738-.073-3.268-1.347-.194-.466-.237-.957-.151-1.419.136-.869.726-1.64 1.61-1.965zm-117.328 3.455c.614 1.237.109 2.737-1.128 3.351l-.097.048c-1.236.614-2.737.109-3.351-1.127-.614-1.237-.109-2.737 1.128-3.351l.097-.048c1.236-.614 2.737-.11 3.351 1.127zm46.712.916c1.381 0 2.5 1.119 2.5 2.5v.037c0 1.381-1.119 2.5-2.5 2.5s-2.5-1.119-2.5-2.5v-.037c0-1.381 1.119-2.5 2.5-2.5zm59.593 2.994c.531 1.275-.072 2.738-1.347 3.269l-.071.03c-1.274.53-2.738-.073-3.268-1.348-.531-1.274.072-2.738 1.347-3.268l.071-.03c1.274-.531 2.738.073 3.268 1.347zm-202.909 3.844c1.223.641 1.694 2.152 1.052 3.375l-.045.086c-.642 1.223-2.153 1.694-3.375 1.053-1.223-.642-1.694-2.153-1.052-3.376l.045-.086c.642-1.223 2.153-1.694 3.375-1.052zm76.022 5.257c1.203-.628 1.688-2.107 1.082-3.328-.614-1.237-2.115-1.742-3.351-1.128l-.049.025c-.065.032-.129.067-.192.105l-.04.025c-1.178.72-1.549 2.259-.829 3.437.708 1.159 2.209 1.537 3.379.864zm112.637-3.168c.531 1.275-.072 2.738-1.347 3.269l-.035.015-.036.014-.053.021c-1.283.512-2.737-.114-3.248-1.397-.511-1.282.114-2.736 1.397-3.247l.018-.007.036-.015c1.274-.531 2.738.072 3.268 1.347zm-33.279-.606c.846-1.036 2.357-1.222 3.43-.423l.057.042c1.107.825 1.336 2.392.511 3.499-.501.672-1.276 1.021-2.055 1.006-.57.01-1.147-.174-1.624-.564-1.069-.873-1.227-2.448-.354-3.517l.035-.043zm11.812 9.202c.511 1.283-.114 2.737-1.397 3.248l-.107.043c-1.283.511-2.737-.115-3.248-1.397-.511-1.283.114-2.737 1.397-3.248l.107-.043c1.283-.511 2.737.114 3.248 1.397zm-106.274.873c.72 1.178.348 2.717-.83 3.437l-.08.049c-1.178.72-2.717.348-3.437-.83-.72-1.178-.348-2.717.83-3.437l.08-.049c1.178-.72 2.717-.348 3.437.83zm-198.775 3.223c.684-1.2 2.21-1.619 3.41-.936l.041.023c1.199.683 1.618 2.21.935 3.41-.683 1.199-2.209 1.618-3.409.935l-.041-.023c-1.2-.683-1.619-2.21-.936-3.409zm128.732 2.608c1.223.642 1.694 2.153 1.052 3.375l-.045.087c-.642 1.222-2.153 1.694-3.375 1.052-1.223-.642-1.694-2.153-1.052-3.375l.045-.087c.642-1.223 2.153-1.694 3.375-1.052zm187.379 1.274c.825-1.107 2.391-1.336 3.498-.511l.058.042c.595.444.963 1.13 1.002 1.872.04.742-.252 1.463-.797 1.967l-.034.031c-1.013.939-2.595.878-3.533-.135-.269-.291-.456-.628-.562-.983-.248-.749-.139-1.603.368-2.283zm-33.03-.163c-.088-.099-.185-.193-.291-.28-1.07-.873-2.645-.715-3.518.355l-.035.042c-.721.883-.754 2.141-.08 3.06.673.919 1.883 1.266 2.941.844l.054-.021c1.283-.511 1.908-1.965 1.397-3.248-.114-.285-.274-.537-.468-.752zM331.53 233.18c.72 1.178.349 2.717-.829 3.437l-.08.049c-1.178.72-2.717.349-3.437-.83-.72-1.178-.349-2.716.83-3.436l.079-.049c1.179-.72 2.717-.349 3.437.829zm-166.41 2.678c.683-1.2 2.21-1.619 3.41-.936l.081.047c1.2.683 1.619 2.209.936 3.409-.684 1.2-2.21 1.619-3.41.936l-.081-.047c-1.2-.683-1.619-2.209-.936-3.409zm150.339 7.144c.72 1.178.348 2.717-.83 3.437l-.08.048c-1.178.72-2.717.349-3.436-.829-.72-1.178-.349-2.717.829-3.437l.08-.049c1.178-.72 2.717-.348 3.437.83zm139.909-.232c.938 1.013.877 2.595-.136 3.533l-.033.031c-.324.299-.72.508-1.149.605l-.046.01c-1.347.304-2.685-.542-2.988-1.889-.258-1.145.314-2.283 1.319-2.786.981-.537 2.238-.362 3.033.496zm-273.915 2.387c.684-1.2 2.21-1.618 3.41-.935l.081.046c1.2.683 1.619 2.21.936 3.409-.683 1.2-2.21 1.619-3.41.936l-.081-.046c-1.2-.683-1.619-2.21-.936-3.41zm256.281 2.897c.304 1.347-.542 2.685-1.889 2.988l-.091.021c-1.347.304-2.685-.542-2.988-1.889-.304-1.347.542-2.685 1.889-2.989l.091-.02c1.347-.304 2.685.542 2.988 1.889zm-169.3-1.475c1.223.642 1.694 2.153 1.052 3.376l-.045.086c-.642 1.223-2.153 1.694-3.375 1.052-1.223-.641-1.694-2.152-1.052-3.375l.045-.087c.642-1.222 2.153-1.693 3.375-1.052zm151.05 5.589c.304 1.347-.542 2.685-1.889 2.988l-.045.011c-.033.007-.065.013-.098.02l-.052.009c-1.358.25-2.661-.649-2.911-2.007s.649-2.661 2.007-2.91m2.988 1.889c-.303-1.346-1.639-2.191-2.985-1.89zm-120.097.655c.72 1.178.349 2.717-.829 3.437l-.08.049c-1.178.72-2.717.348-3.437-.83-.72-1.178-.348-2.717.83-3.437l.08-.049c1.178-.72 2.716-.348 3.436.83zm-101.6 1.634c.683-1.2 2.209-1.619 3.409-.936l.082.046c1.199.684 1.618 2.21.935 3.41-.683 1.2-2.209 1.619-3.409.936l-.082-.047c-1.199-.683-1.618-2.209-.935-3.409zm200.724 1.67c.25 1.358-.649 2.661-2.007 2.911l-.104.019c-1.358.25-2.661-.649-2.911-2.007s.649-2.661 2.007-2.911l.104-.019c1.358-.249 2.661.649 2.911 2.007zm-21 3.861c.25 1.358-.649 2.661-2.007 2.911l-.104.019c-1.358.25-2.661-.649-2.911-2.007s.649-2.661 2.007-2.911l.104-.019c1.358-.249 2.661.649 2.911 2.007zm-94.195 2.656c.72 1.179.349 2.717-.83 3.437l-.08.049c-1.178.72-2.716.349-3.436-.829-.72-1.179-.349-2.717.829-3.437l.08-.049c1.178-.72 2.717-.349 3.437.829zm73.195 1.205c.25 1.358-.649 2.661-2.007 2.911l-.104.019c-1.358.25-2.661-.649-2.911-2.007s.649-2.661 2.007-2.911l.104-.019c1.358-.25 2.661.649 2.911 2.007zm-142.391-.093c.683-1.2 2.21-1.619 3.41-.935l.081.046c1.2.683 1.619 2.209.936 3.409-.684 1.2-2.21 1.619-3.41.936l-.081-.046c-1.2-.683-1.619-2.21-.936-3.41zm45.189.213c1.223.641 1.694 2.153 1.052 3.375l-.045.087c-.642 1.222-2.153 1.693-3.375 1.052-1.223-.642-1.694-2.153-1.052-3.376l.045-.086c.642-1.223 2.153-1.694 3.375-1.052zm76.202 3.741c.25 1.358-.649 2.661-2.007 2.911l-.104.019c-1.358.25-2.661-.649-2.911-2.007s.649-2.661 2.007-2.911l.104-.019c1.358-.25 2.661.649 2.911 2.007zm-21 3.861c.25 1.358-.649 2.661-2.007 2.911l-.104.019c-1.358.249-2.661-.649-2.911-2.007s.649-2.661 2.007-2.911l.104-.019c1.358-.25 2.661.649 2.911 2.007zm-47.266.895c.72 1.178.348 2.717-.83 3.437l-.08.048c-1.178.72-2.717.349-3.437-.829-.72-1.178-.348-2.717.83-3.437l.08-.049c1.178-.72 2.717-.348 3.437.83zm-36.792.59c.684-1.2 2.21-1.619 3.41-.936l.081.046c1.2.683 1.619 2.21.936 3.41-.683 1.2-2.21 1.619-3.41.935l-.081-.046c-1.2-.683-1.619-2.209-.936-3.409zm63.058 2.376c.25 1.358-.649 2.661-2.007 2.91l-.104.02c-1.358.249-2.661-.649-2.911-2.007s.649-2.661 2.007-2.911l.104-.019c1.358-.25 2.661.649 2.911 2.007zm-21 3.861c.25 1.358-.649 2.661-2.007 2.91l-.104.02c-1.358.249-2.661-.649-2.911-2.007s.649-2.661 2.007-2.911l.104-.019c1.358-.25 2.661.649 2.911 2.007zm-24.277 1.907c.622-.207 1.324-.17 1.95.158.274.144.51.331.704.548.026.029.052.058.077.089.271.321.465.715.546 1.159.25 1.357-.649 2.661-2.007 2.91l-.052.01c-.579.106-1.177.005-1.689-.286l-.041-.023c-1.199-.684-1.618-2.21-.935-3.41.33-.579.856-.976 1.447-1.155z" fill="#AF5CF8"/>
  </g>
  <g filter="url(#filter1_d)">
    <path d="M337.071 228.234c-3.905-3.891-3.219-9.329 1.523-12.14s11.76-1.94 15.665 1.951c3.905 3.891 3.219 9.329-1.523 12.14s-11.76 1.94-15.665-1.951z" fill="#fff"/>
    <path d="M338.684 227.279c3.172 3.161 8.871 3.871 12.727 1.585 3.857-2.286 4.411-6.702 1.238-9.863-3.173-3.162-8.872-3.871-12.728-1.585-3.856 2.285-4.41 6.702-1.237 9.863zm8.64-5.121l-5.182-.646c-.18-.026-.345-.106-.458-.222-.114-.115-.167-.259-.15-.398.018-.14.105-.266.244-.35.138-.085.317-.122.498-.103l5.875.732c.183.023.352.101.469.218.117.117.173.262.155.404l-.571 4.553c-.022.139-.114.263-.255.344-.142.082-.322.115-.502.092-.181-.022-.348-.098-.465-.212-.117-.114-.175-.256-.162-.397l.504-4.015z" fill="#AF5CF8"/>
  </g>
  <g filter="url(#filter2_d)">
    <path d="M388.82 259.129c-3.214-4.475-1.64-9.73 3.494-11.728 5.135-1.999 11.92.002 15.135 4.476 3.214 4.475 1.639 9.73-3.495 11.729-5.134 1.998-11.92-.002-15.134-4.477z" fill="#fff"/>
    <path d="M390.567 258.449c2.612 3.636 8.117 5.265 12.297 3.638 4.179-1.627 5.451-5.894 2.839-9.529-2.611-3.636-8.117-5.265-12.296-3.638-4.18 1.627-5.451 5.894-2.84 9.529zm9.364-3.645l-5.006-1.481c-.173-.055-.322-.16-.415-.293-.093-.133-.122-.283-.082-.418.04-.135.147-.245.298-.305.15-.061.333-.068.508-.02l5.675 1.679c.178.052.331.157.428.291.096.135.127.287.086.425l-1.31 4.398c-.045.133-.155.24-.308.298-.153.057-.337.061-.511.009-.175-.052-.326-.154-.423-.285-.097-.132-.131-.281-.095-.418l1.155-3.88z" fill="#AF5CF8"/>
  </g>
  <g filter="url(#filter3_d)">
    <path d="M290.161 200.962c-4.507-1.266-6.258-5.577-3.911-9.627 2.347-4.051 7.904-6.308 12.411-5.042l2.927.823c4.507 1.266 6.258 5.577 3.911 9.628-2.347 4.05-7.904 6.307-12.411 5.041l-2.927-.823z" fill="#fff"/>
    <path d="M292.422 199.998c4.319 1.214 9.366-.471 11.273-3.762s-.048-6.943-4.366-8.156c-4.319-1.214-9.366.47-11.273 3.761-1.907 3.291.048 6.943 4.366 8.157zm4.273-7.374l-4.59 1.532c-.161.05-.339.053-.495.007-.156-.045-.278-.136-.34-.251-.062-.116-.059-.248.009-.368.067-.12.193-.219.351-.275l5.203-1.737c.163-.054.344-.059.503-.014.16.045.285.136.348.253l2.015 3.765c.058.117.051.249-.021.368-.071.119-.2.216-.36.269-.16.053-.338.059-.496.017-.157-.043-.283-.131-.349-.245l-1.778-3.321z" fill="#AF5CF8"/>
  </g>
  <g clip-path="url(#clip0)">
    <path d="M150.315 293.865c.24-.273.25-.6.079-.904l-3.841-5.965c-.096-.159-.283-.292-.469-.4-.186-.107-.395-.228-.626-.309l-10.354-2.205c-.504-.111-1.049-.092-1.52.073l-9.056 3.216c-.448.178-.733.45-.812.763l-.899 6.18c.012.315.229.646.602.887l7.807 4.507c.373.267.946.392 1.535.347l10.705-.519c.544-.046 1.014-.21 1.346-.455l5.503-5.216z" fill="#06F"/>
    <path d="M142.243 297.264c-.023-.013-.047-.027-.024-.04.022-.012-.025-.039-.071-.066-.071-.067-.164-.12-.257-.174-.046-.027-.093-.054-.117-.093l-.023-.014c-.233-.16-.468-.347-.657-.533-.047-.053-.05-.132-.007-.183.024.013 0 0 0 0l-.141-.133c.738-.319 1.358-.731 1.863-1.183.482-.466.826-.987 1.01-1.522l.273.003.022-.013c.067-.038.179-.076.27-.075.387.018.729.062 1.095.119.069.014.137.028.206.042.137.028.252.043.389.071.045 0 .069.014.114.014.046.001.022-.013.045-.026.364.031.678-.096.715-.305.019-.092-.053-.211-.17-.278-.116-.067-.276-.108-.436-.123l-.046-.001c-.045-.001-.09-.001-.114-.015-.136-.001-.273-.003-.386.009-.067.012-.136-.002-.182-.003-.34.009-.727-.009-1.069-.053-.069-.014-.138-.028-.184-.055-.024-.013-.07-.04-.071-.066l-.023-.013-.297-.044c-.008-.21-.04-.433-.048-.643-.215-.868-.883-1.716-1.864-2.411l.154-.116-.022.013c-.025-.066.018-.118.062-.17.244-.141.489-.282.802-.41l.022-.012c.045-.026.113-.038.157-.064.112-.038.201-.089.313-.127l.134-.077c.245-.115.282-.351.071-.498-.117-.093-.323-.135-.55-.138-.182-.002-.34.035-.451.099l-.111.064c-.089.052-.155.117-.22.181-.021.039-.066.065-.11.091l-.023.013c-.198.168-.442.309-.709.463-.09.025-.18.05-.294.035l-.044.026-.202.089c-.277-.134-.577-.256-.901-.392-1.314-.502-2.869-.758-4.414-.751l-.05-.132-.023-.013c-.024-.014-.069-.014-.116-.041-.046-.027-.07-.067-.095-.106-.053-.211-.084-.434-.069-.631.021-.039-.003-.079-.004-.105-.003-.079.017-.144.014-.223-.001-.026-.024-.039-.025-.066l-.001-.026c-.026-.092-.098-.185-.214-.252-.14-.08-.3-.122-.481-.098-.34.035-.56.216-.53.413.024.014.001.027.001.027s.002.052.026.065c.025.066.073.146.122.225.024.04.048.079.072.119.099.211.198.422.206.632.002.053-.04.131-.13.156l.022-.013.006.158c-.067.012-.113.011-.181.024-1.809.213-3.401.783-4.459 1.635l-.23-.082c-.022.013-.045 0-.045 0-.09.025-.204.01-.319-.004-.322-.11-.622-.231-.923-.38-.046-.026-.093-.053-.162-.067-.093-.054-.208-.095-.301-.148-.023-.014-.068-.014-.115-.041-.023-.014-.023-.014-.069-.014-.3-.122-.685-.088-.883.08-.153.143-.077.341.154.448.046.027.07.041.138.055.023.013.023.013.046 0 .022-.013.069.04.093.054.115.041.252.069.344.096.069.014.138.028.184.055l.023.013c.345.097.644.192.967.327l.023.014c.07.04.118.093.12.146.023.013.001.026.001.026l.231.108c-.674.791-.935 1.693-.696 2.601.054.211.106.395.227.593l-.271.023c-.023.013.001.026.001.026-.021.066-.11.117-.2.142-.315.075-.676.123-1.016.158l-.022.013c-.068.012-.113.011-.204.01-.091-.001-.227.023-.385.035-.046-.001-.068.012-.113.011 0 0-.023.013-.046 0-.338.061-.512.269-.414.453.024.04.072.093.118.12.186.107.46.137.708.101 0 0 .022-.013.046 0 .022-.012.067-.012.113-.011.112-.038.225-.05.337-.088l.18-.05c.314-.101.653-.162.991-.223.114-.012.228.002.32.03.023.013.023.013.045 0l.271-.049c.406.517.969.97 1.666 1.373.418.241.881.457 1.41.634.3.122.644.218.943.314l-.062.143c.023.014.023.014.001.027.047.053.073.119.052.184-.106.195-.212.391-.387.572l-.022.013-.087.104c-.066.065-.131.129-.152.195.001.026-.021.039-.02.065 0 0-.022.013.001.026-.062.144-.011.302.175.409.07.04.138.054.23.082.138.028.32.03.454-.021.134-.05.245-.115.31-.206.022-.012-.001-.026-.001-.026.022-.013.021-.039.02-.065.043-.078.063-.144.06-.222.021-.039.02-.066.018-.118l.045-.026c.037-.209.143-.405.273-.587.043-.052.132-.103.245-.115.022-.012.046.001.046.001l.108-.143c1.874.286 3.847.193 5.533-.297l.163.121c.023.013.046 0 .046 0 .091.001.182.029.252.069l.023.013c.212.174.4.36.544.545l.023.013c.024.04.049.08.095.107.049.079.074.145.144.211.024.014.025.04.071.067.023.013.023.013.024.039.025.04.048.054.094.08.209.121.529.151.776.089.222-.155.214-.365.049-.511zm-6.026-4.274l-.916-.196-.338-.529.482-.466.975-.053.697.403-.092.562-.808.279zm5.232 1.352c-.35.336-.794.619-1.307.862l-1.607-1.621c-.165-.146-.081-.329.166-.417.09-.025.157-.038.248-.037l3.254.134c-.144.378-.403.742-.754 1.079zm.88-1.956l-3.195-.356c-.251-.043-.461-.19-.422-.346-.002-.053.019-.092.086-.131l2.106-1.376c.911.654 1.395 1.421 1.425 2.209zm-3.072-3.083l.554.217-2.339 1.216c-.201.116-.542.098-.751-.022-.07-.04-.094-.08-.142-.133l-.616-1.871c1.159.028 2.303.226 3.294.593zm-4.791-.507l.252 1.84c.03.171-.169.312-.464.322-.114.011-.182-.003-.297-.043l-2.877-.942c.864-.579 2.053-.997 3.386-1.177zm-4.152 1.941l2.678 1.11c.186.107.261.279.106.395-.043.052-.132.103-.245.115l-2.928.671c-.302-.765-.175-1.59.389-2.291zm2.518 4.636c-.392-.149-.762-.311-1.11-.512-.488-.282-.91-.629-1.242-.974l3.117-.485c.25-.01.48.072.554.217.025.066.027.119.03.197l-.819 1.761c-.161-.068-.323-.136-.53-.204zm4.769.52c-.882.107-1.837.095-2.728-.035l1.183-1.729c.132-.13.402-.179.632-.123.092.027.184.055.253.095l1.946 1.559c-.427.113-.856.199-1.286.233z" fill="#fff"/>
    <path d="M234.632 353.757c.303.201.696.377 1.109.487.275.056.591.007.768-.122.199-.141.26-.337.117-.497-.148-.316-.365-.647-.649-.939-.262-.305-.454-.596-.624-.874-.169-.251-.247-.502-.28-.777-.01-.263.072-.498.245-.732.194-.273.503-.505.859-.71.71-.437 1.77-.647 2.819-.555 1.094.093 2.153.448 3.222 1.065.511.295 1.001.629 1.401.988.328.267.634.546.896.851l-2.331.836c-.215-.252-.45-.465-.686-.704-.283-.266-.656-.507-1.028-.721-.79-.456-1.385-.569-1.807-.325-.089.051-.155.116-.22.181-.043.078-.04.157-.014.249.027.092.099.211.173.356.074.145.217.331.407.543.309.358.574.742.77 1.112.169.277.248.554.214.842.009.236-.096.458-.292.678-.219.234-.483.44-.795.62-.709.463-1.814.672-2.911.527-1.073-.132-2.224-.54-3.432-1.238-.696-.376-1.28-.79-1.775-1.255-.283-.266-.521-.532-.758-.797l2.375-.888c.262.331.57.663.923.969.442.282.839.562 1.304.83zm-10.357-8.802c.644-.399 1.45-.703 2.305-.928.742-.188 1.535-.269 2.375-.272.773.01 1.504.098 2.193.291.711.179 1.334.436 1.869.745 1.254.724 1.875 1.519 1.862 2.358-.013.84-.731 1.683-2.154 2.505-.133.077-.289.166-.49.256-.177.102-.334.166-.467.243l-5.67-3.273c-.42.296-.609.701-.458 1.096.2.475.649.913 1.275 1.249.442.255.951.498 1.459.714.438.176.921.327 1.425.438l-1.607 1.331c-.252-.043-.482-.125-.735-.193-.322-.109-.644-.218-.922-.353-.324-.135-.647-.271-1.017-.433-.324-.161-.671-.336-.997-.524-.742-.403-1.328-.87-1.757-1.4-.358-.437-.535-.899-.553-1.371.005-.459.216-.902.541-1.305.438-.44.945-.84 1.523-1.174zm6.79 2.867c.2-.115.354-.258.484-.413.154-.143.193-.3.232-.456.017-.171-.013-.342-.11-.5-.121-.199-.309-.358-.564-.506-.256-.148-.533-.256-.876-.326-.275-.056-.572-.099-.867-.09-.295.01-.589.045-.859.121-.27.075-.516.163-.739.266l3.299 1.904zm-7.173-10.506l2.887 1.23-2.49 1.438 3.021 1.743-2.001 1.155-3.02-1.743-2.979 1.719c-.446.231-.775.528-.922.854-.103.274.113.579.694.914.279.161.58.309.88.431.323.136.645.245.99.341l-1.519 1.279c-.459-.111-.896-.261-1.334-.41-.53-.204-1.039-.447-1.504-.715-.603-.322-1.095-.709-1.429-1.133-.263-.331-.368-.7-.335-1.041.054-.353.269-.691.575-1.002.373-.35.838-.672 1.35-.941l7.136-4.119zm-16.578-2.153c.643-.398 1.45-.703 2.304-.928.743-.187 1.535-.269 2.376-.272.773.01 1.503.098 2.192.291.711.179 1.335.437 1.869.745 1.255.724 1.876 1.519 1.863 2.359-.014.839-.731 1.682-2.154 2.504-.133.077-.289.167-.49.256s-.335.166-.468.243l-5.692-3.286c-.421.296-.61.7-.458 1.096.2.475.648.913 1.274 1.249.442.255.951.498 1.459.714.439.176.922.326 1.449.451l-1.608 1.331c-.251-.043-.482-.124-.734-.193-.323-.109-.645-.218-.923-.353-.323-.135-.646-.271-1.016-.433-.324-.161-.672-.336-.997-.524-.743-.403-1.329-.87-1.758-1.4-.357-.437-.534-.898-.552-1.371.005-.459.215-.902.541-1.305.414-.454.921-.854 1.523-1.174zm6.789 2.867c.201-.115.354-.257.484-.413.154-.142.194-.299.233-.456.016-.171-.013-.341-.11-.5-.121-.198-.309-.358-.565-.506-.255-.147-.532-.256-.876-.326-.274-.056-.548-.085-.843-.076-.295.009-.589.045-.859.12s-.516.164-.74.266l3.276 1.891zm-12.292-10.689c.668.231 1.337.489 1.983.759.808.339 1.573.729 2.27 1.131.65.35 1.166.776 1.57 1.24.309.358.46.754.407 1.133-.054.38-.267.745-.596 1.068-.371.376-.858.711-1.392 1.019l-4.78 2.759-2.486-1.435 4.469-2.58c.778-.449 1.195-.824 1.319-1.137.103-.301-.115-.631-.695-.967-.186-.107-.372-.214-.604-.322-.209-.121-.394-.202-.578-.283l-6.536 3.773-2.51-1.448 8.159-4.71zm-3.611.045c-.188-.159-.377-.345-.634-.546-.259-.226-.562-.426-.887-.614-.186-.108-.394-.202-.626-.31-.184-.081-.369-.162-.576-.23l-6.47 3.734-2.509-1.448 8.048-4.646c.689.192 1.356.424 2.002.668.829.299 1.593.663 2.245 1.065.162.094.303.201.465.295.186.107.35.227.515.373.163.121.327.241.491.387.141.107.259.226.355.359l-2.419.913zm-17.769-7.742c.644-.399 1.45-.703 2.305-.929.742-.187 1.534-.269 2.375-.271.773.01 1.503.098 2.192.29.712.18 1.335.437 1.869.746 1.255.724 1.876 1.519 1.863 2.358-.013.84-.731 1.683-2.131 2.492-.134.077-.289.166-.491.256-.201.089-.334.166-.467.243l-5.693-3.286c-.42.296-.609.7-.458 1.096.2.474.649.913 1.275 1.249.441.255.951.497 1.459.714.438.176.921.326 1.403.45l-1.608 1.331c-.251-.043-.482-.124-.734-.193-.323-.109-.645-.218-.923-.353-.323-.135-.646-.27-1.016-.432-.324-.162-.672-.337-.997-.525-.743-.403-1.328-.869-1.758-1.399-.357-.438-.534-.899-.552-1.372.005-.459.215-.902.541-1.305.461-.427.946-.814 1.546-1.16zm6.813 2.88c.2-.115.354-.257.484-.413.154-.142.193-.299.233-.456.016-.171-.014-.341-.11-.5-.122-.198-.31-.358-.565-.506-.256-.147-.533-.256-.876-.326-.275-.056-.572-.099-.867-.089-.295.009-.589.044-.859.12-.27.075-.516.164-.739.266l3.299 1.904zm-10.746-5.305c1.556-.898 1.708-1.683.523-2.367-.256-.148-.533-.283-.856-.392-.253-.095-.551-.164-.848-.207l-4.357 2.515c.094.08.234.187.398.307.163.12.372.241.605.375.559.374 1.385.569 2.223.514.882-.107 1.691-.359 2.312-.745zm2.467 1.527c-.622.359-1.338.665-2.17.877-.72.201-1.489.296-2.284.299-.818-.01-1.617-.112-2.352-.305-.849-.234-1.589-.558-2.263-.947-.302-.175-.605-.375-.908-.576-.303-.2-.584-.414-.887-.615-.257-.2-.515-.4-.75-.612-.258-.201-.447-.387-.567-.559l11.893-6.866 2.888 1.231-4.224 2.438c.39.097.781.22 1.149.356.392.149.74.324 1.065.512.581.335 1.05.709 1.34 1.158.264.384.371.805.319 1.211-.074.445-.285.862-.657 1.238-.417.401-.969.801-1.592 1.16zm-14.508-3.858c-.667-.231-1.336-.489-1.96-.772-.809-.339-1.573-.729-2.27-1.131-.673-.363-1.189-.789-1.593-1.254-.287-.37-.416-.752-.385-1.146.076-.392.289-.757.64-1.093.372-.376.881-.724 1.414-1.032l4.691-2.708 2.509 1.449-4.424 2.554c-.778.449-1.217.837-1.342 1.15-.124.314.093.644.674.98.186.107.372.214.603.322.232.108.394.202.601.27l6.514-3.76 2.509 1.448-8.181 4.723zm-9.524-11.402c.522-.006 1.021-.026 1.567-.019.544-.02 1.066-.026 1.589-.033.544-.019 1.021-.026 1.475-.046.454-.021.885-.028 1.226-.037l2.974 1.717c-1.249.023-2.475.06-3.633.085-1.181.011-2.407.021-3.704-.008.039.407.054.801.001 1.207-.051.432-.103.864-.199 1.322-.097.431-.217.876-.36 1.281-.144.405-.312.77-.481 1.082l-2.881-1.663c.103-.274.183-.562.284-.888.101-.327.179-.667.302-1.006.078-.341.133-.694.142-1.048.033-.314.021-.629-.059-.932l-3.712 2.143-2.51-1.449 12.183-7.032 2.887 1.23-7.091 4.094" fill="#272733"/>
  </g>
  <g opacity=".85">
    <path d="M327.644 160.333l49.381-27.946v20.723l-49.381 27.947v-20.724z" fill="#F8C369"/>
    <path d="M291.156 139.493l36.488 20.831v20.733l-36.488-20.79v-20.774z" fill="#FFE8B7"/>
    <path d="M340.352 111.514l36.673 20.873-49.381 27.852-36.488-20.746 49.196-27.979z" fill="#FFF4E5"/>
    <path d="M343.052 167.308l1.583-.948.028-3.44 1.672-1.001c2.018-1.208 3.113-3.268 3.129-5.227.015-1.944-1.044-2.729-3.053-1.527l-3.276 1.961-.083 10.182zm1.623-5.904l.03-3.684 1.451-.868c1.185-.71 1.704-.278 1.695.805-.009 1.084-.54 2.169-1.717 2.874l-1.459.873zM353.692 161.087c1.92-1.149 3.152-3.455 3.172-5.817.019-2.366-1.188-3.217-3.108-2.068-1.919 1.15-3.152 3.461-3.172 5.827-.019 2.362 1.188 3.207 3.108 2.058zm.02-1.447c-1.062.636-1.573-.156-1.562-1.553.011-1.397.541-2.827 1.603-3.463 1.045-.625 1.557.182 1.545 1.579-.011 1.397-.541 2.812-1.586 3.437zM360.788 156.824c1.126-.674 1.64-1.758 1.888-2.46l.094-.057-.01 1.204 1.519-.91.083-10.181-1.549.927-.031 3.808-.064.038c-.23-.411-.705-.933-1.861-.241-1.515.907-2.716 3.001-2.737 5.546-.02 2.516 1.124 3.251 2.668 2.326zm.443-1.734c-1.019.61-1.548-.112-1.537-1.544.012-1.422.549-2.757 1.577-3.373.994-.595 1.532.038 1.52 1.519-.012 1.482-.574 2.808-1.56 3.398z" fill="#272733"/>
    <path d="M327.644 137.481l49.381-27.946v20.723l-49.381 27.947v-20.724z" fill="#F8C369"/>
    <path d="M291.156 116.641l36.488 20.832v20.732l-36.488-20.789v-20.775z" fill="#FFE8B7"/>
    <path d="M340.352 88.6617l36.673 20.8733-49.381 27.853-36.488-20.747 49.196-27.9793z" fill="#FFF4E5"/>
    <path d="M343.052 144.456l1.583-.947.028-3.441 1.672-1.001c2.018-1.207 3.113-3.268 3.129-5.227.015-1.943-1.044-2.729-3.053-1.527l-3.276 1.961-.083 10.182zm1.623-5.904l.03-3.684 1.451-.868c1.185-.71 1.704-.278 1.695.806-.009 1.083-.54 2.168-1.717 2.873l-1.459.873zM353.692 138.235c1.92-1.149 3.152-3.455 3.172-5.816.019-2.367-1.188-3.217-3.108-2.068-1.919 1.149-3.152 3.46-3.172 5.826-.019 2.362 1.188 3.207 3.108 2.058zm.02-1.447c-1.062.636-1.573-.156-1.562-1.553.011-1.397.541-2.827 1.603-3.463 1.045-.625 1.557.182 1.545 1.579-.011 1.397-.541 2.812-1.586 3.437zM360.788 133.973c1.126-.675 1.64-1.759 1.888-2.461l.094-.056-.01 1.203 1.519-.909.083-10.182-1.549.927-.031 3.808-.064.038c-.23-.411-.705-.933-1.861-.241-1.515.907-2.716 3.001-2.737 5.547-.02 2.515 1.124 3.25 2.668 2.326zm.443-1.735c-1.019.61-1.548-.112-1.537-1.544.012-1.421.549-2.757 1.577-3.373.994-.595 1.532.038 1.52 1.52-.012 1.481-.574 2.807-1.56 3.397z" fill="#272733"/>
    <path d="M327.644 114.481l49.381-27.946v20.723l-49.381 27.947v-20.724z" fill="#F8C369"/>
    <path d="M291.156 93.6408l36.488 20.8322v20.732l-36.488-20.789V93.6408z" fill="#FFE8B7"/>
    <path d="M340.352 65.6617l36.673 20.8733-49.381 27.853-36.488-20.7472 49.196-27.9791z" fill="#FFF4E5"/>
    <path d="M343.052 121.456l1.583-.947.028-3.441 1.672-1.001c2.018-1.207 3.113-3.268 3.129-5.227.015-1.943-1.044-2.729-3.053-1.527l-3.276 1.961-.083 10.182zm1.623-5.904l.03-3.684 1.451-.868c1.185-.71 1.704-.278 1.695.806-.009 1.083-.54 2.168-1.717 2.873l-1.459.873zM353.692 115.235c1.92-1.149 3.152-3.455 3.172-5.816.019-2.367-1.188-3.217-3.108-2.068-1.919 1.149-3.152 3.46-3.172 5.826-.019 2.362 1.188 3.207 3.108 2.058zm.02-1.447c-1.062.636-1.573-.156-1.562-1.553.011-1.397.541-2.827 1.603-3.463 1.045-.625 1.557.182 1.545 1.579-.011 1.397-.541 2.812-1.586 3.437zM360.788 110.973c1.126-.675 1.64-1.759 1.888-2.461l.094-.056-.01 1.203 1.519-.909.083-10.1819-1.549.9269-.031 3.808-.064.038c-.23-.411-.705-.933-1.861-.241-1.515.907-2.716 3.001-2.737 5.547-.02 2.515 1.124 3.25 2.668 2.326zm.443-1.735c-1.019.61-1.548-.112-1.537-1.544.012-1.421.549-2.757 1.577-3.373.994-.595 1.532.038 1.52 1.52-.012 1.481-.574 2.807-1.56 3.397z" fill="#272733"/>
  </g>
  <path fill-rule="evenodd" clip-rule="evenodd" d="M151 230.453c-1.795 0-3.25-1.455-3.25-3.25 0-77.364-5.216-129.7692-12.965-163.6289-3.876-16.9358-8.354-29.0845-13.034-37.3587-4.705-8.3194-9.403-12.357-13.547-13.7664-3.974-1.3512-8.105-.5041-12.3846 2.5784-4.3504 3.1337-8.6302 8.4544-12.413 15.4584C75.8536 44.47 70.7499 64.2962 70.7499 83.7261c0 1.7949-1.4551 3.25-3.25 3.25s-3.25-1.4551-3.25-3.25c0-20.4249 5.3338-41.3253 13.4373-56.3292 4.0453-7.49 8.8983-13.7288 14.3331-17.64362 5.5057-3.96596 11.8117-5.65657 18.2757-3.45816 6.293 2.14015 12.033 7.73928 17.113 16.72018 5.105 9.0261 9.76 21.841 13.712 39.1087 7.907 34.5473 13.129 87.508 13.129 165.079 0 1.795-1.455 3.25-3.25 3.25z" fill="#AF5CF8" fill-opacity=".15"/>
  <g filter="url(#filter4_di)">
    <path fill-rule="evenodd" clip-rule="evenodd" d="M151 229.703c-1.381 0-2.5-1.119-2.5-2.5v-.052c0-1.381 1.119-2.5 2.5-2.5 1.38 0 2.5 1.119 2.5 2.5v.052c0 1.381-1.119 2.5-2.5 2.5zm-.094-20.327c-1.38.018-2.514-1.088-2.531-2.468l-.001-.098c-.018-1.381 1.087-2.514 2.468-2.532 1.381-.017 2.514 1.088 2.531 2.468l.002.099c.017 1.381-1.088 2.514-2.469 2.531zm-.359-20.19c-1.38.037-2.529-1.052-2.566-2.432l-.003-.1c-.037-1.38 1.051-2.529 2.432-2.567 1.38-.037 2.529 1.052 2.566 2.432l.003.101c.037 1.38-1.052 2.529-2.432 2.566zm-.661-20.081c-1.379.06-2.546-1.01-2.606-2.389l-.005-.102c-.06-1.38 1.01-2.547 2.389-2.607 1.38-.06 2.547 1.01 2.607 2.389l.004.102c.06 1.38-1.009 2.547-2.389 2.607zm-1.014-20.043c-1.378.087-2.565-.959-2.652-2.337l-.007-.103c-.087-1.378.959-2.566 2.337-2.653 1.378-.087 2.566.959 2.653 2.337l.007.104c.087 1.377-.96 2.565-2.338 2.652zm-1.439-20.056c-1.375.12-2.588-.898-2.707-2.273l-.009-.104c-.121-1.375.897-2.587 2.273-2.708 1.375-.12 2.588.898 2.708 2.274l.009.104c.12 1.375-.898 2.587-2.274 2.707zm-1.967-20.083c-1.371.161-2.613-.82-2.774-2.191l-.013-.103c-.161-1.371.82-2.613 2.191-2.775 1.371-.161 2.614.82 2.775 2.191l.012.103c.161 1.372-.819 2.614-2.191 2.775zm-2.639-20.048c-1.364.2153-2.644-.7159-2.859-2.0797l-.016-.1c-.215-1.3638.716-2.6441 2.079-2.8597 1.364-.2155 2.644.7153 2.86 2.0791l.016.1012c.215 1.3638-.716 2.6439-2.08 2.8591zm-75.3271-2.6489c-1.3807 0-2.5-1.1193-2.5-2.5v-.0511c.0006-1.3807 1.1204-2.4995 2.5011-2.4989 1.3807.0006 2.4995 1.1204 2.4989 2.5011v.0489c0 1.3807-1.1193 2.5-2.5 2.5zm71.8151-17.159c-1.35.29-2.679-.5692-2.969-1.9191l-.021-.0947c-.29-1.3498.569-2.6795 1.918-2.9699 1.35-.2905 2.68.5683 2.97 1.9181l.021.0962c.29 1.35-.569 2.6794-1.919 2.9694zM68.7655 66.175c-1.3623-.2245-2.2846-1.511-2.06-2.8733l.0166-.1007c.2256-1.3621 1.5128-2.2834 2.8749-2.0578 1.3622.2256 2.2835 1.5128 2.0579 2.8749l-.016.0969c-.2246 1.3623-1.511 2.2846-2.8734 2.06zm65.7565-16.6724c-1.32.4047-2.719-.3373-3.123-1.6574l-.03-.0964c-.405-1.3199.336-2.7185 1.656-3.124 1.32-.4054 2.718.3359 3.124 1.6557l.03.0991c.405 1.3201-.337 2.7183-1.657 3.123zm-61.3014-2.9841c-1.3081-.4418-2.0105-1.8603-1.5687-3.1685l.0328-.0971c.443-1.3077 1.8621-2.0088 3.1699-1.5659 1.3077.4429 2.0088 1.8621 1.5659 3.1698l-.0314.093c-.4418 1.3081-1.8604 2.0105-3.1685 1.5687zm54.4364-15.9358c-1.238.612-2.737.1049-3.349-1.1327l-.044-.0876c-.613-1.2369-.108-2.737 1.129-3.3506 1.237-.6135 2.737-.1082 3.35 1.1287l.047.093c.612 1.2376.104 2.7371-1.133 3.3492zM81.039 27.956c-1.1821-.7134-1.5621-2.2501-.8487-3.4322l.0534-.0883c.7151-1.1811 2.2523-1.5589 3.4334-.8438 1.1811.7151 1.5589 2.2522.8438 3.4334l-.0497.0822c-.7135 1.1821-2.2501 1.5621-3.4322.8487zm35.604-14.0883c-.841 1.095-2.411 1.3009-3.506.4599l-.07-.0534c-1.098-.8364-1.311-2.405-.474-3.5035.836-1.09855 2.405-1.31103 3.503-.4746l.087.0661c1.095.841 1.301 2.4104.46 3.5055zm-22.9479-1.4728c-.6996-1.1903-.3019-2.72243.8885-3.42206l.0957-.05602c1.1934-.69441 2.7238-.28991 3.4182.90346.6944 1.19342.2899 2.72372-.9035 3.41812l-.0768.045c-1.1904.6996-2.7225.3018-3.4221-.8885z" fill="#AF5CF8"/>
  </g>
  <g filter="url(#filter5_d)">
    <path d="M158.071 231.26c3.905-3.891 10.923-4.763 15.665-1.951 4.742 2.811 5.428 8.248 1.523 12.139-3.905 3.891-10.923 4.762-15.665 1.951-4.742-2.811-5.428-8.248-1.523-12.139z" fill="#fff"/>
    <path d="M159.683 232.216c-3.173 3.161-2.619 7.577 1.237 9.863 3.856 2.286 9.555 1.576 12.728-1.585s2.619-7.578-1.238-9.864c-3.856-2.285-9.555-1.576-12.727 1.586zm8.64 5.121l-.504-4.016c-.013-.14.045-.282.162-.396.117-.114.284-.19.465-.213.18-.022.36.011.502.093.141.081.233.205.255.344l.571 4.552c.018.143-.038.288-.155.405-.117.117-.286.195-.469.218l-5.875.732c-.181.018-.36-.018-.498-.103-.139-.084-.226-.21-.244-.35-.017-.14.036-.283.15-.399.113-.116.278-.195.458-.221l5.182-.646z" fill="#AF5CF8"/>
  </g>
  <g filter="url(#filter6_d)">
    <path d="M128.825 69.1888c-.959-5.4192 2.691-10.5902 8.112-11.5425 5.42-.9523 10.625 2.6629 11.584 8.0821.959 5.4192-2.691 10.5902-8.111 11.5425-5.421.9523-10.626-2.6629-11.585-8.0821z" fill="#fff"/>
    <path d="M146.676 66.0534c-.78-4.4029-4.994-7.3431-9.413-6.5667-4.419.7763-7.37 4.9754-6.591 9.3783.78 4.4029 4.994 7.3431 9.413 6.5667 4.419-.7763 7.37-4.9754 6.591-9.3783zm-4.069-.4191l-3.041 4.3284c-.095.1352-.241.2273-.404.2559-.163.0287-.331-.0084-.467-.103l-4.344-3.0308c-.131-.0965-.219-.2403-.245-.4005-.026-.1603.011-.3245.105-.4575.093-.133.235-.2244.395-.2547.16-.0302.326.0031.462.0928l3.832 2.6733 2.684-3.8181c.097-.1306.241-.2183.402-.2444.161-.0262.325.0113.459.1045.133.0931.225.2345.256.3941.03.1595-.003.3246-.094.46z" fill="#AF5CF8"/>
  </g>
  <g filter="url(#filter7_d)">
    <path d="M139.598 166.532c-.289-5.495 3.968-10.184 9.463-10.471 5.496-.287 10.221 3.933 10.51 9.428.289 5.496-3.968 10.185-9.463 10.472-5.495.287-10.221-3.933-10.51-9.429z" fill="#fff"/>
    <path d="M157.699 165.588c-.235-4.465-4.058-7.895-8.539-7.661-4.481.234-7.923 4.044-7.689 8.508.235 4.465 4.059 7.895 8.539 7.661 4.481-.234 7.924-4.043 7.689-8.508zm-3.986-.91l-3.549 3.927c-.111.122-.266.196-.432.205-.165.008-.327-.049-.45-.159l-3.941-3.536c-.119-.112-.189-.265-.195-.427-.006-.163.051-.321.16-.442.109-.12.261-.194.424-.204.162-.011.323.042.447.148l3.476 3.119 3.131-3.464c.112-.118.266-.188.429-.194.163-.007.322.051.443.159.121.109.195.261.205.423.011.162-.042.321-.148.445z" fill="#AF5CF8"/>
  </g>
  <g filter="url(#filter8_d)">
    <path d="M59.158 62.0697c.9557-5.4198 6.1576-9.0328 11.5774-8.0771 5.4198.9556 9.0723 6.1299 8.1166 11.5497-.9556 5.4198-6.1576 9.0327-11.5774 8.0771-5.4197-.9557-9.0722-6.1299-8.1166-11.5497z" fill="#fff"/>
    <path d="M70.411 55.8331c-4.4185-.7791-8.6302 2.1593-9.4067 6.5627-.7764 4.4033 2.1763 8.605 6.5948 9.3841 4.4185.7791 8.6302-2.1593 9.4066-6.5627.7764-4.4034-2.1763-8.605-6.5947-9.3841zm2.3749 10.6681c-.1357.0946-.3036.1316-.4667.1028-.1632-.0288-.3083-.1209-.4034-.2562l-2.6852-3.8205-3.83 2.6717c-.1358.0896-.3014.1228-.4615.0925-.1601-.0304-.3021-.1218-.3956-.255-.0936-.1331-.1313-.2973-.1051-.4576.0261-.1603.1141-.304.245-.4004l4.3416-3.029c.1356-.0945.3035-.1315.4666-.1027.1632.0287.3083.1209.4034.2562l3.0438 4.3311c.095.1353.1323.3027.1036.4653-.0286.1626-.1209.3071-.2565.4018z" fill="#AF5CF8"/>
  </g>
  <g opacity=".85">
    <path d="M389.644 197.333l49.381-27.946v20.723l-49.381 27.947v-20.724z" fill="#599CFF"/>
    <path d="M353.156 176.493l36.488 20.831v20.733l-36.488-20.79v-20.774z" fill="#89C5FE"/>
    <path d="M402.352 148.514l36.673 20.873-49.38 27.852-36.489-20.746 49.196-27.979z" fill="#CBE6FF"/>
    <path d="M405.052 204.308l1.583-.948.028-3.44 1.672-1.001c2.018-1.208 3.113-3.268 3.129-5.227.016-1.944-1.044-2.729-3.053-1.527l-3.276 1.961-.083 10.182zm1.623-5.904l.03-3.684 1.451-.868c1.185-.71 1.704-.278 1.695.805-.009 1.084-.54 2.169-1.717 2.874l-1.459.873zM415.692 198.087c1.92-1.149 3.152-3.455 3.172-5.817.019-2.366-1.188-3.217-3.108-2.068-1.919 1.15-3.152 3.461-3.171 5.827-.02 2.362 1.187 3.207 3.107 2.058zm.02-1.447c-1.062.636-1.573-.156-1.562-1.553.011-1.397.541-2.827 1.603-3.463 1.045-.625 1.557.182 1.545 1.579-.011 1.397-.541 2.812-1.586 3.437zM422.788 193.824c1.126-.674 1.64-1.758 1.888-2.46l.094-.057-.01 1.204 1.519-.91.083-10.181-1.549.927-.031 3.808-.064.038c-.23-.411-.705-.933-1.861-.241-1.515.907-2.716 3.001-2.737 5.546-.02 2.516 1.124 3.251 2.668 2.326zm.443-1.734c-1.019.61-1.548-.112-1.537-1.544.012-1.422.549-2.757 1.577-3.373.994-.595 1.532.038 1.52 1.519-.012 1.482-.574 2.808-1.56 3.398z" fill="#272733"/>
    <path d="M389.644 174.481l49.381-27.946v20.723l-49.381 27.947v-20.724z" fill="#599CFF"/>
    <path d="M353.156 153.641l36.488 20.832v20.732l-36.488-20.789v-20.775z" fill="#89C5FE"/>
    <path d="M402.352 125.662l36.673 20.873-49.38 27.853-36.489-20.747 49.196-27.979z" fill="#CBE6FF"/>
    <path d="M405.052 181.456l1.583-.947.028-3.441 1.672-1.001c2.018-1.207 3.113-3.268 3.129-5.227.016-1.943-1.044-2.729-3.053-1.527l-3.276 1.961-.083 10.182zm1.623-5.904l.03-3.684 1.451-.868c1.185-.71 1.704-.278 1.695.806-.009 1.083-.54 2.168-1.717 2.873l-1.459.873zM415.692 175.235c1.92-1.149 3.152-3.455 3.172-5.816.019-2.367-1.188-3.217-3.108-2.068-1.919 1.149-3.152 3.46-3.171 5.826-.02 2.362 1.187 3.207 3.107 2.058zm.02-1.447c-1.062.636-1.573-.156-1.562-1.553.011-1.397.541-2.827 1.603-3.463 1.045-.625 1.557.182 1.545 1.579-.011 1.397-.541 2.812-1.586 3.437zM422.788 170.973c1.126-.675 1.64-1.759 1.888-2.461l.094-.056-.01 1.203 1.519-.909.083-10.182-1.549.927-.031 3.808-.064.038c-.23-.411-.705-.933-1.861-.241-1.515.907-2.716 3.001-2.737 5.547-.02 2.515 1.124 3.25 2.668 2.326zm.443-1.735c-1.019.61-1.548-.112-1.537-1.544.012-1.421.549-2.757 1.577-3.373.994-.595 1.532.038 1.52 1.52-.012 1.481-.574 2.807-1.56 3.397z" fill="#272733"/>
    <path d="M389.644 151.481l49.381-27.946v20.723l-49.381 27.947v-20.724z" fill="#599CFF"/>
    <path d="M353.156 130.641l36.488 20.832v20.732l-36.488-20.789v-20.775z" fill="#89C5FE"/>
    <path d="M402.352 102.662l36.673 20.873-49.38 27.853-36.489-20.747 49.196-27.979z" fill="#CBE6FF"/>
    <path d="M405.052 158.456l1.583-.947.028-3.441 1.672-1.001c2.018-1.207 3.113-3.268 3.129-5.227.016-1.943-1.044-2.729-3.053-1.527l-3.276 1.961-.083 10.182zm1.623-5.904l.03-3.684 1.451-.868c1.185-.71 1.704-.278 1.695.806-.009 1.083-.54 2.168-1.717 2.873l-1.459.873zM415.692 152.235c1.92-1.149 3.152-3.455 3.172-5.816.019-2.367-1.188-3.217-3.108-2.068-1.919 1.149-3.152 3.46-3.171 5.826-.02 2.362 1.187 3.207 3.107 2.058zm.02-1.447c-1.062.636-1.573-.156-1.562-1.553.011-1.397.541-2.827 1.603-3.463 1.045-.625 1.557.182 1.545 1.579-.011 1.397-.541 2.812-1.586 3.437zM422.788 147.973c1.126-.675 1.64-1.759 1.888-2.461l.094-.056-.01 1.203 1.519-.909.083-10.182-1.549.927-.031 3.808-.064.038c-.23-.411-.705-.933-1.861-.241-1.515.907-2.716 3.001-2.737 5.547-.02 2.515 1.124 3.25 2.668 2.326zm.443-1.735c-1.019.61-1.548-.112-1.537-1.544.012-1.421.549-2.757 1.577-3.373.994-.595 1.532.038 1.52 1.52-.012 1.481-.574 2.807-1.56 3.397z" fill="#272733"/>
  </g>
  <g opacity=".85">
    <path d="M460.644 236.333l49.381-27.946v20.723l-49.381 27.947v-20.724z" fill="#7874AA"/>
    <path d="M424.156 215.493l36.488 20.831v20.733l-36.488-20.79v-20.774z" fill="#ABAAEA"/>
    <path d="M473.352 187.514l36.673 20.873-49.38 27.852-36.489-20.746 49.196-27.979z" fill="#FAF4FF"/>
    <path d="M476.052 243.308l1.583-.948.028-3.44 1.672-1.001c2.018-1.208 3.113-3.268 3.129-5.227.016-1.944-1.044-2.729-3.053-1.527l-3.276 1.961-.083 10.182zm1.623-5.904l.03-3.684 1.451-.868c1.185-.71 1.704-.278 1.695.805-.009 1.084-.54 2.169-1.717 2.874l-1.459.873zM486.692 237.087c1.92-1.149 3.152-3.455 3.172-5.817.019-2.366-1.188-3.217-3.108-2.068-1.919 1.15-3.152 3.461-3.171 5.827-.02 2.362 1.187 3.207 3.107 2.058zm.02-1.447c-1.062.636-1.573-.156-1.562-1.553.011-1.397.541-2.827 1.603-3.463 1.045-.625 1.557.182 1.545 1.579-.011 1.397-.541 2.812-1.586 3.437zM493.788 232.824c1.126-.674 1.64-1.758 1.888-2.46l.094-.057-.01 1.204 1.519-.91.083-10.181-1.549.927-.031 3.808-.064.038c-.23-.411-.705-.933-1.861-.241-1.515.907-2.716 3.001-2.737 5.546-.02 2.516 1.124 3.251 2.668 2.326zm.443-1.734c-1.019.61-1.548-.112-1.537-1.544.012-1.422.549-2.757 1.577-3.373.994-.595 1.532.038 1.52 1.519-.012 1.482-.574 2.808-1.56 3.398z" fill="#272733"/>
    <path d="M460.644 213.481l49.381-27.946v20.723l-49.381 27.947v-20.724z" fill="#7874AA"/>
    <path d="M424.156 192.641l36.488 20.832v20.732l-36.488-20.789v-20.775z" fill="#ABAAEA"/>
    <path d="M473.352 164.662l36.673 20.873-49.38 27.853-36.489-20.747 49.196-27.979z" fill="#FAF4FF"/>
    <path d="M476.052 220.456l1.583-.947.028-3.441 1.672-1.001c2.018-1.207 3.113-3.268 3.129-5.227.016-1.943-1.044-2.729-3.053-1.527l-3.276 1.961-.083 10.182zm1.623-5.904l.03-3.684 1.451-.868c1.185-.71 1.704-.278 1.695.806-.009 1.083-.54 2.168-1.717 2.873l-1.459.873zM486.692 214.235c1.92-1.149 3.152-3.455 3.172-5.816.019-2.367-1.188-3.217-3.108-2.068-1.919 1.149-3.152 3.46-3.171 5.826-.02 2.362 1.187 3.207 3.107 2.058zm.02-1.447c-1.062.636-1.573-.156-1.562-1.553.011-1.397.541-2.827 1.603-3.463 1.045-.625 1.557.182 1.545 1.579-.011 1.397-.541 2.812-1.586 3.437zM493.788 209.973c1.126-.675 1.64-1.759 1.888-2.461l.094-.056-.01 1.203 1.519-.909.083-10.182-1.549.927-.031 3.808-.064.038c-.23-.411-.705-.933-1.861-.241-1.515.907-2.716 3.001-2.737 5.547-.02 2.515 1.124 3.25 2.668 2.326zm.443-1.735c-1.019.61-1.548-.112-1.537-1.544.012-1.421.549-2.757 1.577-3.373.994-.595 1.532.038 1.52 1.52-.012 1.481-.574 2.807-1.56 3.397z" fill="#272733"/>
    <path d="M460.644 190.481l49.381-27.946v20.723l-49.381 27.947v-20.724z" fill="#7874AA"/>
    <path d="M424.156 169.641l36.488 20.832v20.732l-36.488-20.789v-20.775z" fill="#ABAAEA"/>
    <path d="M473.352 141.662l36.673 20.873-49.38 27.853-36.489-20.747 49.196-27.979z" fill="#FAF4FF"/>
    <path d="M476.052 197.456l1.583-.947.028-3.441 1.672-1.001c2.018-1.207 3.113-3.268 3.129-5.227.016-1.943-1.044-2.729-3.053-1.527l-3.276 1.961-.083 10.182zm1.623-5.904l.03-3.684 1.451-.868c1.185-.71 1.704-.278 1.695.806-.009 1.083-.54 2.168-1.717 2.873l-1.459.873zM486.692 191.235c1.92-1.149 3.152-3.455 3.172-5.816.019-2.367-1.188-3.217-3.108-2.068-1.919 1.149-3.152 3.46-3.171 5.826-.02 2.362 1.187 3.207 3.107 2.058zm.02-1.447c-1.062.636-1.573-.156-1.562-1.553.011-1.397.541-2.827 1.603-3.463 1.045-.625 1.557.182 1.545 1.579-.011 1.397-.541 2.812-1.586 3.437zM493.788 186.973c1.126-.675 1.64-1.759 1.888-2.461l.094-.056-.01 1.203 1.519-.909.083-10.182-1.549.927-.031 3.808-.064.038c-.23-.411-.705-.933-1.861-.241-1.515.907-2.716 3.001-2.737 5.547-.02 2.515 1.124 3.25 2.668 2.326zm.443-1.735c-1.019.61-1.548-.112-1.537-1.544.012-1.421.549-2.757 1.577-3.373.994-.595 1.532.038 1.52 1.52-.012 1.481-.574 2.807-1.56 3.397z" fill="#272733"/>
  </g>
  <path d="M342 293.909l-36.222 20.546L179 242.545 215.222 222 342 293.909z" fill="#9EF0B7"/>
  <path d="M305.778 314.455V335L342 314.455v-20.546l-36.222 20.546z" fill="#87ABA4"/>
  <path d="M179 242.545v20.546L305.778 335v-20.545L179 242.545z" fill="#96BEB7"/>
  <path d="M214.309 236.459l-1.601-.916-8.837 5.057 1.601.916 8.837-5.057zM212.799 241.264c.958-.548 2.088-.533 2.912-.062.807.462.76 1.042-.125 1.548l-3.978 2.277 1.562.894 4.22-2.415c1.592-.906 1.592-1.943.224-2.726-.992-.568-2.148-.687-3.188-.437l-.078-.045 1.126-.644-1.493-.854-6.628 3.792 1.562.894 3.884-2.222zM215.234 250.104c1.79 1.025 3.931 1.312 5.627.341l6.735-3.854-1.54-.882-1.096.627-.086-.049c.241-.41.448-1.096-.721-1.766-1.532-.876-3.935-.879-6.114.368-2.162 1.237-2.037 2.544-.51 3.418 1.135.649 2.274.605 3.004.464l.077.044-1.255.719c-.976.558-2.024.417-2.913-.091-.941-.539-.911-1.03-.712-1.361l-1.748-.61c-.643.694-.435 1.667 1.252 2.632zm3.957-2.249c-1.032-.59-.773-1.361.448-2.059 1.204-.689 2.624-.889 3.664-.294 1.005.575.725 1.368-.531 2.086-1.264.724-2.585.837-3.581.267zM222.786 251.424l1.562.894 3.897-2.23c.841-.482 2.071-.459 2.93.032.263.151.543.365.634.467l1.437-.823c-.117-.096-.345-.247-.518-.345-.759-.435-1.825-.551-2.835-.25l-.069-.039 1.105-.632-1.515-.867-6.628 3.793zM230.353 255.902c1.545.884 3.361 1.059 4.79.558l-1.295-.929c-.772.2-1.584.072-2.257-.313-1.009-.578-1.014-1.341.108-1.998l4.617 2.642.479-.274c2.326-1.331 1.951-2.716.32-3.649-1.899-1.087-4.531-.998-6.577.172-2.079 1.191-2.183 2.647-.185 3.791zm2.403-3.282c.894-.457 2.231-.506 3.163.027.898.514.846 1.235-.047 1.756l-3.116-1.783zM245.082 258.602c.907-.766.725-1.689-.828-2.578-1.597-.914-3.469-1.086-4.69-.383-.971.551-1.015 1.257-.005 2.136l.893.783c.475.425.514.728.138.943-.453.259-1.285.173-2.028-.252-.716-.41-.871-.854-.41-1.271l-1.669-.788c-1.023.807-.721 1.805.906 2.736 1.657.948 3.685 1.126 4.945.41.94-.543.91-1.223-.069-2.094l-.889-.785c-.522-.472-.557-.758-.168-.976.444-.259 1.251-.153 1.902.22.721.412.708.854.393 1.173l1.579.726zM251.968 262.542c.907-.765.725-1.689-.828-2.578-1.597-.913-3.469-1.086-4.691-.382-.97.55-1.014 1.256-.004 2.136l.893.782c.475.425.514.729.138.944-.453.259-1.286.172-2.028-.252-.716-.41-.871-.855-.41-1.272l-1.67-.788c-1.022.808-.72 1.805.907 2.736 1.657.948 3.685 1.126 4.945.41.94-.543.91-1.222-.069-2.094l-.889-.785c-.522-.472-.557-.758-.169-.975.445-.26 1.252-.153 1.903.219.721.413.708.855.393 1.173l1.579.726zM265.46 269.141c1.691-1.279 1.32-2.795-.639-3.916-2.309-1.321-5.73-1.353-8.587.282-2.852 1.632-2.822 3.58-.492 4.913 2.102 1.203 4.855 1.223 6.788.398l-1.605-.928c-1.239.476-2.667.326-3.724-.279-1.433-.82-1.385-2.023.643-3.183 1.993-1.141 4.12-1.193 5.566-.366 1.074.615 1.307 1.445.436 2.156l1.614.923zM263.98 275.144c1.942 1.111 4.543 1.035 6.593-.138 2.054-1.175 2.192-2.667.25-3.778-1.941-1.111-4.548-1.032-6.602.143-2.049 1.173-2.183 2.662-.241 3.773zm1.26-.711c-1.075-.615-.643-1.464.569-2.158 1.213-.694 2.71-.948 3.785-.333 1.057.605.612 1.461-.6 2.155-1.213.694-2.697.941-3.754.336zM274.273 276.442c.958-.548 2.089-.533 2.913-.062.807.462.76 1.042-.125 1.548l-3.979 2.277 1.563.894 4.22-2.415c1.592-.906 1.592-1.943.224-2.726-.992-.568-2.149-.687-3.189-.437l-.077-.045 1.126-.644-1.493-.854-6.628 3.792 1.562.894 3.883-2.222zM286.387 280.233l-1.307-.748 1.588-.909-1.563-.894-1.587.909-.941-.538-1.208.691.94.538-3.685 2.109c-1.255.709-.962 1.578.246 2.23.458.247.85.372 1.075.437l.958-.85c-.108-.037-.324-.116-.518-.227-.393-.225-.57-.484.06-.844l3.426-1.961 1.308.748 1.208-.691zM281.282 284.897l1.563.894 3.896-2.23c.841-.481 2.071-.459 2.93.033.263.15.544.365.634.466l1.437-.822c-.116-.096-.345-.247-.518-.346-.759-.434-1.825-.55-2.835-.249l-.069-.04 1.105-.632-1.515-.866-6.628 3.792zM288.806 289.351c1.942 1.111 4.544 1.034 6.593-.139 2.054-1.175 2.192-2.666.251-3.778-1.942-1.111-4.548-1.032-6.602.144-2.05 1.173-2.184 2.661-.242 3.773zm1.26-.712c-1.075-.614-.643-1.464.569-2.158 1.213-.693 2.71-.948 3.785-.333 1.057.605.613 1.462-.6 2.156-1.213.694-2.697.94-3.754.335zM304.053 287.814l-1.562-.894-8.837 5.057 1.562.894 8.837-5.057zM307.439 289.751l-1.562-.894-8.838 5.057 1.562.894 8.838-5.057zM303.229 297.604c1.545.884 3.362 1.06 4.79.558l-1.294-.928c-.773.2-1.584.072-2.257-.314-1.01-.577-1.014-1.34.108-1.997l4.617 2.642.479-.274c2.326-1.331 1.95-2.716.319-3.65-1.899-1.086-4.531-.997-6.576.173-2.08 1.19-2.183 2.647-.186 3.79zm2.404-3.281c.893-.457 2.231-.507 3.163.027.897.513.846 1.234-.048 1.755l-3.115-1.782zM307.845 300.097l1.562.894 3.896-2.23c.841-.481 2.071-.459 2.93.032.263.151.544.366.634.467l1.437-.822c-.116-.097-.345-.247-.518-.346-.759-.435-1.825-.551-2.835-.249l-.069-.04 1.105-.632-1.515-.867-6.627 3.793z" fill="#39475B"/>
  <path d="M320.224 319.356v-7.29l1.25-.715v6.02l2.674-1.53v1.27l-3.924 2.245zM325.072 309.292l4.001-2.289v1.02l-2.145 7.497-1.275.73 2.06-7.199-2.641 1.51v-1.269z" fill="#00401E"/>
  <path d="M92.7419 164.113c4.781-2.713 12.4811-2.713 17.2621 0l6.122 3.475c4.851 2.752 4.851 7.245 0 9.998l-76.8103 43.588c-4.781 2.713-12.481 2.713-17.2619 0l-6.1225-3.475c-4.8506-2.752-4.8506-7.245 0-9.998l76.8106-43.588z" fill="#272733" fill-opacity=".12"/>
  <path d="M84.583 102.066l12.004 6.835.2956-.233.2961-.229.2965-.223.297-.217.2975-.213.2977-.206.2981-.202.2984-.195.2985-.19.2988-.185.2989-.179.2989-.173 2.402-1.188 2.309-.793 2.197-.407 2.065-.035 1.913.328 1.743.678-15.868-9.0343-1.7425-.678-1.9136-.3275-2.0651.0342-2.1969.4074-2.3091.7922-2.4017 1.1883-.299.1731-.2989.1788-.2987.1845-.2986.19-.1669.1095-6.7573-3.8475-1.5204-.7518-1.649-.4989-1.7651-.2421-1.8687.0188-1.96.2838-2.0386.5526-2.105.8254-2.1587 1.1023-2.4539 1.5635-2.3786 1.8413-2.2858 2.0904-2.1754 2.31-2.0474 2.503-1.9018 2.665-1.7386 2.8-1.5578 2.906-1.3594 2.983-1.1434 3.031-.9099 3.051-.6587 3.042-.1546.068-.1547.071-.1548.072-.1548.073-.1549.076-.1548.077-.1549.079-.1548.08-.1549.083-.1548.084-.1547.085-.1546.087-2.0117 1.285-1.9414 1.511-1.857 1.715-1.7587 1.895-1.6462 2.053-1.5197 2.186-1.3793 2.296-1.2248 2.383-1.0563 2.446-.8738 2.486-.6772 2.503-.4666 2.497-.1055.048-.1052.049-.1049.05-.1047.051-.1045.052-.1042.053-.1041.054-.1038.054-.1037.056-.1035.056-.1032.058-.1032.058-1.9856 1.285-1.9052 1.534-1.8073 1.752-1.6916 1.942-1.5583 2.099-1.4076 2.227-1.23918 2.326-1.05319 2.392-.84965 2.43-.62836 2.437-.3897 2.413-.1333 2.359.13477 2.207.39098 1.969.62968 1.72.85073 1.461 1.05423 1.191 1.23999.913 15.8647 9.044-1.2399-.913-1.0541-1.192-.8506-1.461-.6296-1.719-.3908-1.969-.1346-2.207.1335-2.36.3897-2.413.6286-2.437.8498-2.43 1.0533-2.392 1.2393-2.326 1.4077-2.227 1.5585-2.1 1.6916-1.942 1.8073-1.752 1.9052-1.535 1.9856-1.285.1032-.058.1033-.057.1034-.057.1037-.055.1039-.055.104-.053.1043-.053.1044-.052.1047-.051.105-.05.1052-.049.1054-.049.4668-2.496.6774-2.503.8739-2.487 1.0564-2.447 1.2249-2.383 1.3794-2.296 1.5199-2.186 1.6462-2.053 1.7587-1.895 1.8571-1.715 1.9414-1.512 2.0117-1.284.1547-.088.1547-.085.1547-.084.1549-.082.1548-.081.1549-.079.1549-.077.1548-.076.1549-.073.1547-.072.1547-.071.1547-.068.6589-3.042.91-3.052 1.1436-3.031 1.3596-2.983 1.5579-2.906 1.7387-2.8 1.9019-2.666 2.0475-2.502 2.1754-2.311 2.2859-2.091 2.3787-1.841 2.4539-1.564 2.1587-1.102 2.1049-.826 2.0386-.553 1.3055-.189z" fill="#E4EEF1"/>
  <path d="M129.167 114.525l-1.456-.599-1.606-.288-1.739.036-1.852.369-1.944.713-2.019 1.068-15.867-9.034 2.019-1.068 1.945-.713 1.851-.369 1.739-.035 1.607.288 1.455.599 15.867 9.033z" fill="#E4EEF1"/>
  <mask id="a" maskUnits="userSpaceOnUse" x="20.1915" y="99.9526" width="115" height="100" fill="#000">
    <path fill="#fff" d="M20.1915 99.9526h115v100h-115z"/>
    <path d="M85.2374 101.971l1.8686-.018 1.765.241 1.6489.499 1.5203.752 1.3794 1.001 1.2258 1.245 1.06 1.487.8816 1.723.2956-.233.2961-.229.2965-.223.2971-.217.2974-.213.2977-.206.2981-.202.2984-.195.2985-.19.2988-.185.2989-.179.2989-.173 2.402-1.188 2.309-.793 2.197-.407 2.065-.035 1.913.328 1.743.678 1.551 1.017 1.342 1.344 1.111 1.66.862 1.965.593 2.259.304 2.54 2.019-1.068 1.944-.713 1.852-.369 1.739-.036 1.606.288 1.456.599 1.284.901 1.094 1.191.885 1.47.656 1.739.407 1.998.14 2.245-.134 2.358-.391 2.413-.629 2.435-.849 2.429-1.053 2.391-1.239 2.324-1.406 2.226-1.558 2.099-1.69 1.94-1.806 1.752-1.903 1.533-1.984 1.284-82.1433 46.804-1.9854.977-1.9052.637-1.8073.306-1.6918-.014-1.5588-.323-1.4081-.623-1.2399-.913-1.0541-1.192-.8506-1.461-.6295-1.719-.3909-1.969-.1346-2.207.1334-2.36.3898-2.413.6286-2.437.8498-2.43 1.0533-2.392 1.2393-2.326 1.4077-2.227 1.5584-2.1 1.6917-1.941 1.8072-1.753 1.9053-1.535 1.9856-1.285.1032-.058.1033-.057.1034-.057.1037-.055.1038-.055.1041-.053.1043-.053.1044-.052.1047-.051.105-.05.1052-.049.1054-.049.4668-2.496.6773-2.503.874-2.487 1.0564-2.446 1.2249-2.384 1.3794-2.296 1.5198-2.186 1.6463-2.053 1.7587-1.895 1.8571-1.715 1.9414-1.512 2.0117-1.284.1547-.088.1546-.085.1548-.084.1548-.082.1549-.081.1549-.079.1549-.077.1548-.076.1549-.073.1547-.072.1547-.071.1547-.068.6588-3.042.9101-3.052 1.1436-3.031 1.3595-2.983 1.5579-2.906 1.7387-2.8 1.9019-2.666 2.0475-2.502 2.1755-2.311 2.2859-2.091 2.3787-1.841 2.4538-1.564 2.1588-1.102 2.1049-.826 2.0386-.553 1.9599-.284z"/>
  </mask>
  <path d="M85.2374 101.971l1.8686-.018 1.765.241 1.6489.499 1.5203.752 1.3794 1.001 1.2258 1.245 1.06 1.487.8816 1.723.2956-.233.2961-.229.2965-.223.2971-.217.2974-.213.2977-.206.2981-.202.2984-.195.2985-.19.2988-.185.2989-.179.2989-.173 2.402-1.188 2.309-.793 2.197-.407 2.065-.035 1.913.328 1.743.678 1.551 1.017 1.342 1.344 1.111 1.66.862 1.965.593 2.259.304 2.54 2.019-1.068 1.944-.713 1.852-.369 1.739-.036 1.606.288 1.456.599 1.284.901 1.094 1.191.885 1.47.656 1.739.407 1.998.14 2.245-.134 2.358-.391 2.413-.629 2.435-.849 2.429-1.053 2.391-1.239 2.324-1.406 2.226-1.558 2.099-1.69 1.94-1.806 1.752-1.903 1.533-1.984 1.284-82.1433 46.804-1.9854.977-1.9052.637-1.8073.306-1.6918-.014-1.5588-.323-1.4081-.623-1.2399-.913-1.0541-1.192-.8506-1.461-.6295-1.719-.3909-1.969-.1346-2.207.1334-2.36.3898-2.413.6286-2.437.8498-2.43 1.0533-2.392 1.2393-2.326 1.4077-2.227 1.5584-2.1 1.6917-1.941 1.8072-1.753 1.9053-1.535 1.9856-1.285.1032-.058.1033-.057.1034-.057.1037-.055.1038-.055.1041-.053.1043-.053.1044-.052.1047-.051.105-.05.1052-.049.1054-.049.4668-2.496.6773-2.503.874-2.487 1.0564-2.446 1.2249-2.384 1.3794-2.296 1.5198-2.186 1.6463-2.053 1.7587-1.895 1.8571-1.715 1.9414-1.512 2.0117-1.284.1547-.088.1546-.085.1548-.084.1548-.082.1549-.081.1549-.079.1549-.077.1548-.076.1549-.073.1547-.072.1547-.071.1547-.068.6588-3.042.9101-3.052 1.1436-3.031 1.3595-2.983 1.5579-2.906 1.7387-2.8 1.9019-2.666 2.0475-2.502 2.1755-2.311 2.2859-2.091 2.3787-1.841 2.4538-1.564 2.1588-1.102 2.1049-.826 2.0386-.553 1.9599-.284z" fill="#fff"/>
  <path d="M85.2374 101.971l1.8686-.018 1.765.241 1.6489.499 1.5203.752 1.3794 1.001 1.2258 1.245 1.06 1.487.8816 1.723.2956-.233.2961-.229.2965-.223.2971-.217.2974-.213.2977-.206.2981-.202.2984-.195.2985-.19.2988-.185.2989-.179.2989-.173 2.402-1.188 2.309-.793 2.197-.407 2.065-.035 1.913.328 1.743.678 1.551 1.017 1.342 1.344 1.111 1.66.862 1.965.593 2.259.304 2.54 2.019-1.068 1.944-.713 1.852-.369 1.739-.036 1.606.288 1.456.599 1.284.901 1.094 1.191.885 1.47.656 1.739.407 1.998.14 2.245-.134 2.358-.391 2.413-.629 2.435-.849 2.429-1.053 2.391-1.239 2.324-1.406 2.226-1.558 2.099-1.69 1.94-1.806 1.752-1.903 1.533-1.984 1.284-82.1433 46.804-1.9854.977-1.9052.637-1.8073.306-1.6918-.014-1.5588-.323-1.4081-.623-1.2399-.913-1.0541-1.192-.8506-1.461-.6295-1.719-.3909-1.969-.1346-2.207.1334-2.36.3898-2.413.6286-2.437.8498-2.43 1.0533-2.392 1.2393-2.326 1.4077-2.227 1.5584-2.1 1.6917-1.941 1.8072-1.753 1.9053-1.535 1.9856-1.285.1032-.058.1033-.057.1034-.057.1037-.055.1038-.055.1041-.053.1043-.053.1044-.052.1047-.051.105-.05.1052-.049.1054-.049.4668-2.496.6773-2.503.874-2.487 1.0564-2.446 1.2249-2.384 1.3794-2.296 1.5198-2.186 1.6463-2.053 1.7587-1.895 1.8571-1.715 1.9414-1.512 2.0117-1.284.1547-.088.1546-.085.1548-.084.1548-.082.1549-.081.1549-.079.1549-.077.1548-.076.1549-.073.1547-.072.1547-.071.1547-.068.6588-3.042.9101-3.052 1.1436-3.031 1.3595-2.983 1.5579-2.906 1.7387-2.8 1.9019-2.666 2.0475-2.502 2.1755-2.311 2.2859-2.091 2.3787-1.841 2.4538-1.564 2.1588-1.102 2.1049-.826 2.0386-.553 1.9599-.284z" stroke="#CFDDE0" stroke-width="2" mask="url(#a)"/>
  <path d="M71.8633 140.425c-.2717-2.107-1.7813-2.554-3.7395-1.431-2.3076 1.322-4.0458 4.258-4.0458 7.549 0 3.286 1.7166 4.246 4.0458 2.911 2.1005-1.204 3.4937-3.569 3.7395-5.654l-1.6131.915c-.2027 1.309-1.0481 2.465-2.1049 3.071-1.432.821-2.4585.171-2.4585-2.165 0-2.297 1.0179-4.158 2.4628-4.987 1.074-.615 1.9151-.397 2.1006.715l1.6131-.924zM74.9079 135.244l-1.5614.895v10.182l1.5614-.895v-10.182zM79.4901 142.948c1.9409-1.112 3.1745-3.395 3.1745-5.757 0-2.366-1.2336-3.24-3.1745-2.128-1.941 1.113-3.1746 3.401-3.1746 5.768 0 2.361 1.2336 3.23 3.1746 2.117zm.0086-1.446c-1.074.615-1.6002-.187-1.6002-1.584s.5262-2.817 1.6002-3.433c1.0567-.605 1.5829.211 1.5829 1.609 0 1.397-.5262 2.802-1.5829 3.408zM88.2992 134.538c0 1.163-.7203 2.153-1.4104 2.548-.7505.431-1.2508.106-1.2508-.864v-4.583l-1.5614.895v4.862c0 1.834.9058 2.354 2.2084 1.608.992-.569 1.6907-1.571 1.9927-2.599l.069-.04v1.357l1.5139-.867v-7.637l-1.5614.895v4.425zM94.0115 134.609c1.1387-.652 1.652-1.727 1.8978-2.425l.0949-.054v1.203l1.5355-.88v-10.182l-1.5657.897v3.809l-.0647.037c-.2372-.416-.7246-.947-1.8935-.277-1.5312.878-2.7346 2.95-2.7346 5.495 0 2.516 1.1689 3.272 2.7303 2.377zm.4356-1.726c-1.0308.591-1.5743-.141-1.5743-1.573 0-1.422.5348-2.748 1.5743-3.344 1.005-.576 1.5571.067 1.5571 1.549 0 1.481-.5607 2.797-1.5571 3.368zM39.5505 181.693l5.4907-3.147V177l-3.8905 2.23v-8.636l-1.6002.918v10.181zM49.3377 176.232c1.9409-1.112 3.1745-3.395 3.1745-5.757 0-2.366-1.2336-3.24-3.1745-2.128-1.941 1.113-3.1745 3.401-3.1745 5.767 0 2.362 1.2335 3.231 3.1745 2.118zm.0086-1.446c-1.074.615-1.6002-.187-1.6002-1.584s.5262-2.817 1.6002-3.433c1.0568-.606 1.583.211 1.583 1.608s-.5262 2.803-1.583 3.409zM55.8306 172.515c1.0395-.596 1.6606-1.513 1.9453-2.318l.0518-.03v1.049l1.501-.86v-5.111c0-2.018-1.4277-1.806-2.6915-1.082-1.3931.799-2.4628 2.128-2.8079 3.718l1.4579-.597c.1553-.611.5952-1.311 1.3586-1.749.7247-.415 1.1215-.215 1.1215.536v.03c0 .517-.4702.811-1.639 1.625-1.2854.896-2.5146 2.043-2.5146 3.763 0 1.502.9532 1.751 2.2169 1.026zm.4055-1.555c-.6513.374-1.1171.298-1.1171-.363 0-.691.5219-1.279 1.2206-1.794.4098-.299 1.2293-.888 1.432-1.194v.9c0 .85-.5952 1.913-1.5355 2.451zM63.444 168.131c1.1387-.652 1.6519-1.727 1.8978-2.425l.0949-.054v1.203l1.5355-.88v-10.182l-1.5657.897v3.809l-.0647.037c-.2372-.416-.7246-.947-1.8935-.277-1.5312.878-2.7346 2.949-2.7346 5.495 0 2.516 1.1689 3.272 2.7303 2.377zm.4356-1.726c-1.0309.591-1.5743-.142-1.5743-1.573 0-1.422.5348-2.748 1.5743-3.344 1.005-.576 1.5571.067 1.5571 1.549 0 1.481-.5607 2.797-1.5571 3.368zM71.8913 163.155l3.5757-2.05c2.0229-1.159 3.0149-2.916 3.0149-4.502 0-1.541-.9489-1.902-1.8892-1.418v-.099c.8627-.728 1.5441-1.815 1.5441-3.053 0-1.516-.9489-2.096-2.8639-.998l-3.3816 1.938v10.182zm1.6002-2.459v-2.982l1.7641-1.012c.9877-.566 1.6002-.221 1.6002.689 0 .81-.4831 1.654-1.6433 2.319l-1.721.986zm0-4.31v-2.809l1.6175-.927c.9402-.539 1.4276-.247 1.4276.539 0 .895-.6297 1.813-1.4621 2.29l-1.583.907zM81.7982 157.63c1.0395-.596 1.6606-1.513 1.9452-2.318l.0518-.03v1.049l1.501-.86v-5.111c0-2.018-1.4277-1.806-2.6914-1.082-1.3932.799-2.4629 2.128-2.808 3.717l1.4579-.597c.1553-.611.5952-1.31 1.3587-1.748.7246-.415 1.1214-.215 1.1214.536v.029c0 .517-.4701.812-1.639 1.626-1.2853.896-2.5146 2.043-2.5146 3.763 0 1.502.9532 1.751 2.217 1.026zm.4054-1.555c-.6513.374-1.1171.298-1.1171-.364 0-.691.5219-1.278 1.2206-1.793.4098-.299 1.2293-.889 1.432-1.194v.9c0 .85-.5952 1.912-1.5355 2.451zM88.5144 143.444l-1.5614.895v10.182l1.5614-.895v-10.182zM92.1131 151.717c1.0395-.595 1.6606-1.513 1.9453-2.318l.0518-.029v1.049l1.501-.861v-5.111c0-2.018-1.4277-1.806-2.6915-1.082-1.3931.799-2.4628 2.128-2.8079 3.718l1.4579-.597c.1553-.611.5952-1.311 1.3586-1.749.7247-.415 1.1215-.215 1.1215.536v.03c0 .517-.4702.811-1.639 1.625-1.2854.896-2.5146 2.043-2.5146 3.763 0 1.502.9532 1.751 2.2169 1.026zm.4055-1.554c-.6513.373-1.1171.297-1.1171-.364 0-.691.5219-1.279 1.2206-1.794.4098-.299 1.2293-.888 1.432-1.193v.899c0 .851-.5952 1.913-1.5355 2.452zM98.8293 143.239c0-1.104.578-2.071 1.4017-2.544.807-.462 1.29-.127 1.29.892v4.584l1.561-.895v-4.863c.004-1.832-.901-2.356-2.269-1.573-.9916.569-1.6731 1.507-1.9751 2.53l-.0776.044v-1.297l-1.4924.855v7.637l1.5614-.896v-4.474zM107.646 142.809c1.665-.955 2.726-2.701 2.838-4.386l-1.492.855c-.134.897-.647 1.664-1.333 2.057-.975.558-1.605-.02-1.605-1.581 0-1.541.643-2.835 1.605-3.386.75-.43 1.212-.138 1.333.529l1.492-.856c-.108-1.593-1.229-2.039-2.847-1.112-1.941 1.112-3.166 3.43-3.166 5.762 0 2.312 1.195 3.253 3.175 2.118zM114.786 138.716c1.544-.885 2.605-2.363 2.881-3.849l-1.458.647c-.211.767-.729 1.402-1.401 1.788-1.01.578-1.678.196-1.691-1.104l4.615-2.646V133c0-2.679-1.398-3.057-3.028-2.122-1.898 1.088-3.136 3.403-3.136 5.76 0 2.396 1.221 3.223 3.218 2.078zm-1.665-3.734c.048-1.002.673-2.18 1.605-2.714.897-.515 1.501-.105 1.509.929l-3.114 1.785zM119.14 136.071l1.561-.895v-4.489c0-.97.634-2.019 1.492-2.511.263-.151.591-.284.725-.311v-1.656c-.142.052-.388.173-.561.272-.759.435-1.393 1.296-1.634 2.319l-.069.04v-1.273l-1.514.868v7.636z" fill="#39475B"/>
  <path d="M74.6418 127.115v-7.291l1.2497-.716v6.021l2.673-1.533v1.27l-3.9227 2.249zM81.856 117.291l-1.597 3.796 1.597-.915v-2.881zm-.1101-1.539l1.309-.75v4.482l.6947-.398v1.235l-.6947.399v1.572l-1.1989.687v-1.572l-2.5078 1.437v-1.396l2.3977-5.696z" fill="#7C7C87"/>
  <defs>
    <filter id="filter0_di" x="148.5" y="81.9999" width="355.501" height="206.115" filterUnits="userSpaceOnUse" color-interpolation-filters="sRGB">
      <feFlood flood-opacity="0" result="BackgroundImageFix"/>
      <feColorMatrix in="SourceAlpha" type="matrix" values="0 0 0 0 0 0 0 0 0 0 0 0 0 0 0 0 0 0 127 0"/>
      <feOffset dy="2"/>
      <feColorMatrix type="matrix" values="0 0 0 0 0 0 0 0 0 0 0 0 0 0 0 0 0 0 0.25 0"/>
      <feBlend mode="normal" in2="BackgroundImageFix" result="effect1_dropShadow"/>
      <feBlend mode="normal" in="SourceGraphic" in2="effect1_dropShadow" result="shape"/>
      <feColorMatrix in="SourceAlpha" type="matrix" values="0 0 0 0 0 0 0 0 0 0 0 0 0 0 0 0 0 0 127 0" result="hardAlpha"/>
      <feOffset dx="-1" dy="-1"/>
      <feComposite in2="hardAlpha" operator="arithmetic" k2="-1" k3="1"/>
      <feColorMatrix type="matrix" values="0 0 0 0 0 0 0 0 0 0 0 0 0 0 0 0 0 0 0.25 0"/>
      <feBlend mode="normal" in2="shape" result="effect2_innerShadow"/>
    </filter>
    <filter id="filter1_d" x="330" y="211" width="31.3303" height="26.2795" filterUnits="userSpaceOnUse" color-interpolation-filters="sRGB">
      <feFlood flood-opacity="0" result="BackgroundImageFix"/>
      <feColorMatrix in="SourceAlpha" type="matrix" values="0 0 0 0 0 0 0 0 0 0 0 0 0 0 0 0 0 0 127 0"/>
      <feOffset dy="2"/>
      <feColorMatrix type="matrix" values="0 0 0 0 0 0 0 0 0 0 0 0 0 0 0 0 0 0 0.25 0"/>
      <feBlend mode="normal" in2="BackgroundImageFix" result="effect1_dropShadow"/>
      <feBlend mode="normal" in="SourceGraphic" in2="effect1_dropShadow" result="shape"/>
    </filter>
    <filter id="filter2_d" x="383" y="243.775" width="30.2683" height="25.4566" filterUnits="userSpaceOnUse" color-interpolation-filters="sRGB">
      <feFlood flood-opacity="0" result="BackgroundImageFix"/>
      <feColorMatrix in="SourceAlpha" type="matrix" values="0 0 0 0 0 0 0 0 0 0 0 0 0 0 0 0 0 0 127 0"/>
      <feOffset dy="2"/>
      <feColorMatrix type="matrix" values="0 0 0 0 0 0 0 0 0 0 0 0 0 0 0 0 0 0 0.25 0"/>
      <feBlend mode="normal" in2="BackgroundImageFix" result="effect1_dropShadow"/>
      <feBlend mode="normal" in="SourceGraphic" in2="effect1_dropShadow" result="shape"/>
    </filter>
    <filter id="filter3_d" x="282" y="184" width="27.7491" height="22.0781" filterUnits="userSpaceOnUse" color-interpolation-filters="sRGB">
      <feFlood flood-opacity="0" result="BackgroundImageFix"/>
      <feColorMatrix in="SourceAlpha" type="matrix" values="0 0 0 0 0 0 0 0 0 0 0 0 0 0 0 0 0 0 127 0"/>
      <feOffset dy="2"/>
      <feColorMatrix type="matrix" values="0 0 0 0 0 0 0 0 0 0 0 0 0 0 0 0 0 0 0.25 0"/>
      <feBlend mode="normal" in2="BackgroundImageFix" result="effect1_dropShadow"/>
      <feBlend mode="normal" in="SourceGraphic" in2="effect1_dropShadow" result="shape"/>
    </filter>
    <filter id="filter4_di" x="64.9999" y="8.57721" width="88.4999" height="223.126" filterUnits="userSpaceOnUse" color-interpolation-filters="sRGB">
      <feFlood flood-opacity="0" result="BackgroundImageFix"/>
      <feColorMatrix in="SourceAlpha" type="matrix" values="0 0 0 0 0 0 0 0 0 0 0 0 0 0 0 0 0 0 127 0"/>
      <feOffset dy="2"/>
      <feColorMatrix type="matrix" values="0 0 0 0 0 0 0 0 0 0 0 0 0 0 0 0 0 0 0.25 0"/>
      <feBlend mode="normal" in2="BackgroundImageFix" result="effect1_dropShadow"/>
      <feBlend mode="normal" in="SourceGraphic" in2="effect1_dropShadow" result="shape"/>
      <feColorMatrix in="SourceAlpha" type="matrix" values="0 0 0 0 0 0 0 0 0 0 0 0 0 0 0 0 0 0 127 0" result="hardAlpha"/>
      <feOffset dx="1" dy="1"/>
      <feComposite in2="hardAlpha" operator="arithmetic" k2="-1" k3="1"/>
      <feColorMatrix type="matrix" values="0 0 0 0 0 0 0 0 0 0 0 0 0 0 0 0 0 0 0.25 0"/>
      <feBlend mode="normal" in2="shape" result="effect2_innerShadow"/>
    </filter>
    <filter id="filter5_d" x="151" y="224.214" width="31.3303" height="26.2795" filterUnits="userSpaceOnUse" color-interpolation-filters="sRGB">
      <feFlood flood-opacity="0" result="BackgroundImageFix"/>
      <feColorMatrix in="SourceAlpha" type="matrix" values="0 0 0 0 0 0 0 0 0 0 0 0 0 0 0 0 0 0 127 0"/>
      <feOffset dy="2"/>
      <feColorMatrix type="matrix" values="0 0 0 0 0 0 0 0 0 0 0 0 0 0 0 0 0 0 0.25 0"/>
      <feBlend mode="normal" in2="BackgroundImageFix" result="effect1_dropShadow"/>
      <feBlend mode="normal" in="SourceGraphic" in2="effect1_dropShadow" result="shape"/>
    </filter>
    <filter id="filter6_d" x="127.089" y="55.9161" width="23.1691" height="25.085" filterUnits="userSpaceOnUse" color-interpolation-filters="sRGB">
      <feFlood flood-opacity="0" result="BackgroundImageFix"/>
      <feColorMatrix in="SourceAlpha" type="matrix" values="0 0 0 0 0 0 0 0 0 0 0 0 0 0 0 0 0 0 127 0"/>
      <feOffset dy="2"/>
      <feColorMatrix type="matrix" values="0 0 0 0 0 0 0 0 0 0 0 0 0 0 0 0 0 0 0.25 0"/>
      <feBlend mode="normal" in2="BackgroundImageFix" result="effect1_dropShadow"/>
      <feBlend mode="normal" in="SourceGraphic" in2="effect1_dropShadow" result="shape"/>
    </filter>
    <filter id="filter7_d" x="139.075" y="155.539" width="21.0193" height="22.943" filterUnits="userSpaceOnUse" color-interpolation-filters="sRGB">
      <feFlood flood-opacity="0" result="BackgroundImageFix"/>
      <feColorMatrix in="SourceAlpha" type="matrix" values="0 0 0 0 0 0 0 0 0 0 0 0 0 0 0 0 0 0 127 0"/>
      <feOffset dy="2"/>
      <feColorMatrix type="matrix" values="0 0 0 0 0 0 0 0 0 0 0 0 0 0 0 0 0 0 0.25 0"/>
      <feBlend mode="normal" in2="BackgroundImageFix" result="effect1_dropShadow"/>
      <feBlend mode="normal" in="SourceGraphic" in2="effect1_dropShadow" result="shape"/>
    </filter>
    <filter id="filter8_d" x="57.4276" y="52.2563" width="23.1547" height="25.0994" filterUnits="userSpaceOnUse" color-interpolation-filters="sRGB">
      <feFlood flood-opacity="0" result="BackgroundImageFix"/>
      <feColorMatrix in="SourceAlpha" type="matrix" values="0 0 0 0 0 0 0 0 0 0 0 0 0 0 0 0 0 0 127 0"/>
      <feOffset dy="2"/>
      <feColorMatrix type="matrix" values="0 0 0 0 0 0 0 0 0 0 0 0 0 0 0 0 0 0 0.25 0"/>
      <feBlend mode="normal" in2="BackgroundImageFix" result="effect1_dropShadow"/>
      <feBlend mode="normal" in="SourceGraphic" in2="effect1_dropShadow" result="shape"/>
    </filter>
    <clipPath id="clip0">
      <path fill="#fff" transform="matrix(.86604 .49997 -.86604 .49997 135.785 280)" d="M0 0h136v23H0z"/>
    </clipPath>
  </defs>
</svg>
