<svg width="62" height="56" viewBox="0 0 62 56" fill="none" xmlns="http://www.w3.org/2000/svg">
<path fill-rule="evenodd" clip-rule="evenodd" d="M39.8397 11.3797C40.1039 11.5122 40.3619 11.6575 40.6128 11.8153L43.1056 9.04357C43.6562 8.4314 44.5973 8.37745 45.2143 8.9227L51.2796 14.2833C51.8835 14.817 51.9577 15.7324 51.4478 16.3565L48.8544 19.5297C49.3082 20.24 49.6357 21.0245 49.8214 21.8487L49.8529 21.9888L53.5164 21.9251C54.3447 21.9107 55.0278 22.5704 55.0423 23.3986L55.1854 31.5737C55.1999 32.402 54.5401 33.0853 53.7117 33.0997L50.023 33.1639C49.7967 34.0052 49.494 34.8243 49.1187 35.6109L51.7697 38.3592C52.3375 38.9478 52.3292 39.8826 51.7511 40.461L45.8432 46.372C45.2717 46.9438 44.35 46.9599 43.7589 46.4084L41.1474 43.9718C40.2229 44.4094 39.2523 44.7429 38.2537 44.966L38.3213 48.8302C38.3358 49.6585 37.676 50.3418 36.8476 50.3562L28.7068 50.4978C27.8786 50.5122 27.1955 49.8525 27.181 49.0243L27.1132 45.1538C26.056 44.9262 25.0474 44.514 24.1337 43.9362L21.2719 46.7995C20.7005 47.3713 19.7787 47.3874 19.1877 46.8359L13.1152 41.17C12.4947 40.5911 12.4776 39.6131 13.0775 39.0129L15.8361 36.2528C15.2486 35.5562 14.8938 34.6897 14.8266 33.7762L10.8591 33.8452C10.0309 33.8597 9.34776 33.2 9.33326 32.3717L9.19018 24.1967C9.17568 23.3683 9.83549 22.685 10.6639 22.6706L14.3568 22.6064C14.6177 21.7129 15.0319 20.8708 15.5815 20.1178L12.6996 17.4289C12.0792 16.85 12.0621 15.872 12.662 15.2718L18.5324 9.39828C19.1038 8.82652 20.0256 8.81044 20.6166 9.36191L23.5421 12.0915C23.9487 11.7636 24.4072 11.5101 24.8963 11.3401L25.508 12.1993C24.9 12.3549 24.3395 12.6715 23.8889 13.1224L23.5352 12.7689L23.1941 13.1345L19.9344 10.0931C19.7374 9.90925 19.4302 9.91461 19.2397 10.1052L13.3693 15.9787C13.1693 16.1788 13.175 16.5048 13.3818 16.6978L16.5913 19.6923L16.9193 19.9983L16.6504 20.3575L16.44 20.6386C15.8651 21.4066 15.453 22.2838 15.229 23.2165L14.7429 23.0997L14.7516 23.5997L10.6812 23.6705C10.4051 23.6753 10.1852 23.903 10.19 24.1792L10.3331 32.3542C10.3379 32.6303 10.5656 32.8502 10.8417 32.8454L15.3023 32.7678L15.8021 32.7591L15.8109 33.259L15.8154 33.5161C15.8312 34.4204 16.2136 35.2795 16.8749 35.8965L16.5338 36.2621L16.8874 36.6156L13.7848 39.7198C13.5849 39.9199 13.5905 40.2459 13.7974 40.4389L19.8699 46.1047C20.0669 46.2886 20.3741 46.2832 20.5646 46.0926L23.7158 42.9397L24.0695 43.2932L24.3558 42.8833C25.3366 43.5683 26.4554 44.0302 27.6338 44.2367L27.6924 44.247L28.0987 44.3182L28.106 44.7307L28.1808 49.0068C28.1856 49.2829 28.4133 49.5028 28.6894 49.498L36.8302 49.3563C37.1064 49.3515 37.3263 49.1238 37.3215 48.8477L37.2466 44.5718L37.2394 44.1592L37.6432 44.0739L37.8913 44.0214C38.9745 43.7925 40.0233 43.424 41.0116 42.9251L41.2369 43.3715L41.5781 43.0059L44.4411 45.6773C44.6381 45.8611 44.9454 45.8557 45.1359 45.6651L51.0438 39.7541C51.2365 39.5613 51.2392 39.2497 51.05 39.0535L48.1555 36.0528L47.911 35.7993L48.0674 35.4837L48.1297 35.358C48.5725 34.4643 48.9136 33.5237 49.1465 32.5538L49.6327 32.6706L49.624 32.1707L53.6943 32.0998C53.9704 32.095 54.1904 31.8673 54.1855 31.5912L54.0424 23.4161C54.0376 23.14 53.8099 22.9201 53.5338 22.9249L49.4633 22.9957L49.0563 23.0028L48.9669 22.6057L48.8458 22.0685C48.6612 21.2492 48.3142 20.4753 47.8253 19.7925L48.2318 19.5014L47.8446 19.185L50.6734 15.7237C50.8434 15.5157 50.8187 15.2105 50.6174 15.0326L44.552 9.672C44.3464 9.49025 44.0327 9.50823 43.8491 9.71229L41.0679 12.8047L40.6961 12.4703L40.4098 12.8803C40.0265 12.6126 39.6222 12.379 39.2014 12.1813L39.8397 11.3797ZM25.8189 12.636C24.8403 13.018 23.9124 13.5253 23.059 14.1471C22.9731 14.2098 22.854 14.199 22.7807 14.122L20.167 11.3785C19.7764 10.9686 19.1238 10.9643 18.728 11.3691L14.9673 15.2148C14.5747 15.6162 14.5895 16.2621 15 16.6451L17.6332 19.1022C17.7843 19.2431 17.8097 19.4734 17.6929 19.6439L17.5968 19.7842C16.7041 21.0874 16.0287 22.5268 15.597 24.0463C15.5543 24.1967 15.4182 24.3014 15.2619 24.3041L11.7981 24.3644C11.2579 24.3738 10.8229 24.8104 10.8156 25.3506L10.7419 30.7542C10.7343 31.3186 11.1949 31.7775 11.7593 31.7677L15.5734 31.7013C15.6902 31.6993 15.7924 31.7792 15.8187 31.8931C16.1729 33.4298 16.8075 34.8881 17.6905 36.1949L17.8373 36.4121C17.9265 36.5441 17.9096 36.7209 17.7969 36.8336L15.1638 39.4683C14.7787 39.8536 14.7729 40.4764 15.1508 40.8688L18.9303 44.7935C19.3339 45.2126 20.0087 45.2 20.3963 44.7661L22.9865 41.8672C23.1063 41.7331 23.3078 41.7107 23.4541 41.8152L23.7266 42.0097C25.2767 43.1163 27.0502 43.8703 28.9227 44.2187C29.0445 44.2414 29.1336 44.3467 29.1358 44.4706L29.1996 48.117C29.2093 48.6701 29.6662 49.1103 30.2193 49.0993L35.6062 48.992C36.1574 48.981 36.5958 48.526 36.5861 47.9747L36.5228 44.3551C36.5206 44.2331 36.6091 44.1284 36.7297 44.11L37.0845 44.056C38.8185 43.792 40.4668 43.1264 41.8979 42.1123C41.9567 42.0707 42.0366 42.0761 42.0893 42.1252L44.5554 44.4263C44.964 44.8076 45.6059 44.7799 45.9802 44.3648L49.7719 40.1602C50.1237 39.7701 50.1137 39.1744 49.749 38.7963L47.2368 36.1917C47.1778 36.1306 47.1717 36.0358 47.2223 35.9676C48.2839 34.5362 49.002 32.8796 49.3208 31.1262L49.3547 30.9402C49.3746 30.8305 49.4726 30.7524 49.584 30.7575L52.5558 30.8925C53.1255 30.9183 53.6015 30.4632 53.6011 29.8929L53.5979 24.8767C53.5975 24.3179 53.1392 23.8678 52.5805 23.8775L48.9792 23.9401C48.9533 23.9406 48.9309 23.9221 48.9264 23.8966C48.6687 22.4163 48.0676 21.0169 47.1715 19.8108L46.6317 19.0842C46.5542 18.9799 46.5575 18.8364 46.6397 18.7358L49.0586 15.7758C49.3964 15.3625 49.35 14.7568 48.9533 14.3998L45.0212 10.8606C44.6106 10.4911 43.9781 10.5245 43.6087 10.9352L41.2709 13.5346C41.1828 13.6326 41.0363 13.6515 40.9262 13.5791C40.2953 13.1641 39.6317 12.8054 38.9429 12.506L38.4137 13.1705C38.4137 13.1705 37.9427 13.0734 37.2435 12.9438C38.35 13.2812 39.4054 13.7757 40.3766 14.4146C40.8997 14.7586 41.5958 14.6689 42.0144 14.2033L44.3522 11.6039L48.2843 15.143L45.8654 18.103C45.4932 18.5584 45.4782 19.2085 45.829 19.6806L46.3688 20.4072C47.1717 21.4879 47.7103 22.7417 47.9413 24.0681C48.0302 24.579 48.478 24.949 48.9965 24.94L52.5979 24.8773L52.6011 29.8935L49.6294 29.7585C49.018 29.7308 48.4803 30.1592 48.3708 30.7613L48.337 30.9473C48.0456 32.5497 47.3893 34.0637 46.4191 35.3719C46.0773 35.8327 46.1188 36.473 46.517 36.8859L49.0293 39.4905L45.2376 43.6951L42.7715 41.3941C42.372 41.0213 41.7656 40.9805 41.3198 41.2964C40.0158 42.2204 38.5139 42.8269 36.934 43.0674L36.5792 43.1214C35.9635 43.2151 35.512 43.7499 35.5229 44.3726L35.5863 47.9922L30.1994 48.0995L30.1356 44.4531C30.1251 43.8541 29.6946 43.3452 29.1056 43.2356C27.3766 42.9138 25.739 42.2176 24.3076 41.1958L24.0351 41.0013C23.4736 40.6004 22.7005 40.6865 22.2408 41.2009L19.6506 44.0998L15.8711 40.1752L18.5042 37.5405C18.9555 37.089 19.0232 36.381 18.6658 35.8522L18.5191 35.635C17.7049 34.4301 17.1198 33.0854 16.7931 31.6684C16.6608 31.0944 16.145 30.6912 15.556 30.7015L11.7419 30.7678L11.8155 25.3642L15.2793 25.304C15.8761 25.2936 16.3958 24.8938 16.5589 24.3196C16.9611 22.9042 17.5902 21.5633 18.4218 20.3493L18.5179 20.209C18.9141 19.6306 18.8281 18.8494 18.3154 18.371L15.6822 15.914L19.4429 12.0682L22.0566 14.8118C22.476 15.252 23.1566 15.3134 23.648 14.9553C24.9154 14.0317 26.362 13.3833 27.8948 13.0518L28.0048 13.028C28.2615 12.9725 28.485 12.8401 28.6536 12.6584C28.4139 12.7024 28.2747 12.7322 28.2747 12.7322L26.3881 13.4355L25.8189 12.636Z" fill="white"/>
<path fill-rule="evenodd" clip-rule="evenodd" d="M46.6875 27.5001C46.6875 35.5083 40.1956 42.0001 32.1875 42.0001C24.1794 42.0001 17.6875 35.5083 17.6875 27.5001C17.6875 19.492 24.1794 13.0001 32.1875 13.0001C40.1956 13.0001 46.6875 19.492 46.6875 27.5001ZM45.1875 27.4424C45.1875 34.6221 39.3672 40.4424 32.1875 40.4424C25.0078 40.4424 19.1875 34.6221 19.1875 27.4424C19.1875 20.2627 25.0078 14.4424 32.1875 14.4424C39.3672 14.4424 45.1875 20.2627 45.1875 27.4424Z" fill="white"/>
<path fill-rule="evenodd" clip-rule="evenodd" d="M25.6875 3.00012C25.6875 2.44784 26.1352 2.00012 26.6875 2.00012H37.6875C38.2398 2.00012 38.6875 2.44784 38.6875 3.00012V8.00012H25.6875V3.00012Z" stroke="white" stroke-width="1.5"/>
<path d="M60.5149 30.0001C60.5149 30.0001 59.2284 46.4512 41.8604 53.2144" stroke="white"/>
<path d="M42.5778 47.8573L41.8604 53.1634L48.0785 55.0002" stroke="white"/>
<path d="M4.31404 30.4218C4.31404 30.4218 3.32045 12.4264 18.5912 3.1032" stroke="white"/>
<path d="M18.9007 8.30155L18.8706 2.6296L12.9436 1.3927" stroke="white"/>
<path d="M34.6875 8.00012V14.0001" stroke="white" stroke-width="1.5"/>
<path d="M29.6875 8.00012V14.0001" stroke="white" stroke-width="1.5"/>
</svg>
