<svg width="57" height="56" viewBox="0 0 57 56" fill="none" xmlns="http://www.w3.org/2000/svg">
<rect x="0.805176" y="0.75" width="54.5" height="54.5" rx="1.25" stroke="white" stroke-width="1.5"/>
<rect x="5.55518" y="5.5" width="3" height="3" rx="1.5" stroke="white"/>
<rect x="12.5552" y="5.5" width="3" height="3" rx="1.5" stroke="white"/>
<rect x="19.5552" y="5.5" width="3" height="3" rx="1.5" stroke="white"/>
<path fill-rule="evenodd" clip-rule="evenodd" d="M45.5398 48.9123C45.5398 48.9123 44.6475 46.3411 44.9077 46.2641C45.6048 45.8864 46.2406 45.4219 46.8043 44.8879C47.073 44.8462 48.932 46.2641 48.932 46.2641C48.932 46.2641 51.4072 42.2863 51.4072 42.2863C51.4072 42.2863 49.3231 41.2299 49.2303 41.0086C49.4753 40.2322 49.6178 39.4177 49.6454 38.5848C49.5978 38.3854 51.9317 37.8386 51.9317 37.8386C51.9317 37.8386 50.9975 33.7327 50.9975 33.7327C50.9975 33.7327 48.6636 34.2795 48.7189 34.2737C48.3336 33.49 47.8416 32.7792 47.2659 32.1556C47.2545 32.1382 48.3129 30.0368 48.3129 30.0368C48.3129 30.0368 45.0199 27.7191 45.0199 27.7191C45.0199 27.7191 43.6031 29.5956 43.5369 29.74C42.7255 29.4675 41.8695 29.3101 40.9924 29.2826C40.7773 29.3308 40.2435 26.9846 40.2435 26.9846C40.2435 26.9846 36.1591 27.9414 36.1591 27.9414C36.1591 27.9414 36.6929 30.2877 36.5955 30.2787C35.8582 30.6587 35.1867 31.1348 34.5933 31.6872C34.5592 31.7143 32.4084 30.3646 32.4084 30.3646L29.9333 34.3425C29.9333 34.3425 32.0174 35.3988 32.1068 35.6307C31.847 36.4577 31.7034 37.3278 31.6909 38.2172C31.7427 38.2434 29.117 38.8585 29.117 38.8585C29.117 38.8585 30.0512 42.9644 30.0512 42.9644C30.0512 42.9644 32.6769 42.3493 32.7315 42.5714C33.1114 43.2938 33.5832 43.9508 34.1282 44.5307C34.4444 44.7155 33.0276 46.5919 33.0276 46.5919C33.0276 46.5919 36.679 49.1346 36.679 49.1346C36.679 49.1346 37.9623 46.6716 37.8909 46.9176C38.7017 47.1806 39.5559 47.3291 40.4303 47.3484C40.5632 47.2979 41.1637 49.9374 41.1637 49.9374C41.1637 49.9374 45.5398 48.9123 45.5398 48.9123Z" stroke="white"/>
<path fill-rule="evenodd" clip-rule="evenodd" d="M21.2126 41.7022C21.2126 41.7022 20.3204 39.131 20.5806 39.054C21.2776 38.6763 21.9134 38.2118 22.4772 37.6778C22.7458 37.6361 24.6049 39.0541 24.6049 39.0541C24.6049 39.0541 27.08 35.0762 27.08 35.0762C27.08 35.0762 24.9959 34.0199 24.9032 33.7985C25.1482 33.0221 25.2907 32.2076 25.3183 31.3747C25.2706 31.1753 27.6045 30.6285 27.6045 30.6285C27.6045 30.6285 26.6703 26.5226 26.6703 26.5226C26.6703 26.5226 24.3364 27.0694 24.3918 27.0636C24.0064 26.2799 23.5145 25.5691 22.9387 24.9456C22.9274 24.9282 23.9857 22.8268 23.9857 22.8268C23.9857 22.8268 20.6928 20.509 20.6928 20.509C20.6928 20.509 19.276 22.3855 19.2097 22.5299C18.3984 22.2574 17.5424 22.1 16.6653 22.0725C16.4501 22.1208 15.9163 19.7745 15.9163 19.7745C15.9163 19.7745 11.832 20.7313 11.832 20.7313C11.832 20.7313 12.3658 23.0776 12.2684 23.0686C11.5311 23.4487 10.8596 23.9247 10.2661 24.4771C10.2321 24.5042 8.08127 23.1545 8.08127 23.1545L5.60615 27.1324C5.60615 27.1324 7.69022 28.1888 7.77964 28.4207C7.51981 29.2476 7.37621 30.1178 7.3638 31.0071C7.41555 31.0333 4.7899 31.6484 4.7899 31.6484C4.7899 31.6484 5.72409 35.7543 5.72409 35.7543C5.72409 35.7543 8.34974 35.1392 8.4044 35.3613C8.78429 36.0837 9.25609 36.7407 9.80106 37.3206C10.1172 37.5054 8.70045 39.3818 8.70045 39.3818C8.70045 39.3818 12.3518 41.9245 12.3518 41.9245C12.3518 41.9245 13.6352 39.4615 13.5638 39.7075C14.3746 39.9706 15.2287 40.119 16.1031 40.1383C16.236 40.0878 16.8366 42.7274 16.8366 42.7274C16.8366 42.7274 21.2126 41.7022 21.2126 41.7022Z" stroke="white"/>
<path fill-rule="evenodd" clip-rule="evenodd" d="M41.3682 41.9179C43.3823 41.4461 44.6522 39.4692 44.2047 37.5023C43.7572 35.5355 41.7617 34.3235 39.7477 34.7954C37.7337 35.2672 36.4637 37.2441 36.9112 39.2109C37.3587 41.1778 39.3542 42.3897 41.3682 41.9179Z" stroke="white"/>
<path fill-rule="evenodd" clip-rule="evenodd" d="M17.0411 34.7078C19.0551 34.236 20.3251 32.2591 19.8776 30.2922C19.4301 28.3254 17.4346 27.1135 15.4206 27.5853C13.4065 28.0571 12.1366 30.034 12.5841 32.0008C13.0316 33.9677 15.027 35.1796 17.0411 34.7078Z" stroke="white"/>
<path d="M0.0551758 14H54.0552" stroke="white" stroke-width="1.5"/>
</svg>
