<svg width="35" height="57" viewBox="0 0 35 57" fill="none" xmlns="http://www.w3.org/2000/svg">
<mask id="path-1-inside-1" fill="white">
<rect x="8.26953" y="4" width="18" height="47" rx="1"/>
</mask>
<rect x="8.26953" y="4" width="18" height="47" rx="1" stroke="white" stroke-width="3" mask="url(#path-1-inside-1)"/>
<path fill-rule="evenodd" clip-rule="evenodd" d="M17.2695 44C19.2025 44 20.7695 42.433 20.7695 40.5C20.7695 38.567 19.2025 37 17.2695 37C15.3365 37 13.7695 38.567 13.7695 40.5C13.7695 42.433 15.3365 44 17.2695 44Z" stroke="white" stroke-width="1.5"/>
<path fill-rule="evenodd" clip-rule="evenodd" d="M17.2695 31C19.2025 31 20.7695 29.433 20.7695 27.5C20.7695 25.567 19.2025 24 17.2695 24C15.3365 24 13.7695 25.567 13.7695 27.5C13.7695 29.433 15.3365 31 17.2695 31Z" stroke="white" stroke-width="1.5"/>
<path fill-rule="evenodd" clip-rule="evenodd" d="M17.2695 18C19.2025 18 20.7695 16.433 20.7695 14.5C20.7695 12.567 19.2025 11 17.2695 11C15.3365 11 13.7695 12.567 13.7695 14.5C13.7695 16.433 15.3365 18 17.2695 18Z" stroke="white" stroke-width="1.5"/>
<path fill-rule="evenodd" clip-rule="evenodd" d="M26.2695 11H33.2695V14.4054C33.2695 14.4054 31.5195 14.4054 30.7418 15.3514C29.7695 16.2973 29.7695 18 29.7695 18H26.2695V11Z" stroke="white" stroke-width="1.5"/>
<path fill-rule="evenodd" clip-rule="evenodd" d="M8.26953 11H1.26953V14.4054C1.26953 14.4054 3.01953 14.4054 3.79731 15.3514C4.76953 16.2973 4.76953 18 4.76953 18H8.26953V11Z" stroke="white" stroke-width="1.5"/>
<path fill-rule="evenodd" clip-rule="evenodd" d="M26.2695 24H33.2695V27.4054C33.2695 27.4054 31.5195 27.4054 30.7418 28.3514C29.7695 29.2973 29.7695 31 29.7695 31H26.2695V24Z" stroke="white" stroke-width="1.5"/>
<path fill-rule="evenodd" clip-rule="evenodd" d="M8.26953 24H1.26953V27.4054C1.26953 27.4054 3.01953 27.4054 3.79731 28.3514C4.76953 29.2973 4.76953 31 4.76953 31H8.26953V24Z" stroke="white" stroke-width="1.5"/>
<path fill-rule="evenodd" clip-rule="evenodd" d="M26.2695 37H33.2695V40.4054C33.2695 40.4054 31.5195 40.4054 30.7418 41.3514C29.7695 42.2973 29.7695 44 29.7695 44H26.2695V37Z" stroke="white" stroke-width="1.5"/>
<path fill-rule="evenodd" clip-rule="evenodd" d="M8.26953 37H1.26953V40.4054C1.26953 40.4054 3.01953 40.4054 3.79731 41.3514C4.76953 42.2973 4.76953 44 4.76953 44H8.26953V37Z" stroke="white" stroke-width="1.5"/>
<mask id="path-11-inside-2" fill="white">
<rect x="13.2695" width="8" height="5" rx="1"/>
</mask>
<rect x="13.2695" width="8" height="5" rx="1" stroke="white" stroke-width="3" mask="url(#path-11-inside-2)"/>
<path d="M20.2695 51V56" stroke="white" stroke-width="1.5" stroke-linecap="round"/>
<path d="M14.2695 51V56" stroke="white" stroke-width="1.5" stroke-linecap="round"/>
</svg>
