<svg width="57" height="56" viewBox="0 0 57 56" fill="none" xmlns="http://www.w3.org/2000/svg">
<path d="M0.759277 2C0.759277 1.30964 1.31892 0.75 2.00928 0.75H54.0093C54.6996 0.75 55.2593 1.30964 55.2593 2V50C55.2593 50.6904 54.6996 51.25 54.0093 51.25H41.2593V51.2459V51.2361V51.2263V51.2164V51.2065V51.1965V51.1865V51.1765V51.1664V51.1562V51.1461V51.1358V51.1255V51.1152V51.1048V51.0944V51.084V51.0735V51.063V51.0524V51.0417V51.0311V51.0204V51.0096V50.9988V50.988V50.9772V50.9662V50.9553V50.9443V50.9333V50.9222V50.9111V50.9V50.8888V50.8776V50.8664V50.8551V50.8438V50.8324V50.821V50.8096V50.7981V50.7866V50.7751V50.7635V50.7519V50.7403V50.7286V50.7169V50.7052V50.6934V50.6816V50.6698V50.658V50.6461V50.6342V50.6222V50.6102V50.5982V50.5862V50.5741V50.562V50.5499V50.5377V50.5256V50.5134V50.5011V50.4889V50.4766V50.4643V50.4519V50.4396V50.4272V50.4148V50.4023V50.3899V50.3774V50.3649V50.3523V50.3398V50.3272V50.3146V50.302V50.2893V50.2766V50.264V50.2512V50.2385V50.2258V50.213V50.2002V50.1874V50.1746V50.1617V50.1488V50.136V50.1231V50.1101V50.0972V50.0843V50.0713V50.0583V50.0453V50.0323V50.0193V50.0062V49.9932V49.9801V49.967V49.9539V49.9408V49.9276V49.9145V49.9013V49.8882V49.875V49.8618V49.8486V49.8354V49.8222V49.8089V49.7957V49.7825V49.7692V49.7559V49.7426V49.7294V49.7161V49.7028V49.6895V49.6761V49.6628V49.6495V49.6361V49.6228V49.6095V49.5961V49.5827V49.5694V49.556V49.5426V49.5293V49.5159V49.5025V49.4891V49.4757V49.4624V49.449V49.4356V49.4222V49.4088V49.3954V49.382V49.3686V49.3552V49.3418V49.3284V49.3151V49.3017V49.2883V49.2749V49.2615V49.2481V49.2348V49.2214V49.208V49.1947V49.1813V49.168V49.1546V49.1413V49.1279V49.1146V49.1013V49.088V49.0746V49.0613V49.048V49.0348V49.0215V49.0082V48.995V48.9817V48.9685V48.9552V48.942V48.9288V48.9156V48.9024V48.8892V48.876V48.8629V48.8497V48.8366V48.8235V48.8104V48.7973V48.7842V48.7712V48.7581V48.7451V48.7321V48.7191V48.7061V48.6931V48.6801V48.6672V48.6543V48.6414V48.6285V48.6156V48.6028V48.59V48.5771V48.5643V48.5516V48.5388V48.5261V48.5134V48.5007V48.488V48.4754V48.4627V48.4501V48.4375V48.425V48.4124V48.3999V48.3874V48.375V48.3625V48.3501V48.3377V48.3254V48.313V48.3007V48.2884V48.2761V48.2639V48.2517V48.2395V48.2274V48.2152V48.2031V48.1911V48.179V48.167V48.155V48.1431V48.1311V48.1192V48.1074V48.0956V48.0838V48.072V48.0603V48.0486V48.0369V48.0252V48.0136V48.0021V47.9905V47.979V47.9676V47.9561V47.9447V47.9334V47.922V47.9108V47.8995V47.8883V47.8771V47.866V47.8549V47.8438V47.8328V47.8218V47.8108V47.7999V47.789V47.7782V47.7674V47.7567V47.746V47.7353V47.7247V47.7141V47.7035V47.693V47.6826V47.6721V47.6618V47.6514V47.6412V47.6309V47.6207V47.6106V47.6005V47.5904V47.5804V47.5704V47.5605V47.5506V47.5408V47.531V47.5213V47.5116V47.502V47.4924V47.4828V47.4733V47.4639V47.4545V47.4452V47.4359V47.4266V47.4174V47.4083V47.3992V47.3902V47.3812V47.3723V47.3634V47.3546V47.3458V47.3371V47.3284V47.3198V47.3113V47.3028V47.2944V47.286V47.2776V47.2694V47.2612V47.253V47.2449V47.2369V47.2289V47.2209V47.2131V47.2053V47.1975V47.1898V47.1822V47.1746V47.1671V47.1597V47.1523V47.145V47.1377V47.1305V47.1234V47.1163V47.1093V47.1023V47.0954V47.0886V47.0819V47.0752V47.0685V47.062V47.0555V47.049V47.0427V47.0364V47.0301V47.024V47.0179V47.0119V47.0059V47C41.2593 45.9116 40.8964 45.0866 40.3376 44.5324C39.7943 43.9936 39.1032 43.75 38.5093 43.75C37.982 43.75 37.264 43.8643 36.6778 44.4027C36.0802 44.9516 35.7593 45.8111 35.7593 47V47.0059V47.0119V47.0179V47.024V47.0301V47.0364V47.0427V47.049V47.0555V47.062V47.0685V47.0752V47.0819V47.0886V47.0954V47.1023V47.1093V47.1163V47.1234V47.1305V47.1377V47.145V47.1523V47.1597V47.1671V47.1746V47.1822V47.1898V47.1975V47.2053V47.2131V47.2209V47.2289V47.2369V47.2449V47.253V47.2612V47.2694V47.2776V47.286V47.2944V47.3028V47.3113V47.3198V47.3284V47.3371V47.3458V47.3546V47.3634V47.3723V47.3812V47.3902V47.3992V47.4083V47.4174V47.4266V47.4359V47.4452V47.4545V47.4639V47.4733V47.4828V47.4924V47.502V47.5116V47.5213V47.531V47.5408V47.5506V47.5605V47.5704V47.5804V47.5904V47.6005V47.6106V47.6207V47.6309V47.6412V47.6514V47.6618V47.6721V47.6826V47.693V47.7035V47.7141V47.7247V47.7353V47.746V47.7567V47.7674V47.7782V47.789V47.7999V47.8108V47.8218V47.8328V47.8438V47.8549V47.866V47.8771V47.8883V47.8995V47.9108V47.922V47.9334V47.9447V47.9561V47.9676V47.979V47.9905V48.0021V48.0136V48.0252V48.0369V48.0486V48.0603V48.072V48.0838V48.0956V48.1074V48.1192V48.1311V48.1431V48.155V48.167V48.179V48.1911V48.2031V48.2152V48.2274V48.2395V48.2517V48.2639V48.2761V48.2884V48.3007V48.313V48.3254V48.3377V48.3501V48.3625V48.375V48.3874V48.3999V48.4124V48.425V48.4375V48.4501V48.4627V48.4754V48.488V48.5007V48.5134V48.5261V48.5388V48.5516V48.5643V48.5771V48.59V48.6028V48.6156V48.6285V48.6414V48.6543V48.6672V48.6801V48.6931V48.7061V48.7191V48.7321V48.7451V48.7581V48.7712V48.7842V48.7973V48.8104V48.8235V48.8366V48.8497V48.8629V48.876V48.8892V48.9024V48.9156V48.9288V48.942V48.9552V48.9685V48.9817V48.995V49.0082V49.0215V49.0348V49.048V49.0613V49.0746V49.088V49.1013V49.1146V49.1279V49.1413V49.1546V49.168V49.1813V49.1947V49.208V49.2214V49.2348V49.2481V49.2615V49.2749V49.2883V49.3017V49.3151V49.3284V49.3418V49.3552V49.3686V49.382V49.3954V49.4088V49.4222V49.4356V49.449V49.4624V49.4757V49.4891V49.5025V49.5159V49.5293V49.5426V49.556V49.5694V49.5827V49.5961V49.6095V49.6228V49.6361V49.6495V49.6628V49.6761V49.6895V49.7028V49.7161V49.7294V49.7426V49.7559V49.7692V49.7825V49.7957V49.8089V49.8222V49.8354V49.8486V49.8618V49.875V49.8882V49.9013V49.9145V49.9276V49.9408V49.9539V49.967V49.9801V49.9932V50.0062V50.0193V50.0323V50.0453V50.0583V50.0713V50.0843V50.0972V50.1101V50.1231V50.136V50.1488V50.1617V50.1746V50.1874V50.2002V50.213V50.2258V50.2385V50.2512V50.264V50.2766V50.2893V50.302V50.3146V50.3272V50.3398V50.3523V50.3649V50.3774V50.3899V50.4023V50.4148V50.4272V50.4396V50.4519V50.4643V50.4766V50.4889V50.5011V50.5134V50.5256V50.5377V50.5499V50.562V50.5741V50.5862V50.5982V50.6102V50.6222V50.6342V50.6461V50.658V50.6698V50.6816V50.6934V50.7052V50.7169V50.7286V50.7403V50.7519V50.7635V50.7751V50.7866V50.7981V50.8096V50.821V50.8324V50.8438V50.8551V50.8664V50.8776V50.8888V50.9V50.9111V50.9222V50.9333V50.9443V50.9553V50.9662V50.9772V50.988V50.9988V51.0096V51.0204V51.0311V51.0417V51.0524V51.063V51.0735V51.084V51.0944V51.1048V51.1152V51.1255V51.1358V51.1461V51.1562V51.1664V51.1765V51.1865V51.1965V51.2065V51.2164V51.2263V51.2361V51.2459V51.25H2.00928C1.31892 51.25 0.759277 50.6904 0.759277 50V2Z" stroke="white" stroke-width="1.5"/>
<rect x="5.50928" y="5.5" width="3" height="3" rx="1.5" stroke="white"/>
<rect x="12.5093" y="5.5" width="3" height="3" rx="1.5" stroke="white"/>
<rect x="19.5093" y="5.5" width="3" height="3" rx="1.5" stroke="white"/>
<path fill-rule="evenodd" clip-rule="evenodd" d="M38.5093 41C44.3083 41 49.0093 36.299 49.0093 30.5C49.0093 24.701 44.3083 20 38.5093 20C32.7103 20 28.0093 24.701 28.0093 30.5C28.0093 36.299 32.7103 41 38.5093 41Z" stroke="white" stroke-width="1.5"/>
<path d="M38.0093 24C34.6956 24 32.0093 26.9101 32.0093 30.5C32.0093 34.0899 34.6956 37 38.0093 37" stroke="white"/>
<path d="M35.7593 45.8889C35.7593 44.7076 36.7169 43.75 37.8982 43.75H39.1204C40.3017 43.75 41.2593 44.7076 41.2593 45.8889V52.5C41.2593 54.0188 40.0281 55.25 38.5093 55.25C36.9905 55.25 35.7593 54.0188 35.7593 52.5V45.8889Z" stroke="white" stroke-width="1.5"/>
<path d="M40.0093 44V41" stroke="white" stroke-width="1.5"/>
<path d="M37.0093 44V41" stroke="white" stroke-width="1.5"/>
<path d="M0.00927734 14H56.0093" stroke="white" stroke-width="1.5"/>
</svg>
