<svg width="56" height="56" viewBox="0 0 56 56" fill="none" xmlns="http://www.w3.org/2000/svg">
<rect x="0.75" y="20.75" width="11.5" height="13.5" rx="0.75" stroke="white" stroke-width="1.5"/>
<rect x="43.75" y="42.75" width="11.5" height="12.5" rx="0.75" stroke="white" stroke-width="1.5"/>
<rect x="43.75" y="21.75" width="11.5" height="12.5" rx="0.75" stroke="white" stroke-width="1.5"/>
<rect x="43.75" y="0.75" width="11.5" height="12.5" rx="0.75" stroke="white" stroke-width="1.5"/>
<path d="M39 7H26C24.8954 7 24 7.89543 24 9V47C24 48.1046 24.8954 49 26 49H39" stroke="white" stroke-width="1.5" stroke-linecap="round"/>
<path d="M35 1L41 7L35 13" stroke="white" stroke-width="1.5" stroke-linecap="round"/>
<path d="M35 22L41 28L35 34" stroke="white" stroke-width="1.5" stroke-linecap="round"/>
<path d="M35 43L41 49L35 55" stroke="white" stroke-width="1.5" stroke-linecap="round"/>
<path d="M12 28H40" stroke="white" stroke-width="1.5"/>
</svg>
