<svg width="41" height="57" viewBox="0 0 41 57" fill="none" xmlns="http://www.w3.org/2000/svg">
<path d="M8 22C8 22 8 11.678 8 11.322C8 6.33898 12.1667 1 20.5 1C23.4245 1 25.8358 1.61369 27.7339 2.64109C32.4142 5.17434 33 22 33 22V22" stroke="white" stroke-width="1.5"/>
<rect x="0.75" y="21.75" width="39.5" height="34.5" rx="2.25" stroke="white" stroke-width="1.5"/>
<path fill-rule="evenodd" clip-rule="evenodd" d="M20.5 48C21.3 48 22.5 47.8642 22.5 46.5217C22.5 43.9348 22.5 39.8696 22.5889 39.8179C24.3072 39.0869 25.5 37.4819 25.5 35.6196C25.5 33.0682 23.2614 31 20.5 31C17.7386 31 15.5 33.0682 15.5 35.6196C15.5 37.5659 16.8028 39.2311 18.6466 39.9114C18.9 39.8696 18.9 44.3043 18.9 46.5217C18.9 47.7638 19.7 48 20.5 48Z" stroke="white" stroke-width="1.5"/>
</svg>
