<svg width="600" height="800" viewBox="0 0 600 800" fill="none" xmlns="http://www.w3.org/2000/svg">
<rect width="600" height="800" />
<path fill-rule="evenodd" clip-rule="evenodd" d="M287.577 746.336C357.93 745.113 415.074 750.569 415.214 758.522C415.353 766.471 358.436 773.911 288.081 775.134C217.729 776.357 160.584 770.901 160.444 762.952C160.305 754.999 217.224 747.559 287.577 746.336Z" fill="#212121" fill-opacity="0.32" />
<path fill-rule="evenodd" clip-rule="evenodd" d="M222.091 709.538C222.089 709.514 222.106 709.497 222.128 709.493L247.38 707.292C247.402 707.292 247.422 707.306 247.424 707.329L251.998 759.419C252 759.439 251.983 759.46 251.961 759.463L249.909 759.64L250.023 760.35C250.026 760.37 250.014 760.387 249.996 760.39L204.488 768.815C203.68 768.965 202.909 768.418 202.78 767.606L200.772 754.921C200.646 754.123 201.189 753.375 201.986 753.249L225.601 749.506L222.091 709.538Z" fill="#272733"/>
<path fill-rule="evenodd" clip-rule="evenodd" d="M350.525 708.749C350.525 708.726 350.505 708.709 350.481 708.709L325.141 709.161C325.117 709.161 325.1 709.181 325.1 709.201L325.993 761.484C325.993 761.505 326.01 761.525 326.034 761.525L328.091 761.488L328.054 762.204C328.054 762.225 328.067 762.238 328.084 762.242L374.222 765.86C375.043 765.924 375.753 765.299 375.794 764.481L376.466 751.653C376.51 750.848 375.892 750.158 375.084 750.117L351.207 748.864L350.525 708.749Z" fill="#272733"/>
<path d="M131.72 556H416.565L430.762 339.947C433.363 300.389 422.071 263.743 399.376 235.297C381.206 239.575 346.458 235.24 309.388 223.922C273.081 212.837 242.29 197.408 229.175 183.905C210.047 185.769 192.337 190.782 176.476 198.389C156.748 207.851 139.88 221.326 126.706 237.745C113.049 254.766 103.361 274.952 98.57 297.113C94.4811 316.024 93.9583 336.373 97.577 357.418L131.72 556Z" fill="#272733"/>
<path fill-rule="evenodd" clip-rule="evenodd" d="M109.995 427.682C109.421 424.696 112.757 422.518 115.258 424.247L273.626 533.644C274.893 534.517 276.59 534.432 277.76 533.43L417.387 414.049C419.651 412.116 423.131 413.825 422.985 416.801C407.991 721 180.193 792.908 109.995 427.682Z" fill="white"/>
<path d="M131.39 580.866L110.158 426.966C109.618 423.225 114.68 421.551 116.473 424.877L222.253 622.726C222.445 623.083 222.698 623.399 223.001 623.667L276.593 670.861C277.893 672.006 279.843 671.996 281.13 670.837L325.358 630.998C325.718 630.672 326.007 630.275 326.2 629.83L418.282 414.634C419.776 411.216 424.886 412.385 424.753 416.112L422.143 544.567L416.504 684.973C416.473 685.782 416.151 686.549 415.601 687.144L369.741 736.39C369.093 737.09 368.176 737.48 367.222 737.467L321.349 736.818C320.843 736.811 320.344 736.692 319.889 736.464L288.951 721.021C287.899 720.498 286.652 720.548 285.65 721.163L260.618 736.461C260.277 736.668 259.902 736.814 259.511 736.892L217.331 745.226C216.446 745.399 215.527 745.212 214.78 744.706L154.472 703.729C153.719 703.216 153.205 702.424 153.044 701.528L131.39 580.866Z" fill="#272733" stroke="#272733"/>
<path fill-rule="evenodd" clip-rule="evenodd" d="M58.0931 488.996C59.5512 528.482 137.55 618 137.55 618L168.019 520.319C168.019 520.319 137.401 466.984 131.245 453.971C120.878 432.055 56.6351 449.511 58.0931 488.996Z" fill="#272733"/>
<path fill-rule="evenodd" clip-rule="evenodd" d="M407.118 474.523C403.452 435.183 468.972 336.526 468.972 336.526L482.589 365.816L463.577 400.067L469.152 403.155L485.913 372.96L489.063 379.741L473.046 408.597L478.62 411.685L492.384 386.886L495.538 393.666L482.514 417.127L488.089 420.215L498.858 400.811L512.061 429.211C512.061 429.211 488.609 486.066 484.192 499.767C476.75 522.844 410.788 513.862 407.118 474.523Z" fill="#272733"/>
<path fill-rule="evenodd" clip-rule="evenodd" d="M277.683 576.837C281.338 576.647 284.146 573.525 283.955 569.866C283.763 566.21 280.644 563.397 276.989 563.591C273.333 563.781 270.524 566.903 270.716 570.562C270.908 574.218 274.026 577.027 277.683 576.837Z" fill="#272733"/>
<path fill-rule="evenodd" clip-rule="evenodd" d="M279.07 603.328C282.725 603.138 285.534 600.016 285.342 596.357C285.151 592.701 282.032 589.892 278.376 590.082C274.72 590.272 271.912 593.394 272.103 597.053C272.295 600.709 275.414 603.522 279.07 603.328Z" fill="#272733"/>
<path d="M175.224 428.155L271.246 481.582L185.467 545.23L175.224 428.155Z" fill="#F24E1E"/>
<path d="M271.263 481.596L356.533 412.308L366.776 529.383L271.263 481.596Z" fill="#DB210F"/>
<path d="M270.103 415.831L307.595 393.294C307.64 393.275 307.635 393.212 307.601 393.183L263.815 356.093C263.781 356.065 263.75 356.067 263.721 356.101L263.09 356.853" fill="#754F10"/>
<path d="M263.088 356.838L226.092 400.061C226.063 400.095 226.069 400.158 226.117 400.169L270.04 415.837C270.057 415.851 270.087 415.833 270.103 415.831" fill="#F5A623"/>
<path d="M381.687 191.873L379.996 190.894L379.486 192.78C378.231 197.428 377.097 202.099 376.125 206.757C375.633 208.054 374.03 209.291 370.683 210.064C367.357 210.832 362.755 211.028 357.151 210.616C345.966 209.794 331.142 206.581 315.355 201.142C299.57 195.703 285.912 189.103 276.593 182.86C271.924 179.732 268.418 176.742 266.27 174.088C264.115 171.426 263.608 169.468 264.011 168.142C266.118 163.86 268.104 159.472 269.975 155.023L270.73 153.226L268.799 152.956C256.335 151.215 245.586 150.854 237.543 152C233.524 152.573 230.099 153.532 227.457 154.942C224.804 156.357 222.843 158.282 221.976 160.801C220.526 165.016 222.483 169.77 226.311 174.492C230.198 179.286 236.326 184.451 244.152 189.689C259.822 200.177 282.593 211.152 308.754 220.166C334.915 229.18 359.61 234.559 378.412 235.948C387.801 236.642 395.808 236.347 401.82 234.964C407.742 233.601 412.21 231.06 413.661 226.845L413.661 226.845C414.526 224.329 414.168 221.609 412.953 218.864C411.742 216.13 409.641 213.268 406.834 210.346C401.218 204.497 392.551 198.17 381.687 191.873Z" fill="#272733" stroke="white" stroke-width="3"/>
<path d="M416.822 102.656C411.973 110.935 386.655 110.127 350.91 97.8114C315.172 85.4978 294.717 70.5393 295.987 61.0294C295.987 61.0294 285.826 120.004 261.743 169.218C261.685 177.625 285.357 193.05 314.664 203.148C343.978 213.248 372.329 215.675 377.448 209.007C388.442 156.129 416.708 102.835 416.822 102.656Z" fill="#AF5CF8"/>
<path d="M430.405 83.6505C425.553 91.9292 393.942 88.9529 358.198 76.6371C322.46 64.3234 295.709 47.1958 296.978 37.686C296.978 37.686 291.44 96.9488 270.686 149.272C270.628 157.68 292.641 171.876 321.948 181.973C351.265 192.074 377.348 194.451 382.471 187.783C398.283 133.86 430.291 83.8294 430.405 83.6505Z" fill="#272733"/>
<path d="M431.745 82.529C431.646 82.8128 431.525 83.0835 431.372 83.3436C426.566 91.6475 394.923 88.6701 359.157 76.3465C323.42 64.0329 296.669 46.9052 297.938 37.3954C297.981 37.0895 298.052 36.7899 298.151 36.4997C301.351 27.2043 333.85 29.9726 370.743 42.6832C407.632 55.3938 434.945 73.2315 431.745 82.529Z" fill="#272733"/>
<path d="M350.091 342.098C326.418 358.337 278.2 329.579 278.2 329.579C289.728 316.053 348.263 248.158 363.917 270.775C379.955 293.922 373.764 325.858 350.091 342.098Z" fill="white"/>
<path d="M180.312 355.694C154.363 343.439 143.172 312.9 155.319 287.489C167.186 262.651 235.76 320.396 249.306 331.905C249.306 331.905 206.262 367.965 180.312 355.694Z" fill="white"/>
<circle cx="306.63" cy="312.38" r="17.0055" transform="rotate(-5 306.63 312.38)" fill="#272733"/>
<circle cx="218.846" cy="320.06" r="17.0055" transform="rotate(-5 218.846 320.06)" fill="#272733"/>
</svg>