<svg viewBox="0 0 24 24" xmlns="http://www.w3.org/2000/svg">
<path fill-rule="evenodd" clip-rule="evenodd" d="M5.24975 3.75C4.42133 3.75 3.74976 4.42157 3.74976 5.25V18.75C3.74976 19.5784 4.42133 20.25 5.24975 20.25H18.7497C19.5782 20.25 20.2497 19.5784 20.2497 18.75V5.25C20.2497 4.42157 19.5782 3.75 18.7497 3.75H5.24975ZM2.24976 5.25C2.24976 3.59315 3.5929 2.25 5.24975 2.25H18.7497C20.4066 2.25 21.7497 3.59315 21.7497 5.25V18.75C21.7497 20.4068 20.4066 21.75 18.7497 21.75H5.24975C3.5929 21.75 2.24976 20.4068 2.24976 18.75V5.25Z"/>
</svg>