<svg viewBox="0 0 24 24" xmlns="http://www.w3.org/2000/svg">
<path fill-rule="evenodd" clip-rule="evenodd" d="M16.9822 7.67598C17.2993 7.9424 17.3405 8.41549 17.074 8.73265L10.774 16.2327C10.6344 16.3989 10.4296 16.4964 10.2126 16.5001C9.99552 16.5039 9.78751 16.4133 9.64229 16.252L6.94229 13.252C6.6652 12.9441 6.69016 12.4699 6.99804 12.1928C7.30592 11.9157 7.78014 11.9407 8.05723 12.2485L10.1802 14.6074L15.9255 7.76787C16.1919 7.4507 16.665 7.40956 16.9822 7.67598Z"/>
<path fill-rule="evenodd" clip-rule="evenodd" d="M5.24975 3.75C4.42133 3.75 3.74976 4.42157 3.74976 5.25V18.75C3.74976 19.5784 4.42133 20.25 5.24975 20.25H18.7497C19.5782 20.25 20.2497 19.5784 20.2497 18.75V5.25C20.2497 4.42157 19.5782 3.75 18.7497 3.75H5.24975ZM2.24976 5.25C2.24976 3.59315 3.5929 2.25 5.24975 2.25H18.7497C20.4066 2.25 21.7497 3.59315 21.7497 5.25V18.75C21.7497 20.4068 20.4066 21.75 18.7497 21.75H5.24975C3.5929 21.75 2.24976 20.4068 2.24976 18.75V5.25Z"/>
</svg>