<svg viewBox="0 0 24 24" xmlns="http://www.w3.org/2000/svg">
<path fill-rule="evenodd" clip-rule="evenodd" d="M2.24989 11.6273C2.24989 6.45014 6.44771 2.25232 11.6249 2.25232C16.8021 2.25232 20.9999 6.45014 20.9999 11.6273C20.9999 16.8045 16.8021 21.0023 11.6249 21.0023C6.44771 21.0023 2.24989 16.8045 2.24989 11.6273ZM11.6249 3.75232C7.27614 3.75232 3.74989 7.27856 3.74989 11.6273C3.74989 15.9761 7.27614 19.5023 11.6249 19.5023C15.9736 19.5023 19.4999 15.9761 19.4999 11.6273C19.4999 7.27856 15.9736 3.75232 11.6249 3.75232Z"/>
<path d="M10.3125 9.56323C9.89829 9.56323 9.5625 9.89902 9.5625 10.3132C9.5625 10.7274 9.89829 11.0632 10.3125 11.0632H11.0625V15.1876H9.74985C9.33563 15.1876 8.99985 15.5234 8.99985 15.9376C8.99985 16.3518 9.33563 16.6876 9.74985 16.6876H13.8748C14.2891 16.6876 14.6248 16.3518 14.6248 15.9376C14.6248 15.5234 14.2891 15.1876 13.8748 15.1876H12.5625V10.3132C12.5625 9.89902 12.2267 9.56323 11.8125 9.56323H10.3125Z"/>
<path d="M12.85 7.31998C12.85 7.99376 12.3038 8.53998 11.63 8.53998C10.9562 8.53998 10.41 7.99376 10.41 7.31998C10.41 6.64619 10.9562 6.09998 11.63 6.09998C12.3038 6.09998 12.85 6.64619 12.85 7.31998Z"/>
</svg>