<svg width="139" height="47" viewBox="0 0 139 47" fill="none" xmlns="http://www.w3.org/2000/svg">
<path fill-rule="evenodd" clip-rule="evenodd" d="M65.4787 16.8574H68.8852V13.576H65.4787V16.8574ZM65.4787 34.6579H68.8852V18.5413H65.4787V34.6579ZM59.8619 26.5918C59.8619 28.2347 59.6424 29.5288 59.2079 30.4384C58.7793 31.3408 57.9496 31.7796 56.6716 31.7796C55.7928 31.7796 55.1096 31.5555 54.6423 31.1134C54.1694 30.6602 53.8506 30.0606 53.6953 29.3312C53.5331 28.5768 53.4515 27.6554 53.4515 26.5918C53.4515 25.5301 53.5334 24.6119 53.695 23.8632C53.8506 23.1334 54.1691 22.5393 54.6413 22.0976C55.1109 21.6585 55.7938 21.4357 56.6719 21.4357C57.5521 21.4357 58.2081 21.6487 58.677 22.0871C59.1446 22.5252 59.4615 23.1193 59.6181 23.8523C59.78 24.6083 59.8619 25.5301 59.8619 26.5918ZM62.6134 21.6546C62.3441 20.9249 61.9522 20.2996 61.4492 19.7973C61.0144 19.3517 60.4416 18.9932 59.7485 18.7317C59.0647 18.4738 58.3133 18.3431 57.5141 18.3431C56.6153 18.3431 55.8151 18.483 55.1368 18.7589C54.526 19.0073 53.9601 19.4146 53.4515 19.972V12.0388L50.039 13.8384V34.6579H53.3886V33.1352C53.9358 33.744 54.4994 34.1654 55.1043 34.4197C55.7705 34.6992 56.571 34.8411 57.483 34.8411C58.293 34.8411 59.0525 34.71 59.7426 34.4525C60.4504 34.1877 61.0085 33.8427 61.4482 33.3987C61.9522 32.8996 62.3441 32.2744 62.6131 31.5397C62.888 30.8054 63.0692 30.0394 63.1525 29.2597C63.2328 28.4743 63.2734 27.5748 63.2734 26.5865C63.2734 25.5982 63.2328 24.6991 63.1525 23.913C63.0694 23.1404 62.8883 22.3815 62.6134 21.6546ZM74.7769 13.922L71.3651 15.7213V30.1225C71.3651 30.9375 71.5339 31.6941 71.8665 32.3704C72.1984 33.0546 72.7083 33.613 73.381 34.0301C74.0537 34.4463 74.8802 34.6579 75.837 34.6579H77.8575V31.7173H76.434C75.3189 31.7173 74.7769 31.1459 74.7769 29.9708V21.4822H77.8575V18.8189H74.7769V13.922ZM87.6925 18.3431C86.8792 18.3431 86.0881 18.5007 85.3404 18.811C84.6768 19.083 84.0737 19.4838 83.566 19.9903V18.5413H80.2177V34.6579H83.6292V24.8659C83.6292 23.7364 83.93 22.8732 84.5218 22.3001C85.1221 21.7267 85.8945 21.4357 86.8189 21.4357C87.4208 21.4357 87.9425 21.5547 88.4134 21.8007C88.8737 22.0363 89.2424 22.4151 89.5091 22.9276C89.7817 23.4405 89.92 24.0925 89.92 24.8659V34.6579H93.3312V24.3796C93.3312 22.4109 92.7781 20.8793 91.6885 19.8271C90.6825 18.8424 89.3384 18.3431 87.6925 18.3431ZM134.839 34.6579H138.246V18.5413H134.839V34.6579ZM134.839 16.8574H138.246V13.576H134.839V16.8574ZM127.075 18.3431C125.045 18.3431 123.368 19.1075 122.089 20.6152C121.06 19.1075 119.536 18.3431 117.555 18.3431C116.716 18.3431 115.914 18.5043 115.171 18.8218C114.521 19.0957 113.93 19.4923 113.43 19.99V18.5413H110.082V34.6579H113.493V24.8659C113.493 23.7367 113.794 22.8736 114.386 22.3001C114.986 21.7267 115.759 21.4357 116.683 21.4357C117.286 21.4357 117.807 21.5547 118.277 21.8007C118.736 22.0357 119.105 22.4142 119.372 22.9276C119.645 23.4388 119.783 24.0909 119.783 24.8659V34.6579H123.195V24.7138C123.195 23.6774 123.505 22.8641 124.118 22.2962C124.744 21.7169 125.484 21.4354 126.379 21.4354C127.292 21.4354 128.043 21.7188 128.612 22.2785C129.182 22.8375 129.47 23.7078 129.47 24.8655V34.6576H132.881V24.3796C132.881 22.4541 132.304 20.9222 131.165 19.8268C130.144 18.8424 128.768 18.3431 127.075 18.3431ZM104.691 27.8048V28.8272C104.691 30.9932 102.868 31.9631 101.062 31.9631C99.1416 31.9631 98.209 31.3163 98.209 29.9865C98.209 29.2856 98.4758 28.6529 98.905 28.3347C99.3775 27.9831 100.082 27.8048 100.998 27.8048H104.691ZM101.438 18.3431C100.08 18.3431 98.9499 18.5164 98.0786 18.8575C97.2004 19.2016 96.3822 19.8189 95.6459 20.6919L95.5817 20.7686L97.8361 22.8877L97.9076 22.7975C98.3457 22.2418 98.8093 21.8509 99.2851 21.6353C99.7622 21.4197 100.446 21.3099 101.319 21.3099C102.498 21.3099 103.367 21.5425 103.901 22.0006C104.425 22.46 104.691 23.1881 104.691 24.1646V24.9773H100.586C99.4034 24.9773 98.3794 25.1739 97.5442 25.5622C96.7069 25.9511 96.065 26.5069 95.6371 27.214C95.2344 27.8727 94.9942 28.8682 94.9942 29.8768C94.9942 31.3104 95.4267 32.4857 96.281 33.3724C96.7764 33.8613 97.3879 34.2323 98.0993 34.4744C98.8123 34.7176 99.663 34.8411 100.628 34.8411C101.607 34.8411 102.43 34.7117 103.072 34.4571C103.653 34.2267 104.218 33.8571 104.754 33.3574V34.6579H108.103V23.9189C108.103 20.219 105.861 18.3431 101.438 18.3431H101.438ZM26.2029 26.1641V20.3881L21.2012 17.5006L16.1998 20.3881V26.1641L21.2012 29.0526L26.2026 26.1641" fill="#6D6D7F"/>
<path fill-rule="evenodd" clip-rule="evenodd" d="M41.1569 11.8462C40.7693 11.142 40.1906 10.5591 39.4301 10.12C34.1236 7.0562 28.8168 3.99272 23.5104 0.928581C22.0348 0.0775951 20.3034 0.114295 18.897 0.925959L16.1923 2.48768V12.4341L21.2012 9.54231L33.1176 16.422V30.1829L21.2012 37.0625L9.28381 30.1829V30.1619V6.39068L2.93467 10.0568C1.45847 10.9091 0.670074 11.7528 0.670074 13.4243V32.4498C0.670074 33.3191 0.901744 34.1013 1.27628 34.7632C1.69604 35.5038 2.29537 36.0936 2.95827 36.4763C8.24277 39.527 13.5266 42.5784 18.8114 45.6291C20.3627 46.525 22.0316 46.5289 23.5739 45.6389L39.4658 36.4632C40.9492 35.607 41.7317 34.2481 41.7317 32.5196V14.235C41.7317 13.3355 41.5351 12.5334 41.1569 11.8462Z" fill="#6D6D7F"/>
</svg>
