<svg width="22" height="22" viewBox="0 0 22 22" xmlns="http://www.w3.org/2000/svg">
<path d="M6.5 12.5005C7.32843 12.5005 8 11.8289 8 11.0005C8 10.1721 7.32843 9.50049 6.5 9.50049C5.67157 9.50049 5 10.1721 5 11.0005C5 11.8289 5.67157 12.5005 6.5 12.5005Z"/>
<path d="M11 12.5005C11.8284 12.5005 12.5 11.8289 12.5 11.0005C12.5 10.1721 11.8284 9.50049 11 9.50049C10.1716 9.50049 9.5 10.1721 9.5 11.0005C9.5 11.8289 10.1716 12.5005 11 12.5005Z"/>
<path d="M17 11.0005C17 11.8289 16.3284 12.5005 15.5 12.5005C14.6716 12.5005 14 11.8289 14 11.0005C14 10.1721 14.6716 9.50049 15.5 9.50049C16.3284 9.50049 17 10.1721 17 11.0005Z"/>
<path fill-rule="evenodd" clip-rule="evenodd" d="M11 2.00024C6.00209 2.00024 1.98498 5.95039 2.00004 10.7795L2.00005 10.7818C1.99999 12.4617 2.49098 14.1047 3.4124 15.509C3.57445 15.7303 3.70693 15.9781 3.78914 16.2399C3.84444 16.416 3.90814 16.703 3.8249 17.0094L3.82403 17.0126L3.04982 19.8131L5.72866 18.8463C5.99543 18.7365 6.28133 18.6806 6.56992 18.6816C6.83918 18.6822 7.10607 18.732 7.35742 18.8286L7.3585 18.829C8.56122 19.2935 9.70319 19.6449 11 19.6449C15.973 19.6449 19.9999 15.643 20 10.78C19.9982 5.96408 15.7939 2.00024 11 2.00024ZM0.500046 10.783C0.482948 5.08915 5.2077 0.500244 11 0.500244C16.6339 0.500244 21.4981 5.12872 21.5 10.78C21.5 16.4553 16.8176 21.1449 11 21.1449C9.51801 21.1449 8.19454 20.7596 6.81907 20.2287C6.73837 20.1977 6.65268 20.1817 6.56623 20.1816L6.56422 20.1816C6.47098 20.1813 6.37863 20.1998 6.29277 20.2362L6.27406 20.2441L3.09312 21.3921C3.11885 21.3816 3.11876 21.3813 3.09312 21.3921C2.96107 21.4463 2.82191 21.4813 2.67987 21.4962L2.63987 21.5004L2.59966 21.5002C2.4409 21.4998 2.28382 21.4678 2.13751 21.4062C1.9912 21.3445 1.85858 21.2545 1.74731 21.1413C1.63605 21.028 1.54836 20.8938 1.48933 20.7465C1.386 20.4885 1.38371 20.1936 1.46193 19.9278L2.35756 16.6878C2.35756 16.6331 2.30994 16.568 2.26844 16.4947C2.27294 16.5021 2.25968 16.4792 2.26844 16.4947C1.19696 14.7209 0.500218 12.887 0.500046 10.783Z"/>
</svg>
