<svg width="61" height="63" viewBox="0 0 61 63" fill="none" xmlns="http://www.w3.org/2000/svg">
<circle opacity="0.15" cx="36.2144" cy="37.9123" r="24.2856" fill="#0D5F80"/>
<path d="M29.3395 17.0747C29.9802 16.434 31.019 16.434 31.6597 17.0747L36.3472 21.7622C36.9879 22.4029 36.9879 23.4417 36.3472 24.0824L31.6597 28.7699C31.019 29.4106 29.9802 29.4106 29.3395 28.7699C28.6988 28.1292 28.6988 27.0904 29.3395 26.4497L31.4554 24.3339C31.1697 24.3278 30.8522 24.3244 30.4996 24.3244C28.9699 24.3244 27.4746 24.778 26.2027 25.6279C24.9307 26.4777 23.9394 27.6857 23.354 29.099C22.7686 30.5122 22.6155 32.0673 22.9139 33.5677C23.2123 35.068 23.9489 36.4461 25.0306 37.5278C26.1123 38.6094 27.4904 39.3461 28.9907 39.6445C30.491 39.9429 32.0462 39.7898 33.4594 39.2044C34.8727 38.619 36.0806 37.6276 36.9305 36.3557C37.7804 35.0838 38.234 33.5885 38.234 32.0588C38.234 31.1527 38.9685 30.4181 39.8746 30.4181C40.7807 30.4181 41.5152 31.1527 41.5152 32.0588C41.5152 34.2374 40.8692 36.3672 39.6588 38.1787C38.4483 39.9902 36.7279 41.4021 34.7151 42.2358C32.7023 43.0696 30.4874 43.2877 28.3506 42.8627C26.2138 42.4376 24.251 41.3885 22.7104 39.848C21.1699 38.3074 20.1207 36.3446 19.6957 34.2078C19.2707 32.071 19.4888 29.8561 20.3225 27.8433C21.1563 25.8304 22.5682 24.11 24.3797 22.8996C26.1912 21.6892 28.3209 21.0432 30.4996 21.0432C30.6691 21.0432 30.8325 21.0439 30.99 21.0453L29.3395 19.3949C28.6988 18.7542 28.6988 17.7154 29.3395 17.0747Z" fill="#0D5F80"/>
<path fill-rule="evenodd" clip-rule="evenodd" d="M30.4996 6.39478C17.0422 6.39478 6.12469 17.3123 6.12469 30.7697C6.12469 44.2271 17.0422 55.1446 30.4996 55.1446C43.957 55.1446 54.8745 44.2271 54.8745 30.7697C54.8745 17.3123 43.957 6.39478 30.4996 6.39478ZM9.87468 30.7697C9.87468 19.3834 19.1133 10.1448 30.4996 10.1448C41.8859 10.1448 51.1245 19.3834 51.1245 30.7697C51.1245 42.156 41.8859 51.3946 30.4996 51.3946C19.1133 51.3946 9.87468 42.156 9.87468 30.7697Z" fill="#0D5F80"/>
</svg>
