<svg width="53" height="49" viewBox="0 0 53 49" fill="none" xmlns="http://www.w3.org/2000/svg">
<path opacity="0.12" d="M41.4584 45.3038H17.0834C13.6671 45.3038 10.4871 44.1254 8.12931 41.9842C5.6815 39.7613 4.33337 36.6788 4.33337 33.3038C4.33337 29.8745 5.58869 26.9176 7.96337 24.752C9.66119 23.2023 11.9215 22.1035 14.449 21.5767C14.682 21.5285 14.9001 21.4255 15.0855 21.2764C15.2708 21.1272 15.418 20.9361 15.5149 20.7188C16.4148 18.6931 17.7627 16.898 19.4571 15.4688C21.9359 13.3998 25.0052 12.3038 28.3334 12.3038C32.0771 12.2876 35.6799 13.7302 38.3778 16.3257C40.6962 18.5579 42.2684 21.5082 42.9884 24.9507C43.0462 25.233 43.1841 25.4927 43.3856 25.6987C43.5871 25.9047 43.8437 26.0483 44.1246 26.1123C48.3959 27.062 52.3334 30.1567 52.3334 35.5538C52.3334 38.6842 51.1859 41.252 49.0137 42.9817C47.1049 44.5004 44.4931 45.3038 41.4584 45.3038Z" fill="#F5A623"/>
<g clip-path="url(#clip0)">
<path d="M9.11974 17.4854C4.97318 18.8729 1.8335 22.1588 1.8335 27.3057C1.8335 33.4932 6.89599 37.8057 13.0835 37.8057H30.3682" stroke="#F5A623" stroke-width="3" stroke-linecap="round" stroke-linejoin="round"/>
<path d="M44.1914 35.7185C45.8245 34.3648 46.8333 32.3313 46.8333 29.5554C46.8333 23.9473 41.8645 21.5154 37.8333 21.3054C36.9998 12.911 31.177 7.80542 24.3333 7.80542C21.8808 7.80542 19.7592 8.45511 17.9958 9.50604" stroke="#F5A623" stroke-width="3" stroke-linecap="round" stroke-linejoin="round"/>
<path d="M42.3333 42.3044L6.33331 6.30444" stroke="#F5A623" stroke-width="3" stroke-miterlimit="10" stroke-linecap="round"/>
</g>
<defs>
<clipPath id="clip0">
<rect width="48" height="48" fill="white" transform="translate(0.333313 0.303711)"/>
</clipPath>
</defs>
</svg>
