<svg width="48" height="52" viewBox="0 0 48 52" fill="none" xmlns="http://www.w3.org/2000/svg">
<path opacity="0.12" d="M28.5 51.3042V47.8898C21.0497 47.4604 16.5234 43.6223 16.5 37.8042H23.25C23.4159 40.2736 25.4869 42.1589 28.5 42.4917V33.3042L25.9903 32.6479C20.2716 31.3186 17.2116 28.0176 17.2116 23.0779C17.2116 17.2551 21.3825 13.4367 28.5 12.8667V9.3042H31.5V12.8667C38.7553 13.4573 42.6562 17.3423 42.75 22.8042H36C35.9288 20.5486 34.5159 18.7364 31.5 18.4917V27.1167L34.3894 27.7992C40.4634 29.1286 43.5 32.2729 43.5 37.4292C43.5 43.4611 39.3994 47.3554 31.5 47.8654V51.3042H28.5Z" fill="#F5A623"/>
<path d="M22.5 45.3044V41.8901C15.0497 41.4607 10.5234 37.6226 10.5 31.8044H17.25C17.4159 34.2738 19.4869 36.1591 22.5 36.4919V27.3044L19.9903 26.6482C14.2716 25.3188 11.2116 22.0179 11.2116 17.0782C11.2116 11.2554 15.3825 7.43694 22.5 6.86694V3.30444H25.5V6.86694C32.7553 7.45757 36.6562 11.3426 36.75 16.8044H30C29.9288 14.5488 28.5159 12.7366 25.5 12.4919V21.1169L28.3894 21.7994C34.4634 23.1288 37.5 26.2732 37.5 31.4294C37.5 37.4613 33.3994 41.3557 25.5 41.8657V45.3044H22.5ZM22.5 20.5544V12.4919C19.9134 12.6344 18.0684 14.2235 18.0684 16.4791C18.0684 18.5698 19.605 19.9366 22.5 20.5544ZM25.5 27.8669V36.4919C29.0766 36.3476 30.7856 34.7182 30.7856 32.201C30.7856 29.8966 29.0766 28.3451 25.5 27.8669Z" fill="#F5A623"/>
</svg>
