<svg width="172" height="33" viewBox="0 0 172 33" fill="none" xmlns="http://www.w3.org/2000/svg">
<path fill-rule="evenodd" clip-rule="evenodd" d="M131.465 25.8508H130.428C129.682 25.8508 129.255 25.2147 129.25 24.6801V3.89564C129.25 3.78864 129.179 3.71704 129.071 3.71704H126.032C125.925 3.71704 125.853 3.78864 125.853 3.89564V24.3748C125.853 26.4035 126.633 27.4499 127.099 27.9161C127.576 28.3929 128.277 28.6801 129.213 28.8083C129.583 28.8587 129.981 28.8905 130.428 28.8905H131.465C131.572 28.8905 131.644 28.8189 131.644 28.7115V26.0302C131.644 25.9224 131.572 25.8508 131.465 25.8508ZM167.726 19.8437C167.726 16.125 165.867 13.479 162.612 13.479C159.18 13.479 157.142 16.125 157.142 19.8437C157.142 23.5624 159.18 26.2092 162.612 26.2092C165.867 26.2092 167.726 23.5624 167.726 19.8437ZM171.123 3.89564V28.7115C171.123 28.8189 171.051 28.8905 170.944 28.8905H168.263C168.155 28.8905 168.119 28.8189 168.084 28.7115L167.726 27.2816C167.654 27.0668 167.476 27.103 167.368 27.21C166.403 28.1753 164.043 29.2481 162.255 29.2481C157.035 29.2481 153.745 25.4224 153.745 19.8437C153.745 14.2658 157.035 10.4393 162.255 10.4393C164.758 10.4393 166.94 11.9771 167.368 12.4779C167.547 12.6923 167.726 12.5491 167.726 12.4063V3.89564C167.726 3.78864 167.797 3.71704 167.905 3.71704H170.944C171.051 3.71704 171.123 3.78864 171.123 3.89564ZM146.34 20.9523C146.34 20.8453 146.268 20.7737 146.161 20.7737H141.154C137.364 20.7737 136.686 22.2753 136.686 23.5266C136.686 24.8142 137.579 26.2092 140.439 26.2092C144.766 26.2092 146.268 23.634 146.34 21.4531V20.9523ZM152.132 26.0302V28.7115C152.132 28.8189 152.061 28.8905 151.954 28.8905H150.916C148.879 28.8905 147.663 28.3897 147.127 27.2454C147.055 27.0668 146.876 27.103 146.805 27.1738C145.947 28.0683 143.73 29.2481 140.439 29.2481C135.648 29.2481 133.288 26.924 133.288 23.5266C133.288 20.4161 135.899 18.0915 141.154 18.0915H145.16C145.947 18.0915 146.34 17.4126 146.34 16.9118C146.34 15.4452 145.982 13.479 141.727 13.479C138.652 13.479 137.257 14.909 137.257 16.7328C137.257 16.8402 137.186 16.9118 137.079 16.9118H134.039C133.932 16.9118 133.86 16.8402 133.86 16.7328C133.86 12.5137 137.686 10.4393 141.727 10.4393C146.662 10.4393 149.737 12.5491 149.737 16.9118V24.671C149.737 25.2072 150.166 25.8508 150.916 25.8508H151.954C152.061 25.8508 152.132 25.9224 152.132 26.0302ZM114.065 13.479C116.496 13.479 118.213 14.623 118.999 16.7328C119.035 16.8402 119.106 16.9118 119.213 16.9118H122.396C122.503 16.9118 122.61 16.8764 122.575 16.7328C121.61 12.7993 118.606 10.4393 114.065 10.4393C108.45 10.4393 105.232 14.2296 105.232 19.8437C105.232 25.4224 108.45 29.2481 114.065 29.2481C118.606 29.2481 121.573 26.924 122.575 22.955C122.61 22.8118 122.503 22.7764 122.396 22.7764H119.213C119.106 22.7764 119.035 22.8473 118.999 22.955C118.213 25.0648 116.496 26.2092 114.065 26.2092C110.667 26.2092 108.629 23.5624 108.629 19.8437C108.629 16.125 110.667 13.479 114.065 13.479ZM94.359 10.4393C91.9633 10.4393 90.3897 11.5479 89.6749 12.6207C89.6033 12.7277 89.3169 12.7993 89.2819 12.5849L88.924 10.9755C88.8882 10.8685 88.8527 10.7969 88.7453 10.7969H86.0632C85.9558 10.7969 85.8846 10.8685 85.8846 10.9755V28.7115C85.8846 28.8189 85.9558 28.8905 86.0632 28.8905H89.1029C89.2103 28.8905 89.2819 28.8189 89.2819 28.7115V18.8779C89.2819 16.0896 90.9979 13.479 94.0014 13.479C97.5416 13.479 98.7572 16.1604 98.7572 18.8779V28.7115C98.7572 28.8189 98.8288 28.8905 98.9361 28.8905H101.975C102.083 28.8905 102.154 28.8189 102.154 28.7115V18.8779C102.154 14.2296 99.5435 10.4393 94.359 10.4393ZM79.3024 19.8437C79.3024 16.125 77.2638 13.479 73.8311 13.479C70.4342 13.479 68.3602 16.125 68.3602 19.8437C68.3602 23.5624 70.4342 26.2092 73.8311 26.2092C77.2638 26.2092 79.3024 23.5624 79.3024 19.8437ZM82.6993 19.8437C82.6993 25.4224 79.4098 29.2481 73.8311 29.2481C68.2178 29.2481 64.9637 25.4224 64.9637 19.8437C64.9637 14.2296 68.2178 10.4393 73.8311 10.4393C79.4098 10.4393 82.6993 14.2658 82.6993 19.8437ZM63.614 10.4393H61.7902C60.0026 10.4393 58.6797 11.4047 57.4637 12.6207C57.3563 12.7277 57.1415 12.7993 57.0707 12.5849L56.7127 10.9755C56.6769 10.8685 56.6415 10.7969 56.5341 10.7969H53.852C53.745 10.7969 53.6734 10.8685 53.6734 10.9755V28.7115C53.6734 28.8189 53.745 28.8905 53.852 28.8905H56.8917C56.9987 28.8905 57.0707 28.8189 57.0707 28.7115V18.8779C57.0707 16.0896 58.7867 13.479 61.7902 13.479H63.614C63.721 13.479 63.7929 13.4074 63.7929 13.3V10.6179C63.7929 10.5109 63.721 10.4393 63.614 10.4393ZM48.9263 3.89564V28.7115C48.9263 28.8189 48.8547 28.8905 48.7473 28.8905H45.7084C45.6006 28.8905 45.529 28.8189 45.529 28.7115V3.89564C45.529 3.78864 45.6006 3.71704 45.7084 3.71704H48.7473C48.8547 3.71704 48.9263 3.78864 48.9263 3.89564Z" fill="#6D6D7F"/>
<path fill-rule="evenodd" clip-rule="evenodd" d="M28.8404 0.303711C28.9329 0.303711 29.0076 0.378455 29.0076 0.470902V3.53384C29.0076 3.62629 28.9329 3.70104 28.8404 3.70104L16.5437 3.70022V28.9059L28.8404 28.9064C28.9144 28.9064 28.977 28.9542 28.9991 29.0207L29.0076 29.0736V32.1365C29.0076 32.2105 28.9598 32.2731 28.8933 32.2952L28.8404 32.3037H0.850663C0.776705 32.3037 0.714077 32.2559 0.691985 32.1894L0.683472 32.1365V29.0736C0.683472 28.9996 0.731308 28.937 0.797775 28.9149L0.850663 28.9064L13.1458 28.9059V3.70022L0.850663 3.70104C0.776705 3.70104 0.714077 3.6532 0.691985 3.58673L0.683472 3.53384V0.470902C0.683472 0.378455 0.758216 0.303711 0.850663 0.303711H28.8404ZM9.18902 7.49163C9.26266 7.49163 9.32548 7.53947 9.34766 7.60594L9.35621 7.65882V24.9484C9.35621 25.022 9.30812 25.0848 9.24175 25.107L9.18902 25.1156L0.850663 25.1157C0.776705 25.1157 0.714077 25.0679 0.691985 25.0014L0.683472 24.9485V21.8856C0.683472 21.8116 0.731308 21.749 0.797775 21.7269L0.850663 21.7184L5.95766 21.7177V10.8884L0.850663 10.8891C0.776705 10.8891 0.714077 10.8412 0.691985 10.7748L0.683472 10.7219V7.65894C0.683472 7.58499 0.731308 7.52236 0.797775 7.50026L0.850663 7.49175L9.18902 7.49163ZM28.8404 7.49175C28.9144 7.49175 28.977 7.53959 28.9991 7.60605L29.0076 7.65894V10.7219C29.0076 10.7958 28.9598 10.8585 28.8933 10.8806L28.8404 10.8891L23.7319 10.8884V21.7177L28.8404 21.7184C28.9144 21.7184 28.977 21.7662 28.9991 21.8327L29.0076 21.8856V24.9485C29.0076 25.0225 28.9598 25.0851 28.8933 25.1072L28.8404 25.1157L20.5021 25.1156C20.4282 25.1156 20.3655 25.0675 20.3434 25.0011L20.3349 24.9484V7.65882C20.3349 7.58487 20.3828 7.52224 20.4492 7.50015L20.5021 7.49163L28.8404 7.49175Z" fill="#6D6D7F"/>
</svg>
