<svg width="171" height="32" viewBox="0 0 171 32" fill="none" xmlns="http://www.w3.org/2000/svg">
<g clip-path="url(#clip-razor)">
<path d="M10.1685 13.0684L11.5843 8.45385L26.1849 0.078125L18.3551 25.9424L12.9723 25.9384L18.2724 8.42758L10.1685 13.0684Z" fill="#6D6D7F"/>
<path d="M0.632446 25.9424L2.86182 18.5808L16.1797 10.9669L11.6652 25.9424H0.632446Z" fill="#6D6D7F"/>
<path fill-rule="evenodd" clip-rule="evenodd" d="M45.0897 7.69842C46.1252 8.70141 46.359 10.1342 45.7926 11.9969V12.0049C45.4168 13.2869 44.6579 14.4555 43.5956 15.388C42.5259 16.3273 41.1981 17.0039 39.6133 17.4099C40.8565 17.6487 41.564 18.4527 41.7348 19.8218L42.5726 25.9512H37.4037L36.5425 19.376C36.4688 18.8586 36.2288 18.5004 35.8198 18.2934C35.4116 18.0944 34.8525 17.991 34.1423 17.991H30.9781L28.5689 25.9512H23.7443L29.7222 6.2019H39.6529C42.2418 6.2019 44.0559 6.7034 45.0897 7.69842ZM39.6214 14.0554C40.3963 13.6391 40.9159 12.9872 41.1856 12.0996V12.1084C41.4534 11.2168 41.3276 10.5721 40.8062 10.1502C40.2848 9.72827 39.3238 9.52131 37.9251 9.52131H33.4753L31.913 14.6795H36.3627C37.7633 14.6795 38.8483 14.471 39.6214 14.0554Z" fill="#6D6D7F"/>
<path fill-rule="evenodd" clip-rule="evenodd" d="M59.0305 13.8915L59.6346 11.8934L59.648 11.9006H64.3225L60.0624 25.9719H55.3969L56.0262 23.8895C55.3241 24.6098 54.4528 25.1858 53.4732 25.577C52.4824 25.9855 51.4018 26.1949 50.3089 26.19C48.9335 26.19 47.8099 25.8954 46.9289 25.2984C46.0569 24.7094 45.4906 23.8656 45.2209 22.7591C44.9602 21.6606 45.0501 20.3949 45.4816 18.9462C45.9221 17.5054 46.6053 16.2238 47.5402 15.0934C48.4751 13.9631 49.5718 13.0875 50.8213 12.4666C52.0708 11.8457 53.3743 11.5352 54.7317 11.5352C55.8383 11.5352 56.766 11.7502 57.5157 12.1721C58.2637 12.6019 58.7698 13.175 59.0305 13.8915ZM55.6567 21.9392C56.4954 21.2308 57.1157 20.2198 57.5202 18.8825L57.5274 18.8968C57.932 17.5675 57.923 16.5462 57.5095 15.8322C57.1049 15.1213 56.3049 14.7631 55.1362 14.7631C53.9658 14.7631 52.9464 15.1332 52.0744 15.8735C51.2025 16.6138 50.5687 17.6407 50.1714 18.9541C49.7741 20.2676 49.7884 21.2706 50.2163 21.9631C50.6433 22.6556 51.4515 22.9979 52.6435 22.9979C53.8139 22.9979 54.8171 22.6477 55.6567 21.9392Z" fill="#6D6D7F"/>
<path d="M67.5201 11.8934H81.0878L80.2293 14.7193L69.6326 22.8228H78.0916L77.1433 25.9591H63.1377L64.0295 23.0138L74.4662 15.0298H66.5717L67.5201 11.8934Z" fill="#6D6D7F"/>
<path fill-rule="evenodd" clip-rule="evenodd" d="M91.6441 11.5344C93.3161 11.5344 94.687 11.8306 95.7613 12.4228L95.7774 12.4045C96.8472 12.9975 97.5574 13.8493 97.8989 14.9557C98.2405 16.067 98.1866 17.3597 97.7371 18.8403C97.2877 20.3209 96.5595 21.6152 95.5437 22.7249C94.5279 23.8393 93.3054 24.6847 91.876 25.2801C90.4467 25.8724 88.8915 26.1701 87.2195 26.1701C85.5205 26.1701 84.1361 25.8747 83.0484 25.2809C81.9697 24.6919 81.2505 23.8401 80.9089 22.7336C80.5673 21.6248 80.6213 20.3297 81.0618 18.8546C81.5103 17.374 82.2412 16.0765 83.257 14.9701C84.2448 13.8772 85.5067 13.0034 86.9426 12.418C88.3845 11.829 89.9514 11.5344 91.6441 11.5344ZM91.165 21.9631C91.9875 21.2849 92.6105 20.2437 93.0303 18.8586V18.857C93.4447 17.4879 93.4483 16.4554 93.042 15.7629C92.6356 15.0688 91.8464 14.7241 90.6777 14.7241C89.4866 14.7241 88.4735 15.0712 87.6375 15.7669C86.8015 16.4602 86.1758 17.4895 85.7623 18.8586C84.9281 21.6128 85.7318 22.99 88.1769 22.99C89.3464 22.99 90.3424 22.6477 91.165 21.9631Z" fill="#6D6D7F"/>
<path d="M113.612 11.8234L112.417 15.6523L112.411 15.6546C111.728 15.3418 111.009 15.185 110.236 15.185C108.978 15.185 107.935 15.4851 107.099 16.0845C106.258 16.6815 105.676 17.5229 105.352 18.592L103.127 25.9448H98.3961L102.684 11.8791H106.01L107.365 11.8743L106.745 13.936C107.356 13.2244 108.079 12.656 108.929 12.2532C109.918 11.7788 110.943 11.5448 112.012 11.5448C112.678 11.5448 113.208 11.6403 113.612 11.8234Z" fill="#6D6D7F"/>
<path fill-rule="evenodd" clip-rule="evenodd" d="M125.516 11.5145C126.874 11.5145 127.993 11.825 128.869 12.4459L128.884 12.4491C129.759 13.0668 130.327 13.94 130.583 15.068C130.834 16.1943 130.745 17.4815 130.304 18.9247C129.87 20.3655 129.189 21.6391 128.272 22.7376C127.355 23.8361 126.277 24.6863 125.027 25.2769C123.782 25.866 122.47 26.1605 121.094 26.1605C119.986 26.1605 119.054 25.9591 118.299 25.5531C117.544 25.1456 117.049 24.582 116.806 23.864L114.361 31.9356H109.624L114.478 15.9006L114.514 15.7653L115.692 11.8727H120.312L119.519 14.1096L119.502 14.2051C120.172 13.374 121.044 12.7173 122.118 12.2357C123.193 11.7533 124.327 11.5145 125.516 11.5145ZM123.729 21.9352C124.565 21.2427 125.176 20.2397 125.581 18.9263L125.561 18.9255C125.959 17.6121 125.95 16.5852 125.536 15.8449C125.123 15.1046 124.349 14.7384 123.199 14.7384C122.03 14.7384 121.023 15.095 120.169 15.8091C119.315 16.5175 118.695 17.5404 118.291 18.8737C117.886 20.2079 117.895 21.2228 118.327 21.9273C118.749 22.6278 119.549 22.978 120.718 22.978C121.886 22.978 122.893 22.631 123.729 21.9352Z" fill="#6D6D7F"/>
<path fill-rule="evenodd" clip-rule="evenodd" d="M146.091 13.8739L146.696 11.8759L146.703 11.8799H151.369L147.11 25.9456H142.444L143.074 23.8616C142.373 24.5818 141.504 25.1585 140.527 25.5516C139.524 25.9607 138.468 26.1645 137.363 26.1645C135.987 26.1645 134.858 25.8668 133.982 25.2777C133.105 24.6855 132.538 23.8369 132.275 22.7384C132.014 21.6351 132.099 20.3671 132.535 18.9207C132.976 17.4799 133.659 16.1951 134.594 15.068C135.529 13.9408 136.625 13.07 137.875 12.4491C139.126 11.8282 140.437 11.5177 141.794 11.5177C142.9 11.5177 143.826 11.7295 144.581 12.1545C145.327 12.5804 145.831 13.1535 146.091 13.8739ZM142.723 21.9177C143.559 21.2172 144.179 20.1983 144.584 18.869L144.587 18.8714C144.99 17.5388 144.987 16.5175 144.574 15.8067C144.16 15.0982 143.369 14.74 142.201 14.74C141.03 14.74 140.01 15.1094 139.138 15.8497C138.266 16.59 137.635 17.6168 137.239 18.9303C136.844 20.2437 136.853 21.2467 137.284 21.9392C137.707 22.6318 138.516 22.974 139.711 22.974C140.88 22.974 141.887 22.623 142.723 21.9177Z" fill="#6D6D7F"/>
<path d="M170.959 11.8767L170.956 11.8807V11.8895H170.959L170.95 11.8942L158.038 28.0932L157.993 28.149L156.429 30.1151C156.384 30.1677 156.35 30.2091 156.312 30.2584L154.973 31.9404H150.038L155.575 25.1504L153.067 11.8807H158.018L159.268 20.613L165.313 13.1559L165.394 13.0445L165.583 12.8216L166.347 11.8823H167.835C167.865 11.8817 167.895 11.8808 167.926 11.8799C167.979 11.8783 168.033 11.8767 168.091 11.8767H170.959Z" fill="#6D6D7F"/>
</g>
<defs>
<clipPath id="clip-razor">
<rect width="170.44" height="32" fill="white" transform="translate(0.560547)"/>
</clipPath>
</defs>
</svg>
