<svg width="102" height="92" viewBox="0 0 102 92" fill="none" xmlns="http://www.w3.org/2000/svg">
<path opacity="0.1" fill-rule="evenodd" clip-rule="evenodd" d="M0.0225047 45.262C-0.577998 35.1823 10.9783 28.9971 18.1428 21.8431C24.1248 15.8698 30.0132 9.6728 38.1225 7.21794C46.1323 4.7932 54.7185 5.56849 62.5974 8.38572C70.2932 11.1375 75.7015 17.2091 81.6564 22.7842C89.2197 29.865 102.489 34.9432 101.986 45.262C101.477 55.7106 86.1353 58.062 79.5407 66.211C73.4807 73.6992 74.2221 86.7464 65.3428 90.542C56.482 94.3297 46.3868 88.5548 37.891 84.0147C30.562 80.098 26.6167 72.6819 20.818 66.7477C13.677 59.4401 0.628546 55.4347 0.0225047 45.262Z" fill="#1ABCFE"/>
<g opacity="0.15">
<path d="M89.6396 14.395V14.3837C89.5329 13.9158 89.2975 13.4872 88.9602 13.146C88.6228 12.8048 88.1967 12.5647 87.7302 12.4528C83.9693 11.5353 78.053 12.5133 71.4968 15.1383C64.8889 17.7886 58.6974 21.7008 54.5126 25.8933C53.1712 27.2275 51.9251 28.6541 50.7833 30.1627C47.9652 30.0365 45.4828 30.4378 43.3916 31.3502C36.1047 34.557 34.0237 42.7639 33.4697 46.1335C33.3895 46.6123 33.4209 47.1031 33.5614 47.5678C33.7019 48.0324 33.9477 48.4584 34.2798 48.8125C34.6118 49.1667 35.021 49.4394 35.4757 49.6095C35.9304 49.7797 36.4181 49.8426 36.9011 49.7934H36.9175L45.0348 48.9074C45.0449 49.0109 45.0562 49.1056 45.0651 49.1927C45.1693 50.1818 45.6105 51.105 46.3145 51.8076L50.276 55.7716C50.9775 56.4766 51.9005 56.9182 52.8896 57.0222L53.1609 57.0513L52.2775 65.1585C52.2775 65.1585 52.2775 65.1686 52.2775 65.1749C52.2324 65.6115 52.2788 66.0527 52.4139 66.4704C52.549 66.8881 52.7698 67.2729 53.0621 67.6004C53.3544 67.9279 53.7119 68.1907 54.1116 68.3722C54.5112 68.5537 54.9444 68.6497 55.3833 68.6543C55.5588 68.6544 55.734 68.64 55.9071 68.6113C59.2956 68.0662 67.4987 66.0103 70.6967 58.6843C71.6016 56.607 72.0016 54.1347 71.8893 51.3217C73.4046 50.1824 74.8365 48.9361 76.1738 47.5924C80.3928 43.3949 84.3177 37.254 86.9401 30.7419C89.5512 24.2602 90.5344 18.2997 89.6396 14.395Z" fill="#0D5F80"/>
<path d="M49.8203 56.8462C49.3319 56.7856 48.8383 56.9054 48.432 57.1832C47.6256 57.7347 46.8154 58.2799 45.9976 58.8112C44.3431 59.8864 42.3642 57.9984 43.3474 56.2871L44.8807 53.6369C45.0999 53.3162 45.222 52.9391 45.2323 52.5508C45.2426 52.1625 45.1406 51.7794 44.9387 51.4476C44.7367 51.1158 44.4433 50.8492 44.0937 50.6799C43.7441 50.5107 43.353 50.4458 42.9675 50.4932C41.2657 50.7084 39.6838 51.4836 38.4709 52.6967C38.009 53.1598 36.6044 54.5657 35.8484 59.923C35.6333 61.4618 35.4976 63.0107 35.4421 64.5634C35.4352 64.8329 35.4823 65.1011 35.5807 65.3521C35.679 65.6031 35.8267 65.8318 36.0149 66.0248C36.2031 66.2178 36.428 66.3712 36.6764 66.4759C36.9249 66.5806 37.1917 66.6345 37.4613 66.6344H37.5118C39.0658 66.5794 40.6159 66.4446 42.156 66.2306C47.5158 65.4734 48.9217 64.0675 49.3836 63.6056C50.6023 62.3922 51.3756 60.8029 51.5782 59.0951C51.6431 58.5638 51.4944 58.0285 51.1648 57.6068C50.8351 57.1851 50.3515 56.9115 49.8203 56.8462Z" fill="#0D5F80"/>
</g>
<circle cx="74.5" cy="22.5" r="6.5" fill="white"/>
<path d="M91.2812 6.78971C91.2597 6.68614 91.2091 6.59085 91.1354 6.51506C91.0616 6.43927 90.9677 6.38613 90.8647 6.36188C84.0019 4.6834 68.1484 10.6641 59.5503 19.2559C58.0179 20.7757 56.6206 22.4259 55.3742 24.1879C52.724 23.9481 50.0738 24.15 47.8173 25.1344C41.4453 27.9361 39.5914 35.2533 39.074 38.3944C39.046 38.5666 39.0579 38.7428 39.109 38.9096C39.1601 39.0763 39.2488 39.2291 39.3684 39.356C39.488 39.4829 39.6352 39.5806 39.7986 39.6414C39.9621 39.7023 40.1373 39.7247 40.3108 39.707L50.542 38.5838C50.5491 39.3554 50.5954 40.1263 50.6808 40.8932C50.7342 41.4234 50.9707 41.9183 51.3497 42.2928L55.3111 46.2543C55.686 46.6335 56.1814 46.8701 56.712 46.9232C57.4744 47.0082 58.2405 47.0545 59.0076 47.062L57.8857 57.2844C57.8681 57.4576 57.8907 57.6326 57.9516 57.7957C58.0125 57.9589 58.1101 58.1058 58.2368 58.2253C58.3635 58.3447 58.516 58.4334 58.6825 58.4844C58.849 58.5355 59.025 58.5476 59.1969 58.5199C62.3393 58.0151 69.6717 56.1612 72.4569 49.7905C73.4413 47.5315 73.6432 44.8951 73.4161 42.2575C75.1832 41.0123 76.8381 39.6149 78.3619 38.0815C86.9916 29.4997 92.9345 13.9946 91.2812 6.78971ZM70.6914 26.9643C69.9376 26.2108 69.4242 25.2506 69.2162 24.2052C69.0082 23.1598 69.1148 22.0763 69.5227 21.0915C69.9305 20.1068 70.6212 19.2651 71.5074 18.6729C72.3936 18.0807 73.4355 17.7646 74.5014 17.7646C75.5673 17.7646 76.6092 18.0807 77.4954 18.6729C78.3816 19.2651 79.0723 20.1068 79.4801 21.0915C79.888 22.0763 79.9946 23.1598 79.7866 24.2052C79.5786 25.2506 79.0652 26.2108 78.3114 26.9643C77.8115 27.4654 77.2176 27.8629 76.5638 28.1341C75.9101 28.4053 75.2092 28.5449 74.5014 28.5449C73.7936 28.5449 73.0928 28.4053 72.439 28.1341C71.7852 27.8629 71.1913 27.4654 70.6914 26.9643Z" stroke="#0D5F80" stroke-width="4.03846" stroke-linecap="round" stroke-linejoin="round"/>
<path fill-rule="evenodd" clip-rule="evenodd" d="M48.841 44.1776C48.9769 45.2845 48.1897 46.292 47.0829 46.4279C46.2725 46.5273 45.5185 46.8944 44.9403 47.4708C44.7463 47.6665 44.4332 48.203 44.1241 49.2151C43.8344 50.1635 43.6176 51.2912 43.4598 52.4102C43.3614 53.1081 43.2886 53.7829 43.2351 54.3809C43.8336 54.3274 44.5089 54.2545 45.2073 54.156C46.3265 53.998 47.4541 53.781 48.4018 53.4911C49.4158 53.181 49.9501 52.8672 50.1424 52.6747L50.1459 52.6713C50.7235 52.0961 51.0904 51.3431 51.1875 50.5337C51.3203 49.4265 52.3255 48.6365 53.4328 48.7693C54.54 48.9021 55.33 49.9073 55.1972 51.0146C54.9922 52.7246 54.2171 54.3156 52.9972 55.5312C52.0771 56.4508 50.7444 56.9977 49.583 57.353C48.3545 57.7287 46.9977 57.9818 45.7716 58.1548C44.5363 58.3291 43.3818 58.4293 42.5394 58.486C42.1168 58.5145 41.7692 58.5322 41.5251 58.5429C41.403 58.5483 41.3066 58.5519 41.2393 58.5542L41.1607 58.5567L41.1386 58.5574L41.1298 58.5576C41.1295 58.5576 41.1284 58.5576 41.077 56.5391C39.0584 56.4876 39.0584 56.4873 39.0584 56.487L39.0587 56.4774L39.0593 56.4553L39.0618 56.3768C39.0641 56.3096 39.0677 56.2132 39.0731 56.0911C39.0838 55.8471 39.1015 55.4998 39.13 55.0774C39.1867 54.2353 39.2867 53.0814 39.4609 51.8464C39.6337 50.6205 39.8865 49.264 40.2618 48.0354C40.6168 46.8728 41.1632 45.5398 42.0812 44.6187L42.0846 44.6153C43.3 43.4016 44.886 42.6288 46.5908 42.4195C47.6977 42.2836 48.7051 43.0708 48.841 44.1776ZM41.077 56.5391L39.0584 56.487C39.0443 57.0402 39.2578 57.5755 39.6492 57.9669C40.0405 58.3582 40.5752 58.5717 41.1284 58.5576L41.077 56.5391Z" fill="#DB210F"/>
</svg>
