<svg width="60" height="60" viewBox="0 0 60 60" fill="none" xmlns="http://www.w3.org/2000/svg">
<g opacity="0.15">
<path d="M15.7858 27.6464C15.7876 27.2199 15.6709 26.8013 15.4486 26.4373C15.4175 26.388 15.4009 26.331 15.4006 26.2728C15.4004 26.2145 15.4166 26.1574 15.4473 26.1079C15.478 26.0584 15.522 26.0186 15.5744 25.993C15.6267 25.9674 15.6851 25.957 15.7431 25.963H15.7498C15.8442 25.9732 16.3487 26.0462 17.0645 26.4811C17.5961 26.8036 19.1131 27.8385 21.7538 30.4748C21.7257 31.3726 22.0127 32.252 22.5651 32.9604L30.0075 26.044C29.3483 25.4198 28.487 25.053 27.5803 25.0101C27.5718 25.0009 27.5639 24.9911 27.5567 24.9809L27.4836 24.9034L24.726 21.1007C24.4195 20.6845 24.2184 20.2001 24.1401 19.6891C24.0618 19.178 24.1086 18.6557 24.2765 18.1667C24.5295 17.4385 24.9896 16.7999 25.6003 16.3294C26.2397 15.8339 27.6825 15.2372 28.9085 15.1361C29.4796 15.0888 30.0545 15.1244 30.6154 15.2417C30.8841 15.3065 31.149 15.3864 31.4087 15.481C31.4875 15.5105 31.5682 15.5341 31.6503 15.5518C32.007 15.6309 32.3793 15.5993 32.7177 15.4615C33.056 15.3236 33.3443 15.086 33.5442 14.7801C33.7441 14.4743 33.8461 14.1149 33.8366 13.7497C33.8271 13.3845 33.7065 13.0308 33.491 12.7358L33.4852 12.728C33.4482 12.6781 33.3327 12.5224 33.1662 12.3167C32.8371 11.9015 32.4764 11.5123 32.0875 11.1525C31.1716 10.3254 28.7984 8.93091 25.6823 8.93091C23.8991 8.92961 22.1324 9.27302 20.4795 9.94226C16.1678 11.6784 13.3473 14.0528 12.0505 15.3125L12.0404 15.3226C11.1679 16.1842 10.36 17.1089 9.6233 18.0892C9.34481 18.4819 9.16378 18.9353 9.09516 19.4118C9.0631 19.6145 8.9565 19.798 8.79624 19.9262C8.63598 20.0545 8.43361 20.1183 8.22878 20.1051H8.10629C7.4937 20.101 6.90435 20.3394 6.46679 20.7681L3.15745 23.9943L3.1215 24.0303C2.70521 24.4627 2.47043 25.0383 2.46541 25.6385C2.4604 26.2388 2.68553 26.8182 3.09453 27.2576C3.11531 27.2794 3.13664 27.3019 3.15858 27.3227L8.49622 32.5289C8.936 32.9598 9.52677 33.2018 10.1425 33.2031C10.7551 33.2072 11.3444 32.9689 11.782 32.5401L15.0924 29.305C15.3132 29.0891 15.4884 28.831 15.6075 28.5461C15.7266 28.2611 15.7872 27.9552 15.7858 27.6464Z" fill="#0D5F80"/>
<path d="M51.6087 46.0569C50.0423 44.7546 46.6959 41.7419 43.2854 38.6157L35.861 46.5503C39.0344 49.9214 41.9066 53.0509 43.1652 54.5151L43.173 54.5241C43.4753 54.8701 43.8452 55.1507 44.2599 55.3486C44.6746 55.5465 45.1254 55.6575 45.5845 55.6748H45.7081C46.591 55.6722 47.4378 55.3246 48.0679 54.7062L51.8324 50.9485C52.1587 50.6229 52.4134 50.2328 52.5802 49.803C52.7471 49.3733 52.8223 48.9135 52.8011 48.453C52.78 47.9926 52.6629 47.5416 52.4574 47.129C52.2518 46.7164 51.9635 46.3512 51.6087 46.0569Z" fill="#0D5F80"/>
<path d="M58.4851 17.0299C58.7267 17.2108 58.9216 17.4468 59.0536 17.7183C59.9582 19.5791 60.2301 22.0783 59.7997 24.5729C59.3412 27.2182 58.149 29.5971 56.4409 31.2826C53.471 34.2043 48.8637 35.1033 43.807 33.7548C43.5898 33.6972 43.3609 33.6999 43.1451 33.7627C42.9293 33.8255 42.7347 33.9459 42.5822 34.111L24.3679 53.5737C23.7885 54.2171 23.0842 54.7358 22.2979 55.0982C21.5116 55.4606 20.6597 55.6591 19.7942 55.6816C18.9287 55.7041 18.0677 55.5502 17.2636 55.2292C16.4595 54.9082 15.7291 54.4269 15.1171 53.8145C14.505 53.2021 14.024 52.4716 13.7034 51.6673C13.3828 50.863 13.2294 50.0019 13.2523 49.1364C13.2753 48.2709 13.4742 47.4192 13.837 46.633C14.1997 45.8469 14.7188 45.1429 15.3624 44.5638L34.7915 26.5113C34.9604 26.3567 35.083 26.1582 35.1457 25.938C35.2084 25.7177 35.2087 25.4844 35.1466 25.264C33.7048 20.1286 34.606 15.4776 37.6187 12.4874C41.0933 9.03309 46.641 7.95994 51.1033 9.87025C51.3876 9.99224 51.6377 10.182 51.8317 10.423C52.0256 10.664 52.1576 10.9489 52.216 11.2527C52.2745 11.5565 52.2576 11.87 52.1668 12.1657C52.0761 12.4615 51.9143 12.7305 51.6955 12.9492L45.978 18.6678C45.747 18.9026 45.6175 19.2188 45.6175 19.5482C45.6175 19.8777 45.747 20.1939 45.978 20.4287L48.5041 22.9548C48.7386 23.186 49.0547 23.3157 49.384 23.3157C49.7133 23.3157 50.0294 23.186 50.2639 22.9548L56.0117 17.207C56.2251 16.9936 56.4865 16.8342 56.774 16.7423C57.0615 16.6504 57.3668 16.6286 57.6644 16.6786C57.9621 16.7286 58.2434 16.8491 58.4851 17.0299Z" fill="#0D5F80"/>
</g>
<path fill-rule="evenodd" clip-rule="evenodd" d="M16.6268 23.324C17.4647 24.1428 18.3748 25.0323 19.2978 25.6281C19.2885 25.8395 19.2989 26.0482 19.3307 26.2522C19.4571 27.0623 19.8389 27.811 20.4206 28.3889L20.4317 28.3997C20.6059 28.5698 20.8058 28.7659 21.0463 29.0016C21.4409 29.3886 21.9483 29.8861 22.6455 30.5665L12.8908 39.631C12.2508 40.2073 11.7342 40.9073 11.372 41.6888C11.0073 42.4757 10.807 43.3287 10.7832 44.1957C10.7594 45.0627 10.9127 45.9255 11.2337 46.7312C11.5547 47.5369 12.0366 48.2687 12.6501 48.8819C13.2635 49.495 13.9956 49.9766 14.8015 50.2971C15.6074 50.6177 16.4702 50.7706 17.3372 50.7463C18.2042 50.7221 19.0571 50.5213 19.8439 50.1562C20.624 49.7941 21.3228 49.2781 21.8983 48.6392L30.9162 39.0011C34.8664 43.1552 39.0618 47.683 40.7029 49.5872L40.7157 49.6017C41.018 49.9449 41.387 50.2231 41.8002 50.4191C42.2134 50.6152 42.6622 50.7252 43.1192 50.7423C43.5763 50.7594 44.0321 50.6834 44.4588 50.5187C44.8855 50.3541 45.2744 50.1044 45.6015 49.7848L49.367 46.0204C49.6933 45.6947 49.9479 45.3044 50.1146 44.8746C50.2817 44.4439 50.3567 43.983 50.3349 43.5215C50.3132 43.0601 50.195 42.6083 49.9882 42.1952C49.7822 41.7839 49.4927 41.42 49.1382 41.1267C47.2034 39.5151 42.4706 35.2261 38.172 31.2464L40.1067 29.1787L40.1109 29.1742C40.2639 29.0096 40.4588 28.8898 40.6747 28.8277C40.8906 28.7656 41.1209 28.7639 41.3379 28.822C45.3789 29.9017 50.4416 29.8276 53.9716 26.3499C55.8386 24.5109 56.9153 22.0351 57.3305 19.6397C57.7425 17.2626 57.5398 14.746 56.5856 12.7838L56.5751 12.7629C56.4406 12.4953 56.2446 12.2633 56.003 12.0862C55.7614 11.909 55.4812 11.7917 55.1856 11.7438C54.8899 11.696 54.587 11.719 54.3019 11.811C54.0169 11.9029 53.7562 12.0627 53.5441 12.2743L47.8018 18.0189L47.8001 18.0206C47.5651 18.2532 47.2478 18.3837 46.9171 18.3837C46.5865 18.3837 46.2692 18.2532 46.0342 18.0206L46.0325 18.0189L43.5128 15.4981C43.28 15.2634 43.1494 14.9463 43.1494 14.6157C43.1494 14.2853 43.2814 13.9669 43.514 13.7322L49.2285 8.01771C49.4466 7.79979 49.6082 7.53194 49.6992 7.23745C49.7902 6.94296 49.808 6.63066 49.7509 6.32767C49.6938 6.02461 49.5636 5.74021 49.3717 5.4991C49.1797 5.25793 48.9318 5.06718 48.6493 4.94357L48.6361 4.93791C44.2831 3.07424 38.7136 4.014 35.1469 7.55562C31.5686 11.1079 31.5295 16.2553 32.6749 20.3305C32.7366 20.5498 32.7364 20.782 32.6744 21.0012C32.6125 21.2205 32.4911 21.4184 32.3237 21.573L32.3199 21.5765L30.126 23.6152C28.8602 22.3822 28.0794 21.6228 27.6035 21.1609C27.0561 20.6261 26.361 20.2675 25.6079 20.1312C25.2778 20.0714 24.9369 20.0664 24.5923 20.1085C24.3216 19.7011 23.9793 19.2781 23.5995 18.8087C23.0463 18.1252 22.4135 17.3432 21.806 16.367C21.6113 16.0543 21.5439 15.8603 21.5133 15.7264C21.4812 15.5861 21.467 15.4155 21.4823 15.0978C21.5697 13.3402 22.0858 12.2332 23.1375 11.3995C23.7953 10.8849 25.2542 10.303 26.4415 10.2059L26.4444 10.2057C27.0151 10.1581 27.5896 10.1933 28.1501 10.3103C28.4232 10.3754 28.6922 10.4567 28.9556 10.5538C29.7012 10.8286 30.5387 10.5814 31.0156 9.9458C31.4924 9.31019 31.4955 8.43694 31.0231 7.79799C30.6072 7.2354 30.1422 6.70251 29.6292 6.22622C28.6248 5.31649 26.2474 4.00027 23.2248 4.00001C21.4416 3.99836 19.6749 4.34092 18.0215 5.00887C13.2182 6.94293 10.3443 9.63837 9.5799 10.3875L9.57486 10.3924C8.71149 11.2452 7.91122 12.1596 7.18035 13.1283C6.83181 13.6005 6.64175 14.163 6.59241 14.7451C6.57393 14.9632 6.57518 15.1803 6.58273 15.3677C6.29032 15.2396 5.97224 15.1715 5.64742 15.1708C5.34655 15.1679 5.04784 15.2233 4.76787 15.3341C4.47948 15.4483 4.21684 15.6189 3.99537 15.8361L3.99302 15.8384L0.692023 19.0641C0.255093 19.5074 0 20.1027 0 20.7276C0 21.3288 0.230787 21.9071 0.644737 22.3431C2.37048 24.1607 4.24449 25.8584 6.03831 27.6092L6.05048 27.621C6.48785 28.0399 7.07021 28.2731 7.67536 28.2722C7.98136 28.2734 8.28463 28.2141 8.56779 28.0979C8.85052 27.9818 9.10755 27.8112 9.32426 27.5959L12.6152 24.3823C12.8366 24.1665 13.0144 23.907 13.1348 23.6223C13.2554 23.3367 13.3176 23.0299 13.3176 22.72C13.3176 22.41 13.2554 22.1032 13.1348 21.8176C13.022 21.5507 12.8602 21.3075 12.658 21.1004C12.8604 21.0406 13.0735 21.0195 13.2859 21.0394C13.417 21.0547 13.9108 21.1418 14.5956 21.5576C15.1865 21.9164 15.8778 22.592 16.6268 23.324ZM34.7639 24.2142L34.7658 24.2124C35.4191 23.6083 35.8928 22.8354 36.1348 21.9791C36.377 21.122 36.3776 20.2146 36.1365 19.3572C35.1514 15.8519 35.4429 12.3286 37.6806 10.1072C39.4985 8.30213 42.0987 7.45434 44.5446 7.61619L40.9678 11.1931L40.9643 11.1966C40.0607 12.1051 39.5535 13.3344 39.5535 14.6157C39.5535 15.8971 40.0607 17.1264 40.9643 18.0349L40.9675 18.0381L43.4936 20.5654L43.498 20.5698C44.4068 21.4727 45.636 21.9796 46.9171 21.9796C48.1983 21.9796 49.4274 21.4727 50.3363 20.5698L50.3406 20.5654L53.9309 16.9738C53.9548 17.6202 53.9109 18.3132 53.7874 19.0256C53.4713 20.8495 52.6703 22.5843 51.4481 23.7883C49.2293 25.9742 45.745 26.2775 42.2661 25.348C41.4181 25.121 40.5243 25.1292 39.6807 25.3719C38.8376 25.6144 38.0764 26.0819 37.4788 26.7242L37.4767 26.7264L19.2462 46.2106L19.2327 46.2256C18.9805 46.5076 18.6734 46.7352 18.3302 46.8944C17.987 47.0537 17.6149 47.1413 17.2367 47.1518C16.8585 47.1624 16.4821 47.0957 16.1306 46.9559C15.779 46.8161 15.4597 46.606 15.1921 46.3385C14.9245 46.0711 14.7143 45.7518 14.5742 45.4004C14.4342 45.0489 14.3673 44.6725 14.3777 44.2943C14.3881 43.9161 14.4755 43.544 14.6346 43.2007C14.7937 42.8574 15.0213 42.5504 15.3032 42.2981C21.7907 36.2695 28.2796 30.2398 34.7639 24.2142ZM27.4886 26.066C26.2968 24.9052 25.5541 24.1829 25.0967 23.7389L25.0911 23.7335C25.0572 23.7003 25.0141 23.678 24.9675 23.6696C24.9212 23.6612 24.8734 23.6668 24.8303 23.6856C24.7972 23.7005 24.767 23.7213 24.7414 23.747L24.7242 23.7642C24.1131 24.3601 23.5278 24.9784 22.921 25.5778L22.9162 25.5826L22.885 25.6128C22.8797 25.6408 22.8792 25.6696 22.8836 25.698C22.8917 25.7497 22.9156 25.7975 22.9521 25.8349C23.7298 26.5944 24.5047 27.3567 25.2828 28.1158L27.4886 26.066ZM22.5127 7.61975C21.4339 7.69344 20.3721 7.9373 19.3669 8.34361L19.3646 8.34451C15.1708 10.0332 12.6878 12.3767 12.0992 12.9533C11.4085 13.6358 10.7649 14.3643 10.1729 15.1339C10.1738 15.2089 10.1807 15.3211 10.1954 15.524L10.1974 15.5519C10.2142 15.782 10.2447 16.1995 10.1863 16.6238C10.1184 17.1165 9.91808 17.739 9.37754 18.2615L9.36695 18.2717C8.64997 18.9535 7.72391 19.1529 7.15038 19.2174C6.70423 19.2717 6.25303 19.2188 5.82894 19.072L4.13531 20.7271L7.67423 24.1812L9.27882 22.6143C9.23848 22.5389 9.20094 22.462 9.16631 22.3835C8.98565 21.9744 8.88781 21.5335 8.87846 21.0863C8.86911 20.6391 8.94842 20.1945 9.11181 19.7782C9.27521 19.3618 9.51946 18.982 9.83045 18.6605L9.84006 18.6506C10.047 18.4399 10.2833 18.2602 10.5414 18.1169C11.4852 17.5838 12.5707 17.355 13.6496 17.4619L13.666 17.4635C14.2729 17.5293 15.2835 17.7685 16.4619 18.484C17.4332 19.0738 18.9129 20.1937 20.9636 22.162C21.1506 21.9612 21.3488 21.7698 21.5558 21.59C20.1688 20.1624 18.4708 18.5519 18.0079 16.5282C17.8726 15.9369 17.8677 15.4003 17.8906 14.9248L17.8907 14.9224C18.0148 12.4153 18.8395 10.2152 20.9092 8.57728L20.915 8.57264C21.3584 8.22478 21.9081 7.90071 22.5127 7.61975ZM33.3772 36.3709L35.7152 33.8722C39.8609 37.7105 44.4719 41.8939 46.606 43.696L43.2572 47.0438C41.4337 44.9493 37.2509 40.4418 33.3772 36.3709Z" fill="#0D5F80"/>
</svg>
