<svg width="49" height="49" viewBox="0 0 49 49" fill="none" xmlns="http://www.w3.org/2000/svg">
<circle opacity="0.12" cx="28.6667" cy="28.8037" r="19.5" fill="#F5A623"/>
<path d="M11.254 12.3056C8.34321 15.5565 6.71357 19.7548 6.66866 24.1181C6.55803 34.0884 14.6983 42.2869 24.6686 42.3056C34.6249 42.3244 42.6686 34.2591 42.6686 24.3056C42.6686 14.505 34.8358 6.52969 25.0905 6.30563C25.0357 6.30387 24.981 6.31317 24.9298 6.33298C24.8787 6.35279 24.832 6.3827 24.7926 6.42094C24.7533 6.45917 24.722 6.50494 24.7007 6.55551C24.6794 6.60609 24.6685 6.66044 24.6686 6.71532V14.5556" stroke="#F5A623" stroke-width="3" stroke-linecap="round" stroke-linejoin="round"/>
<path d="M22.5461 26.4265L15.1399 15.8327C15.0374 15.686 14.9899 15.5078 15.0056 15.3295C15.0214 15.1512 15.0994 14.9841 15.2259 14.8575C15.3525 14.7309 15.5196 14.653 15.6979 14.6372C15.8762 14.6215 16.0544 14.669 16.2011 14.7715L26.7949 22.1777C27.4447 22.6457 27.8841 23.3507 28.0181 24.1402C28.1522 24.9297 27.97 25.7402 27.511 26.3964C27.0521 27.0526 26.3533 27.5017 25.5657 27.6467C24.7782 27.7916 23.9652 27.6207 23.3027 27.1709C23.0098 26.9679 22.7539 26.7161 22.5461 26.4265Z" fill="#F5A623"/>
</svg>
