<svg width="142" height="121" viewBox="0 0 142 121" fill="none" xmlns="http://www.w3.org/2000/svg">
<path fill-rule="evenodd" clip-rule="evenodd" d="M95.5 16C97.433 16 99 14.433 99 12.5C99 10.567 97.433 9 95.5 9C93.567 9 92 10.567 92 12.5C92 14.433 93.567 16 95.5 16Z" fill="white" stroke="#5F3EFF" stroke-width="2"/>
<path fill-rule="evenodd" clip-rule="evenodd" d="M5 33C3.067 33 1.5 34.567 1.5 36.5C1.5 38.433 3.067 40 5 40C6.933 40 8.5 38.433 8.5 36.5C8.5 34.567 6.933 33 5 33Z" fill="white" stroke="#5F3EFF" stroke-width="2"/>
<path fill-rule="evenodd" clip-rule="evenodd" d="M5 88C3.067 88 1.5 86.433 1.5 84.5C1.5 82.567 3.067 81 5 81C6.933 81 8.5 82.567 8.5 84.5C8.5 86.433 6.933 88 5 88Z" fill="white" stroke="#5F3EFF" stroke-width="2"/>
<path fill-rule="evenodd" clip-rule="evenodd" d="M95.5 105C93.567 105 92 106.567 92 108.5C92 110.433 93.567 112 95.5 112C97.433 112 99 110.433 99 108.5C99 106.567 97.433 105 95.5 105Z" fill="white" stroke="#5F3EFF" stroke-width="2"/>
<path fill-rule="evenodd" clip-rule="evenodd" d="M40.5 105C38.567 105 37 106.567 37 108.5C37 110.433 38.567 112 40.5 112C42.433 112 44 110.433 44 108.5C44 106.567 42.433 105 40.5 105Z" fill="white" stroke="#5F3EFF" stroke-width="2"/>
<path d="M68 95V118" stroke="#FE4328" stroke-width="2" stroke-linecap="square"/>
<path d="M28 73H5V80" stroke="#5F3EFF" stroke-width="2"/>
<path fill-rule="evenodd" clip-rule="evenodd" d="M68 113C66.067 113 64.5 114.567 64.5 116.5C64.5 118.433 66.067 120 68 120C69.933 120 71.5 118.433 71.5 116.5C71.5 114.567 69.933 113 68 113Z" fill="white" stroke="#FE4328" stroke-width="2"/>
<path d="M28 48H5V41" stroke="#5F3EFF" stroke-width="2"/>
<path fill-rule="evenodd" clip-rule="evenodd" d="M137 33C138.933 33 140.5 34.567 140.5 36.5C140.5 38.433 138.933 40 137 40C135.067 40 133.5 38.433 133.5 36.5C133.5 34.567 135.067 33 137 33Z" fill="white" stroke="#5F3EFF" stroke-width="2"/>
<path d="M68 27.6714V5.32855" stroke="#FE4328" stroke-width="2" stroke-linecap="square"/>
<path fill-rule="evenodd" clip-rule="evenodd" d="M137 88C138.933 88 140.5 86.433 140.5 84.5C140.5 82.567 138.933 81 137 81C135.067 81 133.5 82.567 133.5 84.5C133.5 86.433 135.067 88 137 88Z" fill="white" stroke="#5F3EFF" stroke-width="2"/>
<path d="M114 73H137V80" stroke="#5F3EFF" stroke-width="2"/>
<path d="M114 48H137V41" stroke="#5F3EFF" stroke-width="2"/>
<rect x="28" y="55" width="83" height="11" fill="white" stroke="#14121E" stroke-width="0.5"/>
<rect x="22" y="28" width="92" height="27" rx="1" fill="white" stroke="#2D9CDB" stroke-width="2"/>
<rect x="22" y="66" width="92" height="27" rx="1" fill="white" stroke="#2D9CDB" stroke-width="2"/>
<path fill-rule="evenodd" clip-rule="evenodd" d="M40.5 16C42.433 16 44 14.433 44 12.5C44 10.567 42.433 9 40.5 9C38.567 9 37 10.567 37 12.5C37 14.433 38.567 16 40.5 16Z" fill="white" stroke="#5F3EFF" stroke-width="2"/>
<path fill-rule="evenodd" clip-rule="evenodd" d="M68 8C69.933 8 71.5 6.433 71.5 4.5C71.5 2.567 69.933 1 68 1C66.067 1 64.5 2.567 64.5 4.5C64.5 6.433 66.067 8 68 8Z" fill="white" stroke="#FE4328" stroke-width="2"/>
<path fill-rule="evenodd" clip-rule="evenodd" d="M35.5 83C37.433 83 39 81.433 39 79.5C39 77.567 37.433 76 35.5 76C33.567 76 32 77.567 32 79.5C32 81.433 33.567 83 35.5 83Z" fill="white" stroke="#FE4328" stroke-width="2"/>
<path d="M39 79.5H69" stroke="#FE4328" stroke-width="2" stroke-linecap="square"/>
<path fill-rule="evenodd" clip-rule="evenodd" d="M35.5 45C37.433 45 39 43.433 39 41.5C39 39.567 37.433 38 35.5 38C33.567 38 32 39.567 32 41.5C32 43.433 33.567 45 35.5 45Z" fill="white" stroke="#FE4328" stroke-width="2"/>
<path d="M39.9168 41.5H69.6834" stroke="#FE4328" stroke-width="2" stroke-linecap="square"/>
<path fill-rule="evenodd" clip-rule="evenodd" d="M108.815 35C111.924 37.4658 113.168 40.5479 126.848 39.3151C124.982 43.6301 131.201 58.4247 125.604 67.0548C123.578 70.1796 120.008 71.3699 116.277 73.8356C112.546 75.6849 110.68 76.9178 108.815 80C107.571 78.1507 106.531 77.2233 101.975 73.8356C97.0003 70.137 92.2172 68.9046 90.782 65.2055C88.2947 55.9589 92.6475 44.2466 91.4039 39.3151C104.462 40.5479 106.328 37.4658 108.815 35Z" fill="white" stroke="#FE4328" stroke-width="2"/>
<path d="M95.5 95V105" stroke="#5F3EFF" stroke-width="2" stroke-linecap="square"/>
<path d="M40.5 95V105" stroke="#5F3EFF" stroke-width="2" stroke-linecap="square"/>
<path d="M95.5 26V16" stroke="#5F3EFF" stroke-width="2" stroke-linecap="square"/>
<path d="M40.5 27V17" stroke="#5F3EFF" stroke-width="2" stroke-linecap="square"/>
</svg>
