<svg width="443" height="264" viewBox="0 0 443 264" fill="none" xmlns="http://www.w3.org/2000/svg">
<path fill-rule="evenodd" clip-rule="evenodd" d="M135.261 132C135.261 132 154.277 239.758 257.809 263C361.341 263 441.632 263 441.632 263C441.632 263 432.124 145.734 311.688 132C240.906 132 135.261 132 135.261 132Z" fill="#FF4329"/>
<path fill-rule="evenodd" clip-rule="evenodd" d="M308.484 1H442.653C445.823 27.4113 420.468 132 308.484 132C308.484 132 308.484 1 308.484 1Z" fill="#5F3EFF"/>
<path fill-rule="evenodd" clip-rule="evenodd" d="M0.0351562 132C0.0351562 132 5.31741 239.758 108.85 263C212.382 263 265.204 263 265.204 263C265.204 263 255.696 145.734 135.261 132C64.4787 132 0.0351562 132 0.0351562 132Z" fill="#5F3EFF"/>
<path fill-rule="evenodd" clip-rule="evenodd" d="M0 132C0 132 9.50806 12.621 128.887 1C232.419 1 308.484 1 308.484 1V132H0Z" fill="#00C58A"/>
<path d="M406 260C406 260 402 219 390 204C373.141 182.927 350 166 314 166C261 166 82 166 82 166" stroke="#00C58A" stroke-width="7" stroke-linecap="round"/>
<path fill-rule="evenodd" clip-rule="evenodd" d="M50 204C52.2091 204 54 202.209 54 200C54 197.791 52.2091 196 50 196C47.7909 196 46 197.791 46 200C46 202.209 47.7909 204 50 204Z" fill="#00C58A"/>
<path fill-rule="evenodd" clip-rule="evenodd" d="M50 187C52.2091 187 54 185.209 54 183C54 180.791 52.2091 179 50 179C47.7909 179 46 180.791 46 183C46 185.209 47.7909 187 50 187Z" fill="#00C58A"/>
<path fill-rule="evenodd" clip-rule="evenodd" d="M50 153C52.2091 153 54 151.209 54 149C54 146.791 52.2091 145 50 145C47.7909 145 46 146.791 46 149C46 151.209 47.7909 153 50 153Z" fill="#00C58A"/>
<path fill-rule="evenodd" clip-rule="evenodd" d="M50 136C52.2091 136 54 134.209 54 132C54 129.791 52.2091 128 50 128C47.7909 128 46 129.791 46 132C46 134.209 47.7909 136 50 136Z" fill="#00C58A"/>
<path fill-rule="evenodd" clip-rule="evenodd" d="M58 119C60.2091 119 62 117.209 62 115C62 112.791 60.2091 111 58 111C55.7909 111 54 112.791 54 115C54 117.209 55.7909 119 58 119Z" fill="#5F3EFF"/>
<path fill-rule="evenodd" clip-rule="evenodd" d="M58 102C60.2091 102 62 100.209 62 98C62 95.7909 60.2091 94 58 94C55.7909 94 54 95.7909 54 98C54 100.209 55.7909 102 58 102Z" fill="#5F3EFF"/>
<path fill-rule="evenodd" clip-rule="evenodd" d="M58 136C60.2091 136 62 134.209 62 132C62 129.791 60.2091 128 58 128C55.7909 128 54 129.791 54 132C54 134.209 55.7909 136 58 136Z" fill="#5F3EFF"/>
<path fill-rule="evenodd" clip-rule="evenodd" d="M58 85C60.2091 85 62 83.2091 62 81C62 78.7909 60.2091 77 58 77C55.7909 77 54 78.7909 54 81C54 83.2091 55.7909 85 58 85Z" fill="#5F3EFF"/>
<path fill-rule="evenodd" clip-rule="evenodd" d="M58 68C60.2091 68 62 66.2091 62 64C62 61.7909 60.2091 60 58 60C55.7909 60 54 61.7909 54 64C54 66.2091 55.7909 68 58 68Z" fill="#5F3EFF"/>
<path fill-rule="evenodd" clip-rule="evenodd" d="M41 119C43.2091 119 45 117.209 45 115C45 112.791 43.2091 111 41 111C38.7909 111 37 112.791 37 115C37 117.209 38.7909 119 41 119Z" fill="#5F3EFF"/>
<path fill-rule="evenodd" clip-rule="evenodd" d="M41 102C43.2091 102 45 100.209 45 98C45 95.7909 43.2091 94 41 94C38.7909 94 37 95.7909 37 98C37 100.209 38.7909 102 41 102Z" fill="#5F3EFF"/>
<path fill-rule="evenodd" clip-rule="evenodd" d="M41 136C43.2091 136 45 134.209 45 132C45 129.791 43.2091 128 41 128C38.7909 128 37 129.791 37 132C37 134.209 38.7909 136 41 136Z" fill="#5F3EFF"/>
<path fill-rule="evenodd" clip-rule="evenodd" d="M50 170C52.2091 170 54 168.209 54 166C54 163.791 52.2091 162 50 162C47.7909 162 46 163.791 46 166C46 168.209 47.7909 170 50 170Z" fill="#00C58A"/>
<path fill-rule="evenodd" clip-rule="evenodd" d="M67 204C69.2091 204 71 202.209 71 200C71 197.791 69.2091 196 67 196C64.7909 196 63 197.791 63 200C63 202.209 64.7909 204 67 204Z" fill="#00C58A"/>
<path fill-rule="evenodd" clip-rule="evenodd" d="M67 187C69.2091 187 71 185.209 71 183C71 180.791 69.2091 179 67 179C64.7909 179 63 180.791 63 183C63 185.209 64.7909 187 67 187Z" fill="#00C58A"/>
<path fill-rule="evenodd" clip-rule="evenodd" d="M67 153C69.2091 153 71 151.209 71 149C71 146.791 69.2091 145 67 145C64.7909 145 63 146.791 63 149C63 151.209 64.7909 153 67 153Z" fill="#00C58A"/>
<path fill-rule="evenodd" clip-rule="evenodd" d="M67 136C69.2091 136 71 134.209 71 132C71 129.791 69.2091 128 67 128C64.7909 128 63 129.791 63 132C63 134.209 64.7909 136 67 136Z" fill="#00C58A"/>
<path fill-rule="evenodd" clip-rule="evenodd" d="M75 119C77.2091 119 79 117.209 79 115C79 112.791 77.2091 111 75 111C72.7909 111 71 112.791 71 115C71 117.209 72.7909 119 75 119Z" fill="#5F3EFF"/>
<path fill-rule="evenodd" clip-rule="evenodd" d="M75 102C77.2091 102 79 100.209 79 98C79 95.7909 77.2091 94 75 94C72.7909 94 71 95.7909 71 98C71 100.209 72.7909 102 75 102Z" fill="#5F3EFF"/>
<path fill-rule="evenodd" clip-rule="evenodd" d="M75 136C77.2091 136 79 134.209 79 132C79 129.791 77.2091 128 75 128C72.7909 128 71 129.791 71 132C71 134.209 72.7909 136 75 136Z" fill="#5F3EFF"/>
<path fill-rule="evenodd" clip-rule="evenodd" d="M75 85C77.2091 85 79 83.2091 79 81C79 78.7909 77.2091 77 75 77C72.7909 77 71 78.7909 71 81C71 83.2091 72.7909 85 75 85Z" fill="#5F3EFF"/>
<path fill-rule="evenodd" clip-rule="evenodd" d="M75 68C77.2091 68 79 66.2091 79 64C79 61.7909 77.2091 60 75 60C72.7909 60 71 61.7909 71 64C71 66.2091 72.7909 68 75 68Z" fill="#5F3EFF"/>
<path fill-rule="evenodd" clip-rule="evenodd" d="M67 170C69.2091 170 71 168.209 71 166C71 163.791 69.2091 162 67 162C64.7909 162 63 163.791 63 166C63 168.209 64.7909 170 67 170Z" fill="#00C58A"/>
<path fill-rule="evenodd" clip-rule="evenodd" d="M84 204C86.2091 204 88 202.209 88 200C88 197.791 86.2091 196 84 196C81.7909 196 80 197.791 80 200C80 202.209 81.7909 204 84 204Z" fill="#00C58A"/>
<path fill-rule="evenodd" clip-rule="evenodd" d="M84 187C86.2091 187 88 185.209 88 183C88 180.791 86.2091 179 84 179C81.7909 179 80 180.791 80 183C80 185.209 81.7909 187 84 187Z" fill="#00C58A"/>
<path fill-rule="evenodd" clip-rule="evenodd" d="M84 153C86.2091 153 88 151.209 88 149C88 146.791 86.2091 145 84 145C81.7909 145 80 146.791 80 149C80 151.209 81.7909 153 84 153Z" fill="#00C58A"/>
<path fill-rule="evenodd" clip-rule="evenodd" d="M84 136C86.2091 136 88 134.209 88 132C88 129.791 86.2091 128 84 128C81.7909 128 80 129.791 80 132C80 134.209 81.7909 136 84 136Z" fill="#00C58A"/>
<path fill-rule="evenodd" clip-rule="evenodd" d="M92 119C94.2091 119 96 117.209 96 115C96 112.791 94.2091 111 92 111C89.7909 111 88 112.791 88 115C88 117.209 89.7909 119 92 119Z" fill="#5F3EFF"/>
<path fill-rule="evenodd" clip-rule="evenodd" d="M92 102C94.2091 102 96 100.209 96 98C96 95.7909 94.2091 94 92 94C89.7909 94 88 95.7909 88 98C88 100.209 89.7909 102 92 102Z" fill="#5F3EFF"/>
<path fill-rule="evenodd" clip-rule="evenodd" d="M92 136C94.2091 136 96 134.209 96 132C96 129.791 94.2091 128 92 128C89.7909 128 88 129.791 88 132C88 134.209 89.7909 136 92 136Z" fill="#5F3EFF"/>
<path fill-rule="evenodd" clip-rule="evenodd" d="M92 85C94.2091 85 96 83.2091 96 81C96 78.7909 94.2091 77 92 77C89.7909 77 88 78.7909 88 81C88 83.2091 89.7909 85 92 85Z" fill="#5F3EFF"/>
<path fill-rule="evenodd" clip-rule="evenodd" d="M92 68C94.2091 68 96 66.2091 96 64C96 61.7909 94.2091 60 92 60C89.7909 60 88 61.7909 88 64C88 66.2091 89.7909 68 92 68Z" fill="#5F3EFF"/>
<path fill-rule="evenodd" clip-rule="evenodd" d="M101 204C103.209 204 105 202.209 105 200C105 197.791 103.209 196 101 196C98.7909 196 97 197.791 97 200C97 202.209 98.7909 204 101 204Z" fill="#00C58A"/>
<path fill-rule="evenodd" clip-rule="evenodd" d="M101 187C103.209 187 105 185.209 105 183C105 180.791 103.209 179 101 179C98.7909 179 97 180.791 97 183C97 185.209 98.7909 187 101 187Z" fill="#00C58A"/>
<path fill-rule="evenodd" clip-rule="evenodd" d="M101 153C103.209 153 105 151.209 105 149C105 146.791 103.209 145 101 145C98.7909 145 97 146.791 97 149C97 151.209 98.7909 153 101 153Z" fill="#00C58A"/>
<path fill-rule="evenodd" clip-rule="evenodd" d="M101 136C103.209 136 105 134.209 105 132C105 129.791 103.209 128 101 128C98.7909 128 97 129.791 97 132C97 134.209 98.7909 136 101 136Z" fill="#00C58A"/>
<path fill-rule="evenodd" clip-rule="evenodd" d="M109 119C111.209 119 113 117.209 113 115C113 112.791 111.209 111 109 111C106.791 111 105 112.791 105 115C105 117.209 106.791 119 109 119Z" fill="#5F3EFF"/>
<path fill-rule="evenodd" clip-rule="evenodd" d="M109 102C111.209 102 113 100.209 113 98C113 95.7909 111.209 94 109 94C106.791 94 105 95.7909 105 98C105 100.209 106.791 102 109 102Z" fill="#5F3EFF"/>
<path fill-rule="evenodd" clip-rule="evenodd" d="M109 136C111.209 136 113 134.209 113 132C113 129.791 111.209 128 109 128C106.791 128 105 129.791 105 132C105 134.209 106.791 136 109 136Z" fill="#5F3EFF"/>
<path fill-rule="evenodd" clip-rule="evenodd" d="M109 85C111.209 85 113 83.2091 113 81C113 78.7909 111.209 77 109 77C106.791 77 105 78.7909 105 81C105 83.2091 106.791 85 109 85Z" fill="#5F3EFF"/>
<path fill-rule="evenodd" clip-rule="evenodd" d="M109 68C111.209 68 113 66.2091 113 64C113 61.7909 111.209 60 109 60C106.791 60 105 61.7909 105 64C105 66.2091 106.791 68 109 68Z" fill="#5F3EFF"/>
<path fill-rule="evenodd" clip-rule="evenodd" d="M118 204C120.209 204 122 202.209 122 200C122 197.791 120.209 196 118 196C115.791 196 114 197.791 114 200C114 202.209 115.791 204 118 204Z" fill="#00C58A"/>
<path fill-rule="evenodd" clip-rule="evenodd" d="M118 187C120.209 187 122 185.209 122 183C122 180.791 120.209 179 118 179C115.791 179 114 180.791 114 183C114 185.209 115.791 187 118 187Z" fill="#00C58A"/>
<path fill-rule="evenodd" clip-rule="evenodd" d="M118 153C120.209 153 122 151.209 122 149C122 146.791 120.209 145 118 145C115.791 145 114 146.791 114 149C114 151.209 115.791 153 118 153Z" fill="#00C58A"/>
<path fill-rule="evenodd" clip-rule="evenodd" d="M118 136C120.209 136 122 134.209 122 132C122 129.791 120.209 128 118 128C115.791 128 114 129.791 114 132C114 134.209 115.791 136 118 136Z" fill="#00C58A"/>
<path fill-rule="evenodd" clip-rule="evenodd" d="M126 119C128.209 119 130 117.209 130 115C130 112.791 128.209 111 126 111C123.791 111 122 112.791 122 115C122 117.209 123.791 119 126 119Z" fill="#5F3EFF"/>
<path fill-rule="evenodd" clip-rule="evenodd" d="M126 136C128.209 136 130 134.209 130 132C130 129.791 128.209 128 126 128C123.791 128 122 129.791 122 132C122 134.209 123.791 136 126 136Z" fill="#5F3EFF"/>
<path fill-rule="evenodd" clip-rule="evenodd" d="M126 85C128.209 85 130 83.2091 130 81C130 78.7909 128.209 77 126 77C123.791 77 122 78.7909 122 81C122 83.2091 123.791 85 126 85Z" fill="#5F3EFF"/>
<path fill-rule="evenodd" clip-rule="evenodd" d="M126 68C128.209 68 130 66.2091 130 64C130 61.7909 128.209 60 126 60C123.791 60 122 61.7909 122 64C122 66.2091 123.791 68 126 68Z" fill="#5F3EFF"/>
<path fill-rule="evenodd" clip-rule="evenodd" d="M135 204C137.209 204 139 202.209 139 200C139 197.791 137.209 196 135 196C132.791 196 131 197.791 131 200C131 202.209 132.791 204 135 204Z" fill="#00C58A"/>
<path fill-rule="evenodd" clip-rule="evenodd" d="M135 187C137.209 187 139 185.209 139 183C139 180.791 137.209 179 135 179C132.791 179 131 180.791 131 183C131 185.209 132.791 187 135 187Z" fill="#00C58A"/>
<path fill-rule="evenodd" clip-rule="evenodd" d="M135 153C137.209 153 139 151.209 139 149C139 146.791 137.209 145 135 145C132.791 145 131 146.791 131 149C131 151.209 132.791 153 135 153Z" fill="#00C58A"/>
<path fill-rule="evenodd" clip-rule="evenodd" d="M135 136C137.209 136 139 134.209 139 132C139 129.791 137.209 128 135 128C132.791 128 131 129.791 131 132C131 134.209 132.791 136 135 136Z" fill="#00C58A"/>
<path fill-rule="evenodd" clip-rule="evenodd" d="M143 119C145.209 119 147 117.209 147 115C147 112.791 145.209 111 143 111C140.791 111 139 112.791 139 115C139 117.209 140.791 119 143 119Z" fill="#5F3EFF"/>
<path fill-rule="evenodd" clip-rule="evenodd" d="M143 136C145.209 136 147 134.209 147 132C147 129.791 145.209 128 143 128C140.791 128 139 129.791 139 132C139 134.209 140.791 136 143 136Z" fill="#5F3EFF"/>
<path fill-rule="evenodd" clip-rule="evenodd" d="M143 85C145.209 85 147 83.2091 147 81C147 78.7909 145.209 77 143 77C140.791 77 139 78.7909 139 81C139 83.2091 140.791 85 143 85Z" fill="#5F3EFF"/>
<path fill-rule="evenodd" clip-rule="evenodd" d="M231 86C233.209 86 235 84.2091 235 82C235 79.7909 233.209 78 231 78C228.791 78 227 79.7909 227 82C227 84.2091 228.791 86 231 86Z" fill="#FF4329"/>
<path fill-rule="evenodd" clip-rule="evenodd" d="M231 70C233.209 70 235 68.2091 235 66C235 63.7909 233.209 62 231 62C228.791 62 227 63.7909 227 66C227 68.2091 228.791 70 231 70Z" fill="#2D9CDB"/>
<path fill-rule="evenodd" clip-rule="evenodd" d="M231 54C233.209 54 235 52.2091 235 50C235 47.7909 233.209 46 231 46C228.791 46 227 47.7909 227 50C227 52.2091 228.791 54 231 54Z" fill="#FF4329"/>
<path fill-rule="evenodd" clip-rule="evenodd" d="M248 86C250.209 86 252 84.2091 252 82C252 79.7909 250.209 78 248 78C245.791 78 244 79.7909 244 82C244 84.2091 245.791 86 248 86Z" fill="#2D9CDB"/>
<path fill-rule="evenodd" clip-rule="evenodd" d="M248 70C250.209 70 252 68.2091 252 66C252 63.7909 250.209 62 248 62C245.791 62 244 63.7909 244 66C244 68.2091 245.791 70 248 70Z" fill="#2D9CDB"/>
<path fill-rule="evenodd" clip-rule="evenodd" d="M265 86C267.209 86 269 84.2091 269 82C269 79.7909 267.209 78 265 78C262.791 78 261 79.7909 261 82C261 84.2091 262.791 86 265 86Z" fill="#FF4329"/>
<path fill-rule="evenodd" clip-rule="evenodd" d="M143 68C145.209 68 147 66.2091 147 64C147 61.7909 145.209 60 143 60C140.791 60 139 61.7909 139 64C139 66.2091 140.791 68 143 68Z" fill="#5F3EFF"/>
<path d="M41 82V4" stroke="#5F3EFF" stroke-width="7" stroke-linecap="round"/>
<path d="M124 98H337" stroke="#5F3EFF" stroke-width="7" stroke-linecap="round"/>
<path d="M262 66H322" stroke="#5F3EFF" stroke-width="7" stroke-linecap="round"/>
<path d="M246 50H323" stroke="#5F3EFF" stroke-width="7" stroke-linecap="round"/>
<path d="M279 82H339" stroke="#5F3EFF" stroke-width="7" stroke-linecap="round"/>
<path d="M285 90H345" stroke="#00C58A" stroke-width="7" stroke-linecap="round"/>
<path d="M301 74H361" stroke="#00C58A" stroke-width="7" stroke-linecap="round"/>
<path d="M309 58H377" stroke="#00C58A" stroke-width="7" stroke-linecap="round"/>
<path d="M309 42H395" stroke="#00C58A" stroke-width="7" stroke-linecap="round"/>
</svg>
