<svg width="769" height="263" viewBox="0 0 769 263" fill="none" xmlns="http://www.w3.org/2000/svg">
<path d="M258.668 33H373.668" stroke="#FF4329" stroke-width="13" stroke-linecap="round"/>
<path d="M258.668 59H373.668" stroke="#FF4329" stroke-width="13" stroke-linecap="round"/>
<path d="M258.668 86H373.668" stroke="#FF4329" stroke-width="13" stroke-linecap="round"/>
<path d="M258.668 111H373.668" stroke="#FF4329" stroke-width="13" stroke-linecap="round"/>
<path d="M258.668 138H373.668" stroke="#FF4329" stroke-width="13" stroke-linecap="round"/>
<path d="M258.668 165H373.668" stroke="#FF4329" stroke-width="13" stroke-linecap="round"/>
<path d="M258.668 191H373.668" stroke="#FF4329" stroke-width="13" stroke-linecap="round"/>
<rect x="352" width="209" height="262" fill="#FF4329"/>
<rect x="559" width="209" height="262" fill="#5F3EFF"/>
<path d="M258.668 217H373.668" stroke="#FF4329" stroke-width="13" stroke-linecap="round"/>
<path fill-rule="evenodd" clip-rule="evenodd" d="M560.668 258V52C446.897 52 354.668 143.86 354.668 257.176L560.668 258Z" fill="#F2C94C"/>
<path fill-rule="evenodd" clip-rule="evenodd" d="M560.668 258V52C674.439 52 766.668 143.86 766.668 257.176L560.668 258Z" fill="#FF4329"/>
<path d="M486.668 111H584.668" stroke="#FF4329" stroke-width="13" stroke-linecap="round"/>
<path d="M459.668 138H585.668" stroke="#FF4329" stroke-width="13" stroke-linecap="round"/>
<path d="M431.668 165H695.668" stroke="#FF4329" stroke-width="13" stroke-linecap="round"/>
<path d="M401.668 191H665.668" stroke="#FF4329" stroke-width="13" stroke-linecap="round"/>
<path d="M373.668 217H637.668" stroke="#FF4329" stroke-width="13" stroke-linecap="round"/>
<path d="M258.668 243H585.668" stroke="#FF4329" stroke-width="13" stroke-linecap="round"/>
<path d="M514.668 86H612.668" stroke="#FF4329" stroke-width="13" stroke-linecap="round"/>
<path d="M498.668 73H582.668" stroke="#F2C94C" stroke-width="13" stroke-linecap="round"/>
<path d="M511.668 98H609.668" stroke="#F2C94C" stroke-width="13" stroke-linecap="round"/>
<path d="M526.668 125H637.668" stroke="#F2C94C" stroke-width="13" stroke-linecap="round"/>
<path d="M526.668 151H667.668" stroke="#F2C94C" stroke-width="13" stroke-linecap="round"/>
<path d="M393.668 178H695.668" stroke="#F2C94C" stroke-width="13" stroke-linecap="round"/>
<path d="M419.668 203H721.668" stroke="#F2C94C" stroke-width="13" stroke-linecap="round"/>
<path d="M449.668 230H751.668" stroke="#F2C94C" stroke-width="13" stroke-linecap="round"/>
<path d="M360.668 256H761.668" stroke="#F2C94C" stroke-width="13" stroke-linecap="round"/>
<path fill-rule="evenodd" clip-rule="evenodd" d="M231.168 224C234.758 224 237.668 221.09 237.668 217.5C237.668 213.91 234.758 211 231.168 211C227.578 211 224.668 213.91 224.668 217.5C224.668 221.09 227.578 224 231.168 224Z" fill="#5F3EFF"/>
<path fill-rule="evenodd" clip-rule="evenodd" d="M231.168 197C234.758 197 237.668 194.09 237.668 190.5C237.668 186.91 234.758 184 231.168 184C227.578 184 224.668 186.91 224.668 190.5C224.668 194.09 227.578 197 231.168 197Z" fill="#00C58A"/>
<path fill-rule="evenodd" clip-rule="evenodd" d="M231.168 171C234.758 171 237.668 168.09 237.668 164.5C237.668 160.91 234.758 158 231.168 158C227.578 158 224.668 160.91 224.668 164.5C224.668 168.09 227.578 171 231.168 171Z" fill="#FF4329"/>
<path fill-rule="evenodd" clip-rule="evenodd" d="M231.168 145C234.758 145 237.668 142.09 237.668 138.5C237.668 134.91 234.758 132 231.168 132C227.578 132 224.668 134.91 224.668 138.5C224.668 142.09 227.578 145 231.168 145Z" fill="#111111"/>
<path fill-rule="evenodd" clip-rule="evenodd" d="M231.168 118C234.758 118 237.668 115.09 237.668 111.5C237.668 107.91 234.758 105 231.168 105C227.578 105 224.668 107.91 224.668 111.5C224.668 115.09 227.578 118 231.168 118Z" fill="#FF4329"/>
<path fill-rule="evenodd" clip-rule="evenodd" d="M231.168 92C234.758 92 237.668 89.0899 237.668 85.5C237.668 81.9101 234.758 79 231.168 79C227.578 79 224.668 81.9101 224.668 85.5C224.668 89.0899 227.578 92 231.168 92Z" fill="#00C58A"/>
<path fill-rule="evenodd" clip-rule="evenodd" d="M231.168 65C234.758 65 237.668 62.0899 237.668 58.5C237.668 54.9101 234.758 52 231.168 52C227.578 52 224.668 54.9101 224.668 58.5C224.668 62.0899 227.578 65 231.168 65Z" fill="#5F3EFF"/>
<path fill-rule="evenodd" clip-rule="evenodd" d="M231.168 40C234.758 40 237.668 37.0899 237.668 33.5C237.668 29.9101 234.758 27 231.168 27C227.578 27 224.668 29.9101 224.668 33.5C224.668 37.0899 227.578 40 231.168 40Z" fill="#F2C94C"/>
<path fill-rule="evenodd" clip-rule="evenodd" d="M231.168 248C234.758 248 237.668 245.09 237.668 241.5C237.668 237.91 234.758 235 231.168 235C227.578 235 224.668 237.91 224.668 241.5C224.668 245.09 227.578 248 231.168 248Z" fill="#F2C94C"/>
<path fill-rule="evenodd" clip-rule="evenodd" d="M202.168 197C205.758 197 208.668 194.09 208.668 190.5C208.668 186.91 205.758 184 202.168 184C198.578 184 195.668 186.91 195.668 190.5C195.668 194.09 198.578 197 202.168 197Z" fill="#5F3EFF"/>
<path fill-rule="evenodd" clip-rule="evenodd" d="M202.168 171C205.758 171 208.668 168.09 208.668 164.5C208.668 160.91 205.758 158 202.168 158C198.578 158 195.668 160.91 195.668 164.5C195.668 168.09 198.578 171 202.168 171Z" fill="#00C58A"/>
<path fill-rule="evenodd" clip-rule="evenodd" d="M174.168 171C177.758 171 180.668 168.09 180.668 164.5C180.668 160.91 177.758 158 174.168 158C170.578 158 167.668 160.91 167.668 164.5C167.668 168.09 170.578 171 174.168 171Z" fill="#5F3EFF"/>
<path fill-rule="evenodd" clip-rule="evenodd" d="M174.168 145C177.758 145 180.668 142.09 180.668 138.5C180.668 134.91 177.758 132 174.168 132C170.578 132 167.668 134.91 167.668 138.5C167.668 142.09 170.578 145 174.168 145Z" fill="#00C58A"/>
<path fill-rule="evenodd" clip-rule="evenodd" d="M174.168 118C177.758 118 180.668 115.09 180.668 111.5C180.668 107.91 177.758 105 174.168 105C170.578 105 167.668 107.91 167.668 111.5C167.668 115.09 170.578 118 174.168 118Z" fill="#5F3EFF"/>
<path fill-rule="evenodd" clip-rule="evenodd" d="M174.168 92C177.758 92 180.668 89.0899 180.668 85.5C180.668 81.9101 177.758 79 174.168 79C170.578 79 167.668 81.9101 167.668 85.5C167.668 89.0899 170.578 92 174.168 92Z" fill="#F2C94C"/>
<path fill-rule="evenodd" clip-rule="evenodd" d="M174.168 197C177.758 197 180.668 194.09 180.668 190.5C180.668 186.91 177.758 184 174.168 184C170.578 184 167.668 186.91 167.668 190.5C167.668 194.09 170.578 197 174.168 197Z" fill="#F2C94C"/>
<path fill-rule="evenodd" clip-rule="evenodd" d="M174.168 224C177.758 224 180.668 221.09 180.668 217.5C180.668 213.91 177.758 211 174.168 211C170.578 211 167.668 213.91 167.668 217.5C167.668 221.09 170.578 224 174.168 224Z" fill="#5F3EFF"/>
<path fill-rule="evenodd" clip-rule="evenodd" d="M174.168 248C177.758 248 180.668 245.09 180.668 241.5C180.668 237.91 177.758 235 174.168 235C170.578 235 167.668 237.91 167.668 241.5C167.668 245.09 170.578 248 174.168 248Z" fill="#00C58A"/>
<path fill-rule="evenodd" clip-rule="evenodd" d="M146.168 145C149.758 145 152.668 142.09 152.668 138.5C152.668 134.91 149.758 132 146.168 132C142.578 132 139.668 134.91 139.668 138.5C139.668 142.09 142.578 145 146.168 145Z" fill="#5F3EFF"/>
<path fill-rule="evenodd" clip-rule="evenodd" d="M146.168 118C149.758 118 152.668 115.09 152.668 111.5C152.668 107.91 149.758 105 146.168 105C142.578 105 139.668 107.91 139.668 111.5C139.668 115.09 142.578 118 146.168 118Z" fill="#F2C94C"/>
<path fill-rule="evenodd" clip-rule="evenodd" d="M118.5 145C122.09 145 125 142.09 125 138.5C125 134.91 122.09 132 118.5 132C114.91 132 112 134.91 112 138.5C112 142.09 114.91 145 118.5 145Z" fill="#F2C94C"/>
<path fill-rule="evenodd" clip-rule="evenodd" d="M118.5 171C122.09 171 125 168.09 125 164.5C125 160.91 122.09 158 118.5 158C114.91 158 112 160.91 112 164.5C112 168.09 114.91 171 118.5 171Z" fill="#5F3EFF"/>
<path fill-rule="evenodd" clip-rule="evenodd" d="M118.5 197C122.09 197 125 194.09 125 190.5C125 186.91 122.09 184 118.5 184C114.91 184 112 186.91 112 190.5C112 194.09 114.91 197 118.5 197Z" fill="#00C58A"/>
<path fill-rule="evenodd" clip-rule="evenodd" d="M118.5 224C122.09 224 125 221.09 125 217.5C125 213.91 122.09 211 118.5 211C114.91 211 112 213.91 112 217.5C112 221.09 114.91 224 118.5 224Z" fill="#FF4329"/>
<path fill-rule="evenodd" clip-rule="evenodd" d="M118.5 248C122.09 248 125 245.09 125 241.5C125 237.91 122.09 235 118.5 235C114.91 235 112 237.91 112 241.5C112 245.09 114.91 248 118.5 248Z" fill="#111111"/>
<path fill-rule="evenodd" clip-rule="evenodd" d="M90.5 171C94.0899 171 97 168.09 97 164.5C97 160.91 94.0899 158 90.5 158C86.9101 158 84 160.91 84 164.5C84 168.09 86.9101 171 90.5 171Z" fill="#F2C94C"/>
<path fill-rule="evenodd" clip-rule="evenodd" d="M90.5 197C94.0899 197 97 194.09 97 190.5C97 186.91 94.0899 184 90.5 184C86.9101 184 84 186.91 84 190.5C84 194.09 86.9101 197 90.5 197Z" fill="#5F3EFF"/>
<path fill-rule="evenodd" clip-rule="evenodd" d="M90.5 224C94.0899 224 97 221.09 97 217.5C97 213.91 94.0899 211 90.5 211C86.9101 211 84 213.91 84 217.5C84 221.09 86.9101 224 90.5 224Z" fill="#00C58A"/>
<path fill-rule="evenodd" clip-rule="evenodd" d="M90.5 248C94.0899 248 97 245.09 97 241.5C97 237.91 94.0899 235 90.5 235C86.9101 235 84 237.91 84 241.5C84 245.09 86.9101 248 90.5 248Z" fill="#FF4329"/>
<path fill-rule="evenodd" clip-rule="evenodd" d="M62.5 197C66.0899 197 69 194.09 69 190.5C69 186.91 66.0899 184 62.5 184C58.9101 184 56 186.91 56 190.5C56 194.09 58.9101 197 62.5 197Z" fill="#F2C94C"/>
<path fill-rule="evenodd" clip-rule="evenodd" d="M62.5 224C66.0899 224 69 221.09 69 217.5C69 213.91 66.0899 211 62.5 211C58.9101 211 56 213.91 56 217.5C56 221.09 58.9101 224 62.5 224Z" fill="#5F3EFF"/>
<path fill-rule="evenodd" clip-rule="evenodd" d="M34.5 224C38.0899 224 41 221.09 41 217.5C41 213.91 38.0899 211 34.5 211C30.9101 211 28 213.91 28 217.5C28 221.09 30.9101 224 34.5 224Z" fill="#F2C94C"/>
<path fill-rule="evenodd" clip-rule="evenodd" d="M62.5 248C66.0899 248 69 245.09 69 241.5C69 237.91 66.0899 235 62.5 235C58.9101 235 56 237.91 56 241.5C56 245.09 58.9101 248 62.5 248Z" fill="#00C58A"/>
<path fill-rule="evenodd" clip-rule="evenodd" d="M34.5 248C38.0899 248 41 245.09 41 241.5C41 237.91 38.0899 235 34.5 235C30.9101 235 28 237.91 28 241.5C28 245.09 30.9101 248 34.5 248Z" fill="#5F3EFF"/>
<path fill-rule="evenodd" clip-rule="evenodd" d="M6.5 248C10.0899 248 13 245.09 13 241.5C13 237.91 10.0899 235 6.5 235C2.91015 235 0 237.91 0 241.5C0 245.09 2.91015 248 6.5 248Z" fill="#F2C94C"/>
<path fill-rule="evenodd" clip-rule="evenodd" d="M146.168 171C149.758 171 152.668 168.09 152.668 164.5C152.668 160.91 149.758 158 146.168 158C142.578 158 139.668 160.91 139.668 164.5C139.668 168.09 142.578 171 146.168 171Z" fill="#F2C94C"/>
<path fill-rule="evenodd" clip-rule="evenodd" d="M146.168 197C149.758 197 152.668 194.09 152.668 190.5C152.668 186.91 149.758 184 146.168 184C142.578 184 139.668 186.91 139.668 190.5C139.668 194.09 142.578 197 146.168 197Z" fill="#5F3EFF"/>
<path fill-rule="evenodd" clip-rule="evenodd" d="M146.168 224C149.758 224 152.668 221.09 152.668 217.5C152.668 213.91 149.758 211 146.168 211C142.578 211 139.668 213.91 139.668 217.5C139.668 221.09 142.578 224 146.168 224Z" fill="#00C58A"/>
<path fill-rule="evenodd" clip-rule="evenodd" d="M146.168 248C149.758 248 152.668 245.09 152.668 241.5C152.668 237.91 149.758 235 146.168 235C142.578 235 139.668 237.91 139.668 241.5C139.668 245.09 142.578 248 146.168 248Z" fill="#FF4329"/>
<path fill-rule="evenodd" clip-rule="evenodd" d="M202.168 145C205.758 145 208.668 142.09 208.668 138.5C208.668 134.91 205.758 132 202.168 132C198.578 132 195.668 134.91 195.668 138.5C195.668 142.09 198.578 145 202.168 145Z" fill="#FF4329"/>
<path fill-rule="evenodd" clip-rule="evenodd" d="M202.168 118C205.758 118 208.668 115.09 208.668 111.5C208.668 107.91 205.758 105 202.168 105C198.578 105 195.668 107.91 195.668 111.5C195.668 115.09 198.578 118 202.168 118Z" fill="#00C58A"/>
<path fill-rule="evenodd" clip-rule="evenodd" d="M202.168 92C205.758 92 208.668 89.0899 208.668 85.5C208.668 81.9101 205.758 79 202.168 79C198.578 79 195.668 81.9101 195.668 85.5C195.668 89.0899 198.578 92 202.168 92Z" fill="#5F3EFF"/>
<path fill-rule="evenodd" clip-rule="evenodd" d="M202.168 65C205.758 65 208.668 62.0899 208.668 58.5C208.668 54.9101 205.758 52 202.168 52C198.578 52 195.668 54.9101 195.668 58.5C195.668 62.0899 198.578 65 202.168 65Z" fill="#F2C94C"/>
<path fill-rule="evenodd" clip-rule="evenodd" d="M202.168 224C205.758 224 208.668 221.09 208.668 217.5C208.668 213.91 205.758 211 202.168 211C198.578 211 195.668 213.91 195.668 217.5C195.668 221.09 198.578 224 202.168 224Z" fill="#F2C94C"/>
<path d="M258.668 7H373.668" stroke="#FF4329" stroke-width="13" stroke-linecap="round"/>
<path fill-rule="evenodd" clip-rule="evenodd" d="M202.168 248C205.758 248 208.668 245.09 208.668 241.5C208.668 237.91 205.758 235 202.168 235C198.578 235 195.668 237.91 195.668 241.5C195.668 245.09 198.578 248 202.168 248Z" fill="#5F3EFF"/>
</svg>
