<svg width="146" height="121" viewBox="0 0 146 121" fill="none" xmlns="http://www.w3.org/2000/svg">
<rect x="6" y="1" width="139" height="112" rx="2" fill="white" stroke="#2D9CDB" stroke-width="2"/>
<rect x="101" y="44" width="34" height="4" rx="2" fill="white" stroke="#5F3EFF"/>
<rect x="16" y="44" width="20" height="4" rx="2" fill="white" stroke="#5F3EFF"/>
<rect x="45" y="44" width="46" height="4" rx="2" fill="white" stroke="#5F3EFF"/>
<rect x="52" y="59" width="20" height="4" rx="2" fill="white" stroke="#5F3EFF"/>
<rect x="82" y="59" width="53" height="4" rx="2" fill="white" stroke="#5F3EFF"/>
<rect x="16" y="59" width="27" height="4" rx="2" fill="white" stroke="#5F3EFF"/>
<rect x="104" y="74" width="31" height="4" rx="2" fill="white" stroke="#5F3EFF"/>
<rect x="108" y="90" width="27" height="4" rx="2" fill="white" stroke="#5F3EFF"/>
<rect x="68" y="74" width="27" height="4" rx="2" fill="white" stroke="#5F3EFF"/>
<rect x="55" y="90" width="42" height="4" rx="2" fill="white" stroke="#5F3EFF"/>
<rect x="16" y="90" width="31" height="4" rx="2" fill="white" stroke="#5F3EFF"/>
<path fill-rule="evenodd" clip-rule="evenodd" d="M17.5 15C18.8807 15 20 13.8807 20 12.5C20 11.1193 18.8807 10 17.5 10C16.1193 10 15 11.1193 15 12.5C15 13.8807 16.1193 15 17.5 15Z" fill="white" stroke="#FE4328"/>
<path fill-rule="evenodd" clip-rule="evenodd" d="M28.5 15C29.8807 15 31 13.8807 31 12.5C31 11.1193 29.8807 10 28.5 10C27.1193 10 26 11.1193 26 12.5C26 13.8807 27.1193 15 28.5 15Z" fill="white" stroke="#FE4328"/>
<path fill-rule="evenodd" clip-rule="evenodd" d="M40.5 15C41.8807 15 43 13.8807 43 12.5C43 11.1193 41.8807 10 40.5 10C39.1193 10 38 11.1193 38 12.5C38 13.8807 39.1193 15 40.5 15Z" fill="white" stroke="#FE4328"/>
<rect x="16" y="74" width="42" height="4" rx="2" fill="white" stroke="#5F3EFF"/>
<path fill-rule="evenodd" clip-rule="evenodd" d="M33.2954 78.4825C33.0033 78.7652 32.7617 79.0801 32.5706 79.416L26.6437 85.572C23.0191 89.3367 21.6171 94.4165 22.3953 99.1982L2 119.661H26.8024L33.5249 111.888C38.6965 113.443 44.5035 112.317 48.7705 108.487L58.1287 100.088L57.9933 99.9565L59.5004 98.4978C61.1889 96.8634 61.1889 94.1556 59.5004 92.5212C58.256 91.3167 56.4473 91.0418 54.9452 91.6965L55.8405 90.8299C57.5291 89.1955 57.5291 86.4877 55.8405 84.8534C54.4894 83.5456 52.4732 83.3336 50.9065 84.2174L54.0021 81.221C55.6907 79.5866 55.6907 76.8788 54.0021 75.2445C52.7603 74.0425 50.9566 73.7662 49.4565 74.4155L58.8393 65.3337C60.5278 63.6993 60.5278 60.9915 58.8393 59.3571C57.2268 57.7964 54.6669 57.7964 53.0544 59.3571L33.2954 78.4825Z" fill="white"/>
<path d="M32.5706 79.416L32.9308 79.7628L32.9743 79.7177L33.0052 79.6632L32.5706 79.416ZM33.2954 78.4825L32.9477 78.1232L33.2954 78.4825ZM26.6437 85.572L26.2835 85.2253L26.6437 85.572ZM22.3953 99.1982L22.7494 99.5512L22.9298 99.3701L22.8888 99.1179L22.3953 99.1982ZM2 119.661L1.64586 119.308L0.79572 120.161H2V119.661ZM26.8024 119.661V120.161H27.031L27.1806 119.988L26.8024 119.661ZM33.5249 111.888L33.6689 111.409L33.3586 111.316L33.1467 111.561L33.5249 111.888ZM48.7705 108.487L48.4365 108.115L48.7705 108.487ZM58.1287 100.088L58.4627 100.46L58.8619 100.101L58.4765 99.7283L58.1287 100.088ZM57.9933 99.9565L57.6456 99.5973L57.2744 99.9565L57.6456 100.316L57.9933 99.9565ZM59.5004 98.4978L59.1527 98.1385V98.1385L59.5004 98.4978ZM59.5004 92.5212L59.8481 92.162L59.5004 92.5212ZM54.9452 91.6965L54.5975 91.3372L55.145 92.1548L54.9452 91.6965ZM55.8405 90.8299L55.4928 90.4706L55.8405 90.8299ZM55.8405 84.8534L56.1883 84.4941L55.8405 84.8534ZM50.9065 84.2174L50.5587 83.8581L51.1521 84.6529L50.9065 84.2174ZM54.0021 81.221L53.6544 80.8617L54.0021 81.221ZM54.0021 75.2445L53.6544 75.6037L54.0021 75.2445ZM49.4565 74.4155L49.1087 74.0563L49.6551 74.8744L49.4565 74.4155ZM58.8393 65.3337L58.4915 64.9744L58.8393 65.3337ZM58.8393 59.3571L59.187 58.9979V58.9979L58.8393 59.3571ZM53.0544 59.3571L52.7067 58.9979V58.9979L53.0544 59.3571ZM33.0052 79.6632C33.173 79.3682 33.3855 79.0911 33.6431 78.8417L32.9477 78.1232C32.621 78.4393 32.3503 78.792 32.136 79.1688L33.0052 79.6632ZM27.0039 85.9188L32.9308 79.7628L32.2104 79.0692L26.2835 85.2253L27.0039 85.9188ZM22.8888 99.1179C22.1348 94.4847 23.4932 89.5652 27.0039 85.9188L26.2835 85.2253C22.545 89.1083 21.0995 94.3482 21.9018 99.2785L22.8888 99.1179ZM2.35414 120.014L22.7494 99.5512L22.0411 98.8452L1.64586 119.308L2.35414 120.014ZM26.8024 119.161H2V120.161H26.8024V119.161ZM33.1467 111.561L26.4242 119.334L27.1806 119.988L33.9031 112.215L33.1467 111.561ZM48.4365 108.115C44.3038 111.824 38.6793 112.916 33.6689 111.409L33.3809 112.367C38.7138 113.97 44.7033 112.809 49.1044 108.859L48.4365 108.115ZM57.7947 99.7155L48.4365 108.115L49.1044 108.859L58.4627 100.46L57.7947 99.7155ZM57.6456 100.316L57.781 100.447L58.4765 99.7283L58.341 99.5973L57.6456 100.316ZM59.1527 98.1385L57.6456 99.5973L58.341 100.316L59.8481 98.857L59.1527 98.1385ZM59.1527 92.8805C60.6382 94.3184 60.6382 96.7006 59.1527 98.1385L59.8481 98.857C61.7397 97.0262 61.7397 93.9929 59.8481 92.162L59.1527 92.8805ZM55.145 92.1548C56.4672 91.5786 58.0584 91.8213 59.1527 92.8805L59.8481 92.162C58.4536 90.8122 56.4274 90.5051 54.7455 91.2381L55.145 92.1548ZM55.4928 90.4706L54.5975 91.3372L55.293 92.0557L56.1883 91.1892L55.4928 90.4706ZM55.4928 85.2126C56.9783 86.6505 56.9783 89.0327 55.4928 90.4706L56.1883 91.1892C58.0798 89.3583 58.0798 86.325 56.1883 84.4941L55.4928 85.2126ZM51.1521 84.6529C52.5306 83.8753 54.3046 84.0625 55.4928 85.2126L56.1883 84.4941C54.6743 83.0287 52.4158 82.792 50.6608 83.7819L51.1521 84.6529ZM53.6544 80.8617L50.5587 83.8581L51.2542 84.5767L54.3499 81.5803L53.6544 80.8617ZM53.6544 75.6037C55.1399 77.0416 55.1399 79.4238 53.6544 80.8617L54.3499 81.5803C56.2414 79.7494 56.2414 76.7161 54.3499 74.8852L53.6544 75.6037ZM49.6551 74.8744C50.9756 74.3028 52.5624 74.5468 53.6544 75.6037L54.3499 74.8852C52.9583 73.5382 50.9376 73.2296 49.2579 73.9567L49.6551 74.8744ZM58.4915 64.9744L49.1087 74.0563L49.8042 74.7748L59.187 65.693L58.4915 64.9744ZM58.4915 59.7164C59.9771 61.1543 59.9771 63.5365 58.4915 64.9744L59.187 65.693C61.0786 63.8621 61.0786 60.8288 59.187 58.9979L58.4915 59.7164ZM53.4022 59.7164C54.8208 58.3433 57.0729 58.3433 58.4915 59.7164L59.187 58.9979C57.3807 57.2495 54.513 57.2495 52.7067 58.9979L53.4022 59.7164ZM33.6431 78.8417L53.4022 59.7164L52.7067 58.9979L32.9477 78.1232L33.6431 78.8417Z" fill="#FE4328"/>
<path d="M8 24.5H144" stroke="#14121E" stroke-linecap="square"/>
</svg>
