<svg width="39" height="38" viewBox="0 0 39 38" fill="none" xmlns="http://www.w3.org/2000/svg">
<path opacity="0.3" fill-rule="evenodd" clip-rule="evenodd" d="M20.6383 36.8327C19.6433 35.7747 18.2691 34.8536 15.9997 34.2194V34.2162C13.9681 33.6492 11.2181 33.3133 7.37501 33.3133C6.77827 33.3133 6.20598 33.0762 5.78402 32.6543C5.36206 32.2323 5.12501 31.66 5.12501 31.0633V10.8148C5.12425 10.5194 5.18179 10.2267 5.29433 9.95353C5.40722 9.67953 5.57322 9.43058 5.78277 9.22103C5.99232 9.01148 6.24128 8.84548 6.51527 8.73259C6.78927 8.6197 7.0837 8.56216 7.38005 8.56328C12.0691 8.58431 15.6396 9.16562 18.2197 10.3984C18.3246 10.4485 18.4278 10.4997 18.5294 10.5519C20.0524 11.3354 21.1994 12.3569 22 13.6052C22.1067 13.4388 22.2196 13.2764 22.3388 13.118C23.1727 12.0095 24.3118 11.1 25.7803 10.3984C28.3604 9.16562 31.9309 8.58431 36.6199 8.56328C36.9163 8.56216 37.2107 8.6197 37.4847 8.73259C37.7587 8.84548 38.0077 9.01148 38.2172 9.22103C38.4268 9.43058 38.5928 9.67953 38.7057 9.95353C38.8182 10.2267 38.8757 10.5194 38.875 10.8148V31.0633C38.875 31.66 38.6379 32.2323 38.216 32.6543C37.794 33.0762 37.2217 33.3133 36.625 33.3133C31.7407 33.3133 28.622 33.8558 26.4997 34.726V34.7293C25.0801 35.3111 24.1065 36.0379 23.3514 36.8437C23.1841 37.0224 23.0273 37.205 22.8785 37.391C22.6651 37.6578 22.3414 37.8122 21.9998 37.8122C21.6581 37.8122 21.3346 37.6574 21.1212 37.3906L21.116 37.3841C20.9658 37.1967 20.8074 37.0126 20.6383 36.8327Z" fill="#59E4FF"/>
<path fill-rule="evenodd" clip-rule="evenodd" d="M16.7636 31.8318C15.7687 30.7738 14.3945 29.8527 12.1251 29.2185V29.2154C10.0934 28.6483 7.34344 28.3124 3.50037 28.3124C2.90364 28.3124 2.33134 28.0753 1.90938 27.6534C1.48742 27.2314 1.25037 26.6591 1.25037 26.0624V5.81392C1.24962 5.51849 1.30715 5.22581 1.4197 4.95265C1.53259 4.67865 1.69859 4.4297 1.90814 4.22015C2.11769 4.0106 2.36664 3.8446 2.64064 3.73171C2.91464 3.61882 3.20907 3.56128 3.50542 3.56239C8.19448 3.58342 11.7649 4.16474 14.3451 5.3975C14.45 5.44761 14.5532 5.49878 14.6547 5.55101C16.1778 6.33449 17.3248 7.35601 18.1254 8.60435C18.2321 8.4379 18.345 8.27549 18.4641 8.11714C19.2981 7.00866 20.4372 6.09907 21.9056 5.3975C24.4858 4.16474 28.0562 3.58342 32.7453 3.56239C33.0417 3.56128 33.3361 3.61882 33.6101 3.73171C33.8841 3.8446 34.133 4.0106 34.3426 4.22015C34.5521 4.4297 34.7181 4.67865 34.831 4.95265C34.9436 5.22581 35.0011 5.51849 35.0004 5.81392V26.0624C35.0004 26.6591 34.7633 27.2314 34.3413 27.6534C33.9194 28.0753 33.3471 28.3124 32.7504 28.3124C27.8661 28.3124 24.7474 28.855 22.6251 29.7251V29.7284C21.2055 30.3102 20.2318 31.037 19.4767 31.8428C19.3094 32.0215 19.1526 32.2042 19.0039 32.3901C18.7904 32.657 18.4668 32.8113 18.1251 32.8114C17.7835 32.8113 17.46 32.6565 17.2465 32.3897L17.2413 32.3832C17.0911 32.1958 16.9328 32.0118 16.7636 31.8318ZM19.6251 28.7773C22.1938 27.0457 26.0764 26.0624 32.7504 26.0624V5.81238C28.1911 5.83324 25.0131 6.40642 22.8756 7.42768C22.7905 7.46835 22.707 7.50973 22.6251 7.55184C22.5823 7.57382 22.54 7.59601 22.4981 7.61839C21.0954 8.3676 20.1783 9.33698 19.6251 10.5414V28.7773ZM16.6251 28.7769C14.0564 27.0455 10.1739 26.0624 3.50037 26.0624V5.81238C7.24339 5.82951 10.0554 6.21889 12.1251 6.92286C12.5764 7.07637 12.9925 7.24484 13.3751 7.42768C14.9923 8.20035 16.0236 9.23151 16.6251 10.5402V28.7769Z" fill="#0D5F80"/>
</svg>
