<svg width="38" height="38" viewBox="0 0 38 38" fill="none" xmlns="http://www.w3.org/2000/svg">
<path opacity="0.2" fill-rule="evenodd" clip-rule="evenodd" d="M10.5626 5.14127H23.6876C24.5579 5.14127 25.3925 5.48697 26.0078 6.10232C26.6232 6.71767 26.9689 7.55227 26.9689 8.42251L26.9689 16.0789H34.6251C35.4954 16.0789 36.33 16.4247 36.9453 17.04C37.5607 17.6554 37.9064 18.49 37.9064 19.3602V36.8602C37.9064 37.4643 37.4167 37.9539 36.8126 37.9539C27.3335 37.9539 17.8543 37.9538 8.37512 37.9538C7.77106 37.9538 7.28137 37.4641 7.28137 36.86V8.42251C7.28137 7.55227 7.62707 6.71768 8.24243 6.10232C8.85778 5.48697 9.69238 5.14127 10.5626 5.14127Z" fill="#E24D3F"/>
<path fill-rule="evenodd" clip-rule="evenodd" d="M18.6875 1.14127H5.5625C4.69226 1.14127 3.85766 1.48697 3.24231 2.10232C2.62695 2.71768 2.28125 3.55227 2.28125 4.42251V32.86C2.28125 33.4641 2.77094 33.9538 3.375 33.9538H20.6016C20.9642 33.9538 21.3119 33.8097 21.5683 33.5533C21.8247 33.2969 21.9688 32.9492 21.9688 32.5866V4.42251C21.9688 3.55227 21.623 2.71767 21.0077 2.10232C20.3923 1.48697 19.5577 1.14127 18.6875 1.14127ZM4.7891 3.64912C4.99422 3.444 5.27242 3.32877 5.5625 3.32877H18.6875C18.9776 3.32877 19.2558 3.444 19.4609 3.64912C19.666 3.85424 19.7812 4.13244 19.7812 4.42251V31.7663H13.2187V28.4841C13.2187 27.8801 12.729 27.3904 12.1249 27.3904C11.5209 27.3904 11.0312 27.8801 11.0312 28.4841V31.7663H4.46875V4.42251C4.46875 4.13243 4.58398 3.85423 4.7891 3.64912Z" fill="#73250E"/>
<path fill-rule="evenodd" clip-rule="evenodd" d="M20.422 12.7197C20.8322 12.3094 21.3886 12.0789 21.9687 12.0789H29.625C30.4952 12.0789 31.3298 12.4247 31.9452 13.04C32.5605 13.6554 32.9062 14.49 32.9062 15.3602V32.8602C32.9062 33.4643 32.4166 33.9539 31.8125 33.9539H20.875C20.2709 33.9539 19.7812 33.4643 19.7812 32.8602V14.2664C19.7812 13.6863 20.0117 13.1299 20.422 12.7197ZM29.625 14.2664L21.9687 14.2664L21.9687 31.7664H30.7187V15.3602C30.7187 15.0701 30.6035 14.7919 30.3984 14.5868C30.1933 14.3817 29.9151 14.2664 29.625 14.2664Z" fill="#73250E"/>
<path d="M6.79833 29.57C6.57181 29.5996 6.3417 29.5576 6.14029 29.4498C5.93888 29.342 5.77629 29.1738 5.67533 28.9688C5.57438 28.7639 5.54013 28.5325 5.57739 28.3071C5.61465 28.0817 5.72156 27.8736 5.8831 27.7121C6.04464 27.5506 6.25271 27.4437 6.4781 27.4064C6.70349 27.3691 6.93489 27.4034 7.13983 27.5043C7.34477 27.6053 7.51295 27.7679 7.62077 27.9693C7.72859 28.1707 7.77063 28.4008 7.74101 28.6273C7.70974 28.8664 7.60037 29.0884 7.42989 29.2589C7.25942 29.4294 7.03739 29.5388 6.79833 29.57Z" fill="#E24D3F"/>
<path d="M6.79833 24.1009C6.57181 24.1305 6.3417 24.0885 6.14029 23.9806C5.93888 23.8728 5.77629 23.7046 5.67533 23.4997C5.57438 23.2948 5.54013 23.0634 5.57739 22.838C5.61465 22.6126 5.72156 22.4045 5.8831 22.243C6.04464 22.0814 6.25271 21.9745 6.4781 21.9373C6.70349 21.9 6.93489 21.9342 7.13983 22.0352C7.34477 22.1362 7.51295 22.2987 7.62077 22.5002C7.72859 22.7016 7.77063 22.9317 7.74101 23.1582C7.70974 23.3973 7.60037 23.6193 7.42989 23.7898C7.25942 23.9602 7.03739 24.0696 6.79833 24.1009Z" fill="#E24D3F"/>
<path d="M6.79833 18.6324C6.57181 18.6621 6.3417 18.62 6.14029 18.5122C5.93888 18.4044 5.77629 18.2362 5.67533 18.0312C5.57438 17.8263 5.54013 17.5949 5.57739 17.3695C5.61465 17.1441 5.72156 16.9361 5.8831 16.7745C6.04464 16.613 6.25271 16.5061 6.4781 16.4688C6.70349 16.4315 6.93489 16.4658 7.13983 16.5668C7.34477 16.6677 7.51295 16.8303 7.62077 17.0317C7.72859 17.2331 7.77063 17.4632 7.74101 17.6898C7.70974 17.9288 7.60037 18.1508 7.42989 18.3213C7.25942 18.4918 7.03739 18.6012 6.79833 18.6324Z" fill="#E24D3F"/>
<path d="M6.79833 13.164C6.57181 13.1936 6.3417 13.1516 6.14029 13.0437C5.93888 12.9359 5.77629 12.7677 5.67533 12.5628C5.57438 12.3579 5.54013 12.1265 5.57739 11.9011C5.61465 11.6757 5.72156 11.4676 5.8831 11.3061C6.04464 11.1445 6.25271 11.0376 6.4781 11.0004C6.70349 10.9631 6.93489 10.9974 7.13983 11.0983C7.34477 11.1993 7.51295 11.3619 7.62077 11.5633C7.72859 11.7647 7.77063 11.9948 7.74101 12.2213C7.70974 12.4604 7.60037 12.6824 7.42989 12.8529C7.25942 13.0233 7.03739 13.1327 6.79833 13.164Z" fill="#E24D3F"/>
<path d="M6.79833 7.69413C6.57181 7.72376 6.3417 7.68171 6.14029 7.57389C5.93888 7.46607 5.77629 7.29789 5.67533 7.09295C5.57438 6.88802 5.54013 6.65662 5.57739 6.43122C5.61465 6.20583 5.72156 5.99776 5.8831 5.83622C6.04464 5.67468 6.25271 5.56778 6.4781 5.53052C6.70349 5.49326 6.93489 5.52751 7.13983 5.62846C7.34477 5.72941 7.51295 5.89201 7.62077 6.09341C7.72859 6.29482 7.77063 6.52494 7.74101 6.75146C7.70974 6.99051 7.60037 7.21254 7.42989 7.38302C7.25942 7.5535 7.03739 7.66287 6.79833 7.69413Z" fill="#E24D3F"/>
<path d="M12.2671 24.1009C12.0406 24.1305 11.8104 24.0885 11.609 23.9806C11.4076 23.8728 11.245 23.7046 11.1441 23.4997C11.0431 23.2948 11.0089 23.0634 11.0461 22.838C11.0834 22.6126 11.1903 22.4045 11.3518 22.243C11.5134 22.0814 11.7215 21.9745 11.9468 21.9373C12.1722 21.9 12.4036 21.9342 12.6086 22.0352C12.8135 22.1362 12.9817 22.2987 13.0895 22.5002C13.1973 22.7016 13.2394 22.9317 13.2098 23.1582C13.1785 23.3973 13.0691 23.6193 12.8986 23.7898C12.7282 23.9602 12.5061 24.0696 12.2671 24.1009Z" fill="#E24D3F"/>
<path d="M12.2671 18.6324C12.0406 18.6621 11.8104 18.62 11.609 18.5122C11.4076 18.4044 11.245 18.2362 11.1441 18.0312C11.0431 17.8263 11.0089 17.5949 11.0461 17.3695C11.0834 17.1441 11.1903 16.9361 11.3518 16.7745C11.5134 16.613 11.7215 16.5061 11.9468 16.4688C12.1722 16.4315 12.4036 16.4658 12.6086 16.5668C12.8135 16.6677 12.9817 16.8303 13.0895 17.0317C13.1973 17.2331 13.2394 17.4632 13.2098 17.6898C13.1785 17.9288 13.0691 18.1508 12.8986 18.3213C12.7282 18.4918 12.5061 18.6012 12.2671 18.6324Z" fill="#E24D3F"/>
<path d="M12.2671 13.164C12.0406 13.1936 11.8104 13.1516 11.609 13.0437C11.4076 12.9359 11.245 12.7677 11.1441 12.5628C11.0431 12.3579 11.0089 12.1265 11.0461 11.9011C11.0834 11.6757 11.1903 11.4676 11.3518 11.3061C11.5134 11.1445 11.7215 11.0376 11.9468 11.0004C12.1722 10.9631 12.4036 10.9974 12.6086 11.0983C12.8135 11.1993 12.9817 11.3619 13.0895 11.5633C13.1973 11.7647 13.2394 11.9948 13.2098 12.2213C13.1785 12.4604 13.0691 12.6824 12.8986 12.8529C12.7282 13.0233 12.5061 13.1327 12.2671 13.164Z" fill="#E24D3F"/>
<path d="M12.2671 7.69413C12.0406 7.72376 11.8104 7.68171 11.609 7.57389C11.4076 7.46607 11.245 7.29789 11.1441 7.09295C11.0431 6.88802 11.0089 6.65662 11.0461 6.43122C11.0834 6.20583 11.1903 5.99776 11.3518 5.83622C11.5134 5.67468 11.7215 5.56778 11.9468 5.53052C12.1722 5.49326 12.4036 5.52751 12.6086 5.62846C12.8135 5.72941 12.9817 5.89201 13.0895 6.09341C13.1973 6.29482 13.2394 6.52494 13.2098 6.75146C13.1785 6.99051 13.0691 7.21254 12.8986 7.38302C12.7282 7.5535 12.5061 7.66287 12.2671 7.69413Z" fill="#E24D3F"/>
<path d="M17.736 29.57C17.5094 29.5996 17.2793 29.5576 17.0779 29.4498C16.8765 29.342 16.7139 29.1738 16.613 28.9688C16.512 28.7639 16.4778 28.5325 16.515 28.3071C16.5523 28.0817 16.6592 27.8736 16.8207 27.7121C16.9823 27.5506 17.1903 27.4437 17.4157 27.4064C17.6411 27.3691 17.8725 27.4034 18.0775 27.5043C18.2824 27.6053 18.4506 27.7679 18.5584 27.9693C18.6662 28.1707 18.7083 28.4008 18.6786 28.6273C18.6474 28.8664 18.538 29.0884 18.3675 29.2589C18.197 29.4294 17.975 29.5388 17.736 29.57Z" fill="#E24D3F"/>
<path d="M17.736 24.1009C17.5094 24.1305 17.2793 24.0885 17.0779 23.9806C16.8765 23.8728 16.7139 23.7046 16.613 23.4997C16.512 23.2948 16.4778 23.0634 16.515 22.838C16.5523 22.6126 16.6592 22.4045 16.8207 22.243C16.9823 22.0814 17.1903 21.9745 17.4157 21.9373C17.6411 21.9 17.8725 21.9342 18.0775 22.0352C18.2824 22.1362 18.4506 22.2987 18.5584 22.5002C18.6662 22.7016 18.7083 22.9317 18.6786 23.1582C18.6474 23.3973 18.538 23.6193 18.3675 23.7898C18.197 23.9602 17.975 24.0696 17.736 24.1009Z" fill="#E24D3F"/>
<path d="M17.736 18.6324C17.5094 18.6621 17.2793 18.62 17.0779 18.5122C16.8765 18.4044 16.7139 18.2362 16.613 18.0312C16.512 17.8263 16.4778 17.5949 16.515 17.3695C16.5523 17.1441 16.6592 16.9361 16.8207 16.7745C16.9823 16.613 17.1903 16.5061 17.4157 16.4688C17.6411 16.4315 17.8725 16.4658 18.0775 16.5668C18.2824 16.6677 18.4506 16.8303 18.5584 17.0317C18.6662 17.2331 18.7083 17.4632 18.6786 17.6898C18.6474 17.9288 18.538 18.1508 18.3675 18.3213C18.197 18.4918 17.975 18.6012 17.736 18.6324Z" fill="#E24D3F"/>
<path d="M18.3685 12.8526C18.7943 12.4268 18.7926 11.7347 18.3647 11.3068C17.9367 10.8789 17.2446 10.8771 16.8188 11.3029C16.393 11.7287 16.3948 12.4208 16.8227 12.8488C17.2506 13.2767 17.9427 13.2784 18.3685 12.8526Z" fill="#E24D3F"/>
<path d="M17.736 7.69413C17.5094 7.72376 17.2793 7.68171 17.0779 7.57389C16.8765 7.46607 16.7139 7.29789 16.613 7.09295C16.512 6.88802 16.4778 6.65662 16.515 6.43122C16.5523 6.20583 16.6592 5.99776 16.8207 5.83622C16.9823 5.67468 17.1903 5.56778 17.4157 5.53052C17.6411 5.49326 17.8725 5.52751 18.0775 5.62846C18.2824 5.72941 18.4506 5.89201 18.5584 6.09341C18.6662 6.29482 18.7083 6.52494 18.6786 6.75146C18.6474 6.99051 18.538 7.21254 18.3675 7.38302C18.197 7.5535 17.975 7.66287 17.736 7.69413Z" fill="#E24D3F"/>
<path d="M27.4374 27.3911C27.2211 27.3911 27.0096 27.4552 26.8297 27.5754C26.6499 27.6956 26.5097 27.8664 26.4269 28.0662C26.3441 28.2661 26.3224 28.486 26.3646 28.6982C26.4068 28.9103 26.511 29.1052 26.664 29.2582C26.8169 29.4112 27.0118 29.5153 27.224 29.5575C27.4362 29.5997 27.6561 29.5781 27.8559 29.4953C28.0558 29.4125 28.2266 29.2723 28.3468 29.0925C28.467 28.9126 28.5311 28.7011 28.5311 28.4848C28.5311 28.1947 28.4159 27.9165 28.2108 27.7114C28.0057 27.5063 27.7275 27.3911 27.4374 27.3911Z" fill="#E24D3F"/>
<path d="M27.4374 21.9226C27.2211 21.9226 27.0096 21.9868 26.8297 22.1069C26.6499 22.2271 26.5097 22.3979 26.4269 22.5978C26.3441 22.7977 26.3224 23.0176 26.3646 23.2297C26.4068 23.4419 26.511 23.6368 26.664 23.7898C26.8169 23.9427 27.0118 24.0469 27.224 24.0891C27.4362 24.1313 27.6561 24.1096 27.8559 24.0269C28.0558 23.9441 28.2266 23.8039 28.3468 23.624C28.467 23.4441 28.5311 23.2327 28.5311 23.0164C28.5311 22.7263 28.4159 22.4481 28.2108 22.243C28.0057 22.0378 27.7275 21.9226 27.4374 21.9226Z" fill="#E24D3F"/>
<path d="M27.4374 16.4535C27.2211 16.4535 27.0096 16.5176 26.8297 16.6378C26.6499 16.758 26.5097 16.9288 26.4269 17.1287C26.3441 17.3285 26.3224 17.5484 26.3646 17.7606C26.4068 17.9728 26.511 18.1676 26.664 18.3206C26.8169 18.4736 27.0118 18.5777 27.224 18.6199C27.4362 18.6621 27.6561 18.6405 27.8559 18.5577C28.0558 18.4749 28.2266 18.3347 28.3468 18.1549C28.467 17.975 28.5311 17.7635 28.5311 17.5472C28.5311 17.2571 28.4159 16.9789 28.2108 16.7738C28.0057 16.5687 27.7275 16.4535 27.4374 16.4535Z" fill="#E24D3F"/>
<path d="M23.0625 27.3911C22.8462 27.3911 22.6347 27.4552 22.4548 27.5754C22.275 27.6956 22.1348 27.8664 22.052 28.0662C21.9692 28.2661 21.9476 28.486 21.9898 28.6982C22.032 28.9103 22.1361 29.1052 22.2891 29.2582C22.4421 29.4112 22.637 29.5153 22.8491 29.5575C23.0613 29.5997 23.2812 29.5781 23.4811 29.4953C23.6809 29.4125 23.8517 29.2723 23.9719 29.0925C24.0921 28.9126 24.1562 28.7011 24.1562 28.4848C24.1562 28.1947 24.041 27.9165 23.8359 27.7114C23.6308 27.5063 23.3526 27.3911 23.0625 27.3911Z" fill="#E24D3F"/>
<path d="M23.0625 21.9226C22.8462 21.9226 22.6347 21.9868 22.4548 22.1069C22.275 22.2271 22.1348 22.3979 22.052 22.5978C21.9692 22.7977 21.9476 23.0176 21.9898 23.2297C22.032 23.4419 22.1361 23.6368 22.2891 23.7898C22.4421 23.9427 22.637 24.0469 22.8491 24.0891C23.0613 24.1313 23.2812 24.1096 23.4811 24.0269C23.6809 23.9441 23.8517 23.8039 23.9719 23.624C24.0921 23.4441 24.1562 23.2327 24.1562 23.0164C24.1562 22.7263 24.041 22.4481 23.8359 22.243C23.6308 22.0378 23.3526 21.9226 23.0625 21.9226Z" fill="#E24D3F"/>
<path d="M23.0625 16.4535C22.8462 16.4535 22.6347 16.5176 22.4548 16.6378C22.275 16.758 22.1348 16.9288 22.052 17.1287C21.9692 17.3285 21.9476 17.5484 21.9898 17.7606C22.032 17.9728 22.1361 18.1676 22.2891 18.3206C22.4421 18.4736 22.637 18.5777 22.8491 18.6199C23.0613 18.6621 23.2812 18.6405 23.4811 18.5577C23.6809 18.4749 23.8517 18.3347 23.9719 18.1549C24.0921 17.975 24.1562 17.7635 24.1562 17.5472C24.1562 17.2571 24.041 16.9789 23.8359 16.7738C23.6308 16.5687 23.3526 16.4535 23.0625 16.4535Z" fill="#E24D3F"/>
</svg>
