<svg width="20" height="20" viewBox="0 0 20 20" xmlns="http://www.w3.org/2000/svg">
<path d="M16.5835 0.249634H3.08349C2.28811 0.250502 1.52556 0.566852 0.963135 1.12927C0.400714 1.69169 0.0843646 2.45425 0.0834961 3.24963V16.7496C0.0843646 17.545 0.400714 18.3076 0.963135 18.87C1.52556 19.4324 2.28811 19.7488 3.08349 19.7496H16.5835C17.3789 19.7488 18.1414 19.4324 18.7038 18.87C19.2663 18.3076 19.5826 17.545 19.5835 16.7496V3.24963C19.5826 2.45425 19.2663 1.69169 18.7038 1.12927C18.1414 0.566852 17.3789 0.250502 16.5835 0.249634ZM14.9077 6.73197L8.60771 14.232C8.5386 14.3143 8.45261 14.3808 8.35556 14.427C8.25851 14.4731 8.15267 14.4979 8.04521 14.4996H8.03256C7.92743 14.4996 7.82349 14.4775 7.72748 14.4347C7.63146 14.3919 7.54551 14.3293 7.47521 14.2512L4.77521 11.2512C4.70664 11.1785 4.6533 11.0928 4.61833 10.9991C4.58335 10.9055 4.56744 10.8058 4.57154 10.7059C4.57564 10.6061 4.59967 10.508 4.6422 10.4176C4.68473 10.3271 4.74492 10.2461 4.81922 10.1792C4.89352 10.1123 4.98043 10.061 5.07486 10.0282C5.16928 9.99541 5.26931 9.98182 5.36906 9.98824C5.46881 9.99465 5.56627 10.0209 5.65571 10.0656C5.74516 10.1102 5.82478 10.1722 5.8899 10.2481L8.01287 12.6068L13.7593 5.76729C13.8882 5.61826 14.0705 5.52595 14.2669 5.5103C14.4634 5.49464 14.658 5.55691 14.8089 5.68365C14.9598 5.81038 15.0547 5.99139 15.0732 6.18756C15.0917 6.38373 15.0322 6.57929 14.9077 6.73197Z" />
</svg>
