<svg width="37" height="36" viewBox="0 0 37 36" fill="none" xmlns="http://www.w3.org/2000/svg">
<path opacity="0.3" fill-rule="evenodd" clip-rule="evenodd" d="M6.03125 11.1875C6.03125 8.90933 7.87808 7.0625 10.1562 7.0625H32.8437C35.1219 7.0625 36.9687 8.90933 36.9687 11.1875V31.8125C36.9687 34.0907 35.1219 35.9375 32.8437 35.9375H10.1562C7.87808 35.9375 6.03125 34.0907 6.03125 31.8125V11.1875Z" fill="#C98BFF"/>
<path fill-rule="evenodd" clip-rule="evenodd" d="M1.0625 6.25C1.0625 3.97183 2.90933 2.125 5.1875 2.125H27.875C30.1532 2.125 32 3.97183 32 6.25V26.875C32 29.1532 30.1532 31 27.875 31H5.1875C2.90933 31 1.0625 29.1532 1.0625 26.875V6.25ZM5.1875 4.1875C4.04841 4.1875 3.125 5.11091 3.125 6.25V26.875C3.125 28.0141 4.04841 28.9375 5.1875 28.9375H27.875C29.0141 28.9375 29.9375 28.0141 29.9375 26.875V6.25C29.9375 5.11091 29.0141 4.1875 27.875 4.1875H5.1875Z" fill="#552C78"/>
<path d="M5.41333 6.63728C5.76912 6.19255 6.41808 6.12044 6.86282 6.47623L12.0191 10.6012C12.2637 10.7969 12.4061 11.0932 12.4061 11.4065C12.4061 11.7198 12.2637 12.0161 12.0191 12.2118L6.86282 16.3368C6.41808 16.6926 5.76912 16.6205 5.41333 16.1757C5.05754 15.731 5.12965 15.082 5.57439 14.7262L9.72405 11.4065L5.57439 8.08677C5.12965 7.73098 5.05754 7.08202 5.41333 6.63728Z" fill="#E24D3F"/>
<path d="M12.4061 14.4982C11.8366 14.4982 11.3749 14.9599 11.3749 15.5295C11.3749 16.099 11.8366 16.5607 12.4061 16.5607H16.5311C17.1007 16.5607 17.5624 16.099 17.5624 15.5295C17.5624 14.9599 17.1007 14.4982 16.5311 14.4982H12.4061Z" fill="#E24D3F"/>
</svg>
