<svg width="25" height="24" viewBox="0 0 25 24" fill="none" xmlns="http://www.w3.org/2000/svg">
<path d="M12.5 1.49988C6.70156 1.49988 2 6.32331 2 12.2671C2 17.0249 5.00937 21.0561 9.18125 22.4811C9.23976 22.4938 9.29949 22.5001 9.35937 22.4999C9.74843 22.4999 9.89843 22.2139 9.89843 21.9655C9.89843 21.7077 9.88906 21.0327 9.88437 20.1327C9.53705 20.2141 9.18173 20.2565 8.825 20.2592C6.80469 20.2592 6.34531 18.6889 6.34531 18.6889C5.86719 17.4467 5.17812 17.1139 5.17812 17.1139C4.26406 16.4717 5.17344 16.453 5.24375 16.453H5.24844C6.30312 16.5467 6.85625 17.5686 6.85625 17.5686C7.38125 18.4874 8.08437 18.7452 8.7125 18.7452C9.12783 18.7369 9.53673 18.641 9.9125 18.4639C10.0062 17.7702 10.2781 17.2967 10.5781 17.0249C8.24843 16.753 5.79687 15.8296 5.79687 11.7046C5.79687 10.528 6.20469 9.56706 6.875 8.81706C6.76718 8.54519 6.40625 7.44831 6.97812 5.96706C7.05483 5.94871 7.13367 5.94082 7.2125 5.94362C7.59218 5.94362 8.45 6.08894 9.86562 7.07331C11.5857 6.59205 13.4049 6.59205 15.125 7.07331C16.5406 6.08894 17.3984 5.94362 17.7781 5.94362C17.8569 5.94082 17.9358 5.94871 18.0125 5.96706C18.5844 7.44831 18.2234 8.54519 18.1156 8.81706C18.7859 9.57175 19.1937 10.5327 19.1937 11.7046C19.1937 15.8389 16.7375 16.7483 14.3984 17.0155C14.7734 17.3483 15.1109 18.0046 15.1109 19.0077C15.1109 20.4467 15.0969 21.6092 15.0969 21.9608C15.0969 22.2139 15.2422 22.4999 15.6312 22.4999C15.6942 22.5001 15.7571 22.4939 15.8187 22.4811C19.9953 21.0561 23 17.0202 23 12.2671C23 6.32331 18.2984 1.49988 12.5 1.49988Z" fill="#272733"/>
</svg>
