<svg width="48" height="46" viewBox="0 0 48 46" fill="none" xmlns="http://www.w3.org/2000/svg">
<g opacity="0.3">
<path fill-rule="evenodd" clip-rule="evenodd" d="M37.6254 20.0033C38.0543 19.5744 38.636 19.3335 39.2425 19.3335C39.849 19.3335 40.4307 19.5744 40.8596 20.0033C41.1614 20.3052 41.3702 20.6827 41.4674 21.0913C41.7523 20.9676 42.0622 20.9019 42.3788 20.9019C42.9853 20.9019 43.567 21.1428 43.9959 21.5717C44.4248 22.0006 44.6657 22.5823 44.6657 23.1888L44.6658 24.2031C44.9334 24.096 45.2214 24.0395 45.5152 24.0395C46.1218 24.0395 46.7035 24.2804 47.1323 24.7093C47.5612 25.1382 47.8022 25.7199 47.8022 26.3264V34.9514C47.8022 37.9553 46.982 40.3037 45.5048 41.9077C44.0224 43.5173 41.9547 44.294 39.6344 44.294C37.3684 44.294 35.6966 43.7827 34.4456 42.8945C33.1976 42.0084 32.4424 40.7993 31.9147 39.5406C31.9104 39.5304 31.9064 39.52 31.9026 39.5096L29.3222 32.4547C29.1246 31.9187 29.0474 31.3414 29.1821 30.7956C29.3216 30.2302 29.6753 29.7555 30.2232 29.4443C31.2877 28.8394 32.9104 29.1542 33.4134 30.3661L33.819 31.3432V23.9723C33.819 23.3658 34.06 22.7841 34.4888 22.3552C34.9177 21.9264 35.4994 21.6854 36.1059 21.6854C36.3998 21.6854 36.6879 21.742 36.9556 21.8491C36.9556 21.1564 37.1188 20.5099 37.6254 20.0033Z" fill="#599CFF"/>
<path d="M16.7702 20.0033C16.3413 19.5744 15.7596 19.3335 15.1531 19.3335C14.5466 19.3335 13.9649 19.5744 13.536 20.0033C13.2341 20.3052 13.0254 20.6827 12.9282 21.0913C12.6433 20.9676 12.3334 20.9019 12.0168 20.9019C11.4102 20.9019 10.8285 21.1428 10.3997 21.5717C9.97077 22.0006 9.72982 22.5823 9.72982 23.1888L9.72982 24.2031C9.46218 24.096 9.17417 24.0395 8.88032 24.0395C8.27379 24.0395 7.6921 24.2804 7.26322 24.7093C6.83434 25.1382 6.59339 25.7199 6.59339 26.3264V34.9514C6.59339 37.9553 7.41356 40.3037 8.89076 41.9077C10.3731 43.5173 12.4409 44.294 14.7612 44.294C17.0271 44.294 18.699 43.7827 19.95 42.8945C21.198 42.0084 21.9532 40.7993 22.4808 39.5406C22.4851 39.5304 22.4892 39.52 22.493 39.5096L25.0734 32.4547C25.271 31.9187 25.3482 31.3414 25.2135 30.7956C25.074 30.2302 24.7202 29.7555 24.1724 29.4443C23.1079 28.8394 21.4851 29.1542 20.9821 30.3661L20.5766 31.3432V23.9723C20.5766 23.3658 20.3356 22.7841 19.9067 22.3552C19.4778 21.9264 18.8962 21.6854 18.2896 21.6854C17.9957 21.6854 17.7077 21.742 17.44 21.8491C17.44 21.1564 17.2768 20.5099 16.7702 20.0033Z" fill="#599CFF"/>
</g>
<path fill-rule="evenodd" clip-rule="evenodd" d="M33.6254 16.0033C34.0543 15.5744 34.636 15.3335 35.2425 15.3335C35.8491 15.3335 36.4307 15.5744 36.8596 16.0033C37.1615 16.3052 37.3702 16.6827 37.4674 17.0913C37.7523 16.9675 38.0622 16.9019 38.3788 16.9019C38.9854 16.9019 39.5671 17.1428 39.996 17.5717C40.4248 18.0006 40.6658 18.5823 40.6658 19.1888L40.6658 20.2031C40.9334 20.096 41.2214 20.0395 41.5153 20.0395C42.1218 20.0395 42.7035 20.2804 43.1324 20.7093C43.5613 21.1382 43.8022 21.7199 43.8022 22.3264V30.9514C43.8022 33.9553 42.982 36.3037 41.5048 37.9077C40.0225 39.5173 37.9547 40.294 35.6344 40.294C33.3685 40.294 31.6966 39.7827 30.4456 38.8945C29.1976 38.0084 28.4424 36.7993 27.9148 35.5406C27.9105 35.5304 27.9064 35.52 27.9026 35.5096L25.3222 28.4547C25.3221 28.4544 25.3223 28.455 25.3222 28.4547C25.1246 27.9187 25.0474 27.3414 25.1821 26.7956C25.3216 26.2302 25.6754 25.7555 26.2232 25.4443C27.2877 24.8394 28.9105 25.1542 29.4135 26.3661L29.819 27.3432V19.9723C29.819 19.3658 30.06 18.7841 30.4889 18.3552C30.9178 17.9264 31.4994 17.6854 32.106 17.6854C32.3999 17.6854 32.6879 17.742 32.9556 17.8491C32.9556 17.1564 33.1188 16.5099 33.6254 16.0033ZM34.3929 27.0456V27.0782C34.3929 27.4751 34.0711 27.7969 33.6742 27.7969C33.2772 27.7969 32.9554 27.4751 32.9554 27.0782V19.9723C32.9554 19.7471 32.8659 19.531 32.7066 19.3717C32.5473 19.2124 32.3313 19.1229 32.106 19.1229C31.8807 19.1229 31.6646 19.2124 31.5053 19.3717C31.346 19.531 31.2565 19.7471 31.2565 19.9723V30.9496C31.2565 31.2924 31.0145 31.5875 30.6783 31.6545C30.3421 31.7215 30.0054 31.5418 29.874 31.2252L28.1006 26.9527C27.8934 26.5936 27.379 26.4409 26.9333 26.6941C26.4634 26.9611 26.5057 27.5096 26.6708 27.9571L26.6715 27.959L29.2468 34.9999C29.7128 36.1066 30.3284 37.0483 31.2778 37.7224C32.2285 38.3974 33.5879 38.8565 35.6344 38.8565C37.6266 38.8565 39.2834 38.1978 40.4474 36.9339C41.6166 35.6643 42.3647 33.7008 42.3647 30.9514V22.3264C42.3647 22.1011 42.2752 21.8851 42.1159 21.7258C41.9566 21.5665 41.7406 21.477 41.5153 21.477C41.29 21.477 41.0739 21.5665 40.9146 21.7258C40.7553 21.8851 40.6658 22.1011 40.6658 22.3264V27.8151C40.6658 28.212 40.3441 28.5338 39.9471 28.5338C39.5501 28.5338 39.2284 28.212 39.2283 27.8151L39.2283 19.1888C39.2283 18.9635 39.1388 18.7475 38.9795 18.5882C38.8202 18.4289 38.6041 18.3394 38.3788 18.3394C38.1536 18.3394 37.9375 18.4289 37.7782 18.5882C37.6206 18.7457 37.5314 18.9588 37.5294 19.1814L37.5294 27.0297C37.5294 27.4267 37.2076 27.7485 36.8107 27.7485C36.4137 27.7485 36.0919 27.4267 36.0919 27.0297C36.0919 23.8933 36.0919 20.7569 36.092 17.6204C36.092 17.3951 36.0025 17.1791 35.8432 17.0198C35.6839 16.8605 35.4678 16.771 35.2425 16.771C35.0172 16.771 34.8012 16.8605 34.6419 17.0198C34.4826 17.1791 34.3931 17.3951 34.3931 17.6204V27.0295C34.3931 27.0349 34.393 27.0403 34.3929 27.0456Z" fill="#003380"/>
<path fill-rule="evenodd" clip-rule="evenodd" d="M12.7702 16.0033C12.3413 15.5744 11.7596 15.3335 11.1531 15.3335C10.5466 15.3335 9.96489 15.5744 9.536 16.0033C9.23415 16.3052 9.02539 16.6827 8.92821 17.0913C8.64331 16.9675 8.33343 16.9019 8.01678 16.9019C7.41025 16.9019 6.82856 17.1428 6.39968 17.5717C5.97079 18.0006 5.72985 18.5823 5.72985 19.1888L5.72984 20.2031C5.46221 20.096 5.17419 20.0395 4.88035 20.0395C4.27382 20.0395 3.69213 20.2804 3.26324 20.7093C2.83436 21.1382 2.59342 21.7199 2.59342 22.3264V30.9514C2.59342 33.9553 3.41359 36.3037 4.89078 37.9077C6.37316 39.5173 8.44088 40.294 10.7612 40.294C13.0272 40.294 14.699 39.7827 15.95 38.8945C17.198 38.0084 17.9532 36.7993 18.4809 35.5406C18.4851 35.5304 18.4892 35.52 18.493 35.5096L21.0734 28.4547C21.0736 28.4544 21.0733 28.455 21.0734 28.4547C21.271 27.9187 21.3482 27.3414 21.2135 26.7956C21.074 26.2302 20.7203 25.7555 20.1724 25.4443C19.1079 24.8394 17.4852 25.1542 16.9822 26.3661L16.5766 27.3432V19.9723C16.5766 19.3658 16.3356 18.7841 15.9068 18.3552C15.4779 17.9264 14.8962 17.6854 14.2896 17.6854C13.9958 17.6854 13.7077 17.742 13.44 17.8491C13.44 17.1564 13.2768 16.5099 12.7702 16.0033ZM12.0027 27.0456V27.0782C12.0027 27.4751 12.3245 27.7969 12.7215 27.7969C13.1184 27.7969 13.4402 27.4751 13.4402 27.0782V19.9723C13.4402 19.7471 13.5297 19.531 13.689 19.3717C13.8483 19.2124 14.0644 19.1229 14.2896 19.1229C14.5149 19.1229 14.731 19.2124 14.8903 19.3717C15.0496 19.531 15.1391 19.7471 15.1391 19.9723V30.9496C15.1391 31.2924 15.3812 31.5875 15.7173 31.6545C16.0535 31.7215 16.3902 31.5418 16.5217 31.2252L18.2951 26.9527C18.5023 26.5936 19.0167 26.4409 19.4623 26.6941C19.9322 26.9611 19.8899 27.5096 19.7248 27.9571L19.7241 27.959L17.1488 34.9999C16.6829 36.1066 16.0672 37.0483 15.1178 37.7224C14.1671 38.3974 12.8077 38.8565 10.7612 38.8565C8.76898 38.8565 7.11219 38.1978 5.94819 36.9339C4.779 35.6643 4.03092 33.7008 4.03092 30.9514V22.3264C4.03092 22.1011 4.12041 21.8851 4.27971 21.7258C4.43901 21.5665 4.65507 21.477 4.88035 21.477C5.10563 21.477 5.32169 21.5665 5.48099 21.7258C5.64029 21.8851 5.72978 22.1011 5.72978 22.3264V27.8151C5.72978 28.212 6.05157 28.5338 6.44853 28.5338C6.84548 28.5338 7.16728 28.212 7.16728 27.8151L7.16735 19.1888C7.16735 18.9635 7.25684 18.7475 7.41614 18.5882C7.57544 18.4289 7.7915 18.3394 8.01678 18.3394C8.24206 18.3394 8.45812 18.4289 8.61742 18.5882C8.77498 18.7457 8.86425 18.9588 8.86618 19.1814L8.86621 27.0297C8.86621 27.4267 9.18801 27.7485 9.58496 27.7485C9.98192 27.7485 10.3037 27.4267 10.3037 27.0297C10.3037 23.8933 10.3037 20.7569 10.3037 17.6204C10.3037 17.3951 10.3932 17.1791 10.5525 17.0198C10.7118 16.8605 10.9278 16.771 11.1531 16.771C11.3784 16.771 11.5944 16.8605 11.7537 17.0198C11.913 17.1791 12.0025 17.3951 12.0025 17.6204V27.0295C12.0025 27.0349 12.0026 27.0403 12.0027 27.0456Z" fill="#003380"/>
<path d="M17.4478 6.47617L21.566 5.75L20.5961 12.2905L17.4478 6.47617Z" fill="#E24D3F"/>
<path d="M11.6978 8.88641L15.3193 6.7955L16.6449 13.2733L11.6978 8.88641Z" fill="#E24D3F"/>
<path d="M23.7205 5.75009L27.8388 6.47626L24.6904 12.2906L23.7205 5.75009Z" fill="#E24D3F"/>
<path d="M29.9932 6.79538L33.6147 8.88629L28.6676 13.2732L29.9932 6.79538Z" fill="#E24D3F"/>
</svg>
