<svg width="18" height="18" viewBox="0 0 18 18" fill="none" xmlns="http://www.w3.org/2000/svg">
<path fill-rule="evenodd" clip-rule="evenodd" d="M1.68744 8.72046C1.68744 4.83757 4.8358 1.68921 8.71869 1.68921C12.6016 1.68921 15.7499 4.83757 15.7499 8.72046C15.7499 12.6033 12.6016 15.7517 8.71869 15.7517C4.8358 15.7517 1.68744 12.6033 1.68744 8.72046ZM8.71869 2.81421C5.45712 2.81421 2.81244 5.45889 2.81244 8.72046C2.81244 11.982 5.45712 14.6267 8.71869 14.6267C11.9803 14.6267 14.6249 11.982 14.6249 8.72046C14.6249 5.45889 11.9803 2.81421 8.71869 2.81421Z" fill="#7C7C87"/>
<path d="M7.7344 7.17236C7.42374 7.17236 7.1719 7.4242 7.1719 7.73486C7.1719 8.04552 7.42374 8.29736 7.7344 8.29736H8.2969V11.3907H7.31241C7.00175 11.3907 6.74991 11.6425 6.74991 11.9532C6.74991 12.2638 7.00175 12.5157 7.31241 12.5157H10.4062C10.7168 12.5157 10.9687 12.2638 10.9687 11.9532C10.9687 11.6425 10.7168 11.3907 10.4062 11.3907H9.4219V7.73486C9.4219 7.4242 9.17006 7.17236 8.8594 7.17236H7.7344Z" fill="#7C7C87"/>
<path d="M9.6375 5.48995C9.6375 5.99529 9.22784 6.40495 8.7225 6.40495C8.21715 6.40495 7.8075 5.99529 7.8075 5.48995C7.8075 4.98461 8.21715 4.57495 8.7225 4.57495C9.22784 4.57495 9.6375 4.98461 9.6375 5.48995Z" fill="#7C7C87"/>
</svg>
