<svg width="20" height="20" viewBox="0 0 20 20" xmlns="http://www.w3.org/2000/svg">
<path fill-rule="evenodd" clip-rule="evenodd" d="M10.2679 2.5C8.86588 2.5 7.49537 2.93987 6.32965 3.76398C5.16394 4.58809 4.25537 5.75943 3.71885 7.12987C3.18233 8.50032 3.04195 10.0083 3.31547 11.4632C3.58898 12.918 4.26411 14.2544 5.25547 15.3033C6.24683 16.3522 7.5099 17.0665 8.88495 17.3559C10.26 17.6453 11.6853 17.4968 12.9806 16.9291C14.2758 16.3614 15.3829 15.4001 16.1618 14.1668C16.9407 12.9334 17.3565 11.4834 17.3565 10C17.3565 8.01088 16.6096 6.10322 15.2803 4.6967C13.9509 3.29018 12.1479 2.5 10.2679 2.5ZM6.98602 4.80331C7.95745 4.11656 9.09954 3.75 10.2679 3.75C11.8345 3.75 13.3371 4.40848 14.4449 5.58058C15.5527 6.75268 16.175 8.3424 16.175 10C16.175 11.2361 15.8286 12.4445 15.1795 13.4723C14.5304 14.5001 13.6078 15.3012 12.5284 15.7742C11.4491 16.2473 10.2613 16.3711 9.11544 16.1299C7.96956 15.8887 6.917 15.2935 6.09087 14.4194C5.26474 13.5453 4.70213 12.4317 4.4742 11.2193C4.24627 10.0069 4.36325 8.75027 4.81035 7.60823C5.25745 6.46619 6.01459 5.49007 6.98602 4.80331Z" />
<path d="M11.0895 6.77138C11.4437 6.95325 11.9598 7.31081 11.9598 8.02958C11.9598 8.82003 11.5232 9.1748 10.771 9.71696C10.363 10.011 10.0762 10.3244 9.89534 10.6768C9.71291 11.0322 9.65679 11.3916 9.65679 11.7432C9.65679 11.9996 9.85507 12.2074 10.0997 12.2074C10.3443 12.2074 10.5426 11.9996 10.5426 11.7432C10.5426 11.4997 10.5803 11.3019 10.6754 11.1166C10.7721 10.9282 10.9634 10.705 11.2899 10.4697C12.0032 9.95564 12.8455 9.34863 12.8455 8.02958C12.8455 6.734 11.8824 6.14459 11.4787 5.93739L11.478 5.93702C11.1717 5.78048 10.7241 5.70278 10.2708 5.70862C9.76075 5.71592 9.14048 5.83475 8.612 6.29132C8.18673 6.65874 7.96052 7.07598 7.84155 7.40559C7.7731 7.59522 7.7215 7.80516 7.70856 8.00846C7.6979 8.26459 7.88731 8.48216 8.13168 8.49334C8.38594 8.50497 8.57681 8.23823 8.60284 7.98321C8.61284 7.92542 8.63244 7.8382 8.67001 7.73411C8.74469 7.52722 8.88985 7.25442 9.1754 7.00771C9.49097 6.73508 9.88436 6.64268 10.2826 6.63694C10.6583 6.63214 10.9525 6.70146 11.0895 6.77138Z" />
<path d="M10.0996 14.25C10.491 14.25 10.8083 13.9174 10.8083 13.5073C10.8083 13.0971 10.491 12.7645 10.0996 12.7645C9.70828 12.7645 9.39103 13.0971 9.39103 13.5073C9.39103 13.9174 9.70828 14.25 10.0996 14.25Z" />
</svg>
