<svg width="51" height="51" viewBox="0 0 51 51" fill="none" xmlns="http://www.w3.org/2000/svg">
<path fill-rule="evenodd" clip-rule="evenodd" d="M18.9844 10.1442L26.5263 0.700195L34.0682 10.1442H29.5177V14.5433H23.5987V10.1442H18.9844Z" fill="#5F3EFF"/>
<path fill-rule="evenodd" clip-rule="evenodd" d="M43.2749 32.7279L46.0735 44.4854L33.9883 44.6143L36.7899 41.0284L33.3234 38.3201L36.9675 33.6557L40.434 36.3641L43.2749 32.7279Z" fill="#5F3EFF"/>
<path fill-rule="evenodd" clip-rule="evenodd" d="M7.96927 32.7279L5.17062 44.4854L17.2558 44.6143L14.4542 41.0284L17.9207 38.3201L14.2766 33.6557L10.8101 36.3641L7.96927 32.7279Z" fill="#5F3EFF"/>
<path fill-rule="evenodd" clip-rule="evenodd" d="M25.9058 29.3092C27.18 29.3092 28.213 28.2762 28.213 27.002C28.213 25.7278 27.18 24.6948 25.9058 24.6948C24.6316 24.6948 23.5986 25.7278 23.5986 27.002C23.5986 28.2762 24.6316 29.3092 25.9058 29.3092Z" fill="#5F3EFF" stroke="#5F3EFF" stroke-width="2.5"/>
</svg>
