<svg width="629" height="685" viewBox="0 0 629 685" fill="none" xmlns="http://www.w3.org/2000/svg">
<path fill-rule="evenodd" clip-rule="evenodd" d="M254.875 103.935C242.572 108.068 204.575 104.864 163.044 92.1948C131.728 82.6415 104.658 69.9055 89.9237 58.8453C151.313 55.7781 208.446 71.7926 254.875 103.935ZM-173.129 603.451L-217.558 364.563C-223.846 328.018 -222.937 292.685 -215.831 259.848C-207.504 221.368 -190.668 186.317 -166.935 156.761C-144.041 128.251 -114.729 104.854 -80.4449 88.4238C-52.8817 75.2149 -22.1047 66.5096 11.1344 63.2718C33.9264 86.7195 87.4342 113.51 150.527 132.757C214.947 152.409 275.331 159.934 306.906 152.507C346.348 201.9 365.97 265.53 361.452 334.218L345.488 576.93L280.657 817.069C275.29 898.659 253.354 971.007 171.528 975.295L38.3356 982.276C-43.4457 986.562 -66.5819 915.325 -80.4449 834.757L-173.129 603.451Z" fill="black"/>
<path fill-rule="evenodd" clip-rule="evenodd" d="M220.125 342.961C262.077 315.862 273.842 259.822 246.401 217.792C218.96 175.762 94.4771 315.927 94.4771 315.927C94.4771 315.927 178.172 370.061 220.125 342.961Z" fill="white"/>
<path fill-rule="evenodd" clip-rule="evenodd" d="M146.754 318.963C162.808 318.122 175.139 304.397 174.296 288.308C173.453 272.219 159.755 259.858 143.701 260.699C127.647 261.541 115.316 275.266 116.16 291.355C117.003 307.444 130.7 319.805 146.754 318.963Z" fill="black"/>
<path fill-rule="evenodd" clip-rule="evenodd" d="M-75.9022 358.476C-120.458 335.91 -138.015 281.407 -115.118 236.739C-92.2208 192.071 46.2313 318.456 46.2313 318.456C46.2313 318.456 -31.3468 381.041 -75.9022 358.476Z" fill="white"/>
<path fill-rule="evenodd" clip-rule="evenodd" d="M-5.43069 326.94C-21.4846 327.781 -35.1823 315.42 -36.0255 299.331C-36.8687 283.242 -24.538 269.517 -8.48413 268.676C7.56975 267.834 21.2675 280.195 22.1107 296.284C22.9539 312.373 10.6232 326.098 -5.43069 326.94Z" fill="black" stroke="black" stroke-width="2"/>
<path fill-rule="evenodd" clip-rule="evenodd" d="M-277.743 585.855C-277.75 646.501 -123.636 807.225 -123.636 807.225L-104.794 753.162L-143.476 698.016L-134.401 691.672L-100.305 740.28L-96.0441 728.055L-128.657 681.562L-119.582 675.218L-91.5548 715.174L-87.2935 702.947L-113.836 665.108L-104.76 658.765L-82.8041 690.066L-64.9591 638.863C-64.9591 638.863 -115.869 544.97 -125.99 522.109C-143.034 483.61 -277.739 552.292 -277.743 585.855Z" fill="black"/>
<path fill-rule="evenodd" clip-rule="evenodd" d="M331.362 575.234C324.744 506.843 439.067 335.69 439.067 335.69L463.812 388.242L435.842 438.603L445.531 443.963L469.624 400.584L475.137 412.293L452.296 453.418L461.985 458.778L480.948 424.634L486.461 436.343L468.749 468.234L478.438 473.594L492.273 448.685L515.021 496.996C515.021 496.996 476.529 611.124 466.529 619.489C456.528 627.855 337.98 643.626 331.362 575.234Z" fill="black"/>
<path fill-rule="evenodd" clip-rule="evenodd" d="M-198.703 472.406L92.1095 673.128L348.604 454.005L273.477 926.47L-60.0722 926.47L-198.703 472.406Z" fill="white"/>
<path d="M-158.345 752.436L-201.319 455.171L-0.815902 826.384L-0.773395 826.463L-0.706263 826.522L97.1589 912.635L97.4929 912.929L97.8236 912.631L179.533 839.09L179.613 839.018L179.656 838.919L355.023 438.126L345.993 689.458L282.741 1031.48L213.52 1056.65L213.333 1056.72L213.244 1056.9L191.903 1099.58L164.832 1099.58L158.591 1065.88L158.542 1065.61L158.296 1065.51L114.076 1046.56L113.855 1046.46L113.643 1046.58L78.2686 1065.53L78.0469 1065.65L78.0101 1065.89L73.0195 1099.58L43.4018 1099.58L22.0704 1065.7L21.9967 1065.58L21.8734 1065.52L-65.1241 1021.39L-158.345 752.436Z" fill="black" stroke="black"/>
<path fill-rule="evenodd" clip-rule="evenodd" d="M72.1351 360.486C72.8736 359.671 74.132 359.605 74.9517 360.339L145.413 423.424C146.433 424.337 146.255 425.983 145.062 426.656L82.2842 462.09C81.7626 462.385 81.1366 462.43 80.5782 462.213L8.85791 434.412C7.55012 433.905 7.15679 432.244 8.09826 431.205L72.1351 360.486Z" fill="#F5A623"/>
<path d="M285.988 82.2265C283.897 89.9508 282.018 97.7049 280.408 105.434C275.616 119.353 229.026 115.93 176.345 97.7903C123.663 79.6504 84.8436 53.6641 89.6362 39.7453L89.6397 39.7465C93.1381 32.652 96.4347 25.3743 99.5415 17.9918C58.3877 12.246 29.2251 15.7154 24.5329 29.3427C16.673 52.1697 80.461 94.8324 167.009 124.634C253.56 154.436 330.088 160.088 337.947 137.261C342.632 123.655 321.857 103.002 285.988 82.2265Z" fill="black"/>
<path d="M345.537 -67.8709C337.487 -54.1427 295.471 -55.484 236.149 -75.9106C176.837 -96.3336 142.889 -121.141 144.996 -136.911C144.996 -136.911 125.364 -42.2331 90.9225 44.5339C90.8275 58.4756 127.365 82.0185 176.003 98.7663C224.656 115.519 267.945 119.463 276.442 108.406C302.678 18.9866 345.349 -67.5742 345.537 -67.8709Z" fill="#5F3EFF"/>
<path d="M368.075 -99.3872C360.026 -85.6591 307.563 -90.5977 248.24 -111.024C188.928 -131.447 144.533 -159.852 146.641 -175.622C146.641 -175.622 137.455 -77.3468 103.014 9.42027C102.919 23.362 139.456 46.9049 188.095 63.6526C236.747 80.4051 280.037 84.3491 288.534 73.2926C314.769 -16.127 367.888 -99.0906 368.075 -99.3872Z" fill="black"/>
<path fill-rule="evenodd" clip-rule="evenodd" d="M-91.8707 482.134C-93.3245 481.346 -95.0517 482.563 -94.7999 484.197L-63.2495 688.971C-63.0166 690.483 -61.2421 691.184 -60.0386 690.24L232.251 461.001C233.513 460.011 235.368 460.835 235.48 462.435L249.54 663.572C249.65 665.146 247.979 666.221 246.592 665.47L-91.8707 482.134Z" fill="#FF4329"/>
</svg>
