<svg width="42" height="42" viewBox="0 0 42 42" fill="none" xmlns="http://www.w3.org/2000/svg">
<path fill-rule="evenodd" clip-rule="evenodd" d="M41.3815 2.01355C41.5546 5.17151 39.954 15.5971 33.6814 23.0811L34.287 24.7682C35.4118 27.7964 34.5033 31.2139 32.0375 33.2904L26.4138 38.0922C25.6352 38.7411 24.3807 38.4383 24.0346 37.4433L22.1744 32.2954C20.271 33.4202 18.6705 34.1988 17.5457 34.718C16.594 35.1506 15.5125 34.9343 14.8204 34.2421L7.89892 27.2773C7.16352 26.5419 6.94722 25.4604 7.37981 24.5519C7.89892 23.4272 8.67759 21.8265 9.80233 19.9231L4.65449 18.0197C3.65952 17.6736 3.31345 16.4191 4.0056 15.6404L8.80737 9.97335C10.8838 7.50754 14.3013 6.59909 17.3294 7.72384L19.0598 8.37274C26.5004 2.10007 36.9258 0.542713 40.0837 0.715752C40.4731 0.715752 40.7759 0.888791 40.9922 1.10509C41.2085 1.36465 41.3815 1.66747 41.3815 2.01355ZM24.4237 17.6735C26.1108 19.3174 28.7929 19.3174 30.4368 17.6735C32.0806 16.0297 32.0806 13.3476 30.4368 11.6604C28.7497 10.0166 26.0676 10.0166 24.4237 11.6604C22.7799 13.3476 22.7799 16.0297 24.4237 17.6735Z" fill="#5F3EFF"/>
<path d="M11.8355 36.0161L8.72082 39.0876C8.11519 39.6932 8.11519 40.7314 8.72082 41.337C9.32645 41.9427 10.3647 41.9427 10.9703 41.337L14.085 38.2224C14.6906 37.6167 14.6906 36.5785 14.085 35.9729C13.4361 35.3673 12.4411 35.3673 11.8355 36.0161Z" fill="#5F3EFF"/>
<path d="M10.062 32.0363C9.45638 31.4306 8.41816 31.4306 7.81253 32.0363L2.88098 37.0111C2.27535 37.6168 2.27535 38.655 2.88098 39.2606C3.48661 39.8663 4.52483 39.8663 5.13046 39.2606L10.062 34.2425C10.7109 33.6369 10.7109 32.6419 10.062 32.0363Z" fill="#5F3EFF"/>
<path d="M6.12693 30.3055C6.73255 29.6999 6.73255 28.6617 6.12693 28.056C5.5213 27.4504 4.48309 27.4504 3.87746 28.056L0.762813 31.1707C0.157187 31.7763 0.157187 32.8145 0.762813 33.4202C1.36844 34.0258 2.40665 34.0258 3.01228 33.4202L6.12693 30.3055Z" fill="#5F3EFF"/>
</svg>
