<svg width="233" height="369" viewBox="0 0 233 369" fill="none" xmlns="http://www.w3.org/2000/svg">
<rect x="0.316406" width="232" height="18" rx="8" fill="#2D9CDB"/>
<rect x="0.316406" y="351" width="232" height="18" rx="8" fill="#2D9CDB"/>
<path fill-rule="evenodd" clip-rule="evenodd" d="M133.118 175.883C152.776 171.206 171.889 158.305 184.908 137.078C199.021 114.067 206.231 54.8452 208.507 32.6085C208.983 27.9585 205.317 24 200.643 24H32.0135C27.3327 24 23.6632 27.9613 24.1453 32.6172C26.3505 53.917 33.0591 108.93 45.4057 131.25C59.3149 156.394 79.9888 171.635 101.786 176.324L101.736 176.599L101.736 176.6L101.736 176.6L101.737 176.6L101.741 176.601L101.758 176.608C101.767 176.612 101.779 176.616 101.793 176.621C101.804 176.626 101.817 176.631 101.831 176.636C101.896 176.662 101.992 176.7 102.115 176.752C102.361 176.854 102.714 177.008 103.138 177.21C103.988 177.615 105.118 178.212 106.244 178.982C108.537 180.55 110.642 182.714 110.642 185.311C110.642 187.708 108.843 189.503 106.753 190.769C84.6333 193.76 62.3431 207.097 47.7307 230.922C30.1957 259.512 23.3179 302.811 23.3179 344H200.68C205.361 344 208.975 340.039 208.493 335.383C206.288 314.083 199.579 259.07 187.233 236.75C173.048 211.109 151.829 195.766 129.558 191.41C127.397 189.864 125.489 187.784 125.489 185.311C125.489 182.683 127.347 180.518 129.336 178.964C130.318 178.196 131.303 177.601 132.044 177.198C132.414 176.996 132.721 176.844 132.935 176.742C133.042 176.691 133.125 176.652 133.181 176.627C133.198 176.62 133.212 176.614 133.223 176.609L133.244 176.599L133.259 176.593L133.263 176.591L133.263 176.591L133.263 176.591L133.263 176.59L133.118 175.883ZM104.717 176.89C108.568 177.549 112.446 177.88 116.319 177.88C120.715 177.88 125.164 177.464 129.602 176.631H131.013C130.331 177.028 129.527 177.546 128.72 178.176C126.671 179.777 124.489 182.202 124.489 185.311C124.489 187.624 125.851 189.55 127.498 191.039C123.786 190.427 120.051 190.12 116.319 190.12C113.841 190.12 111.346 190.252 108.845 190.517C110.395 189.241 111.642 187.529 111.642 185.311C111.642 182.171 109.132 179.745 106.809 178.157C106.088 177.664 105.369 177.241 104.717 176.89Z" fill="white" fill-opacity="0.2"/>
<path fill-rule="evenodd" clip-rule="evenodd" d="M34.3164 73.1704C34.3164 73.1704 65.094 67.7301 129.925 87.5784C194.755 107.427 100.332 126 100.332 126L34.3164 73.1704Z" fill="#4623EF"/>
<path fill-rule="evenodd" clip-rule="evenodd" d="M34.3164 74C34.3164 74 50.2029 153.359 103.536 171.126C116.019 175.864 116.019 182.971 116.019 182.971V196H120.558C120.558 196 117.153 178.233 128.501 172.311C152.331 161.65 188.643 143.883 194.316 78.7379C156.87 71.6311 123.962 97.6893 91.054 94.1359C58.1462 90.5825 34.3164 74 34.3164 74Z" fill="#5F3EFF"/>
<path fill-rule="evenodd" clip-rule="evenodd" d="M117 198C118.105 198 119 197.105 119 196C119 194.895 118.105 194 117 194C115.895 194 115 194.895 115 196C115 197.105 115.895 198 117 198Z" fill="#5F3EFF"/>
<path fill-rule="evenodd" clip-rule="evenodd" d="M119 198C120.105 198 121 197.105 121 196C121 194.895 120.105 194 119 194C117.895 194 117 194.895 117 196C117 197.105 117.895 198 119 198Z" fill="#5F3EFF"/>
<path fill-rule="evenodd" clip-rule="evenodd" d="M121 204C122.105 204 123 203.105 123 202C123 200.895 122.105 200 121 200C119.895 200 119 200.895 119 202C119 203.105 119.895 204 121 204Z" fill="#5F3EFF"/>
<path fill-rule="evenodd" clip-rule="evenodd" d="M118 209C119.105 209 120 208.105 120 207C120 205.895 119.105 205 118 205C116.895 205 116 205.895 116 207C116 208.105 116.895 209 118 209Z" fill="#5F3EFF"/>
<path fill-rule="evenodd" clip-rule="evenodd" d="M124 212C125.105 212 126 211.105 126 210C126 208.895 125.105 208 124 208C122.895 208 122 208.895 122 210C122 211.105 122.895 212 124 212Z" fill="#5F3EFF"/>
<path fill-rule="evenodd" clip-rule="evenodd" d="M120 218C121.105 218 122 217.105 122 216C122 214.895 121.105 214 120 214C118.895 214 118 214.895 118 216C118 217.105 118.895 218 120 218Z" fill="#5F3EFF"/>
<path fill-rule="evenodd" clip-rule="evenodd" d="M113 214C114.105 214 115 213.105 115 212C115 210.895 114.105 210 113 210C111.895 210 111 210.895 111 212C111 213.105 111.895 214 113 214Z" fill="#5F3EFF"/>
<path fill-rule="evenodd" clip-rule="evenodd" d="M115 203C116.105 203 117 202.105 117 201C117 199.895 116.105 199 115 199C113.895 199 113 199.895 113 201C113 202.105 113.895 203 115 203Z" fill="#5F3EFF"/>
<path fill-rule="evenodd" clip-rule="evenodd" d="M122.869 176.794C122.869 176.794 124.386 177.464 129.212 176.472C129.401 176.433 129.589 176.393 129.778 176.353C129.151 176.737 128.441 177.215 127.73 177.782C125.662 179.43 123.47 181.919 123.47 185.105C123.47 187.703 125.116 189.828 126.985 191.41C123.055 190.887 121.062 191.922 121.062 191.922C121.062 191.922 121.059 192.071 121.198 192.402C120.527 191.262 119.816 189.107 119.816 185.105C119.816 181.116 121.504 177.676 123.217 175.214C123.255 175.16 123.293 175.106 123.331 175.052C122.73 176.254 122.869 176.794 122.869 176.794ZM122.754 194.664L122.281 194.646L122.226 194.644L122.173 194.63L122.299 194.147C122.173 194.63 122.172 194.63 122.171 194.63L122.17 194.63L122.167 194.629L122.161 194.627L122.144 194.622C122.132 194.618 122.117 194.614 122.099 194.607C122.063 194.595 122.017 194.577 121.962 194.551C121.852 194.501 121.707 194.422 121.54 194.301C121.204 194.057 120.787 193.651 120.381 192.983C119.571 191.65 118.816 189.288 118.816 185.105C118.816 180.835 120.619 177.196 122.396 174.643C123.287 173.363 124.177 172.348 124.845 171.651C125.18 171.302 125.459 171.033 125.656 170.85C125.755 170.758 125.833 170.688 125.887 170.64C125.914 170.616 125.935 170.598 125.95 170.585L125.967 170.57L125.972 170.566L125.973 170.565L125.974 170.565C125.974 170.564 125.974 170.564 126.297 170.946L125.974 170.564L126.29 170.297L126.612 170.558L126.779 170.694C128.845 168.655 131.989 166.053 136.772 162.808C152.411 152.197 159.943 145.325 169.211 112.691C180.298 73.6535 175.852 24.1126 175.852 24.1126C175.852 24.1126 198.139 23.8874 202.209 24.1126C203.651 24.1924 206.571 24.9866 208.316 28.4826C208.316 69.6628 200.589 108.583 183.114 137.167C170.439 157.898 151.969 170.687 132.858 175.626L133.068 175.796L132.313 176.124L132.313 176.124L132.313 176.125L132.309 176.126L132.294 176.133C132.28 176.139 132.259 176.148 132.231 176.161C132.174 176.187 132.09 176.227 131.983 176.279C131.767 176.384 131.457 176.541 131.084 176.748C130.337 177.163 129.344 177.775 128.353 178.564C126.35 180.161 124.47 182.392 124.47 185.105C124.47 187.788 126.601 190.017 128.91 191.627C129.005 191.693 129.1 191.758 129.194 191.822C149.286 196.201 168.951 209.206 182.241 230.946C199.717 259.529 206.571 300.198 206.571 341.378C205.699 343.126 203.833 344 202.209 344H174.98C174.98 344 179.426 294.459 168.339 255.421C159.07 222.787 151.539 215.916 135.899 205.305C128.257 200.12 124.551 196.733 122.754 194.664Z" fill="white" fill-opacity="0.4"/>
</svg>
