<svg viewBox="0 0 220 35" fill="none" xmlns="http://www.w3.org/2000/svg">
<g clip-path="url(#clip0_259_1928)">
<path d="M52.3146 15.225C53.1731 15.225 53.9744 15.0533 54.7758 14.7099C55.5198 14.3664 56.2067 13.7941 56.7218 13.1072L59.0685 15.5112C57.2369 17.5717 55.1192 18.602 52.6008 18.602C51.456 18.6592 50.3685 18.4875 49.281 18.0296C48.2508 17.6289 47.2777 16.9993 46.4192 16.2553C45.6179 15.5112 44.9883 14.5381 44.5876 13.5651C44.187 12.5349 43.958 11.4474 44.0152 10.3599C43.958 9.27236 44.187 8.12762 44.5876 7.09736C44.9883 6.0671 45.6179 5.15131 46.4192 4.34999C47.2777 3.54868 48.308 2.91907 49.3955 2.51841C50.483 2.11776 51.685 1.94604 52.8869 2.00328C54.0889 2.06052 55.2337 2.3467 56.3212 2.86183C57.4087 3.37697 58.3244 4.12104 59.1258 5.03683L56.8935 7.61249C56.3784 6.92565 55.7488 6.41052 55.0047 6.0671C54.2606 5.72368 53.4593 5.49473 52.6008 5.49473C51.3416 5.49473 50.0823 5.95262 49.1093 6.81118C48.5942 7.26907 48.2508 7.84144 47.9646 8.47104C47.7356 9.10065 47.6212 9.78749 47.6212 10.4171C47.5639 11.1039 47.6784 11.7335 47.9073 12.3631C48.1363 12.9928 48.4797 13.5651 48.9948 14.023C49.9106 14.7671 51.1126 15.225 52.3146 15.225ZM61.8159 18.373V2.23223H65.4218V15.1678H72.3475V18.373H61.8159ZM88.1448 16.1408C86.485 17.6862 84.3672 18.5447 82.0777 18.5447C79.7883 18.5447 77.6705 17.6862 76.0106 16.1408C75.2093 15.3967 74.5797 14.4809 74.1791 13.4506C73.7784 12.4204 73.5494 11.3329 73.5494 10.2454C73.4922 9.15789 73.7212 8.01315 74.1218 7.04012C74.5225 6.00986 75.1521 5.09407 75.9534 4.34999C77.6133 2.8046 79.731 1.94604 82.0205 1.94604C84.31 1.94604 86.4277 2.8046 88.0876 4.34999C88.8889 5.09407 89.5185 6.00986 89.9192 7.04012C90.3198 8.07039 90.5488 9.15789 90.4916 10.2454C90.5488 11.3329 90.3198 12.4776 89.9192 13.4506C89.5758 14.4809 88.9462 15.3967 88.1448 16.1408ZM86.8856 10.2454C86.8856 8.8717 86.3705 7.55525 85.4547 6.52499C84.9968 6.0671 84.4817 5.66644 83.9093 5.38025C83.3369 5.09407 82.6501 4.9796 82.0205 4.9796C81.3909 4.9796 80.7613 5.09407 80.1317 5.38025C79.5593 5.66644 78.9869 6.00986 78.5863 6.52499C77.6705 7.55525 77.1554 8.8717 77.1554 10.2454C77.1554 11.6191 77.6705 12.9355 78.5863 13.9658C79.0442 14.4237 79.5593 14.8243 80.1317 15.1105C80.7041 15.3967 81.3909 15.5112 82.0205 15.5112C82.6501 15.5112 83.2797 15.3967 83.9093 15.1105C84.4817 14.8243 85.0541 14.4809 85.4547 13.9658C85.9126 13.4506 86.3133 12.8783 86.5422 12.2487C86.8284 11.5618 86.9429 10.9322 86.8856 10.2454ZM97.9323 14.252C98.2185 14.6526 98.6192 14.9388 99.0198 15.1105C99.4205 15.2822 99.9356 15.3967 100.394 15.3967C100.851 15.3967 101.309 15.3395 101.71 15.1105C102.111 14.9388 102.511 14.5954 102.74 14.252C103.37 13.3362 103.656 12.3059 103.599 11.2184V2.28947H107.205V11.3329C107.205 13.6796 106.575 15.4539 105.259 16.7132C104.572 17.3428 103.828 17.8579 102.969 18.1441C102.111 18.4875 101.195 18.602 100.279 18.602C99.3633 18.602 98.4475 18.4875 97.5889 18.1441C96.7304 17.8006 95.9291 17.3428 95.2994 16.7132C93.983 15.4539 93.3534 13.6796 93.3534 11.3329V2.28947H96.9593V11.2184C96.9593 12.3059 97.3027 13.3934 97.9323 14.252ZM123.403 4.34999C124.948 5.78091 125.749 7.72697 125.749 10.2454C125.749 12.7638 125.005 14.7671 123.517 16.2553C122.029 17.7434 119.682 18.4303 116.649 18.4303H111.04V2.23223H116.763C119.625 2.23223 121.857 2.91907 123.403 4.34999ZM120.77 13.9658C121.628 13.1645 122.086 11.9053 122.086 10.3026C122.086 8.69999 121.628 7.49802 120.77 6.63947C119.911 5.78091 118.538 5.32302 116.706 5.32302H114.703V15.1678H116.992C118.366 15.2822 119.74 14.8816 120.77 13.9658ZM146.297 2.23223H149.903V18.4303H146.297L138.571 8.29933V18.4303H134.965V2.23223H138.342L146.297 12.6493V2.23223ZM165.415 18.373L163.869 14.8816H157.058L155.513 18.373H151.62L158.603 2.17499H162.095L169.135 18.373H165.415ZM160.549 7.04012L158.546 11.7335H162.553L160.549 7.04012ZM176.862 5.38025V18.4303H173.256V5.38025H168.677V2.28947H181.498V5.38025H176.862ZM184.017 2.23223H187.622V18.4303H184.017V2.23223ZM197.639 12.5349L201.76 2.23223H205.709L199.242 18.4303H196.208L189.74 2.23223H193.69L197.639 12.5349ZM219.217 2.23223V5.43749H211.147V8.75723H218.416V11.848H211.147V15.225H219.503V18.4303H207.598V2.28947L219.217 2.23223C219.217 2.28947 219.217 2.23223 219.217 2.23223ZM48.1363 32.1671C48.5942 32.1671 49.0521 32.0526 49.51 31.8809C49.9106 31.652 50.3113 31.3658 50.5975 30.9651L51.9139 32.3388C51.456 32.8539 50.9409 33.3118 50.2541 33.598C49.6245 33.8842 48.9376 34.0559 48.2508 34.0559C47.6212 34.0559 46.9916 33.9987 46.4192 33.7697C45.8468 33.5408 45.2745 33.1974 44.8166 32.7395C44.3587 32.3388 44.0152 31.8237 43.7863 31.2513C43.5573 30.6789 43.4429 30.0493 43.4429 29.4197C43.4429 28.7901 43.5573 28.1605 43.7863 27.5881C44.0152 27.0158 44.3587 26.5006 44.8166 26.0428C45.2745 25.5849 45.7896 25.2414 46.3619 25.0125C46.9343 24.7835 47.5639 24.6691 48.1935 24.6691C48.8804 24.6691 49.6245 24.7835 50.2541 25.0697C50.8837 25.3559 51.456 25.8138 51.9712 26.3289L50.7119 27.7599C50.4258 27.3592 50.0823 27.073 49.6817 26.8441C49.281 26.6151 48.8231 26.5579 48.308 26.5579C47.5639 26.5579 46.8771 26.8441 46.3619 27.302C46.0758 27.5309 45.8468 27.8743 45.7323 28.2178C45.6179 28.5612 45.5034 28.9618 45.5606 29.3053C45.5606 29.6487 45.6179 30.0493 45.7323 30.3928C45.8468 30.7362 46.0758 31.0796 46.3047 31.3085C46.5337 31.5375 46.8198 31.7664 47.1633 31.8809C47.5067 31.9954 47.7929 32.1671 48.1363 32.1671ZM60.9001 32.6822C59.9843 33.5408 58.7823 34.0559 57.5231 34.0559C56.8935 34.0559 56.2639 33.9414 55.6916 33.7125C55.1192 33.4835 54.6041 33.1401 54.1462 32.6822C53.2876 31.8237 52.7725 30.6217 52.7725 29.3625C52.7725 28.1033 53.2876 26.9013 54.1462 26.0428C55.0619 25.1842 56.2639 24.6691 57.5231 24.6691C58.1527 24.6691 58.7823 24.7835 59.3547 25.0125C59.9271 25.2414 60.4422 25.5849 60.9001 26.0428C61.7587 26.9013 62.2738 28.1033 62.2738 29.3625C62.2738 30.6217 61.7587 31.8237 60.9001 32.6822ZM60.2705 29.3625C60.2705 28.6184 60.0416 27.8743 59.5264 27.302C59.2975 27.0158 59.0113 26.8441 58.6679 26.6724C58.3244 26.5006 57.981 26.4434 57.6376 26.4434C57.2942 26.4434 56.8935 26.5006 56.6073 26.6724C56.2639 26.8441 55.9777 27.073 55.7488 27.3592C55.4626 27.6454 55.2909 27.9316 55.1764 28.3322C55.0619 28.6756 55.0047 29.0763 55.0047 29.4197C55.0047 30.1638 55.2909 30.9079 55.7488 31.4803C55.9777 31.7664 56.2639 31.9381 56.6073 32.1099C56.9508 32.2816 57.2942 32.3388 57.6376 32.3388C57.981 32.3388 58.3817 32.2816 58.6679 32.1099C59.0113 31.9381 59.2975 31.7092 59.5264 31.423C59.9843 30.9079 60.2705 30.1638 60.2705 29.3625ZM72.1185 28.2178L69.6573 33.1974H68.4554L65.9942 28.2178V33.9414H63.9909V24.898H66.7383L69.085 29.8776L71.4317 24.898H74.1791V33.9987H72.1758L72.1185 28.2178ZM82.6501 25.7566C82.9935 26.0428 83.2797 26.4434 83.4514 26.9013C83.6231 27.3592 83.6804 27.8171 83.6231 28.275C83.6231 29.4197 83.2797 30.221 82.6501 30.7362C82.0205 31.3085 80.9902 31.4803 79.6738 31.4803H78.4718V33.9987H76.4113V24.898H79.6166C80.9902 24.898 81.9633 25.1842 82.6501 25.7566ZM81.1619 29.3053C81.4481 28.9618 81.5626 28.5612 81.5626 28.1033C81.5626 27.8743 81.5626 27.7026 81.4481 27.4737C81.3337 27.302 81.2192 27.1303 81.0475 27.0158C80.5896 26.7868 80.0744 26.6724 79.5593 26.6724H78.4146V29.7059H79.7883C80.0172 29.7059 80.3034 29.7059 80.5323 29.6487C80.7613 29.5342 80.9902 29.4197 81.1619 29.3053ZM87.6297 31.5947C87.8014 31.8237 87.9731 31.9381 88.2593 32.0526C88.4883 32.1671 88.7744 32.2243 89.0034 32.2243C89.2896 32.2243 89.5185 32.1671 89.7475 32.0526C89.9764 31.9381 90.2054 31.7664 90.3771 31.5947C90.7205 31.0796 90.8922 30.45 90.8922 29.8776V24.8408H92.8955V29.8776C92.9527 30.45 92.8383 30.9651 92.6665 31.5375C92.4948 32.0526 92.2087 32.5678 91.808 32.9684C91.0639 33.6553 90.0337 33.9987 89.0034 33.9987C87.9731 33.9987 87.0001 33.598 86.256 32.9112C85.8554 32.5105 85.5692 31.9954 85.3975 31.4803C85.2258 30.9651 85.1113 30.3928 85.1685 29.8204V24.7835H87.1718V29.8204C87.0573 30.45 87.2291 31.0796 87.6297 31.5947ZM98.7909 26.6724V33.9414H96.7876V26.6724H94.2119V24.9553H101.424V26.6724H98.7909ZM102.855 24.898H104.858V33.9987H102.855V24.898ZM113.444 24.898H115.447V33.9987H113.444L109.151 28.3322V33.9987H107.147V24.898H109.036L113.501 30.7362L113.444 24.898C113.444 24.898 113.501 24.898 113.444 24.898ZM123.632 29.3625H125.635V32.5678C125.177 33.0829 124.547 33.4835 123.918 33.7125C123.288 33.9987 122.544 34.1131 121.857 34.0559C120.598 34.0559 119.396 33.598 118.48 32.7395C118.022 32.3388 117.679 31.8237 117.45 31.2513C117.221 30.6789 117.107 30.0493 117.107 29.4197C117.107 28.7901 117.221 28.1605 117.45 27.5881C117.679 27.0158 118.022 26.5006 118.48 26.0428C118.938 25.5849 119.453 25.2414 120.026 25.0125C120.598 24.7835 121.228 24.6691 121.857 24.6691C123.117 24.6691 124.319 25.127 125.234 25.9855L124.204 27.5309C123.918 27.1875 123.517 26.9585 123.059 26.8441C122.716 26.7296 122.315 26.6151 121.972 26.6151C121.228 26.6151 120.541 26.9013 120.026 27.3592C119.74 27.6454 119.511 27.9316 119.396 28.3322C119.282 28.7329 119.167 29.0763 119.224 29.477C119.224 30.221 119.453 30.9651 119.969 31.5375C120.197 31.7664 120.484 31.9954 120.77 32.1099C121.056 32.2243 121.399 32.2816 121.743 32.2816C122.372 32.3388 122.945 32.1671 123.46 31.8809V29.3053H123.632V29.3625ZM137.082 24.898V26.6724H132.904V28.6184H136.853V30.45H132.904V33.9987H130.901V24.898H137.082ZM146.469 32.6822C145.553 33.5408 144.351 34.0559 143.092 34.0559C142.463 34.0559 141.833 33.9414 141.261 33.7125C140.688 33.4835 140.173 33.1401 139.715 32.6822C138.857 31.8237 138.342 30.6217 138.342 29.3625C138.342 28.1033 138.857 26.9013 139.715 26.0428C140.631 25.1842 141.833 24.6691 143.092 24.6691C143.722 24.6691 144.351 24.7835 144.924 25.0125C145.496 25.2414 146.011 25.5849 146.469 26.0428C147.328 26.9013 147.843 28.1033 147.843 29.3625C147.843 30.6217 147.328 31.8237 146.469 32.6822ZM145.725 29.3625C145.725 28.6184 145.496 27.8743 144.981 27.302C144.752 27.0158 144.466 26.8441 144.122 26.6724C143.779 26.5006 143.436 26.4434 143.092 26.4434C142.749 26.4434 142.348 26.5006 142.062 26.6724C141.719 26.8441 141.432 27.073 141.203 27.3592C140.917 27.6454 140.745 27.9316 140.631 28.3322C140.517 28.7329 140.459 29.0763 140.459 29.4197C140.459 30.1638 140.745 30.9079 141.203 31.4803C141.432 31.7664 141.719 31.9381 142.062 32.1099C142.405 32.2816 142.749 32.3388 143.092 32.3388C143.436 32.3388 143.836 32.2816 144.122 32.1099C144.466 31.9381 144.752 31.7092 144.981 31.423C145.267 31.1368 145.439 30.8506 145.553 30.45C145.668 30.0493 145.782 29.7631 145.725 29.3625ZM151.964 31.5947C152.136 31.8237 152.307 31.9381 152.594 32.0526C152.822 32.1671 153.109 32.2243 153.338 32.2243C153.567 32.2243 153.853 32.1671 154.082 32.0526C154.311 31.9381 154.54 31.7664 154.711 31.5947C155.055 31.0796 155.226 30.45 155.226 29.8776V24.8408H157.23V29.8776C157.287 30.45 157.172 30.9651 157.001 31.5375C156.829 32.0526 156.543 32.5678 156.142 32.9684C155.398 33.6553 154.368 33.9987 153.338 33.9987C152.307 33.9987 151.334 33.598 150.59 32.9112C150.19 32.5105 149.903 31.9954 149.732 31.4803C149.56 30.9651 149.446 30.3928 149.503 29.8204V24.7835H151.506V29.8204C151.392 30.45 151.563 31.1368 151.964 31.5947ZM165.644 24.898H167.647V33.9987H165.644L161.351 28.3322V33.9987H159.347V24.898H161.236L165.701 30.7362L165.644 24.898C165.701 24.898 165.644 24.898 165.644 24.898ZM176.805 26.1C177.263 26.5006 177.606 27.073 177.835 27.6454C178.064 28.2178 178.178 28.8474 178.121 29.4197C178.178 30.0493 178.064 30.6217 177.835 31.1941C177.606 31.7664 177.263 32.2816 176.862 32.7395C176.061 33.5408 174.744 33.9987 172.97 33.9987H169.879V24.898H173.084C174.744 24.898 176.003 25.2987 176.805 26.1ZM175.317 31.5375C175.545 31.2513 175.774 30.9651 175.889 30.6217C176.003 30.2783 176.061 29.8776 176.061 29.5342C176.061 29.1335 176.003 28.7901 175.889 28.4467C175.774 28.1033 175.545 27.7599 175.317 27.4737C174.973 27.1875 174.63 27.0158 174.229 26.9013C173.828 26.7868 173.428 26.7296 173.027 26.7868H171.882V32.2816H173.199C173.943 32.2243 174.744 31.9954 175.317 31.5375ZM186.077 33.9414L185.276 31.9954H181.441L180.64 33.9414H178.465L182.414 24.8408H184.36L188.309 33.9414H186.077ZM183.33 27.5881L182.185 30.221H184.474L183.33 27.5881ZM192.488 26.6724V33.9414H190.484V26.6724H187.851V24.9553H195.063V26.6724H192.488ZM196.494 24.898H198.497V33.9987H196.494V24.898ZM208.399 32.6822C207.484 33.5408 206.282 34.0559 205.022 34.0559C204.393 34.0559 203.763 33.9414 203.191 33.7125C202.619 33.4835 202.103 33.1401 201.645 32.6822C200.787 31.8237 200.272 30.6217 200.272 29.3625C200.272 28.1033 200.787 26.9013 201.645 26.0428C202.561 25.1842 203.763 24.6691 205.022 24.6691C205.652 24.6691 206.282 24.7835 206.854 25.0125C207.426 25.2414 207.942 25.5849 208.399 26.0428C209.258 26.9013 209.773 28.1033 209.773 29.3625C209.773 30.6217 209.258 31.8237 208.399 32.6822ZM207.77 29.3625C207.77 28.6184 207.484 27.8743 207.026 27.302C206.797 27.0158 206.511 26.8441 206.167 26.6724C205.824 26.5006 205.48 26.4434 205.137 26.4434C204.794 26.4434 204.393 26.5006 204.107 26.6724C203.763 26.8441 203.477 27.073 203.248 27.3592C202.962 27.6454 202.79 27.9316 202.676 28.3322C202.561 28.7329 202.504 29.0763 202.504 29.4197C202.504 30.1638 202.79 30.9079 203.248 31.4803C203.477 31.7664 203.763 31.9381 204.107 32.1099C204.45 32.2816 204.794 32.3388 205.137 32.3388C205.48 32.3388 205.881 32.2816 206.167 32.1099C206.511 31.9381 206.797 31.7092 207.026 31.423C207.484 30.9079 207.77 30.1638 207.77 29.3625ZM217.844 24.898H219.847V33.9987H217.844L213.551 28.3322V33.9987H211.49V24.898H213.379L217.844 30.7362C217.901 30.7362 217.844 24.898 217.844 24.898Z" fill="black"/>
<path d="M4.97961 23.1809H0V34.8H11.6191V29.8204H4.97961V23.1809ZM29.9349 23.2382V29.8204H23.2954V34.8H34.9145V23.1809L29.9349 23.2382ZM0 11.6191H5.03684L4.97961 11.5618V4.97961H11.6191V0H0V11.6191ZM23.2954 0V4.97961H29.9349V11.6191H34.9145V0H23.2954Z" fill="#0086FF"/>
<path d="M22.6086 11.6191L15.9691 4.97961H23.2382V0H11.6191V4.97961L18.2586 11.6191H22.6086ZM16.6559 23.1809H12.3059L17.8007 28.6757L18.8882 29.8204H11.6191V34.8H23.2954V29.7632L19.9757 26.5007L16.6559 23.1809ZM29.9349 11.6191V18.8309L28.7901 17.6862L23.2954 12.1914V16.5987L26.5579 19.8612L29.8776 23.1809H34.9145V11.6191H29.9349ZM11.6191 18.2013L5.03684 11.6191H0V23.1809H4.97961V15.9691L11.6191 22.6086V18.2013Z" fill="#93EAFF"/>
</g>
<defs>
<clipPath id="clip0_259_1928">
<rect width="219.847" height="34.8" fill="white"/>
</clipPath>
</defs>
</svg>
