<svg viewBox="0 0 38 15" fill="none" xmlns="http://www.w3.org/2000/svg">
<path d="M36.8198 9.17767H33.2798C32.9998 9.17767 32.7798 8.95767 32.7798 8.67767C32.7798 8.39767 32.9998 8.17767 33.2798 8.17767H36.8198C37.0998 8.17767 37.3198 8.39767 37.3198 8.67767C37.3198 8.95767 37.0998 9.17767 36.8198 9.17767Z" fill="#795CEC"/>
<path d="M36.8198 11.6477H33.2798C32.9998 11.6477 32.7798 11.4277 32.7798 11.1477C32.7798 10.8677 32.9998 10.6477 33.2798 10.6477H36.8198C37.0998 10.6477 37.3198 10.8677 37.3198 11.1477C37.3198 11.4277 37.0998 11.6477 36.8198 11.6477Z" fill="#795CEC"/>
<path d="M36.8198 6.7077H33.2798C32.9998 6.7077 32.7798 6.4877 32.7798 6.2077C32.7798 5.9277 32.9998 5.7077 33.2798 5.7077H36.8198C37.0998 5.7077 37.3198 5.9277 37.3198 6.2077C37.3198 6.4877 37.0998 6.7077 36.8198 6.7077Z" fill="#795CEC"/>
<path d="M36.8198 4.23767H33.2798C32.9998 4.23767 32.7798 4.01767 32.7798 3.73767C32.7798 3.45767 32.9998 3.23767 33.2798 3.23767H36.8198C37.0998 3.23767 37.3198 3.45767 37.3198 3.73767C37.3198 4.01767 37.0998 4.23767 36.8198 4.23767Z" fill="#795CEC"/>
<path d="M13.66 14.8577C13.58 14.8577 13.5 14.8377 13.42 14.7977L0.26 7.76771C0.1 7.68771 0 7.51771 0 7.32771C0 7.13771 0.1 6.96771 0.27 6.88771L13.43 0.0577088C13.58 -0.0222912 13.77 -0.0222912 13.92 0.0777088C14.07 0.167709 14.16 0.327709 14.16 0.507709V3.18771H30.49C30.77 3.18771 30.99 3.40771 30.99 3.68771V11.1677C30.99 11.4477 30.77 11.6677 30.49 11.6677H14.16V14.3577C14.16 14.5377 14.07 14.6977 13.92 14.7877C13.84 14.8377 13.75 14.8577 13.66 14.8577ZM1.57 7.33771L13.16 13.5277V11.1677C13.16 10.8877 13.38 10.6677 13.66 10.6677H29.99V4.18771H13.66C13.38 4.18771 13.16 3.96771 13.16 3.68771V1.31771L1.57 7.33771Z" fill="#1B0B5B"/>
</svg>
