<svg viewBox="0 0 42 21" fill="none" xmlns="http://www.w3.org/2000/svg">
<path d="M10.2936 20.7681C7.24364 20.7681 4.17364 19.3281 2.21364 16.8081C0.623637 14.7581 -0.0563626 12.4681 0.0036374 9.35805C0.0436374 5.47805 3.40364 1.52805 7.66364 0.368053C10.6336 -0.441947 13.4336 0.0880526 15.9936 1.92805C16.7136 2.44805 18.1236 3.76805 18.9736 4.55805L19.2836 4.84805C19.4836 5.03805 19.4936 5.34805 19.3036 5.55805C19.1136 5.75805 18.8036 5.76805 18.5936 5.57805L18.2836 5.28805C17.5136 4.56805 16.0736 3.21805 15.4036 2.73805C13.1036 1.07805 10.5736 0.608053 7.91364 1.32805C3.62364 2.49805 1.03364 6.33805 1.00364 9.36805C0.943637 12.2781 1.53364 14.3181 2.99364 16.1881C5.34364 19.1981 9.40364 20.4981 12.8836 19.3581C14.8036 18.7281 16.5036 17.5381 18.0836 15.7281C19.2936 14.3381 20.4436 12.8681 21.5736 11.4481C22.0236 10.8781 22.4736 10.2981 22.9336 9.73805C24.1436 8.22805 25.2536 6.88805 26.6536 5.72805C27.4936 5.03805 28.6436 4.21805 30.1036 4.07805C32.6936 3.83805 35.1636 5.24805 36.3836 7.70805C37.4636 9.88805 37.0636 12.7181 35.4036 14.5981C33.5736 16.6681 30.2336 17.7081 27.4136 15.6581C26.8436 15.2481 25.6736 14.1481 24.8936 13.4281L24.4936 13.0581C24.2936 12.8681 24.2736 12.5581 24.4636 12.3481C24.6536 12.1481 24.9636 12.1381 25.1736 12.3181L25.5736 12.6981C26.2836 13.3681 27.4836 14.4781 28.0036 14.8481C30.3436 16.5481 33.1236 15.6681 34.6536 13.9381C36.0336 12.3781 36.3736 9.94805 35.4836 8.15805C34.4336 6.04805 32.4036 4.85805 30.1936 5.07805C29.0136 5.18805 28.0636 5.86805 27.2836 6.50805C25.9536 7.59805 24.8836 8.90805 23.7136 10.3681C23.2636 10.9381 22.8136 11.5081 22.3636 12.0781C21.2336 13.5081 20.0636 14.9981 18.8436 16.3981C17.1436 18.3481 15.3036 19.6381 13.2036 20.3281C12.2636 20.6381 11.2836 20.7881 10.3036 20.7881L10.2936 20.7681Z" fill="#1B0B5B"/>
<path d="M30.6835 20.818C28.4935 20.818 26.3635 20.018 24.3335 18.418C23.7235 17.938 22.1335 16.408 21.6235 15.908C21.4235 15.718 21.4235 15.398 21.6235 15.198C21.8235 14.998 22.1335 14.998 22.3335 15.198C22.9635 15.808 24.4335 17.218 24.9635 17.638C27.9535 19.988 31.0135 20.438 34.3335 19.028C37.8835 17.518 40.0635 14.148 40.0235 10.238C39.9935 7.50802 38.9535 5.22802 36.9435 3.46802C34.2135 1.06802 31.1635 0.418016 27.8935 1.52802C26.1735 2.10802 24.6435 3.19802 23.0635 4.96802C21.7235 6.47802 20.4435 8.09802 19.2035 9.66802L18.4935 10.568C17.2435 12.148 15.9535 13.788 14.3435 15.128C12.1835 16.908 9.94347 17.258 7.68347 16.168C5.70347 15.208 4.39347 13.458 4.09347 11.348C3.78347 9.23802 4.53347 7.16802 6.16347 5.67802C7.85347 4.11802 10.7935 3.34802 13.1135 4.88802C13.7435 5.30802 14.8435 6.29802 15.7235 7.08802C16.0235 7.35802 16.2935 7.59802 16.4835 7.76802C16.6935 7.94802 16.7135 8.26802 16.5335 8.47802C16.3535 8.68802 16.0335 8.70802 15.8235 8.52802C15.6235 8.35802 15.3535 8.10802 15.0435 7.83802C14.2335 7.10802 13.1235 6.10802 12.5435 5.72802C10.6535 4.47802 8.23347 5.12802 6.82347 6.42802C5.44347 7.69802 4.80347 9.43802 5.06347 11.218C5.32347 12.988 6.43347 14.468 8.10347 15.278C10.0035 16.198 11.8335 15.908 13.6935 14.368C15.2235 13.098 16.4835 11.508 17.6935 9.96802L18.4035 9.06802C19.6435 7.48802 20.9335 5.85802 22.3035 4.31802C23.9735 2.43802 25.6935 1.22802 27.5535 0.598017C31.1935 -0.631984 34.5635 0.0880165 37.5835 2.73802C39.7935 4.66802 40.9735 7.26802 41.0035 10.248C41.0535 14.568 38.6435 18.288 34.7035 19.968C33.3435 20.548 31.9935 20.838 30.6735 20.838L30.6835 20.818Z" fill="#1B0B5B"/>
</svg>
