<svg viewBox="0 0 150 30" fill="none" xmlns="http://www.w3.org/2000/svg">
<path d="M29.0942 0.0112407C29.4717 0.0112407 29.8339 0.0112407 30.1953 0.0112407C31.2931 0.0112407 32.3908 0.0230625 33.4877 0.00448542C33.7909 -0.000581047 33.9243 0.0990595 34.0315 0.381937C35.4636 4.16659 36.9101 7.94618 38.3532 11.7266C38.4377 11.9478 38.528 12.1657 38.6521 12.4781C38.8599 11.9563 39.0372 11.5223 39.2052 11.0849C40.5673 7.54339 41.9318 4.00193 43.2812 0.455401C43.4104 0.115948 43.5742 -0.00649193 43.9483 0.000263365C45.3542 0.0264401 46.761 0.0103963 48.205 0.0103963V17.8114H45.2411V3.1761C45.209 3.17018 45.1769 3.16427 45.144 3.15836C44.9683 3.62363 44.7876 4.08722 44.6171 4.55502C43.0524 8.83028 41.4834 13.1038 39.9356 17.385C39.8005 17.7599 39.6207 17.8866 39.239 17.857C38.8193 17.8249 38.3946 17.83 37.9732 17.8545C37.6574 17.8731 37.5054 17.7641 37.3948 17.4593C36.4938 14.9615 35.5726 12.4705 34.6606 9.97699C33.855 7.77307 33.052 5.56831 32.2473 3.3644C32.2194 3.28756 32.178 3.21578 32.0936 3.0393C32.0725 3.2276 32.0564 3.31036 32.0564 3.39226C32.0556 8.03568 32.0488 12.6791 32.0666 17.3234C32.0683 17.7616 31.9391 17.8731 31.5219 17.857C30.724 17.8266 29.9243 17.8477 29.0942 17.8477V0.0112407Z" fill="#01447B"/>
<path d="M86.2346 17.8511C86.2346 17.6383 86.2346 17.4872 86.2346 17.3352C86.2346 15.3795 86.243 13.4239 86.227 11.4682C86.2228 10.9928 86.1746 10.5115 86.0817 10.0454C85.733 8.30421 84.0847 7.59406 82.5521 8.51447C81.5979 9.08783 81.2525 10.0006 81.2433 11.0519C81.2238 13.1342 81.2373 15.2166 81.2365 17.298C81.2365 17.4509 81.2365 17.6046 81.2365 17.803H78.2346V0.0458679H81.2272V7.29345C81.3007 7.26896 81.3513 7.26896 81.3657 7.24532C82.2962 5.80391 83.6819 5.36144 85.3023 5.47543C87.5671 5.63503 89.0946 7.11106 89.1706 9.38168C89.2609 12.0931 89.2204 14.8096 89.2204 17.5243C89.2204 17.6333 89.0549 17.8342 88.962 17.8368C88.0771 17.8604 87.1913 17.8511 86.2346 17.8511Z" fill="#01447B"/>
<path d="M129.703 10.3941C129.846 9.03293 129.234 8.13786 128.038 7.84822C126.594 7.49864 125.282 7.82289 124.091 8.68926C123.98 8.77032 123.872 8.85645 123.763 8.94005C123.246 8.42073 122.743 7.91409 122.169 7.33651C122.576 7.03421 122.959 6.68294 123.401 6.43721C125.311 5.37072 127.353 5.17988 129.44 5.73804C131.257 6.22358 132.322 7.56703 132.403 9.49398C132.491 11.5999 132.464 13.711 132.485 15.8203C132.491 16.4781 132.486 17.1359 132.486 17.8216H129.752V16.1581C129.603 16.3346 129.53 16.4106 129.468 16.4942C127.768 18.8104 123.906 18.4515 122.39 16.9375C120.77 15.3213 121.118 12.5736 123.118 11.3905C124.275 10.7057 125.562 10.4777 126.875 10.4051C127.811 10.3527 128.752 10.395 129.705 10.395L129.703 10.3941ZM129.561 12.4275C129.048 12.4275 128.559 12.4038 128.073 12.4325C127.104 12.49 126.13 12.5533 125.248 13.0228C124.746 13.2905 124.416 13.6882 124.413 14.2919C124.41 14.9117 124.729 15.3559 125.262 15.5932C126.412 16.1057 127.561 16.0162 128.592 15.3086C129.588 14.6246 129.634 13.5564 129.561 12.4275H129.561Z" fill="#01447B"/>
<path d="M51.1983 7.33736C51.8738 6.66183 52.6769 6.19402 53.5821 5.8875C55.0699 5.38423 56.589 5.30401 58.1107 5.65107C60.1018 6.10536 61.235 7.43109 61.3887 9.46781C61.4596 10.4051 61.4503 11.35 61.4562 12.2915C61.4664 14.0074 61.4562 15.7241 61.4672 17.4399C61.4689 17.743 61.3887 17.8646 61.0636 17.8553C60.307 17.8342 59.5495 17.8486 58.7414 17.8486V16.4418C58.489 16.6343 58.1605 16.8665 57.854 17.1241C56.1153 18.5849 52.953 18.4675 51.3157 16.8936C49.9097 15.5417 49.9646 12.5845 52.1145 11.3728C53.2865 10.7125 54.5658 10.4769 55.878 10.4026C56.801 10.3494 57.7298 10.3924 58.6241 10.3924C58.9213 9.48892 58.4636 8.47393 57.588 8.07115C56.2124 7.43784 54.8732 7.65992 53.5846 8.35487C53.2899 8.51362 53.0265 8.73148 52.7605 8.91387C52.2521 8.40216 51.7404 7.88622 51.1975 7.33905L51.1983 7.33736ZM57.5508 12.4156C57.5508 12.4097 57.55 12.4038 57.5491 12.3971C57.0585 12.4334 56.5662 12.4503 56.079 12.5111C55.3385 12.604 54.5988 12.7239 53.9764 13.1858C53.1751 13.7811 53.1835 14.8585 53.995 15.4395C54.5616 15.8448 55.2101 15.9276 55.8839 15.8803C57.4976 15.7671 58.4611 14.8661 58.5557 13.3884C58.5979 12.7348 58.2911 12.4103 57.6353 12.4148C57.6074 12.4148 57.5787 12.4148 57.5508 12.4148V12.4156Z" fill="#01447B"/>
<path d="M102.44 17.8309H99.7587V16.2358C99.6768 16.2763 99.6295 16.2839 99.6117 16.3109C98.3409 18.221 95.7815 18.4608 93.9964 17.8655C92.7644 17.4543 91.8372 16.7112 91.4978 15.4049C91.0325 13.6139 91.8322 11.9766 93.5497 11.1575C94.6221 10.6466 95.7756 10.4549 96.9459 10.3975C97.8562 10.3528 98.7707 10.3882 99.6438 10.3882C99.9622 9.62825 99.4851 8.46043 98.6466 8.08804C97.0363 7.37282 95.5484 7.69877 94.1442 8.65042C94.0175 8.73655 93.9018 8.83957 93.7844 8.93076C93.2736 8.40132 92.7695 7.87947 92.2037 7.29345C92.6124 7.00297 93.0346 6.62974 93.5185 6.3722C95.4175 5.36059 97.4289 5.19762 99.4893 5.74902C101.106 6.1822 102.015 7.30612 102.328 8.92316C102.408 9.33524 102.454 9.76082 102.456 10.1805C102.468 12.6284 102.462 15.0772 102.461 17.5252C102.461 17.6079 102.45 17.6907 102.44 17.83V17.8309ZM98.601 12.3979C98.096 12.4351 97.5792 12.4148 97.0903 12.5229C96.4123 12.6715 95.7013 12.8167 95.1 13.1418C94.1568 13.6527 94.1763 14.8763 95.0595 15.4758C96.7602 16.631 99.2605 15.556 99.5611 13.5396C99.7224 12.4562 99.6725 12.3971 98.601 12.3979V12.3979Z" fill="#01447B"/>
<path d="M143.153 17.8444V17.3386C143.153 15.3838 143.164 13.4289 143.146 11.4741C143.141 10.9582 143.084 10.433 142.976 9.92886C142.787 9.0456 142.329 8.3439 141.359 8.2071C140.273 8.05342 139.309 8.30927 138.667 9.28795C138.303 9.84273 138.158 10.4684 138.158 11.1296C138.159 13.1832 138.158 15.236 138.158 17.2896C138.158 17.4559 138.158 17.6223 138.158 17.8461C137.437 17.8461 136.754 17.8444 136.071 17.8461C135.442 17.8477 135.128 17.5302 135.128 16.8936C135.128 13.3209 135.128 9.749 135.128 6.17629C135.128 6.05301 135.139 5.92888 135.147 5.77942H137.971V7.61348C138.05 7.57295 138.094 7.56535 138.107 7.54086C139.015 5.86555 140.489 5.33019 142.289 5.4805C144.471 5.66204 145.937 7.08403 146.089 9.27444C146.191 10.7302 146.152 12.1961 146.164 13.6578C146.174 14.9235 146.171 16.1893 146.157 17.4551C146.155 17.5851 146.039 17.8258 145.97 17.8275C145.047 17.8528 144.123 17.8444 143.152 17.8444H143.153Z" fill="#01447B"/>
<path d="M64.3096 5.77098H67.1333V7.58984C67.1991 7.57464 67.2371 7.57718 67.2447 7.56282C68.0934 5.97111 69.4731 5.38931 71.2067 5.46362C73.4875 5.56157 74.9854 6.93965 75.243 9.21449C75.3046 9.75745 75.3156 10.3088 75.3173 10.856C75.3257 13.0515 75.3148 15.247 75.3283 17.4424C75.33 17.7566 75.2438 17.8613 74.9263 17.8545C74.0718 17.8359 73.2156 17.8486 72.3247 17.8486C72.3163 17.6721 72.3044 17.5362 72.3044 17.4002C72.3036 15.4437 72.3137 13.4881 72.2968 11.5316C72.2926 11.0283 72.247 10.5166 72.144 10.0251C71.7699 8.23582 69.9595 7.551 68.4581 8.61834C67.612 9.21956 67.3233 10.1037 67.3131 11.0832C67.292 13.152 67.3064 15.2208 67.3064 17.2896C67.3064 17.4559 67.3064 17.6215 67.3064 17.819H64.3079V5.77098H64.3096Z" fill="#01447B"/>
<path d="M119.907 15.2664C119.907 16.0475 119.916 16.8024 119.896 17.5564C119.894 17.6552 119.761 17.8089 119.661 17.8368C118.149 18.2564 116.625 18.3544 115.157 17.7169C114.087 17.2524 113.672 16.2653 113.626 15.1802C113.545 13.2854 113.558 11.3855 113.533 9.48807C113.528 9.11062 113.533 8.73401 113.533 8.30759H112.237C113.685 6.27846 115.075 4.32956 116.465 2.38066C116.492 2.38742 116.518 2.39333 116.545 2.40008V5.74311H119.883V8.28394H116.598C116.576 8.41989 116.553 8.49842 116.553 8.57695C116.551 10.2506 116.548 11.9242 116.553 13.5978C116.557 15.2005 117.226 15.822 119.064 15.5053C119.335 15.4589 119.597 15.355 119.909 15.2647L119.907 15.2664Z" fill="#01447B"/>
<path d="M108.633 8.29746C108.633 10.27 108.597 12.1539 108.646 14.0361C108.675 15.1304 109.319 15.6523 110.427 15.5814C110.923 15.5493 111.413 15.4226 111.959 15.3297C111.959 16.0627 111.966 16.8421 111.947 17.6206C111.945 17.7008 111.796 17.8216 111.695 17.8494C110.254 18.2446 108.801 18.3291 107.384 17.7954C106.194 17.3479 105.741 16.316 105.689 15.1499C105.604 13.2271 105.619 11.3002 105.593 9.37493C105.589 9.03885 105.593 8.70193 105.593 8.31012H104.313C105.761 6.27509 107.148 4.32619 108.535 2.37729C108.564 2.38489 108.592 2.39249 108.621 2.40009C108.621 3.3053 108.617 4.20966 108.623 5.11487C108.627 5.85289 108.562 5.74733 109.247 5.75156C110.27 5.75747 111.294 5.75325 112.404 5.75325C111.793 6.60695 111.23 7.40576 110.646 8.18853C110.583 8.27297 110.396 8.2907 110.265 8.29324C109.735 8.30421 109.204 8.2983 108.632 8.2983L108.633 8.29746Z" fill="#01447B"/>
<path d="M13.0124 0.528871C13.0124 2.00321 13.0166 3.47671 13.0048 4.95105C13.0039 5.08954 12.9212 5.24575 12.8342 5.36228C10.0189 9.17396 7.17074 12.9628 4.40023 16.8066C3.81336 17.6214 3.21721 17.9879 2.22671 17.8629C1.5343 17.776 0.822457 17.8418 0.119062 17.8376C0.0962629 17.8376 0.0734638 17.8131 0 17.7726C4.31241 12.0086 8.61891 6.2506 12.9246 0.492561C12.9541 0.504383 12.9828 0.517049 13.0124 0.528871Z" fill="#01447B"/>
<path d="M22.6436 0.510289C22.6436 1.97281 22.6478 3.43533 22.6369 4.89701C22.636 5.03802 22.571 5.20015 22.4857 5.31499C19.4517 9.42221 16.4127 13.526 13.3686 17.6257C13.2951 17.7245 13.1524 17.8334 13.041 17.8351C11.9306 17.8503 10.8202 17.8444 9.57129 17.8444C13.9437 11.996 18.2518 6.23287 22.56 0.469757L22.6436 0.510289V0.510289Z" fill="#01447B"/>
<path d="M22.6419 6.95654C22.6419 8.44439 22.6461 9.93224 22.6352 11.4201C22.6343 11.5451 22.5558 11.6852 22.4781 11.7916C21.0612 13.7177 19.6426 15.643 18.2113 17.5581C18.11 17.6941 17.909 17.8326 17.7511 17.8368C16.6964 17.8621 15.6409 17.852 14.5854 17.8511C14.5347 17.8511 14.4841 17.8334 14.3853 17.8157C17.1279 14.1661 19.8444 10.5495 22.5617 6.93289C22.5887 6.94134 22.6157 6.94978 22.6428 6.95822L22.6419 6.95654Z" fill="#01447B"/>
<path d="M13.0132 6.84253C13.0132 8.07199 12.9617 9.17986 13.0293 10.2801C13.085 11.1879 12.8385 11.9073 12.2727 12.6259C11.0027 14.2387 9.818 15.9183 8.58769 17.5632C8.49143 17.6915 8.31072 17.8334 8.16633 17.8368C7.05593 17.8596 5.94553 17.8494 4.73633 17.8494C7.50009 14.1737 10.2191 10.5588 13.0124 6.84337L13.0132 6.84253Z" fill="#01447B"/>
<path d="M98.7498 29.3596C98.694 29.3723 98.6535 29.3866 98.6138 29.3883C97.6377 29.4331 97.6436 29.4305 97.2636 28.5253C97.0913 28.1141 96.9892 27.5686 96.6725 27.3516C96.3719 27.1464 95.8323 27.284 95.3983 27.2824C94.5682 27.2781 93.7382 27.2916 92.909 27.2764C92.6202 27.2714 92.4471 27.3356 92.3441 27.6362C92.1853 28.1006 91.9548 28.5405 91.7893 29.0024C91.6837 29.2971 91.5351 29.439 91.2092 29.3959C90.9922 29.3672 90.7692 29.3909 90.4788 29.3909C90.8022 28.652 91.0977 27.9731 91.3966 27.2959C92.2926 25.2651 93.1961 23.2376 94.0793 21.2018C94.1975 20.9282 94.3529 20.8446 94.6231 20.8775C94.8807 20.9096 95.1568 20.7821 95.3156 21.1638C96.4369 23.8464 97.5819 26.5199 98.7185 29.1958C98.7388 29.2439 98.7396 29.3013 98.7498 29.3596ZM96.3694 26.3476C95.8011 24.9391 95.2573 23.5914 94.673 22.145C94.0565 23.6075 93.4874 24.9569 92.9005 26.3476H96.3694Z" fill="#01447B"/>
<path d="M140.879 26.8534H136.421C136.34 27.4504 136.729 28.1217 137.322 28.4544C138.11 28.896 138.991 28.6968 140.001 27.8405C140.217 28.0094 140.436 28.18 140.68 28.37C139.97 29.3216 139.005 29.6129 137.898 29.5268C136.726 29.4356 135.81 28.6892 135.485 27.6066C135.1 26.3256 135.448 24.9788 136.35 24.2577C137.275 23.5171 138.625 23.3879 139.63 23.9849C140.698 24.6191 140.907 25.6543 140.879 26.8534ZM139.842 26.0732C139.879 25.1232 139.185 24.4831 138.169 24.473C137.045 24.4612 136.312 25.3959 136.415 26.0732H139.842Z" fill="#01447B"/>
<path d="M115.711 26.5832C115.717 28.3235 114.485 29.5462 112.727 29.5437C110.973 29.542 109.725 28.3176 109.716 26.5916C109.708 24.8479 110.97 23.6007 112.739 23.6058C114.487 23.6109 115.706 24.831 115.711 26.5832ZM114.733 26.5587C114.726 25.3571 113.866 24.4696 112.715 24.4755C111.562 24.4814 110.716 25.3681 110.713 26.573C110.709 27.7932 111.581 28.6934 112.752 28.6748C113.91 28.6571 114.74 27.7704 114.733 26.5579V26.5587Z" fill="#01447B"/>
<path d="M130.168 29.3655H129.358C129.333 29.1274 129.309 28.9112 129.295 28.7905C128.801 29.0269 128.321 29.363 127.792 29.4787C127.354 29.5749 126.836 29.4854 126.396 29.3453C125.785 29.151 125.387 28.7027 125.34 28.0128C125.289 27.2655 125.563 26.6904 126.236 26.3408C126.928 25.9811 127.685 25.9203 128.448 25.9144C128.698 25.9127 128.947 25.9144 129.186 25.9144C129.327 25.13 128.907 24.5845 128.138 24.4966C127.406 24.4131 126.749 24.6132 126.158 25.0877C125.964 24.8851 125.784 24.6959 125.584 24.4865C126.282 23.8211 127.097 23.6041 127.997 23.6185C128.137 23.621 128.276 23.6446 128.415 23.6615C129.403 23.7806 130.027 24.3919 130.13 25.385C130.176 25.8308 130.164 26.2826 130.168 26.7326C130.173 27.6007 130.169 28.4688 130.169 29.3672L130.168 29.3655ZM129.195 26.6068C128.459 26.6955 127.733 26.7284 127.036 26.8838C126.509 27.0012 126.271 27.4656 126.344 27.9402C126.413 28.3877 126.766 28.6807 127.298 28.7339C128.554 28.8597 129.361 28.0271 129.195 26.6068V26.6068Z" fill="#01447B"/>
<path d="M145.971 24.6453C145.721 24.8099 145.48 24.9695 145.224 25.1384C144.804 24.5862 144.277 24.3632 143.618 24.5296C143.257 24.6216 142.943 24.8116 142.912 25.2152C142.883 25.6104 143.206 25.7709 143.52 25.8688C143.961 26.0065 144.419 26.0917 144.861 26.2226C145.78 26.4954 146.171 26.9767 146.167 27.7949C146.163 28.5946 145.696 29.1646 144.836 29.4221C143.596 29.7936 142.374 29.4288 141.743 28.4856C141.971 28.3066 142.201 28.1259 142.445 27.9351C142.597 28.0702 142.726 28.1977 142.868 28.3083C143.419 28.739 144.025 28.7846 144.654 28.5211C144.958 28.3936 145.159 28.1605 145.159 27.8084C145.159 27.4521 144.947 27.23 144.636 27.1177C144.334 27.0088 144.016 26.9429 143.706 26.8525C143.411 26.7656 143.106 26.6963 142.824 26.5756C141.931 26.1931 141.676 25.13 142.279 24.3632C143.085 23.339 145.099 23.377 145.854 24.4325C145.893 24.4874 145.919 24.5524 145.969 24.6461L145.971 24.6453Z" fill="#01447B"/>
<path d="M99.0715 28.5549C99.4 28.2999 99.6204 28.1293 99.8771 27.93C99.9928 28.0406 100.097 28.1479 100.209 28.2458C100.767 28.7314 101.397 28.7896 102.062 28.5253C102.367 28.4046 102.571 28.1791 102.574 27.8202C102.578 27.458 102.379 27.2275 102.064 27.1228C101.625 26.9767 101.172 26.877 100.725 26.7546C99.7471 26.4852 99.3426 26.0048 99.3949 25.1815C99.4287 24.6486 99.688 24.2577 100.138 23.979C101.181 23.3339 102.688 23.5644 103.295 24.4679C103.326 24.5135 103.346 24.565 103.387 24.6461C103.152 24.8049 102.922 24.9594 102.59 25.1832C102.532 25.0852 102.487 24.9594 102.402 24.8749C101.919 24.4029 101.126 24.3413 100.619 24.7246C100.204 25.0388 100.212 25.5133 100.674 25.743C100.996 25.9034 101.361 25.9811 101.709 26.0858C101.898 26.1424 102.095 26.166 102.283 26.2226C103.185 26.4954 103.557 26.9294 103.575 27.7155C103.594 28.5616 103.206 29.1038 102.322 29.39C101.577 29.6307 100.814 29.6324 100.1 29.2997C99.7454 29.1342 99.4524 28.8369 99.0715 28.5549V28.5549Z" fill="#01447B"/>
<path d="M108.647 24.5718C108.269 24.8217 108.037 24.9737 107.731 25.1755C107.639 25.048 107.573 24.9188 107.472 24.8251C107.053 24.4333 106.342 24.3396 105.87 24.6647C105.687 24.7913 105.501 25.0531 105.496 25.2583C105.492 25.4331 105.709 25.6856 105.892 25.7759C106.212 25.9355 106.582 25.9963 106.931 26.1019C107.239 26.1948 107.564 26.2572 107.851 26.3932C108.802 26.8433 109.007 28.0947 108.31 28.8901C107.552 29.7531 105.035 29.8848 104.307 28.4713C104.532 28.299 104.763 28.1234 105.026 27.9233C105.507 28.5236 106.109 28.7922 106.858 28.6309C107.008 28.5988 107.197 28.5718 107.284 28.4704C107.455 28.272 107.669 28.0246 107.673 27.7932C107.678 27.5863 107.47 27.2976 107.275 27.1819C106.981 27.0088 106.617 26.9547 106.283 26.8534C106.014 26.7723 105.74 26.7098 105.475 26.6161C104.906 26.4143 104.557 26.025 104.53 25.4019C104.503 24.7913 104.727 24.2957 105.268 23.9841C106.019 23.5509 106.821 23.4732 107.613 23.8228C107.965 23.9782 108.253 24.2805 108.646 24.5726L108.647 24.5718Z" fill="#01447B"/>
<path d="M121.934 24.5127C121.693 24.7297 121.475 24.9273 121.214 25.162C120.737 24.5946 120.112 24.337 119.415 24.5254C119.019 24.6317 118.601 24.8724 118.327 25.1747C117.631 25.9465 117.767 27.4563 118.53 28.185C119.255 28.8783 120.291 28.8251 121.244 28.0204C121.452 28.2121 121.664 28.408 121.873 28.6005C121.309 29.564 119.255 29.9566 117.951 28.9585C116.662 27.9722 116.493 25.77 117.61 24.5346C118.704 23.3229 120.791 23.2967 121.935 24.5135L121.934 24.5127Z" fill="#01447B"/>
<path d="M134.472 28.5414C134.616 29.3689 134.585 29.4221 133.819 29.5124C133.571 29.542 133.311 29.5471 133.064 29.5108C132.333 29.4018 131.967 29.0168 131.941 28.2695C131.906 27.2308 131.916 26.1905 131.907 25.1511C131.906 24.972 131.907 24.793 131.907 24.5853C131.647 24.5693 131.441 24.5558 131.143 24.5372C131.693 23.7603 132.215 23.0223 132.737 22.2843C132.764 22.2936 132.791 22.3029 132.819 22.3113V23.7384H134.457V24.56C134.041 24.56 133.637 24.5819 133.236 24.5532C132.886 24.5279 132.812 24.6706 132.819 24.9898C132.838 25.8181 132.818 26.6474 132.823 27.4766C132.832 28.5735 133.193 28.8445 134.279 28.5819C134.332 28.5692 134.385 28.5591 134.473 28.5414H134.472Z" fill="#01447B"/>
<path d="M22.6243 13.0836V17.8089H18.9519C20.1695 16.2417 21.3669 14.7006 22.6243 13.0836Z" fill="#01447B"/>
<path d="M123.121 23.7628H124.003V29.3697H123.121V23.7628Z" fill="#01447B"/>
<path d="M149.999 28.3108C149.981 29.1232 149.332 29.7337 148.518 29.705C147.731 29.6779 147.127 29.0387 147.135 28.2416C147.142 27.4327 147.789 26.8145 148.609 26.8323C149.435 26.85 150.018 27.4698 150 28.31L149.999 28.3108ZM148.588 27.0729C147.928 27.0645 147.389 27.5728 147.374 28.2163C147.357 28.907 147.895 29.4702 148.578 29.4761C149.212 29.4812 149.756 28.9399 149.771 28.2906C149.786 27.6142 149.269 27.0822 148.589 27.0729H148.588Z" fill="#01447B"/>
<path d="M124.226 21.5876C124.214 21.9997 123.937 22.2454 123.508 22.2243C123.12 22.2058 122.87 21.9254 122.886 21.5268C122.901 21.1435 123.186 20.8724 123.568 20.8775C123.967 20.8834 124.238 21.1747 124.225 21.5868L124.226 21.5876Z" fill="#01447B"/>
<path d="M148.222 28.4578C148.201 28.652 148.18 28.847 148.16 29.0413C148.103 29.0413 148.047 29.0396 147.991 29.0396C147.915 28.5591 147.972 28.0693 147.97 27.545C148.373 27.5779 148.811 27.3465 149.065 27.762C149.149 27.9013 148.994 28.1867 148.947 28.4046C148.904 28.4012 148.861 28.397 148.819 28.3936C148.945 28.5895 149.07 28.7863 149.196 28.983C149.163 29.0142 149.129 29.0446 149.096 29.0759C148.981 28.9585 148.871 28.8361 148.751 28.7246C148.613 28.5963 148.466 28.4764 148.323 28.3531C148.29 28.3885 148.257 28.4232 148.223 28.4586L148.222 28.4578ZM148.252 28.3083C148.498 28.1766 148.689 28.0744 148.88 27.9731C148.745 27.887 148.616 27.7459 148.472 27.7274C148.143 27.6851 148.181 27.9241 148.252 28.3083V28.3083Z" fill="#01447B"/>
</svg>
