<svg xmlns="http://www.w3.org/2000/svg" viewBox="0 0 140.07 66.936">
  <g id="posh_logo_2022" transform="translate(22064 18737)">
    <path id="Path_53290" d="M344.188,84.1,339.444,83c-3.23-.7-4.868-2.315-4.868-4.809,0-2.813,2.618-4.854,6.224-4.854,3.135,0,5.541,1.7,5.987,4.218l.052.293,4.848-1.412-.05-.241c-.976-4.7-5.256-7.739-10.906-7.739-6.409,0-11.243,4.215-11.243,9.8,0,4.981,2.944,8.179,8.748,9.5l4.7,1.09c3.257.842,4.908,2.509,4.908,4.955,0,3.272-2.887,5.47-7.183,5.47-5.259,0-7-3.185-7.569-5.084l-.13-.432-4.676,1.362.056.245c.932,4.054,4.717,8.789,12.319,8.789,7.225,0,12.27-4.228,12.27-10.284,0-2.863-1.136-7.939-8.746-9.776" transform="translate(-22312.787 -18788.879)" fill="#091763"/>
    <path id="Path_53291" d="M183.208,67.94a17.975,17.975,0,1,0,17.977,17.975A18,18,0,0,0,183.208,67.94M196.03,85.915a12.823,12.823,0,1,1-12.823-12.823A12.823,12.823,0,0,1,196.03,85.915" transform="translate(-22189.217 -18788.488)" fill="#091763"/>
    <path id="Path_53292" d="M17.977,67.94A18.051,18.051,0,0,0,.079,84.284H0v34.14H5.087V98.43a17.972,17.972,0,1,0,12.89-30.49m0,30.8a12.8,12.8,0,0,1-10.04-4.859L5.153,96.661V86.449l.014.019c-.008-.183-.014-.367-.014-.552A12.823,12.823,0,1,1,17.976,98.737" transform="translate(-22064 -18788.488)" fill="#091763"/>
    <path id="Path_53293" d="M473.488,16.575a14.034,14.034,0,0,0-10.539,4.539V0h-5.087V51.456h5.088V32.43c.241-9.992,7.971-10.769,10.334-10.769,5.485,0,9.17,4.07,9.17,10.128V51.456h5.087v-19.8c0-9.018-5.647-15.077-14.051-15.077" transform="translate(-22411.469 -18737)" fill="#091763"/>
  </g>
</svg>
