<svg viewBox="0 0 103 40" fill="none" xmlns="http://www.w3.org/2000/svg">
<path d="M17.3331 -6.67572e-05L0 10.0126V18.8628L17.3331 8.78044L27.081 14.3732L25.1412 15.5006L17.3331 11.0098L10.5412 14.9384L26.0618 23.925L34.6662 18.8888V10.0126L17.3331 -6.67572e-05Z" fill="#3D4647"/>
<path d="M17.3331 40L34.6662 30.0094V21.1371L17.3331 31.2198L7.58437 25.6267L9.525 24.4997L17.3331 28.9902L24.125 25.0615L8.60444 16.0749L0 21.1112V30.0094L17.3331 40Z" fill="#5BB73B"/>
<path d="M58.5905 12.3876C56.4842 12.3876 54.8207 13.116 53.5989 14.5714C52.4287 15.9498 51.8436 17.6908 51.8436 19.7971C51.8436 21.9031 52.4287 23.6453 53.5989 25.0229C54.8207 26.4788 56.4842 27.2063 58.5905 27.2063C60.67 27.2063 62.3592 26.4788 63.6596 25.0229C64.8813 23.6453 65.4923 21.9031 65.4923 19.7971C65.4923 17.6908 64.8813 15.9498 63.6596 14.5714C62.3592 13.116 60.67 12.3876 58.5905 12.3876ZM51.9994 13.1679C53.5599 10.8799 55.8857 9.73557 58.9805 9.73557C61.7883 9.73557 64.062 10.7107 65.8049 12.6611C67.5459 14.5857 68.4179 16.9633 68.4179 19.7971C68.4179 22.6309 67.5459 25.0095 65.8049 26.9331C64.062 28.8824 61.7225 29.8575 58.7856 29.8575C55.8476 29.8575 53.5855 28.7019 51.9994 26.387V37.267H49.0759V10.0481H51.9994V13.1679Z" fill="#3D4647"/>
<path d="M74.5007 29.5458V12.6217H70.5226V10.048H74.5007V3.06781H77.4253V10.048H81.9101V12.6217H77.4253V29.5458H74.5007Z" fill="#3D4647"/>
<path d="M94.2325 27.2062C95.4801 27.2062 96.5854 26.8553 97.5471 26.1528C98.5088 25.4509 99.2106 24.5416 99.6525 23.4233H102.811C102.214 25.3478 101.122 26.8946 99.5357 28.0639C97.8712 29.2598 95.896 29.8583 93.608 29.8583C90.7486 29.8583 88.4216 28.8832 86.6281 26.9327C84.8862 25.0359 84.016 22.6573 84.016 19.7967C84.016 16.9373 84.8862 14.5587 86.6281 12.6607C88.4216 10.7114 90.7486 9.73637 93.608 9.73637C95.896 9.73637 97.8712 10.3349 99.5357 11.5298C101.122 12.6992 102.214 14.2468 102.811 16.1705H99.6525C99.2106 15.053 98.5088 14.1429 97.5471 13.441C96.5854 12.7382 95.4801 12.3875 94.2325 12.3875C92.9848 12.3875 91.9254 12.5824 91.0537 12.9726C90.1826 13.3626 89.4482 13.8962 88.8509 14.571C87.5764 15.9756 86.9406 17.7173 86.9406 19.7967C86.9406 21.8771 87.5764 23.6181 88.8509 25.0225C90.1501 26.4787 91.9447 27.2062 94.2325 27.2062Z" fill="#3D4647"/>
</svg>
