<svg xmlns="http://www.w3.org/2000/svg" role="img" xmlns:xlink="http://www.w3.org/1999/xlink" viewBox="-2.40 -2.40 124.67 42.92"><title>5ffb1e485e7fe00b28191a39_Salt Logo Long - dark.svg</title><defs><path id="a" d="M0 38.248h119.928V0H0z"/></defs><g transform="translate(-332 -401) translate(332 401)" fill="none" fill-rule="evenodd" stroke="none" stroke-width="1"><path fill="#3D3D3D" d="M46.53322 36.31029h4.10557c.71298 0 1.09827-.07139 1.39728-.25659.39935-.24224.59888-.6413.59888-1.19747 0-.7273-.29958-1.22613-.85546-1.39728-.2709-.0711-.62697-.09977-1.42566-.09977h-.7838c-1.1837 0-1.91044-.14276-2.40983-.48477-.62698-.4134-.96928-1.1261-.96928-1.99588 0-1.06932.51316-1.98155 1.36862-2.46632.5275-.28525 1.18314-.39935 2.32384-.39935h3.90632v1.2118h-3.90632c-.84112 0-1.21208.07139-1.53976.27092-.32797.2282-.54155.65592-.54155 1.16909 0 .95522.58426 1.3259 2.08131 1.3259h.57021c1.6682 0 2.33846.12843 2.86539.55587.5851.48478.92684 1.31157.92684 2.25275 0 1.11203-.49883 1.96749-1.38295 2.39522-.54155.25658-1.08338.32796-2.40928.32796h-3.92037v-1.21208z"/><path fill="#3D3D3D" d="M63.69859 29.2247h-2.7659c-1.38296 0-1.99588.28524-2.48066 1.12636-.28525.4845-.38473.89818-.42745 1.7823h5.674v1.2118h-5.68861c.01461.72675.15681 1.31129.4564 1.85312.47044.81274 1.11203 1.11203 2.38088 1.11203h2.85134v1.2118h-3.12225c-1.68225 0-2.59476-.35634-3.32206-1.32561-.64132-.85546-.91223-1.8253-.91223-3.23635 0-1.93883.55616-3.33611 1.66792-4.2059.67025-.51316 1.58276-.74136 3.00815-.74136h2.68047v1.2118z"/><path fill="#3D3D3D" d="M73.59285 37.52223h-2.9511c-1.7823 0-2.73723-.2993-3.49293-1.08337-.7554-.79841-1.2118-2.13864-1.2118-3.60703 0-1.7823.67026-3.4075 1.71091-4.16318.6416-.45612 1.53949-.65593 2.9081-.65593h3.03682v1.21209h-2.9511c-1.34023 0-1.88178.18548-2.33817.7554-.47045.61321-.7557 1.69659-.7557 2.89434 0 1.18314.31364 2.1527.8698 2.75157.49883.5275 1.05499.68403 2.35222.68403h2.82295v1.21208z"/><path fill="#3D3D3D" d="M77.61372 33.6586c0 1.0977.12815 1.6682.47045 2.0532.41368.49883 1.08337.74108 2.03887.74108 1.08338 0 1.86745-.32796 2.25218-.95522.21387-.35635.28525-.7984.28525-1.95288v-5.53209h1.52571v5.53209c0 1.8104-.17143 2.43794-.86979 3.07925-.7554.69864-1.88178 1.04065-3.39316 1.04065-1.56815 0-2.6088-.44178-3.25068-1.38267-.44178-.62726-.58454-1.28318-.58454-2.62342v-5.6459h1.52571v5.6459z"/><mask id="b" fill="#fff"><use xlink:href="#a"/></mask><path fill="#3D3D3D" d="M97.403 37.522h1.525v-9.509h-1.525z" mask="url(#b)"/><path fill="#3D3D3D" d="M101.081 29.225v-1.212h8.097v1.212h-3.279v8.297h-1.525v-8.297z" mask="url(#b)"/><path fill="#3D3D3D" d="M110.79 28.013h1.768l2.837 4.491 2.78-4.491h1.753l-3.806 5.688v3.821h-1.526v-3.821z" mask="url(#b)"/><path fill="#3D3D3D" d="M88.23524 29.2247h2.70885c.86951 0 1.26858.05704 1.52516.18547.41367.2282.64187.72703.64187 1.33996 0 .54182-.17115.94089-.5275 1.22613-.28524.22848-.75597.31363-1.63953.31363h-.56234v1.23457c1.76853.12562 2.43457.83494 2.60094 2.62904.02866.32796.0652.88834.08543 1.36384h1.50801c-.0191-.18183-.04693-.87204-.08206-1.43522-.11438-1.76768-.48506-2.38061-1.75391-2.93677.55644-.14276.82735-.27091 1.1407-.54183.54183-.44206.84113-1.14042.84113-1.95316 0-.85546-.3704-1.6252-.98361-2.08131-.54183-.38501-1.32618-.55616-2.69452-.55616h-4.33433v9.50923h1.52571v-8.29743z" mask="url(#b)"/><path fill="#3D3D3D" d="M46.191 19.12817h9.11607c3.197 0 4.43157-.91757 4.43157-3.26052 0-1.55044-.66492-2.65798-1.83597-3.0385-.56993-.18997-1.39279-.25236-3.2282-.25236h-1.74126c-2.53237 0-4.1466-.317-5.25415-1.01312-1.4563-.9184-2.2474-2.5006-2.2474-4.4948 0-2.31091 1.07579-4.27307 2.88-5.38145C49.51447.99159 51.00225.70634 53.6296.70634h8.6726v2.69059h-8.6726c-1.86773 0-2.69058.15822-3.41845.6014-.72815.50614-1.20337 1.4563-1.20337 2.59532 0 2.12122 1.29836 2.94435 4.62182 2.94435h1.26604c3.57668 0 5.06417.2844 6.2355 1.1393 1.36104 1.0446 2.18418 2.91232 2.18418 5.09593 0 2.40562-1.04487 4.27335-2.91232 5.22267-1.23429.63288-2.46885.82285-5.50736.82285h-8.70463v-2.69058z" mask="url(#b)"/><path fill="#3D3D3D" d="M75.897 3.239l-7.312 18.58h-3.576L73.745.706h4.431l8.388 21.113h-3.577z" mask="url(#b)"/><path fill="#3D3D3D" d="M91.7654.70505v12.28187c0 2.68975.28497 3.92431.98108 4.71541 1.0446 1.01312 2.4059 1.4563 4.55804 1.42455h5.4309v2.69086h-6.09554c-5.85555.09527-8.41967-2.5318-8.26173-8.41939V.70505h3.38726z" mask="url(#b)"/><path fill="#3D3D3D" d="M101.949 3.397V.706h17.979v2.691h-7.28v18.422h-3.387V3.397z" mask="url(#b)"/><path fill="#3D3D3D" d="M33.02704 38.24757H5.8528c-2.47532 0-4.4889-2.01358-4.4889-4.48862v-5.37527c0-2.47475 2.01358-4.48834 4.4889-4.48834h13.0429c1.24019 0 2.44103-.446 3.38192-1.25592l1.65724-1.4268c.2962-.2546.36646-.42435.44768-.6205.3229-.77706.81077-1.0519 1.86464-1.0519h6.77986c2.47503 0 4.48861 2.01358 4.48861 4.48833v9.7304c0 2.47504-2.01358 4.48862-4.48861 4.48862" mask="url(#b)"/><path fill="#3D3D3D" d="M15.44973 20.0717H5.06593c-2.0414 0-3.702-1.66089-3.702-3.70258V5.0658c0-2.04084 1.6606-3.70173 3.702-3.70173h28.74774c2.04112 0 3.70201 1.66089 3.70201 3.70173v6.94876c0 2.04112-1.66089 3.70201-3.70201 3.70201h-9.40188c-1.05217 0-2.0712.37827-2.86932 1.0651l-2.10042 1.80816c-1.11063.95578-2.52843 1.48187-3.99232 1.48187" mask="url(#b)"/><path fill="#3D3D3D" d="M31.42811 36.4143H4.25415c-2.34576 0-4.25423-1.9082-4.25423-4.25424v-5.375c0-2.34575 1.90847-4.25367 4.25423-4.25367h13.04263c1.29723 0 2.55288-.46623 3.53536-1.31241l1.6578-1.4268c1.2104-1.04205 2.75719-1.61592 4.354-1.61592h4.58417c2.34576 0 4.25424 1.90792 4.25424 4.25368v9.73012c0 2.34604-1.90848 4.25424-4.25424 4.25424" mask="url(#b)"/><path fill="#3D3D3D" d="M13.85137 18.23815H3.4673c-1.91213 0-3.46736-1.55523-3.46736-3.46708V3.46747C-.00006 1.55533 1.55517.0001 3.4673.0001h28.748c1.91158 0 3.46708 1.55522 3.46708 3.46736v6.94847c0 1.91185-1.5555 3.46708-3.46707 3.46708h-9.40244c-1.10838 0-2.18164.39822-3.02192 1.12159l-2.10098 1.80871c-1.0668.91869-2.43007 1.42483-3.8386 1.42483" mask="url(#b)"/><path fill="#AB47BC" d="M3.46724 1.25227c-1.22136 0-2.21508.99373-2.21508 2.21536v11.30333c0 1.22108.99372 2.21508 2.21508 2.21508h10.38408c1.10894 0 2.18192-.39822 3.02164-1.12187l2.10126-1.80843c1.06735-.9187 2.43063-1.4251 3.8386-1.4251h9.40243c1.22108 0 2.2148-.99373 2.2148-2.2148v-6.9482c0-1.22164-.99372-2.21537-2.2148-2.21537h-28.748z" mask="url(#b)"/><path fill="#AB47BC" d="M3.46724 1.46304c-1.1053 0-2.0043.8993-2.0043 2.0046v11.30332c0 1.1053.899 2.0043 2.0043 2.0043h10.38408c1.05864 0 2.08271-.38022 2.88421-1.07072l2.10099-1.8087c1.10613-.95158 2.51803-1.47598 3.9763-1.47598h9.40243c1.10501 0 2.00403-.89902 2.00403-2.00403v-6.9482c0-1.10529-.89902-2.00459-2.00403-2.00459h-28.748zm10.38408 15.73378H3.46724c-1.3377 0-2.42585-1.08815-2.42585-2.42586V3.46763c0-1.3377 1.08815-2.42613 2.42585-2.42613h28.74801c1.33742 0 2.42557 1.08843 2.42557 2.42613v6.9482c0 1.33743-1.08815 2.42558-2.42557 2.42558h-9.40243c-1.35738 0-2.67176.48814-3.70118 1.37395l-2.10126 1.80843c-.87766.75654-1.99953 1.17302-3.15906 1.17302z" mask="url(#b)"/><path fill="#D5D4D8" d="M4.25407 23.7833c-1.65555 0-3.00197 1.3467-3.00197 3.00196v5.375c0 1.65526 1.34642 3.00168 3.00197 3.00168h27.17396c1.65555 0 3.00197-1.34642 3.00197-3.00169v-9.73011c0-1.65527-1.34642-3.00197-3.00197-3.00197h-4.58417c-1.29696 0-2.55344.4665-3.53705 1.31297l-1.6578 1.4268c-1.20955 1.0415-2.75522 1.61536-4.35232 1.61536H4.25407z" mask="url(#b)"/><path fill="#D5D4D8" d="M4.25407 23.99407c-1.5392 0-2.7912 1.252-2.7912 2.7912v5.37498c0 1.53893 1.252 2.79092 2.7912 2.79092h27.17396c1.5392 0 2.7912-1.252 2.7912-2.79092v-9.73011c0-1.5392-1.252-2.7912-2.7912-2.7912h-4.58417c-1.24665 0-2.45396.44825-3.39963 1.26183l-1.65751 1.42679c-1.24834 1.07494-2.8429 1.66651-4.49003 1.66651H4.25407zm27.17396 11.37864H4.25407c-1.77162 0-3.21274-1.44112-3.21274-3.21246v-5.37499c0-1.77161 1.44112-3.21274 3.21274-3.21274h13.04262c1.54623 0 3.043-.5556 4.2149-1.56421l1.6578-1.42707c1.0221-.87935 2.32693-1.36384 3.67447-1.36384h4.58417c1.77161 0 3.21274 1.44112 3.21274 3.21274v9.73011c0 1.77134-1.44113 3.21246-3.21274 3.21246z" mask="url(#b)"/></g></svg>