<svg viewBox="0 0 42 42" fill="none" xmlns="http://www.w3.org/2000/svg">
<path d="M4.355 41.0066C3.195 41.0066 2.095 40.5566 1.275 39.7266C-0.425 38.0266 -0.425 35.2666 1.275 33.5666L22.245 12.5866C21.135 9.1666 22.035 5.3566 24.585 2.8066C27.195 0.196601 31.015 -0.673399 34.525 0.536601C34.685 0.596601 34.815 0.726601 34.845 0.896601C34.875 1.0666 34.835 1.2366 34.715 1.3666L30.495 5.5866L31.085 9.9266L35.425 10.5166L39.645 6.2966C39.765 6.1766 39.945 6.1266 40.115 6.1666C40.285 6.2066 40.415 6.3266 40.475 6.4866C41.685 9.9966 40.815 13.8166 38.195 16.4266C35.645 18.9766 31.845 19.8766 28.415 18.7666L26.885 20.2966C26.685 20.4966 26.375 20.4966 26.175 20.2966C25.975 20.0966 25.975 19.7866 26.175 19.5866L27.925 17.8366C28.065 17.6966 28.265 17.6566 28.445 17.7166C31.585 18.8466 35.125 18.0666 37.475 15.7166C39.625 13.5666 40.465 10.5166 39.745 7.5866L35.945 11.3866C35.835 11.4966 35.675 11.5466 35.525 11.5266L30.565 10.8566C30.345 10.8266 30.165 10.6466 30.135 10.4266L29.465 5.4666C29.445 5.3066 29.495 5.1566 29.605 5.0466L33.405 1.2466C30.475 0.536601 27.435 1.3666 25.275 3.5166C22.925 5.8666 22.135 9.4166 23.275 12.5466C23.345 12.7266 23.295 12.9366 23.155 13.0666L1.975 34.2666C0.665 35.5766 0.665 37.7066 1.975 39.0166C3.245 40.2866 5.455 40.2866 6.725 39.0166L24.635 21.1066C24.835 20.9066 25.145 20.9066 25.345 21.1066C25.545 21.3066 25.545 21.6166 25.345 21.8166L7.435 39.7266C6.615 40.5466 5.515 41.0066 4.355 41.0066Z" fill="#1B0B5B"/>
<path d="M7.50488 33.9866C7.37488 33.9866 7.24488 33.9366 7.15488 33.8366C6.95488 33.6366 6.95488 33.3266 7.15488 33.1266L8.35488 31.9266C8.55488 31.7266 8.86488 31.7266 9.06488 31.9266C9.26488 32.1266 9.26488 32.4366 9.06488 32.6366L7.86488 33.8366C7.76488 33.9366 7.63488 33.9866 7.51488 33.9866H7.50488Z" fill="#795CEC"/>
<path d="M10.2451 31.2566C10.1151 31.2566 9.98512 31.2066 9.89512 31.1066C9.69512 30.9066 9.69512 30.5966 9.89512 30.3966L23.8051 16.4866C24.0051 16.2866 24.3151 16.2866 24.5151 16.4866C24.7151 16.6866 24.7151 16.9966 24.5151 17.1966L10.6051 31.1066C10.5051 31.2066 10.3751 31.2566 10.2551 31.2566H10.2451Z" fill="#795CEC"/>
<path d="M4.53523 38.1366C5.45755 38.1366 6.20523 37.3889 6.20523 36.4666C6.20523 35.5443 5.45755 34.7966 4.53523 34.7966C3.61292 34.7966 2.86523 35.5443 2.86523 36.4666C2.86523 37.3889 3.61292 38.1366 4.53523 38.1366Z" fill="#795CEC"/>
</svg>
